<svg id="Capa_1" data-name="Capa 1" xmlns="http://www.w3.org/2000/svg" viewBox="0 0 170.08 283.46"><defs><style>.cls-1{fill:none;stroke:#fff;stroke-linecap:round;stroke-linejoin:round;stroke-width:1.1px;stroke-dasharray:0.5 0.5;}</style></defs><line class="cls-1" x1="129.32" y1="283.15" x2="125.87" y2="282.24"/><line class="cls-1" x1="129.14" y1="268.53" x2="3.6" y2="239.45"/><path class="cls-1" d="M129.14,268.53l.31-.42.08-.1.07-.1a1.24,1.24,0,0,0,.1-.2.74.74,0,0,0-.25-.83,1.22,1.22,0,0,0-.46-.25,1.19,1.19,0,0,0-.27-.07l-.26-.06-1-.24-4.09-.93-8-1.81-16-3.63-32-7.27-32-7.27-16-3.64L11.69,240,8,239.11l-1.83-.42-.23-.05-.11,0-.12,0H5.36a2.66,2.66,0,0,0-.39.07,3.21,3.21,0,0,0-.78.35.71.71,0,0,0-.14.1l-.15.11-.3.23"/><path class="cls-1" d="M156.64,230.46a.31.31,0,0,0,0,.32.4.4,0,0,0,.29.15"/><path class="cls-1" d="M152.66,240.84a.67.67,0,0,0-.39.07.61.61,0,0,0-.29.28"/><path class="cls-1" d="M152.39,239.55a.21.21,0,0,0,.06.21.34.34,0,0,0,.21.08"/><path class="cls-1" d="M156.19,231.79h0"/><path class="cls-1" d="M31,214.31l-.22.32"/><path class="cls-1" d="M31.8,213.58a.65.65,0,0,1-.39.25"/><path class="cls-1" d="M26.6,221.11l.34.06.34.05a1,1,0,0,0,.35,0,2.07,2.07,0,0,0,.43-.1,3.09,3.09,0,0,0,1.22-.8,1.94,1.94,0,0,0,.23-.26l.09-.12.1-.15.45-.66.83-1.21,1.67-2.44.12-.18.06-.08.09-.15c0-.11.1-.22.14-.33a1.06,1.06,0,0,0,0-.61.66.66,0,0,0-.49-.44l-.18,0-.2,0-.4,0"/><path class="cls-1" d="M27.11,220l-.56.82"/><path class="cls-1" d="M156.16,231.78c-1.08,2.73-2.24,5.41-3.5,8.06"/><line class="cls-1" x1="152.74" y1="241.51" x2="151.91" y2="241.38"/><line class="cls-1" x1="156.66" y1="230.49" x2="157.48" y2="230.6"/><path class="cls-1" d="M30.85,214.57l.16-.26"/><path class="cls-1" d="M26.93,220.22q1.8-2.31,3.37-4.78"/><line class="cls-1" x1="31.57" y1="213.57" x2="31.9" y2="213.61"/><path class="cls-1" d="M4.18,239l.46-.24"/><path class="cls-1" d="M137,264c.45-.25.9-.5,1.34-.77s.88-.53,1.32-.81q1.29-.82,2.55-1.74,2.49-1.82,4.8-3.87"/><line class="cls-1" x1="70.78" y1="205.17" x2="153.65" y2="213.35"/><path class="cls-1" d="M155.32,220.15a136.44,136.44,0,0,1-8,20,93.14,93.14,0,0,1-11.62,18"/><path class="cls-1" d="M44.62,239.52a64.4,64.4,0,0,0,12.86-13.26,77.65,77.65,0,0,0,9-16.16"/><path class="cls-1" d="M163,236.3a77.82,77.82,0,0,1-16,20.55"/><path class="cls-1" d="M131.92,268.79A63.17,63.17,0,0,0,137,264"/><line class="cls-1" x1="162.55" y1="237.1" x2="162.55" y2="237.13"/><line class="cls-1" x1="162.66" y1="237.66" x2="162.66" y2="237.67"/><line class="cls-1" x1="161.49" y1="258.3" x2="161.5" y2="258.31"/><line class="cls-1" x1="161.75" y1="258.5" x2="161.75" y2="258.49"/><path class="cls-1" d="M3.6,239.45a.94.94,0,0,0-.79.19,1.71,1.71,0,0,0-.49.67"/><line class="cls-1" x1="162.98" y1="236.3" x2="162.9" y2="237.78"/><line class="cls-1" x1="162.9" y1="237.78" x2="162.89" y2="237.81"/><polyline class="cls-1" points="162.72 241.05 162.72 241.05 161.76 258.49"/><path class="cls-1" d="M43.63,240.27,47,241l1.67.34.4.09.21,0a.83.83,0,0,0,.22,0,2.36,2.36,0,0,0,.46,0l.22,0,.17,0"/><path class="cls-1" d="M134.87,259.19l-3.71-.77L129.3,258l-.93-.19-.35-.08-.15-.06a.3.3,0,0,1-.11-.06c-.12-.08-.09-.16,0-.22"/><path class="cls-1" d="M8.58,236a59.2,59.2,0,0,0,17.69-14.8"/><path class="cls-1" d="M26.27,221.2l.33-.41"/><line class="cls-1" x1="27.09" y1="220.09" x2="30.3" y2="215.44"/><line class="cls-1" x1="30.3" y1="215.44" x2="30.94" y2="214.52"/><line class="cls-1" x1="31.41" y1="213.83" x2="31.44" y2="213.79"/><path class="cls-1" d="M147.54,220.71a.26.26,0,0,1,.12,0,.27.27,0,0,1,.08.1.25.25,0,0,1,0,.12v.13l0,.51"/><path class="cls-1" d="M147.73,221.62l0,.82"/><path class="cls-1" d="M147.7,222.44l-.39,8.68"/><path class="cls-1" d="M147.31,231.12l0,.81"/><path class="cls-1" d="M147.27,231.93v.4a.09.09,0,0,1,0,0v.05a.41.41,0,0,1-.05.09l-.08,0H147"/><path class="cls-1" d="M4.64,238.78a21.39,21.39,0,0,0,2-1.3l1-.73c.32-.24.63-.5.94-.75"/><path class="cls-1" d="M8.58,236c.46-.38,1.05-.87,1.5-1.26s1-.85,1.48-1.28,1-.87,1.45-1.32.94-.89,1.41-1.35"/><path class="cls-1" d="M135.74,258.16c-.28.35-.57.69-.87,1"/><path class="cls-1" d="M134.87,259.19q-2.22,2.56-4.68,4.92"/><path class="cls-1" d="M147.54,220.71l0,.82"/><path class="cls-1" d="M30.3,215.44c.19-.29.37-.58.55-.87"/><path class="cls-1" d="M26.7,221.13h0"/><path class="cls-1" d="M31.41,213.83h-.07"/><path class="cls-1" d="M30.94,214.52a.29.29,0,0,1,.16,0"/><path class="cls-1" d="M26.6,220.79a.15.15,0,0,1,.07.16.24.24,0,0,1-.07.16"/><path class="cls-1" d="M27.09,220.09a.11.11,0,0,1,0-.08"/><line class="cls-1" x1="26.27" y1="221.2" x2="26.16" y2="221.19"/><path class="cls-1" d="M137,264h0"/><path class="cls-1" d="M43.63,240.27l1-.75"/><path class="cls-1" d="M147.27,231.93a.37.37,0,0,1-.23,0"/><path class="cls-1" d="M147.7,222.44a.41.41,0,0,1-.34,0,.53.53,0,0,1-.26-.23"/><path class="cls-1" d="M153.62,268.36a2.7,2.7,0,0,0-.27,1"/><path class="cls-1" d="M132.48,281.21a2.47,2.47,0,0,0-.26,1.06"/><path class="cls-1" d="M141.46,275.75a4.08,4.08,0,0,0-.32.58,4.16,4.16,0,0,0-.23.62"/><path class="cls-1" d="M74.58,268.43s.13.24.18.25"/><path class="cls-1" d="M60.13,264.59a.64.64,0,0,0,.08.14s.07.11.11.12"/><path class="cls-1" d="M46.74,261a1.19,1.19,0,0,0,.09.15s.07.1.12.11"/><path class="cls-1" d="M34.31,257.75a.64.64,0,0,0,.08.14s.08.1.12.11"/><path class="cls-1" d="M22.72,254.68a.67.67,0,0,0,.09.14.22.22,0,0,0,.12.11"/><path class="cls-1" d="M11.9,251.82,12,252s.08.09.12.1"/><path class="cls-1" d="M125.77,282.07l0,.09,0,0v0h0"/><path class="cls-1" d="M107.23,277.11l.06.12s.06.1.08.1"/><path class="cls-1" d="M90.23,272.58s.12.24.16.25"/><path class="cls-1" d="M11.9,251.82l-4-1.07-2-.53-1-.27-.21-.06-.21,0-.28,0H3.81"/><path class="cls-1" d="M22.72,254.68l-4.33-1.14L16.23,253l-1.08-.28-.23-.06-.23-.06-.29,0H14"/><path class="cls-1" d="M34.31,257.75l-.15,0-.15,0-.29-.07-.58-.16L32,257.13l-2.33-.61-2.32-.62-1.16-.3-.25-.07-.12,0-.13,0-.31,0H25"/><path class="cls-1" d="M46.74,261l-.15,0-.16,0-.31-.08-.63-.17-1.25-.33-2.51-.66-2.5-.67L38,258.72l-.28-.07-.13,0-.14,0-.33,0a2.67,2.67,0,0,0-.4,0"/><path class="cls-1" d="M60.13,264.59l-.15,0-.17,0-.35-.09-.68-.18-1.36-.36-2.7-.72L52,262.44l-1.35-.36-.3-.08-.15,0-.14,0a2.21,2.21,0,0,0-.37,0h-.41"/><path class="cls-1" d="M74.58,268.43a.52.52,0,0,0-.16-.06l-.19-.05-.37-.1-.74-.2-1.47-.39-1.46-.38-1.47-.39-2.93-.78-1.47-.39-.32-.08-.16,0-.16,0-.39-.06a3.53,3.53,0,0,0-.46,0"/><path class="cls-1" d="M90.23,272.58l-.16-.07-.19-.05-.41-.11-.83-.22-1.59-.42-3.19-.84L80.67,270l-1.59-.42-.37-.1-.18,0-.18,0a2.9,2.9,0,0,0-.41-.06,3.84,3.84,0,0,0-.48,0"/><path class="cls-1" d="M107.23,277.11a1.32,1.32,0,0,0-.35-.15l-.11,0-.12,0-.23-.06-.91-.24-1.74-.46-3.48-.93-3.48-.92-1.74-.46-.41-.11-.2-.05-.1,0-.1,0a2.34,2.34,0,0,0-.45-.07h-.5"/><path class="cls-1" d="M125.77,282.07l-.15-.1a.72.72,0,0,0-.2-.09l-.23-.07-.26-.07-1-.28L122,281l-3.82-1-3.82-1-1.91-.51-.45-.12-.23-.06-.11,0-.11,0a3.24,3.24,0,0,0-1-.07"/><path class="cls-1" d="M2.32,240.31a2.81,2.81,0,0,0-.16.49,2.17,2.17,0,0,0,0,.25,2.48,2.48,0,0,0,0,.27c0,.34-.06.69-.1,1l-.19,2.07-.38,4.14"/><line class="cls-1" x1="2.32" y1="240.31" x2="2.47" y2="238.92"/><path class="cls-1" d="M77.23,269.33a.21.21,0,0,1-.19-.17.33.33,0,0,1,.11-.25"/><line class="cls-1" x1="77.23" y1="269.33" x2="74.76" y2="268.68"/><path class="cls-1" d="M62.6,265.46a.27.27,0,0,1-.19-.17.32.32,0,0,1,.1-.25"/><line class="cls-1" x1="62.6" y1="265.46" x2="60.32" y2="264.85"/><path class="cls-1" d="M49.06,261.86a.24.24,0,0,1-.19-.16.3.3,0,0,1,.08-.24"/><line class="cls-1" x1="49.06" y1="261.86" x2="46.95" y2="261.3"/><path class="cls-1" d="M36.48,258.53a.24.24,0,0,1-.19-.16.26.26,0,0,1,.07-.24"/><line class="cls-1" x1="36.48" y1="258.53" x2="34.51" y2="258"/><path class="cls-1" d="M24.76,255.42a.23.23,0,0,1-.13-.39"/><line class="cls-1" x1="24.76" y1="255.42" x2="22.93" y2="254.93"/><path class="cls-1" d="M13.83,252.52c-.2-.06-.26-.21-.14-.38"/><line class="cls-1" x1="13.83" y1="252.52" x2="12.11" y2="252.06"/><path class="cls-1" d="M3.6,249.8a.25.25,0,0,1-.19-.14.22.22,0,0,1,0-.22"/><line class="cls-1" x1="3.6" y1="249.8" x2="2.08" y2="249.4"/><path class="cls-1" d="M125.87,282.24h0"/><path class="cls-1" d="M129.32,283.15c-.11,0-.19-.09-.17-.21a.58.58,0,0,1,.15-.25"/><path class="cls-1" d="M110.27,278.1a.19.19,0,0,1-.17-.2.42.42,0,0,1,.14-.25"/><line class="cls-1" x1="110.27" y1="278.1" x2="107.37" y2="277.33"/><path class="cls-1" d="M93.06,273.54c-.09,0-.18-.08-.18-.19a.42.42,0,0,1,.12-.25"/><line class="cls-1" x1="93.06" y1="273.54" x2="90.39" y2="272.83"/><path class="cls-1" d="M77.46,269.35a.6.6,0,0,1-.23,0"/><path class="cls-1" d="M74.47,268.2a2.4,2.4,0,0,0,.11.23"/><path class="cls-1" d="M62.83,265.47a.6.6,0,0,1-.23,0"/><path class="cls-1" d="M60,264.39l.1.2"/><path class="cls-1" d="M49.29,261.88a.58.58,0,0,1-.23,0"/><path class="cls-1" d="M46.65,260.85l.09.19"/><path class="cls-1" d="M36.7,258.54a.81.81,0,0,1-.22,0"/><path class="cls-1" d="M34.22,257.57a1.51,1.51,0,0,0,.09.18"/><path class="cls-1" d="M25,255.44a.82.82,0,0,1-.22,0"/><path class="cls-1" d="M22.64,254.51a.89.89,0,0,0,.08.17"/><path class="cls-1" d="M14,252.53a.5.5,0,0,1-.21,0"/><path class="cls-1" d="M11.83,251.65a1.22,1.22,0,0,0,.07.17"/><path class="cls-1" d="M3.81,249.82a.71.71,0,0,1-.21,0"/><path class="cls-1" d="M1.8,249a1,1,0,0,0,.11.23.35.35,0,0,0,.17.17"/><path class="cls-1" d="M129.56,283.16a.64.64,0,0,1-.24,0"/><path class="cls-1" d="M125.58,281.71l.19.36"/><path class="cls-1" d="M110.52,278.12a1.06,1.06,0,0,1-.25,0"/><path class="cls-1" d="M107.08,276.82l.15.29"/><path class="cls-1" d="M93.31,273.55a.7.7,0,0,1-.25,0"/><path class="cls-1" d="M90.1,272.33a2,2,0,0,0,.13.25"/><path class="cls-1" d="M77.15,268.91a.74.74,0,0,1,.36-.24l.21,0h.1l.1,0,.83.22,1.66.43,3.31.87,3.31.87,1.65.44.4.1.19.05.1,0,.1,0a1,1,0,0,1,.35.21,1.17,1.17,0,0,1,.28.39"/><path class="cls-1" d="M62.51,265a.7.7,0,0,1,.35-.23.58.58,0,0,1,.19,0,1.25,1.25,0,0,1,.19,0l.74.2,1.53.4,1.54.41,1.53.4,3.06.8,1.53.41.35.09.17.05.18,0a.9.9,0,0,1,.34.2,1.22,1.22,0,0,1,.26.38"/><path class="cls-1" d="M49,261.46a.68.68,0,0,1,.31-.22l.18,0h.08l.08,0,.71.18,1.42.38,2.84.74,2.84.75,1.43.38.33.08.16.05.09,0,.08,0a1,1,0,0,1,.3.19,1.05,1.05,0,0,1,.23.36"/><path class="cls-1" d="M36.36,258.13a.56.56,0,0,1,.29-.21.41.41,0,0,1,.16,0h.08l.07,0,.66.17,1.32.35,2.64.7,2.65.69,1.32.35.31.08.15,0,.15,0a.77.77,0,0,1,.28.19,1,1,0,0,1,.21.33"/><path class="cls-1" d="M24.63,255a.62.62,0,0,1,.27-.21l.15,0a.27.27,0,0,1,.15,0l.6.16,1.24.32,2.46.65,2.47.65,1.23.32.29.08.14,0,.14,0a.64.64,0,0,1,.25.18.83.83,0,0,1,.2.32"/><path class="cls-1" d="M13.69,252.14a.55.55,0,0,1,.25-.2.32.32,0,0,1,.14,0,.27.27,0,0,1,.13,0l.57.14,1.15.31,2.31.6,2.3.61,1.16.31L22,254l.13,0,.13,0a.63.63,0,0,1,.24.16,1,1,0,0,1,.18.31"/><path class="cls-1" d="M3.45,249.44a.55.55,0,0,1,.23-.2l.13,0h.13l.53.14,1.08.29,2.16.56,2.16.57,1.08.29.25.06.12,0,.12,0a.57.57,0,0,1,.22.16.92.92,0,0,1,.17.29"/><path class="cls-1" d="M110.24,277.65a.8.8,0,0,1,.43-.24.69.69,0,0,1,.25,0H111l.12,0,1,.26,1.95.52,3.91,1,3.91,1,2,.52.47.12.23.06.12,0,.12,0a1.26,1.26,0,0,1,.76.68"/><path class="cls-1" d="M93,273.1a.83.83,0,0,1,.4-.24.6.6,0,0,1,.23,0h.1l.11,0,.91.23,1.8.48,3.59.94,3.59,1,1.8.47.43.11.21.06.11,0,.1,0a.86.86,0,0,1,.39.23,1.27,1.27,0,0,1,.31.41"/><path class="cls-1" d="M129.3,282.69a.88.88,0,0,1,.89-.25"/><path class="cls-1" d="M130.19,282.44c.29-2.49.59-5,.88-7.46l.22-1.87c0-.31.07-.63.1-.94a2.38,2.38,0,0,0,0-.46,2.47,2.47,0,0,0,0-.47,3.4,3.4,0,0,0-.73-1.71,2.8,2.8,0,0,0-1.54-1"/><path class="cls-1" d="M1.42,248.56a.46.46,0,0,1,.24.17.78.78,0,0,1,.14.27"/><path class="cls-1" d="M125.43,256.93l-.13,0-.17,0a2.3,2.3,0,0,1-.45,0,3.42,3.42,0,0,1-.46,0l-.2,0-.21-.05-1.61-.33-3.2-.66-3.21-.67-1.61-.33-.54-.12-.27-.05-.24-.06a.54.54,0,0,1-.19-.08l-.07,0,0-.05c0-.07.06-.13.11-.15"/><path class="cls-1" d="M51.8,241.71l-.13,0,0,0a.05.05,0,0,0,0,0c0,.06.1.1.14.12l.17,0,.2,0,.39.08,1.19.25,2.38.49,2.37.49,1.19.25.13,0,.14,0a1.94,1.94,0,0,0,.34,0l.34,0a1.19,1.19,0,0,0,.26,0"/><path class="cls-1" d="M86.13,248.81s-.16.06-.15.13a.05.05,0,0,0,0,0,.1.1,0,0,0,0,0,.69.69,0,0,0,.15.07l.22,0,.23.05.48.1,1.41.29,2.83.59,2.82.58,1.42.3.17,0,.16,0a2.83,2.83,0,0,0,.41,0,1.79,1.79,0,0,0,.4,0l.16,0,.12,0"/><path class="cls-1" d="M62.55,243.93a.45.45,0,0,0-.12.06l0,0s0,0,0,0a.08.08,0,0,0,0,.07.38.38,0,0,0,.13.06l.18,0,.21,0,.42.09,1.26.26,2.51.52,2.51.52,1.26.26.29.05a3.25,3.25,0,0,0,.72,0,1.09,1.09,0,0,0,.26-.05"/><path class="cls-1" d="M110.74,253.89l-.12,0-.16,0a2.1,2.1,0,0,1-.43,0,2,2,0,0,1-.43,0l-.18,0-.19,0-1.51-.31-3-.63-1.51-.31-1.5-.31L100.2,252l-.5-.11-.26,0-.22-.05a.71.71,0,0,1-.18-.08l-.05,0,0,0c0-.07.09-.12.14-.14"/><path class="cls-1" d="M74,246.3l-.13,0a.1.1,0,0,0,0,.07s0,0,0,0l0,0,.14.06.2.05.22,0,.45.1,1.33.27,2.66.55,2.66.56,1.33.27.32.06c.12,0,.25,0,.38,0l.38,0,.15,0,.12,0"/><path class="cls-1" d="M130.63,283.24a3.5,3.5,0,0,0-1.07-.08"/><line class="cls-1" x1="132.22" y1="282.27" x2="130.63" y2="283.24"/><path class="cls-1" d="M139.69,277.69a3.12,3.12,0,0,0-1-.08,1.72,1.72,0,0,0-.34.06l-.12.05-.09.06-.38.23L136,279.08l-3.51,2.13"/><path class="cls-1" d="M152.3,270a4.19,4.19,0,0,0-1.53.17l-.2.08-.16.09-.33.2-.66.4-2.65,1.62-5.31,3.22"/><path class="cls-1" d="M159.94,265.29a3.86,3.86,0,0,0-.9-.05,1.7,1.7,0,0,0-.31.06l-.11,0-.08.05-.32.19-1.53.93-3.07,1.86"/><line class="cls-1" x1="161.04" y1="264.61" x2="159.94" y2="265.29"/><path class="cls-1" d="M2.47,238.92A61.13,61.13,0,0,0,8.58,236"/><path class="cls-1" d="M31.44,213.79l.13-.22"/><path class="cls-1" d="M84.2,248.41a1,1,0,0,0-.27-.68.86.86,0,0,0-.29-.21l-.14-.05-.16,0L82,247.16l-2.79-.57L76.38,246,75,245.73l-.35-.07a.62.62,0,0,0-.33,0,.55.55,0,0,0-.25.25.73.73,0,0,0-.08.36"/><path class="cls-1" d="M147,232.58l-.19,0-.09,0a.16.16,0,0,1-.08-.06.24.24,0,0,1-.07-.18v-.2c0-.26,0-.52,0-.79,0-.52.05-1,.07-1.57,0-1,.09-2.09.14-3.13s.09-2.1.13-3.14c0-.53.05-1.05.07-1.57,0-.27,0-.53,0-.8V221s0-.09,0-.1a.2.2,0,0,1,.09-.17.11.11,0,0,1,.08,0h.09l.19,0"/><path class="cls-1" d="M50.31,241.4a1,1,0,0,0-.31-.7.42.42,0,0,0-.18-.11l-.09,0-.09,0-.38-.07-1.55-.32-3.09-.63"/><path class="cls-1" d="M113,254.35a.81.81,0,0,1,.12-.4.7.7,0,0,1,.33-.26l.21,0h.1l.1,0,.44.09,1.68.34,3.36.69,3.36.68,1.68.35.2,0a.67.67,0,0,1,.19,0,1,1,0,0,1,.37.23,1.08,1.08,0,0,1,.26.37,1.15,1.15,0,0,1,.08.41"/><path class="cls-1" d="M127.79,257.42a.76.76,0,0,1,.19-.48.72.72,0,0,1,.47-.24,1.1,1.1,0,0,1,.25,0l.26.06.53.1,2.09.43,4.16.85"/><path class="cls-1" d="M60.85,243.58a1,1,0,0,0-.24-.62.78.78,0,0,0-.24-.2l-.13,0-.13,0-1.24-.26-2.48-.5-2.48-.51-1.25-.26-.15,0-.15,0a.55.55,0,0,0-.28,0,.49.49,0,0,0-.21.24.75.75,0,0,0-.07.33"/><path class="cls-1" d="M97,251.06a1,1,0,0,0-.28-.71,1,1,0,0,0-.32-.22l-.16,0-.17,0-1.48-.3-3-.61-3-.6-1.48-.3-.37-.08h-.09a.14.14,0,0,0-.09,0,.33.33,0,0,0-.17,0,.55.55,0,0,0-.28.24.75.75,0,0,0-.1.38"/><path class="cls-1" d="M72.16,245.92a1,1,0,0,0-.25-.65.73.73,0,0,0-.26-.2l-.14,0-.15,0-1.31-.27-2.62-.54-2.63-.53-1.31-.27-.16,0-.17,0a.45.45,0,0,0-.3,0,.53.53,0,0,0-.23.24.71.71,0,0,0-.08.34"/><line class="cls-1" x1="125.43" y1="256.93" x2="127.79" y2="257.42"/><line class="cls-1" x1="110.74" y1="253.89" x2="112.95" y2="254.35"/><line class="cls-1" x1="97.03" y1="251.06" x2="99.1" y2="251.49"/><line class="cls-1" x1="84.2" y1="248.41" x2="86.13" y2="248.81"/><line class="cls-1" x1="72.16" y1="245.92" x2="73.98" y2="246.3"/><line class="cls-1" x1="60.85" y1="243.58" x2="62.55" y2="243.93"/><line class="cls-1" x1="50.31" y1="241.4" x2="51.8" y2="241.71"/><path class="cls-1" d="M99.1,251.49a.76.76,0,0,1,.1-.39.55.55,0,0,1,.31-.25.41.41,0,0,1,.19,0h.09l.1,0,.4.08,1.57.32,1.58.32,1.57.33,3.15.64,1.57.32.19,0a.48.48,0,0,1,.17.05.77.77,0,0,1,.34.22,1,1,0,0,1,.24.36.83.83,0,0,1,.07.38"/><path class="cls-1" d="M152.08,241c-.06.12-.11.23-.17.34"/><line class="cls-1" x1="162.72" y1="241.04" x2="162.89" y2="237.81"/><path class="cls-1" d="M152.41,241.46l.34-.69"/><path class="cls-1" d="M30.79,214.63l.06-.06"/><path class="cls-1" d="M26.6,221.26l.1-.13"/><line class="cls-1" x1="31.46" y1="213.55" x2="31.57" y2="213.57"/><line class="cls-1" x1="162.75" y1="241.04" x2="162.74" y2="241.04"/><line class="cls-1" x1="162.93" y1="237.79" x2="162.75" y2="241.04"/><line class="cls-1" x1="162.89" y1="237.81" x2="162.9" y2="237.81"/><line class="cls-1" x1="162.9" y1="237.81" x2="162.91" y2="237.8"/><line class="cls-1" x1="162.91" y1="237.8" x2="162.92" y2="237.8"/><line class="cls-1" x1="162.92" y1="237.8" x2="162.93" y2="237.79"/><line class="cls-1" x1="162.74" y1="241.04" x2="162.73" y2="241.04"/><line class="cls-1" x1="162.73" y1="241.04" x2="162.73" y2="241.05"/><line class="cls-1" x1="162.73" y1="241.05" x2="162.72" y2="241.05"/><path class="cls-1" d="M157,230.93l-.5,1.14"/><path class="cls-1" d="M152,241.19l-1.09-.18-.26,0-.25-.06a2.67,2.67,0,0,1-.46-.2,1.75,1.75,0,0,1-.74-.78,1.69,1.69,0,0,1-.1-1,2,2,0,0,1,.13-.41l.21-.47.47-1.08c.29-.65.58-1.3.86-1.95s.58-1.29.86-1.94l.32-.71.15-.36c0-.05,0-.11.08-.16a2.64,2.64,0,0,1,.48-.62,3.46,3.46,0,0,1,1.89-.91,3.27,3.27,0,0,1,.54,0l.51.05,1.06.15"/><path class="cls-1" d="M153.17,239.67l-.51,1.17"/><path class="cls-1" d="M152.7,239.85a.46.46,0,0,0,.47-.18"/><path class="cls-1" d="M152.66,239.84h0"/><path class="cls-1" d="M155.69,232l-3.3,7.59"/><path class="cls-1" d="M156.16,231.78a.47.47,0,0,0-.47.18"/><path class="cls-1" d="M156.46,232.07a.21.21,0,0,0-.06-.21.31.31,0,0,0-.21-.07"/><path class="cls-1" d="M27.09,220l0,0"/><path class="cls-1" d="M30.85,214.57l.09,0"/><path class="cls-1" d="M31,214.31l.45-.76"/><path class="cls-1" d="M31.34,213.83l-.33.48"/><path class="cls-1" d="M26.55,220.78h.05"/><path class="cls-1" d="M27.2,220.15c-.05,0-.09,0-.11-.06"/><path class="cls-1" d="M27.21,220.15h0"/><path class="cls-1" d="M27.52,220a.38.38,0,0,1-.14.11.24.24,0,0,1-.17,0"/><path class="cls-1" d="M31.2,214.68,27.52,220"/><path class="cls-1" d="M31.11,214.5c.05,0,.09,0,.11.06a.16.16,0,0,1,0,.12"/><path class="cls-1" d="M31.1,214.49h0"/><path class="cls-1" d="M157.48,230.6c-1.41,3.7-3,7.35-4.74,10.91"/><path class="cls-1" d="M156.66,230.49l0,.14"/><path class="cls-1" d="M26.16,221.19l.77-1"/><line class="cls-1" x1="26.6" y1="221.26" x2="26.27" y2="221.2"/><path class="cls-1" d="M14.42,230.79c.82-.79,1.62-1.6,2.39-2.44.39-.42.77-.85,1.14-1.28s.75-.88,1.11-1.33.73-.9,1.08-1.36.71-.93,1.05-1.4c.7-1,1.37-1.94,2-2.93l1-1.51,1-1.55c.65-1.06,1.28-2.13,1.91-3.2l.94-1.65.95-1.67.94-1.7.95-1.71c.29-.53.58-1.06.88-1.59s.58-1.07.88-1.6l.89-1.6.91-1.61c1.21-2.14,2.45-4.25,3.75-6.34.64-1,1.3-2.06,2-3.07s1.35-2,2.05-3q.51-.72,1-1.44l1.06-1.41L45.4,184c.36-.45.73-.9,1.1-1.34s.82-1,1.24-1.44.83-.93,1.26-1.39.85-.91,1.28-1.35.87-.88,1.31-1.31.88-.85,1.33-1.26.9-.82,1.36-1.22c.9-.79,1.83-1.56,2.78-2.3S59,171,59.94,170.3s2-1.33,3-2,2-1.22,3.07-1.78,2.09-1.11,3.16-1.61,2.12-1,3.2-1.42,2.19-.85,3.3-1.24,2.24-.75,3.38-1.08l1.72-.47c.58-.15,1.16-.3,1.75-.43s1.17-.27,1.76-.39,1.19-.24,1.79-.35,1.21-.21,1.81-.3,1.22-.18,1.83-.26c1.23-.16,2.47-.28,3.71-.38l1.88-.12c.64,0,1.27-.06,1.91-.07,1.14,0,2.28,0,3.42,0l1.73,0,1.74.09c1.18.07,2.35.17,3.52.3l1.78.2,1.79.25c1.2.19,2.4.4,3.59.63l1.81.38c.61.13,1.21.28,1.81.42l1.82.47,1.83.52c.61.18,1.21.36,1.82.56s1.22.39,1.83.6c1.09.38,2.17.78,3.24,1.21s2.17.88,3.24,1.36q3.27,1.46,6.39,3.21c.53.3,1.05.6,1.58.92l1.56,1,1.54,1q.78.51,1.53,1l1.51,1.09c.5.37,1,.75,1.49,1.14s1,.78,1.47,1.19,1,.81,1.43,1.23c.89.78,1.75,1.58,2.58,2.41.42.42.84.84,1.25,1.27s.82.86,1.21,1.31c.81.89,1.58,1.8,2.32,2.74.38.47.74,1,1.1,1.43s.72,1,1.06,1.47c.69,1,1.35,2,2,3.07s1.21,2.12,1.76,3.22,1.05,2.22,1.51,3.36.88,2.3,1.25,3.47.67,2.31.94,3.48.48,2.37.65,3.56a42.66,42.66,0,0,1,.4,7.23c0,1.21-.11,2.41-.25,3.62s-.31,2.4-.54,3.59c-.12.59-.24,1.19-.38,1.78s-.29,1.17-.45,1.76c-.32,1.17-.68,2.32-1.08,3.46"/><line class="cls-1" x1="129.86" y1="267.91" x2="129.63" y2="267.85"/><path class="cls-1" d="M129.86,267.91c.6-.36,1.15-.67,1.76-1l1.8-1,1.79-.95,1.78-1"/><path class="cls-1" d="M66.46,210.1a14.59,14.59,0,0,1,.75-1.54c.14-.25.28-.49.44-.73s.31-.47.48-.7a8.09,8.09,0,0,1,1.14-1.27,2.22,2.22,0,0,1,1.51-.69"/><path class="cls-1" d="M153.65,213.35a1.83,1.83,0,0,1,.9.36,2.45,2.45,0,0,1,.62.74,4.89,4.89,0,0,1,.56,1.86,8.39,8.39,0,0,1,0,1.94,10.21,10.21,0,0,1-.41,1.9"/><path class="cls-1" d="M130.19,264.11a4.19,4.19,0,0,1-1.33.79,7.77,7.77,0,0,1-1.51.38,8.68,8.68,0,0,1-3.09-.09"/><path class="cls-1" d="M38.2,245.7a1.85,1.85,0,0,1-.67-.27.56.56,0,0,1-.28-.62,1.31,1.31,0,0,1,.42-.59,4,4,0,0,1,.59-.42"/><line class="cls-1" x1="124.26" y1="265.19" x2="38.2" y2="245.7"/><path class="cls-1" d="M38.26,243.8a59.85,59.85,0,0,0,5.37-3.53"/><path class="cls-1" d="M165.94,229.48c-.42,1.17-.87,2.32-1.37,3.46-.24.57-.5,1.13-.77,1.69s-.54,1.12-.82,1.67"/><line class="cls-1" x1="162.72" y1="241.04" x2="162.72" y2="241.05"/><path class="cls-1" d="M147,232c0,.2,0,.4,0,.61"/><line class="cls-1" x1="162.93" y1="237.79" x2="162.92" y2="237.79"/><line class="cls-1" x1="162.92" y1="237.79" x2="162.9" y2="237.78"/><line class="cls-1" x1="162.9" y1="237.78" x2="162.9" y2="237.78"/><path class="cls-1" d="M147.07,223.85a.31.31,0,0,1,.21.09.39.39,0,0,1,.11.22"/><path class="cls-1" d="M147.39,224.16c-.08,1.73-.15,3.47-.23,5.2"/><path class="cls-1" d="M147.16,229.36a.29.29,0,0,1-.35.22"/><path class="cls-1" d="M146.81,229.58h0"/><path class="cls-1" d="M146.71,231.17A.4.4,0,0,1,147,231a.45.45,0,0,1,.31.1"/><line class="cls-1" x1="146.78" y1="229.57" x2="146.71" y2="231.17"/><path class="cls-1" d="M147,223.85h0"/><line class="cls-1" x1="147.1" y1="222.23" x2="147.03" y2="223.85"/><path class="cls-1" d="M147.51,221.53a.43.43,0,0,1,.22.09"/><polyline class="cls-1" points="162.25 242.39 162.25 242.42 161.43 257.56 161.43 257.59"/><path class="cls-1" d="M157,230.87l.12-.31"/><line class="cls-1" x1="152.75" y1="240.77" x2="157.04" y2="230.87"/><line class="cls-1" x1="140.91" y1="276.95" x2="139.69" y2="277.69"/><line class="cls-1" x1="153.35" y1="269.32" x2="152.3" y2="269.97"/><line class="cls-1" x1="161.76" y1="258.49" x2="161.49" y2="263.43"/><path class="cls-1" d="M152.75,240.77c1.57-3.23,3-6.55,4.29-9.9"/><line class="cls-1" x1="130.2" y1="282.44" x2="131.92" y2="268.79"/><path class="cls-1" d="M159.94,265.29a2,2,0,0,0,0-.34.66.66,0,0,0,0-.15.61.61,0,0,0-.05-.12.22.22,0,0,0-.15-.1.25.25,0,0,0-.17.06l-.85.52-1.71,1-1.71,1-.85.52L154,268l-.1.06a.2.2,0,0,0-.09.07.92.92,0,0,0-.19.25"/><path class="cls-1" d="M139.69,277.69a1.79,1.79,0,0,0,0-.4,1.54,1.54,0,0,0-.05-.17.38.38,0,0,0-.06-.13.26.26,0,0,0-.17-.11l-.1,0,0,0,0,0-1,.59-1.95,1.18-1.95,1.19-1,.59-.44.26-.11.07a.76.76,0,0,0-.11.08,1,1,0,0,0-.21.29"/><path class="cls-1" d="M152.3,270a.81.81,0,0,0-.17-.39.48.48,0,0,0-.32-.17l-.18,0-.08,0-.09,0-.38.23-1.39.84-2.77,1.69L144.15,274l-1.39.84-.65.39-.16.1-.16.11a2.2,2.2,0,0,0-.33.35"/><line class="cls-1" x1="162.55" y1="237.05" x2="162.55" y2="237.07"/><line class="cls-1" x1="162.55" y1="237.07" x2="162.55" y2="237.1"/><line class="cls-1" x1="162.55" y1="237.13" x2="162.56" y2="237.15"/><line class="cls-1" x1="162.56" y1="237.15" x2="162.56" y2="237.18"/><line class="cls-1" x1="162.56" y1="237.18" x2="162.56" y2="237.2"/><line class="cls-1" x1="162.56" y1="237.2" x2="162.56" y2="237.23"/><line class="cls-1" x1="162.56" y1="237.23" x2="162.56" y2="237.26"/><line class="cls-1" x1="162.56" y1="237.26" x2="162.57" y2="237.28"/><line class="cls-1" x1="162.57" y1="237.28" x2="162.57" y2="237.31"/><line class="cls-1" x1="162.57" y1="237.31" x2="162.57" y2="237.33"/><line class="cls-1" x1="162.57" y1="237.33" x2="162.58" y2="237.35"/><line class="cls-1" x1="162.58" y1="237.35" x2="162.58" y2="237.38"/><line class="cls-1" x1="162.58" y1="237.38" x2="162.58" y2="237.4"/><line class="cls-1" x1="162.58" y1="237.4" x2="162.59" y2="237.43"/><line class="cls-1" x1="162.59" y1="237.43" x2="162.59" y2="237.45"/><line class="cls-1" x1="162.59" y1="237.45" x2="162.6" y2="237.47"/><line class="cls-1" x1="162.6" y1="237.47" x2="162.6" y2="237.49"/><line class="cls-1" x1="162.6" y1="237.49" x2="162.61" y2="237.51"/><line class="cls-1" x1="162.61" y1="237.51" x2="162.61" y2="237.53"/><line class="cls-1" x1="162.61" y1="237.53" x2="162.62" y2="237.55"/><line class="cls-1" x1="162.62" y1="237.55" x2="162.62" y2="237.57"/><line class="cls-1" x1="162.62" y1="237.57" x2="162.63" y2="237.59"/><line class="cls-1" x1="162.63" y1="237.59" x2="162.64" y2="237.61"/><line class="cls-1" x1="162.64" y1="237.61" x2="162.64" y2="237.63"/><line class="cls-1" x1="162.64" y1="237.63" x2="162.65" y2="237.64"/><line class="cls-1" x1="162.65" y1="237.64" x2="162.66" y2="237.66"/><line class="cls-1" x1="162.66" y1="237.67" x2="162.67" y2="237.69"/><line class="cls-1" x1="162.67" y1="237.69" x2="162.68" y2="237.7"/><line class="cls-1" x1="162.68" y1="237.7" x2="162.68" y2="237.72"/><line class="cls-1" x1="162.68" y1="237.72" x2="162.69" y2="237.73"/><line class="cls-1" x1="162.69" y1="237.73" x2="162.7" y2="237.74"/><line class="cls-1" x1="162.7" y1="237.74" x2="162.71" y2="237.75"/><line class="cls-1" x1="162.71" y1="237.75" x2="162.72" y2="237.76"/><line class="cls-1" x1="162.72" y1="237.76" x2="162.73" y2="237.77"/><line class="cls-1" x1="162.73" y1="237.77" x2="162.73" y2="237.78"/><line class="cls-1" x1="162.73" y1="237.78" x2="162.74" y2="237.79"/><line class="cls-1" x1="162.74" y1="237.79" x2="162.75" y2="237.79"/><line class="cls-1" x1="162.75" y1="237.79" x2="162.76" y2="237.8"/><line class="cls-1" x1="162.76" y1="237.8" x2="162.77" y2="237.81"/><line class="cls-1" x1="162.77" y1="237.81" x2="162.78" y2="237.81"/><line class="cls-1" x1="162.78" y1="237.81" x2="162.79" y2="237.81"/><line class="cls-1" x1="162.79" y1="237.81" x2="162.8" y2="237.82"/><line class="cls-1" x1="162.8" y1="237.82" x2="162.8" y2="237.82"/><line class="cls-1" x1="162.8" y1="237.82" x2="162.81" y2="237.82"/><line class="cls-1" x1="162.81" y1="237.82" x2="162.82" y2="237.82"/><line class="cls-1" x1="162.82" y1="237.82" x2="162.83" y2="237.82"/><line class="cls-1" x1="162.83" y1="237.82" x2="162.84" y2="237.82"/><line class="cls-1" x1="162.84" y1="237.82" x2="162.85" y2="237.82"/><line class="cls-1" x1="162.85" y1="237.82" x2="162.86" y2="237.82"/><line class="cls-1" x1="162.86" y1="237.82" x2="162.87" y2="237.82"/><line class="cls-1" x1="162.87" y1="237.82" x2="162.88" y2="237.82"/><line class="cls-1" x1="162.88" y1="237.82" x2="162.89" y2="237.81"/><line class="cls-1" x1="162.89" y1="237.81" x2="162.89" y2="237.81"/><line class="cls-1" x1="161.43" y1="257.59" x2="161.42" y2="257.62"/><line class="cls-1" x1="161.42" y1="257.62" x2="161.42" y2="257.64"/><line class="cls-1" x1="161.42" y1="257.64" x2="161.42" y2="257.67"/><line class="cls-1" x1="161.42" y1="257.67" x2="161.42" y2="257.69"/><line class="cls-1" x1="161.42" y1="257.69" x2="161.42" y2="257.72"/><line class="cls-1" x1="161.42" y1="257.72" x2="161.42" y2="257.74"/><line class="cls-1" x1="161.42" y1="257.74" x2="161.42" y2="257.77"/><line class="cls-1" x1="161.42" y1="257.77" x2="161.42" y2="257.8"/><line class="cls-1" x1="161.42" y1="257.8" x2="161.42" y2="257.82"/><line class="cls-1" x1="161.42" y1="257.82" x2="161.42" y2="257.85"/><line class="cls-1" x1="161.42" y1="257.85" x2="161.43" y2="257.87"/><line class="cls-1" x1="161.43" y1="257.87" x2="161.43" y2="257.9"/><line class="cls-1" x1="161.43" y1="257.9" x2="161.43" y2="257.92"/><line class="cls-1" x1="161.43" y1="257.92" x2="161.43" y2="257.95"/><line class="cls-1" x1="161.43" y1="257.95" x2="161.43" y2="257.97"/><line class="cls-1" x1="161.43" y1="257.97" x2="161.43" y2="258"/><line class="cls-1" x1="161.43" y1="258" x2="161.44" y2="258.02"/><line class="cls-1" x1="161.44" y1="258.02" x2="161.44" y2="258.05"/><line class="cls-1" x1="161.44" y1="258.05" x2="161.44" y2="258.07"/><line class="cls-1" x1="161.44" y1="258.07" x2="161.45" y2="258.09"/><line class="cls-1" x1="161.45" y1="258.09" x2="161.45" y2="258.11"/><line class="cls-1" x1="161.45" y1="258.11" x2="161.45" y2="258.14"/><line class="cls-1" x1="161.45" y1="258.14" x2="161.46" y2="258.16"/><line class="cls-1" x1="161.46" y1="258.16" x2="161.46" y2="258.18"/><line class="cls-1" x1="161.46" y1="258.18" x2="161.47" y2="258.2"/><line class="cls-1" x1="161.47" y1="258.2" x2="161.47" y2="258.22"/><line class="cls-1" x1="161.47" y1="258.22" x2="161.48" y2="258.24"/><line class="cls-1" x1="161.48" y1="258.24" x2="161.48" y2="258.26"/><line class="cls-1" x1="161.48" y1="258.26" x2="161.49" y2="258.28"/><line class="cls-1" x1="161.49" y1="258.28" x2="161.49" y2="258.3"/><line class="cls-1" x1="161.5" y1="258.31" x2="161.51" y2="258.33"/><line class="cls-1" x1="161.51" y1="258.33" x2="161.51" y2="258.35"/><line class="cls-1" x1="161.51" y1="258.35" x2="161.52" y2="258.36"/><line class="cls-1" x1="161.52" y1="258.36" x2="161.53" y2="258.37"/><line class="cls-1" x1="161.53" y1="258.37" x2="161.53" y2="258.39"/><line class="cls-1" x1="161.53" y1="258.39" x2="161.54" y2="258.4"/><line class="cls-1" x1="161.54" y1="258.4" x2="161.55" y2="258.41"/><line class="cls-1" x1="161.55" y1="258.41" x2="161.56" y2="258.43"/><line class="cls-1" x1="161.56" y1="258.43" x2="161.56" y2="258.44"/><line class="cls-1" x1="161.56" y1="258.44" x2="161.57" y2="258.45"/><line class="cls-1" x1="161.57" y1="258.45" x2="161.58" y2="258.46"/><line class="cls-1" x1="161.58" y1="258.46" x2="161.59" y2="258.46"/><line class="cls-1" x1="161.59" y1="258.46" x2="161.6" y2="258.47"/><line class="cls-1" x1="161.6" y1="258.47" x2="161.6" y2="258.48"/><line class="cls-1" x1="161.6" y1="258.48" x2="161.61" y2="258.49"/><line class="cls-1" x1="161.61" y1="258.49" x2="161.62" y2="258.49"/><line class="cls-1" x1="161.62" y1="258.49" x2="161.63" y2="258.5"/><line class="cls-1" x1="161.63" y1="258.5" x2="161.64" y2="258.5"/><line class="cls-1" x1="161.64" y1="258.5" x2="161.65" y2="258.5"/><line class="cls-1" x1="161.65" y1="258.5" x2="161.66" y2="258.51"/><line class="cls-1" x1="161.66" y1="258.51" x2="161.67" y2="258.51"/><line class="cls-1" x1="161.67" y1="258.51" x2="161.67" y2="258.51"/><line class="cls-1" x1="161.67" y1="258.51" x2="161.68" y2="258.51"/><line class="cls-1" x1="161.68" y1="258.51" x2="161.69" y2="258.51"/><line class="cls-1" x1="161.69" y1="258.51" x2="161.7" y2="258.51"/><line class="cls-1" x1="161.7" y1="258.51" x2="161.71" y2="258.51"/><line class="cls-1" x1="161.71" y1="258.51" x2="161.72" y2="258.51"/><line class="cls-1" x1="161.72" y1="258.51" x2="161.73" y2="258.5"/><line class="cls-1" x1="161.73" y1="258.5" x2="161.74" y2="258.5"/><line class="cls-1" x1="161.74" y1="258.5" x2="161.75" y2="258.5"/><line class="cls-1" x1="161.75" y1="258.49" x2="161.76" y2="258.49"/><line class="cls-1" x1="162.72" y1="241.05" x2="162.71" y2="241.06"/><line class="cls-1" x1="162.71" y1="241.06" x2="162.7" y2="241.06"/><line class="cls-1" x1="162.7" y1="241.06" x2="162.69" y2="241.07"/><line class="cls-1" x1="162.69" y1="241.07" x2="162.68" y2="241.07"/><line class="cls-1" x1="162.68" y1="241.07" x2="162.67" y2="241.08"/><line class="cls-1" x1="162.67" y1="241.08" x2="162.66" y2="241.09"/><line class="cls-1" x1="162.66" y1="241.09" x2="162.65" y2="241.1"/><line class="cls-1" x1="162.65" y1="241.1" x2="162.64" y2="241.1"/><line class="cls-1" x1="162.64" y1="241.1" x2="162.63" y2="241.11"/><line class="cls-1" x1="162.63" y1="241.11" x2="162.62" y2="241.12"/><line class="cls-1" x1="162.62" y1="241.12" x2="162.61" y2="241.14"/><line class="cls-1" x1="162.61" y1="241.14" x2="162.6" y2="241.15"/><line class="cls-1" x1="162.6" y1="241.15" x2="162.59" y2="241.16"/><line class="cls-1" x1="162.59" y1="241.16" x2="162.58" y2="241.17"/><line class="cls-1" x1="162.58" y1="241.17" x2="162.57" y2="241.19"/><line class="cls-1" x1="162.57" y1="241.19" x2="162.56" y2="241.2"/><line class="cls-1" x1="162.56" y1="241.2" x2="162.56" y2="241.22"/><line class="cls-1" x1="162.56" y1="241.22" x2="162.55" y2="241.23"/><line class="cls-1" x1="162.55" y1="241.23" x2="162.54" y2="241.25"/><line class="cls-1" x1="162.54" y1="241.25" x2="162.53" y2="241.27"/><line class="cls-1" x1="162.53" y1="241.27" x2="162.52" y2="241.29"/><line class="cls-1" x1="162.52" y1="241.29" x2="162.51" y2="241.31"/><line class="cls-1" x1="162.51" y1="241.31" x2="162.5" y2="241.33"/><line class="cls-1" x1="162.5" y1="241.33" x2="162.49" y2="241.35"/><line class="cls-1" x1="162.49" y1="241.35" x2="162.48" y2="241.37"/><line class="cls-1" x1="162.48" y1="241.37" x2="162.47" y2="241.39"/><line class="cls-1" x1="162.47" y1="241.39" x2="162.46" y2="241.41"/><line class="cls-1" x1="162.46" y1="241.41" x2="162.45" y2="241.43"/><line class="cls-1" x1="162.45" y1="241.43" x2="162.44" y2="241.46"/><line class="cls-1" x1="162.44" y1="241.46" x2="162.43" y2="241.48"/><line class="cls-1" x1="162.43" y1="241.48" x2="162.42" y2="241.5"/><line class="cls-1" x1="162.42" y1="241.5" x2="162.41" y2="241.53"/><line class="cls-1" x1="162.41" y1="241.53" x2="162.41" y2="241.55"/><line class="cls-1" x1="162.41" y1="241.55" x2="162.4" y2="241.58"/><line class="cls-1" x1="162.4" y1="241.58" x2="162.39" y2="241.61"/><line class="cls-1" x1="162.39" y1="241.61" x2="162.38" y2="241.63"/><line class="cls-1" x1="162.38" y1="241.63" x2="162.37" y2="241.66"/><line class="cls-1" x1="162.37" y1="241.66" x2="162.37" y2="241.69"/><line class="cls-1" x1="162.37" y1="241.69" x2="162.36" y2="241.71"/><line class="cls-1" x1="162.36" y1="241.71" x2="162.35" y2="241.74"/><line class="cls-1" x1="162.35" y1="241.74" x2="162.35" y2="241.77"/><line class="cls-1" x1="162.35" y1="241.77" x2="162.34" y2="241.8"/><line class="cls-1" x1="162.34" y1="241.8" x2="162.33" y2="241.83"/><line class="cls-1" x1="162.33" y1="241.83" x2="162.33" y2="241.85"/><line class="cls-1" x1="162.33" y1="241.85" x2="162.32" y2="241.88"/><line class="cls-1" x1="162.32" y1="241.88" x2="162.31" y2="241.91"/><line class="cls-1" x1="162.31" y1="241.91" x2="162.31" y2="241.94"/><line class="cls-1" x1="162.31" y1="241.94" x2="162.3" y2="241.97"/><line class="cls-1" x1="162.3" y1="241.97" x2="162.3" y2="242"/><line class="cls-1" x1="162.3" y1="242" x2="162.29" y2="242.03"/><line class="cls-1" x1="162.29" y1="242.03" x2="162.29" y2="242.06"/><line class="cls-1" x1="162.29" y1="242.06" x2="162.28" y2="242.09"/><line class="cls-1" x1="162.28" y1="242.09" x2="162.28" y2="242.11"/><line class="cls-1" x1="162.28" y1="242.11" x2="162.28" y2="242.14"/><line class="cls-1" x1="162.28" y1="242.14" x2="162.27" y2="242.17"/><line class="cls-1" x1="162.27" y1="242.17" x2="162.27" y2="242.2"/><line class="cls-1" x1="162.27" y1="242.2" x2="162.27" y2="242.23"/><line class="cls-1" x1="162.27" y1="242.23" x2="162.26" y2="242.25"/><line class="cls-1" x1="162.26" y1="242.25" x2="162.26" y2="242.28"/><line class="cls-1" x1="162.26" y1="242.28" x2="162.26" y2="242.31"/><line class="cls-1" x1="162.26" y1="242.31" x2="162.26" y2="242.34"/><line class="cls-1" x1="162.26" y1="242.34" x2="162.25" y2="242.36"/><line class="cls-1" x1="162.25" y1="242.36" x2="162.25" y2="242.39"/><path class="cls-1" d="M161.49,263.43a.62.62,0,0,0-.2.25,2.08,2.08,0,0,0-.13.3,3.34,3.34,0,0,0-.12.63"/><path class="cls-1" d="M130.63,283.24a1.78,1.78,0,0,0-.06-.51.61.61,0,0,0-.13-.22.23.23,0,0,0-.24-.07"/><line class="cls-1" x1="163.41" y1="221.19" x2="163.41" y2="221.21"/><line class="cls-1" x1="163.41" y1="221.16" x2="163.41" y2="221.19"/><line class="cls-1" x1="163.41" y1="221.13" x2="163.41" y2="221.16"/><line class="cls-1" x1="163.41" y1="221.1" x2="163.41" y2="221.13"/><line class="cls-1" x1="163.42" y1="221.08" x2="163.41" y2="221.1"/><line class="cls-1" x1="163.42" y1="221.05" x2="163.42" y2="221.08"/><line class="cls-1" x1="163.42" y1="221.02" x2="163.42" y2="221.05"/><line class="cls-1" x1="163.43" y1="220.99" x2="163.42" y2="221.02"/><line class="cls-1" x1="163.43" y1="220.96" x2="163.43" y2="220.99"/><line class="cls-1" x1="163.43" y1="220.93" x2="163.43" y2="220.96"/><line class="cls-1" x1="163.44" y1="220.9" x2="163.43" y2="220.93"/><line class="cls-1" x1="163.44" y1="220.87" x2="163.44" y2="220.9"/><line class="cls-1" x1="163.45" y1="220.85" x2="163.44" y2="220.87"/><line class="cls-1" x1="163.45" y1="220.82" x2="163.45" y2="220.85"/><line class="cls-1" x1="163.46" y1="220.79" x2="163.45" y2="220.82"/><line class="cls-1" x1="163.46" y1="220.76" x2="163.46" y2="220.79"/><line class="cls-1" x1="163.47" y1="220.73" x2="163.46" y2="220.76"/><line class="cls-1" x1="163.47" y1="220.7" x2="163.47" y2="220.73"/><line class="cls-1" x1="163.48" y1="220.67" x2="163.47" y2="220.7"/><line class="cls-1" x1="163.49" y1="220.64" x2="163.48" y2="220.67"/><line class="cls-1" x1="163.49" y1="220.61" x2="163.49" y2="220.64"/><line class="cls-1" x1="163.5" y1="220.59" x2="163.49" y2="220.61"/><line class="cls-1" x1="163.51" y1="220.56" x2="163.5" y2="220.59"/><line class="cls-1" x1="163.51" y1="220.53" x2="163.51" y2="220.56"/><line class="cls-1" x1="163.52" y1="220.5" x2="163.51" y2="220.53"/><line class="cls-1" x1="163.53" y1="220.48" x2="163.52" y2="220.5"/><line class="cls-1" x1="163.54" y1="220.45" x2="163.53" y2="220.48"/><line class="cls-1" x1="163.54" y1="220.42" x2="163.54" y2="220.45"/><line class="cls-1" x1="163.55" y1="220.4" x2="163.54" y2="220.42"/><line class="cls-1" x1="163.56" y1="220.37" x2="163.55" y2="220.4"/><line class="cls-1" x1="163.57" y1="220.35" x2="163.56" y2="220.37"/><line class="cls-1" x1="163.58" y1="220.32" x2="163.57" y2="220.35"/><line class="cls-1" x1="163.59" y1="220.3" x2="163.58" y2="220.32"/><line class="cls-1" x1="163.6" y1="220.27" x2="163.59" y2="220.3"/><line class="cls-1" x1="163.6" y1="220.25" x2="163.6" y2="220.27"/><line class="cls-1" x1="163.61" y1="220.23" x2="163.6" y2="220.25"/><line class="cls-1" x1="163.62" y1="220.21" x2="163.61" y2="220.23"/><line class="cls-1" x1="163.63" y1="220.19" x2="163.62" y2="220.21"/><line class="cls-1" x1="163.64" y1="220.17" x2="163.63" y2="220.19"/><line class="cls-1" x1="163.65" y1="220.15" x2="163.64" y2="220.17"/><line class="cls-1" x1="163.66" y1="220.13" x2="163.65" y2="220.15"/><line class="cls-1" x1="163.67" y1="220.11" x2="163.66" y2="220.13"/><line class="cls-1" x1="163.68" y1="220.09" x2="163.67" y2="220.11"/><line class="cls-1" x1="163.69" y1="220.08" x2="163.68" y2="220.09"/><line class="cls-1" x1="163.7" y1="220.06" x2="163.69" y2="220.08"/><line class="cls-1" x1="163.71" y1="220.05" x2="163.7" y2="220.06"/><line class="cls-1" x1="163.72" y1="220.03" x2="163.71" y2="220.05"/><line class="cls-1" x1="163.73" y1="220.02" x2="163.72" y2="220.03"/><line class="cls-1" x1="163.74" y1="220" x2="163.73" y2="220.02"/><line class="cls-1" x1="163.75" y1="219.99" x2="163.74" y2="220"/><line class="cls-1" x1="163.76" y1="219.98" x2="163.75" y2="219.99"/><line class="cls-1" x1="163.77" y1="219.97" x2="163.76" y2="219.98"/><line class="cls-1" x1="163.78" y1="219.96" x2="163.77" y2="219.97"/><line class="cls-1" x1="163.79" y1="219.95" x2="163.78" y2="219.96"/><line class="cls-1" x1="163.8" y1="219.94" x2="163.79" y2="219.95"/><line class="cls-1" x1="163.81" y1="219.93" x2="163.8" y2="219.94"/><line class="cls-1" x1="163.82" y1="219.93" x2="163.81" y2="219.93"/><line class="cls-1" x1="163.83" y1="219.92" x2="163.82" y2="219.93"/><line class="cls-1" x1="163.84" y1="219.91" x2="163.83" y2="219.92"/><line class="cls-1" x1="163.85" y1="219.91" x2="163.84" y2="219.91"/><line class="cls-1" x1="163.86" y1="219.9" x2="163.85" y2="219.91"/><line class="cls-1" x1="163.86" y1="219.9" x2="163.86" y2="219.9"/><line class="cls-1" x1="163.87" y1="219.9" x2="163.86" y2="219.9"/><line class="cls-1" x1="162.55" y1="237.02" x2="162.55" y2="237.05"/><line class="cls-1" x1="162.55" y1="236.99" x2="162.55" y2="237.02"/><line class="cls-1" x1="162.55" y1="236.97" x2="162.55" y2="236.99"/><line class="cls-1" x1="162.55" y1="236.94" x2="162.55" y2="236.97"/><line class="cls-1" x1="162.55" y1="236.91" x2="162.55" y2="236.94"/><line class="cls-1" x1="162.55" y1="236.89" x2="162.55" y2="236.91"/><line class="cls-1" x1="162.55" y1="236.86" x2="162.55" y2="236.89"/><line class="cls-1" x1="162.56" y1="236.83" x2="162.55" y2="236.86"/><polyline class="cls-1" points="163.41 221.22 163.4 221.24 162.56 236.81 162.56 236.83"/><line class="cls-1" x1="162.74" y1="241.04" x2="162.74" y2="241.04"/><line class="cls-1" x1="162.72" y1="241.04" x2="162.74" y2="241.04"/><line class="cls-1" x1="162.68" y1="241.04" x2="162.7" y2="241.04"/><line class="cls-1" x1="162.65" y1="241.04" x2="162.68" y2="241.04"/><line class="cls-1" x1="162.63" y1="241.04" x2="162.65" y2="241.04"/><line class="cls-1" x1="162.61" y1="241.04" x2="162.63" y2="241.04"/><line class="cls-1" x1="162.59" y1="241.05" x2="162.61" y2="241.04"/><line class="cls-1" x1="162.56" y1="241.05" x2="162.59" y2="241.05"/><line class="cls-1" x1="162.54" y1="241.06" x2="162.56" y2="241.05"/><line class="cls-1" x1="162.52" y1="241.06" x2="162.54" y2="241.06"/><line class="cls-1" x1="162.5" y1="241.07" x2="162.52" y2="241.06"/><line class="cls-1" x1="162.47" y1="241.08" x2="162.5" y2="241.07"/><line class="cls-1" x1="162.45" y1="241.08" x2="162.47" y2="241.08"/><line class="cls-1" x1="162.43" y1="241.09" x2="162.45" y2="241.08"/><line class="cls-1" x1="162.41" y1="241.1" x2="162.43" y2="241.09"/><line class="cls-1" x1="162.38" y1="241.11" x2="162.41" y2="241.1"/><line class="cls-1" x1="162.36" y1="241.12" x2="162.38" y2="241.11"/><line class="cls-1" x1="162.34" y1="241.13" x2="162.36" y2="241.12"/><line class="cls-1" x1="162.32" y1="241.14" x2="162.34" y2="241.13"/><line class="cls-1" x1="162.3" y1="241.16" x2="162.32" y2="241.14"/><line class="cls-1" x1="162.28" y1="241.17" x2="162.3" y2="241.16"/><line class="cls-1" x1="162.26" y1="241.19" x2="162.28" y2="241.17"/><line class="cls-1" x1="162.24" y1="241.2" x2="162.26" y2="241.19"/><line class="cls-1" x1="162.21" y1="241.22" x2="162.24" y2="241.2"/><line class="cls-1" x1="162.2" y1="241.23" x2="162.21" y2="241.22"/><line class="cls-1" x1="162.18" y1="241.25" x2="162.2" y2="241.23"/><line class="cls-1" x1="162.16" y1="241.27" x2="162.18" y2="241.25"/><line class="cls-1" x1="162.14" y1="241.29" x2="162.16" y2="241.27"/><line class="cls-1" x1="162.12" y1="241.31" x2="162.14" y2="241.29"/><line class="cls-1" x1="162.1" y1="241.33" x2="162.12" y2="241.31"/><line class="cls-1" x1="162.08" y1="241.35" x2="162.1" y2="241.33"/><line class="cls-1" x1="162.07" y1="241.37" x2="162.08" y2="241.35"/><line class="cls-1" x1="162.05" y1="241.39" x2="162.07" y2="241.37"/><line class="cls-1" x1="162.03" y1="241.41" x2="162.05" y2="241.39"/><line class="cls-1" x1="162.02" y1="241.43" x2="162.03" y2="241.41"/><line class="cls-1" x1="162" y1="241.45" x2="162.02" y2="241.43"/><line class="cls-1" x1="161.99" y1="241.48" x2="162" y2="241.45"/><line class="cls-1" x1="161.98" y1="241.5" x2="161.99" y2="241.48"/><line class="cls-1" x1="161.96" y1="241.53" x2="161.98" y2="241.5"/><line class="cls-1" x1="161.95" y1="241.55" x2="161.96" y2="241.53"/><line class="cls-1" x1="161.94" y1="241.58" x2="161.95" y2="241.55"/><line class="cls-1" x1="161.93" y1="241.6" x2="161.94" y2="241.58"/><line class="cls-1" x1="161.92" y1="241.63" x2="161.93" y2="241.6"/><line class="cls-1" x1="161.91" y1="241.65" x2="161.92" y2="241.63"/><line class="cls-1" x1="161.9" y1="241.68" x2="161.91" y2="241.65"/><line class="cls-1" x1="161.89" y1="241.7" x2="161.9" y2="241.68"/><line class="cls-1" x1="161.88" y1="241.73" x2="161.89" y2="241.7"/><line class="cls-1" x1="161.87" y1="241.76" x2="161.88" y2="241.73"/><line class="cls-1" x1="161.86" y1="241.78" x2="161.87" y2="241.76"/><line class="cls-1" x1="161.85" y1="241.81" x2="161.86" y2="241.78"/><line class="cls-1" x1="161.85" y1="241.83" x2="161.85" y2="241.81"/><line class="cls-1" x1="161.84" y1="241.86" x2="161.85" y2="241.83"/><line class="cls-1" x1="161.84" y1="241.89" x2="161.84" y2="241.86"/><line class="cls-1" x1="161.83" y1="241.91" x2="161.84" y2="241.89"/><line class="cls-1" x1="161.83" y1="241.94" x2="161.83" y2="241.91"/><line class="cls-1" x1="161.82" y1="241.97" x2="161.83" y2="241.94"/><line class="cls-1" x1="161.82" y1="241.99" x2="161.82" y2="241.97"/><line class="cls-1" x1="161.82" y1="242.02" x2="161.82" y2="241.99"/><line class="cls-1" x1="161.82" y1="242.05" x2="161.82" y2="242.02"/><polyline class="cls-1" points="161 257.18 161 257.15 161.81 242.07 161.82 242.05"/><line class="cls-1" x1="161" y1="257.21" x2="161" y2="257.18"/><line class="cls-1" x1="161" y1="257.23" x2="161" y2="257.21"/><line class="cls-1" x1="161" y1="257.26" x2="161" y2="257.23"/><line class="cls-1" x1="161" y1="257.28" x2="161" y2="257.26"/><line class="cls-1" x1="161" y1="257.31" x2="161" y2="257.28"/><line class="cls-1" x1="161" y1="257.34" x2="161" y2="257.31"/><line class="cls-1" x1="161" y1="257.37" x2="161" y2="257.34"/><line class="cls-1" x1="161.01" y1="257.39" x2="161" y2="257.37"/><line class="cls-1" x1="161.01" y1="257.42" x2="161.01" y2="257.39"/><line class="cls-1" x1="161.01" y1="257.45" x2="161.01" y2="257.42"/><line class="cls-1" x1="161.02" y1="257.48" x2="161.01" y2="257.45"/><line class="cls-1" x1="161.02" y1="257.51" x2="161.02" y2="257.48"/><line class="cls-1" x1="161.03" y1="257.53" x2="161.02" y2="257.51"/><line class="cls-1" x1="161.03" y1="257.56" x2="161.03" y2="257.53"/><line class="cls-1" x1="161.04" y1="257.59" x2="161.03" y2="257.56"/><line class="cls-1" x1="161.05" y1="257.62" x2="161.04" y2="257.59"/><line class="cls-1" x1="161.06" y1="257.65" x2="161.05" y2="257.62"/><line class="cls-1" x1="161.07" y1="257.67" x2="161.06" y2="257.65"/><line class="cls-1" x1="161.07" y1="257.7" x2="161.07" y2="257.67"/><line class="cls-1" x1="161.08" y1="257.73" x2="161.07" y2="257.7"/><line class="cls-1" x1="161.09" y1="257.76" x2="161.08" y2="257.73"/><line class="cls-1" x1="161.11" y1="257.78" x2="161.09" y2="257.76"/><line class="cls-1" x1="161.12" y1="257.81" x2="161.11" y2="257.78"/><line class="cls-1" x1="161.13" y1="257.84" x2="161.12" y2="257.81"/><line class="cls-1" x1="161.14" y1="257.87" x2="161.13" y2="257.84"/><line class="cls-1" x1="161.16" y1="257.89" x2="161.14" y2="257.87"/><line class="cls-1" x1="161.17" y1="257.92" x2="161.16" y2="257.89"/><line class="cls-1" x1="161.18" y1="257.94" x2="161.17" y2="257.92"/><line class="cls-1" x1="161.2" y1="257.97" x2="161.18" y2="257.94"/><line class="cls-1" x1="161.21" y1="257.99" x2="161.2" y2="257.97"/><line class="cls-1" x1="161.23" y1="258.02" x2="161.21" y2="257.99"/><line class="cls-1" x1="161.25" y1="258.04" x2="161.23" y2="258.02"/><line class="cls-1" x1="161.26" y1="258.07" x2="161.25" y2="258.04"/><line class="cls-1" x1="161.28" y1="258.09" x2="161.26" y2="258.07"/><line class="cls-1" x1="161.3" y1="258.11" x2="161.28" y2="258.09"/><line class="cls-1" x1="161.31" y1="258.13" x2="161.3" y2="258.11"/><line class="cls-1" x1="161.33" y1="258.16" x2="161.31" y2="258.13"/><line class="cls-1" x1="161.35" y1="258.18" x2="161.33" y2="258.16"/><line class="cls-1" x1="161.37" y1="258.2" x2="161.35" y2="258.18"/><line class="cls-1" x1="161.39" y1="258.22" x2="161.37" y2="258.2"/><line class="cls-1" x1="161.41" y1="258.24" x2="161.39" y2="258.22"/><line class="cls-1" x1="161.43" y1="258.25" x2="161.41" y2="258.24"/><line class="cls-1" x1="161.45" y1="258.27" x2="161.43" y2="258.25"/><line class="cls-1" x1="161.47" y1="258.29" x2="161.45" y2="258.27"/><line class="cls-1" x1="161.49" y1="258.31" x2="161.47" y2="258.29"/><line class="cls-1" x1="161.53" y1="258.34" x2="161.51" y2="258.32"/><line class="cls-1" x1="161.55" y1="258.35" x2="161.53" y2="258.34"/><line class="cls-1" x1="161.58" y1="258.36" x2="161.55" y2="258.35"/><line class="cls-1" x1="161.6" y1="258.38" x2="161.58" y2="258.36"/><line class="cls-1" x1="161.62" y1="258.39" x2="161.6" y2="258.38"/><line class="cls-1" x1="161.64" y1="258.4" x2="161.62" y2="258.39"/><line class="cls-1" x1="161.66" y1="258.41" x2="161.64" y2="258.4"/><line class="cls-1" x1="161.68" y1="258.42" x2="161.66" y2="258.41"/><line class="cls-1" x1="161.7" y1="258.43" x2="161.68" y2="258.42"/><line class="cls-1" x1="161.73" y1="258.44" x2="161.7" y2="258.43"/><line class="cls-1" x1="161.75" y1="258.45" x2="161.73" y2="258.44"/><line class="cls-1" x1="163.92" y1="219.89" x2="163.94" y2="219.89"/><line class="cls-1" x1="163.9" y1="219.89" x2="163.92" y2="219.89"/><line class="cls-1" x1="163.88" y1="219.89" x2="163.9" y2="219.89"/><line class="cls-1" x1="163.83" y1="219.89" x2="163.85" y2="219.89"/><line class="cls-1" x1="163.81" y1="219.89" x2="163.83" y2="219.89"/><line class="cls-1" x1="163.79" y1="219.9" x2="163.81" y2="219.89"/><line class="cls-1" x1="163.76" y1="219.9" x2="163.79" y2="219.9"/><line class="cls-1" x1="163.74" y1="219.91" x2="163.76" y2="219.9"/><line class="cls-1" x1="163.72" y1="219.91" x2="163.74" y2="219.91"/><line class="cls-1" x1="163.69" y1="219.92" x2="163.72" y2="219.91"/><line class="cls-1" x1="163.67" y1="219.92" x2="163.69" y2="219.92"/><line class="cls-1" x1="163.65" y1="219.93" x2="163.67" y2="219.92"/><line class="cls-1" x1="163.63" y1="219.94" x2="163.65" y2="219.93"/><line class="cls-1" x1="163.6" y1="219.95" x2="163.63" y2="219.94"/><line class="cls-1" x1="163.58" y1="219.96" x2="163.6" y2="219.95"/><line class="cls-1" x1="163.56" y1="219.97" x2="163.58" y2="219.96"/><line class="cls-1" x1="163.54" y1="219.98" x2="163.56" y2="219.97"/><line class="cls-1" x1="163.51" y1="219.99" x2="163.54" y2="219.98"/><line class="cls-1" x1="163.49" y1="220" x2="163.51" y2="219.99"/><line class="cls-1" x1="163.47" y1="220.02" x2="163.49" y2="220"/><line class="cls-1" x1="163.45" y1="220.03" x2="163.47" y2="220.02"/><line class="cls-1" x1="163.43" y1="220.05" x2="163.45" y2="220.03"/><line class="cls-1" x1="163.4" y1="220.06" x2="163.43" y2="220.05"/><line class="cls-1" x1="163.38" y1="220.08" x2="163.4" y2="220.06"/><line class="cls-1" x1="163.36" y1="220.1" x2="163.38" y2="220.08"/><line class="cls-1" x1="163.34" y1="220.11" x2="163.36" y2="220.1"/><line class="cls-1" x1="163.32" y1="220.13" x2="163.34" y2="220.11"/><line class="cls-1" x1="163.3" y1="220.15" x2="163.32" y2="220.13"/><line class="cls-1" x1="163.28" y1="220.17" x2="163.3" y2="220.15"/><line class="cls-1" x1="163.27" y1="220.19" x2="163.28" y2="220.17"/><line class="cls-1" x1="163.25" y1="220.21" x2="163.27" y2="220.19"/><line class="cls-1" x1="163.23" y1="220.23" x2="163.25" y2="220.21"/><line class="cls-1" x1="163.21" y1="220.26" x2="163.23" y2="220.23"/><line class="cls-1" x1="163.2" y1="220.28" x2="163.21" y2="220.26"/><line class="cls-1" x1="163.18" y1="220.3" x2="163.2" y2="220.28"/><line class="cls-1" x1="163.16" y1="220.33" x2="163.18" y2="220.3"/><line class="cls-1" x1="163.15" y1="220.35" x2="163.16" y2="220.33"/><line class="cls-1" x1="163.13" y1="220.37" x2="163.15" y2="220.35"/><line class="cls-1" x1="163.12" y1="220.4" x2="163.13" y2="220.37"/><line class="cls-1" x1="163.11" y1="220.43" x2="163.12" y2="220.4"/><line class="cls-1" x1="163.09" y1="220.45" x2="163.11" y2="220.43"/><line class="cls-1" x1="163.08" y1="220.48" x2="163.09" y2="220.45"/><line class="cls-1" x1="163.07" y1="220.5" x2="163.08" y2="220.48"/><line class="cls-1" x1="163.06" y1="220.53" x2="163.07" y2="220.5"/><line class="cls-1" x1="163.05" y1="220.56" x2="163.06" y2="220.53"/><line class="cls-1" x1="163.04" y1="220.58" x2="163.05" y2="220.56"/><line class="cls-1" x1="163.03" y1="220.61" x2="163.04" y2="220.58"/><line class="cls-1" x1="163.02" y1="220.64" x2="163.03" y2="220.61"/><line class="cls-1" x1="163.01" y1="220.66" x2="163.02" y2="220.64"/><line class="cls-1" x1="163" y1="220.69" x2="163.01" y2="220.66"/><line class="cls-1" x1="163" y1="220.72" x2="163" y2="220.69"/><line class="cls-1" x1="162.99" y1="220.75" x2="163" y2="220.72"/><line class="cls-1" x1="162.98" y1="220.77" x2="162.99" y2="220.75"/><line class="cls-1" x1="162.98" y1="220.8" x2="162.98" y2="220.77"/><line class="cls-1" x1="162.97" y1="220.83" x2="162.98" y2="220.8"/><line class="cls-1" x1="162.97" y1="220.86" x2="162.97" y2="220.83"/><line class="cls-1" x1="162.97" y1="220.88" x2="162.97" y2="220.86"/><line class="cls-1" x1="162.96" y1="220.91" x2="162.97" y2="220.88"/><line class="cls-1" x1="162.96" y1="220.94" x2="162.96" y2="220.91"/><line class="cls-1" x1="162.96" y1="220.97" x2="162.96" y2="220.94"/><polyline class="cls-1" points="162.12 236.51 162.12 236.49 162.96 220.99 162.96 220.97"/><line class="cls-1" x1="162.12" y1="236.54" x2="162.12" y2="236.51"/><line class="cls-1" x1="162.12" y1="236.57" x2="162.12" y2="236.54"/><line class="cls-1" x1="162.12" y1="236.59" x2="162.12" y2="236.57"/><line class="cls-1" x1="162.12" y1="236.62" x2="162.12" y2="236.59"/><line class="cls-1" x1="162.12" y1="236.65" x2="162.12" y2="236.62"/><line class="cls-1" x1="162.12" y1="236.68" x2="162.12" y2="236.65"/><line class="cls-1" x1="162.12" y1="236.7" x2="162.12" y2="236.68"/><line class="cls-1" x1="162.12" y1="236.73" x2="162.12" y2="236.7"/><line class="cls-1" x1="162.13" y1="236.76" x2="162.12" y2="236.73"/><line class="cls-1" x1="162.13" y1="236.79" x2="162.13" y2="236.76"/><line class="cls-1" x1="162.14" y1="236.82" x2="162.13" y2="236.79"/><line class="cls-1" x1="162.14" y1="236.85" x2="162.14" y2="236.82"/><line class="cls-1" x1="162.15" y1="236.87" x2="162.14" y2="236.85"/><line class="cls-1" x1="162.15" y1="236.9" x2="162.15" y2="236.87"/><line class="cls-1" x1="162.16" y1="236.93" x2="162.15" y2="236.9"/><line class="cls-1" x1="162.17" y1="236.96" x2="162.16" y2="236.93"/><line class="cls-1" x1="162.18" y1="236.99" x2="162.17" y2="236.96"/><line class="cls-1" x1="162.18" y1="237.02" x2="162.18" y2="236.99"/><line class="cls-1" x1="162.19" y1="237.04" x2="162.18" y2="237.02"/><line class="cls-1" x1="162.2" y1="237.07" x2="162.19" y2="237.04"/><line class="cls-1" x1="162.21" y1="237.1" x2="162.2" y2="237.07"/><line class="cls-1" x1="162.23" y1="237.13" x2="162.21" y2="237.1"/><line class="cls-1" x1="162.24" y1="237.15" x2="162.23" y2="237.13"/><line class="cls-1" x1="162.25" y1="237.18" x2="162.24" y2="237.15"/><line class="cls-1" x1="162.26" y1="237.21" x2="162.25" y2="237.18"/><line class="cls-1" x1="162.28" y1="237.24" x2="162.26" y2="237.21"/><line class="cls-1" x1="162.29" y1="237.26" x2="162.28" y2="237.24"/><line class="cls-1" x1="162.3" y1="237.29" x2="162.29" y2="237.26"/><line class="cls-1" x1="162.32" y1="237.31" x2="162.3" y2="237.29"/><line class="cls-1" x1="162.33" y1="237.34" x2="162.32" y2="237.31"/><line class="cls-1" x1="162.35" y1="237.36" x2="162.33" y2="237.34"/><line class="cls-1" x1="162.37" y1="237.39" x2="162.35" y2="237.36"/><line class="cls-1" x1="162.38" y1="237.41" x2="162.37" y2="237.39"/><line class="cls-1" x1="162.4" y1="237.43" x2="162.38" y2="237.41"/><line class="cls-1" x1="162.42" y1="237.45" x2="162.4" y2="237.43"/><line class="cls-1" x1="162.44" y1="237.48" x2="162.42" y2="237.45"/><line class="cls-1" x1="162.46" y1="237.5" x2="162.44" y2="237.48"/><line class="cls-1" x1="162.48" y1="237.52" x2="162.46" y2="237.5"/><line class="cls-1" x1="162.49" y1="237.54" x2="162.48" y2="237.52"/><line class="cls-1" x1="162.51" y1="237.56" x2="162.49" y2="237.54"/><line class="cls-1" x1="162.53" y1="237.58" x2="162.51" y2="237.56"/><line class="cls-1" x1="162.55" y1="237.59" x2="162.53" y2="237.58"/><line class="cls-1" x1="162.57" y1="237.61" x2="162.55" y2="237.59"/><line class="cls-1" x1="162.6" y1="237.63" x2="162.57" y2="237.61"/><line class="cls-1" x1="162.62" y1="237.64" x2="162.6" y2="237.63"/><line class="cls-1" x1="162.64" y1="237.66" x2="162.62" y2="237.64"/><line class="cls-1" x1="162.66" y1="237.67" x2="162.64" y2="237.66"/><line class="cls-1" x1="162.7" y1="237.7" x2="162.68" y2="237.69"/><line class="cls-1" x1="162.72" y1="237.71" x2="162.7" y2="237.7"/><line class="cls-1" x1="162.75" y1="237.72" x2="162.72" y2="237.71"/><line class="cls-1" x1="162.77" y1="237.73" x2="162.75" y2="237.72"/><line class="cls-1" x1="162.79" y1="237.74" x2="162.77" y2="237.73"/><line class="cls-1" x1="162.81" y1="237.75" x2="162.79" y2="237.74"/><line class="cls-1" x1="162.83" y1="237.76" x2="162.81" y2="237.75"/><line class="cls-1" x1="162.85" y1="237.77" x2="162.83" y2="237.76"/><line class="cls-1" x1="162.88" y1="237.78" x2="162.85" y2="237.77"/><line class="cls-1" x1="164.25" y1="214.5" x2="163.94" y2="219.89"/><line class="cls-1" x1="162.93" y1="237.79" x2="162.74" y2="241.04"/><line class="cls-1" x1="161.76" y1="258.45" x2="161.75" y2="258.45"/><line class="cls-1" x1="162.66" y1="237.67" x2="162.66" y2="237.67"/><line class="cls-1" x1="162.68" y1="237.69" x2="162.66" y2="237.67"/><path class="cls-1" d="M26.7,221.13a63.66,63.66,0,0,0,5.2-7.52"/><line class="cls-1" x1="129.63" y1="267.85" x2="4.18" y2="239.02"/><path class="cls-1" d="M152.66,239.84l-.58,1.2"/><path class="cls-1" d="M156.61,230.63l-.45,1.15"/><path class="cls-1" d="M157.16,230.56A168.45,168.45,0,0,0,162.48,214"/><path class="cls-1" d="M163.82,213.63a2.24,2.24,0,0,0,0,.52.77.77,0,0,0,.1.25c.05.07.12.14.22.11"/><path class="cls-1" d="M162.48,214l1.34-.39"/><path class="cls-1" d="M137,264a89.15,89.15,0,0,0,15.42-22.58"/><line class="cls-1" x1="162.7" y1="241.04" x2="162.72" y2="241.04"/><line class="cls-1" x1="163.85" y1="219.89" x2="163.88" y2="219.89"/><path class="cls-1" d="M164.25,214.5a1,1,0,0,1-.65-.37,1.06,1.06,0,0,1-.23-.72"/><path class="cls-1" d="M161.49,263.43a.81.81,0,0,0-.67.14.8.8,0,0,0-.31.61"/><line class="cls-1" x1="39.51" y1="201.62" x2="39.77" y2="201.45"/><line class="cls-1" x1="39.77" y1="201.45" x2="39.5" y2="201.23"/><line class="cls-1" x1="39.5" y1="201.23" x2="39.46" y2="199.57"/><line class="cls-1" x1="164.36" y1="211" x2="164.24" y2="213.24"/><line class="cls-1" x1="164.24" y1="213.24" x2="163.74" y2="213.46"/><line class="cls-1" x1="163.74" y1="213.46" x2="164.21" y2="213.77"/><path class="cls-1" d="M49.14,218.6l.12,0h.05a.05.05,0,0,0,0,0,.15.15,0,0,0,0-.13v-.15c0-.21,0-.42,0-.63l0-1.25c0-.81,0-1.61,0-2.42s0-1.6,0-2.41l0-1.21c0-.21,0-.41,0-.61v-.31s0,0,0-.07l0-.07a.12.12,0,0,0-.1-.07h-.17a.05.05,0,0,0,0,0,.2.2,0,0,0-.06.13s0,.14,0,.15c0,.21,0,.42,0,.63,0,.42,0,.84,0,1.25,0,.81,0,1.61.05,2.41s0,1.61,0,2.41l0,1.22,0,.61v.3a.22.22,0,0,0,0,.08l0,.07A.18.18,0,0,0,49.14,218.6Z"/><line class="cls-1" x1="40.95" y1="239.47" x2="42.36" y2="239.76"/><line class="cls-1" x1="157.97" y1="263.65" x2="160.51" y2="264.18"/><path class="cls-1" d="M41,239.47a1.16,1.16,0,0,0-.14-.49.65.65,0,0,0-.39-.32"/><path class="cls-1" d="M144.56,260.88a.84.84,0,0,1,.14-.43.66.66,0,0,1,.36-.27.54.54,0,0,1,.22,0h.11l.11,0,.47.09,1.8.37,3.61.74,3.61.74,1.8.37.22,0,.21.06a1,1,0,0,1,.39.24,1.07,1.07,0,0,1,.28.41,1,1,0,0,1,.08.43"/><polyline class="cls-1" points="39.46 199.57 101.22 205.22 164.36 211"/><polyline class="cls-1" points="40.33 234.94 40.32 234.84 40.01 222 40.01 221.89"/><polyline class="cls-1" points="39.95 219.47 39.95 219.37 39.63 206.27 39.62 206.16"/><line class="cls-1" x1="39.52" y1="202.17" x2="39.51" y2="201.62"/><path class="cls-1" d="M37.2,201.7l1.77-.21"/><path class="cls-1" d="M39,201.49a.89.89,0,0,0,.14.47.45.45,0,0,0,.41.21"/><line class="cls-1" x1="39.52" y1="202.17" x2="39.62" y2="206.16"/><line class="cls-1" x1="39.62" y1="206.16" x2="39.61" y2="206.16"/><line class="cls-1" x1="39.61" y1="206.16" x2="39.6" y2="206.16"/><line class="cls-1" x1="39.6" y1="206.16" x2="39.59" y2="206.16"/><line class="cls-1" x1="39.59" y1="206.16" x2="39.57" y2="206.17"/><line class="cls-1" x1="39.57" y1="206.17" x2="39.56" y2="206.17"/><line class="cls-1" x1="39.56" y1="206.17" x2="39.55" y2="206.18"/><line class="cls-1" x1="39.55" y1="206.18" x2="39.54" y2="206.18"/><line class="cls-1" x1="39.54" y1="206.18" x2="39.53" y2="206.19"/><line class="cls-1" x1="39.53" y1="206.19" x2="39.51" y2="206.19"/><line class="cls-1" x1="39.51" y1="206.19" x2="39.5" y2="206.2"/><line class="cls-1" x1="39.5" y1="206.2" x2="39.49" y2="206.2"/><line class="cls-1" x1="39.49" y1="206.2" x2="39.48" y2="206.21"/><line class="cls-1" x1="39.48" y1="206.21" x2="39.46" y2="206.22"/><line class="cls-1" x1="39.46" y1="206.22" x2="39.45" y2="206.23"/><line class="cls-1" x1="39.45" y1="206.23" x2="39.44" y2="206.24"/><line class="cls-1" x1="39.44" y1="206.24" x2="39.43" y2="206.25"/><line class="cls-1" x1="39.43" y1="206.25" x2="39.41" y2="206.26"/><line class="cls-1" x1="39.41" y1="206.26" x2="39.4" y2="206.27"/><line class="cls-1" x1="39.4" y1="206.27" x2="39.39" y2="206.28"/><line class="cls-1" x1="39.39" y1="206.28" x2="39.38" y2="206.29"/><line class="cls-1" x1="39.38" y1="206.29" x2="39.37" y2="206.3"/><line class="cls-1" x1="39.37" y1="206.3" x2="39.36" y2="206.32"/><line class="cls-1" x1="39.36" y1="206.32" x2="39.34" y2="206.33"/><line class="cls-1" x1="39.34" y1="206.33" x2="39.33" y2="206.34"/><line class="cls-1" x1="39.33" y1="206.34" x2="39.32" y2="206.36"/><line class="cls-1" x1="39.32" y1="206.36" x2="39.31" y2="206.37"/><line class="cls-1" x1="39.31" y1="206.37" x2="39.3" y2="206.39"/><line class="cls-1" x1="39.3" y1="206.39" x2="39.29" y2="206.4"/><line class="cls-1" x1="39.29" y1="206.4" x2="39.28" y2="206.42"/><line class="cls-1" x1="39.28" y1="206.42" x2="39.27" y2="206.44"/><line class="cls-1" x1="39.27" y1="206.44" x2="39.26" y2="206.45"/><line class="cls-1" x1="39.26" y1="206.45" x2="39.25" y2="206.47"/><line class="cls-1" x1="39.25" y1="206.47" x2="39.24" y2="206.49"/><line class="cls-1" x1="39.24" y1="206.49" x2="39.23" y2="206.51"/><line class="cls-1" x1="39.23" y1="206.51" x2="39.22" y2="206.53"/><line class="cls-1" x1="39.22" y1="206.53" x2="39.22" y2="206.55"/><line class="cls-1" x1="39.22" y1="206.55" x2="39.21" y2="206.56"/><line class="cls-1" x1="39.21" y1="206.56" x2="39.2" y2="206.58"/><line class="cls-1" x1="39.2" y1="206.58" x2="39.19" y2="206.6"/><line class="cls-1" x1="39.19" y1="206.6" x2="39.18" y2="206.62"/><line class="cls-1" x1="39.18" y1="206.62" x2="39.18" y2="206.64"/><line class="cls-1" x1="39.18" y1="206.64" x2="39.17" y2="206.67"/><line class="cls-1" x1="39.17" y1="206.67" x2="39.16" y2="206.69"/><line class="cls-1" x1="39.16" y1="206.69" x2="39.16" y2="206.71"/><line class="cls-1" x1="39.16" y1="206.71" x2="39.15" y2="206.73"/><line class="cls-1" x1="39.15" y1="206.73" x2="39.15" y2="206.75"/><line class="cls-1" x1="39.15" y1="206.75" x2="39.14" y2="206.77"/><line class="cls-1" x1="39.14" y1="206.77" x2="39.14" y2="206.79"/><line class="cls-1" x1="39.14" y1="206.79" x2="39.13" y2="206.81"/><line class="cls-1" x1="39.13" y1="206.81" x2="39.13" y2="206.83"/><line class="cls-1" x1="39.13" y1="206.83" x2="39.13" y2="206.86"/><line class="cls-1" x1="39.13" y1="206.86" x2="39.12" y2="206.88"/><line class="cls-1" x1="39.12" y1="206.88" x2="39.12" y2="206.9"/><line class="cls-1" x1="39.12" y1="206.9" x2="39.12" y2="206.92"/><line class="cls-1" x1="39.12" y1="206.92" x2="39.12" y2="206.94"/><line class="cls-1" x1="39.12" y1="206.94" x2="39.11" y2="206.96"/><line class="cls-1" x1="39.11" y1="206.96" x2="39.11" y2="206.98"/><line class="cls-1" x1="39.11" y1="206.98" x2="39.11" y2="207"/><line class="cls-1" x1="39.11" y1="207" x2="39.11" y2="207.03"/><line class="cls-1" x1="39.11" y1="207.03" x2="39.11" y2="207.05"/><line class="cls-1" x1="39.11" y1="207.05" x2="39.11" y2="207.07"/><line class="cls-1" x1="39.11" y1="207.07" x2="39.11" y2="207.09"/><line class="cls-1" x1="39.11" y1="207.09" x2="39.11" y2="207.11"/><line class="cls-1" x1="39.4" y1="218.71" x2="39.4" y2="218.73"/><line class="cls-1" x1="39.4" y1="218.73" x2="39.4" y2="218.75"/><line class="cls-1" x1="39.4" y1="218.75" x2="39.4" y2="218.77"/><line class="cls-1" x1="39.4" y1="218.77" x2="39.4" y2="218.79"/><line class="cls-1" x1="39.4" y1="218.79" x2="39.4" y2="218.81"/><line class="cls-1" x1="39.4" y1="218.81" x2="39.41" y2="218.83"/><line class="cls-1" x1="39.41" y1="218.83" x2="39.41" y2="218.85"/><line class="cls-1" x1="39.41" y1="218.85" x2="39.41" y2="218.87"/><line class="cls-1" x1="39.41" y1="218.87" x2="39.41" y2="218.89"/><line class="cls-1" x1="39.41" y1="218.89" x2="39.42" y2="218.91"/><line class="cls-1" x1="39.42" y1="218.91" x2="39.42" y2="218.93"/><line class="cls-1" x1="39.42" y1="218.93" x2="39.43" y2="218.95"/><line class="cls-1" x1="39.43" y1="218.95" x2="39.43" y2="218.97"/><line class="cls-1" x1="39.43" y1="218.97" x2="39.44" y2="218.99"/><line class="cls-1" x1="39.44" y1="218.99" x2="39.44" y2="219.01"/><line class="cls-1" x1="39.44" y1="219.01" x2="39.45" y2="219.03"/><line class="cls-1" x1="39.45" y1="219.03" x2="39.45" y2="219.05"/><line class="cls-1" x1="39.45" y1="219.05" x2="39.46" y2="219.06"/><line class="cls-1" x1="39.46" y1="219.06" x2="39.47" y2="219.08"/><line class="cls-1" x1="39.47" y1="219.08" x2="39.47" y2="219.1"/><line class="cls-1" x1="39.47" y1="219.1" x2="39.48" y2="219.12"/><line class="cls-1" x1="39.48" y1="219.12" x2="39.49" y2="219.14"/><line class="cls-1" x1="39.49" y1="219.14" x2="39.49" y2="219.16"/><line class="cls-1" x1="39.49" y1="219.16" x2="39.5" y2="219.17"/><line class="cls-1" x1="39.5" y1="219.17" x2="39.51" y2="219.19"/><line class="cls-1" x1="39.51" y1="219.19" x2="39.52" y2="219.21"/><line class="cls-1" x1="39.52" y1="219.21" x2="39.53" y2="219.22"/><line class="cls-1" x1="39.53" y1="219.22" x2="39.54" y2="219.24"/><line class="cls-1" x1="39.54" y1="219.24" x2="39.55" y2="219.25"/><line class="cls-1" x1="39.55" y1="219.25" x2="39.56" y2="219.27"/><line class="cls-1" x1="39.56" y1="219.27" x2="39.57" y2="219.28"/><line class="cls-1" x1="39.57" y1="219.28" x2="39.58" y2="219.3"/><line class="cls-1" x1="39.58" y1="219.3" x2="39.59" y2="219.31"/><line class="cls-1" x1="39.59" y1="219.31" x2="39.6" y2="219.32"/><line class="cls-1" x1="39.6" y1="219.32" x2="39.61" y2="219.34"/><line class="cls-1" x1="39.61" y1="219.34" x2="39.62" y2="219.35"/><line class="cls-1" x1="39.62" y1="219.35" x2="39.63" y2="219.36"/><line class="cls-1" x1="39.63" y1="219.36" x2="39.64" y2="219.37"/><line class="cls-1" x1="39.64" y1="219.37" x2="39.65" y2="219.38"/><line class="cls-1" x1="39.65" y1="219.38" x2="39.67" y2="219.39"/><line class="cls-1" x1="39.67" y1="219.39" x2="39.68" y2="219.4"/><line class="cls-1" x1="39.68" y1="219.4" x2="39.69" y2="219.41"/><line class="cls-1" x1="39.69" y1="219.41" x2="39.7" y2="219.42"/><line class="cls-1" x1="39.7" y1="219.42" x2="39.71" y2="219.43"/><line class="cls-1" x1="39.71" y1="219.43" x2="39.73" y2="219.43"/><line class="cls-1" x1="39.73" y1="219.43" x2="39.74" y2="219.44"/><line class="cls-1" x1="39.74" y1="219.44" x2="39.75" y2="219.45"/><line class="cls-1" x1="39.75" y1="219.45" x2="39.76" y2="219.45"/><line class="cls-1" x1="39.76" y1="219.45" x2="39.78" y2="219.46"/><line class="cls-1" x1="39.78" y1="219.46" x2="39.79" y2="219.46"/><line class="cls-1" x1="39.79" y1="219.46" x2="39.8" y2="219.47"/><line class="cls-1" x1="39.8" y1="219.47" x2="39.81" y2="219.47"/><line class="cls-1" x1="39.81" y1="219.47" x2="39.83" y2="219.47"/><line class="cls-1" x1="39.83" y1="219.47" x2="39.84" y2="219.47"/><line class="cls-1" x1="39.84" y1="219.47" x2="39.85" y2="219.48"/><line class="cls-1" x1="39.85" y1="219.48" x2="39.86" y2="219.48"/><line class="cls-1" x1="39.86" y1="219.48" x2="39.88" y2="219.48"/><line class="cls-1" x1="39.88" y1="219.48" x2="39.89" y2="219.48"/><line class="cls-1" x1="39.89" y1="219.48" x2="39.9" y2="219.48"/><line class="cls-1" x1="39.9" y1="219.48" x2="39.91" y2="219.48"/><line class="cls-1" x1="39.91" y1="219.48" x2="39.92" y2="219.48"/><line class="cls-1" x1="39.92" y1="219.48" x2="39.94" y2="219.48"/><line class="cls-1" x1="39.94" y1="219.48" x2="39.95" y2="219.47"/><line class="cls-1" x1="39.95" y1="219.47" x2="40.01" y2="221.89"/><line class="cls-1" x1="40.01" y1="221.89" x2="39.99" y2="221.89"/><line class="cls-1" x1="39.99" y1="221.89" x2="39.98" y2="221.9"/><line class="cls-1" x1="39.98" y1="221.9" x2="39.97" y2="221.9"/><line class="cls-1" x1="39.97" y1="221.9" x2="39.96" y2="221.9"/><line class="cls-1" x1="39.96" y1="221.9" x2="39.95" y2="221.91"/><line class="cls-1" x1="39.95" y1="221.91" x2="39.94" y2="221.91"/><line class="cls-1" x1="39.94" y1="221.91" x2="39.92" y2="221.92"/><line class="cls-1" x1="39.92" y1="221.92" x2="39.91" y2="221.92"/><line class="cls-1" x1="39.91" y1="221.92" x2="39.9" y2="221.93"/><line class="cls-1" x1="39.9" y1="221.93" x2="39.89" y2="221.94"/><line class="cls-1" x1="39.89" y1="221.94" x2="39.87" y2="221.94"/><line class="cls-1" x1="39.87" y1="221.94" x2="39.86" y2="221.95"/><line class="cls-1" x1="39.86" y1="221.95" x2="39.85" y2="221.96"/><line class="cls-1" x1="39.85" y1="221.96" x2="39.84" y2="221.97"/><line class="cls-1" x1="39.84" y1="221.97" x2="39.83" y2="221.98"/><line class="cls-1" x1="39.83" y1="221.98" x2="39.81" y2="221.99"/><line class="cls-1" x1="39.81" y1="221.99" x2="39.8" y2="222"/><line class="cls-1" x1="39.8" y1="222" x2="39.79" y2="222.01"/><line class="cls-1" x1="39.79" y1="222.01" x2="39.78" y2="222.02"/><line class="cls-1" x1="39.78" y1="222.02" x2="39.77" y2="222.04"/><line class="cls-1" x1="39.77" y1="222.04" x2="39.75" y2="222.05"/><line class="cls-1" x1="39.75" y1="222.05" x2="39.74" y2="222.06"/><line class="cls-1" x1="39.74" y1="222.06" x2="39.73" y2="222.07"/><line class="cls-1" x1="39.73" y1="222.07" x2="39.72" y2="222.09"/><line class="cls-1" x1="39.72" y1="222.09" x2="39.71" y2="222.1"/><line class="cls-1" x1="39.71" y1="222.1" x2="39.7" y2="222.12"/><line class="cls-1" x1="39.7" y1="222.12" x2="39.69" y2="222.13"/><line class="cls-1" x1="39.69" y1="222.13" x2="39.68" y2="222.15"/><line class="cls-1" x1="39.68" y1="222.15" x2="39.67" y2="222.17"/><line class="cls-1" x1="39.67" y1="222.17" x2="39.66" y2="222.18"/><line class="cls-1" x1="39.66" y1="222.18" x2="39.65" y2="222.2"/><line class="cls-1" x1="39.65" y1="222.2" x2="39.64" y2="222.22"/><line class="cls-1" x1="39.64" y1="222.22" x2="39.63" y2="222.24"/><line class="cls-1" x1="39.63" y1="222.24" x2="39.62" y2="222.26"/><line class="cls-1" x1="39.62" y1="222.26" x2="39.61" y2="222.27"/><line class="cls-1" x1="39.61" y1="222.27" x2="39.6" y2="222.29"/><line class="cls-1" x1="39.6" y1="222.29" x2="39.6" y2="222.31"/><line class="cls-1" x1="39.6" y1="222.31" x2="39.59" y2="222.33"/><line class="cls-1" x1="39.59" y1="222.33" x2="39.58" y2="222.35"/><line class="cls-1" x1="39.58" y1="222.35" x2="39.57" y2="222.37"/><line class="cls-1" x1="39.57" y1="222.37" x2="39.57" y2="222.39"/><line class="cls-1" x1="39.57" y1="222.39" x2="39.56" y2="222.41"/><line class="cls-1" x1="39.56" y1="222.41" x2="39.55" y2="222.44"/><line class="cls-1" x1="39.55" y1="222.44" x2="39.55" y2="222.46"/><line class="cls-1" x1="39.55" y1="222.46" x2="39.54" y2="222.48"/><line class="cls-1" x1="39.54" y1="222.48" x2="39.54" y2="222.5"/><line class="cls-1" x1="39.54" y1="222.5" x2="39.53" y2="222.52"/><line class="cls-1" x1="39.53" y1="222.52" x2="39.53" y2="222.54"/><line class="cls-1" x1="39.53" y1="222.54" x2="39.52" y2="222.56"/><line class="cls-1" x1="39.52" y1="222.56" x2="39.52" y2="222.58"/><line class="cls-1" x1="39.52" y1="222.58" x2="39.52" y2="222.6"/><line class="cls-1" x1="39.52" y1="222.6" x2="39.51" y2="222.63"/><line class="cls-1" x1="39.51" y1="222.63" x2="39.51" y2="222.65"/><line class="cls-1" x1="39.51" y1="222.65" x2="39.51" y2="222.67"/><line class="cls-1" x1="39.51" y1="222.67" x2="39.51" y2="222.69"/><line class="cls-1" x1="39.51" y1="222.69" x2="39.5" y2="222.71"/><line class="cls-1" x1="39.5" y1="222.71" x2="39.5" y2="222.73"/><line class="cls-1" x1="39.5" y1="222.73" x2="39.5" y2="222.75"/><line class="cls-1" x1="39.5" y1="222.75" x2="39.5" y2="222.77"/><line class="cls-1" x1="39.5" y1="222.77" x2="39.5" y2="222.79"/><line class="cls-1" x1="39.5" y1="222.79" x2="39.5" y2="222.81"/><line class="cls-1" x1="39.5" y1="222.81" x2="39.5" y2="222.83"/><line class="cls-1" x1="39.5" y1="222.83" x2="39.5" y2="222.85"/><line class="cls-1" x1="39.78" y1="234.22" x2="39.78" y2="234.24"/><line class="cls-1" x1="39.78" y1="234.24" x2="39.78" y2="234.26"/><line class="cls-1" x1="39.78" y1="234.26" x2="39.78" y2="234.28"/><line class="cls-1" x1="39.78" y1="234.28" x2="39.79" y2="234.3"/><line class="cls-1" x1="39.79" y1="234.3" x2="39.79" y2="234.32"/><line class="cls-1" x1="39.79" y1="234.32" x2="39.79" y2="234.34"/><line class="cls-1" x1="39.79" y1="234.34" x2="39.79" y2="234.36"/><line class="cls-1" x1="39.79" y1="234.36" x2="39.8" y2="234.38"/><line class="cls-1" x1="39.8" y1="234.38" x2="39.8" y2="234.4"/><line class="cls-1" x1="39.8" y1="234.4" x2="39.8" y2="234.42"/><line class="cls-1" x1="39.8" y1="234.42" x2="39.81" y2="234.44"/><line class="cls-1" x1="39.81" y1="234.44" x2="39.81" y2="234.46"/><line class="cls-1" x1="39.81" y1="234.46" x2="39.82" y2="234.48"/><line class="cls-1" x1="39.82" y1="234.48" x2="39.82" y2="234.49"/><line class="cls-1" x1="39.82" y1="234.49" x2="39.83" y2="234.51"/><line class="cls-1" x1="39.83" y1="234.51" x2="39.83" y2="234.53"/><line class="cls-1" x1="39.83" y1="234.53" x2="39.84" y2="234.55"/><line class="cls-1" x1="39.84" y1="234.55" x2="39.84" y2="234.57"/><line class="cls-1" x1="39.84" y1="234.57" x2="39.85" y2="234.59"/><line class="cls-1" x1="39.85" y1="234.59" x2="39.86" y2="234.61"/><line class="cls-1" x1="39.86" y1="234.61" x2="39.86" y2="234.62"/><line class="cls-1" x1="39.86" y1="234.62" x2="39.87" y2="234.64"/><line class="cls-1" x1="39.87" y1="234.64" x2="39.88" y2="234.66"/><line class="cls-1" x1="39.88" y1="234.66" x2="39.89" y2="234.67"/><line class="cls-1" x1="39.89" y1="234.67" x2="39.89" y2="234.69"/><line class="cls-1" x1="39.89" y1="234.69" x2="39.9" y2="234.71"/><line class="cls-1" x1="39.9" y1="234.71" x2="39.91" y2="234.72"/><line class="cls-1" x1="39.91" y1="234.72" x2="39.92" y2="234.74"/><line class="cls-1" x1="39.92" y1="234.74" x2="39.93" y2="234.75"/><line class="cls-1" x1="39.93" y1="234.75" x2="39.94" y2="234.77"/><line class="cls-1" x1="39.94" y1="234.77" x2="39.95" y2="234.78"/><line class="cls-1" x1="39.95" y1="234.78" x2="39.96" y2="234.79"/><line class="cls-1" x1="39.96" y1="234.79" x2="39.97" y2="234.81"/><line class="cls-1" x1="39.97" y1="234.81" x2="39.98" y2="234.82"/><line class="cls-1" x1="39.98" y1="234.82" x2="39.99" y2="234.83"/><line class="cls-1" x1="39.99" y1="234.83" x2="40" y2="234.84"/><line class="cls-1" x1="40" y1="234.84" x2="40.01" y2="234.85"/><line class="cls-1" x1="40.01" y1="234.85" x2="40.02" y2="234.86"/><line class="cls-1" x1="40.02" y1="234.86" x2="40.04" y2="234.87"/><line class="cls-1" x1="40.04" y1="234.87" x2="40.05" y2="234.88"/><line class="cls-1" x1="40.05" y1="234.88" x2="40.06" y2="234.89"/><line class="cls-1" x1="40.06" y1="234.89" x2="40.07" y2="234.9"/><line class="cls-1" x1="40.07" y1="234.9" x2="40.08" y2="234.9"/><line class="cls-1" x1="40.08" y1="234.9" x2="40.09" y2="234.91"/><line class="cls-1" x1="40.09" y1="234.91" x2="40.11" y2="234.92"/><line class="cls-1" x1="40.11" y1="234.92" x2="40.12" y2="234.92"/><line class="cls-1" x1="40.12" y1="234.92" x2="40.13" y2="234.93"/><line class="cls-1" x1="40.13" y1="234.93" x2="40.14" y2="234.93"/><line class="cls-1" x1="40.14" y1="234.93" x2="40.16" y2="234.94"/><line class="cls-1" x1="40.16" y1="234.94" x2="40.17" y2="234.94"/><line class="cls-1" x1="40.17" y1="234.94" x2="40.18" y2="234.94"/><line class="cls-1" x1="40.18" y1="234.94" x2="40.19" y2="234.95"/><line class="cls-1" x1="40.19" y1="234.95" x2="40.21" y2="234.95"/><line class="cls-1" x1="40.21" y1="234.95" x2="40.22" y2="234.95"/><line class="cls-1" x1="40.22" y1="234.95" x2="40.23" y2="234.95"/><line class="cls-1" x1="40.23" y1="234.95" x2="40.24" y2="234.95"/><line class="cls-1" x1="40.24" y1="234.95" x2="40.25" y2="234.95"/><line class="cls-1" x1="40.25" y1="234.95" x2="40.27" y2="234.95"/><line class="cls-1" x1="40.27" y1="234.95" x2="40.28" y2="234.95"/><line class="cls-1" x1="40.28" y1="234.95" x2="40.29" y2="234.95"/><line class="cls-1" x1="40.29" y1="234.95" x2="40.3" y2="234.95"/><line class="cls-1" x1="40.3" y1="234.95" x2="40.31" y2="234.95"/><line class="cls-1" x1="40.31" y1="234.95" x2="40.33" y2="234.94"/><line class="cls-1" x1="40.33" y1="234.94" x2="40.42" y2="238.66"/><path class="cls-1" d="M40.42,238.66A.64.64,0,0,0,40,239a1.16,1.16,0,0,0-.12.51"/><line class="cls-1" x1="39.91" y1="239.5" x2="38.47" y2="239.87"/><path class="cls-1" d="M38.47,239.87a.9.9,0,0,0-.09-.32.58.58,0,0,0-.22-.22.39.39,0,0,0-.26,0h-.07l-.07,0-.14,0-1.17.29-2.33.59-2.33.59-1.16.3-.06,0h-.06l-.12.06a.84.84,0,0,0-.21.21,1.09,1.09,0,0,0-.21.6"/><line class="cls-1" x1="29.97" y1="242.04" x2="28.64" y2="242.39"/><line class="cls-1" x1="14.41" y1="246.03" x2="12.93" y2="246.41"/><path class="cls-1" d="M12.93,246.41a1.05,1.05,0,0,0-.08-.35.51.51,0,0,0-.22-.24.42.42,0,0,0-.29,0l-.14,0-.15,0-1.25.32-2.49.63-2.49.63-1.25.32-.07,0H4.44l-.13.07a.69.69,0,0,0-.23.22,1.07,1.07,0,0,0-.18.65"/><line class="cls-1" x1="3.9" y1="248.72" x2="2.02" y2="249.2"/><path class="cls-1" d="M2,249.2a.82.82,0,0,0-.16-.45.54.54,0,0,0-.43-.19"/><line class="cls-1" x1="26.65" y1="220.73" x2="27.09" y2="220.09"/><line class="cls-1" x1="1.43" y1="248.56" x2="2.32" y2="240.31"/><path class="cls-1" d="M39.91,239.5a2.8,2.8,0,0,0,1,0"/><path class="cls-1" d="M160.51,264.18c-.07,0-.11.1-.06.18a.44.44,0,0,0,.18.12,1.51,1.51,0,0,0,.41.13"/><path class="cls-1" d="M3.9,248.72l.26,0H4.5a2,2,0,0,0,.34,0l.15,0,.13,0,1.18-.31,2.37-.61,2.38-.61,1.18-.3.39-.1.2-.05.17,0s.16-.07.14-.13l0,0,0,0a.35.35,0,0,0-.13-.05"/><path class="cls-1" d="M14.41,246h.12"/><path class="cls-1" d="M30,242a1.15,1.15,0,0,0,.26,0,1.61,1.61,0,0,0,.31,0l.32,0,.14,0,.12,0,1.11-.29,2.23-.57,2.22-.57,1.12-.29.36-.1.19,0,.16,0s.15-.06.14-.12l0,0,0,0-.12,0"/><path class="cls-1" d="M158,263.65l-.12.05-.18,0a2.63,2.63,0,0,1-.48,0,3.86,3.86,0,0,1-.49-.06l-.11,0-.12,0-.23-.05-1.72-.36-3.43-.71-3.44-.71-1.72-.36-.57-.12-.29-.06-.26-.06a1,1,0,0,1-.21-.09l-.07,0-.05-.05c0-.08,0-.14.08-.18"/><path class="cls-1" d="M42.36,239.76l-.12.05a.14.14,0,0,0-.08.05,0,0,0,0,0,0,.07l0,0,.08,0,.1,0,.12,0,.22,0,.89.19"/><path class="cls-1" d="M140.83,276.89l.08.06"/><path class="cls-1" d="M2.16,249.38s0-.08,0-.12A.31.31,0,0,0,2,249.2"/><path class="cls-1" d="M125.85,282.18a.44.44,0,0,0-.08-.11"/><path class="cls-1" d="M107.37,277.28a.39.39,0,0,0-.14-.17"/><path class="cls-1" d="M90.41,272.78c0-.09-.12-.16-.18-.2"/><path class="cls-1" d="M74.79,268.64a.21.21,0,0,0-.07-.13.39.39,0,0,0-.14-.08"/><path class="cls-1" d="M60.36,264.82a.15.15,0,0,0-.08-.15l-.15-.08"/><path class="cls-1" d="M47,261.27c0-.07,0-.12-.08-.15l-.17-.08"/><path class="cls-1" d="M34.57,258a.12.12,0,0,0,0-.1l-.07-.06-.18-.07"/><path class="cls-1" d="M23,254.91a.09.09,0,0,0,0-.1.24.24,0,0,0-.08-.06l-.19-.07"/><path class="cls-1" d="M12.18,252a.08.08,0,0,0,0-.1l-.09-.06-.1,0-.1,0"/><polyline class="cls-1" points="39.11 207.11 39.11 207.13 39.4 218.69 39.4 218.71"/><polyline class="cls-1" points="39.5 222.85 39.5 222.87 39.78 234.2 39.78 234.22"/><path class="cls-1" d="M90.39,272.83l0,0v0"/><path class="cls-1" d="M107.37,277.33h0v0"/><path class="cls-1" d="M2.08,249.4a.08.08,0,0,0,.08,0"/><path class="cls-1" d="M12.11,252.06a.06.06,0,0,0,.07,0"/><path class="cls-1" d="M22.93,254.93a0,0,0,0,0,.06,0"/><path class="cls-1" d="M34.51,258a0,0,0,0,0,.06,0"/><path class="cls-1" d="M47,261.3s0,0,0,0"/><path class="cls-1" d="M60.32,264.85s0,0,0,0"/><path class="cls-1" d="M74.76,268.68h0v0"/><path class="cls-1" d="M125.87,282.24h0v0"/><path class="cls-1" d="M147.73,221.62a.51.51,0,0,1,.2.43.42.42,0,0,1-.23.39"/><path class="cls-1" d="M147.31,231.12a.53.53,0,0,1,.2.42.42.42,0,0,1-.24.39"/><line class="cls-1" x1="162.9" y1="237.78" x2="162.88" y2="237.78"/><path class="cls-1" d="M44.62,239.52l-1.32-.27-.33-.07-.09,0H42.8a.32.32,0,0,0-.16,0,.4.4,0,0,0-.22.24,1,1,0,0,0-.06.33"/><line class="cls-1" x1="30.94" y1="214.52" x2="31.41" y2="213.83"/><path class="cls-1" d="M31.57,213.57A73.63,73.63,0,0,0,37.2,201.7"/><path class="cls-1" d="M26.6,220.79l0-.06"/><path class="cls-1" d="M153.62,268.36l-.38.24-.19.11-.1.06-.09.06c-.07,0-.12.1-.08.19a.18.18,0,0,0,.05.07l.11.08a1.56,1.56,0,0,0,.41.15"/><path class="cls-1" d="M141.46,275.75l-.36.22-.18.11-.17.12a.41.41,0,0,0-.17.37.5.5,0,0,0,.25.32"/><path class="cls-1" d="M132.48,281.21l-.42.25-.2.13-.11.07-.05,0,0,0a.16.16,0,0,0-.06.21l.06.09.11.08a1.6,1.6,0,0,0,.46.17"/><line class="cls-1" x1="161.51" y1="258.32" x2="161.49" y2="258.31"/><line class="cls-1" x1="161.76" y1="258.45" x2="161.48" y2="263.4"/><path class="cls-1" d="M163.37,213.41l-11.57-1.12-1.47-.14-.34,0a2.07,2.07,0,0,0-.35,0A2.09,2.09,0,0,0,148,213.5a2.34,2.34,0,0,0-.17.68c0,.06,0,.12,0,.17v.19l0,.37c-.09,1.93-.17,3.87-.26,5.8"/><path class="cls-1" d="M147,232.58q-.48,10.69-1,21.4l-.13,2.82,0,.7c0,.12,0,.24,0,.35s0,.1,0,.15a.66.66,0,0,0,0,.14,2.54,2.54,0,0,0,.32,1.14,2.82,2.82,0,0,0,1,1.05,2.66,2.66,0,0,0,.6.26,1.46,1.46,0,0,0,.3.07l.31.07,2.57.52,10.5,2.15"/><line class="cls-1" x1="141.18" y1="260.18" x2="144.56" y2="260.88"/><path class="cls-1" d="M135.74,258.16l3,.62,1.52.31.17.05a.85.85,0,0,1,.17.08,1.22,1.22,0,0,1,.31.25,1.58,1.58,0,0,1,.2.36.83.83,0,0,1,.05.35"/><path class="cls-1" d="M28.64,242.39a.77.77,0,0,0-.27-.32,1,1,0,0,0-.47-.17.88.88,0,0,0-.23,0l-.23,0-.5.13-1.85.47-3.7.93-3.7.94-1.85.47-.22.06-.22.06a1.67,1.67,0,0,0-.43.25,2,2,0,0,0-.56.77"/><path class="cls-1" d="M141.18,260.18l-.12.05-.18,0a2.68,2.68,0,0,1-.49,0,3,3,0,0,1-.42,0l-.18,0-.19,0-1.58-.33-3.15-.65"/><path class="cls-1" d="M14.53,246a3,3,0,0,0,.42,0,4.36,4.36,0,0,0,.52-.05l.48-.08.19,0,.21-.05,1.78-.46,3.57-.91,3.57-.92,1.78-.46.61-.16.3-.07.27-.08a1.09,1.09,0,0,0,.23-.09.65.65,0,0,0,.16-.09c.05-.05.09-.11,0-.16"/><polyline class="cls-1" points="164.21 213.77 164.17 214.51 163.87 219.9 162.98 236.3"/><line class="cls-1" x1="39.4" y1="206.13" x2="39.39" y2="206.13"/><line class="cls-1" x1="39.41" y1="206.13" x2="39.4" y2="206.13"/><line class="cls-1" x1="39.31" y1="202.14" x2="39.41" y2="206.13"/><line class="cls-1" x1="39.41" y1="206.13" x2="39.41" y2="206.13"/><line class="cls-1" x1="39.39" y1="206.13" x2="39.29" y2="202.14"/><path class="cls-1" d="M39.29,202.14h0"/><path class="cls-1" d="M49.1,209.89a.19.19,0,0,0-.15,0,.42.42,0,0,0-.09.14.5.5,0,0,0,0,.32.38.38,0,0,0,.21.24.2.2,0,0,0,.15,0,.34.34,0,0,0,.12-.12"/><line class="cls-1" x1="49.34" y1="210.5" x2="49.36" y2="211.78"/><path class="cls-1" d="M49.36,211.78h0"/><line class="cls-1" x1="49.44" y1="216.3" x2="49.47" y2="217.57"/><path class="cls-1" d="M49.47,217.57a.45.45,0,0,0-.1-.13.26.26,0,0,0-.16-.07.21.21,0,0,0-.14.07.29.29,0,0,0-.08.14.53.53,0,0,0,0,.33.45.45,0,0,0,.1.13.29.29,0,0,0,.14.08"/><path class="cls-1" d="M49.42,216.3h0"/><path class="cls-1" d="M49.21,216.06a.29.29,0,0,0,.07.16.18.18,0,0,0,.14.08"/><path class="cls-1" d="M49.14,212c0,1.37,0,2.74.07,4.1"/><path class="cls-1" d="M49.34,211.78a.13.13,0,0,0-.14,0,.18.18,0,0,0-.06.14"/><line class="cls-1" x1="40.11" y1="221.88" x2="40.11" y2="221.88"/><line class="cls-1" x1="40.12" y1="221.88" x2="40.11" y2="221.88"/><line class="cls-1" x1="40.13" y1="221.89" x2="40.12" y2="221.88"/><line class="cls-1" x1="40.14" y1="221.89" x2="40.13" y2="221.89"/><line class="cls-1" x1="40.15" y1="221.9" x2="40.14" y2="221.89"/><line class="cls-1" x1="40.17" y1="221.9" x2="40.15" y2="221.9"/><line class="cls-1" x1="40.18" y1="221.91" x2="40.17" y2="221.9"/><line class="cls-1" x1="40.19" y1="221.92" x2="40.18" y2="221.91"/><line class="cls-1" x1="40.2" y1="221.92" x2="40.19" y2="221.92"/><line class="cls-1" x1="40.22" y1="221.93" x2="40.2" y2="221.92"/><line class="cls-1" x1="40.23" y1="221.94" x2="40.22" y2="221.93"/><line class="cls-1" x1="40.24" y1="221.95" x2="40.23" y2="221.94"/><line class="cls-1" x1="40.25" y1="221.96" x2="40.24" y2="221.95"/><line class="cls-1" x1="40.26" y1="221.97" x2="40.25" y2="221.96"/><line class="cls-1" x1="40.28" y1="221.98" x2="40.26" y2="221.97"/><line class="cls-1" x1="40.29" y1="221.99" x2="40.28" y2="221.98"/><line class="cls-1" x1="40.3" y1="222" x2="40.29" y2="221.99"/><line class="cls-1" x1="40.31" y1="222.02" x2="40.3" y2="222"/><line class="cls-1" x1="40.32" y1="222.03" x2="40.31" y2="222.02"/><line class="cls-1" x1="40.34" y1="222.04" x2="40.32" y2="222.03"/><line class="cls-1" x1="40.35" y1="222.06" x2="40.34" y2="222.04"/><line class="cls-1" x1="40.36" y1="222.07" x2="40.35" y2="222.06"/><line class="cls-1" x1="40.37" y1="222.08" x2="40.36" y2="222.07"/><line class="cls-1" x1="40.38" y1="222.1" x2="40.37" y2="222.08"/><line class="cls-1" x1="40.39" y1="222.12" x2="40.38" y2="222.1"/><line class="cls-1" x1="40.4" y1="222.13" x2="40.39" y2="222.12"/><line class="cls-1" x1="40.41" y1="222.15" x2="40.4" y2="222.13"/><line class="cls-1" x1="40.42" y1="222.16" x2="40.41" y2="222.15"/><line class="cls-1" x1="40.43" y1="222.18" x2="40.42" y2="222.16"/><line class="cls-1" x1="40.44" y1="222.2" x2="40.43" y2="222.18"/><line class="cls-1" x1="40.45" y1="222.22" x2="40.44" y2="222.2"/><line class="cls-1" x1="40.46" y1="222.24" x2="40.45" y2="222.22"/><line class="cls-1" x1="40.47" y1="222.26" x2="40.46" y2="222.24"/><line class="cls-1" x1="40.48" y1="222.27" x2="40.47" y2="222.26"/><line class="cls-1" x1="40.49" y1="222.29" x2="40.48" y2="222.27"/><line class="cls-1" x1="40.5" y1="222.31" x2="40.49" y2="222.29"/><line class="cls-1" x1="40.5" y1="222.33" x2="40.5" y2="222.31"/><line class="cls-1" x1="40.51" y1="222.35" x2="40.5" y2="222.33"/><line class="cls-1" x1="40.52" y1="222.37" x2="40.51" y2="222.35"/><line class="cls-1" x1="40.53" y1="222.39" x2="40.52" y2="222.37"/><line class="cls-1" x1="40.53" y1="222.41" x2="40.53" y2="222.39"/><line class="cls-1" x1="40.54" y1="222.44" x2="40.53" y2="222.41"/><line class="cls-1" x1="40.54" y1="222.46" x2="40.54" y2="222.44"/><line class="cls-1" x1="40.55" y1="222.48" x2="40.54" y2="222.46"/><line class="cls-1" x1="40.56" y1="222.5" x2="40.55" y2="222.48"/><line class="cls-1" x1="40.56" y1="222.52" x2="40.56" y2="222.5"/><line class="cls-1" x1="40.56" y1="222.54" x2="40.56" y2="222.52"/><line class="cls-1" x1="40.57" y1="222.56" x2="40.56" y2="222.54"/><line class="cls-1" x1="40.57" y1="222.58" x2="40.57" y2="222.56"/><line class="cls-1" x1="40.58" y1="222.6" x2="40.57" y2="222.58"/><line class="cls-1" x1="40.58" y1="222.62" x2="40.58" y2="222.6"/><line class="cls-1" x1="40.58" y1="222.64" x2="40.58" y2="222.62"/><line class="cls-1" x1="40.59" y1="222.67" x2="40.58" y2="222.64"/><line class="cls-1" x1="40.59" y1="222.69" x2="40.59" y2="222.67"/><line class="cls-1" x1="40.59" y1="222.71" x2="40.59" y2="222.69"/><line class="cls-1" x1="40.59" y1="222.73" x2="40.59" y2="222.71"/><line class="cls-1" x1="40.6" y1="222.75" x2="40.59" y2="222.73"/><line class="cls-1" x1="40.6" y1="222.77" x2="40.6" y2="222.75"/><line class="cls-1" x1="40.6" y1="222.79" x2="40.6" y2="222.77"/><line class="cls-1" x1="40.6" y1="222.81" x2="40.6" y2="222.79"/><polyline class="cls-1" points="40.87 234.17 40.87 234.15 40.6 222.83 40.6 222.81"/><line class="cls-1" x1="40.87" y1="234.19" x2="40.87" y2="234.17"/><line class="cls-1" x1="40.87" y1="234.21" x2="40.87" y2="234.19"/><line class="cls-1" x1="40.87" y1="234.23" x2="40.87" y2="234.21"/><line class="cls-1" x1="40.87" y1="234.25" x2="40.87" y2="234.23"/><line class="cls-1" x1="40.87" y1="234.27" x2="40.87" y2="234.25"/><line class="cls-1" x1="40.87" y1="234.29" x2="40.87" y2="234.27"/><line class="cls-1" x1="40.87" y1="234.31" x2="40.87" y2="234.29"/><line class="cls-1" x1="40.87" y1="234.33" x2="40.87" y2="234.31"/><line class="cls-1" x1="40.86" y1="234.35" x2="40.87" y2="234.33"/><line class="cls-1" x1="40.86" y1="234.36" x2="40.86" y2="234.35"/><line class="cls-1" x1="40.86" y1="234.38" x2="40.86" y2="234.36"/><line class="cls-1" x1="40.85" y1="234.4" x2="40.86" y2="234.38"/><line class="cls-1" x1="40.85" y1="234.42" x2="40.85" y2="234.4"/><line class="cls-1" x1="40.85" y1="234.44" x2="40.85" y2="234.42"/><line class="cls-1" x1="40.84" y1="234.46" x2="40.85" y2="234.44"/><line class="cls-1" x1="40.84" y1="234.48" x2="40.84" y2="234.46"/><line class="cls-1" x1="40.83" y1="234.5" x2="40.84" y2="234.48"/><line class="cls-1" x1="40.83" y1="234.52" x2="40.83" y2="234.5"/><line class="cls-1" x1="40.82" y1="234.54" x2="40.83" y2="234.52"/><line class="cls-1" x1="40.82" y1="234.55" x2="40.82" y2="234.54"/><line class="cls-1" x1="40.81" y1="234.57" x2="40.82" y2="234.55"/><line class="cls-1" x1="40.81" y1="234.59" x2="40.81" y2="234.57"/><line class="cls-1" x1="40.8" y1="234.61" x2="40.81" y2="234.59"/><line class="cls-1" x1="40.79" y1="234.62" x2="40.8" y2="234.61"/><line class="cls-1" x1="40.79" y1="234.64" x2="40.79" y2="234.62"/><line class="cls-1" x1="40.78" y1="234.66" x2="40.79" y2="234.64"/><line class="cls-1" x1="40.77" y1="234.67" x2="40.78" y2="234.66"/><line class="cls-1" x1="40.76" y1="234.69" x2="40.77" y2="234.67"/><line class="cls-1" x1="40.75" y1="234.7" x2="40.76" y2="234.69"/><line class="cls-1" x1="40.75" y1="234.72" x2="40.75" y2="234.7"/><line class="cls-1" x1="40.74" y1="234.73" x2="40.75" y2="234.72"/><line class="cls-1" x1="40.73" y1="234.75" x2="40.74" y2="234.73"/><line class="cls-1" x1="40.72" y1="234.76" x2="40.73" y2="234.75"/><line class="cls-1" x1="40.71" y1="234.77" x2="40.72" y2="234.76"/><line class="cls-1" x1="40.7" y1="234.78" x2="40.71" y2="234.77"/><line class="cls-1" x1="40.69" y1="234.8" x2="40.7" y2="234.78"/><line class="cls-1" x1="40.68" y1="234.81" x2="40.69" y2="234.8"/><line class="cls-1" x1="40.67" y1="234.82" x2="40.68" y2="234.81"/><line class="cls-1" x1="40.66" y1="234.83" x2="40.67" y2="234.82"/><line class="cls-1" x1="40.65" y1="234.84" x2="40.66" y2="234.83"/><line class="cls-1" x1="40.63" y1="234.85" x2="40.65" y2="234.84"/><line class="cls-1" x1="40.62" y1="234.86" x2="40.63" y2="234.85"/><line class="cls-1" x1="40.61" y1="234.86" x2="40.62" y2="234.86"/><line class="cls-1" x1="40.6" y1="234.87" x2="40.61" y2="234.86"/><line class="cls-1" x1="40.59" y1="234.88" x2="40.6" y2="234.87"/><line class="cls-1" x1="40.58" y1="234.89" x2="40.59" y2="234.88"/><line class="cls-1" x1="40.57" y1="234.89" x2="40.58" y2="234.89"/><line class="cls-1" x1="40.55" y1="234.9" x2="40.57" y2="234.89"/><line class="cls-1" x1="40.54" y1="234.9" x2="40.55" y2="234.9"/><line class="cls-1" x1="40.53" y1="234.91" x2="40.54" y2="234.9"/><line class="cls-1" x1="40.52" y1="234.91" x2="40.53" y2="234.91"/><line class="cls-1" x1="40.51" y1="234.91" x2="40.52" y2="234.91"/><line class="cls-1" x1="40.5" y1="234.91" x2="40.51" y2="234.91"/><line class="cls-1" x1="40.48" y1="234.92" x2="40.5" y2="234.91"/><line class="cls-1" x1="40.47" y1="234.92" x2="40.48" y2="234.92"/><line class="cls-1" x1="40.46" y1="234.92" x2="40.47" y2="234.92"/><line class="cls-1" x1="40.45" y1="234.92" x2="40.46" y2="234.92"/><line class="cls-1" x1="39.71" y1="206.15" x2="39.7" y2="206.15"/><line class="cls-1" x1="39.72" y1="206.15" x2="39.71" y2="206.15"/><line class="cls-1" x1="39.74" y1="206.15" x2="39.72" y2="206.15"/><line class="cls-1" x1="39.75" y1="206.16" x2="39.74" y2="206.15"/><line class="cls-1" x1="39.76" y1="206.16" x2="39.75" y2="206.16"/><line class="cls-1" x1="39.77" y1="206.17" x2="39.76" y2="206.16"/><line class="cls-1" x1="39.78" y1="206.17" x2="39.77" y2="206.17"/><line class="cls-1" x1="39.8" y1="206.18" x2="39.78" y2="206.17"/><line class="cls-1" x1="39.81" y1="206.19" x2="39.8" y2="206.18"/><line class="cls-1" x1="39.82" y1="206.19" x2="39.81" y2="206.19"/><line class="cls-1" x1="39.83" y1="206.2" x2="39.82" y2="206.19"/><line class="cls-1" x1="39.85" y1="206.21" x2="39.83" y2="206.2"/><line class="cls-1" x1="39.86" y1="206.22" x2="39.85" y2="206.21"/><line class="cls-1" x1="39.87" y1="206.23" x2="39.86" y2="206.22"/><line class="cls-1" x1="39.88" y1="206.24" x2="39.87" y2="206.23"/><line class="cls-1" x1="39.89" y1="206.25" x2="39.88" y2="206.24"/><line class="cls-1" x1="39.91" y1="206.26" x2="39.89" y2="206.25"/><line class="cls-1" x1="39.92" y1="206.27" x2="39.91" y2="206.26"/><line class="cls-1" x1="39.93" y1="206.28" x2="39.92" y2="206.27"/><line class="cls-1" x1="39.94" y1="206.29" x2="39.93" y2="206.28"/><line class="cls-1" x1="39.95" y1="206.31" x2="39.94" y2="206.29"/><line class="cls-1" x1="39.97" y1="206.32" x2="39.95" y2="206.31"/><line class="cls-1" x1="39.98" y1="206.33" x2="39.97" y2="206.32"/><line class="cls-1" x1="39.99" y1="206.35" x2="39.98" y2="206.33"/><line class="cls-1" x1="40" y1="206.36" x2="39.99" y2="206.35"/><line class="cls-1" x1="40.01" y1="206.38" x2="40" y2="206.36"/><line class="cls-1" x1="40.02" y1="206.39" x2="40.01" y2="206.38"/><line class="cls-1" x1="40.03" y1="206.41" x2="40.02" y2="206.39"/><line class="cls-1" x1="40.04" y1="206.43" x2="40.03" y2="206.41"/><line class="cls-1" x1="40.05" y1="206.45" x2="40.04" y2="206.43"/><line class="cls-1" x1="40.06" y1="206.46" x2="40.05" y2="206.45"/><line class="cls-1" x1="40.07" y1="206.48" x2="40.06" y2="206.46"/><line class="cls-1" x1="40.08" y1="206.5" x2="40.07" y2="206.48"/><line class="cls-1" x1="40.09" y1="206.52" x2="40.08" y2="206.5"/><line class="cls-1" x1="40.1" y1="206.54" x2="40.09" y2="206.52"/><line class="cls-1" x1="40.11" y1="206.56" x2="40.1" y2="206.54"/><line class="cls-1" x1="40.12" y1="206.58" x2="40.11" y2="206.56"/><line class="cls-1" x1="40.12" y1="206.6" x2="40.12" y2="206.58"/><line class="cls-1" x1="40.13" y1="206.62" x2="40.12" y2="206.6"/><line class="cls-1" x1="40.14" y1="206.64" x2="40.13" y2="206.62"/><line class="cls-1" x1="40.15" y1="206.66" x2="40.14" y2="206.64"/><line class="cls-1" x1="40.15" y1="206.68" x2="40.15" y2="206.66"/><line class="cls-1" x1="40.16" y1="206.7" x2="40.15" y2="206.68"/><line class="cls-1" x1="40.16" y1="206.72" x2="40.16" y2="206.7"/><line class="cls-1" x1="40.17" y1="206.74" x2="40.16" y2="206.72"/><line class="cls-1" x1="40.18" y1="206.76" x2="40.17" y2="206.74"/><line class="cls-1" x1="40.18" y1="206.78" x2="40.18" y2="206.76"/><line class="cls-1" x1="40.19" y1="206.8" x2="40.18" y2="206.78"/><line class="cls-1" x1="40.19" y1="206.83" x2="40.19" y2="206.8"/><line class="cls-1" x1="40.19" y1="206.85" x2="40.19" y2="206.83"/><line class="cls-1" x1="40.2" y1="206.87" x2="40.19" y2="206.85"/><line class="cls-1" x1="40.2" y1="206.89" x2="40.2" y2="206.87"/><line class="cls-1" x1="40.2" y1="206.91" x2="40.2" y2="206.89"/><line class="cls-1" x1="40.21" y1="206.93" x2="40.2" y2="206.91"/><line class="cls-1" x1="40.21" y1="206.95" x2="40.21" y2="206.93"/><line class="cls-1" x1="40.21" y1="206.97" x2="40.21" y2="206.95"/><line class="cls-1" x1="40.21" y1="206.99" x2="40.21" y2="206.97"/><line class="cls-1" x1="40.22" y1="207.01" x2="40.21" y2="206.99"/><line class="cls-1" x1="40.22" y1="207.04" x2="40.22" y2="207.01"/><line class="cls-1" x1="40.22" y1="207.06" x2="40.22" y2="207.04"/><line class="cls-1" x1="40.22" y1="207.08" x2="40.22" y2="207.06"/><polyline class="cls-1" points="40.5 218.67 40.5 218.65 40.22 207.1 40.22 207.08"/><line class="cls-1" x1="40.5" y1="218.69" x2="40.5" y2="218.67"/><line class="cls-1" x1="40.5" y1="218.71" x2="40.5" y2="218.69"/><line class="cls-1" x1="40.5" y1="218.73" x2="40.5" y2="218.71"/><line class="cls-1" x1="40.5" y1="218.75" x2="40.5" y2="218.73"/><line class="cls-1" x1="40.5" y1="218.77" x2="40.5" y2="218.75"/><line class="cls-1" x1="40.5" y1="218.79" x2="40.5" y2="218.77"/><line class="cls-1" x1="40.49" y1="218.81" x2="40.5" y2="218.79"/><line class="cls-1" x1="40.49" y1="218.83" x2="40.49" y2="218.81"/><line class="cls-1" x1="40.49" y1="218.85" x2="40.49" y2="218.83"/><line class="cls-1" x1="40.49" y1="218.87" x2="40.49" y2="218.85"/><line class="cls-1" x1="40.48" y1="218.89" x2="40.49" y2="218.87"/><line class="cls-1" x1="40.48" y1="218.91" x2="40.48" y2="218.89"/><line class="cls-1" x1="40.48" y1="218.93" x2="40.48" y2="218.91"/><line class="cls-1" x1="40.47" y1="218.95" x2="40.48" y2="218.93"/><line class="cls-1" x1="40.47" y1="218.97" x2="40.47" y2="218.95"/><line class="cls-1" x1="40.47" y1="218.99" x2="40.47" y2="218.97"/><line class="cls-1" x1="40.46" y1="219.01" x2="40.47" y2="218.99"/><line class="cls-1" x1="40.46" y1="219.03" x2="40.46" y2="219.01"/><line class="cls-1" x1="40.45" y1="219.04" x2="40.46" y2="219.03"/><line class="cls-1" x1="40.44" y1="219.06" x2="40.45" y2="219.04"/><line class="cls-1" x1="40.44" y1="219.08" x2="40.44" y2="219.06"/><line class="cls-1" x1="40.43" y1="219.1" x2="40.44" y2="219.08"/><line class="cls-1" x1="40.43" y1="219.12" x2="40.43" y2="219.1"/><line class="cls-1" x1="40.42" y1="219.14" x2="40.43" y2="219.12"/><line class="cls-1" x1="40.41" y1="219.15" x2="40.42" y2="219.14"/><line class="cls-1" x1="40.4" y1="219.17" x2="40.41" y2="219.15"/><line class="cls-1" x1="40.4" y1="219.19" x2="40.4" y2="219.17"/><line class="cls-1" x1="40.39" y1="219.2" x2="40.4" y2="219.19"/><line class="cls-1" x1="40.38" y1="219.22" x2="40.39" y2="219.2"/><line class="cls-1" x1="40.37" y1="219.23" x2="40.38" y2="219.22"/><line class="cls-1" x1="40.36" y1="219.25" x2="40.37" y2="219.23"/><line class="cls-1" x1="40.35" y1="219.26" x2="40.36" y2="219.25"/><line class="cls-1" x1="40.34" y1="219.28" x2="40.35" y2="219.26"/><line class="cls-1" x1="40.33" y1="219.29" x2="40.34" y2="219.28"/><line class="cls-1" x1="40.32" y1="219.3" x2="40.33" y2="219.29"/><line class="cls-1" x1="40.31" y1="219.32" x2="40.32" y2="219.3"/><line class="cls-1" x1="40.3" y1="219.33" x2="40.31" y2="219.32"/><line class="cls-1" x1="40.29" y1="219.34" x2="40.3" y2="219.33"/><line class="cls-1" x1="40.28" y1="219.35" x2="40.29" y2="219.34"/><line class="cls-1" x1="40.27" y1="219.36" x2="40.28" y2="219.35"/><line class="cls-1" x1="40.26" y1="219.37" x2="40.27" y2="219.36"/><line class="cls-1" x1="40.25" y1="219.38" x2="40.26" y2="219.37"/><line class="cls-1" x1="40.24" y1="219.39" x2="40.25" y2="219.38"/><line class="cls-1" x1="40.23" y1="219.4" x2="40.24" y2="219.39"/><line class="cls-1" x1="40.21" y1="219.4" x2="40.23" y2="219.4"/><line class="cls-1" x1="40.2" y1="219.41" x2="40.21" y2="219.4"/><line class="cls-1" x1="40.19" y1="219.42" x2="40.2" y2="219.41"/><line class="cls-1" x1="40.18" y1="219.42" x2="40.19" y2="219.42"/><line class="cls-1" x1="40.17" y1="219.43" x2="40.18" y2="219.42"/><line class="cls-1" x1="40.16" y1="219.43" x2="40.17" y2="219.43"/><line class="cls-1" x1="40.14" y1="219.44" x2="40.16" y2="219.43"/><line class="cls-1" x1="40.13" y1="219.44" x2="40.14" y2="219.44"/><line class="cls-1" x1="40.12" y1="219.45" x2="40.13" y2="219.44"/><line class="cls-1" x1="40.11" y1="219.45" x2="40.12" y2="219.45"/><line class="cls-1" x1="40.1" y1="219.45" x2="40.11" y2="219.45"/><line class="cls-1" x1="40.08" y1="219.45" x2="40.1" y2="219.45"/><line class="cls-1" x1="40.07" y1="219.45" x2="40.08" y2="219.45"/><line class="cls-1" x1="40.06" y1="219.46" x2="40.07" y2="219.45"/><line class="cls-1" x1="40.05" y1="219.46" x2="40.06" y2="219.46"/><line class="cls-1" x1="39.6" y1="202.16" x2="39.7" y2="206.15"/><line class="cls-1" x1="40.04" y1="219.46" x2="40.11" y2="221.88"/><line class="cls-1" x1="40.44" y1="234.92" x2="40.54" y2="238.64"/><path class="cls-1" d="M39.6,202.16a.44.44,0,0,0,.38-.24.8.8,0,0,0,.1-.45"/><line class="cls-1" x1="40.44" y1="234.92" x2="40.45" y2="234.92"/><line class="cls-1" x1="40.04" y1="219.46" x2="40.05" y2="219.46"/><path class="cls-1" d="M40.08,201.47l4,.38,2,.19,1,.09.5.05a.85.85,0,0,1,.23,0l.24.08a1.83,1.83,0,0,1,.36.26,2,2,0,0,1,.31.39,2.43,2.43,0,0,1,.33,1,1.94,1.94,0,0,1,0,.24.49.49,0,0,1,0,.12v.62l0,1c0,1.32,0,2.64.07,4"/><path class="cls-1" d="M49.25,218.12q.15,7.71.29,15.43c0,1.28.05,2.57.07,3.85,0,.43,0,.86,0,1.29a2,2,0,0,1,0,.48,1.9,1.9,0,0,1-.15.46,1.5,1.5,0,0,1-.26.36,1.08,1.08,0,0,1-.34.21.92.92,0,0,1-.37.05l-.18,0-.19,0-7.56-1.55"/></svg>