<svg id="Capa_1" data-name="Capa 1" xmlns="http://www.w3.org/2000/svg" viewBox="0 0 198.43 283.46"><defs><style>.cls-1{fill:none;stroke:#fff;stroke-linecap:round;stroke-linejoin:round;stroke-dasharray:0.2 0.2;}</style></defs><path class="cls-1" d="M193.84,205.25c0,.1,0,.21,0,.32"/><path class="cls-1" d="M193.84,205.25a.59.59,0,0,0-.39-.55"/><path class="cls-1" d="M51.53,151.38a.61.61,0,0,1,.4,0"/><line class="cls-1" x1="51.53" y1="151.38" x2="6.6" y2="163.93"/><path class="cls-1" d="M38.7,208.52a2.74,2.74,0,0,0,.24,1.2,2.24,2.24,0,0,0,.33.53,1.62,1.62,0,0,0,.41.37,1.21,1.21,0,0,0,.52.19,1,1,0,0,0,.53-.06,1.17,1.17,0,0,0,.5-.35,1.93,1.93,0,0,0,.34-.59,2.66,2.66,0,0,0,.12-.56.76.76,0,0,0,0-.15.61.61,0,0,0,0-.14v-.31c0-.41,0-.82,0-1.23l0-1.21,0-.6v-.3c0-.1,0-.2,0-.3a2.75,2.75,0,0,0-.26-1.23,2.33,2.33,0,0,0-.31-.5,1.81,1.81,0,0,0-.41-.37,1.35,1.35,0,0,0-.55-.2,1,1,0,0,0-.55.08,1.35,1.35,0,0,0-.47.35,1.83,1.83,0,0,0-.32.58,2.75,2.75,0,0,0-.12.57c0,.11,0,.19,0,.3v.3l0,1.22Z"/><path class="cls-1" d="M129.67,245.31l4.09.31"/><path class="cls-1" d="M50.25,199l.06-3.31c0-.27,0-.55,0-.82v-.33a.34.34,0,0,1,0-.1.89.89,0,0,1,.09-.39.6.6,0,0,1,.29-.32.48.48,0,0,1,.37,0,.69.69,0,0,1,.3.2,1.06,1.06,0,0,1,.24.39"/><path class="cls-1" d="M21.59,195.72l-.68,20.79c-.11,3.46-.22,6.93-.34,10.39-.05,1.73-.11,3.46-.17,5.2l-.08,2.5c0,.21,0,.42,0,.63v.24s0,.06,0,.09a.59.59,0,0,0,.17.31l.06,0h0l0,0,.12.09a.75.75,0,0,1,.21.26,1.4,1.4,0,0,1,.18.72"/><path class="cls-1" d="M21.64,194.13a.7.7,0,0,1,.44.33,1,1,0,0,1,.16.53.85.85,0,0,1-.15.54.5.5,0,0,1-.5.19"/><path class="cls-1" d="M32.23,196.34l0-1.33v-.33c0-.11,0-.21,0-.32s0-.42,0-.63a7.29,7.29,0,0,0-.7-2.5,6.49,6.49,0,0,0-.73-1.14,5.7,5.7,0,0,0-.89-.88,4.07,4.07,0,0,0-1.18-.63l-.29-.08-.15,0-.16,0-.63-.15-1.31-.3-.17,0-.15,0-.31,0a2.66,2.66,0,0,0-.63,0,3,3,0,0,0-1.18.38,3.45,3.45,0,0,0-1,.88,5.14,5.14,0,0,0-1,2.39c0,.2-.05.41-.06.61s0,.21,0,.32,0,.22,0,.34c0,.44,0,.89,0,1.34"/><path class="cls-1" d="M32.18,197.89a.73.73,0,0,1-.42-.33,1.12,1.12,0,0,1-.15-.51.91.91,0,0,1,.14-.51.47.47,0,0,1,.48-.2"/><path class="cls-1" d="M5.83,165.22q-1.22,30.51-2.45,61-.33,8.29-.67,16.6l0,.52c0,.09,0,.18,0,.26a2.17,2.17,0,0,0,0,.26,3.44,3.44,0,0,0,.22,1,4.71,4.71,0,0,0,.22.45,2.14,2.14,0,0,0,.28.39,2.32,2.32,0,0,0,.71.57,1.8,1.8,0,0,0,.82.23h.42l.42,0,1.68.08,6.55.29,30.5,1.37,61,2.73L136,252.4l14.45.64,6.5.3,1.55.06.77,0,.39,0h.19a.37.37,0,0,0,.18-.05.73.73,0,0,0,.17-.18.91.91,0,0,0,.13-.26,1.54,1.54,0,0,0,.1-.35,2.87,2.87,0,0,0,.05-.41c0-.16,0-.26,0-.42v-.43l0-.86-.1-3.42"/><path class="cls-1" d="M5.83,165.22a1.84,1.84,0,0,1,.21-.76,1.36,1.36,0,0,1,.23-.32.81.81,0,0,1,.33-.21"/><path class="cls-1" d="M190.16,203.53a1.07,1.07,0,0,1,.35.06"/><path class="cls-1" d="M182.56,200.67a1.09,1.09,0,0,1,.36.06"/><path class="cls-1" d="M174.17,197.52a1.21,1.21,0,0,1,.38.06"/><path class="cls-1" d="M164.87,194a1.09,1.09,0,0,1,.4.07"/><path class="cls-1" d="M154.5,190.12a1.2,1.2,0,0,1,.42.07"/><path class="cls-1" d="M142.86,185.74a1.37,1.37,0,0,1,.45.07"/><path class="cls-1" d="M129.71,180.79a1.29,1.29,0,0,1,.47.08"/><path class="cls-1" d="M114.72,175.15a1.42,1.42,0,0,1,.5.08"/><path class="cls-1" d="M97.49,168.67a1.64,1.64,0,0,1,.54.08"/><path class="cls-1" d="M77.48,161.14a1.58,1.58,0,0,1,.57.09"/><path class="cls-1" d="M190.16,203.53a2.22,2.22,0,0,1-.45,0"/><path class="cls-1" d="M189.71,203.5l-3.83-1.44"/><path class="cls-1" d="M182.56,200.67h-.24a.93.93,0,0,1-.24,0"/><path class="cls-1" d="M182.08,200.63,177.79,199"/><path class="cls-1" d="M174.17,197.52h-.26a.77.77,0,0,1-.25,0"/><path class="cls-1" d="M173.66,197.47l-4.83-1.81"/><path class="cls-1" d="M164.87,194h-.27a.8.8,0,0,1-.27,0"/><path class="cls-1" d="M164.33,194l-5.48-2.06"/><path class="cls-1" d="M154.5,190.12h-.29a1.35,1.35,0,0,1-.29-.05"/><path class="cls-1" d="M153.92,190.06l-6.24-2.34"/><path class="cls-1" d="M142.86,185.74h-.31a1.77,1.77,0,0,1-.32,0"/><path class="cls-1" d="M142.23,185.68,135.07,183"/><path class="cls-1" d="M129.71,180.79h-.34a1.28,1.28,0,0,1-.34-.06"/><path class="cls-1" d="M129,180.72l-8.28-3.11"/><path class="cls-1" d="M114.72,175.15h-.37a1.61,1.61,0,0,1-.37-.07"/><path class="cls-1" d="M114,175.07l-9.66-3.62"/><path class="cls-1" d="M97.49,168.67h-.41a1.89,1.89,0,0,1-.4-.08"/><path class="cls-1" d="M96.68,168.58,85.3,164.31"/><path class="cls-1" d="M77.48,161.14a3.62,3.62,0,0,1-.46,0,1.64,1.64,0,0,1-.44-.09"/><path class="cls-1" d="M76.58,161,63,155.94"/><path class="cls-1" d="M40.6,173.77a4.17,4.17,0,0,1,.5,0,2,2,0,0,1,.49.08"/><path class="cls-1" d="M41.59,173.85l10.37,3"/><path class="cls-1" d="M17.44,167.07H18a3.2,3.2,0,0,1,.54.09"/><path class="cls-1" d="M33.24,171.42a.88.88,0,0,1,.2.09.12.12,0,0,1,0,.19"/><path class="cls-1" d="M18.52,167.16l14.72,4.26"/><path class="cls-1" d="M40.45,175.35A.84.84,0,0,1,40,175"/><path class="cls-1" d="M17.36,168.79a.92.92,0,0,1-.5-.43"/><path class="cls-1" d="M32.09,173l-14.73-4.18"/><path class="cls-1" d="M32.55,172.83a.44.44,0,0,1-.46.14"/><path class="cls-1" d="M40.6,173.77a.78.78,0,0,0-.39.1.63.63,0,0,0-.28.3.69.69,0,0,0,0,.4A1.09,1.09,0,0,0,40,175"/><path class="cls-1" d="M17.44,167.07a.92.92,0,0,0-.43.11.72.72,0,0,0-.29.33.94.94,0,0,0,0,.44,1.15,1.15,0,0,0,.17.41"/><path class="cls-1" d="M32.55,172.83a4.89,4.89,0,0,0,.46-.56,3.15,3.15,0,0,0,.22-.29,1.71,1.71,0,0,1,.11-.14l.06-.08.06-.06"/><path class="cls-1" d="M190.51,203.59l2.94,1.11"/><path class="cls-1" d="M190.51,203.59a.6.6,0,0,1,.27.2.39.39,0,0,1,.06.33"/><path class="cls-1" d="M51.93,151.39l10.43,3.93"/><path class="cls-1" d="M51.93,151.39a.73.73,0,0,1,.39.4,1.19,1.19,0,0,1,.1.56"/><path class="cls-1" d="M78.05,161.23l6.61,2.49"/><path class="cls-1" d="M78.05,161.23a.65.65,0,0,1,.38.33.53.53,0,0,1-.07.49"/><path class="cls-1" d="M98,168.75l5.67,2.14"/><path class="cls-1" d="M98,168.75a.68.68,0,0,1,.36.31.52.52,0,0,1,0,.47"/><path class="cls-1" d="M115.22,175.23l4.92,1.85"/><path class="cls-1" d="M115.22,175.23a.73.73,0,0,1,.36.29.54.54,0,0,1,0,.45"/><path class="cls-1" d="M130.18,180.87l4.3,1.62"/><path class="cls-1" d="M130.18,180.87a.6.6,0,0,1,.34.27.45.45,0,0,1,0,.42"/><path class="cls-1" d="M143.31,185.81l3.79,1.43"/><path class="cls-1" d="M143.31,185.81a.64.64,0,0,1,.33.26.49.49,0,0,1,0,.41"/><path class="cls-1" d="M154.92,190.19l3.38,1.27"/><path class="cls-1" d="M154.92,190.19a.55.55,0,0,1,.32.24.45.45,0,0,1,0,.39"/><path class="cls-1" d="M174.55,197.58l2.72,1"/><path class="cls-1" d="M174.55,197.58a.55.55,0,0,1,.3.22.46.46,0,0,1,.05.36"/><path class="cls-1" d="M182.92,200.73l2.46.93"/><path class="cls-1" d="M182.92,200.73a.61.61,0,0,1,.29.21.43.43,0,0,1,0,.35"/><path class="cls-1" d="M165.27,194.08l3,1.14"/><path class="cls-1" d="M165.27,194.09a.55.55,0,0,1,.31.23.43.43,0,0,1,0,.37"/><path class="cls-1" d="M75.07,239.31l-8-.66"/><path class="cls-1" d="M108.21,242.07l-6.11-.51"/><path class="cls-1" d="M134.1,244.22l-4.83-.4"/><path class="cls-1" d="M154.88,246l-3.91-.33"/><path class="cls-1" d="M160.33,246.4l-5.45-.45"/><path class="cls-1" d="M51.47,202.74a1,1,0,0,1-.63.06,1.23,1.23,0,0,1-.57-.31,2.25,2.25,0,0,1-.65-1.1,1.65,1.65,0,0,1-.07-.32,3.11,3.11,0,0,1,0-.32,2.89,2.89,0,0,1,.05-.65,1.94,1.94,0,0,1,.24-.6,1.24,1.24,0,0,1,.45-.46"/><path class="cls-1" d="M67.1,238.65v.53a.57.57,0,0,0,0,.13.31.31,0,0,0,0,.13.47.47,0,0,0,.07.12.24.24,0,0,0,.08.09h0l0,0,0,0a.52.52,0,0,1,.1.11,1.71,1.71,0,0,1,.13.23,1.5,1.5,0,0,1,.09.52"/><line class="cls-1" x1="67.71" y1="240.58" x2="74.45" y2="241.09"/><path class="cls-1" d="M74.45,241.09h1.81l1.8-.09,3.6-.18,7.21-.35"/><line class="cls-1" x1="108.29" y1="220.79" x2="108.44" y2="242"/><line class="cls-1" x1="108.44" y1="242" x2="108.57" y2="241.99"/><line class="cls-1" x1="108.29" y1="220.79" x2="108.43" y2="220.78"/><line class="cls-1" x1="125.34" y1="243.41" x2="125.47" y2="243.4"/><line class="cls-1" x1="125.19" y1="223.68" x2="108.43" y2="220.78"/><line class="cls-1" x1="184.21" y1="248.33" x2="184.32" y2="248.33"/><line class="cls-1" x1="183.63" y1="233.83" x2="183.73" y2="233.83"/><line class="cls-1" x1="192.2" y1="249" x2="192.3" y2="248.99"/><line class="cls-1" x1="192.3" y1="248.99" x2="191.7" y2="235.21"/><line class="cls-1" x1="191.7" y1="235.21" x2="183.73" y2="233.83"/><line class="cls-1" x1="151.31" y1="246.96" x2="154.62" y2="247.22"/><path class="cls-1" d="M154.62,247.22h1.44l1.43,0,2.86-.09"/><line class="cls-1" x1="102.59" y1="243.24" x2="107.76" y2="243.64"/><path class="cls-1" d="M107.76,243.64h1.68l1.69-.06,3.37-.14,6.74-.27"/><path class="cls-1" d="M183.32,201.07a.76.76,0,0,1,0,.21.34.34,0,0,1-.11.18"/><line class="cls-1" x1="183.32" y1="201.07" x2="183.42" y2="201.06"/><line class="cls-1" x1="176.33" y1="248.02" x2="176.44" y2="248.02"/><path class="cls-1" d="M176.33,248l17.7,1.44"/><path class="cls-1" d="M176.44,248l17.69,1.44"/><path class="cls-1" d="M194,249.46h.07"/><path class="cls-1" d="M195.73,244.55,194,206.13"/><path class="cls-1" d="M194,206.13a1.52,1.52,0,0,0-.12-.56"/><path class="cls-1" d="M193.71,205.39l-.24-.09"/><path class="cls-1" d="M193.47,205.3c-.05,0-.09-.07-.11-.11a.61.61,0,0,1-.07-.14,1.73,1.73,0,0,1-.07-.31"/><line class="cls-1" x1="190.89" y1="203.92" x2="190.99" y2="203.9"/><path class="cls-1" d="M186.15,202.57c-.09,0-.15-.15-.18-.23a1.15,1.15,0,0,1-.09-.28"/><path class="cls-1" d="M185.87,202l-.19-.07"/><line class="cls-1" x1="183.23" y1="201.47" x2="183.17" y2="201.48"/><line class="cls-1" x1="194.2" y1="249.46" x2="194.1" y2="249.47"/><path class="cls-1" d="M194.2,249.46a.82.82,0,0,0,.3-.07,1.09,1.09,0,0,0,.29-.23,1.5,1.5,0,0,0,.19-.25,2.11,2.11,0,0,0,.18-.33,5.43,5.43,0,0,0,.4-1.3,11.94,11.94,0,0,0,.17-2.73"/><path class="cls-1" d="M194.1,249.47h.05"/><path class="cls-1" d="M190.82,204.3h0"/><line class="cls-1" x1="140.17" y1="226.31" x2="140.56" y2="244.68"/><line class="cls-1" x1="140.56" y1="244.68" x2="140.68" y2="244.68"/><line class="cls-1" x1="140.17" y1="226.31" x2="140.29" y2="226.3"/><line class="cls-1" x1="153.31" y1="245.75" x2="153.42" y2="245.74"/><path class="cls-1" d="M49,234.47a.36.36,0,0,1,.2.06.19.19,0,0,1,.1.18.47.47,0,0,1-.06.2,1.09,1.09,0,0,1-.13.17"/><line class="cls-1" x1="49.12" y1="235.08" x2="53.58" y2="235.49"/><line class="cls-1" x1="21.11" y1="237.02" x2="30.27" y2="237.72"/><path class="cls-1" d="M49.12,235.08a9,9,0,0,1-1.27,0"/><path class="cls-1" d="M47.85,235.07l-16.73,1.14"/><path class="cls-1" d="M30.27,237.72l.41,0h1.44l1.16-.07,3-.2,6-.38,12-.77"/><path class="cls-1" d="M133.76,245.62h1.57l1.58-.05,3.14-.11,6.3-.21"/><line class="cls-1" x1="165" y1="246.72" x2="165.11" y2="246.72"/><line class="cls-1" x1="164.48" y1="230.52" x2="164.59" y2="230.51"/><line class="cls-1" x1="174.95" y1="247.55" x2="175.06" y2="247.55"/><line class="cls-1" x1="174.5" y1="232.23" x2="164.59" y2="230.51"/><line class="cls-1" x1="64.66" y1="213.24" x2="64.34" y2="238.31"/><line class="cls-1" x1="64.34" y1="238.31" x2="64.48" y2="238.3"/><line class="cls-1" x1="64.66" y1="213.24" x2="64.8" y2="213.22"/><line class="cls-1" x1="87.82" y1="240.27" x2="87.96" y2="240.27"/><path class="cls-1" d="M165,246.52h0"/><path class="cls-1" d="M178.08,199.57a.58.58,0,0,1-.2-.24,1.81,1.81,0,0,1-.09-.31"/><line class="cls-1" x1="174.97" y1="197.93" x2="175.07" y2="197.92"/><path class="cls-1" d="M177.78,198.94l-.2-.08"/><path class="cls-1" d="M174.8,198.34l-5.66-2.1"/><path class="cls-1" d="M169.14,196.24a.49.49,0,0,1-.21-.26,1.19,1.19,0,0,1-.1-.32"/><line class="cls-1" x1="165.7" y1="194.45" x2="165.81" y2="194.44"/><path class="cls-1" d="M168.81,195.57l-.2-.08"/><path class="cls-1" d="M165.5,194.88l-6.3-2.35"/><path class="cls-1" d="M159.2,192.53c-.11,0-.19-.18-.24-.27a2,2,0,0,1-.11-.35"/><line class="cls-1" x1="155.36" y1="190.57" x2="155.48" y2="190.56"/><path class="cls-1" d="M158.83,191.82l-.2-.08"/><path class="cls-1" d="M155.36,190.57a1.11,1.11,0,0,1-.05.25.37.37,0,0,1-.15.2"/><path class="cls-1" d="M155.13,191l-7.06-2.63"/><path class="cls-1" d="M148.07,188.38a.63.63,0,0,1-.27-.29,1.15,1.15,0,0,1-.12-.37"/><line class="cls-1" x1="143.76" y1="186.22" x2="143.88" y2="186.2"/><path class="cls-1" d="M147.66,187.62l-.22-.08"/><path class="cls-1" d="M143.76,186.22a1.38,1.38,0,0,1-.06.26.41.41,0,0,1-.17.2"/><path class="cls-1" d="M143.48,186.67l-8-3"/><path class="cls-1" d="M135.51,183.7a.63.63,0,0,1-.29-.31,1.38,1.38,0,0,1-.15-.4"/><line class="cls-1" x1="130.65" y1="181.29" x2="130.77" y2="181.27"/><path class="cls-1" d="M135.05,182.88l-.22-.08"/><path class="cls-1" d="M130.65,181.29a1.47,1.47,0,0,1-.08.28.46.46,0,0,1-.18.21"/><path class="cls-1" d="M130.32,181.76l-9.08-3.38"/><path class="cls-1" d="M121.24,178.38a.7.7,0,0,1-.33-.33,1.65,1.65,0,0,1-.16-.44"/><line class="cls-1" x1="115.71" y1="175.68" x2="115.83" y2="175.66"/><path class="cls-1" d="M120.73,177.5l-.23-.09"/><path class="cls-1" d="M115.31,176.17l-10.42-3.89"/><path class="cls-1" d="M104.89,172.28a.86.86,0,0,1-.38-.35,2.18,2.18,0,0,1-.19-.48"/><line class="cls-1" x1="98.52" y1="169.23" x2="98.65" y2="169.2"/><path class="cls-1" d="M104.3,171.32l-.24-.09"/><path class="cls-1" d="M98,169.73,86,165.23"/><path class="cls-1" d="M86,165.23a.93.93,0,0,1-.42-.39,1.78,1.78,0,0,1-.23-.53"/><line class="cls-1" x1="78.56" y1="161.73" x2="78.69" y2="161.7"/><path class="cls-1" d="M85.28,164.17l-.24-.09"/><path class="cls-1" d="M78,162.25,63.78,157"/><path class="cls-1" d="M63.78,157a1.14,1.14,0,0,1-.5-.42,1.89,1.89,0,0,1-.26-.6"/><line class="cls-1" x1="55.07" y1="152.91" x2="55.21" y2="152.87"/><path class="cls-1" d="M63,155.8l-.25-.1"/><path class="cls-1" d="M54.34,153.44l-.89-.33"/><path class="cls-1" d="M53.45,153.11a.58.58,0,0,0-.39,0"/><line class="cls-1" x1="51.34" y1="209.6" x2="51.48" y2="209.58"/><line class="cls-1" x1="178.89" y1="220.13" x2="178.99" y2="220.12"/><path class="cls-1" d="M180.78,200.57l-2.7-1"/><line class="cls-1" x1="165.57" y1="194.89" x2="165.51" y2="194.9"/><line class="cls-1" x1="115.47" y1="176.18" x2="115.39" y2="176.2"/><line class="cls-1" x1="98.25" y1="169.75" x2="98.16" y2="169.77"/><line class="cls-1" x1="78.25" y1="162.27" x2="78.12" y2="162.3"/><line class="cls-1" x1="54.72" y1="153.47" x2="54.58" y2="153.5"/><line class="cls-1" x1="52.93" y1="153.12" x2="53.06" y2="153.09"/><path class="cls-1" d="M52.93,153.12a.66.66,0,0,0-.41.37,1.35,1.35,0,0,0-.13.56"/><path class="cls-1" d="M165.52,194.88l-.06,0"/><path class="cls-1" d="M53,153.11h-.07"/><path class="cls-1" d="M178.89,220.12h0"/><path class="cls-1" d="M130.45,181.78h-.06"/><path class="cls-1" d="M98.25,169.75h-.06"/><path class="cls-1" d="M78.25,162.27h-.07"/><path class="cls-1" d="M162.62,246.59l-2.29-.19"/><path class="cls-1" d="M166.39,246.91l-3.77-.32"/><path class="cls-1" d="M176.36,247.74l-10-.83"/><path class="cls-1" d="M31.12,236.21l1.06-38.32"/><path class="cls-1" d="M75,240.12a.49.49,0,0,0,.07-.19v-.62"/><path class="cls-1" d="M108,243l0,0,0,0h0a.31.31,0,0,0,.07-.09.53.53,0,0,0,.06-.24v-.49"/><path class="cls-1" d="M133.86,245.12l.06-.1.05,0,.05,0a.38.38,0,0,0,.08-.23.24.24,0,0,0,0-.12v-.37"/><path class="cls-1" d="M154.67,246.83a.41.41,0,0,1,.12-.2h0s0,0,0,0l0-.06a.53.53,0,0,0,0-.12V246"/><path class="cls-1" d="M160.34,246.66v-.26"/><path class="cls-1" d="M190.77,204.29a.33.33,0,0,0,.07-.17"/><path class="cls-1" d="M183.18,201.46a.38.38,0,0,0,.08-.17"/><path class="cls-1" d="M174.81,198.34a.61.61,0,0,0,.09-.18"/><path class="cls-1" d="M165.52,194.88a.5.5,0,0,0,.1-.19"/><path class="cls-1" d="M155.16,191a.49.49,0,0,0,.11-.2"/><path class="cls-1" d="M143.53,186.68a.53.53,0,0,0,.13-.2"/><path class="cls-1" d="M130.38,181.78a.48.48,0,0,0,.15-.22"/><path class="cls-1" d="M115.4,176.19a.6.6,0,0,0,.17-.22"/><path class="cls-1" d="M98.18,169.76a.58.58,0,0,0,.18-.23"/><path class="cls-1" d="M78.15,162.28a.58.58,0,0,0,.21-.23"/><path class="cls-1" d="M102.1,241.56V242a.49.49,0,0,0,0,.12.61.61,0,0,0,0,.11.22.22,0,0,0,0,.11l.06.08h0l0,0,0,0,.07.09a.58.58,0,0,1,.1.21,1.32,1.32,0,0,1,.08.44"/><path class="cls-1" d="M129.27,243.82v.5a.44.44,0,0,0,0,.1.42.42,0,0,0,0,.1s0,0,.06.07h0l0,0,0,0,.07.09a.75.75,0,0,1,.08.18,1.27,1.27,0,0,1,.06.39"/><path class="cls-1" d="M151,245.62c0,.12,0,.24,0,.36v.09s0,.06,0,.09l0,.09.05.06,0,0,0,0,.06.08a1.11,1.11,0,0,1,.07.16,1.48,1.48,0,0,1,.05.35"/><path class="cls-1" d="M185.68,201.91a.68.68,0,0,0-.3-.25"/><path class="cls-1" d="M177.58,198.86a.64.64,0,0,0-.31-.25"/><path class="cls-1" d="M168.61,195.49a.71.71,0,0,0-.32-.27"/><path class="cls-1" d="M158.63,191.74a.81.81,0,0,0-.33-.28"/><path class="cls-1" d="M147.44,187.54a.76.76,0,0,0-.34-.3"/><path class="cls-1" d="M134.83,182.8a.76.76,0,0,0-.35-.31"/><path class="cls-1" d="M120.5,177.41a1,1,0,0,0-.36-.33"/><path class="cls-1" d="M104.06,171.23a.91.91,0,0,0-.36-.34"/><path class="cls-1" d="M85,164.08a1.09,1.09,0,0,0-.38-.36"/><path class="cls-1" d="M62.74,155.7a1.06,1.06,0,0,0-.38-.38"/><path class="cls-1" d="M51.93,178.6l-11.48-3.25"/><path class="cls-1" d="M160.35,247.08l6-.17"/><path class="cls-1" d="M108,243l-2.75.12-1.38,0-.68,0h-.24s0,0,0,0h-.33"/><path class="cls-1" d="M115.3,242.66,108,243"/><path class="cls-1" d="M183.18,201.46h0"/><path class="cls-1" d="M193.86,205.57a.38.38,0,0,0-.15-.18"/><path class="cls-1" d="M185.88,202.06s0-.05,0-.08"/><path class="cls-1" d="M176.36,247.74l0,.28"/><path class="cls-1" d="M51.67,231.92a9.89,9.89,0,0,0-1.39,1.2l-.16.17-.16.17-.32.33-.63.68"/><path class="cls-1" d="M31.12,236.21l-5.25.36-2.62.18-1.31.09-.45,0h-.13l-.05,0h-.2"/><path class="cls-1" d="M133.86,245.12l-2.12.08-1.06,0h-1"/><path class="cls-1" d="M141.68,244.85l-7.82.27"/><path class="cls-1" d="M75,240.12l-3.75.19-1.88.1-.94.05h-.49s0,0,0,0h0l-.18,0"/><path class="cls-1" d="M81.05,239.81l-6.06.31"/><path class="cls-1" d="M154.67,246.83l-1.69,0-.85,0h-.82"/><path class="cls-1" d="M160.34,246.66l-5.67.17"/><path class="cls-1" d="M162.62,246.59l-2.28.07"/><path class="cls-1" d="M177.79,199a.22.22,0,0,1,0-.08"/><path class="cls-1" d="M168.83,195.66s0-.06,0-.09"/><path class="cls-1" d="M158.85,191.91a.29.29,0,0,0,0-.09"/><path class="cls-1" d="M155.16,191h0"/><path class="cls-1" d="M147.68,187.72a.36.36,0,0,1,0-.1"/><path class="cls-1" d="M143.53,186.68h0"/><path class="cls-1" d="M135.07,183s0-.07,0-.11"/><path class="cls-1" d="M120.75,177.61a.43.43,0,0,1,0-.11"/><path class="cls-1" d="M104.32,171.45s0-.09,0-.13"/><path class="cls-1" d="M85.3,164.31a.68.68,0,0,1,0-.14"/><path class="cls-1" d="M63,155.94l0-.14"/><path class="cls-1" d="M51.63,194.33c-.05,2.8-.11,5.61-.16,8.41"/><path class="cls-1" d="M51.93,178.6l-.3,15.73"/><path class="cls-1" d="M98.18,169.76a.35.35,0,0,1-.14,0"/><path class="cls-1" d="M98.19,169.76h0"/><path class="cls-1" d="M78.15,162.28a.57.57,0,0,1-.18,0"/><path class="cls-1" d="M78.18,162.28h0"/><path class="cls-1" d="M151,245.62l-16.87-1.4"/><path class="cls-1" d="M129.27,243.82l-21.06-1.75"/><path class="cls-1" d="M102.1,241.56l-27-2.25"/><path class="cls-1" d="M67.1,238.65l-5.93-.5-3-.24-.37,0-.18,0-.17,0a5.4,5.4,0,0,1-.7-.13,5.81,5.81,0,0,1-1.42-.63,7.28,7.28,0,0,1-1.05-.8,8.92,8.92,0,0,1-1-1.07,11.15,11.15,0,0,1-1.51-2.8,13.32,13.32,0,0,1-.74-3c-.06-.5-.1-1-.11-1.5v-.36c0-.11,0-.22,0-.32v-.62l.45-23.82"/><path class="cls-1" d="M52,176.85q.24-12.25.46-24.5"/><line class="cls-1" x1="108.43" y1="220.78" x2="108.57" y2="241.99"/><line class="cls-1" x1="108.44" y1="242" x2="125.34" y2="243.41"/><line class="cls-1" x1="108.57" y1="241.99" x2="125.47" y2="243.4"/><line class="cls-1" x1="125.47" y1="243.4" x2="125.19" y2="223.68"/><line class="cls-1" x1="183.73" y1="233.83" x2="184.32" y2="248.33"/><line class="cls-1" x1="184.32" y1="248.33" x2="192.3" y2="248.99"/><path class="cls-1" d="M183.42,201.06a1,1,0,0,1,0,.24l0,.11a.15.15,0,0,1-.1.06"/><path class="cls-1" d="M183.18,201.47l-2.4-.9"/><path class="cls-1" d="M178.89,220.13q-1.26,13.8-2.53,27.61"/><path class="cls-1" d="M179,220.12,176.44,248"/><path class="cls-1" d="M194.13,249.46h.07"/><path class="cls-1" d="M193.22,204.74,191,203.9"/><path class="cls-1" d="M190.89,203.92a.75.75,0,0,1,0,.2.28.28,0,0,1-.09.17"/><path class="cls-1" d="M191,203.9a.59.59,0,0,1,0,.23.36.36,0,0,1,0,.11.11.11,0,0,1-.09.06"/><path class="cls-1" d="M190.77,204.3l-4.62-1.73"/><path class="cls-1" d="M185.68,201.91l-2.26-.85"/><path class="cls-1" d="M183.23,201.47h0"/><line class="cls-1" x1="140.29" y1="226.3" x2="140.68" y2="244.68"/><line class="cls-1" x1="140.56" y1="244.68" x2="153.31" y2="245.75"/><line class="cls-1" x1="140.68" y1="244.68" x2="153.42" y2="245.74"/><line class="cls-1" x1="153.42" y1="245.74" x2="152.96" y2="228.5"/><line class="cls-1" x1="152.96" y1="228.5" x2="140.29" y2="226.3"/><line class="cls-1" x1="164.48" y1="230.52" x2="165" y2="246.72"/><line class="cls-1" x1="164.59" y1="230.51" x2="165.11" y2="246.72"/><line class="cls-1" x1="165" y1="246.72" x2="174.95" y2="247.55"/><line class="cls-1" x1="165.11" y1="246.72" x2="175.06" y2="247.55"/><line class="cls-1" x1="175.06" y1="247.55" x2="174.5" y2="232.23"/><line class="cls-1" x1="64.8" y1="213.22" x2="64.48" y2="238.3"/><line class="cls-1" x1="64.34" y1="238.31" x2="87.82" y2="240.27"/><line class="cls-1" x1="64.48" y1="238.3" x2="87.96" y2="240.27"/><line class="cls-1" x1="87.96" y1="240.27" x2="88.01" y2="217.24"/><line class="cls-1" x1="88.01" y1="217.24" x2="64.8" y2="213.22"/><path class="cls-1" d="M177.58,198.86l-2.51-.94"/><path class="cls-1" d="M175,197.93a.86.86,0,0,1-.05.23c0,.06,0,.15-.12.18"/><path class="cls-1" d="M175.07,197.92a1.11,1.11,0,0,1,0,.25.24.24,0,0,1-.06.11.12.12,0,0,1-.1.07"/><path class="cls-1" d="M168.61,195.49l-2.8-1.05"/><path class="cls-1" d="M165.7,194.45a1,1,0,0,1,0,.24.31.31,0,0,1-.13.19"/><path class="cls-1" d="M165.81,194.44a1.1,1.1,0,0,1-.06.26c0,.07-.08.17-.18.19"/><path class="cls-1" d="M158.63,191.74l-3.15-1.18"/><path class="cls-1" d="M155.48,190.56a.83.83,0,0,1-.07.27c0,.08-.1.18-.19.19"/><path class="cls-1" d="M147.44,187.54l-3.56-1.34"/><path class="cls-1" d="M143.88,186.2a1,1,0,0,1-.08.29c0,.08-.11.18-.21.19"/><path class="cls-1" d="M134.83,182.8l-4.06-1.53"/><path class="cls-1" d="M130.77,181.27a1.21,1.21,0,0,1-.09.31.38.38,0,0,1-.23.2"/><path class="cls-1" d="M120.5,177.41l-4.67-1.75"/><path class="cls-1" d="M115.71,175.68a1.06,1.06,0,0,1-.1.3.36.36,0,0,1-.21.21"/><path class="cls-1" d="M115.83,175.66a1.19,1.19,0,0,1-.1.32.41.41,0,0,1-.26.2"/><path class="cls-1" d="M104.06,171.23l-5.41-2"/><path class="cls-1" d="M98.52,169.23a.94.94,0,0,1-.11.32.54.54,0,0,1-.25.22"/><path class="cls-1" d="M98.65,169.2a1,1,0,0,1-.12.34.4.4,0,0,1-.28.21"/><path class="cls-1" d="M85,164.08l-6.35-2.38"/><path class="cls-1" d="M78.56,161.73a.91.91,0,0,1-.15.35.48.48,0,0,1-.3.22"/><path class="cls-1" d="M78.69,161.7a1.07,1.07,0,0,1-.14.35.48.48,0,0,1-.3.22"/><path class="cls-1" d="M62.74,155.7l-7.53-2.83"/><path class="cls-1" d="M55.07,152.91a1,1,0,0,1-.17.37.6.6,0,0,1-.32.22"/><path class="cls-1" d="M55.21,152.87a1.24,1.24,0,0,1-.17.37.62.62,0,0,1-.32.23"/><path class="cls-1" d="M52,176.85l0,1.75"/><path class="cls-1" d="M52.53,154l-1.05,55.57"/><path class="cls-1" d="M51.34,209.6l127.55,10.53"/><path class="cls-1" d="M51.48,209.58,179,220.12"/><path class="cls-1" d="M179,220.12q.9-9.78,1.79-19.55"/><path class="cls-1" d="M174.86,198.35h-.06"/><path class="cls-1" d="M165.57,194.89h-.07"/><path class="cls-1" d="M155.22,191a.14.14,0,0,1-.09,0"/><path class="cls-1" d="M143.59,186.68a.21.21,0,0,1-.11,0"/><path class="cls-1" d="M130.39,181.78l-.07,0"/><path class="cls-1" d="M115.47,176.18a.22.22,0,0,1-.16,0"/><path class="cls-1" d="M54.72,153.47a.62.62,0,0,1-.38,0"/><path class="cls-1" d="M53.06,153.09a.68.68,0,0,0-.41.37,1.3,1.3,0,0,0-.12.55"/><path class="cls-1" d="M146.35,245.24l10.69-.36"/><path class="cls-1" d="M152.53,244.47l-10.85.38"/><path class="cls-1" d="M158,244.51l.58-.49.29-.25.14-.12.13-.11a7.53,7.53,0,0,0,.57-.56,6,6,0,0,0,.45-.55l.15-.25a1.47,1.47,0,0,0,.1-.22.76.76,0,0,0,.06-.2,1.1,1.1,0,0,0,0-.18.43.43,0,0,0-.38-.38l-.17,0-.18,0-.38,0-.37,0h-.4l-.3.05-.34.1a7.54,7.54,0,0,0-.79.3,11.25,11.25,0,0,0-1.32.72,11.81,11.81,0,0,0-1.22.88l-.28.23-.29.25-.58.5"/><line class="cls-1" x1="153.31" y1="244.48" x2="157.3" y2="244.84"/><path class="cls-1" d="M153.46,244.1s.09,0,.08.08a.22.22,0,0,1,0,.11.81.81,0,0,1-.18.19"/><path class="cls-1" d="M121.24,243.15l11.46-.46"/><path class="cls-1" d="M126.92,242.17l-11.62.49"/><path class="cls-1" d="M133.7,242.28l.66-.59.33-.3.3-.27a8.17,8.17,0,0,0,.63-.69,3.88,3.88,0,0,0,.44-.67,1.31,1.31,0,0,0,.12-.27,1.05,1.05,0,0,0,.06-.24.72.72,0,0,0,0-.41.55.55,0,0,0-.24-.26,1.09,1.09,0,0,0-.4-.12h-.21l-.21,0-.43,0-.43-.05h-.44l-.35.05a2.59,2.59,0,0,0-.4.09,5.89,5.89,0,0,0-.92.32,11.24,11.24,0,0,0-1.54.8,10.74,10.74,0,0,0-1.41,1l-.31.27-.33.3-.65.58"/><line class="cls-1" x1="127.82" y1="242.18" x2="132.93" y2="242.64"/><path class="cls-1" d="M166.39,246.91l10-.29"/><path class="cls-1" d="M177.23,246.29l.52-.43.27-.21.24-.21a5.57,5.57,0,0,0,.51-.46,6.29,6.29,0,0,0,.43-.47,2.78,2.78,0,0,0,.29-.41l.09-.18a1.42,1.42,0,0,0,0-.16.66.66,0,0,0,0-.14.23.23,0,0,0,0-.11.26.26,0,0,0-.15-.14l-.13,0h-.16l-.33,0-.33,0h-.17l-.2,0a2.27,2.27,0,0,0-.25.06l-.3.09a6.07,6.07,0,0,0-.7.29,8.81,8.81,0,0,0-1.16.65,10.1,10.1,0,0,0-1.08.77l-.25.2-.26.22-.52.43"/><path class="cls-1" d="M176.38,246.62h.27"/><line class="cls-1" x1="173.45" y1="246.29" x2="176.65" y2="246.58"/><path class="cls-1" d="M93.45,239.17l-12.4.64"/><path class="cls-1" d="M102.19,239.37l.76-.73.2-.18.19-.18.33-.33a6,6,0,0,0,.69-.89,3.62,3.62,0,0,0,.24-.43c.05-.14.1-.27.14-.42a1.18,1.18,0,0,0,0-.53.81.81,0,0,0-.21-.41,1,1,0,0,0-.41-.25,1.17,1.17,0,0,0-.25-.07l-.14,0h-.16l-1-.12-.51-.06-.25,0h-.26a3,3,0,0,0-.43,0l-.48.08a8.07,8.07,0,0,0-1.09.33,11.7,11.7,0,0,0-1.85.9c-.3.18-.6.38-.89.59a9,9,0,0,0-.77.61l-.36.33-.38.36-.75.72"/><path class="cls-1" d="M101.28,239.79a1.5,1.5,0,0,1,.42-.29l.24-.1a.69.69,0,0,1,.25,0"/><path class="cls-1" d="M63,155.94l-.65-.24"/><path class="cls-1" d="M85.3,164.31l-.73-.28"/><path class="cls-1" d="M104.32,171.45l-.78-.3"/><path class="cls-1" d="M120.75,177.61l-.82-.31"/><path class="cls-1" d="M135.07,183l-.83-.32"/><path class="cls-1" d="M147.68,187.72l-.85-.32"/><path class="cls-1" d="M158.85,191.91l-.85-.31"/><path class="cls-1" d="M168.83,195.66l-.84-.32"/><path class="cls-1" d="M177.79,199l-.84-.31"/><path class="cls-1" d="M185.88,202.06l-.13-.05"/><path class="cls-1" d="M63.06,156.33a4.15,4.15,0,0,0-.32-.63"/><path class="cls-1" d="M85.32,164.66a3.1,3.1,0,0,0-.28-.58"/><path class="cls-1" d="M104.33,171.76a2.94,2.94,0,0,0-.27-.53"/><path class="cls-1" d="M120.74,177.9a2.23,2.23,0,0,0-.24-.49"/><path class="cls-1" d="M135.06,183.26a2,2,0,0,0-.23-.46"/><path class="cls-1" d="M147.65,188a1.72,1.72,0,0,0-.21-.43"/><path class="cls-1" d="M158.82,192.15a1.53,1.53,0,0,0-.19-.41"/><path class="cls-1" d="M168.8,195.88a1.41,1.41,0,0,0-.19-.39"/><path class="cls-1" d="M177.76,199.23a1.27,1.27,0,0,0-.18-.37"/><path class="cls-1" d="M185.85,202.26a1,1,0,0,0-.17-.35"/><path class="cls-1" d="M63.06,156.33a2.32,2.32,0,0,0,.22.41.79.79,0,0,0,.36.29"/><path class="cls-1" d="M77.83,162.32a.33.33,0,0,0,.32,0"/><path class="cls-1" d="M85.32,164.66a2.47,2.47,0,0,0,.19.36.74.74,0,0,0,.31.27"/><path class="cls-1" d="M97.91,169.79a.29.29,0,0,0,.27,0"/><path class="cls-1" d="M104.33,171.76a1.33,1.33,0,0,0,.16.34.58.58,0,0,0,.27.24"/><path class="cls-1" d="M115.18,176.22a.22.22,0,0,0,.22,0"/><path class="cls-1" d="M120.74,177.9a1.73,1.73,0,0,0,.14.31.51.51,0,0,0,.24.22"/><path class="cls-1" d="M130.2,181.81a.17.17,0,0,0,.18,0"/><path class="cls-1" d="M135.06,183.26a1.69,1.69,0,0,0,.12.28.53.53,0,0,0,.21.21"/><path class="cls-1" d="M143.37,186.72a.16.16,0,0,0,.16,0"/><path class="cls-1" d="M147.65,188a2,2,0,0,0,.11.26.5.5,0,0,0,.19.19"/><path class="cls-1" d="M155,191.05a.12.12,0,0,0,.14,0"/><path class="cls-1" d="M158.82,192.15a2.44,2.44,0,0,0,.1.24.37.37,0,0,0,.17.18"/><path class="cls-1" d="M165.39,194.92a.11.11,0,0,0,.13,0"/><path class="cls-1" d="M168.8,195.88a2,2,0,0,0,.08.22.33.33,0,0,0,.16.17"/><path class="cls-1" d="M174.69,198.38a.1.1,0,0,0,.12,0"/><path class="cls-1" d="M177.76,199.23a1.72,1.72,0,0,0,.07.21c0,.05.08.14.14.16"/><path class="cls-1" d="M183.08,201.5a.08.08,0,0,0,.1,0"/><path class="cls-1" d="M178,199.6l5.11,1.9"/><path class="cls-1" d="M185.85,202.26a1.46,1.46,0,0,0,.07.19.33.33,0,0,0,.13.16"/><path class="cls-1" d="M190.68,204.33s.07,0,.09,0"/><path class="cls-1" d="M195.62,244.29a12.25,12.25,0,0,1-.2,2.9c0,.18-.09.36-.14.54s-.11.32-.17.48a2.75,2.75,0,0,1-.2.38,1.29,1.29,0,0,1-.22.3,1,1,0,0,1-.22.19.7.7,0,0,1-.23.11l-.12,0H194l-.25,0-5.8-.48-11.59-1"/><path class="cls-1" d="M98.16,169.77h0"/><path class="cls-1" d="M115.4,176.19l-.05,0"/><line class="cls-1" x1="78.12" y1="162.3" x2="78.11" y2="162.3"/><line class="cls-1" x1="98.16" y1="169.77" x2="98.12" y2="169.78"/><line class="cls-1" x1="115.39" y1="176.2" x2="115.35" y2="176.21"/><line class="cls-1" x1="165.51" y1="194.9" x2="165.46" y2="194.9"/><path class="cls-1" d="M165,246.52l-2.37.07"/><path class="cls-1" d="M54.34,236.29l4.14-.27"/><line class="cls-1" x1="53.58" y1="235.49" x2="58.52" y2="235.93"/><line class="cls-1" x1="183.17" y1="201.48" x2="183.13" y2="201.49"/><path class="cls-1" d="M88.87,240.46l12.25-.61"/><path class="cls-1" d="M185.75,202l-.69-.26"/><path class="cls-1" d="M160.35,247.08v-.42"/><path class="cls-1" d="M193.86,205.57l0,.57"/><path class="cls-1" d="M180.68,200.58q-.9,9.78-1.79,19.54"/><path class="cls-1" d="M62.85,155.83l-7.78-2.92"/><path class="cls-1" d="M85.14,164.2l-6.58-2.47"/><path class="cls-1" d="M104.17,171.35l-5.65-2.12"/><path class="cls-1" d="M120.6,177.52l-4.89-1.84"/><path class="cls-1" d="M134.93,182.9l-4.28-1.61"/><path class="cls-1" d="M147.54,187.64l-3.78-1.42"/><path class="cls-1" d="M158.72,191.83l-3.36-1.26"/><path class="cls-1" d="M168.71,195.58l-3-1.13"/><path class="cls-1" d="M177.67,199l-2.7-1"/><path class="cls-1" d="M130.39,181.78l-.06,0"/><path class="cls-1" d="M143.53,186.68l-.06,0"/><path class="cls-1" d="M155.16,191l-.06,0"/><path class="cls-1" d="M174.8,198.34l-.05,0"/><path class="cls-1" d="M54.58,153.5a.62.62,0,0,1-.38,0"/><path class="cls-1" d="M78.11,162.3a.45.45,0,0,1-.28,0"/><path class="cls-1" d="M98.12,169.78a.5.5,0,0,1-.21,0"/><path class="cls-1" d="M115.35,176.21a.32.32,0,0,1-.17,0"/><path class="cls-1" d="M130.33,181.8a.34.34,0,0,1-.14,0"/><line class="cls-1" x1="130.45" y1="181.78" x2="130.33" y2="181.8"/><path class="cls-1" d="M143.47,186.7a.17.17,0,0,1-.1,0"/><line class="cls-1" x1="143.59" y1="186.68" x2="143.47" y2="186.7"/><path class="cls-1" d="M155.1,191H155"/><line class="cls-1" x1="155.22" y1="191.02" x2="155.1" y2="191.04"/><path class="cls-1" d="M165.46,194.9h-.07"/><path class="cls-1" d="M174.75,198.36h-.06"/><line class="cls-1" x1="174.86" y1="198.35" x2="174.75" y2="198.36"/><path class="cls-1" d="M180.68,200.58l-2.71-1"/><path class="cls-1" d="M53.31,153.15a.56.56,0,0,0-.31,0"/><path class="cls-1" d="M54.2,153.48l-.89-.33"/><line class="cls-1" x1="62.85" y1="155.83" x2="62.99" y2="155.8"/><path class="cls-1" d="M63.64,157a1.15,1.15,0,0,1-.53-.49,1.81,1.81,0,0,1-.26-.68"/><path class="cls-1" d="M77.83,162.28,63.64,157"/><line class="cls-1" x1="85.14" y1="164.2" x2="85.28" y2="164.17"/><path class="cls-1" d="M85.82,165.26a.83.83,0,0,1-.27-.19,1.18,1.18,0,0,1-.19-.25,1.91,1.91,0,0,1-.22-.62"/><path class="cls-1" d="M97.91,169.76l-12.09-4.5"/><line class="cls-1" x1="104.17" y1="171.35" x2="104.3" y2="171.32"/><path class="cls-1" d="M104.76,172.31a.66.66,0,0,1-.24-.17,1.46,1.46,0,0,1-.17-.24,1.78,1.78,0,0,1-.18-.55"/><path class="cls-1" d="M115.18,176.19l-10.42-3.88"/><line class="cls-1" x1="120.6" y1="177.52" x2="120.73" y2="177.5"/><path class="cls-1" d="M121.12,178.4a.42.42,0,0,1-.21-.16.86.86,0,0,1-.15-.22,1.72,1.72,0,0,1-.16-.5"/><path class="cls-1" d="M130.19,181.78l-9.07-3.38"/><line class="cls-1" x1="134.93" y1="182.9" x2="135.05" y2="182.88"/><path class="cls-1" d="M135.39,183.72a.47.47,0,0,1-.19-.15,1.07,1.07,0,0,1-.13-.21,1.76,1.76,0,0,1-.14-.46"/><path class="cls-1" d="M143.37,186.69l-8-3"/><line class="cls-1" x1="147.54" y1="187.64" x2="147.66" y2="187.62"/><path class="cls-1" d="M148,188.4a.47.47,0,0,1-.17-.14.78.78,0,0,1-.11-.2,1.28,1.28,0,0,1-.13-.42"/><path class="cls-1" d="M155,191,148,188.4"/><line class="cls-1" x1="158.72" y1="191.83" x2="158.83" y2="191.82"/><path class="cls-1" d="M159.09,192.54a.4.4,0,0,1-.16-.13,1,1,0,0,1-.1-.18,1.68,1.68,0,0,1-.11-.4"/><path class="cls-1" d="M165.39,194.89l-6.3-2.35"/><line class="cls-1" x1="168.71" y1="195.58" x2="168.81" y2="195.57"/><path class="cls-1" d="M169,196.25a.37.37,0,0,1-.15-.13l-.09-.17a1.43,1.43,0,0,1-.09-.37"/><path class="cls-1" d="M174.69,198.36,169,196.25"/><line class="cls-1" x1="177.67" y1="198.95" x2="177.78" y2="198.94"/><path class="cls-1" d="M178,199.58a.37.37,0,0,1-.13-.12l-.08-.16a2,2,0,0,1-.09-.35"/><path class="cls-1" d="M172.75,246.29l-7.76.23"/><path class="cls-1" d="M153.31,244.48h-.78"/><line class="cls-1" x1="87.88" y1="217.26" x2="64.66" y2="213.24"/><line class="cls-1" x1="87.82" y1="240.27" x2="87.88" y2="217.26"/><line class="cls-1" x1="87.88" y1="217.26" x2="88.01" y2="217.24"/><line class="cls-1" x1="174.4" y1="232.24" x2="164.48" y2="230.52"/><line class="cls-1" x1="174.95" y1="247.55" x2="174.4" y2="232.24"/><line class="cls-1" x1="174.4" y1="232.24" x2="174.5" y2="232.23"/><path class="cls-1" d="M157,244.88h.26"/><path class="cls-1" d="M157.3,244.84a2.82,2.82,0,0,1,.31-.21l.17-.08a.58.58,0,0,1,.19,0"/><path class="cls-1" d="M59.63,235.44l.73-.75.36-.38.18-.18.16-.17a5.55,5.55,0,0,0,.65-.88,3.5,3.5,0,0,0,.4-.88,2.6,2.6,0,0,0,.07-.56,1.43,1.43,0,0,0-.09-.5,1.37,1.37,0,0,0-.64-.72,2.53,2.53,0,0,0-.89-.3h-.12l-.14,0-.28,0-.57-.06-1-.12-.26,0H58l-.12,0-.51,0a6,6,0,0,0-.95.08,9.41,9.41,0,0,0-1.08.24,12.46,12.46,0,0,0-3.7,1.8"/><path class="cls-1" d="M58.48,236h-.23s0,0,0,0a1.15,1.15,0,0,1,.26,0"/><path class="cls-1" d="M58.52,235.93a1.6,1.6,0,0,1,.51-.35,1.72,1.72,0,0,1,.29-.11,1.63,1.63,0,0,1,.31,0"/><line class="cls-1" x1="152.85" y1="228.51" x2="140.17" y2="226.31"/><line class="cls-1" x1="153.31" y1="245.75" x2="152.85" y2="228.51"/><line class="cls-1" x1="152.85" y1="228.51" x2="152.96" y2="228.5"/><path class="cls-1" d="M185.77,202l-2.45-.92"/><path class="cls-1" d="M193.12,204.75l-2.23-.83"/><path class="cls-1" d="M183.08,201.48l-2.4-.9"/><path class="cls-1" d="M194.15,249.46a.75.75,0,0,0,.29-.09,1.31,1.31,0,0,0,.28-.24,2.48,2.48,0,0,0,.19-.26,3.24,3.24,0,0,0,.17-.32,5.9,5.9,0,0,0,.39-1.3,12.18,12.18,0,0,0,.16-2.7"/><path class="cls-1" d="M190.77,204.29a.06.06,0,0,1-.05,0"/><path class="cls-1" d="M183.18,201.47l-.05,0"/><path class="cls-1" d="M190.72,204.31h0"/><line class="cls-1" x1="190.82" y1="204.3" x2="190.72" y2="204.31"/><path class="cls-1" d="M183.13,201.49h0"/><line class="cls-1" x1="185.77" y1="201.99" x2="185.87" y2="201.98"/><path class="cls-1" d="M186.05,202.58a.22.22,0,0,1-.12-.11,1.09,1.09,0,0,1-.08-.15,2,2,0,0,1-.08-.33"/><path class="cls-1" d="M190.68,204.31l-4.63-1.73"/><line class="cls-1" x1="193.12" y1="204.75" x2="193.22" y2="204.74"/><path class="cls-1" d="M193.37,205.31s-.08-.07-.11-.11a.35.35,0,0,1-.06-.14,1.18,1.18,0,0,1-.08-.31"/><path class="cls-1" d="M193.61,205.4l-.24-.09"/><path class="cls-1" d="M193.88,206.14a1.39,1.39,0,0,0-.06-.4,1.46,1.46,0,0,0-.07-.19.4.4,0,0,0-.14-.15"/><path class="cls-1" d="M195.63,244.55q-.87-19.2-1.75-38.41"/><line class="cls-1" x1="180.68" y1="200.58" x2="180.78" y2="200.57"/><path class="cls-1" d="M127.82,242.18h-.45l-.45,0"/><path class="cls-1" d="M132.7,242.69h-.08s0,0,0,0l.1,0h.21"/><path class="cls-1" d="M132.93,242.64a1.74,1.74,0,0,1,.36-.24.72.72,0,0,1,.2-.09.49.49,0,0,1,.21,0"/><path class="cls-1" d="M127.93,241.74s.1,0,.11.08a.22.22,0,0,1,0,.14.79.79,0,0,1-.19.22"/><path class="cls-1" d="M173.45,246.29h-.7"/><path class="cls-1" d="M176.65,246.58a1.59,1.59,0,0,1,.27-.18l.15-.07a.47.47,0,0,1,.16,0"/><path class="cls-1" d="M173.62,246s.06,0,0,.08a.28.28,0,0,1-.06.09,1.21,1.21,0,0,1-.16.16"/><line class="cls-1" x1="191.6" y1="235.21" x2="183.63" y2="233.83"/><line class="cls-1" x1="192.2" y1="249" x2="191.6" y2="235.21"/><line class="cls-1" x1="191.6" y1="235.21" x2="191.7" y2="235.21"/><line class="cls-1" x1="184.21" y1="248.33" x2="192.2" y2="249"/><line class="cls-1" x1="183.63" y1="233.83" x2="184.21" y2="248.33"/><line class="cls-1" x1="125.06" y1="223.7" x2="108.29" y2="220.79"/><line class="cls-1" x1="125.34" y1="243.41" x2="125.06" y2="223.7"/><line class="cls-1" x1="125.06" y1="223.7" x2="125.19" y2="223.68"/><path class="cls-1" d="M94.51,239.18H94l-.53,0"/><path class="cls-1" d="M101.12,239.85H101s0,0,0,0h.28"/><line class="cls-1" x1="94.51" y1="239.18" x2="101.28" y2="239.79"/><path class="cls-1" d="M94.54,238.66c.14,0,.21.1.17.24a1.1,1.1,0,0,1-.2.28"/><path class="cls-1" d="M52,176.85l2.38.69"/><path class="cls-1" d="M160.33,246.4q-.56-18.75-1.12-37.51"/><path class="cls-1" d="M154.88,246l-.63-23.13"/><path class="cls-1" d="M134.1,244.22q-.24-12.81-.47-25.61"/><path class="cls-1" d="M108.21,242.07q-.1-14.35-.19-28.7"/><path class="cls-1" d="M75.07,239.31q.12-16.31.26-32.61"/><path class="cls-1" d="M51.63,194.33a1.09,1.09,0,0,1,.08.31.76.76,0,0,1,0,.15v.15c0,.21,0,.42,0,.63l0,1.26,0,2.51"/><path class="cls-1" d="M168.29,195.22a.33.33,0,0,0-.24,0"/><path class="cls-1" d="M185.38,201.66a.3.3,0,0,0-.23,0"/><path class="cls-1" d="M177.27,198.61a.31.31,0,0,0-.23,0"/><path class="cls-1" d="M158.3,191.46a.29.29,0,0,0-.24,0"/><path class="cls-1" d="M147.1,187.24a.33.33,0,0,0-.24,0"/><path class="cls-1" d="M134.48,182.49a.26.26,0,0,0-.24,0"/><path class="cls-1" d="M120.14,177.08a.26.26,0,0,0-.24,0"/><path class="cls-1" d="M103.7,170.89a.22.22,0,0,0-.23,0"/><path class="cls-1" d="M84.66,163.72a.2.2,0,0,0-.22,0"/><path class="cls-1" d="M62.36,155.32a.16.16,0,0,0-.2.06"/><path class="cls-1" d="M193.45,204.7a.54.54,0,0,0-.28,0"/><path class="cls-1" d="M53.63,178.83l.21-.26.21-.28a2.56,2.56,0,0,1,.2-.26,1.42,1.42,0,0,1,.24-.25"/><path class="cls-1" d="M72,184.07l.2-.26.19-.25.2-.25a1.26,1.26,0,0,1,.24-.22"/><path class="cls-1" d="M60.71,179.58a.78.78,0,0,0-.37.09.59.59,0,0,0-.27.27.71.71,0,0,0-.06.38,1.09,1.09,0,0,0,.12.36"/><path class="cls-1" d="M88.26,188.69l.17-.25.18-.24a1.6,1.6,0,0,1,.43-.43"/><path class="cls-1" d="M78.33,184.67a.91.91,0,0,0-.36.09.53.53,0,0,0-.25.24.61.61,0,0,0-.07.35,1.08,1.08,0,0,0,.1.35"/><path class="cls-1" d="M102.66,192.79l.08-.12.08-.12.17-.24a1.57,1.57,0,0,1,.42-.39"/><path class="cls-1" d="M93.88,189.17a.8.8,0,0,0-.33.08.59.59,0,0,0-.25.22.57.57,0,0,0-.07.33.9.9,0,0,0,.09.33"/><path class="cls-1" d="M115.53,196.45l.14-.23.17-.22a1,1,0,0,1,.41-.36"/><path class="cls-1" d="M107.73,193.17a1.14,1.14,0,0,0-.32.07.61.61,0,0,0-.24.21.58.58,0,0,0-.08.31.8.8,0,0,0,.09.31"/><path class="cls-1" d="M127.1,199.75a1.76,1.76,0,0,1,.14-.23,1.37,1.37,0,0,1,.15-.21,1.1,1.1,0,0,1,.4-.34"/><path class="cls-1" d="M120.12,196.76a.8.8,0,0,0-.3.06.63.63,0,0,0-.23.2.6.6,0,0,0-.08.29.82.82,0,0,0,.07.3"/><path class="cls-1" d="M137.56,202.72a1.48,1.48,0,0,1,.13-.21c0-.07.09-.14.14-.21a1,1,0,0,1,.39-.31"/><path class="cls-1" d="M131.29,200a.72.72,0,0,0-.29.06.55.55,0,0,0-.22.18.45.45,0,0,0-.08.27.58.58,0,0,0,.06.29"/><path class="cls-1" d="M147.06,205.43a2.65,2.65,0,0,1,.26-.41.84.84,0,0,1,.38-.29"/><path class="cls-1" d="M141.4,202.91a.67.67,0,0,0-.28.06.43.43,0,0,0-.21.17.45.45,0,0,0-.09.26.66.66,0,0,0,.06.27"/><path class="cls-1" d="M155.73,207.9a2.12,2.12,0,0,1,.11-.21l.14-.19a.8.8,0,0,1,.37-.27"/><path class="cls-1" d="M150.59,205.57a.58.58,0,0,0-.47.21.46.46,0,0,0-.08.25.47.47,0,0,0,.05.26"/><path class="cls-1" d="M53.63,178.83a.4.4,0,0,1-.41.14"/><path class="cls-1" d="M53.22,179l-1.29-.37"/><path class="cls-1" d="M72,184.07a.32.32,0,0,1-.35.14"/><path class="cls-1" d="M71.68,184.21,60.51,181"/><path class="cls-1" d="M60.51,181a.74.74,0,0,1-.38-.36"/><path class="cls-1" d="M88.26,188.69a.32.32,0,0,1-.31.14"/><path class="cls-1" d="M88,188.83,78.09,186"/><path class="cls-1" d="M78.09,186a.68.68,0,0,1-.34-.33"/><path class="cls-1" d="M102.66,192.79a.43.43,0,0,1-.12.11.18.18,0,0,1-.16,0"/><path class="cls-1" d="M102.38,192.92l-8.76-2.48"/><path class="cls-1" d="M93.62,190.44c-.14,0-.24-.2-.3-.31"/><path class="cls-1" d="M115.53,196.45a.52.52,0,0,1-.1.11.16.16,0,0,1-.15,0"/><path class="cls-1" d="M115.28,196.58l-7.84-2.22"/><path class="cls-1" d="M107.44,194.36a.53.53,0,0,1-.26-.29"/><path class="cls-1" d="M127.1,199.75a.41.41,0,0,1-.09.1.12.12,0,0,1-.13,0"/><path class="cls-1" d="M126.88,199.87l-7.06-2"/><path class="cls-1" d="M119.82,197.87c-.11,0-.19-.17-.24-.26"/><path class="cls-1" d="M137.56,202.72a.27.27,0,0,1-.08.1.12.12,0,0,1-.12,0"/><path class="cls-1" d="M137.36,202.85,131,201"/><path class="cls-1" d="M131,201c-.11,0-.18-.17-.22-.25"/><path class="cls-1" d="M147.06,205.43a.31.31,0,0,1-.07.09.11.11,0,0,1-.11,0"/><path class="cls-1" d="M146.88,205.55l-5.8-1.65"/><path class="cls-1" d="M141.08,203.9c-.1,0-.17-.16-.2-.23"/><path class="cls-1" d="M155.73,207.9a.47.47,0,0,1-.06.09.12.12,0,0,1-.1,0"/><path class="cls-1" d="M155.57,208l-5.3-1.51"/><path class="cls-1" d="M150.27,206.51c-.09,0-.15-.15-.18-.22"/><path class="cls-1" d="M54.34,177.54a.53.53,0,0,1,.17.08.08.08,0,0,1,0,.09s0,0-.06.07"/><path class="cls-1" d="M61.62,179.65l11.15,3.23"/><path class="cls-1" d="M72.77,182.88a.31.31,0,0,1,.15.08.06.06,0,0,1,0,.08l-.06.05"/><path class="cls-1" d="M60.71,179.58a3.53,3.53,0,0,1,.46,0,2.34,2.34,0,0,1,.45.07"/><path class="cls-1" d="M79.16,184.73,89,187.58"/><path class="cls-1" d="M89,187.58s.11,0,.13.08,0,.05,0,.07l-.06,0"/><path class="cls-1" d="M78.33,184.67h.42a2.9,2.9,0,0,1,.41.06"/><path class="cls-1" d="M94.66,189.23l8.74,2.53"/><path class="cls-1" d="M103.4,191.76c.15,0,.15.1,0,.16"/><path class="cls-1" d="M93.88,189.17h.39a1.67,1.67,0,0,1,.39.06"/><path class="cls-1" d="M108.45,193.22l7.82,2.27"/><path class="cls-1" d="M116.27,195.49l.06,0a0,0,0,0,1,0,.06.34.34,0,0,1-.11.07"/><path class="cls-1" d="M107.73,193.17h.36a2.23,2.23,0,0,1,.36.05"/><path class="cls-1" d="M120.8,196.8l7,2"/><path class="cls-1" d="M127.84,198.84s0,0,0,0,0,0,0,0a.37.37,0,0,1-.11.05"/><path class="cls-1" d="M120.12,196.76h.34a1.32,1.32,0,0,1,.34,0"/><path class="cls-1" d="M131.92,200l6.37,1.85"/><path class="cls-1" d="M138.29,201.87l.05,0s0,0,0,.05a.37.37,0,0,1-.11.05"/><path class="cls-1" d="M131.29,200a1.71,1.71,0,0,1,.32,0,1.63,1.63,0,0,1,.31,0"/><path class="cls-1" d="M142,202.94l5.79,1.68"/><path class="cls-1" d="M147.78,204.62s0,0,.05,0,0,0,0,0l0,0-.11,0"/><path class="cls-1" d="M141.4,202.91h.3a1.43,1.43,0,0,1,.29,0"/><path class="cls-1" d="M151.16,205.6l5.28,1.53"/><path class="cls-1" d="M156.44,207.13a.07.07,0,0,1,.05,0v0l0,0-.1,0"/><path class="cls-1" d="M150.59,205.57h.28a1.43,1.43,0,0,1,.29,0"/><path class="cls-1" d="M62.37,155.7a.52.52,0,0,1-.19-.11.16.16,0,0,1,0-.21"/><path class="cls-1" d="M84.57,164a.39.39,0,0,1-.16-.1c0-.06,0-.12,0-.17"/><path class="cls-1" d="M103.54,171.15a.24.24,0,0,1-.14-.09.08.08,0,0,1,0-.08.12.12,0,0,1,.06-.06"/><path class="cls-1" d="M119.93,177.3c-.14-.05-.16-.12,0-.2"/><path class="cls-1" d="M134.24,182.67a.09.09,0,0,1-.07,0,.09.09,0,0,1,0,0,.18.18,0,0,1,.1-.09"/><path class="cls-1" d="M146.83,187.4s0,0-.05,0a0,0,0,0,1,0-.05s.07-.06.1-.08"/><path class="cls-1" d="M158,191.6l-.05,0s0,0,0,0a.21.21,0,0,1,.1-.06"/><path class="cls-1" d="M168,195.34a.05.05,0,0,1-.05,0s0,0,0,0l.1-.05"/><path class="cls-1" d="M177,198.71l0,0s0,0,0,0l0,0,.1,0"/><path class="cls-1" d="M185.06,201.75c-.05,0-.05,0,0-.07l.09,0"/><path class="cls-1" d="M63.64,157l14.19,5.29"/><path class="cls-1" d="M85.82,165.29l12.09,4.5"/><path class="cls-1" d="M104.76,172.34l10.42,3.88"/><path class="cls-1" d="M121.12,178.43l9.08,3.38"/><path class="cls-1" d="M135.39,183.75l8,3"/><path class="cls-1" d="M148,188.42l7.07,2.63"/><path class="cls-1" d="M159.09,192.57l6.3,2.35"/><path class="cls-1" d="M169,196.27l5.65,2.11"/><path class="cls-1" d="M186.05,202.61l4.63,1.72"/><path class="cls-1" d="M159.76,208.22a.59.59,0,0,0-.4.23.69.69,0,0,0-.15.44"/><path class="cls-1" d="M154.62,247.22a1.27,1.27,0,0,1,0-.39"/><path class="cls-1" d="M154.25,222.82l-.05,0a.34.34,0,0,1-.12-.18.94.94,0,0,1-.06-.28.88.88,0,0,1,0-.28l.06-.13.06,0h.07"/><path class="cls-1" d="M154.23,221.86c0-.23,0-.45,0-.68v-.34c0-.12,0-.21,0-.33a6,6,0,0,0-.21-1.33,4.08,4.08,0,0,0-.23-.67,3.06,3.06,0,0,0-.29-.57,2,2,0,0,0-.26-.34,1.94,1.94,0,0,0-.26-.23,1.23,1.23,0,0,0-.26-.12h-.07l-.07,0-.14,0-.33-.08-.17,0-.08,0-.08,0a.65.65,0,0,0-.31,0,.81.81,0,0,0-.32.16,1.14,1.14,0,0,0-.19.19,1.53,1.53,0,0,0-.17.27,3,3,0,0,0-.27.7,5.52,5.52,0,0,0-.16,1.34V220c0,.12,0,.23,0,.34s0,.46,0,.69"/><path class="cls-1" d="M150.34,221.05l.06,0a.1.1,0,0,1,0,.06.47.47,0,0,1,.07.12,1.36,1.36,0,0,1,.06.29,1,1,0,0,1,0,.29.38.38,0,0,1-.06.13l-.06.05h-.07"/><path class="cls-1" d="M150.36,222q.31,11.8.61,23.6"/><path class="cls-1" d="M133.76,245.62a1.09,1.09,0,0,1,.1-.5"/><path class="cls-1" d="M133.63,218.61l-.06,0-.07-.06-.08-.14a1.16,1.16,0,0,1,0-.64.39.39,0,0,1,.08-.14.16.16,0,0,1,.14,0"/><path class="cls-1" d="M133.61,217.55c0-.26,0-.52,0-.78s0-.26,0-.39,0-.23,0-.37a6.56,6.56,0,0,0-.27-1.51,5.34,5.34,0,0,0-.28-.76,4.83,4.83,0,0,0-.37-.62,1.73,1.73,0,0,0-.31-.35,1.83,1.83,0,0,0-.31-.24.91.91,0,0,0-.31-.12l-.08,0-.09,0-.16,0-.77-.18-.18,0h-.18a.92.92,0,0,0-.36.13,1.24,1.24,0,0,0-.26.19,3.11,3.11,0,0,0-.23.28,2.71,2.71,0,0,0-.36.77,5.55,5.55,0,0,0-.25,1.51v.37c0,.13,0,.26,0,.39s0,.52,0,.78"/><path class="cls-1" d="M128.83,216.55l.07,0,.07.06a1.09,1.09,0,0,1,.08.15.88.88,0,0,1,.07.32.71.71,0,0,1,0,.32.44.44,0,0,1-.08.15.17.17,0,0,1-.15,0"/><path class="cls-1" d="M128.85,217.63l.42,26.19"/><path class="cls-1" d="M107.76,243.64a1.08,1.08,0,0,1,0-.36A.71.71,0,0,1,108,243"/><path class="cls-1" d="M108,213.37a.11.11,0,0,1-.08,0l-.08-.06a.86.86,0,0,1-.1-.16,1.12,1.12,0,0,1-.09-.36,1,1,0,0,1,.06-.37.49.49,0,0,1,.1-.15.23.23,0,0,1,.18-.05"/><path class="cls-1" d="M108,212.19v-1.36c0-.14,0-.28,0-.42a6.54,6.54,0,0,0-.34-1.75,5.87,5.87,0,0,0-.37-.86,4.72,4.72,0,0,0-.48-.69,3.23,3.23,0,0,0-.37-.37,2.55,2.55,0,0,0-.39-.24l-.18-.08-.19,0-.4-.09-.9-.21-.11,0-.1,0h-.21a1.57,1.57,0,0,0-.43.09,1.67,1.67,0,0,0-.64.47,2.73,2.73,0,0,0-.51.83,5.26,5.26,0,0,0-.37,1.74c0,.15,0,.27,0,.42v1.36"/><path class="cls-1" d="M102,210.93a.37.37,0,0,1,.16.1.76.76,0,0,1,.11.16,1.25,1.25,0,0,1,.09.37,1,1,0,0,1-.06.38.46.46,0,0,1-.11.16.2.2,0,0,1-.18,0"/><path class="cls-1" d="M102,212.14q0,14.72.11,29.42"/><path class="cls-1" d="M75.34,205.36c0-.36,0-.72,0-1.08v-.54c0-.17,0-.33,0-.5a7,7,0,0,0-.48-2.06,5.78,5.78,0,0,0-.51-1,4,4,0,0,0-.64-.78,2.76,2.76,0,0,0-.46-.37,2.64,2.64,0,0,0-.47-.25l-.23-.08-.11,0-.12,0-.5-.11-1.07-.25-.13,0-.12,0-.25,0a1.8,1.8,0,0,0-.52,0,2.11,2.11,0,0,0-.87.44,3,3,0,0,0-.71.88,5,5,0,0,0-.59,2,4.19,4.19,0,0,0,0,.5v1.62"/><path class="cls-1" d="M67.51,203.72a.49.49,0,0,1,.2.11.79.79,0,0,1,.14.18,1.16,1.16,0,0,1,.12.44.9.9,0,0,1-.1.45.57.57,0,0,1-.15.16.37.37,0,0,1-.23,0"/><path class="cls-1" d="M67.49,205.1l-.39,33.55"/><path class="cls-1" d="M74.45,241.09a1.36,1.36,0,0,1,.14-.56.59.59,0,0,1,.19-.22l.06,0,.06,0a.31.31,0,0,0,.09-.11"/><path class="cls-1" d="M30.27,237.72a1.13,1.13,0,0,1,.09-.45,1,1,0,0,1,.25-.38l.19-.13.1,0,.09-.08a.54.54,0,0,0,.1-.2l0-.12v-.11"/><path class="cls-1" d="M88.83,207.25v-2.51c0-.42,0-.83,0-1.25v-.2a1.09,1.09,0,0,1,0-.18.79.79,0,0,1,.13-.33.35.35,0,0,1,.21-.17.3.3,0,0,1,.23,0,.5.5,0,0,1,.2.15,1,1,0,0,1,.17.28,1.78,1.78,0,0,1,.09.33c0,.06,0,.11,0,.16v.17c0,.42,0,.84,0,1.26v2.51"/><path class="cls-1" d="M143.62,218.91l-.05-2c0-.32,0-.65,0-1v-.14a.57.57,0,0,0,0-.13,1.28,1.28,0,0,0,0-.27,1,1,0,0,0-.11-.23l-.06-.07a.18.18,0,0,0-.07,0,.16.16,0,0,0-.15,0l-.07.06a.21.21,0,0,0-.06.1,1,1,0,0,0-.07.28.22.22,0,0,1,0,.08v.24c0,.33,0,.66,0,1,0,.66,0,1.31,0,2"/><path class="cls-1" d="M120.52,214c0-.73,0-1.47,0-2.2l0-1.09v-.23a.17.17,0,0,0,0-.07,1.59,1.59,0,0,0-.06-.3,1,1,0,0,0-.13-.25.54.54,0,0,0-.16-.14.25.25,0,0,0-.19,0,.24.24,0,0,0-.09.06.36.36,0,0,0-.07.1.8.8,0,0,0-.09.31.86.86,0,0,0,0,.16v.18c0,.37,0,.73,0,1.1l0,2.19"/><path class="cls-1" d="M75.33,206.7a.45.45,0,0,1-.19-.11.7.7,0,0,1-.13-.17.92.92,0,0,1-.11-.43.81.81,0,0,1,.08-.43.57.57,0,0,1,.15-.16.31.31,0,0,1,.21,0"/><path class="cls-1" d="M51.64,199.34a2.22,2.22,0,0,1,.49.82,2.75,2.75,0,0,1,.17,1,2.61,2.61,0,0,1,0,.48,2,2,0,0,1-.14.46,1.35,1.35,0,0,1-.64.69"/><path class="cls-1" d="M89.88,207.48a1.41,1.41,0,0,1,.24.36,2,2,0,0,1,.18.48,2.47,2.47,0,0,1,.09.94,2,2,0,0,1-.09.48,1.38,1.38,0,0,1-.19.41.81.81,0,0,1-.38.33.64.64,0,0,1-.43,0,1,1,0,0,1-.36-.2,1.7,1.7,0,0,1-.33-.42,2.59,2.59,0,0,1-.29-.89,2.76,2.76,0,0,1,0-.95,1.72,1.72,0,0,1,.19-.49.92.92,0,0,1,.28-.31"/><path class="cls-1" d="M143,218.77a1,1,0,0,0-.16.26,1.74,1.74,0,0,0-.11.39,2.65,2.65,0,0,0,.17,1.4,1.25,1.25,0,0,0,.21.35l.12.11.12.06a.34.34,0,0,0,.29-.05.53.53,0,0,0,.13-.13.72.72,0,0,0,.11-.19,1.89,1.89,0,0,0,.13-.7,2.85,2.85,0,0,0-.07-.71,2.65,2.65,0,0,0-.12-.37,2.54,2.54,0,0,0-.16-.28"/><path class="cls-1" d="M119.71,213.82a.94.94,0,0,0-.21.28,1.73,1.73,0,0,0-.14.44,2.44,2.44,0,0,0,0,.81,2.34,2.34,0,0,0,.22.77,1.42,1.42,0,0,0,.26.38.81.81,0,0,0,.29.19.47.47,0,0,0,.35,0l.16-.13a.86.86,0,0,0,.13-.2,1.86,1.86,0,0,0,.14-.37,3,3,0,0,0,0-.42,2.72,2.72,0,0,0-.08-.8,1.77,1.77,0,0,0-.15-.42,1.23,1.23,0,0,0-.19-.31"/><path class="cls-1" d="M61.84,212.54a2.25,2.25,0,0,1-.32,1.16,1.37,1.37,0,0,1-.38.38,1,1,0,0,1-.43.14,1,1,0,0,1-.42-.07,1.37,1.37,0,0,1-.42-.29,2.21,2.21,0,0,1-.36-.49,2.77,2.77,0,0,1-.22-.63,3.19,3.19,0,0,1-.07-.54v-.55c0-.37,0-.75,0-1.12,0-.74,0-1.48,0-2.21v-.17c0-.05,0-.11,0-.16s0-.21.06-.32a2,2,0,0,1,.24-.53,1.24,1.24,0,0,1,.36-.36.86.86,0,0,1,.44-.15,1.12,1.12,0,0,1,.44.09,1.31,1.31,0,0,1,.43.31,2,2,0,0,1,.33.48,2.71,2.71,0,0,1,.22.6,2.68,2.68,0,0,1,.07.56v.55c0,.37,0,.74,0,1.1Z"/><path class="cls-1" d="M147.8,227.49a2.26,2.26,0,0,1,0,.45,1.93,1.93,0,0,1-.12.41.51.51,0,0,1-.09.16.52.52,0,0,1-.1.11.34.34,0,0,1-.22.09.32.32,0,0,1-.21-.08.52.52,0,0,1-.11-.1.71.71,0,0,1-.1-.14,1.42,1.42,0,0,1-.17-.4,2.21,2.21,0,0,1-.1-.46c0-.05,0-.11,0-.17v-.54c0-.25,0-.5,0-.74l0-1.46a1.92,1.92,0,0,1,0-.24,1.81,1.81,0,0,1,0-.23,1.4,1.4,0,0,1,.11-.4.76.76,0,0,1,.18-.26.36.36,0,0,1,.22-.09.36.36,0,0,1,.23.09.82.82,0,0,1,.21.25,1.8,1.8,0,0,1,.16.38,2.21,2.21,0,0,1,.1.46c0,.06,0,.12,0,.18v.18c0,.12,0,.24,0,.36s0,.49,0,.73Z"/><path class="cls-1" d="M136.86,225.58a2.58,2.58,0,0,0,.14.83,1.62,1.62,0,0,0,.17.35.87.87,0,0,0,.2.23.39.39,0,0,0,.54,0,1.58,1.58,0,0,0,.12-.15,1.86,1.86,0,0,0,.1-.2,2.21,2.21,0,0,0,.11-.51,1.09,1.09,0,0,0,0-.18v-.19c0-.13,0-.26,0-.39s0-.52,0-.78,0-.51,0-.77v-.38c0-.13,0-.26,0-.38a2.5,2.5,0,0,0-.15-.85,1.66,1.66,0,0,0-.16-.33.87.87,0,0,0-.2-.23.38.38,0,0,0-.55,0,.61.61,0,0,0-.12.15l-.09.19a2.13,2.13,0,0,0-.11.5,1.15,1.15,0,0,1,0,.19c0,.06,0,.13,0,.19v.39c0,.25,0,.51,0,.77Z"/><line class="cls-1" x1="159.76" y1="208.22" x2="193.17" y2="204.67"/><path class="cls-1" d="M59.41,169.28l-.3.08-.23.11a.27.27,0,0,0-.08.07l0,.06a.17.17,0,0,0,0,.14.26.26,0,0,0,.11.14,1.37,1.37,0,0,0,.2.13l.28.1a3.58,3.58,0,0,0,.35.09l.44.07.5,0a6.93,6.93,0,0,0,1,0,4.51,4.51,0,0,0,.53-.07l.23-.05.23-.05.94-.21,1-.22.48-.11.24,0,.24-.06a1.58,1.58,0,0,0,.31-.09.76.76,0,0,0,.22-.11.3.3,0,0,0,.12-.13.15.15,0,0,0,0-.13.3.3,0,0,0-.09-.13.63.63,0,0,0-.2-.13,1.62,1.62,0,0,0-.28-.11l-.37-.1a6.14,6.14,0,0,0-1-.12,6.68,6.68,0,0,0-1,0,4.86,4.86,0,0,0-.55.07l-.23,0-.23.05-.92.21Z"/><path class="cls-1" d="M81.68,176.49l-.38.06-.46,0a8.52,8.52,0,0,1-1,0l-.39-.05a3.43,3.43,0,0,1-.34-.06l-.26-.08-.21-.09c-.26-.15-.23-.31,0-.44l.17-.07.19-.06.22-.05.25,0,1-.2.91-.18.46-.09.22,0,.12,0,.11,0,.42-.06a3.59,3.59,0,0,1,.47,0,6.13,6.13,0,0,1,1,0l.39.05.35.07.28.08a1.24,1.24,0,0,1,.2.1.35.35,0,0,1,.13.11.2.2,0,0,1,0,.11.24.24,0,0,1-.06.11.71.71,0,0,1-.14.1l-.16.07-.2.06-.23,0-.24.05-1,.2Z"/><path class="cls-1" d="M163.42,203a8.83,8.83,0,0,1-1.36,0l-.27,0-.19,0-.11-.05,0,0a0,0,0,0,1,0,0s0,0,0,0,0,0,0,0l.06,0,.07,0,.21,0,.26-.05.32,0,.34,0,.69-.08.67-.08.34,0,.34,0c.23,0,.47,0,.7,0a4.87,4.87,0,0,1,.66,0l.26,0,.2,0,.07,0,.05,0,0,0a.05.05,0,0,1,0,.06l0,0-.05,0-.07,0-.2,0-.27.05-.33,0-.34,0-.68.08Z"/><path class="cls-1" d="M153.1,199.62l-.28,0-.24.05-.1,0-.08,0-.05,0a.08.08,0,0,0,0,0c0,.06.06.1.11.12l.15.05.24,0,.32,0h.36c.24,0,.49,0,.73,0l.35,0,.35,0,.71-.09.7-.09.35,0,.36-.05.29,0,.24-.06.16-.06.05,0a.08.08,0,0,0,0,0c0-.06,0-.1-.09-.12l-.16-.05-.24,0-.32,0h-.35c-.24,0-.5,0-.75,0l-.35,0-.35,0-.7.09Z"/><path class="cls-1" d="M115.45,187.43a1.59,1.59,0,0,0-.3.06l-.25.07-.09.05-.07,0a.08.08,0,0,0,0,0s0,0,0,.05a.13.13,0,0,0,0,.09l.06,0,.08,0,.21.06a2.3,2.3,0,0,0,.28.06l.37,0,.42,0a6,6,0,0,0,.85,0l.21,0,.19,0,.41-.06.81-.13.81-.13.41-.06.4-.07.31-.06.24-.08.09,0,.07,0,0,0,0-.05a.11.11,0,0,0,0-.09.1.1,0,0,0,0,0,.2.2,0,0,0-.08,0,.76.76,0,0,0-.21-.08l-.29-.06a7,7,0,0,0-.79-.06c-.28,0-.57,0-.85,0l-.22,0-.2,0-.4.07-.8.13Z"/><path class="cls-1" d="M130.06,192.16l-.35,0-.39,0a7.48,7.48,0,0,1-.82,0l-.33,0-.25,0-.18-.06-.06,0-.05,0c-.06-.06,0-.12.06-.16l.08,0,.09,0,.25-.07.17,0,.19,0,.39-.06.8-.12.77-.11.39-.06.19,0,.2,0a5,5,0,0,1,.77-.06,6.94,6.94,0,0,1,.79,0l.32,0,.27.06.18.06.06,0,0,0c.05.07,0,.12-.07.16l-.07,0-.1,0a2.1,2.1,0,0,1-.24.06l-.18,0-.19,0-.4.06-.78.11Z"/></svg>