<svg id="Capa_1" data-name="Capa 1" xmlns="http://www.w3.org/2000/svg" viewBox="0 0 141.73 283.46"><defs><style>.cls-1{fill:none;stroke:#fff;stroke-linecap:round;stroke-linejoin:round;stroke-dasharray:0.45 0.45;}</style></defs><line class="cls-1" x1="64.35" y1="180.5" x2="66.63" y2="216.68"/><line class="cls-1" x1="22.88" y1="181.51" x2="25.26" y2="221.07"/><path class="cls-1" d="M92.07,214l-1.95-34.11"/><path class="cls-1" d="M24.28,181.43l-.62-.25"/><path class="cls-1" d="M34,185.22l-9.75-3.79"/><path class="cls-1" d="M39.61,188.32a1.42,1.42,0,0,0,.86-.41,1.7,1.7,0,0,0,.33-.42c.09-.14.18-.29.28-.42a4.57,4.57,0,0,1,.72-.8,3.82,3.82,0,0,1,.79-.51L46.21,184l7.25-3.53"/><path class="cls-1" d="M41.07,212.16a1.5,1.5,0,0,0-1,.43,2.72,2.72,0,0,0-.34.42.54.54,0,0,1-.07.13l-.07.12-.14.22a5.57,5.57,0,0,1-.71.83,3.47,3.47,0,0,1-.42.34,1.07,1.07,0,0,1-.22.15l-.24.14"/><path class="cls-1" d="M55.87,217.83q-1.08-18.54-2.18-37.09"/><path class="cls-1" d="M73.6,278.1l-6.38,1.59"/><path class="cls-1" d="M122.64,265.86l-5,1.25"/><path class="cls-1" d="M107.57,269.62,102.16,271"/><path class="cls-1" d="M33.28,256.26l4-.73"/><path class="cls-1" d="M72.64,249.08l3.38-.62"/><path class="cls-1" d="M86,246.64h0"/><path class="cls-1" d="M80,249.63a.4.4,0,0,0,.1.12.64.64,0,0,0,.15.13,3,3,0,0,0,.48.23,6.59,6.59,0,0,0,.72.22l1,.19,1.19.17,1.41.14c1.69.14,3.53.19,5.22.21s3.49,0,5.23-.08l2.61-.13,1.32-.08,1.29-.1"/><path class="cls-1" d="M40.53,257.11a.42.42,0,0,0,.09.24,1,1,0,0,0,.24.22,2.65,2.65,0,0,0,.53.27,7.32,7.32,0,0,0,1.13.33,20.35,20.35,0,0,0,2.34.37"/><path class="cls-1" d="M43.31,255.8a12.65,12.65,0,0,0-1.57.54,5.12,5.12,0,0,0-.73.39c-.18.13-.48.37-.47.65"/><path class="cls-1" d="M76.19,255.29a.54.54,0,0,0-.21-.37,1.46,1.46,0,0,0-.24-.17l-.32-.16a7.6,7.6,0,0,0-.92-.3c-.41-.1-.82-.18-1.23-.25s-1-.15-1.52-.21-1.19-.11-1.78-.15c-2.15-.15-4.48-.18-6.63-.15s-4.44.14-6.63.29-4.43.38-6.59.67"/><path class="cls-1" d="M76.18,255a.63.63,0,0,0-.08-.23,1.1,1.1,0,0,0-.22-.21,2.43,2.43,0,0,0-.35-.2c-.15-.07-.31-.13-.48-.19l-.6-.17-.71-.16c-.59-.11-1.17-.19-1.76-.26s-1.42-.14-2.14-.19-1.63-.09-2.45-.11c-3-.09-6.21,0-9.19.17q-1.16.06-2.31.15l-2.27.2c-1.53.15-3,.33-4.57.55l-1.25.2-1.17.2c-.7.13-1.4.28-2.1.44s-1.15.29-1.72.47l-.69.24a5.72,5.72,0,0,0-.57.24,4,4,0,0,0-.46.24,2.43,2.43,0,0,0-.32.24,1.12,1.12,0,0,0-.19.24.46.46,0,0,0,0,.23"/><path class="cls-1" d="M8.44,116.41a.94.94,0,0,0-.53.47,1.06,1.06,0,0,0-.13.39.75.75,0,0,0,0,.21.41.41,0,0,0,0,.11c0,.07,0,.15,0,.23l.15,2.49c.08,1.39.17,2.78.25,4.18l.51,8.36.51,8.37c.08,1.39.17,2.78.25,4.17l0,.4v.05a.13.13,0,0,0,0,.06.5.5,0,0,0,0,.12,1.25,1.25,0,0,0,.07.26,1.51,1.51,0,0,0,.26.46,1.29,1.29,0,0,0,.37.33,1.24,1.24,0,0,0,.2.1l.1,0h.08l.23,0,1.61.19"/><line class="cls-1" x1="92.35" y1="213.98" x2="92.5" y2="213.97"/><path class="cls-1" d="M90.4,179.82l6.1,1.93,3,1,1.52.48a2.72,2.72,0,0,1,.37.13l.35.17a4.42,4.42,0,0,1,.71.48,5.51,5.51,0,0,1,1,1.11,6.54,6.54,0,0,1,.72,1.45,7.23,7.23,0,0,1,.38,1.59c0,.31.05.5.07.81s0,.55,0,.83l.36,6.4q.18,3.19.37,6.39c0,.28,0,.56,0,.84a7.31,7.31,0,0,1,0,.81,8,8,0,0,1-.17,1.62,6.28,6.28,0,0,1-.55,1.52,4.74,4.74,0,0,1-.85,1.23,4.16,4.16,0,0,1-1.32,1l-1.47.64-2.9,1.26L92.35,214"/><line class="cls-1" x1="90.56" y1="179.81" x2="90.4" y2="179.82"/><path class="cls-1" d="M98.28,211.45l4.42-1.93a2.73,2.73,0,0,0,.45-.23,3.52,3.52,0,0,0,.45-.3,4.9,4.9,0,0,0,.81-.83,6.34,6.34,0,0,0,1.06-2.37,7.92,7.92,0,0,0,.16-1.19c0-.19,0-.39,0-.58s0-.4,0-.59c0-.82-.09-1.63-.14-2.45l-.27-4.82-.27-4.81c-.05-.82-.09-1.63-.14-2.45,0-.19,0-.39,0-.59a5.77,5.77,0,0,0-.08-.58,7.91,7.91,0,0,0-.3-1.16,6.25,6.25,0,0,0-1.33-2.23,4.5,4.5,0,0,0-.9-.73,3,3,0,0,0-.47-.25,4.68,4.68,0,0,0-.48-.18l-4.6-1.46"/><path class="cls-1" d="M80.22,209.4a5.59,5.59,0,0,1-1,1.56,4,4,0,0,1-.71.64c-.12.08-.24.16-.37.23l-.39.19-3.34,1.53-6.68,3.06"/><path class="cls-1" d="M78.79,186.16a7.82,7.82,0,0,1,1,2.76,5.56,5.56,0,0,1,.08.7l0,.36,0,.38c0,.49.06,1,.08,1.49l.34,5.88q.18,2.93.34,5.87l.09,1.49c0,.25,0,.5,0,.74s0,.47,0,.71a7.82,7.82,0,0,1-.59,2.86"/><path class="cls-1" d="M65.65,180.42l6.92,2.34L76,183.93l.22.07.2.07.4.17a4.55,4.55,0,0,1,.79.53,5.54,5.54,0,0,1,1.16,1.39"/><path class="cls-1" d="M67.58,216.62l6-2.75,2.94-1.34.74-.34.37-.17.36-.18a4.07,4.07,0,0,0,1.3-1.14,6,6,0,0,0,.77-1.34,7.64,7.64,0,0,0,.45-1.6,8.53,8.53,0,0,0,.11-1.67c0-.14,0-.28,0-.42s0-.29,0-.43l0-.86q-.2-3.3-.38-6.6l-.38-6.59c0-.29,0-.58,0-.87l0-.43a2.93,2.93,0,0,0,0-.41,8.35,8.35,0,0,0-.32-1.64,8,8,0,0,0-.65-1.54,6.52,6.52,0,0,0-.93-1.23,4.37,4.37,0,0,0-1.43-1L76,184l-.38-.13-.78-.26-3.07-1-6.26-2.12"/><path class="cls-1" d="M35.09,185.55l.64.25.33.13c.1,0,.2.07.3.12a4.2,4.2,0,0,1,1.13.75,5.32,5.32,0,0,1,.47.48l.21.26a1.71,1.71,0,0,0,.11.14l.11.13a1.57,1.57,0,0,0,1.22.51"/><path class="cls-1" d="M55.67,218.14l-7.57-2.55-3.79-1.27-.22-.08-.21-.09c-.15-.07-.28-.15-.42-.23a4.36,4.36,0,0,1-.8-.68,3.9,3.9,0,0,1-.33-.38,1.63,1.63,0,0,0-.17-.2,1.12,1.12,0,0,0-.2-.18,1.43,1.43,0,0,0-.89-.32"/><path class="cls-1" d="M26.61,221l1.38-.75"/><path class="cls-1" d="M26.07,221.29l.54-.3"/><line class="cls-1" x1="56.12" y1="217.85" x2="56.31" y2="217.83"/><path class="cls-1" d="M53.94,180.7l6.31,2.21L63.34,184l.78.27.39.13a2.87,2.87,0,0,1,.37.15,4.23,4.23,0,0,1,1.42,1.06,6.09,6.09,0,0,1,.9,1.29,8.32,8.32,0,0,1,.91,3.23c0,.14,0,.28,0,.42l0,.44c0,.29,0,.58,0,.88l.39,6.68.39,6.68c0,.29,0,.58,0,.87s0,.29,0,.44l0,.43a9.47,9.47,0,0,1-.09,1.68,6.94,6.94,0,0,1-1.13,3,4.45,4.45,0,0,1-1.28,1.24,2.91,2.91,0,0,1-.35.18l-.38.18-.74.35L62.18,215l-6.06,2.85"/><line class="cls-1" x1="54.12" y1="180.7" x2="53.94" y2="180.7"/><path class="cls-1" d="M38,214.76a4.2,4.2,0,0,1-1.18,1.12l-.35.18-.36.19-.73.36-2.91,1.46L26.67,221"/><path class="cls-1" d="M24.29,181.43l5.63,2.14,2.81,1.07,1.41.53.7.27a3.21,3.21,0,0,1,.66.35"/><path class="cls-1" d="M26.46,221l6.17-3.09,2.94-1.48.74-.37.35-.19.34-.25a4.7,4.7,0,0,0,1.22-1.51,8.26,8.26,0,0,0,.9-3.22,8.44,8.44,0,0,0,0-.87c0-.33,0-.53,0-.86,0-.6-.07-1.19-.11-1.79-.13-2.3-.27-4.59-.41-6.89s-.27-4.59-.41-6.88c0-.6-.07-1.2-.1-1.8a11,11,0,0,0-.24-1.71A8.32,8.32,0,0,0,36.53,187a4.9,4.9,0,0,0-1.39-1.33,2.58,2.58,0,0,0-.37-.19,3,3,0,0,0-.38-.15l-.78-.3-3.08-1.17-6.45-2.46"/><path class="cls-1" d="M39.1,268.71a1.06,1.06,0,0,0,.13.46.61.61,0,0,0,.33.32"/><path class="cls-1" d="M52.65,282.48a1.24,1.24,0,0,1-.08.57.6.6,0,0,1-.39.4"/><line class="cls-1" x1="51.82" y1="271.61" x2="52.46" y2="282.44"/><line class="cls-1" x1="51.36" y1="263.98" x2="51.54" y2="266.89"/><line class="cls-1" x1="51.56" y1="264.01" x2="52.65" y2="282.48"/><line class="cls-1" x1="19.22" y1="258.96" x2="50.75" y2="262.8"/><line class="cls-1" x1="50.77" y1="263.1" x2="19.23" y2="259.23"/><line class="cls-1" x1="33.07" y1="256.43" x2="19.22" y2="258.96"/><line class="cls-1" x1="73.11" y1="249.11" x2="53.72" y2="252.66"/><line class="cls-1" x1="100.3" y1="244.14" x2="89.93" y2="246.04"/><line class="cls-1" x1="50.97" y1="254.38" x2="43.31" y2="255.8"/><line class="cls-1" x1="88.21" y1="247.47" x2="81.76" y2="248.67"/><path class="cls-1" d="M90.86,255.88a1,1,0,0,0,.17.33.47.47,0,0,0,.31.18"/><path class="cls-1" d="M90.6,255.26a2.48,2.48,0,0,0-.19-.26,1.2,1.2,0,0,0-.22-.23"/><path class="cls-1" d="M100.74,252.88l-.57,0"/><path class="cls-1" d="M100.73,252.62a3.56,3.56,0,0,0-.57,0"/><path class="cls-1" d="M100.73,252.62a1.24,1.24,0,0,1,.46.08.66.66,0,0,1,.34.32"/><line class="cls-1" x1="91.22" y1="256.36" x2="100.88" y2="254.35"/><path class="cls-1" d="M91.34,256.39l9.93-2.06"/><line class="cls-1" x1="73.52" y1="260.04" x2="84.23" y2="257.81"/><path class="cls-1" d="M73.65,260.08l10.78-2.25"/><path class="cls-1" d="M73.12,259.55a1.17,1.17,0,0,0,.2.34.55.55,0,0,0,.33.19"/><path class="cls-1" d="M72.86,258.9l-.18-.27a1.73,1.73,0,0,0-.21-.25"/><line class="cls-1" x1="83.33" y1="256.36" x2="72.62" y2="258.55"/><line class="cls-1" x1="83.31" y1="256.09" x2="72.53" y2="258.28"/><path class="cls-1" d="M53.82,263.54a1,1,0,0,0,.21.35.57.57,0,0,0,.34.2"/><path class="cls-1" d="M53.55,262.86l-.18-.28c0-.05-.15-.23-.19-.27"/><path class="cls-1" d="M67.45,279.57a.43.43,0,0,1-.23.12"/><line class="cls-1" x1="67.45" y1="279.57" x2="67.32" y2="279.32"/><line class="cls-1" x1="67.5" y1="279.52" x2="67.36" y2="279.28"/><path class="cls-1" d="M67.47,278.8a.69.69,0,0,1,.16.36.41.41,0,0,1-.13.36"/><path class="cls-1" d="M67.13,278.62l-11.71,2.89"/><path class="cls-1" d="M54.82,282.4l.27-.53"/><line class="cls-1" x1="85.51" y1="274.79" x2="85.64" y2="275.03"/><line class="cls-1" x1="85.69" y1="274.98" x2="85.55" y2="274.75"/><path class="cls-1" d="M85.68,274.29a.49.49,0,0,1,0,.69"/><path class="cls-1" d="M85.37,274.11l-10.75,2.65"/><path class="cls-1" d="M74.06,277.61c.09-.17.17-.34.26-.5"/><path class="cls-1" d="M102.26,270.62a.4.4,0,0,1-.17.09"/><path class="cls-1" d="M102.38,270.85a.48.48,0,0,1-.22.12"/><line class="cls-1" x1="102.26" y1="270.62" x2="102.38" y2="270.85"/><line class="cls-1" x1="102.44" y1="270.8" x2="102.3" y2="270.59"/><path class="cls-1" d="M102.45,270.14a.47.47,0,0,1,0,.66"/><path class="cls-1" d="M91.74,273.21c.09-.16.16-.32.24-.48"/><path class="cls-1" d="M117.85,267a.46.46,0,0,1-.23.12"/><line class="cls-1" x1="117.85" y1="266.99" x2="117.73" y2="266.77"/><line class="cls-1" x1="117.91" y1="266.94" x2="117.77" y2="266.74"/><path class="cls-1" d="M117.93,266.3a.46.46,0,0,1,0,.64"/><path class="cls-1" d="M117.67,266.12l-9.15,2.26"/><path class="cls-1" d="M108,269.15a4.78,4.78,0,0,0,.23-.45"/><line class="cls-1" x1="132.06" y1="263.2" x2="132.19" y2="263.42"/><path class="cls-1" d="M132.08,262.72a.29.29,0,0,1,0,.45"/><line class="cls-1" x1="132.24" y1="263.37" x2="132.1" y2="263.17"/><path class="cls-1" d="M132.28,262.74a.45.45,0,0,1,0,.63"/><path class="cls-1" d="M132.28,262.74a.37.37,0,0,0-.25-.17"/><path class="cls-1" d="M132,262.57l-8.48,2.1"/><path class="cls-1" d="M123.1,265.41a4.54,4.54,0,0,0,.21-.45"/><path class="cls-1" d="M48.52,254.81a.61.61,0,0,0,.16-.12"/><path class="cls-1" d="M49.18,253.37h0"/><path class="cls-1" d="M49,253.61l.43-.07"/><path class="cls-1" d="M85.62,247.83a.37.37,0,0,1-.15.13"/><path class="cls-1" d="M85.86,246.87l.52-.1"/><path class="cls-1" d="M81.76,248.67a6.48,6.48,0,0,0-1,.35c-.22.1-.7.33-.8.61"/><path class="cls-1" d="M100.45,246.7c-1.24,0-2.48,0-3.72.1s-2.48.12-3.72.21c-2.39.17-5,.44-7.39.82"/><path class="cls-1" d="M107,246.61c-2.22-.15-4.67-.18-6.89-.15-1.15,0-2.3,0-3.45.1s-2.29.12-3.44.2c-2.23.16-4.64.39-6.86.72l-1.82.3c-.52.09-1,.2-1.56.32s-.87.21-1.3.35l-.52.17-.43.18a2.21,2.21,0,0,0-.34.18l-.24.18a1.15,1.15,0,0,0-.14.17.37.37,0,0,0,0,.18"/><path class="cls-1" d="M44.86,258.54a71.24,71.24,0,0,0,8,.32c1.33,0,2.67-.05,4-.12l1,0,1-.06,2-.14c.68-.05,1.36-.11,2-.18l1-.1,1-.1c1.33-.16,2.65-.33,4-.55.71-.12,1.42-.24,2.12-.39s1.21-.25,1.81-.41,1-.27,1.5-.44a6,6,0,0,0,.59-.23,4.31,4.31,0,0,0,.49-.22c.13-.07.26-.14.38-.22a2,2,0,0,0,.27-.22.62.62,0,0,0,.15-.21.54.54,0,0,0,.05-.21"/><line class="cls-1" x1="87.46" y1="247.57" x2="85.53" y2="247.92"/><line class="cls-1" x1="48.59" y1="254.77" x2="50.12" y2="254.49"/><path class="cls-1" d="M63.73,125.3l-.48-8.19,0-.82,0-.41a2.85,2.85,0,0,0,0-.4,1.74,1.74,0,0,0-.35-.74,1.08,1.08,0,0,0-.28-.24l-.14-.07-.07,0h0l-.1,0-.55-.11a43.58,43.58,0,0,0-4.4-.64,68.7,68.7,0,0,0-16.34.82c-2.71.39-5.4.84-8.11,1.26s-5.4.78-8.13,1a74.67,74.67,0,0,1-8.19.33,59,59,0,0,1-6.64-.49c-.29,0-.57-.07-.86-.12l-.28,0H8.51l-.23,0"/><path class="cls-1" d="M78.89,186.32a2.6,2.6,0,0,0,.1-.25.65.65,0,0,0,0-.13s0-.09,0-.13a4.4,4.4,0,0,1,.21-.5,2.4,2.4,0,0,1,.69-.83"/><path class="cls-1" d="M92.2,214h.15"/><path class="cls-1" d="M28.17,220.24l-1.93,1"/><path class="cls-1" d="M56.25,217.83h.06"/><path class="cls-1" d="M56,217.85h.08"/><path class="cls-1" d="M49.15,253.37l3.75-.69"/><path class="cls-1" d="M86,246.64l3.18-.58"/><path class="cls-1" d="M51.54,266.89l-12,2.56"/><path class="cls-1" d="M102.09,270.71h0"/><path class="cls-1" d="M51.82,271.61a29.71,29.71,0,0,1-3.13,0,18.09,18.09,0,0,1-3.1-.44l-.11,0-.06,0-1.33-.37-1.51-.42-3-.83"/><path class="cls-1" d="M121.62,248.36h0"/><path class="cls-1" d="M100.67,250.65c2-.17,4.21-.4,6.21-.71,1-.16,2.09-.35,3.07-.59l.82-.22c.23-.06.46-.13.68-.21a4.71,4.71,0,0,0,.52-.21,2.75,2.75,0,0,0,.38-.2,1.35,1.35,0,0,0,.27-.2.69.69,0,0,0,.13-.2"/><path class="cls-1" d="M112.75,248.11a.25.25,0,0,0,0-.12"/><path class="cls-1" d="M112.75,248.11a.6.6,0,0,0-.2-.22,2.1,2.1,0,0,0-.39-.21,5.88,5.88,0,0,0-.71-.23,14.69,14.69,0,0,0-1.47-.29c-1-.15-2-.24-3-.31"/><path class="cls-1" d="M50.12,254.49l-1.23.17"/><path class="cls-1" d="M48.89,254.66l-.21,0"/><path class="cls-1" d="M48.68,254.69c-1.55.24-3.31.56-4.83,1"/><path class="cls-1" d="M43.85,255.65l-.35.09"/><path class="cls-1" d="M43.5,255.74l-.19.06"/><path class="cls-1" d="M68.13,216.44l-.82.45"/><path class="cls-1" d="M67.63,216.62l-.43.24"/><path class="cls-1" d="M89.82,179.64l.09,0"/><path class="cls-1" d="M91.79,214.22l-10.3-3.51"/><path class="cls-1" d="M65.07,180.23l.49.19"/><line class="cls-1" x1="92.37" y1="213.98" x2="91.89" y2="214.25"/><line class="cls-1" x1="91.79" y1="214.22" x2="92.2" y2="213.98"/><line class="cls-1" x1="90.27" y1="179.83" x2="89.82" y2="179.64"/><path class="cls-1" d="M96.59,181.72l-6-1.91"/><path class="cls-1" d="M90.27,179.83h-.15"/><line class="cls-1" x1="65.07" y1="180.23" x2="65.17" y2="180.18"/><line class="cls-1" x1="65.56" y1="180.42" x2="65.65" y2="180.42"/><line class="cls-1" x1="67.63" y1="216.62" x2="67.58" y2="216.62"/><line class="cls-1" x1="67.2" y1="216.86" x2="66.63" y2="216.68"/><path class="cls-1" d="M38,214.76a4.71,4.71,0,0,0,1.38-1.43l.12-.21.14-.21a2,2,0,0,1,.33-.38,1.41,1.41,0,0,1,.91-.36"/><line class="cls-1" x1="56.24" y1="217.83" x2="55.67" y2="218.14"/><line class="cls-1" x1="55.57" y1="218.1" x2="56.04" y2="217.85"/><line class="cls-1" x1="53.9" y1="180.71" x2="53.36" y2="180.51"/><path class="cls-1" d="M53.9,180.71h-.21"/><line class="cls-1" x1="24.28" y1="181.43" x2="24.29" y2="181.43"/><path class="cls-1" d="M35.5,185.79A5,5,0,0,1,36.73,187a7.49,7.49,0,0,1,1,1.79,8.91,8.91,0,0,1,.49,1.82,7,7,0,0,1,.12.92l0,.46,0,.49L38.8,200l.45,7.52c0,.32,0,.64,0,1l0,.48,0,.47a10.27,10.27,0,0,1-.07,1.84,8.47,8.47,0,0,1-.45,1.93,6.35,6.35,0,0,1-.82,1.57"/><line class="cls-1" x1="26.61" y1="220.99" x2="26.46" y2="221.01"/><line class="cls-1" x1="26.12" y1="221.26" x2="25.43" y2="221.07"/><line class="cls-1" x1="23.72" y1="181.21" x2="23.82" y2="181.17"/><line class="cls-1" x1="51.54" y1="266.89" x2="51.82" y2="271.61"/><line class="cls-1" x1="33.15" y1="256.42" x2="33.07" y2="256.43"/><line class="cls-1" x1="53.72" y1="252.66" x2="53.36" y2="252.72"/><path class="cls-1" d="M72.54,249.15a.18.18,0,0,1,.1-.07"/><line class="cls-1" x1="89.93" y1="246.04" x2="89.66" y2="246.09"/><path class="cls-1" d="M100.88,254.35c0-.49,0-1-.08-1.47"/><path class="cls-1" d="M100.67,250.65c-.07-1.32-.15-2.64-.22-4"/><path class="cls-1" d="M100.3,244.14l-1.86-32.76"/><path class="cls-1" d="M96.76,181.78,96,168.9"/><path class="cls-1" d="M33.07,256.43a1.11,1.11,0,0,1,.13-.54.8.8,0,0,1,.39-.38"/><path class="cls-1" d="M53.72,252.66a.94.94,0,0,0-.13-.43.59.59,0,0,0-.32-.28"/><line class="cls-1" x1="53.27" y1="251.95" x2="53.31" y2="251.94"/><path class="cls-1" d="M89.55,245.38a.57.57,0,0,1,.28.27,1.07,1.07,0,0,1,.1.39"/><path class="cls-1" d="M72.54,249.22v-.07"/><path class="cls-1" d="M72.54,249.15a1.19,1.19,0,0,1,.11-.45.71.71,0,0,1,.32-.32"/><line class="cls-1" x1="89.55" y1="245.38" x2="89.61" y2="245.37"/><path class="cls-1" d="M100.8,252.88a.92.92,0,0,1,.33.06.52.52,0,0,1,.26.22"/><line class="cls-1" x1="100.88" y1="254.35" x2="101.07" y2="254.31"/><line class="cls-1" x1="54.25" y1="264.05" x2="65.94" y2="261.62"/><path class="cls-1" d="M107.53,253l.12,0"/><path class="cls-1" d="M106.7,251.59a.7.7,0,0,0-.16-.14"/><path class="cls-1" d="M106.54,251.45h0"/><line class="cls-1" x1="107.53" y1="252.96" x2="116.62" y2="251.07"/><path class="cls-1" d="M122.62,249.83l.1,0"/><path class="cls-1" d="M121.81,248.5a.62.62,0,0,0-.18-.14"/><line class="cls-1" x1="122.62" y1="249.83" x2="131.03" y2="248.08"/><line class="cls-1" x1="54.99" y1="282.06" x2="65.81" y2="279.38"/><path class="cls-1" d="M54.82,282.4l11-2.74"/><line class="cls-1" x1="74.23" y1="277.29" x2="84.04" y2="274.85"/><path class="cls-1" d="M74.06,277.61l10-2.49"/><line class="cls-1" x1="91.9" y1="272.9" x2="100.83" y2="270.69"/><path class="cls-1" d="M91.74,273.21l9.09-2.26"/><line class="cls-1" x1="108.18" y1="268.86" x2="116.34" y2="266.84"/><path class="cls-1" d="M108,269.15l8.3-2.06"/><line class="cls-1" x1="123.24" y1="265.12" x2="130.71" y2="263.27"/><path class="cls-1" d="M123.1,265.41l7.6-1.9"/><path class="cls-1" d="M48.83,254.72l.06-.06"/><line class="cls-1" x1="49.2" y1="253.58" x2="49.18" y2="253.37"/><path class="cls-1" d="M85.86,246.87a.53.53,0,0,1,0-.12"/><path class="cls-1" d="M85.82,247.8l-.06.08"/><line class="cls-1" x1="85.54" y1="247.97" x2="85.64" y2="247.97"/><line class="cls-1" x1="85.99" y1="246.85" x2="85.89" y2="246.75"/><path class="cls-1" d="M85.62,247.83c-1.1.18-2.37.42-3.44.71"/><path class="cls-1" d="M82.18,248.54l-.27.08"/><path class="cls-1" d="M81.91,248.62l-.15,0"/><line class="cls-1" x1="85.53" y1="247.92" x2="82.18" y2="248.54"/><line class="cls-1" x1="43.85" y1="255.65" x2="48.59" y2="254.77"/><path class="cls-1" d="M90.12,179.86h0"/><path class="cls-1" d="M92.07,214h.13"/><path class="cls-1" d="M39.44,188.33a1.45,1.45,0,0,1-1.1-.4,2.08,2.08,0,0,1-.21-.21l-.19-.24a4.19,4.19,0,0,0-.39-.45,4.32,4.32,0,0,0-1.48-1l-.56-.22"/><line class="cls-1" x1="39.61" y1="188.32" x2="39.44" y2="188.33"/><line class="cls-1" x1="40.9" y1="212.17" x2="41.07" y2="212.16"/><path class="cls-1" d="M55.87,217.83H56"/><path class="cls-1" d="M132,263.53a1.17,1.17,0,0,1-.32,0"/><path class="cls-1" d="M133.64,263.11a.63.63,0,0,0,.39-.32.93.93,0,0,0,.11-.51"/><path class="cls-1" d="M133.64,263.11l-1.68.42"/><path class="cls-1" d="M67.22,279.69a1,1,0,0,1-.34,0"/><path class="cls-1" d="M73.6,278.1a.55.55,0,0,0,.21-.12"/><path class="cls-1" d="M117.62,267.11a.86.86,0,0,1-.32,0"/><path class="cls-1" d="M122.64,265.86a.7.7,0,0,0,.21-.11"/><path class="cls-1" d="M102.16,271a1,1,0,0,1-.34,0"/><path class="cls-1" d="M107.57,269.62a.7.7,0,0,0,.21-.11"/><path class="cls-1" d="M85.41,275.15a1,1,0,0,1-.34,0"/><path class="cls-1" d="M91.28,273.69a.63.63,0,0,0,.21-.12"/><path class="cls-1" d="M91.28,273.69l-5.87,1.46"/><path class="cls-1" d="M52.18,283.45a.5.5,0,0,1-.27,0"/><path class="cls-1" d="M54.36,282.91a.63.63,0,0,0,.21-.12"/><path class="cls-1" d="M54.36,282.91l-2.18.54"/><path class="cls-1" d="M52.9,252.68h0"/><path class="cls-1" d="M49.15,253.37a.15.15,0,0,0-.1.06"/><path class="cls-1" d="M37.3,255.53h0"/><path class="cls-1" d="M33.28,256.26a.21.21,0,0,0-.13.16"/><path class="cls-1" d="M72.64,249.08h0"/><path class="cls-1" d="M131.89,263.29a.7.7,0,0,1-.25,0"/><path class="cls-1" d="M67.15,279.41a.82.82,0,0,1-.27,0"/><path class="cls-1" d="M117.56,266.86a.76.76,0,0,1-.26,0"/><path class="cls-1" d="M102.09,270.71a1.18,1.18,0,0,1-.26,0"/><path class="cls-1" d="M85.34,274.88a.82.82,0,0,1-.27,0"/><path class="cls-1" d="M52.1,283.16a.41.41,0,0,1-.19,0"/><path class="cls-1" d="M53.33,251.94a.51.51,0,0,1,.39.24.91.91,0,0,1,.16.45"/><path class="cls-1" d="M90.15,254.73s0,0,0,0"/><path class="cls-1" d="M73.65,260.08h0"/><path class="cls-1" d="M72.44,258.34s0,0,0,0"/><path class="cls-1" d="M54.37,264.09h0"/><path class="cls-1" d="M53.16,262.28s0,0,0,0"/><path class="cls-1" d="M106.48,251.4s0,0,0,0"/><path class="cls-1" d="M121.57,248.32s0,0,.05,0"/><path class="cls-1" d="M67.16,278.62h0"/><path class="cls-1" d="M85.39,274.11h0"/><path class="cls-1" d="M102.17,270h0"/><path class="cls-1" d="M117.67,266.12h0"/><path class="cls-1" d="M49.53,253.47a0,0,0,0,0,0,0l0,0-.09,0a.58.58,0,0,0-.19,0"/><path class="cls-1" d="M86.46,246.73v0h0l0,0-.1,0-.21,0"/><path class="cls-1" d="M80,249.51a.27.27,0,0,0,0,.12"/><path class="cls-1" d="M112.77,248a.36.36,0,0,0-.14-.26l-.16-.13-.22-.12a6.13,6.13,0,0,0-.72-.25,13.27,13.27,0,0,0-1.5-.3c-1-.15-2-.25-3-.32"/><line class="cls-1" x1="40.54" y1="257.38" x2="40.53" y2="257.11"/><line class="cls-1" x1="76.18" y1="255.02" x2="76.19" y2="255.29"/><path class="cls-1" d="M8.28,116.46a.91.91,0,0,0-.53.47,1.06,1.06,0,0,0-.13.39,1.52,1.52,0,0,0,0,.21v.11c0,.07,0,.15,0,.23l.15,2.49c.08,1.39.17,2.78.25,4.18l.51,8.36L9,141.26c.08,1.39.17,2.78.25,4.17l0,.4v0a.13.13,0,0,0,0,.06.5.5,0,0,0,0,.12,1,1,0,0,0,.07.25,1.63,1.63,0,0,0,.25.47,1.51,1.51,0,0,0,.38.33.72.72,0,0,0,.2.09l.1,0h.07l.23,0c.54.07,1.08.14,1.62.19"/><line class="cls-1" x1="8.28" y1="116.46" x2="8.44" y2="116.41"/><polyline class="cls-1" points="12.26 147.46 13.55 168.77 19.85 272.72"/><polyline class="cls-1" points="12.42 147.43 13.71 168.75 20.01 272.75"/><path class="cls-1" d="M81.49,210.71a2.14,2.14,0,0,1-.72-.65c-.09-.13-.18-.27-.26-.41l-.11-.22a2.14,2.14,0,0,0-.1-.22"/><path class="cls-1" d="M80,184.48l9.84-4.84"/><path class="cls-1" d="M91.89,214.25l-.1,0"/><path class="cls-1" d="M65.17,180.18l1.28.51"/><line class="cls-1" x1="89.91" y1="179.59" x2="90.45" y2="179.82"/><path class="cls-1" d="M92.5,214l5.78-2.52"/><path class="cls-1" d="M90.4,179.82h-.13"/><line class="cls-1" x1="64.52" y1="180.48" x2="65.07" y2="180.23"/><line class="cls-1" x1="65.47" y1="180.42" x2="65.56" y2="180.42"/><line class="cls-1" x1="67.76" y1="216.61" x2="67.63" y2="216.62"/><line class="cls-1" x1="67.31" y1="216.89" x2="67.2" y2="216.86"/><path class="cls-1" d="M66.63,216.68c.26,0,.69-.05,1-.06"/><path class="cls-1" d="M65.47,180.42c-.26,0-.69.06-1,.06"/><path class="cls-1" d="M65.65,180.42h-.08"/><path class="cls-1" d="M23.82,181.17l9.28,3.6"/><line class="cls-1" x1="55.67" y1="218.14" x2="55.5" y2="218.14"/><line class="cls-1" x1="53.46" y1="180.46" x2="54.09" y2="180.7"/><line class="cls-1" x1="53.29" y1="180.48" x2="53.46" y2="180.46"/><path class="cls-1" d="M56.31,217.83l6-2.84,3-1.39.75-.35.37-.17a3.9,3.9,0,0,0,.35-.19,4.36,4.36,0,0,0,1.29-1.24,7,7,0,0,0,1.13-3,8.67,8.67,0,0,0,.08-1.69c0-.14,0-.28,0-.42l0-.44c0-.29,0-.59,0-.88l-.39-6.68-.38-6.67c0-.3,0-.59,0-.88l0-.44,0-.42a8.64,8.64,0,0,0-.3-1.66,7.54,7.54,0,0,0-.62-1.57,6.31,6.31,0,0,0-.89-1.29,4.41,4.41,0,0,0-1.43-1.06l-.37-.14-.39-.14-.78-.27-3.08-1.08-6.32-2.2"/><path class="cls-1" d="M53.94,180.7h0"/><line class="cls-1" x1="24.08" y1="181.43" x2="24.28" y2="181.43"/><line class="cls-1" x1="26.67" y1="220.99" x2="26.61" y2="220.99"/><line class="cls-1" x1="26.24" y1="221.29" x2="26.12" y2="221.26"/><line class="cls-1" x1="26.07" y1="221.29" x2="26.24" y2="221.29"/><line class="cls-1" x1="23.82" y1="181.17" x2="23.66" y2="181.18"/><line class="cls-1" x1="23.04" y1="181.49" x2="23.72" y2="181.21"/><path class="cls-1" d="M25.43,221.07c.28,0,.75-.06,1-.06"/><path class="cls-1" d="M24.08,181.43c-.28,0-.75.06-1,.06"/><path class="cls-1" d="M24.29,181.43h0"/><line class="cls-1" x1="39.1" y1="268.71" x2="39.09" y2="268.54"/><path class="cls-1" d="M20.47,273.55a.64.64,0,0,1-.34-.33,1.31,1.31,0,0,1-.12-.48"/><path class="cls-1" d="M20.47,273.82a.86.86,0,0,1-.46-.46,1.77,1.77,0,0,1-.16-.64"/><line class="cls-1" x1="20.47" y1="273.55" x2="51.91" y2="283.15"/><line class="cls-1" x1="51.91" y1="283.44" x2="20.47" y2="273.82"/><path class="cls-1" d="M52.46,282.44a1.19,1.19,0,0,1-.06.42.47.47,0,0,1-.3.3"/><path class="cls-1" d="M50.77,263.1a.64.64,0,0,1,.44.34,1.29,1.29,0,0,1,.15.54"/><path class="cls-1" d="M50.75,262.8a.64.64,0,0,1,.35.17,1.21,1.21,0,0,1,.25.3,1.71,1.71,0,0,1,.21.74"/><line class="cls-1" x1="33.74" y1="256.31" x2="33.15" y2="256.42"/><line class="cls-1" x1="19.22" y1="258.96" x2="19.23" y2="259.23"/><polyline class="cls-1" points="33.74 256.31 33.53 256.28 33.32 256.26"/><path class="cls-1" d="M33.32,256.26h0"/><polyline class="cls-1" points="52.94 252.68 53.15 252.7 53.36 252.72"/><polyline class="cls-1" points="72.68 249.08 72.89 249.09 73.11 249.11"/><path class="cls-1" d="M89.24,246.06h0"/><polyline class="cls-1" points="89.66 246.09 89.45 246.07 89.24 246.06"/><line class="cls-1" x1="100.34" y1="244.13" x2="100.3" y2="244.14"/><line class="cls-1" x1="100.34" y1="244.13" x2="132.5" y2="246.14"/><path class="cls-1" d="M133.3,247.11a1.1,1.1,0,0,0-.23-.63.79.79,0,0,0-.57-.34"/><line class="cls-1" x1="133.3" y1="247.11" x2="134.14" y2="262.28"/><path class="cls-1" d="M53.31,251.94h0"/><line class="cls-1" x1="33.59" y1="255.51" x2="53.27" y2="251.95"/><path class="cls-1" d="M89.61,245.37a.46.46,0,0,1,.35.23,1,1,0,0,1,.14.41"/><line class="cls-1" x1="72.97" y1="248.38" x2="89.55" y2="245.38"/><path class="cls-1" d="M90.86,255.88l-.21-.54"/><path class="cls-1" d="M90.65,255.34l-.05-.08"/><path class="cls-1" d="M90.22,254.68l0,0,0,0"/><line class="cls-1" x1="90.22" y1="254.68" x2="90.23" y2="254.8"/><line class="cls-1" x1="100.17" y1="252.92" x2="90.35" y2="254.93"/><line class="cls-1" x1="100.16" y1="252.66" x2="90.22" y2="254.68"/><line class="cls-1" x1="100.16" y1="252.66" x2="100.17" y2="252.92"/><line class="cls-1" x1="100.74" y1="252.88" x2="100.73" y2="252.62"/><path class="cls-1" d="M100.74,252.88h.06"/><line class="cls-1" x1="101.39" y1="253.16" x2="101.53" y2="253.02"/><path class="cls-1" d="M101.53,253a.22.22,0,0,1,0,.08"/><path class="cls-1" d="M101.39,253.16l0,.06"/><path class="cls-1" d="M101.42,253.22a.5.5,0,0,1,0,.41"/><path class="cls-1" d="M101.58,253.1a.81.81,0,0,1,.09.55"/><line class="cls-1" x1="101.58" y1="253.1" x2="101.42" y2="253.22"/><path class="cls-1" d="M101.07,254.31a.71.71,0,0,0,.27-.3,1.71,1.71,0,0,0,.13-.38"/><path class="cls-1" d="M101.27,254.33a.77.77,0,0,0,.27-.3,1.71,1.71,0,0,0,.13-.38"/><line class="cls-1" x1="101.67" y1="253.65" x2="101.47" y2="253.63"/><line class="cls-1" x1="101.27" y1="254.33" x2="101.07" y2="254.31"/><path class="cls-1" d="M83.92,256.32a1.2,1.2,0,0,1,.38.05.46.46,0,0,1,.28.25"/><path class="cls-1" d="M83.91,256.05a1,1,0,0,1,.47.09.65.65,0,0,1,.35.32"/><path class="cls-1" d="M84.73,256.46l0,.09"/><line class="cls-1" x1="84.73" y1="256.46" x2="84.58" y2="256.62"/><path class="cls-1" d="M84.58,256.62l0,.06"/><path class="cls-1" d="M84.62,256.68a.52.52,0,0,1,0,.42"/><path class="cls-1" d="M84.78,256.55a.81.81,0,0,1,.08.57"/><line class="cls-1" x1="84.78" y1="256.55" x2="84.62" y2="256.68"/><path class="cls-1" d="M84.23,257.81a.72.72,0,0,0,.29-.31,1.72,1.72,0,0,0,.14-.4"/><path class="cls-1" d="M84.43,257.83a.72.72,0,0,0,.29-.31,1.72,1.72,0,0,0,.14-.4"/><line class="cls-1" x1="84.86" y1="257.12" x2="84.66" y2="257.1"/><line class="cls-1" x1="84.43" y1="257.83" x2="84.23" y2="257.81"/><path class="cls-1" d="M73.12,259.55l-.21-.56"/><path class="cls-1" d="M72.91,259l0-.09"/><path class="cls-1" d="M72.53,258.28l0,0,0,0"/><line class="cls-1" x1="72.53" y1="258.28" x2="72.54" y2="258.45"/><path class="cls-1" d="M83.92,256.32l-.59,0"/><line class="cls-1" x1="83.31" y1="256.09" x2="83.33" y2="256.36"/><path class="cls-1" d="M83.91,256.05a4,4,0,0,0-.6,0"/><line class="cls-1" x1="83.92" y1="256.32" x2="83.91" y2="256.05"/><path class="cls-1" d="M53.82,263.54c-.08-.19-.16-.39-.23-.59"/><path class="cls-1" d="M53.59,263a.36.36,0,0,0,0-.09"/><path class="cls-1" d="M53.27,262.2l-.07,0s0,0,0,0"/><line class="cls-1" x1="53.27" y1="262.2" x2="53.29" y2="262.46"/><line class="cls-1" x1="65.03" y1="260.1" x2="53.31" y2="262.49"/><line class="cls-1" x1="65.01" y1="259.81" x2="53.27" y2="262.2"/><path class="cls-1" d="M65.65,260.06a4.4,4.4,0,0,0-.62,0"/><line class="cls-1" x1="65.01" y1="259.81" x2="65.03" y2="260.1"/><path class="cls-1" d="M65.64,259.77a4.44,4.44,0,0,0-.63,0"/><line class="cls-1" x1="65.65" y1="260.06" x2="65.64" y2="259.77"/><path class="cls-1" d="M65.65,260.06a.86.86,0,0,1,.39.05.47.47,0,0,1,.29.26"/><path class="cls-1" d="M65.64,259.77a1.21,1.21,0,0,1,.49.09.74.74,0,0,1,.35.35"/><path class="cls-1" d="M66.48,260.21a.36.36,0,0,1,0,.09"/><line class="cls-1" x1="66.48" y1="260.21" x2="66.33" y2="260.37"/><path class="cls-1" d="M66.33,260.37a.21.21,0,0,0,0,.06"/><path class="cls-1" d="M66.37,260.43a.54.54,0,0,1,0,.45"/><path class="cls-1" d="M66.52,260.3a.78.78,0,0,1,.08.6"/><line class="cls-1" x1="66.52" y1="260.3" x2="66.37" y2="260.43"/><path class="cls-1" d="M65.94,261.62a.87.87,0,0,0,.31-.32,1.62,1.62,0,0,0,.15-.42"/><path class="cls-1" d="M66.14,261.64a.87.87,0,0,0,.31-.32,1.62,1.62,0,0,0,.15-.42"/><line class="cls-1" x1="66.6" y1="260.9" x2="66.4" y2="260.88"/><line class="cls-1" x1="66.14" y1="261.64" x2="65.94" y2="261.62"/><path class="cls-1" d="M54.39,264.09l11.75-2.45"/><path class="cls-1" d="M107.2,252.5a.78.78,0,0,0,.33.46"/><path class="cls-1" d="M107.2,252.5c-.06-.17-.13-.34-.2-.52"/><path class="cls-1" d="M107,252l0-.07"/><path class="cls-1" d="M107,251.91a3.92,3.92,0,0,0-.25-.32"/><path class="cls-1" d="M106.53,251.36h0s0,0,0,0"/><line class="cls-1" x1="106.53" y1="251.36" x2="106.54" y2="251.45"/><line class="cls-1" x1="115.73" y1="249.74" x2="106.7" y2="251.59"/><line class="cls-1" x1="115.71" y1="249.49" x2="106.53" y2="251.36"/><path class="cls-1" d="M116.28,249.71a5.07,5.07,0,0,0-.55,0"/><line class="cls-1" x1="115.71" y1="249.49" x2="115.73" y2="249.74"/><path class="cls-1" d="M116.26,249.45l-.55,0"/><line class="cls-1" x1="116.28" y1="249.71" x2="116.26" y2="249.45"/><path class="cls-1" d="M116.28,249.71a.84.84,0,0,1,.35,0,.44.44,0,0,1,.27.23"/><path class="cls-1" d="M116.26,249.45a1.16,1.16,0,0,1,.45.08.63.63,0,0,1,.34.3"/><path class="cls-1" d="M117.05,249.83l0,.08"/><line class="cls-1" x1="117.05" y1="249.83" x2="116.9" y2="249.98"/><path class="cls-1" d="M116.9,250l0,.05"/><line class="cls-1" x1="116.94" y1="250.03" x2="117.1" y2="249.91"/><path class="cls-1" d="M116.94,250a.49.49,0,0,1,0,.39"/><path class="cls-1" d="M117.1,249.91a.76.76,0,0,1,.09.53"/><path class="cls-1" d="M116.62,251.07a.67.67,0,0,0,.25-.28,1.6,1.6,0,0,0,.12-.37"/><path class="cls-1" d="M116.82,251.09a.64.64,0,0,0,.25-.29,1.39,1.39,0,0,0,.12-.36"/><line class="cls-1" x1="117.19" y1="250.44" x2="116.99" y2="250.42"/><line class="cls-1" x1="116.82" y1="251.09" x2="116.62" y2="251.07"/><path class="cls-1" d="M107.65,253l9.17-1.91"/><path class="cls-1" d="M122.31,249.38a.79.79,0,0,0,.31.45"/><path class="cls-1" d="M122.31,249.38c-.06-.17-.13-.34-.2-.5"/><path class="cls-1" d="M122.11,248.88l0-.08"/><path class="cls-1" d="M122.07,248.8a3.48,3.48,0,0,0-.26-.3"/><path class="cls-1" d="M121.62,248.29h0l0,0"/><line class="cls-1" x1="121.62" y1="248.29" x2="121.62" y2="248.36"/><line class="cls-1" x1="130.14" y1="246.8" x2="121.81" y2="248.5"/><line class="cls-1" x1="130.13" y1="246.56" x2="121.62" y2="248.29"/><path class="cls-1" d="M130.67,246.77a4.71,4.71,0,0,0-.53,0"/><line class="cls-1" x1="130.13" y1="246.56" x2="130.14" y2="246.8"/><path class="cls-1" d="M130.66,246.52a4.73,4.73,0,0,0-.53,0"/><path class="cls-1" d="M130.67,246.77a.84.84,0,0,1,.35,0,.49.49,0,0,1,.26.21"/><path class="cls-1" d="M130.66,246.52a1.14,1.14,0,0,1,.44.08.61.61,0,0,1,.33.28"/><line class="cls-1" x1="130.67" y1="246.77" x2="130.66" y2="246.52"/><line class="cls-1" x1="131.28" y1="247.02" x2="131.43" y2="246.88"/><path class="cls-1" d="M131.43,246.88l0,.08"/><path class="cls-1" d="M131.28,247l0,.06"/><path class="cls-1" d="M131.31,247.08a.44.44,0,0,1,.06.37"/><path class="cls-1" d="M131.48,247a.7.7,0,0,1,.09.51"/><line class="cls-1" x1="131.48" y1="246.96" x2="131.31" y2="247.08"/><path class="cls-1" d="M131,248.08a.62.62,0,0,0,.23-.28,1.42,1.42,0,0,0,.11-.35"/><path class="cls-1" d="M131.23,248.09a.7.7,0,0,0,.23-.28,1.93,1.93,0,0,0,.11-.34"/><line class="cls-1" x1="131.57" y1="247.47" x2="131.37" y2="247.45"/><line class="cls-1" x1="131.23" y1="248.09" x2="131.03" y2="248.08"/><path class="cls-1" d="M122.72,249.86l8.51-1.77"/><path class="cls-1" d="M65.81,279.38a4.8,4.8,0,0,1,1.07,0"/><path class="cls-1" d="M65.81,279.66a4.27,4.27,0,0,1,1.07,0"/><path class="cls-1" d="M67.32,279.32a.35.35,0,0,1-.17.09"/><line class="cls-1" x1="66.88" y1="279.71" x2="66.88" y2="279.42"/><path class="cls-1" d="M67.5,279.52a.12.12,0,0,1,0,.05"/><path class="cls-1" d="M67.36,279.28l0,0"/><path class="cls-1" d="M67.27,278.77a.53.53,0,0,1,.17.24.27.27,0,0,1-.08.27"/><path class="cls-1" d="M67.27,278.77a.45.45,0,0,0-.19-.14"/><path class="cls-1" d="M67.47,278.8a.52.52,0,0,0-.31-.18"/><line class="cls-1" x1="67.27" y1="278.77" x2="67.47" y2="278.8"/><path class="cls-1" d="M55.42,281.51a.88.88,0,0,0-.33.36"/><path class="cls-1" d="M54.62,282.73c.07-.1.14-.23.2-.33"/><path class="cls-1" d="M54.57,282.79l0-.06"/><line class="cls-1" x1="65.81" y1="279.38" x2="65.81" y2="279.66"/><path class="cls-1" d="M84,274.85a5,5,0,0,1,1,0"/><path class="cls-1" d="M84,275.12a4.42,4.42,0,0,1,1,.05"/><path class="cls-1" d="M85.51,274.79a.28.28,0,0,1-.17.09"/><path class="cls-1" d="M85.64,275a.51.51,0,0,1-.23.12"/><line class="cls-1" x1="85.07" y1="275.17" x2="85.07" y2="274.89"/><path class="cls-1" d="M85.69,275l0,0"/><path class="cls-1" d="M85.55,274.75l0,0"/><path class="cls-1" d="M85.48,274.26a.45.45,0,0,1,.16.24.27.27,0,0,1-.09.25"/><path class="cls-1" d="M85.48,274.26a.58.58,0,0,0-.17-.14"/><path class="cls-1" d="M85.68,274.29a.47.47,0,0,0-.29-.18"/><line class="cls-1" x1="85.48" y1="274.26" x2="85.68" y2="274.29"/><path class="cls-1" d="M74.62,276.76a.92.92,0,0,0-.3.35"/><path class="cls-1" d="M73.86,277.93a1.55,1.55,0,0,0,.2-.32"/><path class="cls-1" d="M73.81,278l0-.05"/><line class="cls-1" x1="84.04" y1="275.12" x2="84.04" y2="274.85"/><path class="cls-1" d="M100.83,270.69a4.19,4.19,0,0,1,1,0"/><path class="cls-1" d="M100.83,271a4.09,4.09,0,0,1,1,0"/><line class="cls-1" x1="101.82" y1="270.99" x2="101.83" y2="270.73"/><path class="cls-1" d="M102.44,270.8l-.06.05"/><path class="cls-1" d="M102.3,270.59l0,0"/><path class="cls-1" d="M102.25,270.11a.49.49,0,0,1,.14.23.27.27,0,0,1-.09.25"/><path class="cls-1" d="M102.25,270.11a.47.47,0,0,0-.28-.18"/><path class="cls-1" d="M102.45,270.14a.43.43,0,0,0-.28-.18"/><line class="cls-1" x1="102.25" y1="270.11" x2="102.45" y2="270.14"/><path class="cls-1" d="M102.16,270l-9.9,2.44"/><path class="cls-1" d="M92.26,272.4a.8.8,0,0,0-.28.33"/><path class="cls-1" d="M91.54,273.52a2,2,0,0,0,.2-.31"/><path class="cls-1" d="M91.49,273.57a.12.12,0,0,0,.05-.05"/><line class="cls-1" x1="100.83" y1="270.95" x2="100.83" y2="270.69"/><path class="cls-1" d="M116.34,266.84a5.11,5.11,0,0,1,1,0"/><path class="cls-1" d="M116.33,267.09a5.25,5.25,0,0,1,1,0"/><path class="cls-1" d="M117.73,266.77a.4.4,0,0,1-.17.09"/><line class="cls-1" x1="117.3" y1="267.12" x2="117.3" y2="266.87"/><path class="cls-1" d="M117.91,266.94l-.06.05"/><path class="cls-1" d="M117.77,266.74l0,0"/><path class="cls-1" d="M117.73,266.28a.29.29,0,0,1,0,.46"/><path class="cls-1" d="M117.73,266.28a.47.47,0,0,0-.14-.14"/><path class="cls-1" d="M117.93,266.3a.37.37,0,0,0-.26-.18"/><line class="cls-1" x1="117.73" y1="266.28" x2="117.93" y2="266.3"/><path class="cls-1" d="M108.52,268.38a.74.74,0,0,0-.26.32"/><path class="cls-1" d="M107.84,269.46a2,2,0,0,0,.19-.31"/><path class="cls-1" d="M107.78,269.51l.06-.05"/><line class="cls-1" x1="116.33" y1="267.09" x2="116.34" y2="266.84"/><path class="cls-1" d="M130.71,263.27a4.82,4.82,0,0,1,.93,0"/><path class="cls-1" d="M130.7,263.51a4.23,4.23,0,0,1,.94,0"/><path class="cls-1" d="M132.06,263.2a.4.4,0,0,1-.17.09"/><path class="cls-1" d="M132.19,263.42a.7.7,0,0,1-.23.11"/><line class="cls-1" x1="131.64" y1="263.55" x2="131.64" y2="263.3"/><path class="cls-1" d="M132.24,263.37s0,0-.05.05"/><path class="cls-1" d="M132.1,263.17l0,0"/><path class="cls-1" d="M132.08,262.72a.37.37,0,0,0-.25-.17"/><line class="cls-1" x1="132.08" y1="262.72" x2="132.28" y2="262.74"/><path class="cls-1" d="M123.55,264.67a.67.67,0,0,0-.24.29"/><path class="cls-1" d="M122.9,265.7a1.68,1.68,0,0,0,.2-.29"/><path class="cls-1" d="M122.85,265.75l.05-.05"/><line class="cls-1" x1="130.7" y1="263.51" x2="130.71" y2="263.27"/><line class="cls-1" x1="48.69" y1="254.83" x2="48.59" y2="254.82"/><path class="cls-1" d="M49,253.49s0,.08,0,.12"/><line class="cls-1" x1="49.01" y1="253.49" x2="49.11" y2="253.59"/><path class="cls-1" d="M49.05,253.43l0,.06"/><line class="cls-1" x1="49.05" y1="253.43" x2="49.14" y2="253.59"/><path class="cls-1" d="M49.42,253.54l.06,0s.05,0,.05-.05"/><path class="cls-1" d="M38.65,255.51,49,253.61"/><path class="cls-1" d="M37.34,255.53a7.15,7.15,0,0,0,1.31,0"/><path class="cls-1" d="M76.06,248.46h0"/><path class="cls-1" d="M76.06,248.46a8.56,8.56,0,0,0,1.24,0"/><path class="cls-1" d="M77.3,248.44l8.56-1.57"/><path class="cls-1" d="M86.38,246.77h.05s0,0,0,0"/><line class="cls-1" x1="86.06" y1="246.64" x2="86.07" y2="246.83"/><path class="cls-1" d="M85.92,246.7a.21.21,0,0,1,.1-.06"/><line class="cls-1" x1="85.92" y1="246.7" x2="86.02" y2="246.84"/><path class="cls-1" d="M85.89,246.75l0-.05"/><path class="cls-1" d="M107,246.85c-2.12-.14-4.44-.18-6.56-.15"/><path class="cls-1" d="M96,168.9q-1-17.24-2-34.47v-.3c0-.09,0-.19,0-.28a5,5,0,0,0-.06-.56,9.3,9.3,0,0,0-.23-1.17,7.87,7.87,0,0,0-1-2.21,5.12,5.12,0,0,0-1.5-1.54,3.71,3.71,0,0,0-.8-.39l-.39-.1-.4,0L81.07,127l-17.18-1.71"/><path class="cls-1" d="M63.89,125.26l-.47-8.19-.05-.82,0-.41a2.58,2.58,0,0,0,0-.4,1.74,1.74,0,0,0-.36-.75,1,1,0,0,0-.27-.23l-.14-.07-.07,0h0l-.1,0-.55-.12a40.88,40.88,0,0,0-4.4-.63,68.18,68.18,0,0,0-16.34.81c-2.71.39-5.41.85-8.11,1.26s-5.41.78-8.14,1a74.57,74.57,0,0,1-8.19.33,59.14,59.14,0,0,1-6.64-.49l-.86-.12-.28,0H8.67l-.23,0"/><line class="cls-1" x1="63.89" y1="125.26" x2="63.73" y2="125.3"/><line class="cls-1" x1="12.26" y1="147.46" x2="12.42" y2="147.43"/><path class="cls-1" d="M95.86,168.92l-2-34.46,0-.3c0-.09,0-.19,0-.28a5,5,0,0,0-.06-.56,7.83,7.83,0,0,0-.24-1.17,7.57,7.57,0,0,0-1-2.21,5.09,5.09,0,0,0-1.5-1.53,3,3,0,0,0-.81-.39,2.22,2.22,0,0,0-.39-.1,2.6,2.6,0,0,0-.39,0L80.9,127,63.73,125.3"/><line class="cls-1" x1="86.48" y1="258.65" x2="86.47" y2="258.49"/><line class="cls-1" x1="38.92" y1="268.52" x2="38.93" y2="268.69"/><line class="cls-1" x1="32.92" y1="256.58" x2="32.92" y2="256.67"/><line class="cls-1" x1="53.72" y1="252.86" x2="53.72" y2="252.77"/><line class="cls-1" x1="53.14" y1="251.92" x2="33.42" y2="255.49"/><line class="cls-1" x1="89.93" y1="246.15" x2="89.94" y2="246.23"/><line class="cls-1" x1="72.39" y1="249.44" x2="72.38" y2="249.36"/><line class="cls-1" x1="72.8" y1="248.37" x2="89.44" y2="245.36"/><path class="cls-1" d="M86,246.89h0"/><line class="cls-1" x1="86.04" y1="246.89" x2="85.99" y2="246.85"/><path class="cls-1" d="M86,246.88h0"/><path class="cls-1" d="M86.4,247l0,0a0,0,0,0,0,0,0"/><line class="cls-1" x1="77.3" y1="248.44" x2="77.32" y2="248.67"/><line class="cls-1" x1="76.08" y1="248.7" x2="76.06" y2="248.46"/><path class="cls-1" d="M76.08,248.7a7.34,7.34,0,0,0,1.24,0"/><path class="cls-1" d="M76.08,248.7h0"/><path class="cls-1" d="M76.05,248.71h0"/><path class="cls-1" d="M75.93,248.52s0,0,0,.06"/><line class="cls-1" x1="75.87" y1="248.74" x2="76.04" y2="248.76"/><path class="cls-1" d="M76,248.72s0,0,0,0"/><line class="cls-1" x1="85.47" y1="247.96" x2="85.54" y2="247.97"/><line class="cls-1" x1="86.03" y1="246.93" x2="85.86" y2="246.91"/><path class="cls-1" d="M85.86,246.91v0"/><path class="cls-1" d="M86,246.93s0,0,0,0"/><line class="cls-1" x1="37.31" y1="255.85" x2="37.15" y2="255.83"/><path class="cls-1" d="M37.31,255.85a.06.06,0,0,1,0,0"/><path class="cls-1" d="M37.32,255.81h0"/><path class="cls-1" d="M37.18,255.65s0,0,0-.06"/><path class="cls-1" d="M37.21,255.59a.15.15,0,0,1,.09-.06"/><line class="cls-1" x1="37.34" y1="255.53" x2="37.35" y2="255.79"/><path class="cls-1" d="M37.33,255.8a0,0,0,0,1,0,0"/><line class="cls-1" x1="38.65" y1="255.51" x2="38.67" y2="255.77"/><path class="cls-1" d="M37.35,255.79a7.28,7.28,0,0,0,1.32,0"/><path class="cls-1" d="M49.43,253.79l.07,0s0,0,0,0"/><path class="cls-1" d="M49.2,253.62h0"/><path class="cls-1" d="M49.17,253.63v0"/><line class="cls-1" x1="48.99" y1="253.66" x2="49.16" y2="253.68"/><path class="cls-1" d="M49.16,253.65s0,0,0,0"/><line class="cls-1" x1="122.72" y1="265.53" x2="122.85" y2="265.75"/><path class="cls-1" d="M122.43,265.84a.38.38,0,0,0,.21,0"/><path class="cls-1" d="M122.43,265.6a.23.23,0,0,0,.14,0"/><path class="cls-1" d="M122.72,265.53l0,0"/><line class="cls-1" x1="122.9" y1="265.7" x2="122.76" y2="265.49"/><line class="cls-1" x1="123.31" y1="264.96" x2="123.11" y2="264.94"/><line class="cls-1" x1="123.55" y1="264.67" x2="123.35" y2="264.65"/><path class="cls-1" d="M123.35,264.65a.62.62,0,0,0-.24.29"/><line class="cls-1" x1="132.03" y1="262.57" x2="131.83" y2="262.55"/><path class="cls-1" d="M107.37,269.6a.27.27,0,0,0,.2,0"/><line class="cls-1" x1="107.78" y1="269.51" x2="107.66" y2="269.28"/><path class="cls-1" d="M107.37,269.35a.2.2,0,0,0,.13,0"/><path class="cls-1" d="M107.66,269.28l0,0"/><line class="cls-1" x1="107.84" y1="269.46" x2="107.7" y2="269.24"/><line class="cls-1" x1="108.26" y1="268.7" x2="108.06" y2="268.67"/><line class="cls-1" x1="108.52" y1="268.38" x2="108.31" y2="268.36"/><path class="cls-1" d="M108.31,268.36a.84.84,0,0,0-.25.31"/><line class="cls-1" x1="117.47" y1="266.1" x2="108.31" y2="268.36"/><path class="cls-1" d="M91.08,273.67a.34.34,0,0,0,.2,0"/><line class="cls-1" x1="91.49" y1="273.57" x2="91.36" y2="273.34"/><path class="cls-1" d="M91.08,273.4a.19.19,0,0,0,.13,0"/><path class="cls-1" d="M91.36,273.34l0,0"/><line class="cls-1" x1="91.54" y1="273.52" x2="91.4" y2="273.3"/><line class="cls-1" x1="91.98" y1="272.73" x2="91.78" y2="272.7"/><line class="cls-1" x1="92.26" y1="272.4" x2="92.06" y2="272.38"/><path class="cls-1" d="M92.06,272.38a.72.72,0,0,0-.28.32"/><line class="cls-1" x1="101.96" y1="269.93" x2="92.06" y2="272.38"/><path class="cls-1" d="M73.41,278.08a.25.25,0,0,0,.19,0"/><line class="cls-1" x1="73.81" y1="277.98" x2="73.68" y2="277.74"/><path class="cls-1" d="M73.41,277.8a.17.17,0,0,0,.12,0"/><path class="cls-1" d="M73.68,277.74l0,0"/><line class="cls-1" x1="73.86" y1="277.93" x2="73.72" y2="277.7"/><line class="cls-1" x1="74.32" y1="277.11" x2="74.12" y2="277.08"/><line class="cls-1" x1="74.62" y1="276.76" x2="74.42" y2="276.73"/><path class="cls-1" d="M74.42,276.73a.92.92,0,0,0-.3.35"/><line class="cls-1" x1="85.17" y1="274.08" x2="74.42" y2="276.73"/><path class="cls-1" d="M54.17,282.88c-.05,0-.16-.11-.16-.19"/><path class="cls-1" d="M54.17,282.88a.31.31,0,0,0,.19,0"/><line class="cls-1" x1="54.57" y1="282.79" x2="54.44" y2="282.53"/><path class="cls-1" d="M54.17,282.59a.16.16,0,0,0,.12,0"/><path class="cls-1" d="M54.44,282.53l0,0"/><line class="cls-1" x1="54.48" y1="282.49" x2="54.62" y2="282.73"/><line class="cls-1" x1="55.09" y1="281.87" x2="54.89" y2="281.84"/><line class="cls-1" x1="55.42" y1="281.51" x2="55.22" y2="281.48"/><path class="cls-1" d="M55.22,281.48a1,1,0,0,0-.33.36"/><line class="cls-1" x1="66.93" y1="278.58" x2="55.22" y2="281.48"/><line class="cls-1" x1="122.52" y1="249.85" x2="122.62" y2="249.83"/><line class="cls-1" x1="122.72" y1="249.86" x2="122.52" y2="249.85"/><path class="cls-1" d="M121.63,248.54h0l0,0"/><line class="cls-1" x1="122.07" y1="248.8" x2="121.92" y2="248.95"/><path class="cls-1" d="M121.92,249c0-.06-.09-.12-.14-.17a.75.75,0,0,0-.14-.17"/><path class="cls-1" d="M122,249l0-.05"/><line class="cls-1" x1="121.95" y1="249" x2="122.11" y2="248.88"/><path class="cls-1" d="M122.11,249.37c0-.13-.11-.25-.16-.37"/><line class="cls-1" x1="122.11" y1="249.37" x2="122.31" y2="249.38"/><path class="cls-1" d="M122.11,249.37a.89.89,0,0,0,.15.29.42.42,0,0,0,.26.19"/><line class="cls-1" x1="107.45" y1="252.98" x2="107.53" y2="252.96"/><line class="cls-1" x1="107.65" y1="253" x2="107.45" y2="252.98"/><line class="cls-1" x1="106.95" y1="251.91" x2="106.8" y2="252.05"/><path class="cls-1" d="M106.8,252.05l-.13-.17-.13-.18"/><path class="cls-1" d="M106.83,252.11l0-.06"/><line class="cls-1" x1="107" y1="251.98" x2="106.83" y2="252.11"/><path class="cls-1" d="M107,252.49c-.06-.13-.12-.25-.17-.38"/><line class="cls-1" x1="107" y1="252.49" x2="107.2" y2="252.5"/><path class="cls-1" d="M107,252.49a1.14,1.14,0,0,0,.16.31.43.43,0,0,0,.29.18"/><line class="cls-1" x1="54.19" y1="264.06" x2="54.25" y2="264.05"/><path class="cls-1" d="M53.4,263l-.12-.2a.78.78,0,0,1-.09-.21"/><line class="cls-1" x1="53.4" y1="263.02" x2="53.55" y2="262.86"/><path class="cls-1" d="M53.44,263.09a.25.25,0,0,0,0-.07"/><line class="cls-1" x1="53.59" y1="262.95" x2="53.44" y2="263.09"/><path class="cls-1" d="M53.62,263.52a2.3,2.3,0,0,1-.18-.43"/><line class="cls-1" x1="53.62" y1="263.52" x2="53.82" y2="263.54"/><path class="cls-1" d="M53.62,263.52a1.25,1.25,0,0,0,.21.35.51.51,0,0,0,.34.19"/><path class="cls-1" d="M72.72,259.05a1.27,1.27,0,0,1-.13-.19.78.78,0,0,1-.11-.2"/><line class="cls-1" x1="72.72" y1="259.05" x2="72.86" y2="258.9"/><path class="cls-1" d="M72.75,259.12l0-.07"/><line class="cls-1" x1="72.91" y1="258.99" x2="72.75" y2="259.12"/><path class="cls-1" d="M72.92,259.53c-.06-.14-.12-.27-.17-.41"/><line class="cls-1" x1="72.92" y1="259.53" x2="73.12" y2="259.55"/><path class="cls-1" d="M72.92,259.53a1.17,1.17,0,0,0,.2.34.55.55,0,0,0,.33.19"/><line class="cls-1" x1="73.45" y1="260.06" x2="73.52" y2="260.04"/><line class="cls-1" x1="91.14" y1="256.38" x2="91.22" y2="256.36"/><line class="cls-1" x1="91.34" y1="256.39" x2="91.14" y2="256.38"/><line class="cls-1" x1="90.6" y1="255.26" x2="90.45" y2="255.41"/><path class="cls-1" d="M90.45,255.41l-.13-.18-.06-.1L90.2,255"/><path class="cls-1" d="M90.49,255.47l0-.06"/><line class="cls-1" x1="90.49" y1="255.47" x2="90.65" y2="255.34"/><path class="cls-1" d="M90.66,255.86a1.71,1.71,0,0,1-.17-.39"/><line class="cls-1" x1="90.66" y1="255.86" x2="90.86" y2="255.88"/><path class="cls-1" d="M90.66,255.86a1,1,0,0,0,.17.33.53.53,0,0,0,.31.19"/><line class="cls-1" x1="89.44" y1="245.36" x2="89.61" y2="245.37"/><line class="cls-1" x1="72.97" y1="248.38" x2="72.8" y2="248.37"/><path class="cls-1" d="M72.55,249.37a.76.76,0,0,1,0-.15"/><line class="cls-1" x1="72.56" y1="249.46" x2="72.55" y2="249.37"/><path class="cls-1" d="M73.08,250.28h0"/><line class="cls-1" x1="89.55" y1="247.18" x2="89.72" y2="247.19"/><line class="cls-1" x1="89.94" y1="246.23" x2="90.11" y2="246.24"/><line class="cls-1" x1="90.1" y1="246.16" x2="90.11" y2="246.24"/><line class="cls-1" x1="89.93" y1="246.15" x2="90.1" y2="246.16"/><path class="cls-1" d="M89.44,245.36l.11,0"/><line class="cls-1" x1="33.42" y1="255.49" x2="33.59" y2="255.51"/><path class="cls-1" d="M53.72,252.77v-.11"/><line class="cls-1" x1="53.72" y1="252.77" x2="53.89" y2="252.79"/><line class="cls-1" x1="53.89" y1="252.79" x2="53.89" y2="252.88"/><line class="cls-1" x1="53.72" y1="252.86" x2="53.89" y2="252.88"/><line class="cls-1" x1="53.26" y1="253.9" x2="53.43" y2="253.92"/><line class="cls-1" x1="33.09" y1="256.69" x2="32.92" y2="256.67"/><path class="cls-1" d="M33.72,257.58h0"/><line class="cls-1" x1="33.09" y1="256.69" x2="33.08" y2="256.6"/><line class="cls-1" x1="32.92" y1="256.58" x2="33.08" y2="256.6"/><path class="cls-1" d="M33.08,256.6c0-.06,0-.11,0-.17"/><path class="cls-1" d="M101.42,256.52a.73.73,0,0,1-.46-.34,1.32,1.32,0,0,1-.18-.55"/><path class="cls-1" d="M101.42,256.3a.56.56,0,0,1-.33-.25.76.76,0,0,1-.13-.41"/><path class="cls-1" d="M133.38,263.11a.57.57,0,0,0,.26,0"/><path class="cls-1" d="M133.38,262.87h.2"/><line class="cls-1" x1="133.94" y1="262.26" x2="133.1" y2="247.09"/><path class="cls-1" d="M133.1,247.09a.86.86,0,0,0-.17-.46.55.55,0,0,0-.41-.24"/><line class="cls-1" x1="100.36" y1="244.36" x2="132.52" y2="246.39"/><line class="cls-1" x1="100.34" y1="244.13" x2="100.36" y2="244.36"/><line class="cls-1" x1="89.66" y1="246.09" x2="89.68" y2="246.32"/><line class="cls-1" x1="89.25" y1="246.29" x2="89.68" y2="246.32"/><path class="cls-1" d="M89.25,246.29h0"/><path class="cls-1" d="M72.66,249.38s0-.06,0-.06"/><line class="cls-1" x1="73.12" y1="249.35" x2="72.69" y2="249.32"/><line class="cls-1" x1="53.36" y1="252.72" x2="53.38" y2="252.97"/><line class="cls-1" x1="52.95" y1="252.93" x2="53.38" y2="252.97"/><path class="cls-1" d="M52.91,253a.06.06,0,0,1,0-.06"/><path class="cls-1" d="M33.34,256.52h0"/><line class="cls-1" x1="33.75" y1="256.57" x2="33.34" y2="256.52"/><path class="cls-1" d="M38.3,269.65l-3.63-1-1.81-.5-.25-.07-.23-.08a3,3,0,0,1-.41-.17l-.26-.14a1.56,1.56,0,0,1-.2-.16.49.49,0,0,1-.17-.34"/><path class="cls-1" d="M38.92,268.52a1.34,1.34,0,0,1-.07.52.54.54,0,0,1-.36.36"/><line class="cls-1" x1="39.57" y1="269.74" x2="39.56" y2="269.49"/><line class="cls-1" x1="87.11" y1="259.58" x2="87.11" y2="259.35"/><path class="cls-1" d="M87.11,259.35l4.11.9,1,.23.84.19h.06l.13,0a7.21,7.21,0,0,1,1,.31l.32.16a1.88,1.88,0,0,1,.23.16.8.8,0,0,1,.15.17.37.37,0,0,1,0,.18"/><path class="cls-1" d="M86.65,258.66a.86.86,0,0,0,.13.42.55.55,0,0,0,.33.27"/><line class="cls-1" x1="86.64" y1="258.51" x2="86.65" y2="258.66"/><path class="cls-1" d="M85.82,259.3H86"/><path class="cls-1" d="M85.82,259.53a.53.53,0,0,0,.25,0"/><line class="cls-1" x1="22.88" y1="181.51" x2="23.66" y2="181.18"/><line class="cls-1" x1="23.04" y1="181.49" x2="22.88" y2="181.51"/><line class="cls-1" x1="26.07" y1="221.29" x2="25.26" y2="221.07"/><line class="cls-1" x1="25.26" y1="221.07" x2="25.43" y2="221.07"/><line class="cls-1" x1="55.5" y1="218.14" x2="55.57" y2="218.1"/><line class="cls-1" x1="67.14" y1="216.89" x2="67.31" y2="216.89"/><line class="cls-1" x1="67.14" y1="216.89" x2="66.46" y2="216.68"/><line class="cls-1" x1="66.46" y1="216.68" x2="66.63" y2="216.68"/><line class="cls-1" x1="64.52" y1="180.48" x2="64.35" y2="180.5"/><line class="cls-1" x1="64.35" y1="180.5" x2="65" y2="180.2"/><line class="cls-1" x1="65" y1="180.2" x2="65.17" y2="180.18"/><path class="cls-1" d="M92.3,213.93h-.23"/><path class="cls-1" d="M92.47,213.92H92.3"/><line class="cls-1" x1="89.74" y1="179.61" x2="89.91" y2="179.59"/><line class="cls-1" x1="90.35" y1="179.86" x2="90.27" y2="179.83"/><line class="cls-1" x1="91.89" y1="214.25" x2="91.72" y2="214.25"/><line class="cls-1" x1="91.72" y1="214.25" x2="91.79" y2="214.22"/><path class="cls-1" d="M65,180.2l.07,0"/><line class="cls-1" x1="76.17" y1="184.62" x2="76.34" y2="184.6"/><path class="cls-1" d="M91.72,214.25l-10.4-3.53"/><line class="cls-1" x1="81.32" y1="210.72" x2="81.49" y2="210.71"/><path class="cls-1" d="M76.17,184.62a2.84,2.84,0,0,1,1,1.13,3.78,3.78,0,0,1,.17.35,2.68,2.68,0,0,0,.18.33.75.75,0,0,0,.64.36"/><line class="cls-1" x1="79.81" y1="184.49" x2="79.98" y2="184.48"/><path class="cls-1" d="M79.81,184.49l9.93-4.88"/><line class="cls-1" x1="77.7" y1="211.07" x2="77.87" y2="211.06"/><path class="cls-1" d="M40.54,257.38a.46.46,0,0,0,.09.23,1.09,1.09,0,0,0,.25.23,2.57,2.57,0,0,0,.52.27,7.78,7.78,0,0,0,1.14.33,23.07,23.07,0,0,0,2.33.38"/><line class="cls-1" x1="112.77" y1="247.99" x2="112.79" y2="248.23"/><line class="cls-1" x1="79.98" y1="249.75" x2="79.97" y2="249.51"/><path class="cls-1" d="M112.79,248.23a.56.56,0,0,0,0-.12"/><path class="cls-1" d="M122.18,265.67v-.24"/><path class="cls-1" d="M122.18,265.67a.07.07,0,0,1,0-.05"/><path class="cls-1" d="M122.18,265.43s0,0,0-.05"/><path class="cls-1" d="M107.13,269.43v-.26"/><path class="cls-1" d="M107.13,269.43s0-.05.05-.06"/><path class="cls-1" d="M107.13,269.17s0-.05.05-.06"/><path class="cls-1" d="M90.86,273.49v-.27"/><path class="cls-1" d="M90.86,273.49a.1.1,0,0,1,.07-.08"/><path class="cls-1" d="M90.86,273.22s0-.06.07-.08"/><path class="cls-1" d="M102,269.93l.19,0"/><path class="cls-1" d="M73.22,277.89v-.28"/><path class="cls-1" d="M73.22,277.89a.1.1,0,0,1,.08-.09"/><path class="cls-1" d="M73.22,277.61s0-.07.08-.09"/><path class="cls-1" d="M54,282.4c0-.06.06-.1.1-.12"/><path class="cls-1" d="M67,278.59l.2,0"/><path class="cls-1" d="M67,278.59h0"/><path class="cls-1" d="M121.59,248.57l0-.25"/><path class="cls-1" d="M121.59,248.57s0,0,0,0"/><path class="cls-1" d="M106.49,251.66v-.26"/><path class="cls-1" d="M106.49,251.66s0,0,.05,0"/><path class="cls-1" d="M53.18,262.58l0-.3"/><path class="cls-1" d="M53.18,262.58s0,0,0,0"/><path class="cls-1" d="M72.46,258.63l0-.29"/><path class="cls-1" d="M72.46,258.63l0,0"/><path class="cls-1" d="M90.17,255l0-.27"/><path class="cls-1" d="M90.17,255s0,0,0,0"/><line class="cls-1" x1="33.68" y1="257.57" x2="33.51" y2="257.55"/><path class="cls-1" d="M33.51,257.55h0"/><line class="cls-1" x1="76.52" y1="257.3" x2="76.35" y2="257.28"/><line class="cls-1" x1="37.64" y1="265.13" x2="37.47" y2="265.11"/><line class="cls-1" x1="31.34" y1="267.17" x2="31.34" y2="266.92"/><line class="cls-1" x1="95.03" y1="261.69" x2="95.03" y2="261.92"/><path class="cls-1" d="M86.07,246.87h0"/><path class="cls-1" d="M89.24,246.29s0,0,0,.05"/><path class="cls-1" d="M72.69,249.32h0"/><path class="cls-1" d="M76.07,248.7h0"/><path class="cls-1" d="M33.33,256.52l0,0v0"/><path class="cls-1" d="M37.34,255.79h0"/><path class="cls-1" d="M49.19,253.62h0"/><path class="cls-1" d="M53,252.93h0"/><path class="cls-1" d="M54.29,282.61a.44.44,0,0,0,.15-.08"/><path class="cls-1" d="M122.57,265.61a.53.53,0,0,0,.15-.08"/><path class="cls-1" d="M73.53,277.82a.44.44,0,0,0,.15-.08"/><path class="cls-1" d="M133.58,262.87a.44.44,0,0,0,.28-.24.67.67,0,0,0,.08-.37"/><path class="cls-1" d="M38.54,269.66a.65.65,0,0,1-.24,0"/><path class="cls-1" d="M86,259.3a.55.55,0,0,0,.36-.32,1,1,0,0,0,.09-.49"/><path class="cls-1" d="M38.49,269.4a.41.41,0,0,1-.19,0"/><line class="cls-1" x1="78.32" y1="186.77" x2="78.15" y2="186.79"/><line class="cls-1" x1="79.42" y1="208.66" x2="79.59" y2="208.65"/><path class="cls-1" d="M79.42,208.66a.7.7,0,0,0-.59.43,1.37,1.37,0,0,0-.15.35c0,.12-.08.25-.13.37a3,3,0,0,1-.85,1.26"/><path class="cls-1" d="M80,249.63a.5.5,0,0,0,0,.12"/><line class="cls-1" x1="86.02" y1="246.84" x2="86.04" y2="246.88"/><line class="cls-1" x1="49.14" y1="253.59" x2="49.17" y2="253.63"/><line class="cls-1" x1="49.11" y1="253.59" x2="49.16" y2="253.65"/><path class="cls-1" d="M49,253.61v0"/><line class="cls-1" x1="48.59" y1="254.82" x2="48.52" y2="254.81"/><path class="cls-1" d="M117.59,266.14a.28.28,0,0,0-.12,0"/><path class="cls-1" d="M85.31,274.12l-.1,0"/><line class="cls-1" x1="121.62" y1="248.36" x2="121.63" y2="248.54"/><line class="cls-1" x1="106.7" y1="251.59" x2="106.55" y2="251.62"/><line class="cls-1" x1="106.54" y1="251.45" x2="106.55" y2="251.62"/><line class="cls-1" x1="54.36" y1="264.08" x2="54.19" y2="264.06"/><line class="cls-1" x1="53.31" y1="262.49" x2="53.29" y2="262.5"/><line class="cls-1" x1="53.29" y1="262.46" x2="53.29" y2="262.5"/><line class="cls-1" x1="72.62" y1="258.55" x2="72.55" y2="258.56"/><line class="cls-1" x1="72.54" y1="258.45" x2="72.55" y2="258.56"/><line class="cls-1" x1="90.35" y1="254.93" x2="90.24" y2="254.95"/><line class="cls-1" x1="90.23" y1="254.8" x2="90.24" y2="254.95"/><path class="cls-1" d="M89.93,246v.11"/><path class="cls-1" d="M90.1,246v.15"/><path class="cls-1" d="M53.27,252l-.09,0"/><line class="cls-1" x1="53.36" y1="180.51" x2="53.29" y2="180.48"/><path class="cls-1" d="M33.1,184.77l2,.78"/><line class="cls-1" x1="89.82" y1="179.64" x2="89.74" y2="179.61"/><line class="cls-1" x1="92.2" y1="213.98" x2="92.3" y2="213.93"/><path class="cls-1" d="M67.2,216.86l-.06,0"/><path class="cls-1" d="M53.88,252.63a.81.81,0,0,1,0,.16"/><path class="cls-1" d="M91.21,273.42a.44.44,0,0,0,.15-.08"/><path class="cls-1" d="M107.5,269.36a.48.48,0,0,0,.16-.08"/><path class="cls-1" d="M76,248.46a.15.15,0,0,0-.09.06"/><path class="cls-1" d="M33.15,256.42a.39.39,0,0,0,0,.15"/><path class="cls-1" d="M90.12,179.86h.23"/><line class="cls-1" x1="33.55" y1="257.56" x2="43.85" y2="255.65"/><line class="cls-1" x1="50.12" y1="254.49" x2="53.26" y2="253.9"/><line class="cls-1" x1="89.55" y1="247.18" x2="87.46" y2="247.57"/><line class="cls-1" x1="82.18" y1="248.54" x2="72.91" y2="250.26"/><path class="cls-1" d="M100.78,255.63l-4.92-86.71"/><path class="cls-1" d="M44.87,258.82a71.42,71.42,0,0,0,8,.32c1.33,0,2.67-.05,4-.12l1,0,1-.06,2-.14c.68,0,1.35-.11,2-.18l1-.1,1-.1c1.33-.16,2.65-.34,4-.55.71-.12,1.42-.25,2.12-.39s1.21-.26,1.81-.41,1-.28,1.5-.45l.59-.22a4.37,4.37,0,0,0,.49-.23,2.88,2.88,0,0,0,.38-.22,2.75,2.75,0,0,0,.26-.22.65.65,0,0,0,.16-.21.39.39,0,0,0,0-.21"/><line class="cls-1" x1="86.07" y1="246.83" x2="86.07" y2="246.87"/><line class="cls-1" x1="86.38" y1="246.77" x2="86.4" y2="247.01"/><line class="cls-1" x1="77.32" y1="248.67" x2="86.4" y2="247.01"/><line class="cls-1" x1="75.93" y1="248.52" x2="76.05" y2="248.71"/><line class="cls-1" x1="75.9" y1="248.58" x2="76.04" y2="248.72"/><path class="cls-1" d="M75.9,248.58a.23.23,0,0,0,0,.16"/><path class="cls-1" d="M76.39,249.64c-.19,0-.32-.21-.39-.36a1.71,1.71,0,0,1-.13-.54"/><path class="cls-1" d="M76.56,249.66a.6.6,0,0,1-.39-.37,1.59,1.59,0,0,1-.13-.53"/><line class="cls-1" x1="76.56" y1="249.66" x2="76.39" y2="249.64"/><path class="cls-1" d="M85.47,248l-9.08,1.68"/><line class="cls-1" x1="85.64" y1="247.97" x2="76.56" y2="249.66"/><path class="cls-1" d="M85.86,246.91a1.51,1.51,0,0,1,0,.48,1,1,0,0,1-.19.44"/><path class="cls-1" d="M86,246.93a1.5,1.5,0,0,1-.21.87"/><path class="cls-1" d="M85.76,247.88a.34.34,0,0,1-.12.09"/><path class="cls-1" d="M37.15,255.83a1.72,1.72,0,0,0,.16.59.65.65,0,0,0,.46.38"/><line class="cls-1" x1="37.77" y1="256.8" x2="37.94" y2="256.82"/><path class="cls-1" d="M37.31,255.85a1.74,1.74,0,0,0,.17.59.64.64,0,0,0,.46.38"/><path class="cls-1" d="M37.15,255.83a.29.29,0,0,1,0-.18"/><line class="cls-1" x1="37.18" y1="255.65" x2="37.32" y2="255.81"/><line class="cls-1" x1="37.33" y1="255.8" x2="37.21" y2="255.59"/><line class="cls-1" x1="38.67" y1="255.77" x2="49.43" y2="253.79"/><line class="cls-1" x1="49.42" y1="253.54" x2="49.43" y2="253.79"/><line class="cls-1" x1="49.2" y1="253.62" x2="49.2" y2="253.58"/><path class="cls-1" d="M48.68,254.69a1.23,1.23,0,0,0,.25-.48,1.72,1.72,0,0,0,.06-.55"/><path class="cls-1" d="M48.69,254.83a.49.49,0,0,0,.14-.11"/><path class="cls-1" d="M48.89,254.66a1.26,1.26,0,0,0,.21-.47,1.74,1.74,0,0,0,.06-.51"/><path class="cls-1" d="M37.77,256.8l10.75-2"/><line class="cls-1" x1="37.94" y1="256.82" x2="48.69" y2="254.83"/><path class="cls-1" d="M122.22,265.62l.88-.21"/><line class="cls-1" x1="122.22" y1="265.38" x2="123.24" y2="265.12"/><line class="cls-1" x1="122.22" y1="265.62" x2="122.22" y2="265.38"/><path class="cls-1" d="M122.43,265.84a.35.35,0,0,1-.14-.06s-.11-.06-.11-.11"/><path class="cls-1" d="M122.43,265.6l-.14-.07s-.11-.06-.11-.1"/><line class="cls-1" x1="122.43" y1="265.6" x2="122.43" y2="265.84"/><path class="cls-1" d="M122.76,265.49a3.94,3.94,0,0,0,.35-.55"/><line class="cls-1" x1="131.83" y1="262.55" x2="123.35" y2="264.65"/><path class="cls-1" d="M107.18,269.37l.85-.22"/><line class="cls-1" x1="107.18" y1="269.11" x2="108.18" y2="268.86"/><line class="cls-1" x1="107.18" y1="269.37" x2="107.18" y2="269.11"/><path class="cls-1" d="M107.37,269.6l-.14-.06s-.1-.07-.1-.11"/><path class="cls-1" d="M107.37,269.35l-.14-.07s-.1-.06-.1-.11"/><line class="cls-1" x1="107.37" y1="269.35" x2="107.37" y2="269.6"/><path class="cls-1" d="M107.7,269.24c.11-.14.26-.42.36-.57"/><line class="cls-1" x1="117.67" y1="266.12" x2="117.47" y2="266.1"/><path class="cls-1" d="M90.93,273.41l.81-.2"/><line class="cls-1" x1="90.93" y1="273.14" x2="91.9" y2="272.9"/><line class="cls-1" x1="90.93" y1="273.41" x2="90.93" y2="273.14"/><line class="cls-1" x1="91.08" y1="273.4" x2="91.08" y2="273.67"/><path class="cls-1" d="M91.08,273.67,91,273.6s-.09-.07-.09-.11"/><path class="cls-1" d="M91.08,273.4l-.13-.07s-.09-.06-.09-.11"/><path class="cls-1" d="M91.4,273.3c.06-.09.14-.21.19-.3l.19-.3"/><line class="cls-1" x1="102.16" y1="269.96" x2="101.96" y2="269.93"/><path class="cls-1" d="M73.3,277.8l.76-.19"/><line class="cls-1" x1="73.3" y1="277.52" x2="74.23" y2="277.29"/><line class="cls-1" x1="73.3" y1="277.8" x2="73.3" y2="277.52"/><path class="cls-1" d="M73.41,278.08s-.19-.11-.19-.19"/><path class="cls-1" d="M73.41,277.8l-.12-.08a.14.14,0,0,1-.07-.11"/><line class="cls-1" x1="73.41" y1="277.8" x2="73.41" y2="278.08"/><path class="cls-1" d="M73.72,277.7l.2-.31a3.28,3.28,0,0,1,.2-.31"/><line class="cls-1" x1="85.37" y1="274.11" x2="85.17" y2="274.08"/><path class="cls-1" d="M54.11,282.57l.71-.17"/><line class="cls-1" x1="54.11" y1="282.28" x2="54.99" y2="282.06"/><line class="cls-1" x1="54.11" y1="282.57" x2="54.11" y2="282.28"/><path class="cls-1" d="M54.17,282.59c-.05,0-.16-.11-.16-.19"/><line class="cls-1" x1="54.17" y1="282.59" x2="54.17" y2="282.88"/><path class="cls-1" d="M54.48,282.49l.2-.33.21-.32"/><line class="cls-1" x1="67.13" y1="278.62" x2="66.93" y2="278.58"/><path class="cls-1" d="M67.08,278.63a.25.25,0,0,0-.12,0"/><line class="cls-1" x1="121.81" y1="248.5" x2="121.63" y2="248.54"/><line class="cls-1" x1="121.63" y1="248.36" x2="121.64" y2="248.61"/><line class="cls-1" x1="106.52" y1="251.44" x2="106.54" y2="251.7"/><path class="cls-1" d="M106.55,251.62h0l0,0"/><line class="cls-1" x1="53.18" y1="262.31" x2="53.19" y2="262.59"/><path class="cls-1" d="M53.29,262.5l-.07,0s0,0,0,.06"/><line class="cls-1" x1="72.47" y1="258.38" x2="72.48" y2="258.66"/><path class="cls-1" d="M72.55,258.56l-.06,0a0,0,0,0,0,0,0"/><line class="cls-1" x1="90.19" y1="254.77" x2="90.2" y2="255.04"/><path class="cls-1" d="M90.24,255l0,0a0,0,0,0,0,0,0"/><line class="cls-1" x1="72.38" y1="249.36" x2="72.55" y2="249.37"/><path class="cls-1" d="M72.38,249.36a1.11,1.11,0,0,1,.06-.57.68.68,0,0,1,.36-.42"/><line class="cls-1" x1="72.39" y1="249.44" x2="72.56" y2="249.46"/><line class="cls-1" x1="89.72" y1="247.19" x2="88.21" y2="247.47"/><line class="cls-1" x1="81.76" y1="248.67" x2="73.08" y2="250.28"/><path class="cls-1" d="M89.94,246.23a1.23,1.23,0,0,1,0,.54.72.72,0,0,1-.34.41"/><path class="cls-1" d="M90.11,246.24a1.23,1.23,0,0,1,0,.54.69.69,0,0,1-.34.41"/><line class="cls-1" x1="53.14" y1="251.92" x2="53.31" y2="251.94"/><path class="cls-1" d="M53.26,253.9a.82.82,0,0,0,.4-.44,1.22,1.22,0,0,0,.06-.6"/><path class="cls-1" d="M53.89,252.88a1.22,1.22,0,0,1-.06.6.82.82,0,0,1-.4.44"/><line class="cls-1" x1="53.43" y1="253.92" x2="50.97" y2="254.38"/><line class="cls-1" x1="43.31" y1="255.8" x2="33.72" y2="257.58"/><line class="cls-1" x1="33.55" y1="257.56" x2="33.72" y2="257.58"/><path class="cls-1" d="M32.92,256.67a1.21,1.21,0,0,0,.13.56.61.61,0,0,0,.46.32"/><path class="cls-1" d="M33.42,255.49A.88.88,0,0,0,33,256a1.13,1.13,0,0,0-.07.63"/><path class="cls-1" d="M101,255.64c0-.43,0-.86-.08-1.29"/><path class="cls-1" d="M100.8,252.88l-.13-2.23"/><path class="cls-1" d="M100.45,246.7l-.15-2.56"/><path class="cls-1" d="M98.44,211.38l-1.68-29.6"/><line class="cls-1" x1="133.38" y1="263.11" x2="101.42" y2="256.52"/><line class="cls-1" x1="133.38" y1="262.87" x2="101.42" y2="256.3"/><line class="cls-1" x1="89.68" y1="246.32" x2="100.36" y2="244.36"/><path class="cls-1" d="M72.49,249.36l.14,2.41c0,.2,0,.41,0,.61s0,.39.07.59a8,8,0,0,0,.3,1.17,5.58,5.58,0,0,0,1.21,2.06,3.38,3.38,0,0,0,2.1,1.08"/><path class="cls-1" d="M72.66,249.38c0,.8.09,1.6.14,2.4,0,.21,0,.41,0,.61s0,.4.07.59a7.72,7.72,0,0,0,.3,1.17,5.58,5.58,0,0,0,1.21,2.06,3.44,3.44,0,0,0,2.1,1.09"/><path class="cls-1" d="M72.49,249.36a.31.31,0,0,1,.05-.21"/><line class="cls-1" x1="73.12" y1="249.35" x2="73.11" y2="249.11"/><line class="cls-1" x1="53.38" y1="252.97" x2="73.12" y2="249.35"/><path class="cls-1" d="M52.75,253a.36.36,0,0,1,0-.18c0-.05.07-.11.13-.12"/><path class="cls-1" d="M52.75,253c0,.48,0,1,.08,1.45,0,.25,0,.49,0,.73l0,.36c0,.12,0,.24,0,.36a8.5,8.5,0,0,1-.35,2.88,7.25,7.25,0,0,1-1.33,2.57,5.13,5.13,0,0,1-1.13,1.05,4.28,4.28,0,0,1-1.21.6l-.33.08-.35.08-.72.14-1.45.3-2.85.58-2.85.58-1.47.3-.35.06a2.07,2.07,0,0,1-.35,0,3.39,3.39,0,0,1-.71,0"/><path class="cls-1" d="M52.91,253l.09,1.46,0,.73,0,.36c0,.12,0,.24,0,.36a8.7,8.7,0,0,1-.35,2.87,7.29,7.29,0,0,1-1.33,2.58,5.13,5.13,0,0,1-1.13,1,4.28,4.28,0,0,1-1.21.6l-.33.08-.35.08-.72.14-1.45.3-2.85.58-2.86.58-1.47.3-.34.06-.35,0a4.22,4.22,0,0,1-.71,0"/><line class="cls-1" x1="33.74" y1="256.31" x2="33.75" y2="256.57"/><line class="cls-1" x1="19.23" y1="259.23" x2="33.75" y2="256.57"/><path class="cls-1" d="M38.3,269.39l-3.63-1-1.81-.5-.25-.08-.23-.07a3,3,0,0,1-.41-.17,1.35,1.35,0,0,1-.26-.15.75.75,0,0,1-.2-.15.49.49,0,0,1-.17-.34"/><path class="cls-1" d="M39.09,268.54a1.65,1.65,0,0,1-.09.66.7.7,0,0,1-.46.46"/><path class="cls-1" d="M38.93,268.69a1.51,1.51,0,0,0,.17.62.83.83,0,0,0,.47.43"/><path class="cls-1" d="M39.57,269.74l3.73,1,1.9.53.28.08.29.07c.23.06.45.1.68.14.53.1,1.06.16,1.6.21s1.24.09,1.87.1,1.27,0,1.91,0,1.15-.09,1.72-.17c.23,0,.47-.06.7-.11s.21,0,.32-.06l.15,0h.09l1.55-.35,4.16-.93,6.95-1.56,13.92-3.13,7-1.57,5.09-1.14h0l.08,0,.17,0,.31-.09a4.71,4.71,0,0,0,.52-.21,1.42,1.42,0,0,0,.34-.25.4.4,0,0,0,.12-.26"/><path class="cls-1" d="M86.48,258.65a1.3,1.3,0,0,0,.17.57.76.76,0,0,0,.46.36"/><path class="cls-1" d="M24.28,181.43c-.38,0-1,.07-1.4.08"/><path class="cls-1" d="M25.26,221.07a13.33,13.33,0,0,1,1.41-.08"/><path class="cls-1" d="M56.18,217.77l-.15,0h-.12s0,0,0,0"/><path class="cls-1" d="M54.12,180.7H54"/><path class="cls-1" d="M56.35,217.77l-.11,0h-.11"/><line class="cls-1" x1="54.01" y1="180.75" x2="53.9" y2="180.71"/><line class="cls-1" x1="54.01" y1="180.75" x2="54.17" y2="180.73"/><line class="cls-1" x1="54.09" y1="180.7" x2="54.17" y2="180.73"/><line class="cls-1" x1="56.35" y1="217.77" x2="56.18" y2="217.77"/><line class="cls-1" x1="56.04" y1="217.85" x2="56.18" y2="217.77"/><line class="cls-1" x1="56.35" y1="217.77" x2="56.24" y2="217.83"/><path class="cls-1" d="M28,220.24l5-2.73,2.51-1.37,1.25-.68.66-.36.33-.18.26-.16"/><path class="cls-1" d="M53.29,180.48,46,184l-3.62,1.76a3.48,3.48,0,0,0-.79.52,4.51,4.51,0,0,0-.72.79c-.1.14-.19.28-.28.43a2.18,2.18,0,0,1-.33.42,1.41,1.41,0,0,1-.86.4"/><path class="cls-1" d="M65.57,180.43c-.34,0-.87.06-1.22.07"/><path class="cls-1" d="M66.46,216.68c.36,0,.94-.07,1.3-.07"/><path class="cls-1" d="M90.56,179.81h-.21"/><line class="cls-1" x1="90.35" y1="179.86" x2="90.52" y2="179.85"/><line class="cls-1" x1="90.45" y1="179.82" x2="90.52" y2="179.85"/><line class="cls-1" x1="92.47" y1="213.92" x2="92.3" y2="213.93"/><line class="cls-1" x1="92.47" y1="213.92" x2="92.37" y2="213.98"/><path class="cls-1" d="M65.56,180.42l10.61,4.2"/><path class="cls-1" d="M66.45,180.69l9.89,3.91"/><path class="cls-1" d="M76.34,184.6a2.86,2.86,0,0,1,1,1.14,3.59,3.59,0,0,1,.17.34,1.74,1.74,0,0,0,.18.33.73.73,0,0,0,.64.36"/><path class="cls-1" d="M81.32,210.72a2.6,2.6,0,0,1-1-1.06,3.18,3.18,0,0,1-.16-.32c0-.06,0-.12-.08-.17L80,209a.74.74,0,0,0-.6-.36"/><path class="cls-1" d="M80.3,209.21a1.17,1.17,0,0,0-.28-.38.62.62,0,0,0-.43-.18"/><path class="cls-1" d="M77.7,211.07l-10.07,5.55"/><path class="cls-1" d="M77.87,211.06l-9.74,5.38"/><path class="cls-1" d="M80,249.75a.37.37,0,0,0,.08.18.65.65,0,0,0,.19.18,1.87,1.87,0,0,0,.31.17,3.75,3.75,0,0,0,.43.16c.19.06.37.11.56.15s.44.1.66.14c.55.1,1.1.18,1.66.24s1.3.13,1.95.17,1.5.08,2.25.11c2.74.09,5.68.05,8.42-.08l2.12-.12,1-.07,1-.08c1.4-.11,2.79-.25,4.19-.42.74-.1,1.49-.2,2.23-.32s1.29-.22,1.92-.35,1.1-.24,1.64-.39l.65-.2.53-.2.42-.2a1.87,1.87,0,0,0,.29-.2.55.55,0,0,0,.17-.2.31.31,0,0,0,.06-.19"/><path class="cls-1" d="M86.46,246.73V247"/><path class="cls-1" d="M86.47,247s0,0,0,0l0,0h-.05l-.1,0a1.52,1.52,0,0,0-.21,0"/><path class="cls-1" d="M49.53,253.47l0,.26"/><path class="cls-1" d="M49.55,253.73s0,0,0,0l-.05,0-.09,0-.18,0"/><path class="cls-1" d="M54,282.69v-.29"/><path class="cls-1" d="M54,282.69c0-.06.06-.1.1-.12"/><path class="cls-1" d="M53.19,262.61v0"/><path class="cls-1" d="M54.37,264.09l-.2,0"/><path class="cls-1" d="M73.65,260.08l-.2,0"/><line class="cls-1" x1="73.07" y1="250.27" x2="72.9" y2="250.26"/><path class="cls-1" d="M73.07,250.27a.52.52,0,0,1-.4-.3.91.91,0,0,1-.11-.51"/><path class="cls-1" d="M72.9,250.26a.52.52,0,0,1-.4-.3.94.94,0,0,1-.11-.52"/><path class="cls-1" d="M33.68,257.57a.61.61,0,0,1-.46-.32,1,1,0,0,1-.13-.56"/><path class="cls-1" d="M76.52,257.3a2.41,2.41,0,0,0,.6,0l.29,0,.32-.07,1.27-.25,2.46-.5,2.47-.51,1.25-.25.31-.06.3-.07a3.06,3.06,0,0,0,.58-.2,3.87,3.87,0,0,0,1-.65,5.28,5.28,0,0,0,.87-1,7.36,7.36,0,0,0,1-2.32,9,9,0,0,0,.19-1.27c0-.21,0-.41,0-.62a5.91,5.91,0,0,0,0-.6c0-.84-.09-1.68-.14-2.52"/><path class="cls-1" d="M76.35,257.28a3,3,0,0,0,.6,0l.29,0,.32-.06,1.27-.26,2.46-.5,2.46-.5,1.26-.26.31-.06.3-.06a3.49,3.49,0,0,0,.57-.2,4,4,0,0,0,1-.65,5.4,5.4,0,0,0,.87-1,7.44,7.44,0,0,0,1-2.31,9,9,0,0,0,.19-1.28c0-.2,0-.41,0-.61s0-.38,0-.61c0-.83-.09-1.67-.14-2.51"/><path class="cls-1" d="M37.64,265.13A4.14,4.14,0,0,1,35.33,264a5.92,5.92,0,0,1-1.39-2.2,7,7,0,0,1-.35-1.27c0-.21-.07-.42-.09-.64s0-.44,0-.66c-.06-.88-.11-1.75-.16-2.62"/><path class="cls-1" d="M37.47,265.11a4.06,4.06,0,0,1-2.3-1.16,5.79,5.79,0,0,1-1.4-2.19,8,8,0,0,1-.35-1.27l-.09-.64c0-.22,0-.44,0-.66,0-.88-.11-1.75-.16-2.62"/><path class="cls-1" d="M31.34,267.17a.49.49,0,0,1,.17-.34,1.06,1.06,0,0,1,.2-.17l.28-.16a6.46,6.46,0,0,1,.73-.28c.3-.09.6-.16.9-.22l.53-.11.53-.11,1-.21,2.1-.43,6.84-1.39L58.36,261l6.84-1.39,3.45-.7,1.7-.35.85-.17.84-.17a13.66,13.66,0,0,1,1.43-.2c.61-.06,1.21-.1,1.82-.11s1.29,0,1.94,0,1.18.08,1.77.16l.91.15.4.09.42.09,1.68.37,3.41.76"/><path class="cls-1" d="M31.34,266.92a.49.49,0,0,1,.17-.34l.2-.17a1.51,1.51,0,0,1,.28-.15,5,5,0,0,1,.73-.29c.3-.09.6-.16.9-.22l.53-.11.53-.11,1-.21,2.1-.42,6.84-1.39,13.69-2.77,6.85-1.39,3.44-.7,1.7-.34.85-.18L72,258c.48-.09.95-.15,1.44-.2s1.2-.09,1.81-.11,1.29,0,1.94,0,1.18.08,1.77.16c.3,0,.61.08.91.14l.4.09.42.09,1.68.37,3.41.76"/><path class="cls-1" d="M95,261.69a.35.35,0,0,1-.12.25,1.27,1.27,0,0,1-.33.24,2.57,2.57,0,0,1-.52.21,1.58,1.58,0,0,1-.31.09l-.16,0-.09,0h0l-1,.23-2.56.57-5.43,1.22L73.58,267l-10.86,2.44-5.43,1.21-2.14.48-.35.08h0l-.07,0-.16,0-.32.06-.73.11c-.55.07-1.11.12-1.66.16"/><path class="cls-1" d="M95,261.92a.34.34,0,0,0,0-.17.61.61,0,0,0-.15-.17,1,1,0,0,0-.24-.16l-.31-.16a7.26,7.26,0,0,0-1-.32l-.13,0-.06,0-.84-.18-1-.23-4.11-.91"/><path class="cls-1" d="M86.07,246.87l3.17-.58"/><path class="cls-1" d="M72.69,249.32l3.38-.62"/><path class="cls-1" d="M33.33,256.52l4-.73"/><path class="cls-1" d="M49.19,253.62l3.76-.69"/><path class="cls-1" d="M54.29,282.61l-2.19.55"/><path class="cls-1" d="M91.21,273.42l-5.87,1.46"/><path class="cls-1" d="M107.5,269.36l-5.41,1.35"/><path class="cls-1" d="M122.57,265.61l-5,1.25"/><path class="cls-1" d="M73.53,277.82l-6.38,1.59"/><path class="cls-1" d="M133.58,262.87l-1.69.42"/><path class="cls-1" d="M86.07,259.53l-34.53,7.36"/><path class="cls-1" d="M39.49,269.45l-1,.21"/><path class="cls-1" d="M86.07,259.53a.68.68,0,0,0,.46-.4,1.32,1.32,0,0,0,.11-.62"/><path class="cls-1" d="M89.2,246.06a.19.19,0,0,0-.13.1.55.55,0,0,0,0,.17"/><path class="cls-1" d="M86,259.3,38.49,269.4"/><path class="cls-1" d="M53.7,180.74H54"/><path class="cls-1" d="M56.13,217.81Q55,199.27,54,180.73"/><path class="cls-1" d="M56.13,217.81h.12"/><path class="cls-1" d="M54,180.73h.22"/><path class="cls-1" d="M40.9,212.17a1.41,1.41,0,0,1,.9.31,2.43,2.43,0,0,1,.36.38c.11.13.21.26.33.38a4.06,4.06,0,0,0,.81.68,3.3,3.3,0,0,0,.41.23l.21.09.22.08,3.79,1.28,7.57,2.54"/><path class="cls-1" d="M37.88,214.94l-9.71,5.3"/><path class="cls-1" d="M35.51,185.79,34,185.22"/><path class="cls-1" d="M92.3,214l-2-34.11"/><path class="cls-1" d="M92.3,214s0,0,0,0h.18"/><path class="cls-1" d="M90.35,179.84h.17"/><path class="cls-1" d="M78.32,186.77a.77.77,0,0,0,.57-.45"/><path class="cls-1" d="M78.15,186.79a.74.74,0,0,0,.55-.43,1.19,1.19,0,0,0,.08-.16l.06-.18c0-.12.08-.23.13-.35a2.65,2.65,0,0,1,.84-1.18"/><path class="cls-1" d="M79.59,208.65a.74.74,0,0,0-.59.43,1.61,1.61,0,0,0-.15.36c0,.12-.08.24-.13.36a3,3,0,0,1-.85,1.26"/></svg>