<svg xmlns="http://www.w3.org/2000/svg" viewBox="0 0 170.09 41.58"><defs><style>.cls-1{fill:#434343;}</style></defs><g id="Capa_2" data-name="Capa 2"><g id="Layer_1" data-name="Layer 1"><path class="cls-1" d="M18.68,18.61l-2,8.54h7c-.67,4.59-12,6.56-10.24-4.53,1.21-7.76,10.92-12,13.07-5.94l12-3C36.71,6.21,30.11,2.51,22.84,2.51A22.74,22.74,0,0,0,.12,23.27C-1.12,34.81,7.53,41.15,17.58,41a28.75,28.75,0,0,0,15.55-4.68l4.18-17.7Zm21.83-4-6,25.58H46.93l6-25.58ZM58.65,0,49.17,40.19H61.64L71.11,0ZM55.59,3.68H43.1L41,13,54.24,9.73Zm102,9.23a15.62,15.62,0,0,0-12.25,5.86c.46-1.88,1-4,1-4h-5.17l2.62-11H131.35l-2.64,11.06h-2.82l2.66-11.06H116.09l-2.6,11-4,0-1.87,6.77c-1.38-5.88-6.91-8.65-12.13-8.65-7.39,0-13,4.86-15.39,11.42L85.82,0H73.37L63.89,40.19H76.35L79.06,28.7c-.47,4.58,1.26,12.82,12.48,12.82,5.63,0,12.83-3.65,14.55-8.73l-9.73-1.7A5.59,5.59,0,0,1,92,33.35c-2.67,0-3.43-2.29-2.89-4.34l18.1,0a11.41,11.41,0,0,0,.71-3.51,17.56,17.56,0,0,0,0-1.93h3.47l-3.94,16.66h12.45l4-16.66h2.76l-3.91,16.66h12.46l4-16.66h3.37a.1.1,0,0,0,0,.05,20,20,0,0,0-1.27,4.71v0c-.62,4.46.87,13.25,12.44,13.25,5.62,0,12.84-3.66,14.56-8.73l-9.75-1.71a5.59,5.59,0,0,1-4.31,2.26c-2.67,0-3.43-2.29-2.89-4.34h18.1a12.3,12.3,0,0,0,.68-3.54c.6-8.64-6.17-12.61-12.45-12.61m-60.18,11-6.89,0c1-3.58,7.43-4.39,6.89,0m62.11,0h-6.88c1-3.58,7.42-4.41,6.88,0"/></g></g></svg>