<?xml version="1.0" encoding="utf-8"?>
<!-- Generator: Adobe Illustrator 24.3.0, SVG Export Plug-In . SVG Version: 6.00 Build 0)  -->
<svg version="1.1" id="Capa_1" xmlns="http://www.w3.org/2000/svg" xmlns:xlink="http://www.w3.org/1999/xlink" x="0px" y="0px"
	 viewBox="0 0 170.1 41.6" style="enable-background:new 0 0 170.1 41.6;" xml:space="preserve">
<style type="text/css">
	.st0{fill-rule:evenodd;clip-rule:evenodd;fill:#12175E;}
	.st1{fill:#12175E;}
</style>
<g>
	<g>
		<path class="st0" d="M165,16.4c1.9,0,3.3-1.5,3.3-3.3c0-1.9-1.5-3.4-3.3-3.4c-1.9,0-3.3,1.5-3.3,3.4
			C161.7,14.9,163.1,16.4,165,16.4L165,16.4L165,16.4L165,16.4z M165,15.6c-1.5,0-2.6-1-2.6-2.5c0-1.5,1.1-2.6,2.6-2.6
			c1.4,0,2.5,1.1,2.5,2.6C167.6,14.5,166.4,15.6,165,15.6L165,15.6L165,15.6L165,15.6z M165.8,13.3c0.6,0,0.9-0.3,0.9-0.9
			c0-0.9-0.5-1.1-1.3-1.1h-1.7v3.5h0.8v-1.5h0.5l0.8,1.5h0.8L165.8,13.3L165.8,13.3L165.8,13.3L165.8,13.3z M164.4,12.7v-0.9h0.8
			c0.3,0,0.8,0,0.8,0.4c0,0.4-0.2,0.5-0.6,0.5H164.4L164.4,12.7L164.4,12.7z"/>
	</g>
	<path class="st1" d="M20.8,19.5l-1.9,8h6.5c-0.6,4.3-11.2,6.1-9.6-4.2C17,16,26.1,12,28.1,17.7l11.2-2.8c-1.6-7-7.8-10.5-14.6-10.5
		c-9.4,0-19.9,6.6-21.3,19.4c-1.2,10.8,6.9,16.7,16.3,16.6c6.7-0.1,12-2.5,14.6-4.4l3.9-16.6H20.8z M41.3,15.7l-5.7,24h11.7l5.7-24
		H41.3z M58.3,2l-8.9,37.6h11.7L69.9,2H58.3z M55.4,5.5H43.7l-2,8.8l12.4-3.1L55.4,5.5z M150.9,14.1c-4.7,0-8.7,2.1-11.5,5.5
		c0.4-1.8,0.9-3.8,0.9-3.8h-4.8L138,5.5h-11.7l-2.5,10.4h-2.6l2.5-10.4h-11.7l-2.4,10.3l-3.7,0l-1.7,6.3c-1.3-5.5-6.5-8.1-11.4-8.1
		c-6.9,0-12.2,4.5-14.4,10.7L83.7,2H72.1l-8.9,37.6h11.7l2.5-10.8c-0.4,4.3,1.2,12,11.7,12c5.3,0,12-3.4,13.6-8.2l-9.1-1.6
		c-1,1.3-2.6,2.1-4,2.1c-2.5,0-3.2-2.1-2.7-4.1l17,0c0.2-0.6,0.5-1.2,0.7-3.3c0-0.6,0-1.2,0-1.8h3.2L104,39.7h11.7l3.7-15.6h2.6
		l-3.7,15.6h11.7l3.7-15.6h3.2c0,0,0,0,0,0c-0.6,1.4-1,2.9-1.2,4.4v0C135,32.7,136.4,41,147.2,41c5.3,0,12-3.4,13.6-8.2l-9.1-1.6
		c-1,1.3-2.5,2.1-4,2.1c-2.5,0-3.2-2.1-2.7-4.1l0,0l17,0c0.1-0.6,0.5-1.2,0.6-3.3C163.2,17.8,156.8,14.1,150.9,14.1 M94.6,24.4
		l-6.5,0C89.1,21,95.1,20.3,94.6,24.4 M152.7,24.5l-6.4,0C147.3,21.1,153.2,20.3,152.7,24.5"/>
</g>
</svg>
