<svg xmlns="http://www.w3.org/2000/svg" viewBox="0 0 150.58 72.23"><defs><style>.cls-1{fill:#434343;}.cls-2,.cls-3{fill:#fff;}.cls-2{opacity:0.69;}</style></defs><g id="Capa_2" data-name="Capa 2"><g id="Layer_1" data-name="Layer 1"><path class="cls-1" d="M81,46.33a11.28,11.28,0,0,0,6-1.66,13.38,13.38,0,0,0,3.36-2.88,1.26,1.26,0,0,0-1.59.05,9.06,9.06,0,0,1-5.54,2.32c-4,0-4.23-2.64-4-4.06a6.06,6.06,0,0,1,.44-1.32.15.15,0,0,1,.12-.09H92.21c.08,0,.11-.11.11-.11a7.16,7.16,0,0,0,.61-2.74C92.94,33.57,91,31,87.18,31a12.87,12.87,0,0,0-10.07,4.33,11.78,11.78,0,0,0-2.06,4,5.2,5.2,0,0,0,1.16,5.35A6.68,6.68,0,0,0,81,46.33Zm-.57-9a19.38,19.38,0,0,1,1.13-1.71c1.13-1.55,3-3.35,5.07-3.31,2.61,0,2.28,2.35,2.14,3.3a11,11,0,0,1-.45,1.72.19.19,0,0,1-.19.13H80.49S80.38,37.44,80.45,37.32Z"/><path class="cls-1" d="M134.52,24.28c-.2,0-.84,0-1.45,0-2.41.16-4.16,2.29-5,4.08-.15.34-.79,1.74-2,4.31-.08.16-.07.13-.28-.07-.62-.61-1.83-1.55-4.72-1.54-3.66,0-8.44,2.6-10.54,7.84-1.44,3.59.12,7.31,4.19,7.35a9,9,0,0,0,5.34-1.56c.34-.22.3-.14.24,0l-.16.31-.43.92c0,.08,0,.14,0,.15h2.56a3,3,0,0,0,2.77-1.55c.31-.64,9.51-20.18,9.51-20.18A.06.06,0,0,0,134.52,24.28Zm-9.47,10.46c-.21.46-2.67,5.52-3.5,7.27a5.46,5.46,0,0,1-4.48,2.51c-2,0-3.48-1.8-2.72-4.36.87-3,4.38-7.27,8.42-7.27a2.91,2.91,0,0,1,2.09.68A1,1,0,0,1,125.05,34.74Z"/><path class="cls-1" d="M23.15,63.7c-2.36-1.23-5.1-1.8-4.58-3.51.42-1.31,1.84-1.69,3.29-1.69a10.11,10.11,0,0,1,4.42,1,1.22,1.22,0,0,0,1.63-.65s0-.08-.06-.12A12.39,12.39,0,0,0,22,57.13c-4.8-.21-7.54,1.65-8.41,4-.79,2.07.58,3.46,1.86,4.18,1.94,1.09,5,2.12,4.6,3.68-.33,1.27-1.23,1.78-4,1.78a10.44,10.44,0,0,1-4.89-1.45c-.71-.4-1.6.34-1.75.54a.1.1,0,0,0,0,.12,11.3,11.3,0,0,0,7,2.22c3.7,0,7.36-1.57,8.49-4.28A3.27,3.27,0,0,0,23.15,63.7Z"/><path class="cls-1" d="M56.18,57.13c-6.69,0-10.46,3.79-11.79,8.39-.86,2.92.72,6.66,6,6.66,5.4,0,9.34-3.77,11-7.59C63.27,60.31,60.62,57.13,56.18,57.13ZM58,61.44c-.64,4.46-4.72,9.44-7.39,9.44A2.35,2.35,0,0,1,48,68.28c0-2.43,3.58-9.86,7.73-9.86C57,58.42,58.33,58.92,58,61.44Z"/><path class="cls-1" d="M145.81,63.7c-2.36-1.23-5.1-1.81-4.57-3.51.41-1.31,1.84-1.69,3.29-1.69a10,10,0,0,1,4.41,1,1.23,1.23,0,0,0,1.64-.65.1.1,0,0,0-.06-.12,12.52,12.52,0,0,0-5.86-1.66c-4.8-.2-7.55,1.66-8.42,4-.78,2.08.59,3.47,1.86,4.19,1.94,1.09,5,2.12,4.6,3.67-.32,1.28-1.22,1.78-4,1.78a10.4,10.4,0,0,1-4.88-1.44c-.72-.4-1.61.33-1.75.54,0,0,0,.08,0,.12a11.3,11.3,0,0,0,7,2.22c3.7,0,7.35-1.58,8.48-4.28A3.27,3.27,0,0,0,145.81,63.7Z"/><path class="cls-1" d="M104.62,31a14.64,14.64,0,0,0-7.34,2.33c.2.64.82.73,1.57.45a14.29,14.29,0,0,1,4.3-1.22c2.66-.21,4,1.22,3.36,2.58-.34.72-.88,1.76-.88,1.76-.7-.76-2.54-1.38-4.82-1.18-3.49.31-7.14,2.09-8.4,5.19A3.76,3.76,0,0,0,96,46.34a9.87,9.87,0,0,0,5.63-1.65c.24-.16.49-.4.38-.17l-.14.3-.54,1.12c0,.08,0,.15,0,.15h2.57a3,3,0,0,0,2.78-1.56c.31-.65.72-1.5,1.11-2.34l2.32-5C111.12,35,110.93,31,104.62,31Zm.36,7.13c-.37.76-1.7,3.71-1.85,4a5.4,5.4,0,0,1-4.88,2.54,2,2,0,0,1-2.08-2.16c.29-2.35,2.56-4.84,6-5.27a3.88,3.88,0,0,1,2.63.39A.41.41,0,0,1,105,38.08Z"/><path class="cls-1" d="M61.06,42.24c-.39.84-.77,1.64-1.09,2.29a3,3,0,0,1-2.77,1.56H54.62c-.06,0-.08-.07,0-.15L56.43,42l.11-.23c2.56-5.42,6.7-14.18,7-14.93.86-1.87,2.68-4.14,5.18-4.3.66,0,1.21,0,1.45,0,.06,0,.08.05.05.12-.5,1.08-4.93,10.53-5,10.63s0,.12.2,0l.69-.47A8.24,8.24,0,0,1,71.29,31c4.73,0,4.31,3.87,3.42,5.73-.43.92-1.57,3.37-2.58,5.51-.39.84-.77,1.64-1.08,2.29a3,3,0,0,1-2.78,1.56H65.69c-.06,0-.08-.06,0-.15.23-.47,1-2.06,1.85-3.89,1.42-3,3.17-6.72,3.45-7.33.51-1.07-.13-1.9-1.64-1.9-1.88,0-4.67,1.76-5.84,4.28-.37.8-1.36,2.88-2.28,4.84Z"/><path class="cls-1" d="M110.57,72.23a11.38,11.38,0,0,0,6-1.67,13.38,13.38,0,0,0,3.36-2.88,1.26,1.26,0,0,0-1.59,0,9.06,9.06,0,0,1-5.54,2.32c-4,0-4.23-2.63-4-4a5.39,5.39,0,0,1,.45-1.33.11.11,0,0,1,.11-.09h12.39c.08,0,.11-.1.11-.1a7.24,7.24,0,0,0,.61-2.75c0-2.27-1.93-4.83-5.75-4.86a12.91,12.91,0,0,0-10.07,4.33,11.78,11.78,0,0,0-2.06,4,5.2,5.2,0,0,0,1.16,5.35A6.73,6.73,0,0,0,110.57,72.23Zm-.57-9a19.38,19.38,0,0,1,1.13-1.71c1.13-1.55,3-3.34,5.07-3.31,2.61,0,2.28,2.35,2.14,3.3a11,11,0,0,1-.45,1.72.21.21,0,0,1-.19.14H110S109.93,63.33,110,63.21Z"/><path class="cls-1" d="M82.31,70.38A3,3,0,0,1,79.54,72H77c-.07,0-.08-.07,0-.15.22-.48,8.25-17.52,8.25-17.52.86-1.88,2.68-4.16,5.19-4.3.63,0,1.19,0,1.42,0a.08.08,0,0,1,.08.11Z"/><path class="cls-1" d="M76.49,68.11,75.4,70.39A3,3,0,0,1,72.62,72H70c-.06,0-.08-.07,0-.15l.7-1.49c0-.09,0-.1-.07,0l-.27.19a9.82,9.82,0,0,1-5.72,1.68c-3.52-.09-4-3.6-2.92-6,.9-2.06,3.46-7.58,4.1-8.93,0-.08.09-.16.16-.16h4.5c.08,0,.1,0,.07.13s-4.49,9.45-4.88,10.58c-.5,1.43-.11,2.59,1.29,2.66,2.74,0,4.37-1.41,5-2.72L73,65.51c.31-.65,3.74-8.14,3.81-8.29s.09-.16.17-.16h4.5q.1,0,.06.12Z"/><path class="cls-1" d="M119.48,71.88c0,.05,0,.1,0,.1h2.61a3,3,0,0,0,2.73-1.48l3.72-8.14c1.45-2.36,4.56-3,6.14-1.56,0,0,.14.13.21,0,1.57-1.93,2.16-2.52,2.8-3.36.07-.08,0-.14-.06-.16a3.5,3.5,0,0,0-1.54-.36,8.22,8.22,0,0,0-5.87,2.44l-.24.23c-.09.07-.13,0-.08-.1l0,0,0,0c.14-.31.81-1.64,1.05-2.16a.08.08,0,0,0-.06-.1s-3-.51-4.72.79a2.77,2.77,0,0,0-.69.89S119.51,71.84,119.48,71.88Z"/><path class="cls-1" d="M30.66,68.11,29.57,70.4A3,3,0,0,1,26.79,72H24.22c-.07,0-.09-.07,0-.15.23-.47,1-2.06,1.85-3.89l.11-.24c2.56-5.42,6.61-14,7-14.7.85-1.88,2.68-4.15,5.18-4.31.65,0,1.21,0,1.44,0,.06,0,.09,0,.06.12-.51,1.07-4.84,10.31-4.9,10.42s0,.11.2,0l.69-.46a8.17,8.17,0,0,1,5.12-1.83c4.73,0,4.32,3.87,3.42,5.73-.43.92-1.56,3.38-2.57,5.52-.39.84-.77,1.63-1.09,2.28A3,3,0,0,1,37.87,72H35.29c-.07,0-.08-.06,0-.15.23-.47,1-2.06,1.85-3.89,1.42-3,3.18-6.72,3.46-7.33.5-1.07-.14-1.9-1.64-1.9-1.88,0-4.68,1.76-5.84,4.28-.38.8-1.37,2.88-2.28,4.84Z"/><path class="cls-1" d="M110.33,50c-.21,0-.85,0-1.47,0-2.41.17-4.17,2.32-5,4.12-.16.34-.8,1.75-2,4.33-.08.17-.07.14-.28-.06-.63-.61-1.85-1.55-4.75-1.54-3.68,0-8.48,2.64-10.58,7.91-1.43,3.61.15,7.36,4.23,7.38a9.06,9.06,0,0,0,5.37-1.58c.34-.23.31-.14.24,0l-.15.31-.44.92c0,.08,0,.15,0,.15h2.58a3,3,0,0,0,2.78-1.57c.31-.64,9.5-20.31,9.5-20.31S110.37,50,110.33,50Zm-9.49,10.54c-.21.46-2.67,5.56-3.5,7.31a5.48,5.48,0,0,1-4.49,2.54c-2,0-3.5-1.8-2.76-4.37.88-3,4.39-7.32,8.45-7.34a3,3,0,0,1,2.11.69A1,1,0,0,1,100.84,60.53Z"/><path class="cls-1" d="M150,45a4.45,4.45,0,0,1-1-.41,10.75,10.75,0,0,1-2.56-2A7.84,7.84,0,0,0,148,40.68a9.36,9.36,0,0,0,1-2.42l.05-.24a1.73,1.73,0,0,0-1.89,1,9.17,9.17,0,0,1-.47.91,5.11,5.11,0,0,1-1.33,1.48h0a21.05,21.05,0,0,1-1.56-2,24,24,0,0,1-1.3-2.18l.14,0c1-.27,6.62-1.89,6.62-4.86,0-1.89-2.24-2.9-4.29-2.9-4.29,0-6.95,2.34-7.44,4.78a3.52,3.52,0,0,0,.53,2.37s0,0,0,0c-.42.08-5.17,1-6,4.8-.82,3.44,2,4.87,6.34,4.9a9.33,9.33,0,0,0,5.6-1.56,7.45,7.45,0,0,0,.83.62,4.56,4.56,0,0,0,2.39.62h2c.63-.08,1.33-.24,1.38-.83Zm-6.06-14c1.49,0,1.81.77,1.76,1.43a3.7,3.7,0,0,1-1,2A6.71,6.71,0,0,1,142,35.8l-.11,0s0,0,0,0a5.66,5.66,0,0,1-.64-2.22A2.53,2.53,0,0,1,143.91,31Zm-1.52,12.59a5.31,5.31,0,0,1-2.84.83c-1.68.1-3.37-.39-3.73-2.21A3.12,3.12,0,0,1,137,39.48a5.92,5.92,0,0,1,1.84-1s0,0,.07,0a21.77,21.77,0,0,0,1.66,2.61,27.85,27.85,0,0,0,1.93,2.42S142.5,43.54,142.39,43.59Z"/><path class="cls-2" d="M54.54,6.11c7.1,8.73,1.32,23.58-12.9,33.17S10.13,49.56,3,40.84,1.71,17.27,15.93,7.68,47.43-2.62,54.54,6.11Z"/><path class="cls-1" d="M55.06,6.63a12.67,12.67,0,0,0-1-1.08c-7.47-7.94-24.15-7-38,2.3C1.88,17.44-3.89,32.28,3.21,41a12.67,12.67,0,0,0,1,1.08c7.45,7.94,24.15,7,37.95-2.3C56.37,30.2,62.15,15.36,55.06,6.63Z"/><path class="cls-3" d="M40,8c-4.34-.92-10.71.5-16.46,4.09C15,17.48,10.44,25.77,13.48,30.63c0,0,0,0,0,0,2.31,3.86,8.58,4.53,13.6,1.68.28-.16.56-.32.85-.51s.36-.24.54-.38.37-.24.32-.4,0-.16-.12-.16c-3.83.36-7.09-.69-8.64-3.18-2.74-4.39.83-11.58,8-16C32.34,9,37,7.89,40.54,8.39l.92.16A4,4,0,0,0,40,8Z"/><path class="cls-3" d="M20.73,36.77c4.33.92,10.71-.5,16.45-4.09C45.78,27.31,50.29,19,47.26,14.16l0,0c-2.32-3.86-8.59-4.53-13.61-1.68-.27.16-.56.32-.85.51l-.53.38c-.18.14-.38.24-.33.4s0,.16.13.16c3.83-.36,7.08.69,8.64,3.18,2.74,4.39-.84,11.58-8,16.05-4.3,2.68-8.9,3.77-12.5,3.27l-.92-.16A4,4,0,0,0,20.73,36.77Z"/></g></g></svg>