<?xml version="1.0" encoding="utf-8"?>
<!-- Generator: Adobe Illustrator 24.3.0, SVG Export Plug-In . SVG Version: 6.00 Build 0)  -->
<svg version="1.1" id="Capa_1" xmlns="http://www.w3.org/2000/svg" xmlns:xlink="http://www.w3.org/1999/xlink" x="0px" y="0px"
	 viewBox="0 0 150.6 72.2" style="enable-background:new 0 0 150.6 72.2;" xml:space="preserve">
<style type="text/css">
	.st0{fill:#24388D;}
	.st1{clip-path:url(#SVGID_2_);fill:#24388D;}
	.st2{clip-path:url(#SVGID_4_);fill:#24388D;}
	.st3{clip-path:url(#SVGID_6_);}
	.st4{clip-path:url(#SVGID_10_);fill:#FFFFFF;}
	.st5{clip-path:url(#SVGID_13_);}
	.st6{clip-path:url(#SVGID_14_);}
	.st7{clip-path:url(#SVGID_19_);}
	.st8{clip-path:url(#SVGID_20_);}
	.st9{fill:#FFFFFF;}
	.st10{clip-path:url(#SVGID_26_);}
</style>
<g>
	<path class="st0" d="M81.7,38.2c0.2-0.4,0.6-0.9,1-1.6c1-1.4,2.8-3.1,4.7-3.1c2.4,0,2.1,2.2,2,3.1c-0.1,0.7-0.3,1.4-0.4,1.6
		c0,0.1-0.2,0.1-0.2,0.1h-7.1C81.7,38.4,81.6,38.3,81.7,38.2L81.7,38.2z M82.2,46.6c2.3,0,4.1-0.6,5.6-1.6c1.9-1.1,2.9-2.4,3.1-2.7
		c-0.1-0.1-0.8-0.5-1.5,0c-1,0.9-2.9,2.2-5.1,2.2c-3.7,0-3.9-2.4-3.7-3.8c0.1-0.6,0.3-1.1,0.4-1.2l0.1-0.1h11.5
		c0.1,0,0.1-0.1,0.1-0.1s0.6-1.2,0.6-2.6c0-2.1-1.8-4.5-5.3-4.5c-3.6,0-7.1,1.4-9.4,4c-0.3,0.4-1.3,1.8-1.9,3.7
		c-0.6,2-0.2,3.7,1.1,5C78.9,46.2,80.7,46.6,82.2,46.6L82.2,46.6z"/>
	<path class="st0" d="M123.2,35.8c-0.2,0.4-2.5,5.1-3.3,6.8c-0.6,1.2-2.5,2.3-4.2,2.3c-1.9,0-3.2-1.7-2.5-4.1
		c0.8-2.8,4.1-6.8,7.8-6.8c1,0,1.7,0.4,1.9,0.6C123.3,35.1,123.3,35.5,123.2,35.8L123.2,35.8z M132,26.1c-0.2,0-0.8,0-1.4,0
		c-2.2,0.1-3.9,2.1-4.6,3.8c-0.1,0.3-0.7,1.6-1.9,4c-0.1,0.2-0.1,0.1-0.3-0.1c-0.6-0.6-1.7-1.4-4.4-1.4c-3.4,0-7.8,2.4-9.8,7.3
		c-1.3,3.3,0.1,6.8,3.9,6.8c2.6,0,4.2-0.9,5-1.4c0.3-0.2,0.3-0.1,0.2,0l-0.1,0.3c-0.2,0.4-0.3,0.7-0.4,0.9c0,0.1,0,0.1,0,0.1l2.4,0
		c1.2,0,2.1-0.6,2.6-1.4C123.5,44.4,132,26.2,132,26.1L132,26.1L132,26.1z"/>
	<path class="st0" d="M28.4,62.8c-2.2-1.1-4.7-1.7-4.3-3.3c0.4-1.2,1.7-1.6,3.1-1.6c1.8,0,3.2,0.5,4.1,1c0,0,1,0.4,1.5-0.6l-0.1-0.1
		c-0.5-0.3-2.4-1.4-5.4-1.5c-4.5-0.2-7,1.5-7.8,3.7c-0.7,1.9,0.5,3.2,1.7,3.9c1.8,1,4.7,2,4.3,3.4c-0.3,1.2-1.1,1.7-3.7,1.7
		c-1.8,0-3.5-0.8-4.5-1.3c-0.7-0.4-1.5,0.3-1.6,0.5l0,0.1c0.4,0.3,2.7,2.1,6.5,2.1c3.4,0,6.8-1.5,7.9-4
		C30.7,65.2,30.1,63.6,28.4,62.8L28.4,62.8z"/>
	<g>
		<defs>
			<rect id="SVGID_1_" x="6.9" y="3.5" width="140" height="67.2"/>
		</defs>
		<clipPath id="SVGID_2_">
			<use xlink:href="#SVGID_1_"  style="overflow:visible;"/>
		</clipPath>
		<path class="st1" d="M60.8,60.7c-0.6,4.1-4.4,8.8-6.9,8.8c-1.3,0-2.4-0.7-2.4-2.4c0-2.3,3.3-9.2,7.2-9.2
			C59.9,57.8,61.1,58.3,60.8,60.7L60.8,60.7z M59.1,56.6c-6.2,0-9.7,3.5-11,7.8c-0.8,2.7,0.7,6.2,5.5,6.2c5,0,8.7-3.5,10.3-7.1
			C65.7,59.6,63.3,56.6,59.1,56.6L59.1,56.6z"/>
		<path class="st1" d="M142.5,62.8c-2.2-1.1-4.7-1.7-4.3-3.3c0.4-1.2,1.7-1.6,3.1-1.6c1.8,0,3.2,0.5,4.1,1c0,0,1,0.4,1.5-0.6
			c0,0,0-0.1-0.1-0.1c-0.5-0.3-2.4-1.4-5.4-1.5c-4.5-0.2-7,1.5-7.8,3.7c-0.7,1.9,0.5,3.2,1.7,3.9c1.8,1,4.7,2,4.3,3.4
			c-0.3,1.2-1.1,1.7-3.7,1.7c-1.8,0-3.5-0.8-4.5-1.3c-0.7-0.4-1.5,0.3-1.6,0.5l0,0.1c0.4,0.3,2.7,2.1,6.5,2.1c3.4,0,6.8-1.5,7.9-4
			C144.7,65.2,144.1,63.6,142.5,62.8L142.5,62.8z"/>
	</g>
	<path class="st0" d="M104.5,38.9c-0.3,0.7-1.6,3.4-1.7,3.7c-0.6,1.3-2.3,2.4-4.5,2.4c-1,0-2.1-0.7-1.9-2c0.3-2.2,2.4-4.5,5.6-4.9
		c1.3-0.2,2.1,0.1,2.4,0.4C104.5,38.6,104.6,38.8,104.5,38.9L104.5,38.9z M104.2,32.3c-3,0-5.6,1.4-6.8,2.2c0.2,0.6,0.8,0.7,1.5,0.4
		c1.6-0.6,2.5-1,4-1.1c2.5-0.2,3.7,1.1,3.1,2.4c-0.3,0.7-0.8,1.6-0.8,1.6c-0.6-0.7-2.4-1.3-4.5-1.1c-3.2,0.3-6.6,1.9-7.8,4.8
		c-1.1,2.8,0.7,5.1,3.3,5.1c2.4,0,4.2-0.8,5.2-1.5c0.2-0.2,0.5-0.4,0.4-0.2l-0.1,0.3c-0.2,0.5-0.4,0.9-0.5,1c0,0.1,0,0.1,0,0.1h2.4
		c1.2,0,2.1-0.6,2.6-1.5c0.3-0.6,0.7-1.4,1-2.2l2.1-4.7C110.2,36.1,110,32.3,104.2,32.3L104.2,32.3z"/>
	<g>
		<defs>
			<rect id="SVGID_3_" x="6.9" y="3.5" width="140" height="67.2"/>
		</defs>
		<clipPath id="SVGID_4_">
			<use xlink:href="#SVGID_3_"  style="overflow:visible;"/>
		</clipPath>
		<path class="st2" d="M63.7,42.8c-0.4,0.8-0.7,1.5-1,2.1c-0.4,0.9-1.4,1.5-2.6,1.5h-2.4c-0.1,0-0.1-0.1,0-0.1
			c0.2-0.4,0.9-1.9,1.7-3.6l0.1-0.2c2.4-5,6.2-13.2,6.5-13.9c0.8-1.7,2.5-3.9,4.8-4c0.6,0,1.1,0,1.3,0c0.1,0,0.1,0,0.1,0.1
			c-0.5,1-4.6,9.8-4.6,9.9c0,0.1,0,0.1,0.2,0c0.2-0.1,0.5-0.3,0.6-0.4c1-0.7,2.4-1.7,4.8-1.7c4.4,0,4,3.6,3.2,5.3
			c-0.4,0.9-1.5,3.1-2.4,5.1c-0.4,0.8-0.7,1.5-1,2.1c-0.4,0.9-1.4,1.5-2.6,1.5H68c-0.1,0-0.1-0.1,0-0.1c0.2-0.4,0.9-1.9,1.7-3.6
			c1.3-2.8,3-6.2,3.2-6.8c0.5-1-0.1-1.8-1.5-1.8c-1.7,0-4.3,1.6-5.4,4c-0.3,0.7-1.3,2.7-2.1,4.5L63.7,42.8L63.7,42.8z"/>
		<path class="st2" d="M109.2,62.3c0.2-0.4,0.6-0.9,1-1.6c1.1-1.4,2.8-3.1,4.7-3.1c2.4,0,2.1,2.2,2,3.1c-0.1,0.7-0.3,1.4-0.4,1.6
			c0,0.1-0.2,0.1-0.2,0.1h-7.1C109.2,62.4,109.1,62.4,109.2,62.3L109.2,62.3z M109.7,70.7c2.3,0,4.1-0.6,5.6-1.6
			c1.9-1.2,2.9-2.4,3.1-2.7c-0.1-0.1-0.8-0.5-1.5,0c-1,0.9-2.9,2.2-5.1,2.2c-3.7,0-3.9-2.4-3.7-3.8c0.1-0.6,0.3-1.1,0.4-1.2l0.1-0.1
			h11.5c0.1,0,0.1-0.1,0.1-0.1s0.6-1.2,0.6-2.6c0-2.1-1.8-4.5-5.4-4.5c-3.6,0-7.1,1.4-9.4,4c-0.3,0.4-1.3,1.8-1.9,3.7
			c-0.6,2-0.2,3.7,1.1,5C106.4,70.3,108.2,70.7,109.7,70.7L109.7,70.7z"/>
		<path class="st2" d="M83.4,69c-0.4,0.9-1.4,1.5-2.6,1.5h-2.4c-0.1,0-0.1-0.1,0-0.1c0.2-0.4,7.7-16.3,7.7-16.3
			c0.8-1.7,2.5-3.9,4.8-4c0.6,0,1.1,0,1.3,0c0.1,0,0.1,0.1,0.1,0.1L83.4,69L83.4,69z"/>
		<path class="st2" d="M78,66.9c-0.4,0.8-0.7,1.5-1,2.1c-0.4,0.9-1.4,1.5-2.6,1.5H72c-0.1,0-0.1-0.1,0-0.1c0.1-0.2,0.7-1.4,0.7-1.4
			c0-0.1,0-0.1-0.1,0c-0.1,0-0.1,0.1-0.3,0.2c-0.4,0.3-2.4,1.6-5.3,1.6c-3.3-0.1-3.7-3.3-2.7-5.6c0.8-1.9,3.2-7.1,3.8-8.3
			c0-0.1,0.1-0.1,0.1-0.1l4.2,0c0.1,0,0.1,0,0.1,0.1c0,0-4.2,8.8-4.5,9.8c-0.5,1.3-0.1,2.4,1.2,2.5c2.5,0,4.1-1.3,4.6-2.5
			c0.3-0.7,0.7-1.4,1-2.1c0.3-0.6,3.5-7.6,3.5-7.7c0-0.1,0.1-0.1,0.1-0.1l4.2,0c0.1,0,0.1,0,0.1,0.1L78,66.9L78,66.9z"/>
	</g>
	<path class="st0" d="M118,70.4C118,70.4,118,70.5,118,70.4l2.5,0.1c0.9,0,2.1-0.4,2.5-1.4l3.5-7.6c1.3-2.2,4.2-2.8,5.7-1.4
		c0,0,0.1,0.1,0.2,0c1.5-1.8,2-2.3,2.6-3.1c0.1-0.1,0-0.1,0-0.2c-0.3-0.2-0.9-0.3-1.4-0.3c-3.2,0-5.1,1.9-5.5,2.3
		c-0.1,0.1-0.2,0.2-0.2,0.2c-0.1,0.1-0.1,0-0.1-0.1l0,0l0,0c0.1-0.3,0.8-1.5,1-2l-0.1-0.1c0,0-2.8-0.5-4.4,0.7
		c-0.2,0.1-0.5,0.4-0.6,0.8L118,70.4L118,70.4z"/>
	<path class="st0" d="M35.4,66.9c-0.4,0.8-0.7,1.5-1,2.1c-0.4,0.9-1.4,1.5-2.6,1.5h-2.4c-0.1,0-0.1-0.1,0-0.1
		c0.2-0.4,0.9-1.9,1.7-3.6l0.1-0.2c2.4-5,6.1-13,6.5-13.7c0.8-1.7,2.5-3.9,4.8-4c0.6,0,1.1,0,1.3,0c0.1,0,0.1,0,0.1,0.1
		c-0.5,1-4.5,9.6-4.6,9.7c0,0.1,0,0.1,0.2,0c0.2-0.1,0.5-0.3,0.6-0.4c1-0.7,2.4-1.7,4.8-1.7c4.4,0,4,3.6,3.2,5.3
		c-0.4,0.9-1.5,3.1-2.4,5.1c-0.4,0.8-0.7,1.5-1,2.1c-0.4,0.9-1.4,1.5-2.6,1.5h-2.4c-0.1,0-0.1-0.1,0-0.1c0.2-0.4,0.9-1.9,1.7-3.6
		c1.3-2.8,3-6.2,3.2-6.8c0.5-1-0.1-1.8-1.5-1.8c-1.7,0-4.3,1.6-5.4,4c-0.3,0.7-1.3,2.7-2.1,4.5L35.4,66.9L35.4,66.9z"/>
	<path class="st0" d="M100.7,59.8c-0.2,0.4-2.5,5.2-3.3,6.8c-0.6,1.2-2.5,2.4-4.2,2.4c-1.9,0-3.3-1.7-2.6-4.1
		c0.8-2.8,4.1-6.8,7.8-6.8c1.1,0,1.7,0.4,2,0.6C100.8,59.1,100.8,59.5,100.7,59.8L100.7,59.8z M109.5,50c-0.2,0-0.8,0-1.4,0
		c-2.2,0.2-3.9,2.2-4.6,3.8c-0.1,0.3-0.7,1.6-1.9,4c-0.1,0.2-0.1,0.1-0.3-0.1c-0.6-0.6-1.7-1.4-4.4-1.4c-3.4,0-7.9,2.4-9.8,7.4
		c-1.3,3.4,0.1,6.8,3.9,6.9c2.6,0,4.2-0.9,5-1.5c0.3-0.2,0.3-0.1,0.2,0l-0.1,0.3c-0.2,0.4-0.3,0.7-0.4,0.9c0,0.1,0,0.1,0,0.1h2.4
		c1.2,0,2.1-0.6,2.6-1.5C101,68.4,109.5,50.1,109.5,50L109.5,50L109.5,50z"/>
	<path class="st0" d="M139.3,44.1c-0.3,0.2-1,0.7-2.6,0.8c-1.6,0.1-3.1-0.4-3.5-2.1c-0.2-1,0.5-2,1.1-2.5c0.8-0.7,1.7-1,1.7-1l0.1,0
		c0.1,0.3,0.6,1,1.5,2.4C138.4,42.9,139.3,43.9,139.3,44.1C139.4,44,139.4,44,139.3,44.1L139.3,44.1z M140.7,32.4
		c1.4,0,1.7,0.7,1.6,1.3c0,0.4-0.3,1-0.9,1.8c-0.6,0.7-2,1.2-2.4,1.3l-0.1,0l0,0c-0.1-0.2-0.6-1.1-0.6-2.1
		C138.2,33.4,139.3,32.4,140.7,32.4L140.7,32.4z M146.3,45.4c-0.3-0.1-0.6-0.2-0.9-0.4c-0.9-0.5-1.7-1.1-2.4-1.9
		c0.2-0.2,0.9-0.8,1.4-1.8c0.3-0.5,0.7-1.4,0.9-2.3l0.1-0.2c-0.2-0.1-1.3-0.1-1.8,0.9c0,0-0.3,0.6-0.4,0.8c-0.7,1-1.2,1.4-1.2,1.4
		l0,0c-0.5-0.6-1-1.2-1.5-1.9c-0.7-1-1.2-2-1.2-2s0.1,0,0.1,0c0.9-0.2,6.2-1.8,6.2-4.5c0-1.8-2.1-2.7-4-2.7c-4,0-6.5,2.2-6.9,4.4
		c-0.2,1.1,0.5,2.2,0.5,2.2v0c-0.4,0.1-4.8,1-5.6,4.5c-0.8,3.2,1.9,4.5,5.9,4.6c3.3,0,5.2-1.5,5.2-1.5s0.4,0.4,0.8,0.6
		c0.6,0.4,1.4,0.6,2.2,0.6h1.9c0.6-0.1,1.2-0.2,1.3-0.8L146.3,45.4L146.3,45.4z"/>
	<g>
		<defs>
			<path id="SVGID_5_" d="M24.5,47.7c-5.5,0-10.4-1.6-13.5-4.9c3.1,3,7.9,4.5,13.2,4.5c6.8,0,14.6-2.4,21.6-7.1
				c13.2-8.9,18.6-22.7,12-30.8c-0.2-0.3-0.5-0.6-0.7-0.8c0.4,0.4,0.7,0.7,1,1.1c6.6,8.1,1.2,21.9-12,30.8
				C39.1,45.3,31.2,47.7,24.5,47.7"/>
		</defs>
		<clipPath id="SVGID_6_">
			<use xlink:href="#SVGID_5_"  style="overflow:visible;"/>
		</clipPath>
		<g class="st3">
			<defs>
				<rect id="SVGID_7_" x="10.9" y="8.6" width="53.8" height="39.1"/>
			</defs>
			<clipPath id="SVGID_8_">
				<use xlink:href="#SVGID_7_"  style="overflow:visible;"/>
			</clipPath>
			<g style="clip-path:url(#SVGID_8_);">
				
					<image style="overflow:visible;" width="204" height="148" xlink:href="5571F1B1.jpg"  transform="matrix(0.2713 0 0 -0.2713 10.4864 48.2742)">
				</image>
			</g>
		</g>
	</g>
	<g>
		<defs>
			<rect id="SVGID_9_" x="6.9" y="3.5" width="140" height="67.2"/>
		</defs>
		<clipPath id="SVGID_10_">
			<use xlink:href="#SVGID_9_"  style="overflow:visible;"/>
		</clipPath>
		<path class="st4" d="M10.7,42.6c-0.3-0.3-0.7-0.7-1-1.1c-6.6-8.1-1.2-21.9,12-30.8c7-4.7,14.8-7.1,21.6-7.1
			c5.5,0,10.3,1.6,13.5,4.8c-3.2-3.1-7.9-4.6-13.3-4.6c-6.8,0-14.6,2.4-21.6,7.1C8.6,19.7,3.3,33.5,9.9,41.7
			C10.1,42,10.4,42.3,10.7,42.6"/>
	</g>
	<g>
		<defs>
			<path id="SVGID_11_" d="M24.1,47.3c-5.4,0-10.1-1.5-13.2-4.5c-0.1-0.1-0.2-0.2-0.2-0.2c-0.3-0.3-0.5-0.6-0.8-0.9
				c-6.6-8.1-1.2-21.9,12-30.8c7-4.7,14.8-7.1,21.6-7.1c5.4,0,10.2,1.5,13.3,4.6c0.1,0.1,0.2,0.2,0.2,0.2c0.3,0.3,0.5,0.5,0.7,0.8
				c6.6,8.1,1.2,21.9-12,30.8C38.7,44.9,30.9,47.3,24.1,47.3 M44.2,4.7c-6.3,0-13.7,2.3-20.3,6.7c-12.3,8.3-17.4,21-11.3,28.5
				C15.4,43.3,20,45,25.5,45c6.3,0,13.7-2.3,20.3-6.7c12.3-8.3,17.4-21,11.3-28.5C54.3,6.4,49.6,4.7,44.2,4.7"/>
		</defs>
		<defs>
			<rect id="SVGID_12_" x="6.9" y="3.5" width="140" height="67.2"/>
		</defs>
		<clipPath id="SVGID_13_">
			<use xlink:href="#SVGID_11_"  style="overflow:visible;"/>
		</clipPath>
		<clipPath id="SVGID_14_" class="st5">
			<use xlink:href="#SVGID_12_"  style="overflow:visible;"/>
		</clipPath>
		<g class="st6">
			<defs>
				<rect id="SVGID_15_" x="7" y="3.7" width="53.6" height="43.7"/>
			</defs>
			<clipPath id="SVGID_16_">
				<use xlink:href="#SVGID_15_"  style="overflow:visible;"/>
			</clipPath>
			<g style="clip-path:url(#SVGID_16_);">
				
					<image style="overflow:visible;" width="204" height="164" xlink:href="5571F1B3.jpg"  transform="matrix(0.2713 0 0 -0.2713 6.52 47.7312)">
				</image>
			</g>
		</g>
	</g>
	<g>
		<defs>
			<path id="SVGID_17_" d="M25.5,45c-5.5,0-10.2-1.7-12.9-5.1c-6-7.4-1-20.2,11.3-28.5c6.6-4.5,13.9-6.7,20.3-6.7
				c5.5,0,10.2,1.7,13,5.1c6,7.4,1,20.2-11.3,28.5C39.2,42.7,31.8,45,25.5,45 M44.3,5.4c-6.1,0-13.3,2.2-19.8,6.6
				C12.5,20,7.5,32.3,13.2,39.3c2.6,3.2,7,4.8,12.2,4.8c6.1,0,13.3-2.2,19.8-6.6c11.9-8,17-20.3,11.2-27.4C53.8,7,49.4,5.4,44.3,5.4
				"/>
		</defs>
		<defs>
			<rect id="SVGID_18_" x="6.9" y="3.5" width="140" height="67.2"/>
		</defs>
		<clipPath id="SVGID_19_">
			<use xlink:href="#SVGID_17_"  style="overflow:visible;"/>
		</clipPath>
		<clipPath id="SVGID_20_" class="st7">
			<use xlink:href="#SVGID_18_"  style="overflow:visible;"/>
		</clipPath>
		<g class="st8">
			<defs>
				<rect id="SVGID_21_" x="10" y="4.6" width="49.7" height="40.4"/>
			</defs>
			<clipPath id="SVGID_22_">
				<use xlink:href="#SVGID_21_"  style="overflow:visible;"/>
			</clipPath>
			<g style="clip-path:url(#SVGID_22_);">
				
					<image style="overflow:visible;" width="188" height="153" xlink:href="5571F1B6.jpg"  transform="matrix(0.2713 0 0 -0.2713 9.4913 45.7504)">
				</image>
			</g>
		</g>
	</g>
	<g>
		<defs>
			<path id="SVGID_23_" d="M25.4,44.1c-5.2,0-9.6-1.6-12.2-4.8C7.5,32.3,12.5,20,24.4,12c6.5-4.4,13.7-6.6,19.8-6.6
				c5.2,0,9.6,1.6,12.2,4.8c5.7,7,0.7,19.3-11.2,27.4C38.8,41.9,31.6,44.1,25.4,44.1"/>
		</defs>
		<clipPath id="SVGID_24_">
			<use xlink:href="#SVGID_23_"  style="overflow:visible;"/>
		</clipPath>
		<g style="clip-path:url(#SVGID_24_);">
			
				<image style="overflow:visible;" width="204" height="146" xlink:href="5571F1B7.jpg"  transform="matrix(0.2715 0 0 0.2725 7.1551 4.8661)">
			</image>
		</g>
	</g>
	<path class="st9" d="M44.1,11c-4-0.9-10,0.5-15.3,3.8c-8,5-12.2,12.7-9.4,17.2l0,0c2.2,3.6,8,4.2,12.6,1.6c0.3-0.1,0.5-0.3,0.8-0.5
		c0.2-0.1,0.3-0.2,0.5-0.4c0.2-0.1,0.3-0.2,0.3-0.4c0-0.1,0-0.2-0.1-0.2c-3.6,0.3-6.6-0.6-8-3C23,25.2,26.3,18.5,33,14.4
		c4-2.5,8.3-3.5,11.6-3l0.9,0.1C45.4,11.5,45.1,11.2,44.1,11L44.1,11z"/>
	<g>
		<defs>
			<path id="SVGID_25_" d="M26.2,37.7c4,0.9,10-0.5,15.3-3.8c8-5,12.2-12.7,9.4-17.2l0,0c-2.2-3.6-8-4.2-12.6-1.6
				c-0.3,0.1-0.5,0.3-0.8,0.5c-0.2,0.1-0.3,0.2-0.5,0.4c-0.2,0.1-0.3,0.2-0.3,0.4c0,0.1,0,0.2,0.1,0.2c3.6-0.3,6.6,0.6,8,3
				c2.5,4.1-0.8,10.8-7.4,14.9c-4,2.5-8.3,3.5-11.6,3l-0.9-0.1C24.8,37.2,25.1,37.5,26.2,37.7L26.2,37.7z"/>
		</defs>
		<clipPath id="SVGID_26_">
			<use xlink:href="#SVGID_25_"  style="overflow:visible;"/>
		</clipPath>
		<g class="st10">
			<defs>
				<rect id="SVGID_27_" x="24.8" y="12.5" width="28.8" height="26.1"/>
			</defs>
			<clipPath id="SVGID_28_">
				<use xlink:href="#SVGID_27_"  style="overflow:visible;"/>
			</clipPath>
			<g transform="matrix(1 0 0 1 0 3.814697e-06)" style="clip-path:url(#SVGID_28_);">
				
					<image style="overflow:visible;" width="112" height="101" xlink:href="5571F1B2.jpg"  transform="matrix(0.2713 0 0 -0.2713 24.257 39.3264)">
				</image>
			</g>
		</g>
	</g>
</g>
</svg>
