<?xml version="1.0" encoding="utf-8"?>
<!-- Generator: Adobe Illustrator 24.3.0, SVG Export Plug-In . SVG Version: 6.00 Build 0)  -->
<svg version="1.1" id="Capa_1" xmlns="http://www.w3.org/2000/svg" xmlns:xlink="http://www.w3.org/1999/xlink" x="0px" y="0px"
	 viewBox="0 0 100 100" style="enable-background:new 0 0 100 100;" xml:space="preserve">
<style type="text/css">
	.st0{clip-path:url(#SVGID_2_);}
	.st1{fill:none;stroke:#FFFFFF;stroke-width:2;stroke-miterlimit:10;}
	.st2{fill:#FFFFFF;}
	.st3{fill:none;}
</style>
<g id="Capa_2_1_">
	<g id="Layer_1">
		<g>
			<g>
				<defs>
					<rect id="SVGID_1_" x="14" y="16.2" width="70" height="67.3"/>
				</defs>
				<clipPath id="SVGID_2_">
					<use xlink:href="#SVGID_1_"  style="overflow:visible;"/>
				</clipPath>
				<g class="st0">
					<path class="st1" d="M64.2,36.8l-1.6,0.9l-8.2-14c-1.5-2.6-4.9-3.4-7.4-1.9c-0.7,0.5-1.4,1.1-1.9,1.9l-7.4,12.4
						c-0.5,0.9-0.2,2,0.6,2.5l0,0l6.1,3.7c0.9,0.5,2,0.3,2.5-0.6l2.8-4.6l3.6,6.1l-1.6,0.9c-0.9,0.5-1.1,1.6-0.6,2.5
						c0.3,0.4,0.6,0.7,1.1,0.8l9.9,2.5c0.9,0.3,2-0.3,2.2-1.3l2.6-9.9c0.3-0.9-0.3-2-1.3-2.2C65.1,36.5,64.6,36.6,64.2,36.8
						L64.2,36.8z"/>
					<path class="st2" d="M53.3,45.6l2.8-1.7l-6.4-10.9l-4.4,7.3l-5.7-3.4l7.3-12.2c0.6-1,1.7-1.6,2.9-1.6s2.3,0.6,2.9,1.7l9.2,15.7
						l2.8-1.7l-2.4,9.1L53.3,45.6z"/>
					<path class="st1" d="M79.7,67c-0.5-0.9-6.3-11-7.2-12.4c-0.5-0.7-1.4-1.1-2.2-0.7c-0.3,0.1-0.1,0.1-6.5,3.7
						c-0.9,0.5-1.1,1.6-0.7,2.4l0,0l2.5,4.3h-6.8v-1.8c0-1-0.8-1.8-1.8-1.8c-0.5,0-0.9,0.2-1.3,0.5l-7.2,7.2c-0.7,0.7-0.7,1.8,0,2.6
						l7.2,7.2c0.7,0.7,1.8,0.7,2.6,0c0.3-0.3,0.5-0.8,0.5-1.3v-1.9h16.2c3,0,5.4-2.4,5.4-5.4C80.4,68.8,80.2,67.8,79.7,67L79.7,67z"
						/>
					<path class="st2" d="M50.1,69.8l6.6-6.7v3.2h12.4l-4.1-7.2l4.8-2.8l1.1-0.6L77.9,68c0.9,1.6,0.4,3.6-1.2,4.6
						c-0.5,0.3-1.1,0.5-1.7,0.5H56.8v3.3L50.1,69.8z"/>
					<path class="st1" d="M24.4,75.1h14.4c1,0,1.8-0.8,1.8-1.8v-7.2c0-1-0.8-1.8-1.8-1.8l0,0h-5.1l3.5-6.1l1.6,0.9
						c0.9,0.5,2,0.2,2.5-0.6c0.3-0.4,0.3-0.9,0.2-1.4l-2.7-9.9c-0.3-0.9-1.2-1.6-2.2-1.3l-9.9,2.6c-0.9,0.3-1.6,1.2-1.3,2.2
						c0.1,0.5,0.4,0.9,0.8,1.1l1.6,0.9L19.7,67c-1.6,2.6-0.6,5.9,2,7.4C22.5,74.9,23.4,75.1,24.4,75.1L24.4,75.1z"/>
					<path class="st2" d="M24.4,73.1c-1.2,0-2.3-0.6-2.9-1.7c-0.6-1-0.6-2.4,0-3.4l9.2-16l-2.8-1.7l9.1-2.4l2.4,9.1l-2.8-1.7
						l-6.3,10.9h8.4V73L24.4,73.1z"/>
					<rect x="21" y="23" class="st3" width="57.4" height="53.9"/>
				</g>
			</g>
		</g>
	</g>
</g>
</svg>
