<svg xmlns="http://www.w3.org/2000/svg" xmlns:xlink="http://www.w3.org/1999/xlink" viewBox="0 0 98.75 74.24"><defs><style>.cls-1{fill:none;}.cls-2{opacity:0.3;isolation:isolate;}.cls-3{clip-path:url(#clip-path);}.cls-4{fill:#51bb47;}.cls-5{clip-path:url(#clip-path-2);}</style><clipPath id="clip-path"><rect class="cls-1" x="58.94" y="1.45" width="38.36" height="71.35"/></clipPath><clipPath id="clip-path-2"><rect class="cls-1" x="59.15" y="9.72" width="29.86" height="54.79"/></clipPath></defs><g id="Capa_2" data-name="Capa 2"><g id="Layer_1" data-name="Layer 1"><g class="cls-2"><g class="cls-3"><path class="cls-4" d="M61.63,1.45c-.91,0-1.8,0-2.69.1a35.68,35.68,0,0,1,0,71.15c.89.06,1.78.1,2.69.1a35.68,35.68,0,0,0,0-71.35"/></g></g><g class="cls-2"><g class="cls-5"><path class="cls-4" d="M61.63,9.73c-.84,0-1.66,0-2.48.11a27.39,27.39,0,0,1,0,54.56c.82.07,1.64.11,2.48.11a27.39,27.39,0,0,0,0-54.78"/></g></g><path class="cls-4" d="M7.5,16.53H22.75a1.45,1.45,0,0,0,0-2.9H7.5a1.45,1.45,0,1,0,0,2.9"/><path class="cls-4" d="M22.23,23.49h-6a1.45,1.45,0,0,0,0,2.89h6a1.45,1.45,0,1,0,0-2.89"/><path class="cls-4" d="M1.45,33.52H16.2a1.45,1.45,0,1,0,0-2.89H1.45a1.45,1.45,0,1,0,0,2.89"/><path class="cls-4" d="M24.2,59.16a1.44,1.44,0,0,0-1.45-1.44H7.5a1.45,1.45,0,1,0,0,2.89H22.75a1.45,1.45,0,0,0,1.45-1.45"/><path class="cls-4" d="M22.23,47.86h-6a1.45,1.45,0,0,0,0,2.89h6a1.45,1.45,0,1,0,0-2.89"/><path class="cls-4" d="M17.65,42.17a1.45,1.45,0,0,0-1.45-1.45H1.45a1.45,1.45,0,1,0,0,2.89H16.2a1.44,1.44,0,0,0,1.45-1.44"/><path class="cls-4" d="M61.63,19.73a1.44,1.44,0,0,0,1.44-1.45v-2.2a1.45,1.45,0,1,0-2.89,0v2.2a1.45,1.45,0,0,0,1.45,1.45"/><path class="cls-4" d="M77.53,21.22a1.44,1.44,0,0,0-2,0l-1.56,1.56a1.45,1.45,0,1,0,2,2l1.56-1.56a1.45,1.45,0,0,0,0-2"/><path class="cls-4" d="M80.46,35.67a1.45,1.45,0,0,0,0,2.9h2.21a1.45,1.45,0,1,0,0-2.9Z"/><path class="cls-4" d="M76,49.42a1.45,1.45,0,1,0-2,2L75.48,53a1.45,1.45,0,0,0,2-2Z"/><path class="cls-4" d="M60.18,56v2.21a1.45,1.45,0,0,0,2.89,0V56a1.45,1.45,0,1,0-2.89,0"/><path class="cls-4" d="M47.28,49.42,45.72,51a1.45,1.45,0,0,0,2.05,2l1.56-1.56a1.45,1.45,0,1,0-2-2"/><path class="cls-4" d="M40.58,35.67a1.45,1.45,0,1,0,0,2.9h2.21a1.45,1.45,0,1,0,0-2.9Z"/><path class="cls-4" d="M49.33,22.78l-1.56-1.56a1.45,1.45,0,0,0-2.05,2l1.56,1.56a1.45,1.45,0,1,0,2-2"/><path class="cls-4" d="M69.4,37.12A1.44,1.44,0,0,0,68,35.67H63.07V24.93a1.45,1.45,0,0,0-2.89,0V37.12a1.45,1.45,0,0,0,1.45,1.45H68a1.44,1.44,0,0,0,1.44-1.45"/><path class="cls-4" d="M89.05,36.88a1.44,1.44,0,0,0,1.36-1.53,28.83,28.83,0,1,0-.27,6.09A1.45,1.45,0,1,0,87.28,41a26,26,0,1,1,.24-5.48,1.45,1.45,0,0,0,1.53,1.35"/><path class="cls-4" d="M61.63,0A37.22,37.22,0,0,0,47,3H21.44a1.45,1.45,0,0,0,0,2.89H41.52a37.27,37.27,0,0,0-7.41,6.29,1.44,1.44,0,1,0,2.14,1.94,34.21,34.21,0,1,1-3.39,4.42A1.45,1.45,0,0,0,30.43,17a37.12,37.12,0,0,0,11.1,51.32H21.44a1.45,1.45,0,0,0,0,2.89H47A37.12,37.12,0,1,0,61.63,0"/></g></g></svg>