<?xml version="1.0" encoding="utf-8"?>
<!-- Generator: Adobe Illustrator 24.3.0, SVG Export Plug-In . SVG Version: 6.00 Build 0)  -->
<svg version="1.1" id="Capa_1" xmlns="http://www.w3.org/2000/svg" xmlns:xlink="http://www.w3.org/1999/xlink" x="0px" y="0px"
	 viewBox="0 0 175 175" style="enable-background:new 0 0 175 175;" xml:space="preserve">
<style type="text/css">
	.st0{fill:#51BB47;}
	.st1{fill:#FFFFFF;}
</style>
<g id="Capa_2_1_">
	<g id="Layer_1">
		<rect x="148.5" y="112.4" class="st0" width="24" height="6"/>
		<rect x="2.5" y="112.8" class="st0" width="23.8" height="5.4"/>
		<rect x="39.2" y="112.7" class="st0" width="23.6" height="5.6"/>
		<rect x="75.7" y="112.7" class="st0" width="23.4" height="5.6"/>
		<rect x="111.9" y="112.9" class="st0" width="23.8" height="5.4"/>
		<rect x="2.5" y="124.1" class="st0" width="170" height="13.4"/>
		<path class="st0" d="M3.8,107.2h167.4c0.3,0,0.5,0.2,0.5,0.5v0.1c0,0.3-0.2,0.5-0.5,0.5H3.8c-0.3,0-0.5-0.2-0.5-0.5v-0.1
			C3.3,107.4,3.6,107.2,3.8,107.2z"/>
		<path class="st0" d="M3.8,104.3h167.4c0.3,0,0.5,0.2,0.5,0.5v0.1c0,0.3-0.2,0.5-0.5,0.5H3.8c-0.3,0-0.5-0.2-0.5-0.5v-0.1
			C3.3,104.5,3.6,104.3,3.8,104.3z"/>
		<path class="st0" d="M3.8,101.7h167.4c0.3,0,0.5,0.2,0.5,0.5v0.1c0,0.3-0.2,0.5-0.5,0.5H3.8c-0.3,0-0.5-0.2-0.5-0.5v-0.1
			C3.3,101.9,3.6,101.7,3.8,101.7z"/>
		<path class="st0" d="M3.8,98.5h167.4c0.3,0,0.5,0.2,0.5,0.5V99c0,0.3-0.2,0.5-0.5,0.5H3.8c-0.3,0-0.5-0.2-0.5-0.5V99
			C3.3,98.7,3.6,98.5,3.8,98.5z"/>
		<path class="st0" d="M3.8,95.3h167.4c0.3,0,0.5,0.2,0.5,0.5v0.1c0,0.3-0.2,0.5-0.5,0.5H3.8c-0.3,0-0.5-0.2-0.5-0.5v-0.1
			C3.3,95.5,3.6,95.3,3.8,95.3z"/>
		<path class="st0" d="M3.8,92.7h167.4c0.3,0,0.5,0.2,0.5,0.5v0.1c0,0.3-0.2,0.5-0.5,0.5H3.8c-0.3,0-0.5-0.2-0.5-0.5v-0.1
			C3.3,92.9,3.6,92.7,3.8,92.7z"/>
		<path class="st0" d="M3.8,90.1h167.4c0.3,0,0.5,0.2,0.5,0.5v0.1c0,0.3-0.2,0.5-0.5,0.5H3.8c-0.3,0-0.5-0.2-0.5-0.5v-0.1
			C3.3,90.3,3.6,90.1,3.8,90.1z"/>
		<path class="st0" d="M3.8,87.2h167.4c0.3,0,0.5,0.2,0.5,0.5v0.1c0,0.3-0.2,0.5-0.5,0.5H3.8c-0.3,0-0.5-0.2-0.5-0.5v-0.1
			C3.3,87.5,3.6,87.2,3.8,87.2z"/>
		<path class="st0" d="M3.8,84.6h167.4c0.3,0,0.5,0.2,0.5,0.5v0.1c0,0.3-0.2,0.5-0.5,0.5H3.8c-0.3,0-0.5-0.2-0.5-0.5v-0.1
			C3.3,84.9,3.6,84.6,3.8,84.6z"/>
		<path class="st0" d="M3.8,81.5h167.4c0.3,0,0.5,0.2,0.5,0.5V82c0,0.3-0.2,0.5-0.5,0.5H3.8c-0.3,0-0.5-0.2-0.5-0.5v-0.1
			C3.3,81.7,3.6,81.5,3.8,81.5z"/>
		<path class="st0" d="M3.8,78.3h167.4c0.3,0,0.5,0.2,0.5,0.5v0.1c0,0.3-0.2,0.5-0.5,0.5H3.8c-0.3,0-0.5-0.2-0.5-0.5v-0.1
			C3.3,78.5,3.6,78.3,3.8,78.3z"/>
		<path class="st0" d="M3.8,75.7h167.4c0.3,0,0.5,0.2,0.5,0.5v0.1c0,0.3-0.2,0.5-0.5,0.5H3.8c-0.3,0-0.5-0.2-0.5-0.5v-0.1
			C3.3,75.9,3.6,75.7,3.8,75.7z"/>
		<path class="st0" d="M3.8,73.1h167.4c0.3,0,0.5,0.2,0.5,0.5v0.1c0,0.3-0.2,0.5-0.5,0.5H3.8c-0.3,0-0.5-0.2-0.5-0.5v-0.1
			C3.3,73.3,3.6,73.1,3.8,73.1z"/>
		<path class="st0" d="M3.8,70.2h167.4c0.3,0,0.5,0.2,0.5,0.5v0.1c0,0.3-0.2,0.5-0.5,0.5H3.8c-0.3,0-0.5-0.2-0.5-0.5v-0.1
			C3.3,70.4,3.6,70.2,3.8,70.2z"/>
		<path class="st0" d="M3.8,67.6h167.4c0.3,0,0.5,0.2,0.5,0.5v0.1c0,0.3-0.2,0.5-0.5,0.5H3.8c-0.3,0-0.5-0.2-0.5-0.5v-0.1
			C3.3,67.8,3.6,67.6,3.8,67.6z"/>
		<path class="st0" d="M3.8,64.4h167.4c0.3,0,0.5,0.2,0.5,0.5V65c0,0.3-0.2,0.5-0.5,0.5H3.8c-0.3,0-0.5-0.2-0.5-0.5v-0.1
			C3.3,64.6,3.6,64.4,3.8,64.4z"/>
		<path class="st0" d="M3.8,61.3h167.4c0.3,0,0.5,0.2,0.5,0.5v0.1c0,0.3-0.2,0.5-0.5,0.5H3.8c-0.3,0-0.5-0.2-0.5-0.5v-0.1
			C3.3,61.5,3.6,61.3,3.8,61.3z"/>
		<path class="st0" d="M3.8,58.7h167.4c0.3,0,0.5,0.2,0.5,0.5v0.1c0,0.3-0.2,0.5-0.5,0.5H3.8c-0.3,0-0.5-0.2-0.5-0.5v-0.1
			C3.3,58.9,3.6,58.7,3.8,58.7z"/>
		<path class="st0" d="M3.8,56h167.4c0.3,0,0.5,0.2,0.5,0.5v0.1c0,0.3-0.2,0.5-0.5,0.5H3.8c-0.3,0-0.5-0.2-0.5-0.5v-0.1
			C3.3,56.2,3.6,56,3.8,56z"/>
		<path class="st0" d="M3.8,53.4h167.4c0.3,0,0.5,0.2,0.5,0.5v0.1c0,0.3-0.2,0.5-0.5,0.5H3.8c-0.3,0-0.5-0.2-0.5-0.5v-0.1
			C3.3,53.6,3.6,53.4,3.8,53.4z"/>
		<path class="st0" d="M3.8,50.5h167.4c0.3,0,0.5,0.2,0.5,0.5V51c0,0.3-0.2,0.5-0.5,0.5H3.8c-0.3,0-0.5-0.2-0.5-0.5V51
			C3.3,50.7,3.6,50.5,3.8,50.5z"/>
		<path class="st0" d="M3.8,47.9h167.4c0.3,0,0.5,0.2,0.5,0.5v0.1c0,0.3-0.2,0.5-0.5,0.5H3.8c-0.3,0-0.5-0.2-0.5-0.5v-0.1
			C3.3,48.1,3.6,47.9,3.8,47.9z"/>
		<path class="st0" d="M3.8,44.7h167.4c0.3,0,0.5,0.2,0.5,0.5v0.1c0,0.3-0.2,0.5-0.5,0.5H3.8c-0.3,0-0.5-0.2-0.5-0.5v-0.1
			C3.3,44.9,3.6,44.7,3.8,44.7z"/>
		<path class="st0" d="M3.8,41.5h167.4c0.3,0,0.5,0.2,0.5,0.5v0.1c0,0.3-0.2,0.5-0.5,0.5H3.8c-0.3,0-0.5-0.2-0.5-0.5V42
			C3.3,41.7,3.6,41.5,3.8,41.5z"/>
		<path class="st0" d="M3.8,38.9h167.4c0.3,0,0.5,0.2,0.5,0.5v0.1c0,0.3-0.2,0.5-0.5,0.5H3.8c-0.3,0-0.5-0.2-0.5-0.5v-0.1
			C3.3,39.1,3.6,38.9,3.8,38.9z"/>
		<path class="st0" d="M3.8,35.7h167.4c0.3,0,0.5,0.2,0.5,0.5v0.1c0,0.3-0.2,0.5-0.5,0.5H3.8c-0.3,0-0.5-0.2-0.5-0.5v-0.1
			C3.3,35.9,3.6,35.7,3.8,35.7z"/>
		<path class="st0" d="M3.8,32.5h167.4c0.3,0,0.5,0.2,0.5,0.5v0.1c0,0.3-0.2,0.5-0.5,0.5H3.8c-0.3,0-0.5-0.2-0.5-0.5V33
			C3.3,32.7,3.6,32.5,3.8,32.5z"/>
		<path class="st0" d="M3.8,29.9h167.4c0.3,0,0.5,0.2,0.5,0.5v0.1c0,0.3-0.2,0.5-0.5,0.5H3.8c-0.3,0-0.5-0.2-0.5-0.5v-0.1
			C3.3,30.1,3.6,29.9,3.8,29.9z"/>
		<g>
			<rect x="37.3" y="36.2" class="st1" width="100.5" height="63.3"/>
			<path class="st0" d="M138.2,100H36.8V35.7h101.5V100z M37.7,99h99.5V36.7H37.7V99z"/>
		</g>
		<path class="st0" d="M71.2,50.5c0-1.6-0.7-2.5-2.1-2.5c-0.7-0.1-1.4,0.3-1.8,0.8c-0.4,0.8-0.6,1.7-0.6,2.6h-5
			c0-2.2,0.8-4.3,2.3-5.8c1.5-1.3,3.5-2,5.5-1.9c1.9-0.1,3.7,0.5,5.2,1.7c1.2,1.2,1.8,2.9,1.8,4.5c-0.1,2.2-0.9,4.4-2.4,6.1
			c-1.6,2-3.5,3.7-5.7,5h8.4v4.2H61.6v-3.9C68,56.8,71.2,53.2,71.2,50.5z"/>
		<path class="st0" d="M78,54.6c-0.1-2.8,0.6-5.5,2-7.9c1.4-1.9,3.5-2.9,6.4-2.9c2.9,0,5.1,1,6.4,2.9c1.5,2.4,2.2,5.1,2,7.9
			c0.1,2.8-0.6,5.5-2,7.9c-1.3,1.9-3.5,2.9-6.4,2.9s-5.1-1-6.4-2.9C78.5,60.1,77.8,57.4,78,54.6z M89.8,54.6c0.1-1.5-0.2-3-0.7-4.4
			c-0.5-1-1.5-1.6-2.7-1.5c-1.1-0.1-2.2,0.5-2.7,1.5c-0.5,1.4-0.8,2.9-0.7,4.4c-0.1,1.5,0.2,3,0.7,4.4c0.5,1,1.6,1.7,2.7,1.6
			c1.1,0.1,2.2-0.5,2.7-1.6C89.6,57.6,89.9,56.1,89.8,54.6L89.8,54.6z"/>
		<path class="st0" d="M96.5,54.6c-0.1-2.8,0.6-5.5,2-7.9c1.3-1.9,3.5-2.9,6.4-2.9c2.9,0,5.1,1,6.4,2.9c1.5,2.4,2.2,5.1,2,7.9
			c0.1,2.8-0.6,5.5-2,7.9c-1.4,1.9-3.5,2.9-6.4,2.9c-2.9,0-5.1-1-6.4-2.9C97.2,60.6,96.5,57.9,96.5,54.6z M108.3,54.6
			c0.1-1.5-0.2-3-0.7-4.4c-0.5-1-1.5-1.6-2.7-1.5c-1.1-0.1-2.2,0.5-2.7,1.5c-0.5,1.4-0.8,2.9-0.7,4.4c-0.1,1.5,0.2,3,0.7,4.4
			c0.5,1,1.6,1.7,2.7,1.6c1.1,0.1,2.2-0.5,2.7-1.6C108.1,57.6,108.3,56.1,108.3,54.6L108.3,54.6z"/>
		<path class="st0" d="M55.4,84.3c-0.7,1.3-1.8,2.4-3.1,3c-1.5,0.8-3.1,1.1-4.8,1.1h-6.5V71.3h6.5c1.7,0,3.3,0.3,4.8,1.1
			c1.3,0.7,2.4,1.7,3.1,3C56.8,78.2,56.8,81.5,55.4,84.3L55.4,84.3z M50.9,83.4c0.9-1,1.4-2.3,1.3-3.6c0.1-1.3-0.4-2.7-1.3-3.6
			c-1-0.9-2.4-1.4-3.8-1.3h-2v9.8h1.9C48.5,84.8,49.9,84.3,50.9,83.4L50.9,83.4z"/>
		<path class="st0" d="M62.3,71.3v17.1h-4.2V71.3H62.3z"/>
		<path class="st0" d="M76.1,86.1c-0.5,0.8-1.2,1.4-2,1.8c-1,0.5-2.1,0.7-3.3,0.7c-1.7,0.1-3.4-0.4-4.8-1.4c-1.2-0.9-2-2.3-2-3.9
			h4.4c0,0.6,0.3,1.1,0.7,1.5c0.4,0.4,1,0.6,1.5,0.6c0.5,0,0.9-0.1,1.3-0.4c0.6-0.6,0.6-1.6,0-2.3c-0.3-0.3-0.7-0.5-1.1-0.7
			c-0.4-0.2-1-0.4-1.7-0.7c-0.9-0.3-1.8-0.7-2.7-1.1c-0.7-0.4-1.3-0.9-1.8-1.6c-1-1.6-1-3.7,0-5.3c0.6-0.8,1.3-1.4,2.2-1.7
			c1-0.4,2.1-0.6,3.1-0.6c1.6-0.1,3.2,0.4,4.5,1.4c1.1,0.9,1.9,2.3,1.9,3.7H72c0-0.5-0.2-1-0.6-1.4c-0.4-0.3-0.8-0.5-1.3-0.5
			c-0.4,0-0.9,0.1-1.2,0.4c-0.6,0.6-0.6,1.6,0,2.2c0.3,0.3,0.6,0.5,1,0.7c0.4,0.2,1,0.4,1.7,0.7c0.9,0.3,1.8,0.7,2.7,1.1
			c0.7,0.4,1.3,0.9,1.8,1.6c0.5,0.8,0.8,1.8,0.7,2.7C76.8,84.5,76.5,85.3,76.1,86.1z"/>
		<path class="st0" d="M82.5,82.4v6h-4.2V71.3h6.7c1.7-0.1,3.4,0.4,4.7,1.5c1.1,1.1,1.7,2.6,1.6,4.1c0,1-0.2,2-0.7,2.9
			c-0.5,0.8-1.2,1.5-2.1,1.9c-1.1,0.5-2.2,0.8-3.4,0.7L82.5,82.4z M87.1,76.9c0-1.5-0.8-2.3-2.5-2.3h-2.1v4.5h2.1
			C86.3,79.1,87.1,78.4,87.1,76.9z"/>
		<path class="st0" d="M96.8,85.2h5.5v3.2h-9.6V71.3h4.2L96.8,85.2z"/>
		<path class="st0" d="M114.2,85.3h-6.4l-1.1,3.1h-4.4l6.3-17h4.8l6.3,17h-4.4L114.2,85.3z M113.1,82.1l-2.1-6.3l-2.2,6.3H113.1z"/>
		<path class="st0" d="M135.4,71.3l-5.9,11.4v5.7h-4.2v-5.7l-5.9-11.4h4.8l3.3,7l3.3-7H135.4z"/>
		<rect x="17.9" y="132.8" class="st1" width="20" height="12.3"/>
		<rect x="80.9" y="132.8" class="st1" width="20" height="12.3"/>
		<rect x="137.2" y="132.8" class="st1" width="20" height="12.3"/>
	</g>
</g>
</svg>
