<?xml version="1.0" encoding="utf-8"?>
<!-- Generator: Adobe Illustrator 24.3.0, SVG Export Plug-In . SVG Version: 6.00 Build 0)  -->
<svg version="1.1" id="Capa_1" xmlns="http://www.w3.org/2000/svg" xmlns:xlink="http://www.w3.org/1999/xlink" x="0px" y="0px"
	 viewBox="0 0 100 100" style="enable-background:new 0 0 100 100;" xml:space="preserve">
<style type="text/css">
	.st0{fill:#FFFFFF;}
</style>
<g id="Capa_2_1_">
	<g id="Layer_1">
		<path class="st0" d="M44.8,69.3h16.9c6.4,0,12.9,0,19.3,0c4.8,0,8.4,3,9.2,7.3c1,4.6-1.7,9.1-6.1,10.5c-1.4,0.5-1.8,1.1-1.7,2.4
			c0,0.6,0,1.1,0,1.8c0,0.9-0.7,1.6-1.6,1.6H70.4c-0.9,0-1.6-0.7-1.6-1.6l0,0v-3.4H43.7v3.4c0,0.9-0.7,1.6-1.6,1.6H11.2
			c-0.9,0-1.6-0.7-1.6-1.6c0,0,0,0,0,0V8.5c0-0.7,0.5-1.2,1.2-1.2h54.9c0.6,0,1,0.4,1,1v14.9c0,0.6-0.4,1.1-1,1.1h-5.9
			c-0.5,2.2-0.8,4.4-1,6.6c-0.1,5.4,0,10.9,0,16.5c0,0.5-0.4,1-0.9,1l-2.8,0.2c-0.3,0-0.5,0.2-0.5,0.5v7.6c0,0.6-0.4,1-1,1.1
			L50.5,58c0,1.7,0.1,3.3-0.1,5c0,0.5-0.7,0.9-1.1,1.3c-0.4-0.4-1-0.9-1.1-1.3c-0.1-1.6-0.1-3.2-0.1-5L46,57.9
			c-1-0.1-1.8-0.9-1.8-1.9v-6.8c0-0.3-0.2-0.5-0.5-0.5L41,48.4c-0.5,0-0.9-0.4-0.9-0.9c-0.9-7.4,1-15.1-1.2-22.5
			c-0.1-0.3-0.4-0.6-0.7-0.5H24.4c-0.4,0-0.7,0.3-0.7,0.7c0,0,0,0,0,0.1c0,4.3,0.3,8.6-0.1,12.8c-0.5,5.2,1.1,9,5,12.5
			c4.5,4.1,8.5,8.7,12.6,13.2C42.4,65.2,43.3,66.9,44.8,69.3z M38.2,22.1c0.3-1.1,0.5-2,0.8-2.8c1.4-4.4,5.6-7.5,10.2-7.5
			c4.7,0,9.1,2.8,10.2,7.4c0.7,2.8,2.1,3.1,4,2.8c0.5-0.1,0.9-0.5,0.8-1V10.4c0-0.5-0.4-0.9-0.9-0.9c0,0,0,0,0,0H13.1
			c-0.7,0-1.2,0.5-1.2,1.2c0,0,0,0,0,0v78.7c0,0.6,0.5,1.1,1.1,1.1c0,0,0,0,0,0H40c0.6,0,1.1-0.5,1.1-1.1l0,0c0-7.3,0-14.4-0.1-21.5
			c-0.2-0.8-0.6-1.6-1.2-2.2c-3.5-3.8-7.1-7.4-10.6-11.2c-2.6-2.8-6.2-5.2-7.6-8.5s-0.4-7.5-0.4-11.3c0-1,0-1.9,0-2.9v-9.1
			c0-0.4,0.3-0.7,0.7-0.7c0,0,0,0,0,0H38.2z M43.7,85.1c13,0,25.7,0,38.4,0c2.6,0,4.4-1.6,5.4-3.9c2.1-4.7-1.3-9.6-6.7-9.6
			c-11.8-0.1-23.7,0-35.5,0c-0.5,0-1,0.1-1.5,0.2V77c1.2,0.5,4.1-0.1,11.8,0c12.1,0,6.1,0,18.5-0.3c1.4,0,2.2,0.1,2.9-0.8
			c2.2-2.8,5.8-2.9,8,0.1c0.8,1,1,2.4,0.7,3.7c-0.6,2.5-3.1,4.1-5.6,3.5c-1.1-0.3-2.1-0.9-2.8-1.9c-0.7-1.1-1.9-1.7-3.2-1.5
			c-9.3,0-18.6,0-27.9,0c-0.8,0-1.5,0.1-2.3,0.2L43.7,85.1z M56.2,45.3v-13c0-0.3-0.3-0.6-0.6-0.6c-0.1,0-0.2,0-0.3,0.1
			c-4.2,2.5-8.2,2.3-12.3,0c-0.2-0.1-0.6-0.1-0.7,0.2c-0.1,0.1-0.1,0.2-0.1,0.3v13c0,0.5,0.4,0.8,0.8,0.8h0h12.3
			C55.9,46.1,56.2,45.7,56.2,45.3z M57.8,22.6c0-4.7-3.9-8.5-8.6-8.5c-4.7,0-8.5,3.9-8.5,8.6c0,4.6,3.7,8.3,8.2,8.5
			c4.7,0.2,8.6-3.4,8.8-8.1C57.8,23,57.8,22.8,57.8,22.6L57.8,22.6z M47.2,55.4h4c0.4,0,0.7-0.3,0.7-0.7c0,0,0,0,0,0v-5.3
			c0-0.4-0.3-0.7-0.7-0.7c0,0,0,0,0,0h-4c-0.4,0-0.7,0.3-0.7,0.7v5.3C46.5,55.1,46.8,55.4,47.2,55.4z M71.9,90.5h7.3
			c0.4,0,0.8-0.3,0.8-0.8v-1.3c0-0.4-0.3-0.7-0.8-0.7h-7.3c-0.4,0-0.7,0.3-0.8,0.7v1.3C71.1,90.2,71.5,90.5,71.9,90.5z M82.2,77
			c-0.7-0.7-1.9-0.7-2.7,0c-0.6,0.5-0.9,0.9-0.8,1.3c0.1,0.5,0.4,0.9,0.8,1.2c0.9,0.8,2.2,0.8,3.1,0c0.3-0.2,0.5-0.6,0.6-1
			C83.2,77.9,82.8,77.5,82.2,77z"/>
		<path class="st0" d="M50.1,28.8c-3.4,0.4-6.4-2-6.8-5.4s2-6.4,5.4-6.8c3.4-0.4,6.4,2,6.8,5.4c0.1,1.1,0,2.1-0.4,3.1
			C54.1,27.1,52.2,28.5,50.1,28.8z M49.3,18.8c-2.1,0-3.8,1.7-3.9,3.8c0,2.1,1.7,3.8,3.8,3.9s3.8-1.7,3.9-3.8
			C53.2,20.6,51.5,18.8,49.3,18.8C49.4,18.8,49.4,18.8,49.3,18.8z"/>
		<path class="st0" d="M47.2,48.7h4c0.4,0,0.7,0.3,0.7,0.7v5.3c0,0.4-0.3,0.7-0.7,0.7h-4c-0.4,0-0.7-0.3-0.7-0.7v-5.3
			C46.5,49,46.8,48.7,47.2,48.7z"/>
		<path class="st0" d="M71.9,87.8h7.3c0.4,0,0.8,0.3,0.8,0.8v1.3c0,0.4-0.3,0.8-0.8,0.8h-7.3c-0.4,0-0.8-0.3-0.8-0.8v-1.3
			C71.1,88.1,71.5,87.8,71.9,87.8z"/>
		<circle class="st0" cx="49.3" cy="22.6" r="4.5"/>
		<circle class="st0" cx="80.9" cy="78.5" r="4.5"/>
		<polygon class="st0" points="15.1,46.1 15.1,88.4 38.2,88.4 38.2,69.7 		"/>
	</g>
</g>
</svg>
