<?xml version="1.0" encoding="utf-8"?>
<!-- Generator: Adobe Illustrator 24.3.0, SVG Export Plug-In . SVG Version: 6.00 Build 0)  -->
<svg version="1.1" id="Capa_1" xmlns="http://www.w3.org/2000/svg" xmlns:xlink="http://www.w3.org/1999/xlink" x="0px" y="0px"
	 viewBox="0 0 175 175" style="enable-background:new 0 0 175 175;" xml:space="preserve">
<style type="text/css">
	.st0{fill:#51BB47;}
	.st1{fill:none;stroke:#51BB47;stroke-width:5;stroke-miterlimit:10;}
</style>
<g id="Capa_2_1_">
	<g id="Layer_1">
		<path class="st0" d="M64.9,148.2c-1-0.6-1.8-1.4-2.2-2.5c-1.8-3.5-3.7-7-5.5-10.6c-0.2-0.5-0.7-0.8-1.3-0.8
			c-4.2,0.2-8.5,0.4-12.7,0.7c-1.1,0.2-2.3-0.4-2.9-1.3c-0.6-1-0.5-2.2,0.2-3.1c5.2-9.1,10.5-18.3,15.7-27.5l0.8-1.5
			c-0.9-0.3-1.8-0.6-2.6-0.9c-3.6-1-6-4.3-5.9-8.1c0-1.4,0.1-2.8,0.2-4.3c0.1-1.4-0.4-2.9-1.5-3.8c-1-1-2-2-3-3.1
			c-2.3-2.5-2.8-6.2-1.1-9.2c0.7-1.3,1.4-2.5,2.2-3.7c0.9-1.3,1.1-3,0.5-4.5c-0.6-1.6-1-3.2-1.3-4.8c-0.6-3,0.7-6.1,3.3-7.8
			c1.2-0.9,2.5-1.6,3.8-2.4c1.2-0.7,2.1-1.9,2.4-3.4c0.2-1.4,0.5-2.8,0.8-4.2c0.8-3.6,3.9-6.2,7.6-6.4c1.4-0.1,2.7-0.2,4.1-0.3
			c1.3-0.1,2.5-0.8,3.3-1.8c0.9-1.2,1.8-2.3,2.8-3.5c2.3-2.7,6-3.6,9.2-2.2c1.3,0.5,2.6,1.1,3.8,1.7c1.3,0.6,2.8,0.6,4.1,0
			c1.2-0.6,2.5-1.1,3.8-1.6c3.3-1.5,7.2-0.5,9.4,2.3c0.8,0.9,1.6,1.9,2.3,2.9c1,1.5,2.7,2.4,4.6,2.3c1.2,0,2.4,0.1,3.7,0.2
			c3.7,0.4,6.6,3.2,7.2,6.8c0.2,1.2,0.5,2.4,0.7,3.7c0.2,1.4,1.1,2.7,2.3,3.4c1.6,0.9,3.2,2,4.6,3.1c2.3,2,3.3,5.2,2.4,8.1
			c-0.4,1.4-0.8,2.7-1.2,4.1c-0.4,1.4-0.3,2.9,0.5,4.1c0.8,1.3,1.6,2.6,2.3,3.9c1.5,3,1,6.5-1.2,9c-1,1.1-2,2.1-3,3.1
			c-1.1,1-1.6,2.4-1.5,3.8c0.1,1.5,0.2,3,0.2,4.5c0,3.4-2.1,6.5-5.3,7.6c-1,0.4-2.1,0.7-3.2,1c0.2,0.4,0.3,0.7,0.5,1
			c5.3,9.3,10.6,18.6,15.9,27.8c0.7,1,0.8,2.4,0.1,3.4c-0.6,0.8-1.5,1.3-2.5,1.2c-4.3-0.2-8.6-0.4-12.9-0.7
			c-0.6-0.1-1.2,0.2-1.4,0.8c-1.8,3.6-3.8,7.1-5.6,10.7c-0.4,1-1.2,1.8-2.2,2.3h-1.5c-0.9-0.4-1.7-1.2-2.2-2.1
			c-4.3-7.5-8.5-15-12.8-22.5c-1.2-2.2-2.5-4.3-3.6-6.3h-5c-0.1,0.1-0.2,0.3-0.4,0.6c-5.4,9.4-10.7,18.8-16.1,28.3
			c-0.4,0.9-1.2,1.7-2.2,2.1L64.9,148.2z M78.5,30.3c-1.5,0.1-2.9,0.8-3.8,2c-0.8,1-1.6,2-2.4,3c-1.4,1.8-3.5,3-5.8,3.2
			c-1.3,0.1-2.7,0.2-4,0.3c-2.3,0-4.2,1.7-4.5,4c-0.2,1.2-0.5,2.4-0.7,3.7c-0.4,2.4-1.9,4.6-4,5.8c-1,0.6-2,1.2-3,1.9
			c-2.1,1.1-3.1,3.6-2.2,5.9c0.4,1.3,0.8,2.5,1.1,3.8c0.6,1.9,0.4,3.9-0.5,5.7c-0.8,1.4-1.6,2.7-2.4,4.1C45,75.5,45.3,78,47,79.5
			l2.7,2.7c1.7,1.6,2.6,3.9,2.4,6.3c-0.1,1.4-0.2,2.8-0.2,4.2c-0.2,2.2,1.3,4.1,3.3,4.7c1.1,0.4,2.3,0.7,3.5,1.1
			c2.4,0.7,4.4,2.5,5.4,4.8c0.5,1.2,1.1,2.4,1.6,3.6c0.9,1.9,3,3,5.1,2.6l4-0.7c2.2-0.4,4.6,0.1,6.4,1.5c1.1,0.8,2.2,1.7,3.3,2.5
			c1.7,1.4,4.2,1.4,5.9,0c1.1-0.8,2.1-1.6,3.2-2.4c1.9-1.4,4.2-2,6.5-1.5l3.8,0.6c2.2,0.5,4.4-0.6,5.3-2.7c0.6-1.2,1.1-2.4,1.7-3.6
			c1-2.1,2.8-3.8,5-4.5c1.4-0.4,2.9-0.9,4.2-1.4c1.8-0.6,2.9-2.3,2.9-4.1c0-1.2,0-2.4-0.1-3.6c-0.4-2.9,0.7-5.8,2.9-7.8
			c0.8-0.7,1.6-1.6,2.3-2.4c1.6-1.5,1.9-3.9,0.7-5.7c-0.7-1.1-1.3-2.2-2-3.4c-1.3-2.1-1.6-4.6-0.9-6.9c0.4-1.2,0.7-2.4,1.1-3.6
			c0.8-2.2-0.1-4.6-2.1-5.7c-1.1-0.7-2.2-1.3-3.3-2.1c-1.9-1.2-3.2-3.1-3.7-5.3c-0.3-1.4-0.5-2.8-0.9-4.3c-0.4-2.1-2.2-3.7-4.4-3.7
			c-1.1-0.1-2.1-0.2-3.2-0.2c-2.9,0-5.6-1.5-7.3-3.9c-0.6-0.9-1.3-1.7-2-2.5c-1.3-1.8-3.7-2.3-5.6-1.4c-1.2,0.5-2.4,1-3.6,1.6
			c-2.2,1-4.7,1-6.9,0c-1.2-0.5-2.4-1.1-3.6-1.6C79.8,30.6,79.2,30.4,78.5,30.3z M44,131.5c4.2-0.2,8.2-0.4,12.2-0.7
			c0.3-0.1,0.6-0.3,0.8-0.6c1-1.6,1.9-3.3,2.8-4.9c0.8-1.4,1.7-1.8,2.8-1.2c1,0.6,1.1,1.6,0.3,3c-0.8,1.4-1.5,2.9-2.4,4.2
			c-0.6,0.8-0.6,1.8-0.1,2.6c1.8,3.2,3.5,6.6,5.2,9.9L82,115.3l-2.8-2.1c-1.1-0.9-2.6-1.2-4-0.9c-1.2,0.2-2.4,0.4-3.6,0.7
			c-0.4,0.1-0.8,0.4-1.1,0.7c-1,1.7-2,3.5-3,5.2c-0.3,0.5-0.8,0.9-1.4,1.1c-0.7,0.2-1.4-0.1-1.7-0.7c-0.4-0.6-0.5-1.4-0.1-2
			c0.9-1.6,1.8-3.1,2.7-4.7c-0.1-0.1-0.1-0.1-0.1-0.1l-0.3-0.2c-1.9-0.9-3.4-2.4-4.2-4.3c-0.5-1.2-1.1-2.3-1.6-3.5
			c-0.2-0.4-0.5-0.8-0.8-1.3L44,131.5z M107.9,112.5c0.9,1.6,1.8,3,2.6,4.5c0.3,0.5,0.4,1,0.4,1.5c0,0.7-0.6,1.4-1.4,1.4
			c-0.8,0.2-1.6-0.2-1.9-0.9c-1-1.8-2-3.6-3-5.3c-0.2-0.5-0.7-0.9-1.3-0.9c-0.9-0.1-1.8-0.2-2.6-0.5c-3.3-1-5.3,1.1-7.5,2.9
			l16.2,28.5c2-3.7,3.8-7.3,5.7-10.9c0.1-0.3,0.1-0.7-0.1-1c-0.9-1.7-1.9-3.4-2.9-5.1c-0.2-0.3-0.3-0.6-0.4-1
			c-0.2-1,0.4-1.9,1.3-2.1c0.8-0.2,1.6,0.2,2,0.9c1.1,1.8,2.1,3.7,3.2,5.5c0.2,0.3,0.5,0.6,0.9,0.7c1,0.1,2,0.1,3,0.2l9,0.5
			l-16-28.3c-0.7,1.4-1.3,2.5-1.8,3.7C112.1,109.4,110.6,111.5,107.9,112.5z"/>
		<path class="st0" d="M65.8,138.7c-1.1-2-2.1-4-3.2-6v-0.1l0,0c0.7-1,1.3-2.1,1.8-3.2c0.2-0.4,0.5-0.8,0.7-1.2
			c1.5-2.7,0.7-4.7-0.6-5.9c0.4,0.1,0.8,0.2,1.2,0.2c0.4,0,0.9-0.1,1.3-0.2c1.1-0.4,2-1.2,2.6-2.1c0.6-1,1.1-1.9,1.7-2.9
			c0.4-0.7,0.8-1.4,1.2-2.1c0.7-0.2,1.4-0.3,2.2-0.4l1-0.2c0.2,0,0.4-0.1,0.6-0.1c0.5,0,1,0.2,1.4,0.5l1,0.8L65.8,138.7z
			 M59.9,108.5c0.1,0.2,0.2,0.4,0.3,0.6c0.8,1.8,2,3.3,3.5,4.4c-0.5,0.9-1,1.8-1.5,2.6c-0.9,1.5-0.8,3.3,0.2,4.7
			c0.2,0.3,0.5,0.5,0.7,0.8c-0.5-0.2-1-0.3-1.5-0.3c-1.1,0-2.7,0.5-4,2.7l-0.7,1.3c-0.6,1-1.2,2.1-1.8,3.1l-6.9,0.4L59.9,108.5z"/>
		<path class="st0" d="M96.2,115.9c0.7-0.7,1.7-1.2,2.7-1.3c0.3,0,0.6,0,1,0.1c0.9,0.3,1.7,0.4,2.6,0.5c0.8,1.4,1.5,2.7,2.3,4.1
			l0.6,1c0.7,1.4,2.1,2.2,3.7,2.2c0.3,0,0.6,0,0.9-0.1l0.5-0.1c-1.2,1-1.8,2.7-1.3,4.3c0.1,0.5,0.4,1,0.6,1.4l1,1.8l1.6,2.8
			c-1,2-2.1,4-3.2,6.1L96.2,115.9z M122.1,128.6h-0.9c-0.5,0-1,0-1.4-0.1l-1.4-2.5c-0.5-0.8-0.9-1.6-1.4-2.4c-1-1.8-3.1-2.6-5-2
			c0.8-0.7,1.3-1.7,1.3-2.8c0-1-0.2-1.9-0.7-2.8c-0.4-0.8-0.9-1.6-1.3-2.4c1.7-1.3,3-3,3.8-4.9l11.5,20.2L122.1,128.6z"/>
		<path class="st1" d="M119.2,72.2c-0.1,17.5-14.4,31.7-31.9,31.6c-17.5-0.1-31.7-14.4-31.6-31.9c0.1-17.5,14.4-31.7,31.9-31.6
			C105.1,40.5,119.3,54.7,119.2,72.2z"/>
		<path class="st0" d="M63,72c-0.1,13.5,10.9,24.6,24.4,24.7s24.6-10.9,24.7-24.4c0.1-13.5-10.9-24.6-24.4-24.7c-0.3,0-0.6,0-0.9,0
			C73.5,48,63,58.7,63,72z"/>
	</g>
</g>
</svg>
