<svg xmlns="http://www.w3.org/2000/svg" viewBox="0 0 194.3 167.99"><defs><style>.cls-1{fill:#51bb47;}.cls-2{opacity:0.4;}.cls-3{fill:none;stroke:#51bb47;stroke-linecap:round;stroke-miterlimit:10;stroke-width:2px;stroke-dasharray:4 4 4 4 4 4;}</style></defs><g id="Capa_2" data-name="Capa 2"><g id="Layer_1" data-name="Layer 1"><path class="cls-1" d="M15.83,93.81V89.92H56.07v3.89Z"/><path class="cls-1" d="M56.15,96.39v3.87H15.9V96.39Z"/><path class="cls-1" d="M56.15,102.86v3.87H15.9v-3.87Z"/><path class="cls-1" d="M56.14,83.56v3.89H15.85V83.56Z"/><path class="cls-1" d="M3.35,113.81v-5.56l3.3-.19V78.52H.19L0,78.09,35.91,48.87l36.3,29.54H64.9v29.64l3.51.17v5.59Zm10.11-42c0,10-.15,28.76-.15,38.53,13.7,0,31.05.43,44.71.43,0-9.88.29-29.3.29-39.11C44.6,71.68,27.1,71.83,13.46,71.83Z"/><polygon class="cls-1" points="172.18 40.79 172.18 40.79 172.18 40.79 172.18 40.79"/><path class="cls-1" d="M149.82,20.2l-4.34,0c-4.92,0-9.65.07-14.67,0v6.5A7.49,7.49,0,0,0,129.46,31v8.71A3.26,3.26,0,0,0,132.71,43h2.64a8,8,0,0,0,15.92,0h16.59a8,8,0,0,0,15.92,0H185a1.1,1.1,0,0,0,1.1-1.1,10.29,10.29,0,0,0-9.49-10.25c0-.69,0-1.41,0-2.16-.17-4-1.82-7.79-3.58-11.8l-.91-2.12h.2a2.28,2.28,0,0,0,2.28-2.27V8.09a2.28,2.28,0,0,0-2.28-2.27h-7.81a4.88,4.88,0,0,0-4.75,3.77H156a1.11,1.11,0,1,0,0,2.21h3.79a4.88,4.88,0,0,0,3.47,3.6L165.62,26c.76,3.35-.55,5.33-1.78,6.4a7.56,7.56,0,0,1-7.34,1.29,5.77,5.77,0,0,1-3.74-4.87l-.09-.67h.94a1.1,1.1,0,0,0,1.1-1.11V24A4,4,0,0,0,152,20.23M169.84,8h2.49a.07.07,0,0,1,.07.06V13.3a.07.07,0,0,1-.07.06h-2.49A7,7,0,0,1,169.84,8Zm-5.56,5.32h-.05a2.67,2.67,0,0,1-2.38-2.56.28.28,0,0,0,0-.09.25.25,0,0,0,0-.08A2.67,2.67,0,0,1,164.52,8h3a9,9,0,0,0,0,5.33h-3.22ZM133,22.44h17.9A1.58,1.58,0,0,1,152.5,24V26H133Zm10.29,25.28A5.84,5.84,0,0,1,137.59,43H149A5.83,5.83,0,0,1,143.31,47.72Zm-8-6.93a8.06,8.06,0,0,1,16,0Zm29.2,0h-11a10.27,10.27,0,0,0-20.43,0h-.39a1,1,0,0,1-1-1V31a5.34,5.34,0,0,1,.82-2.86h17.95l.13,1a8,8,0,0,0,5.15,6.64,9.47,9.47,0,0,0,3.29.59,9.64,9.64,0,0,0,6.28-2.28,8.38,8.38,0,0,0,2.49-8.56l-2.23-10h4.18q.65,1.55,1.29,3c1.74,4,3.24,7.43,3.38,11,.15,3.77-.7,6.65-2.54,8.57C170.17,39.9,167.71,40.79,164.53,40.79Zm11.29,6.93A5.84,5.84,0,0,1,170.1,43h11.44A5.84,5.84,0,0,1,175.82,47.72Zm-3.64-6.93h0a8.94,8.94,0,0,0,1.27-1.11,11.25,11.25,0,0,0,2.87-5.83,8.08,8.08,0,0,1,7.49,6.94Z"/><g class="cls-2"><polygon class="cls-1" points="176.6 32.21 176.6 32.21 176.6 32.21 176.6 32.21"/><polygon class="cls-1" points="172.18 41.35 172.18 41.35 172.18 41.35 172.18 41.35"/><path class="cls-1" d="M176.6,32.21h0c0-.69,0-1.41,0-2.16-.17-4-1.82-7.79-3.58-11.81l-.91-2.11h.2a2.28,2.28,0,0,0,2.28-2.28V8.65a2.29,2.29,0,0,0-2.28-2.28h-7.81a4.89,4.89,0,0,0-4.75,3.78H156a1.11,1.11,0,1,0,0,2.21h3.79a4.89,4.89,0,0,0,3.47,3.6l2.38,10.63c.76,3.35-.55,5.33-1.78,6.4a7.59,7.59,0,0,1-7.34,1.29,5.78,5.78,0,0,1-3.74-4.87l-.09-.67h.94a1.11,1.11,0,0,0,1.1-1.11V24.58A3.8,3.8,0,0,0,152,21l0-.73c-.68,0-1.45,0-2.19,0v.6H133l0-.17c-.73,0-1.45,0-2.19,0v6.69a7.49,7.49,0,0,0-1.35,4.32v8.71a3.26,3.26,0,0,0,3.25,3.25h2.64a8,8,0,0,0,15.92,0h16.59a8,8,0,0,0,15.92,0H185a1.1,1.1,0,0,0,1.1-1.11A10.28,10.28,0,0,0,176.6,32.21ZM169.84,8.59h2.49a.07.07,0,0,1,.07.06v5.21a.07.07,0,0,1-.07.06h-2.49A7,7,0,0,1,169.84,8.59Zm-5.56,5.32h-.05a2.67,2.67,0,0,1-2.38-2.57.19.19,0,0,0,0-.08.22.22,0,0,0,0-.08,2.67,2.67,0,0,1,2.67-2.58h3a9,9,0,0,0,0,5.33h-3.22ZM133,23h17.9a1.58,1.58,0,0,1,1.58,1.58v2H133Zm10.29,25.28a5.85,5.85,0,0,1-5.72-4.72H149A5.84,5.84,0,0,1,143.31,48.28Zm-8-6.93a8.06,8.06,0,0,1,16,0Zm29.2,0h-11a10.27,10.27,0,0,0-20.43,0h-.39a1,1,0,0,1-1-1V31.6a5.34,5.34,0,0,1,.82-2.86h17.95l.13,1a8,8,0,0,0,5.15,6.64,9.46,9.46,0,0,0,3.29.58,9.63,9.63,0,0,0,6.28-2.27,8.38,8.38,0,0,0,2.49-8.56l-2.23-10h4.18q.65,1.55,1.29,3c1.74,4,3.24,7.43,3.38,11,.15,3.77-.7,6.65-2.54,8.56C170.17,40.46,167.71,41.35,164.53,41.35Zm11.29,6.93a5.85,5.85,0,0,1-5.72-4.72h11.44A5.85,5.85,0,0,1,175.82,48.28Zm-3.64-6.93h0a10.41,10.41,0,0,0,1.27-1.11,11.25,11.25,0,0,0,2.87-5.83,8.08,8.08,0,0,1,7.49,6.94Z"/></g><rect class="cls-1" x="129.46" y="16.81" width="22.02" height="0.73" rx="0.13"/><rect class="cls-1" x="129.46" y="14.71" width="22.02" height="0.73" rx="0.13"/><rect class="cls-1" x="129.46" y="12.61" width="22.02" height="0.73" rx="0.13"/><rect class="cls-1" x="129.46" y="10.51" width="22.02" height="0.73" rx="0.13"/><rect class="cls-1" x="129.46" y="8.41" width="22.02" height="0.73" rx="0.13"/><rect class="cls-1" x="129.46" y="6.31" width="22.02" height="0.73" rx="0.13"/><rect class="cls-1" x="129.46" y="4.2" width="22.02" height="0.73" rx="0.13"/><rect class="cls-1" x="129.46" y="2.1" width="22.02" height="0.73" rx="0.13"/><rect class="cls-1" x="129.46" width="22.02" height="0.73" rx="0.13"/><path class="cls-1" d="M121.41,32A2.51,2.51,0,0,0,116.59,31a.77.77,0,0,1-.61.54,2.4,2.4,0,0,0-1.82,2.28,2.48,2.48,0,0,0,1.7,2.43l.27.08a7.87,7.87,0,0,0,0,1.6,2.11,2.11,0,0,0,1.65,1.72,2.14,2.14,0,0,0,2.3-.75.66.66,0,0,1,.66-.26,2.31,2.31,0,0,0,2.43-1.42l0-.17h-2c-.11,0-.24,0-.32,0a.55.55,0,0,1-.25-.3c0-.08.13-.2.23-.27s.16,0,.25,0h5c.22,0,.48,0,.48.29s-.27.31-.5.31c-.49,0-1,0-1.48,0a.86.86,0,0,0-1,.6,2.81,2.81,0,0,1-2.78,1.65.64.64,0,0,0-.42.18,2.79,2.79,0,0,1-2.85.75,2.76,2.76,0,0,1-2-2.18,8.84,8.84,0,0,1,0-1,.44.44,0,0,0-.18-.32,3.1,3.1,0,0,1,.49-5.73.6.6,0,0,0,.31-.3,3.14,3.14,0,0,1,5.92.75c0,.2,0,.53.12.6a1.57,1.57,0,0,0,.73.07H126c.08,0,.18,0,.25,0a2.86,2.86,0,0,1,.35.28c-.12.1-.24.29-.36.3-.57,0-1.13,0-1.7,0-1.16,0-2.33,0-3.5,0-.14,0-.29-.15-.43-.23.09-.11.16-.29.27-.34A1.67,1.67,0,0,1,121.41,32Z"/><path class="cls-1" d="M118.38,40.8a3.81,3.81,0,0,1-1-.14A3.27,3.27,0,0,1,115,38.1a3.64,3.64,0,0,1,0-.72c0-.12,0-.24,0-.35a3.6,3.6,0,0,1,.66-6.61,3.65,3.65,0,0,1,6.89.82,1.2,1.2,0,0,1,0,.28H126a.79.79,0,0,1,.5.08,2,2,0,0,1,.33.25l.55.45-.45.4a1,1,0,0,1-.66.43c-.43,0-.86,0-1.29,0h-1.24c-.9,0-1.8,0-2.71,0a1,1,0,0,1-.58-.23l-.09-.06-.51-.28.35-.47a1,1,0,0,1,.5-.51.61.61,0,0,1,.18-.05,2,2,0,0,0-3.8-.36,1.27,1.27,0,0,1-1,.85,1.89,1.89,0,0,0-1.43,1.8A2,2,0,0,0,116,35.73l.25.08.39.11,0,.4c0,.19,0,.37,0,.55a3.72,3.72,0,0,0,0,.94,1.58,1.58,0,0,0,1.28,1.31,1.61,1.61,0,0,0,1.78-.58,1.19,1.19,0,0,1,1.1-.44,1.82,1.82,0,0,0,1.58-.57h-1.16a.93.93,0,0,1-1.07-.77c-.06-.39.31-.66.43-.75a.71.71,0,0,1,.51-.12h5.06c.85,0,1,.5,1,.8a.79.79,0,0,1-.22.59.94.94,0,0,1-.74.23h-.44a10.65,10.65,0,0,1-1.13,0c-.31,0-.37,0-.51.31a3.32,3.32,0,0,1-3.24,1.94l-.07,0A3.41,3.41,0,0,1,118.38,40.8ZM114.94,37Zm6-.6v.51a.34.34,0,0,0,.12,0Z"/><path class="cls-1" d="M122.31,34.28h2.56c.22,0,.43,0,.43.3s-.21.3-.43.3h-5.11c-.23,0-.43,0-.42-.32s.21-.28.42-.28Z"/><path class="cls-1" d="M124.89,35.38h-5.13a.94.94,0,0,1-.72-.25.77.77,0,0,1-.21-.59c0-.24.12-.78.92-.78h5.12a1.1,1.1,0,0,1,.52.1.81.81,0,0,1,.2,1.28A1,1,0,0,1,124.89,35.38Z"/><path class="cls-1" d="M169.84,8h2.49a.07.07,0,0,1,.07.07v5.2a.07.07,0,0,1-.07.06h-2.49A7,7,0,0,1,169.84,8Z"/><path class="cls-1" d="M133,22.44h17.9A1.58,1.58,0,0,1,152.5,24V26H133Z"/><path class="cls-1" d="M136.32,41.23a7.06,7.06,0,0,1,14,0Z"/><path class="cls-1" d="M170.78,41.64h0a9,9,0,0,0,1.28-1.11,11.4,11.4,0,0,0,2.87-5.83,8.08,8.08,0,0,1,7.48,6.94Z"/><polygon class="cls-1" points="172.18 158.29 172.18 158.29 172.18 158.29 172.18 158.29"/><path class="cls-1" d="M149.82,137.7l-4.34,0c-4.92,0-9.65.07-14.67,0v6.5a7.52,7.52,0,0,0-1.35,4.32v8.71a3.25,3.25,0,0,0,3.25,3.25h2.64a8,8,0,0,0,15.92,0h16.59a8,8,0,0,0,15.92,0H185a1.1,1.1,0,0,0,1.1-1.1,10.29,10.29,0,0,0-9.49-10.25c0-.69,0-1.41,0-2.16-.17-4-1.82-7.79-3.58-11.8l-.91-2.12h.2a2.28,2.28,0,0,0,2.28-2.27v-5.21a2.28,2.28,0,0,0-2.28-2.27h-7.81a4.88,4.88,0,0,0-4.75,3.77H156a1.11,1.11,0,1,0,0,2.21h3.79a4.86,4.86,0,0,0,3.47,3.6l2.38,10.63c.76,3.35-.55,5.33-1.78,6.41a7.56,7.56,0,0,1-7.34,1.28,5.75,5.75,0,0,1-3.74-4.87l-.09-.67h.94a1.1,1.1,0,0,0,1.1-1.1v-3.06a4,4,0,0,0-2.69-3.79m17.82-12.2h2.49a.07.07,0,0,1,.07.06v5.21a.07.07,0,0,1-.07.06h-2.49A7,7,0,0,1,169.84,125.53Zm-5.56,5.32h-.05a2.68,2.68,0,0,1-2.38-2.57.25.25,0,0,0,0-.08.28.28,0,0,0,0-.09,2.67,2.67,0,0,1,2.67-2.58h3a9,9,0,0,0,0,5.33h-3.22ZM133,139.94h17.9a1.58,1.58,0,0,1,1.58,1.58v1.95H133Zm10.29,25.28a5.84,5.84,0,0,1-5.72-4.72H149A5.83,5.83,0,0,1,143.31,165.22Zm-8-6.93a8.06,8.06,0,0,1,16,0Zm29.2,0h-11a10.27,10.27,0,0,0-20.43,0h-.39a1,1,0,0,1-1-1v-8.71a5.34,5.34,0,0,1,.82-2.86h17.95l.13,1a8,8,0,0,0,5.15,6.64,9.25,9.25,0,0,0,3.29.59,9.64,9.64,0,0,0,6.28-2.28,8.38,8.38,0,0,0,2.49-8.56l-2.23-10h4.18q.65,1.55,1.29,3c1.74,4,3.24,7.43,3.38,11,.15,3.77-.7,6.65-2.54,8.57C170.17,157.4,167.71,158.29,164.53,158.29Zm11.29,6.93a5.84,5.84,0,0,1-5.72-4.72h11.44A5.84,5.84,0,0,1,175.82,165.22Zm-3.64-6.93h0a8.94,8.94,0,0,0,1.27-1.11,11.25,11.25,0,0,0,2.87-5.83,8.08,8.08,0,0,1,7.49,6.94Z"/><g class="cls-2"><polygon class="cls-1" points="176.6 149.71 176.6 149.71 176.6 149.71 176.6 149.71"/><polygon class="cls-1" points="172.18 158.85 172.18 158.85 172.18 158.85 172.18 158.85"/><path class="cls-1" d="M176.6,149.71h0c0-.69,0-1.41,0-2.16-.17-4-1.82-7.79-3.58-11.81l-.91-2.11h.2a2.28,2.28,0,0,0,2.28-2.27v-5.21a2.29,2.29,0,0,0-2.28-2.28h-7.81a4.89,4.89,0,0,0-4.75,3.78H156a1.11,1.11,0,1,0,0,2.21h3.79a4.89,4.89,0,0,0,3.47,3.6l2.38,10.63c.76,3.35-.55,5.33-1.78,6.4a7.59,7.59,0,0,1-7.34,1.29,5.78,5.78,0,0,1-3.74-4.87l-.09-.67h.94a1.11,1.11,0,0,0,1.1-1.11v-3a3.8,3.8,0,0,0-2.68-3.63l0-.73c-.68,0-1.45,0-2.19,0v.6H133l0-.17c-.73,0-1.45,0-2.19,0v6.69a7.49,7.49,0,0,0-1.35,4.32v8.71a3.26,3.26,0,0,0,3.25,3.25h2.64a8,8,0,0,0,15.92,0h16.59a8,8,0,0,0,15.92,0H185a1.1,1.1,0,0,0,1.1-1.1A10.29,10.29,0,0,0,176.6,149.71Zm-6.76-23.62h2.49a.07.07,0,0,1,.07.06v5.21a.07.07,0,0,1-.07.06h-2.49A7,7,0,0,1,169.84,126.09Zm-5.56,5.32h-.05a2.67,2.67,0,0,1-2.38-2.56.28.28,0,0,0,0-.09.25.25,0,0,0,0-.08,2.67,2.67,0,0,1,2.67-2.58h3a9,9,0,0,0,0,5.33h-3.22ZM133,140.5h17.9a1.58,1.58,0,0,1,1.58,1.58V144H133Zm10.29,25.28a5.84,5.84,0,0,1-5.72-4.72H149A5.83,5.83,0,0,1,143.31,165.78Zm-8-6.93a8.06,8.06,0,0,1,16,0Zm29.2,0h-11a10.27,10.27,0,0,0-20.43,0h-.39a1,1,0,0,1-1-1V149.1a5.34,5.34,0,0,1,.82-2.86h17.95l.13,1a8,8,0,0,0,5.15,6.64,9.46,9.46,0,0,0,3.29.58,9.63,9.63,0,0,0,6.28-2.27,8.38,8.38,0,0,0,2.49-8.56l-2.23-10h4.18q.65,1.55,1.29,3c1.74,4,3.24,7.43,3.38,11,.15,3.77-.7,6.65-2.54,8.56S167.71,158.85,164.53,158.85Zm11.29,6.93a5.84,5.84,0,0,1-5.72-4.72h11.44A5.84,5.84,0,0,1,175.82,165.78Zm-3.64-6.93h0a10.41,10.41,0,0,0,1.27-1.11,11.25,11.25,0,0,0,2.87-5.83,8.08,8.08,0,0,1,7.49,6.94Z"/></g><rect class="cls-1" x="129.46" y="134.32" width="22.02" height="0.73" rx="0.13"/><rect class="cls-1" x="129.46" y="132.21" width="22.02" height="0.73" rx="0.13"/><rect class="cls-1" x="129.46" y="130.11" width="22.02" height="0.73" rx="0.13"/><rect class="cls-1" x="129.46" y="128.01" width="22.02" height="0.73" rx="0.13"/><rect class="cls-1" x="129.46" y="125.91" width="22.02" height="0.73" rx="0.13"/><rect class="cls-1" x="129.46" y="123.81" width="22.02" height="0.73" rx="0.13"/><rect class="cls-1" x="129.46" y="121.7" width="22.02" height="0.73" rx="0.13"/><rect class="cls-1" x="129.46" y="119.6" width="22.02" height="0.73" rx="0.13"/><rect class="cls-1" x="129.46" y="117.5" width="22.02" height="0.73" rx="0.13"/><path class="cls-1" d="M121.41,149.53a2.51,2.51,0,0,0-4.82-1.06.77.77,0,0,1-.61.54,2.4,2.4,0,0,0-1.82,2.28,2.48,2.48,0,0,0,1.7,2.43l.27.09a7.76,7.76,0,0,0,0,1.59,2.1,2.1,0,0,0,1.65,1.72,2.14,2.14,0,0,0,2.3-.75.66.66,0,0,1,.66-.26,2.31,2.31,0,0,0,2.43-1.42l0-.17h-2c-.11,0-.24,0-.32,0a.55.55,0,0,1-.25-.3c0-.08.13-.2.23-.27s.16,0,.25,0h5c.22,0,.48,0,.48.29s-.27.31-.5.31a14.61,14.61,0,0,1-1.48,0,.86.86,0,0,0-1,.6,2.81,2.81,0,0,1-2.78,1.65.69.69,0,0,0-.42.18,2.79,2.79,0,0,1-2.85.75,2.76,2.76,0,0,1-2-2.18,8.84,8.84,0,0,1,0-1,.44.44,0,0,0-.18-.32,3.1,3.1,0,0,1,.49-5.73.6.6,0,0,0,.31-.3,3.14,3.14,0,0,1,5.92.75c0,.2,0,.53.12.6a1.57,1.57,0,0,0,.73.07H126c.08,0,.18,0,.25,0a2.86,2.86,0,0,1,.35.28c-.12.1-.24.29-.36.3-.57,0-1.13,0-1.7,0-1.16,0-2.33,0-3.5,0-.14,0-.29-.15-.43-.23.09-.11.16-.29.27-.34A2,2,0,0,1,121.41,149.53Z"/><path class="cls-1" d="M118.38,158.3a3.81,3.81,0,0,1-1-.14A3.27,3.27,0,0,1,115,155.6a3.64,3.64,0,0,1,0-.72c0-.12,0-.24,0-.35a3.6,3.6,0,0,1,.66-6.61,3.65,3.65,0,0,1,6.89.82,1.2,1.2,0,0,1,0,.28H126a.79.79,0,0,1,.5.08,2,2,0,0,1,.33.25l.55.46-.45.39a1,1,0,0,1-.66.43c-.43,0-.86,0-1.29,0H121a1.11,1.11,0,0,1-.58-.24l-.09-.06-.51-.28.35-.47a1,1,0,0,1,.5-.51.61.61,0,0,1,.18,0,2,2,0,0,0-3.8-.36,1.27,1.27,0,0,1-1,.85,1.89,1.89,0,0,0-1.43,1.8,2,2,0,0,0,1.35,1.92l.25.08.39.11,0,.4c0,.19,0,.37,0,.55a3.72,3.72,0,0,0,0,.94,1.58,1.58,0,0,0,1.28,1.31,1.61,1.61,0,0,0,1.78-.58,1.16,1.16,0,0,1,1.1-.43,1.86,1.86,0,0,0,1.58-.58h-1.16a.93.93,0,0,1-.58-.09,1,1,0,0,1-.49-.68c-.06-.39.31-.66.43-.75a.71.71,0,0,1,.51-.12h5.06c.85,0,1,.5,1,.8a.79.79,0,0,1-.22.59.94.94,0,0,1-.74.23h-.44a10.65,10.65,0,0,1-1.13,0c-.31,0-.37,0-.51.31a3.32,3.32,0,0,1-3.24,1.94l-.07.05A3.41,3.41,0,0,1,118.38,158.3Zm-3.44-3.8Zm6-.6v.51a.34.34,0,0,0,.12,0Z"/><path class="cls-1" d="M122.31,151.78h2.56c.22,0,.43,0,.43.3s-.21.3-.43.3h-5.11c-.23,0-.43,0-.42-.31s.21-.29.42-.29Z"/><path class="cls-1" d="M124.89,152.88h-5.13a1,1,0,0,1-.72-.24.82.82,0,0,1-.21-.6c0-.24.12-.78.92-.78h5.12a1.1,1.1,0,0,1,.52.1.78.78,0,0,1,.43.71.83.83,0,0,1-.23.58A1,1,0,0,1,124.89,152.88Z"/><path class="cls-1" d="M169.84,125.51h2.49a.08.08,0,0,1,.07.07v5.2a.08.08,0,0,1-.07.07h-2.49A7.05,7.05,0,0,1,169.84,125.51Z"/><path class="cls-1" d="M133,139.94h17.9a1.58,1.58,0,0,1,1.58,1.58v1.95H133Z"/><path class="cls-1" d="M136.32,158.73a7.06,7.06,0,0,1,14,0Z"/><path class="cls-1" d="M170.78,159.14h0a9,9,0,0,0,1.28-1.11,11.36,11.36,0,0,0,2.87-5.83,8.08,8.08,0,0,1,7.48,6.94Z"/><polygon class="cls-1" points="180.38 96.88 180.38 96.88 180.38 96.88 180.38 96.88"/><path class="cls-1" d="M158,76.29l-4.35,0c-4.92,0-9.65.07-14.67,0v6.5a7.59,7.59,0,0,0-1.35,4.32v8.71a3.25,3.25,0,0,0,3.25,3.25h2.65a8,8,0,0,0,15.92,0h16.59a8,8,0,0,0,15.91,0h1.21A1.11,1.11,0,0,0,194.3,98a10.29,10.29,0,0,0-9.5-10.25c0-.69,0-1.41,0-2.16-.16-4-1.82-7.79-3.57-11.8l-.92-2.12h.21a2.27,2.27,0,0,0,2.27-2.27V64.18a2.27,2.27,0,0,0-2.27-2.27h-7.82A4.88,4.88,0,0,0,168,65.68h-3.79a1.11,1.11,0,1,0,0,2.21H168a4.88,4.88,0,0,0,3.47,3.6l2.39,10.63c.75,3.35-.56,5.33-1.79,6.41a7.56,7.56,0,0,1-7.34,1.28A5.77,5.77,0,0,1,161,84.94l-.09-.67h.94a1.1,1.1,0,0,0,1.1-1.1V80.11a4,4,0,0,0-2.68-3.79m17.82-12.2h2.49a.06.06,0,0,1,.06.06v5.21a.06.06,0,0,1-.06.06h-2.49A6.93,6.93,0,0,1,178.05,64.12Zm-5.56,5.32h-.06a2.68,2.68,0,0,1-2.37-2.57V66.7a2.66,2.66,0,0,1,2.66-2.58h3a9,9,0,0,0,0,5.33h-3.21Zm-31.27,9.1h17.91a1.57,1.57,0,0,1,1.57,1.57v2H141.22Zm10.29,25.27a5.82,5.82,0,0,1-5.71-4.72h11.43A5.82,5.82,0,0,1,151.51,103.81Zm-8-6.93a8.06,8.06,0,0,1,16,0Zm29.2,0h-11a10.27,10.27,0,0,0-20.43,0h-.39a1,1,0,0,1-1-1V87.13a5.35,5.35,0,0,1,.83-2.86h17.94l.13,1a8,8,0,0,0,5.16,6.64,9.21,9.21,0,0,0,3.29.59,9.63,9.63,0,0,0,6.27-2.27A8.39,8.39,0,0,0,176,81.64l-2.23-10h4.18c.43,1,.87,2,1.29,3,1.74,4,3.24,7.43,3.39,11,.15,3.77-.71,6.65-2.55,8.57C178.38,96,175.91,96.88,172.73,96.88ZM184,103.81a5.82,5.82,0,0,1-5.71-4.72h11.43A5.83,5.83,0,0,1,184,103.81Zm-3.64-6.93h0a9,9,0,0,0,1.28-1.11,11.36,11.36,0,0,0,2.87-5.83A8.08,8.08,0,0,1,192,96.88Z"/><g class="cls-2"><polygon class="cls-1" points="184.8 88.3 184.8 88.3 184.8 88.3 184.8 88.3"/><polygon class="cls-1" points="180.38 97.44 180.38 97.44 180.38 97.44 180.38 97.44"/><path class="cls-1" d="M184.8,88.3h0c0-.69,0-1.41,0-2.16-.16-4-1.82-7.79-3.57-11.8l-.92-2.12h.21A2.27,2.27,0,0,0,182.81,70V64.74a2.27,2.27,0,0,0-2.27-2.27h-7.82A4.88,4.88,0,0,0,168,66.24h-3.79a1.11,1.11,0,1,0,0,2.21H168a4.89,4.89,0,0,0,3.47,3.6l2.39,10.63c.75,3.35-.56,5.33-1.79,6.4a7.56,7.56,0,0,1-7.34,1.29A5.78,5.78,0,0,1,161,85.5l-.09-.67h.94a1.1,1.1,0,0,0,1.1-1.11v-3a3.78,3.78,0,0,0-2.68-3.62l0-.74c-.69,0-1.46,0-2.2,0v.6h-16.8v-.17c-.74,0-1.46,0-2.2,0v6.69a7.57,7.57,0,0,0-1.35,4.32V96.4a3.26,3.26,0,0,0,3.25,3.25h2.65a8,8,0,0,0,15.92,0h16.59a8,8,0,0,0,15.91,0h1.21a1.11,1.11,0,0,0,1.11-1.1A10.29,10.29,0,0,0,184.8,88.3Zm-6.75-23.62h2.49a.06.06,0,0,1,.06.06V70a.06.06,0,0,1-.06.06h-2.49A6.93,6.93,0,0,1,178.05,64.68ZM172.49,70h-.06a2.66,2.66,0,0,1-2.37-2.56v-.17a2.66,2.66,0,0,1,2.66-2.58h3a9,9,0,0,0,0,5.33h-3.21Zm-31.27,9.09h17.91a1.57,1.57,0,0,1,1.57,1.58v2H141.22Zm10.29,25.28a5.82,5.82,0,0,1-5.71-4.72h11.43A5.82,5.82,0,0,1,151.51,104.37Zm-8-6.93a8.06,8.06,0,0,1,16,0Zm29.2,0h-11a10.27,10.27,0,0,0-20.43,0h-.39a1,1,0,0,1-1-1V87.69a5.35,5.35,0,0,1,.83-2.86h17.94l.13,1a8,8,0,0,0,5.16,6.64,9.43,9.43,0,0,0,3.29.59,9.63,9.63,0,0,0,6.27-2.28A8.38,8.38,0,0,0,176,82.19l-2.23-10h4.18c.43,1,.87,2,1.29,3,1.74,4,3.24,7.43,3.39,11,.15,3.77-.71,6.65-2.55,8.57C178.38,96.55,175.91,97.44,172.73,97.44ZM184,104.37a5.82,5.82,0,0,1-5.71-4.72h11.43A5.83,5.83,0,0,1,184,104.37Zm-3.64-6.93h0a9,9,0,0,0,1.28-1.11,11.4,11.4,0,0,0,2.87-5.83A8.08,8.08,0,0,1,192,97.44Z"/></g><rect class="cls-1" x="137.66" y="72.91" width="22.02" height="0.73" rx="0.13"/><rect class="cls-1" x="137.66" y="70.8" width="22.02" height="0.73" rx="0.13"/><rect class="cls-1" x="137.66" y="68.7" width="22.02" height="0.73" rx="0.13"/><rect class="cls-1" x="137.66" y="66.6" width="22.02" height="0.73" rx="0.13"/><rect class="cls-1" x="137.66" y="64.5" width="22.02" height="0.73" rx="0.13"/><rect class="cls-1" x="137.66" y="62.4" width="22.02" height="0.73" rx="0.13"/><rect class="cls-1" x="137.66" y="60.3" width="22.02" height="0.73" rx="0.13"/><rect class="cls-1" x="137.66" y="58.19" width="22.02" height="0.73" rx="0.13"/><rect class="cls-1" x="137.66" y="56.09" width="22.02" height="0.73" rx="0.13"/><path class="cls-1" d="M129.61,88.12a2.51,2.51,0,0,0-4.82-1.06.76.76,0,0,1-.61.54,2.42,2.42,0,0,0-1.82,2.29,2.48,2.48,0,0,0,1.7,2.42l.28.09a7.79,7.79,0,0,0,0,1.59A2.1,2.1,0,0,0,126,95.71a2.14,2.14,0,0,0,2.3-.75.66.66,0,0,1,.66-.25,2.31,2.31,0,0,0,2.43-1.43,1.08,1.08,0,0,0,0-.17h-2a.69.69,0,0,1-.32,0,.49.49,0,0,1-.24-.29c0-.09.12-.21.22-.28a.49.49,0,0,1,.25,0h5c.22,0,.48,0,.48.29s-.27.31-.5.31a14.42,14.42,0,0,1-1.47,0,.86.86,0,0,0-1,.59A2.81,2.81,0,0,1,129,95.33a.65.65,0,0,0-.41.19,2.83,2.83,0,0,1-2.86.74,2.73,2.73,0,0,1-2-2.18,8.81,8.81,0,0,1-.06-1,.46.46,0,0,0-.17-.32A3.09,3.09,0,0,1,124,87a.58.58,0,0,0,.3-.3,3.15,3.15,0,0,1,5.92.75c.05.21,0,.53.12.6a1.57,1.57,0,0,0,.73.07c1.05,0,2.09,0,3.14,0a.67.67,0,0,1,.25,0c.13.08.23.19.35.28-.12.11-.24.29-.36.3-.56,0-1.13,0-1.69,0h-3.5c-.15,0-.29-.15-.44-.23.09-.12.16-.3.28-.34A1.59,1.59,0,0,1,129.61,88.12Z"/><path class="cls-1" d="M126.58,96.89a3.36,3.36,0,0,1-1-.14,3.24,3.24,0,0,1-2.39-2.56,3,3,0,0,1-.06-.72v-.35a3.6,3.6,0,0,1,.65-6.61,3.65,3.65,0,0,1,6.89.82,1.2,1.2,0,0,1,0,.28h3.46a.79.79,0,0,1,.5.08,2.13,2.13,0,0,1,.34.25l.55.46-.45.39a1,1,0,0,1-.67.43c-.43,0-.86,0-1.29,0h-3.94a1,1,0,0,1-.58-.24l-.09-.06-.52-.28.36-.47a1,1,0,0,1,.49-.51l.18,0a2,2,0,0,0-3.8-.35,1.28,1.28,0,0,1-1,.84,1.9,1.9,0,0,0-1.42,1.8,2,2,0,0,0,1.34,1.93l.26.08.38.11v.39c0,.19,0,.37,0,.56a4.16,4.16,0,0,0,0,.93,1.61,1.61,0,0,0,1.28,1.31,1.63,1.63,0,0,0,1.79-.58A1.14,1.14,0,0,1,129,94.2a1.86,1.86,0,0,0,1.58-.58h-1.16a.94.94,0,0,1-.58-.09,1,1,0,0,1-.49-.68.85.85,0,0,1,.43-.74.73.73,0,0,1,.51-.13h5.07c.85,0,1,.5,1,.8a.81.81,0,0,1-.22.59.94.94,0,0,1-.75.23h-.44a10.65,10.65,0,0,1-1.13,0c-.31,0-.36,0-.51.3A3.31,3.31,0,0,1,129,95.84s0,0-.06,0A3.45,3.45,0,0,1,126.58,96.89Zm-3.44-3.79Zm6-.61V93a.27.27,0,0,0,.12,0Z"/><path class="cls-1" d="M130.52,90.37h2.55c.22,0,.44,0,.44.29s-.22.3-.44.3H128c-.22,0-.43,0-.42-.31s.21-.28.42-.28Z"/><path class="cls-1" d="M133.09,91.47H128a.93.93,0,0,1-.72-.24.82.82,0,0,1-.21-.6c0-.23.12-.77.93-.77h5.11a1.28,1.28,0,0,1,.53.1.77.77,0,0,1,.42.71.81.81,0,0,1-.22.58A1,1,0,0,1,133.09,91.47Z"/><path class="cls-1" d="M178.05,64.11h2.49a.06.06,0,0,1,.06.06v5.2a.07.07,0,0,1-.06.07h-2.49A6.93,6.93,0,0,1,178.05,64.11Z"/><path class="cls-1" d="M141.22,78.54h17.91a1.57,1.57,0,0,1,1.57,1.57v2H141.22Z"/><path class="cls-1" d="M144.52,97.32a7.06,7.06,0,0,1,14,0Z"/><path class="cls-1" d="M179,97.73h0a9.53,9.53,0,0,0,1.27-1.11,11.25,11.25,0,0,0,2.87-5.83,8.08,8.08,0,0,1,7.48,6.94Z"/><line class="cls-3" x1="55.32" y1="64.67" x2="107.93" y2="34.41"/><line class="cls-3" x1="61.19" y1="107.73" x2="113.05" y2="142.75"/><line class="cls-3" x1="63.11" y1="90.58" x2="113.05" y2="88.43"/></g></g></svg>