<svg xmlns="http://www.w3.org/2000/svg" viewBox="0 0 175.25 118.7"><defs><style>.cls-1{fill:#51bb47;}.cls-2,.cls-3{fill:#fff;}.cls-2{stroke:#51bb47;stroke-miterlimit:10;}</style></defs><g id="Capa_2" data-name="Capa 2"><g id="Layer_1" data-name="Layer 1"><rect class="cls-1" x="150.53" y="85.07" width="24.73" height="6.14"/><rect class="cls-1" y="85.43" width="24.57" height="5.56"/><rect class="cls-1" x="37.83" y="85.35" width="24.29" height="5.74"/><rect class="cls-1" x="75.44" y="85.35" width="24.1" height="5.75"/><rect class="cls-1" x="112.81" y="85.49" width="24.54" height="5.56"/><rect class="cls-1" y="97.11" width="175.25" height="13.81"/><rect class="cls-1" x="0.87" y="79.62" width="173.52" height="1.04" rx="0.49"/><rect class="cls-1" x="0.87" y="76.64" width="173.52" height="1.04" rx="0.49"/><rect class="cls-1" x="0.87" y="73.96" width="173.52" height="1.04" rx="0.49"/><rect class="cls-1" x="0.87" y="70.69" width="173.52" height="1.04" rx="0.49"/><rect class="cls-1" x="0.87" y="67.41" width="173.52" height="1.04" rx="0.49"/><rect class="cls-1" x="0.87" y="64.74" width="173.52" height="1.04" rx="0.49"/><rect class="cls-1" x="0.87" y="62.06" width="173.52" height="1.04" rx="0.49"/><rect class="cls-1" x="0.87" y="59.08" width="173.52" height="1.04" rx="0.49"/><rect class="cls-1" x="0.87" y="56.4" width="173.52" height="1.04" rx="0.49"/><rect class="cls-1" x="0.87" y="53.13" width="173.52" height="1.04" rx="0.49"/><rect class="cls-1" x="0.87" y="49.85" width="173.52" height="1.04" rx="0.49"/><rect class="cls-1" x="0.87" y="47.18" width="173.52" height="1.04" rx="0.49"/><rect class="cls-1" x="0.87" y="44.5" width="173.52" height="1.04" rx="0.49"/><rect class="cls-1" x="0.87" y="41.52" width="173.52" height="1.04" rx="0.49"/><rect class="cls-1" x="0.87" y="38.84" width="173.52" height="1.04" rx="0.49"/><rect class="cls-1" x="0.87" y="35.57" width="173.52" height="1.04" rx="0.49"/><rect class="cls-1" x="0.87" y="32.29" width="173.52" height="1.04" rx="0.49"/><rect class="cls-1" x="0.87" y="29.62" width="173.52" height="1.04" rx="0.49"/><rect class="cls-1" x="0.87" y="26.84" width="173.52" height="1.04" rx="0.49"/><rect class="cls-1" x="0.87" y="24.16" width="173.52" height="1.04" rx="0.49"/><rect class="cls-1" x="0.87" y="21.18" width="173.52" height="1.04" rx="0.49"/><rect class="cls-1" x="0.87" y="18.5" width="173.52" height="1.04" rx="0.49"/><rect class="cls-1" x="0.87" y="15.23" width="173.52" height="1.04" rx="0.49"/><rect class="cls-1" x="0.87" y="11.96" width="173.52" height="1.04" rx="0.49"/><rect class="cls-1" x="0.87" y="9.28" width="173.52" height="1.04" rx="0.49"/><rect class="cls-1" x="0.87" y="5.95" width="173.52" height="1.04" rx="0.49"/><rect class="cls-1" x="0.87" y="2.68" width="173.52" height="1.04" rx="0.49"/><rect class="cls-1" x="0.87" width="173.52" height="1.04" rx="0.49"/><rect class="cls-2" x="35.83" y="6.47" width="103.59" height="65.26"/><path class="cls-1" d="M70.79,21.2c0-1.69-.74-2.54-2.2-2.54a2,2,0,0,0-1.82.87,5.35,5.35,0,0,0-.63,2.7H61a8.24,8.24,0,0,1,2.42-6,8.12,8.12,0,0,1,5.64-2A7.37,7.37,0,0,1,74.4,16a6.31,6.31,0,0,1,1.81,4.69,9.87,9.87,0,0,1-2.45,6.24,22.5,22.5,0,0,1-5.86,5.16h8.65v4.28H60.93v-4Q70.79,25.35,70.79,21.2Z"/><path class="cls-1" d="M77.82,25.42a14.06,14.06,0,0,1,2.08-8.11q2.09-3,6.64-3c3,0,5.22,1,6.61,3a13.9,13.9,0,0,1,2.1,8.11,14,14,0,0,1-2.1,8.15c-1.39,2-3.6,3-6.61,3s-5.25-1-6.64-3A14.15,14.15,0,0,1,77.82,25.42Zm12.16,0a11.52,11.52,0,0,0-.7-4.51,2.7,2.7,0,0,0-2.74-1.57,2.75,2.75,0,0,0-2.79,1.58,11.22,11.22,0,0,0-.72,4.5A11.37,11.37,0,0,0,83.75,30a2.75,2.75,0,0,0,2.79,1.6A2.71,2.71,0,0,0,89.28,30,11.79,11.79,0,0,0,90,25.42Z"/><path class="cls-1" d="M96.89,25.42A14,14,0,0,1,99,17.31q2.07-3,6.63-3c3,0,5.22,1,6.62,3a14,14,0,0,1,2.09,8.11,14.07,14.07,0,0,1-2.09,8.15c-1.4,2-3.6,3-6.62,3s-5.25-1-6.63-3S96.89,28.85,96.89,25.42Zm12.15,0a11.33,11.33,0,0,0-.7-4.51,2.69,2.69,0,0,0-2.74-1.57,2.77,2.77,0,0,0-2.79,1.58,11.42,11.42,0,0,0-.71,4.5,11.57,11.57,0,0,0,.71,4.54,2.77,2.77,0,0,0,2.79,1.6,2.7,2.7,0,0,0,2.74-1.6A11.6,11.6,0,0,0,109,25.42Z"/><path class="cls-1" d="M54.54,56a7.81,7.81,0,0,1-3.2,3.14,10.2,10.2,0,0,1-4.91,1.12H39.75V42.63h6.68a10.27,10.27,0,0,1,4.92,1.1,7.57,7.57,0,0,1,3.19,3.1,10.11,10.11,0,0,1,0,9.21Zm-4.6-.89a4.91,4.91,0,0,0,1.39-3.72,4.93,4.93,0,0,0-1.39-3.73,5.42,5.42,0,0,0-3.89-1.32H44v10.1h2A5.43,5.43,0,0,0,49.94,55.15Z"/><path class="cls-1" d="M61.63,42.63V60.3H57.35V42.63Z"/><path class="cls-1" d="M75.84,57.9a5.14,5.14,0,0,1-2.1,1.88,7.51,7.51,0,0,1-3.36.7A7.94,7.94,0,0,1,65.48,59,5.22,5.22,0,0,1,63.38,55h4.55a2.36,2.36,0,0,0,.71,1.57,2.21,2.21,0,0,0,1.56.58,1.82,1.82,0,0,0,1.3-.45,1.71,1.71,0,0,0,0-2.33,3.61,3.61,0,0,0-1.09-.74c-.43-.19-1-.42-1.8-.68a22.73,22.73,0,0,1-2.74-1.12,5.11,5.11,0,0,1-1.82-1.6,5.2,5.2,0,0,1,0-5.48A5.07,5.07,0,0,1,66.34,43a8.21,8.21,0,0,1,3.24-.61,7.25,7.25,0,0,1,4.68,1.4,5.34,5.34,0,0,1,2,3.85H71.6A2.35,2.35,0,0,0,71,46.21a1.86,1.86,0,0,0-1.38-.51,1.79,1.79,0,0,0-1.22.4,1.66,1.66,0,0,0,0,2.24,3.14,3.14,0,0,0,1,.71c.42.18,1,.42,1.8.7a19.2,19.2,0,0,1,2.78,1.14,5.32,5.32,0,0,1,1.85,1.64,4.71,4.71,0,0,1,.77,2.8A4.9,4.9,0,0,1,75.84,57.9Z"/><path class="cls-1" d="M82.48,54.1v6.2H78.2V42.63h6.93a6.73,6.73,0,0,1,4.8,1.56,5.51,5.51,0,0,1,1.65,4.21,5.84,5.84,0,0,1-.74,2.94,5.06,5.06,0,0,1-2.19,2,7.72,7.72,0,0,1-3.52.74Zm4.75-5.7c0-1.55-.86-2.32-2.58-2.32H82.48v4.6h2.17Q87.23,50.68,87.23,48.4Z"/><path class="cls-1" d="M97.23,57h5.7V60.3H93V42.63h4.28Z"/><path class="cls-1" d="M115.13,57.08H108.5l-1.1,3.22h-4.5l6.48-17.55h4.92l6.48,17.55h-4.55ZM114,53.83l-2.2-6.5-2.23,6.5Z"/><path class="cls-1" d="M137,42.63l-6.13,11.8V60.3h-4.3V54.43l-6.12-11.8h4.9l3.4,7.2,3.4-7.2Z"/><rect class="cls-3" x="15.84" y="106.01" width="20.59" height="12.69"/><rect class="cls-3" x="80.8" y="106.01" width="20.59" height="12.69"/><rect class="cls-3" x="138.83" y="106.01" width="20.59" height="12.69"/></g></g></svg>