<svg xmlns="http://www.w3.org/2000/svg" viewBox="0 0 161.9 84.49"><defs><style>.cls-1{fill:#fff;}</style></defs><g id="Capa_2" data-name="Capa 2"><g id="Layer_1" data-name="Layer 1"><path class="cls-1" d="M47.3,70.87A10,10,0,0,1,28,75.09,3,3,0,0,0,25.61,73a9.61,9.61,0,0,1-7.25-9.12,9.87,9.87,0,0,1,6.77-9.68c.49-.17,1-.31,1.1-.35-.08-2.24-.49-4.36-.14-6.36a8.38,8.38,0,0,1,6.6-6.86,8.56,8.56,0,0,1,9.18,3,2.6,2.6,0,0,0,2.63,1,9.19,9.19,0,0,1,9.69,5.69c.06.16.08.35.16.68h-8A2.83,2.83,0,0,0,45.1,51a2.07,2.07,0,0,0-1,1.19c0,.33.52.82.9,1.1s.65.1,1,.1H66c.86,0,1.91.09,1.92-1.16S66.84,51,65.94,51c-2,0-3.95-.12-5.91,0s-3.09-.31-4.05-2.38c-2.11-4.54-6-6.6-11.07-6.56a2.71,2.71,0,0,1-1.68-.76,11.24,11.24,0,0,0-11.4-3,11,11,0,0,0-8.11,8.68,37.79,37.79,0,0,0-.22,4.15,1.83,1.83,0,0,1-.7,1.29c-4.92,2.72-7.33,6.86-6.73,12.45.57,5.3,3.68,8.68,8.69,10.41A2.43,2.43,0,0,1,26,76.57a12.55,12.55,0,0,0,23.63-3c.18-.83,0-2.15.48-2.42A6.31,6.31,0,0,1,53,70.9c4.17,0,8.35,0,12.52,0,.34,0,.74.11,1,0a12.07,12.07,0,0,0,1.39-1.11c-.48-.42-.93-1.18-1.43-1.21-2.25-.13-4.51-.06-6.77-.06-4.65,0-9.31,0-14,.05-.58,0-1.15.59-1.73.91.36.47.62,1.18,1.09,1.36A6.57,6.57,0,0,0,47.3,70.87Z"/><path class="cls-1" d="M25.3,76.9a1.82,1.82,0,0,0-.79-.83c-5.51-1.89-8.6-5.6-9.19-11-.62-5.8,1.77-10.24,7.12-13.19a1.24,1.24,0,0,0,.31-.71,14.46,14.46,0,0,0,.05-1.62A11.56,11.56,0,0,1,23,46.91a11.73,11.73,0,0,1,8.63-9.24c4.48-1.29,8.56-.23,12.13,3.14a2,2,0,0,0,1.15.55h0c5.6-.06,9.61,2.37,11.76,7,.86,1.84,1.68,2.09,3.31,2a42.83,42.83,0,0,1,4.38-.06l1.59,0h.2a2.78,2.78,0,0,1,2,.57,1.89,1.89,0,0,1,.5,1.43c0,1.92-1.76,1.9-2.5,1.9H45.8a1.93,1.93,0,0,1-1.23-.25c-.88-.65-1.27-1.24-1.2-1.81a2.69,2.69,0,0,1,1.35-1.73,2.21,2.21,0,0,1,1.34-.2l.31,0h7a8.4,8.4,0,0,0-8.77-4.87A3.37,3.37,0,0,1,41.3,44a7.79,7.79,0,0,0-8.42-2.73,7.62,7.62,0,0,0-6.05,6.27,16.31,16.31,0,0,0,0,4.07c.06.7.11,1.41.14,2.13l-.09.61-.55.16-1,.31a9.13,9.13,0,0,0-6.26,9,8.91,8.91,0,0,0,6.67,8.41,3.75,3.75,0,0,1,3,2.59,9.28,9.28,0,0,0,17.81-3.15,4,4,0,0,1-1.71-.15,2.42,2.42,0,0,1-1.15-1.19,4.32,4.32,0,0,0-.27-.42l-.51-.69.75-.41c.16-.09.32-.21.48-.32a2.91,2.91,0,0,1,1.59-.69c3.58-.06,7.15-.06,10.73-.05h3.25c.67,0,1.2,0,1.79,0,1.65,0,3.34,0,5,.07a2.37,2.37,0,0,1,1.5,1l.38.41.66.58-.68.56-.37.32a6.46,6.46,0,0,1-1.12.85,1.74,1.74,0,0,1-1.12.15H52.29a4.65,4.65,0,0,0-1.74.14,5.35,5.35,0,0,0-.1.88,7.17,7.17,0,0,1-.11,1.09A13.31,13.31,0,0,1,38.51,84.41a13.14,13.14,0,0,1-1.4.08A13.39,13.39,0,0,1,25.3,76.9Zm27-6.76c.22,0,.44,0,.65,0H65.52l.4,0c.1,0,.24,0,.22,0a5.13,5.13,0,0,0,.68-.52,3.79,3.79,0,0,0-.39-.4c-1.62-.1-3.3-.08-4.92-.07H56.45c-3.56,0-7.13,0-10.69.05a2,2,0,0,0-.71.38,1.91,1.91,0,0,0,.32.44,3.06,3.06,0,0,0,1.16,0c.25,0,.51,0,.77,0H48l0,.72a10.78,10.78,0,0,1-20.7,4.53,2.29,2.29,0,0,0-1.91-1.69,10.42,10.42,0,0,1-7.83-9.83,10.61,10.61,0,0,1,7.28-10.41l.56-.18c0-.5-.07-1-.11-1.49a17.5,17.5,0,0,1,0-4.46,9.12,9.12,0,0,1,7.14-7.45,9.29,9.29,0,0,1,9.94,3.21,1.88,1.88,0,0,0,2,.77A10,10,0,0,1,54.88,50a2.64,2.64,0,0,1,.14.51l.27,1.2H46.38l-.43,0a2.47,2.47,0,0,0-.46,0,1.76,1.76,0,0,0-.59.54,3.65,3.65,0,0,0,.48.46H66.19c1,0,1-.07,1-.42a.58.58,0,0,0-.07-.36c-.12-.12-.65-.11-1-.12h-.22l-1.61,0c-1.39,0-2.84-.06-4.23,0-2.45.19-3.75-.57-4.79-2.81-1.89-4.07-5.34-6.13-10.25-6.13H44.9a3.47,3.47,0,0,1-2.18-1A10.53,10.53,0,0,0,32,39.11a10.19,10.19,0,0,0-7.58,8.12,11.26,11.26,0,0,0-.15,2.29,17.36,17.36,0,0,1-.05,1.77,2.54,2.54,0,0,1-1.08,1.87c-4.77,2.64-6.91,6.58-6.35,11.72.52,4.8,3.27,8.09,8.18,9.78a3.23,3.23,0,0,1,1.64,1.57,11.8,11.8,0,0,0,22.23-2.79,5.59,5.59,0,0,0,.08-.86c0-.82.1-1.67.75-2a3.86,3.86,0,0,1,2-.4Z"/><path class="cls-1" d="M50.9,61.9H61.1c.88,0,1.73-.07,1.73-1.19s-.85-1.2-1.73-1.19H40.7c-.9,0-1.71.12-1.66,1.26s.83,1.12,1.65,1.12Z"/><path class="cls-1" d="M61.1,62.66H40.69c-.65,0-2.33,0-2.4-1.84a1.87,1.87,0,0,1,.47-1.45,2.61,2.61,0,0,1,1.94-.59c6.8,0,13.6,0,20.4,0a2.77,2.77,0,0,1,2,.58,2.13,2.13,0,0,1,0,2.74,2.58,2.58,0,0,1-1.92.57Zm0-2.38H40.68c-.61,0-.79.08-.83.13a.51.51,0,0,0-.06.35c0,.3,0,.4.88.4H61.1A2.14,2.14,0,0,0,62,61a.83.83,0,0,0,0-.62c-.13-.13-.66-.13-.88-.13Z"/><path class="cls-1" d="M17.37,11.63a9.88,9.88,0,0,1,3.45,6.14H14a3.56,3.56,0,0,0-1.24-2.1,3.7,3.7,0,0,0-2.37-.76,3.44,3.44,0,0,0-2.78,1.34,6,6,0,0,0-1.09,3.89A6,6,0,0,0,7.63,24a3.43,3.43,0,0,0,2.78,1.33,3.69,3.69,0,0,0,2.37-.75A3.56,3.56,0,0,0,14,22.51h6.8a9.88,9.88,0,0,1-3.45,6.14,10.44,10.44,0,0,1-6.81,2.24,11.23,11.23,0,0,1-5.47-1.3,9.29,9.29,0,0,1-3.74-3.74A11.62,11.62,0,0,1,0,20.14a11.67,11.67,0,0,1,1.33-5.73,9.12,9.12,0,0,1,3.74-3.72,11.36,11.36,0,0,1,5.49-1.3A10.38,10.38,0,0,1,17.37,11.63Z"/><path class="cls-1" d="M38.47,10.69a9.5,9.5,0,0,1,3.88,3.74,11.22,11.22,0,0,1,1.4,5.71,11.22,11.22,0,0,1-1.4,5.71,9.5,9.5,0,0,1-3.88,3.74,11.72,11.72,0,0,1-5.58,1.3,11.83,11.83,0,0,1-5.6-1.3,9.47,9.47,0,0,1-3.89-3.74A11.22,11.22,0,0,1,22,20.14a11.22,11.22,0,0,1,1.41-5.71,9.47,9.47,0,0,1,3.89-3.74,11.83,11.83,0,0,1,5.6-1.3A11.72,11.72,0,0,1,38.47,10.69Zm-8.68,5.6a5.4,5.4,0,0,0-1.26,3.85A5.31,5.31,0,0,0,29.79,24a4.11,4.11,0,0,0,3.1,1.32A4,4,0,0,0,36,24a5.35,5.35,0,0,0,1.24-3.83A5.43,5.43,0,0,0,36,16.29,4,4,0,0,0,32.89,15,4.09,4.09,0,0,0,29.79,16.29Z"/><path class="cls-1" d="M50.22,13.71h7.11V17.4H45.52V13.86l4.89-3c1.35-.88,2-1.78,2-2.71a1,1,0,0,0-.26-.73,1,1,0,0,0-.72-.25c-.8,0-1.26.62-1.39,1.85H45.3a5.21,5.21,0,0,1,2-3.76,7.29,7.29,0,0,1,4.81-1.47,6.14,6.14,0,0,1,4.1,1.17,3.57,3.57,0,0,1,1.35,2.81,3.38,3.38,0,0,1-1.12,2.49,13.83,13.83,0,0,1-3.69,2.25Z"/><path class="cls-1" d="M153.4,45.45a1.41,1.41,0,0,0,1.11-.53,1.4,1.4,0,0,0,.27-1.2l-2.69-12a1.42,1.42,0,0,0-1.39-1.1H137.12a1.41,1.41,0,0,0-1.41,1.42v20a1.42,1.42,0,1,0,2.83,0V45.45H153.4m-1.77-2.83H138.54V33.46h11Z"/><path class="cls-1" d="M137.58,65.29a1.41,1.41,0,0,1,1,1.71,3.07,3.07,0,0,0-.08.67,2.84,2.84,0,1,0,2.84-2.83,1.42,1.42,0,1,1,0-2.84,5.67,5.67,0,1,1-5.67,5.67,6,6,0,0,1,.15-1.34,1.42,1.42,0,0,1,1.72-1"/><path class="cls-1" d="M89.37,65.29a1.42,1.42,0,0,1,1,1.71,3.07,3.07,0,0,0-.08.67,2.84,2.84,0,1,0,2.83-2.83,1.42,1.42,0,0,1,0-2.84,5.67,5.67,0,1,1-5.67,5.67,6.06,6.06,0,0,1,.16-1.34,1.42,1.42,0,0,1,1.71-1"/><path class="cls-1" d="M102.77,5.67A21.13,21.13,0,1,0,123.89,26.8,21.16,21.16,0,0,0,102.77,5.67m0,39.42A18.29,18.29,0,1,1,121.06,26.8a18.31,18.31,0,0,1-18.29,18.29"/><path class="cls-1" d="M102.77,11.35c8.52,0,15.45,6.61,15.45,14.73s-6.93,14.74-15.45,14.74a16,16,0,0,1-8.5-2.43,1.31,1.31,0,0,1-.4-1.87,1.44,1.44,0,0,1,2-.38,13.11,13.11,0,0,0,6.94,2c7,0,12.61-5.4,12.61-12s-5.66-12-12.61-12-12.62,5.4-12.62,12a11.48,11.48,0,0,0,2.08,6.61,1.32,1.32,0,0,1-.41,1.88,1.45,1.45,0,0,1-2-.39,14.16,14.16,0,0,1-2.55-8.1c0-8.12,6.93-14.73,15.46-14.73"/><path class="cls-1" d="M66.52,34.22a1.42,1.42,0,0,0,0,2.84h6.14v5.09H68.41a1.42,1.42,0,1,0,0,2.83h4.25v4.26a4.27,4.27,0,0,0,4.25,4.25h1.14V64.83a4.25,4.25,0,0,0,3.87,4.24,11.34,11.34,0,0,0,22.51,0h25.7a11.34,11.34,0,0,0,22.5,0h6.43a2.84,2.84,0,0,0,2.84-2.84V63.42a2.84,2.84,0,0,0-1.61-2.56v-13a35.67,35.67,0,0,0-.86-7.78l-2.15-9.55A7,7,0,0,0,150.36,25H132.87V4.25A4.25,4.25,0,0,0,128.61,0H76.91a4.25,4.25,0,0,0-4.25,4.25v6.2H66.52a1.42,1.42,0,1,0,0,2.83h6.14v5.09H68.41a1.42,1.42,0,0,0,0,2.84h4.25V26.3H70.3a1.42,1.42,0,1,0,0,2.83h2.36v5.09H66.52m90.14,6.44a32.47,32.47,0,0,1,.8,7.16V60.58h-7.24a11.32,11.32,0,0,0-17.35-.4V27.79h17.49a4.24,4.24,0,0,1,4.16,3.32l2.14,9.55m2.4,25.59h-6.43a11,11,0,0,0-.74-2.83h7.17Zm-17.68,9.93a8.51,8.51,0,1,1,7-13.37,8.41,8.41,0,0,1,1.53,4.86,8.51,8.51,0,0,1-8.5,8.51m-48.21,0a8.51,8.51,0,1,1,8.51-8.51,8.51,8.51,0,0,1-8.51,8.51M76.91,50.66a1.42,1.42,0,0,1-1.41-1.42V43.56h0V4.25a1.41,1.41,0,0,1,1.41-1.41h51.7A1.41,1.41,0,0,1,130,4.25V52.07h0V66.25h-25.6a11.34,11.34,0,0,0-22.5,0,1.41,1.41,0,0,1-1-1.37V53.49h44.89a1.42,1.42,0,1,0,0-2.83H76.91"/><circle class="cls-1" cx="102.92" cy="26.66" r="15.95"/><circle class="cls-1" cx="141.38" cy="67.67" r="6.01"/><circle class="cls-1" cx="93.18" cy="67.67" r="6.01"/></g></g></svg>