<?xml version="1.0" encoding="utf-8"?>
<!-- Generator: Adobe Illustrator 24.3.0, SVG Export Plug-In . SVG Version: 6.00 Build 0)  -->
<svg version="1.1" id="Capa_1" xmlns="http://www.w3.org/2000/svg" xmlns:xlink="http://www.w3.org/1999/xlink" x="0px" y="0px"
	 viewBox="0 0 175 175" style="enable-background:new 0 0 175 175;" xml:space="preserve">
<style type="text/css">
	.st0{fill:#51BB47;}
	.st1{opacity:0.4;}
</style>
<g id="Capa_2_1_">
	<g id="Layer_1">
		<path class="st0" d="M16.3,95.9v-3.4h35.2v3.4H16.3z"/>
		<path class="st0" d="M51.6,98.2v3.4H16.4v-3.4H51.6z"/>
		<path class="st0" d="M51.6,103.8v3.4H16.4v-3.4H51.6z"/>
		<path class="st0" d="M51.6,87v3.4H16.4V87H51.6z"/>
		<path class="st0" d="M5.4,113.4v-4.9l2.9-0.2V82.5H2.7l-0.2-0.4l31.4-25.6l31.8,25.8h-6.4v25.9l3.1,0.1v4.9H5.4z M14.3,76.7
			c0,8.7-0.1,25.2-0.1,33.7c12,0,27.2,0.4,39.1,0.4c0-8.6,0.3-25.6,0.3-34.2C41.5,76.6,26.2,76.7,14.3,76.7L14.3,76.7z"/>
		<polygon class="st0" points="153.1,49.5 153.1,49.5 153.1,49.5 		"/>
		<path class="st0" d="M133.5,31.5h-3.8c-4.3,0-8.4,0.1-12.8,0v5.7c-0.8,1.1-1.2,2.4-1.2,3.8v7.6c0,1.6,1.3,2.9,2.8,2.9c0,0,0,0,0,0
			h2.3c0.4,3.8,3.8,6.6,7.7,6.3c3.3-0.3,5.9-3,6.3-6.3h14.5c0.4,3.8,3.8,6.6,7.7,6.3c3.3-0.3,5.9-3,6.3-6.3h1.1c0.5,0,1-0.4,1-1v0
			c0-4.7-3.6-8.6-8.3-9c0-0.6,0-1.2,0-1.9c-0.1-3.5-1.6-6.8-3.1-10.3l-0.8-1.9h0.2c1.1,0,2-0.9,2-2v-4.6c0-1.1-0.9-2-2-2h-6.8
			c-2,0-3.7,1.4-4.2,3.3h-3.3c-0.5-0.1-1,0.3-1.1,0.9c-0.1,0.5,0.3,1,0.9,1.1c0.1,0,0.1,0,0.2,0h3.3c0.4,1.5,1.5,2.7,3,3.1l2.1,9.3
			c0.7,2.9-0.5,4.7-1.6,5.6c-1.8,1.5-4.2,1.9-6.4,1.1c-1.8-0.7-3.1-2.3-3.3-4.3l-0.1-0.6h0.8c0.5,0,1-0.4,1-1c0,0,0,0,0,0v-2.7
			c0-1.5-1-2.8-2.4-3.3 M151.1,20.9h2.2c0,0,0.1,0,0.1,0.1v4.6c0,0,0,0.1-0.1,0.1h-2.2C150.4,24.1,150.4,22.4,151.1,20.9z
			 M146.2,25.5L146.2,25.5c-1.2-0.1-2.1-1.1-2.1-2.2c0,0,0-0.1,0-0.1c0,0,0,0,0-0.1c0-1.3,1.1-2.3,2.3-2.3h2.6
			c-0.5,1.5-0.5,3.1,0,4.7L146.2,25.5L146.2,25.5z M118.8,33.5h15.7c0.8,0,1.4,0.6,1.4,1.4c0,0,0,0,0,0v1.7h-17.1V33.5z M127.8,55.6
			c-2.4,0-4.5-1.7-5-4.1h10C132.4,53.9,130.3,55.6,127.8,55.6L127.8,55.6z M120.8,49.5c0.5-3.9,4-6.6,7.9-6.1
			c3.2,0.4,5.7,2.9,6.1,6.1H120.8z M146.4,49.5h-9.6c-0.5-4.9-4.9-8.5-9.9-8c-4.2,0.4-7.6,3.8-8,8h-0.3c-0.5,0-0.9-0.4-0.9-0.9V41
			c0-0.9,0.2-1.8,0.7-2.5h15.7l0.1,0.9c0.3,2.6,2,4.9,4.5,5.8c0.9,0.3,1.9,0.5,2.9,0.5c2,0,4-0.7,5.5-2c2.1-1.9,2.9-4.8,2.2-7.5
			l-2-8.7h3.7c0.4,0.9,0.8,1.8,1.1,2.6c1.5,3.5,2.8,6.5,3,9.6c0.1,3.3-0.6,5.8-2.2,7.5C151.3,48.8,149.2,49.5,146.4,49.5L146.4,49.5
			z M156.2,55.6c-2.4,0-4.5-1.7-5-4.1h10C160.8,53.9,158.7,55.6,156.2,55.6L156.2,55.6z M153.1,49.5L153.1,49.5
			c0.4-0.3,0.8-0.6,1.1-1c1.3-1.4,2.2-3.2,2.5-5.1c3.3,0.2,6.1,2.7,6.6,6.1L153.1,49.5z"/>
		<g class="st1">
			<polygon class="st0" points="157,42 157,42 157,42 			"/>
			<polygon class="st0" points="153.1,50 153.1,50 153.1,50 			"/>
			<path class="st0" d="M157,42L157,42c0-0.6,0-1.2,0-1.9c-0.1-3.5-1.6-6.8-3.1-10.3L153,28h0.2c1.1,0,2-0.9,2-2v-4.5
				c0-1.1-0.9-2-2-2h-6.8c-2,0-3.7,1.4-4.2,3.3h-3.3c-0.5-0.1-1,0.3-1.1,0.9c-0.1,0.5,0.3,1,0.9,1.1c0.1,0,0.1,0,0.2,0h3.3
				c0.4,1.5,1.5,2.7,3,3.1l2.1,9.3c0.7,2.9-0.5,4.7-1.6,5.6c-1.8,1.5-4.2,1.9-6.4,1.1c-1.8-0.7-3.1-2.3-3.3-4.3l-0.1-0.6h0.8
				c0.5,0,1-0.4,1-1v-2.7c0-1.5-1-2.7-2.4-3.1v-0.6c-0.6,0-1.3,0-1.9,0v0.5h-14.7V32c-0.6,0-1.3,0-1.9,0v5.9
				c-0.8,1.1-1.2,2.4-1.2,3.8v7.6c0,1.6,1.3,2.8,2.8,2.8h2.3c0.4,3.8,3.8,6.6,7.7,6.3c3.3-0.3,5.9-3,6.3-6.3h14.5
				c0.4,3.8,3.8,6.6,7.7,6.3c3.3-0.3,5.9-3,6.3-6.3h1.1c0.5,0,1-0.4,1-1c0,0,0,0,0,0C165.3,46.4,161.7,42.4,157,42z M151.1,21.4h2.2
				c0,0,0.1,0,0.1,0.1V26c0,0,0,0.1-0.1,0.1h-2.2C150.4,24.5,150.4,22.9,151.1,21.4z M146.2,26L146.2,26c-1.2-0.1-2.1-1.1-2.1-2.2
				c0,0,0,0,0-0.1c0,0,0,0,0-0.1c0-1.3,1.1-2.3,2.3-2.3h2.6c-0.5,1.5-0.5,3.1,0,4.7L146.2,26L146.2,26z M118.8,34h15.7
				c0.8,0,1.4,0.6,1.4,1.4v0v1.7h-17V34z M127.8,56.1c-2.4,0-4.5-1.7-5-4.1h10C132.4,54.4,130.3,56.1,127.8,56.1L127.8,56.1z
				 M120.8,50c0.5-3.9,4-6.6,7.9-6.1c3.2,0.4,5.7,2.9,6.1,6.1H120.8z M146.4,50h-9.6c-0.5-4.9-4.9-8.5-9.9-8c-4.2,0.4-7.6,3.8-8,8
				h-0.3c-0.5,0-0.9-0.4-0.9-0.9v-7.7c0-0.9,0.2-1.8,0.7-2.5h15.7l0.1,0.9c0.3,2.6,2,4.9,4.5,5.8c0.9,0.3,1.9,0.5,2.9,0.5
				c2,0,4-0.7,5.5-2c2.1-1.9,2.9-4.8,2.2-7.5l-2-8.7h3.7c0.4,0.9,0.8,1.8,1.1,2.6c1.5,3.5,2.8,6.5,3,9.6c0.1,3.3-0.6,5.8-2.2,7.5
				C151.3,49.3,149.2,50,146.4,50L146.4,50z M156.2,56.1c-2.4,0-4.5-1.7-5-4.1h10C160.8,54.3,158.7,56.1,156.2,56.1L156.2,56.1z
				 M153.1,50L153.1,50c0.4-0.3,0.8-0.6,1.1-1c1.3-1.4,2.2-3.2,2.5-5.1c3.3,0.2,6.1,2.7,6.6,6.1H153.1z"/>
		</g>
		<path class="st0" d="M115.8,28.6h19c0.1,0,0.1,0.1,0.1,0.1v0.4c0,0.1-0.1,0.1-0.1,0.1h-19c-0.1,0-0.1-0.1-0.1-0.1v-0.4
			C115.7,28.6,115.8,28.6,115.8,28.6z"/>
		<path class="st0" d="M115.8,26.7h19c0.1,0,0.1,0.1,0.1,0.1v0.4c0,0.1-0.1,0.1-0.1,0.1h-19c-0.1,0-0.1-0.1-0.1-0.1v-0.4
			C115.7,26.8,115.8,26.7,115.8,26.7z"/>
		<path class="st0" d="M115.8,24.9h19c0.1,0,0.1,0.1,0.1,0.1v0.4c0,0.1-0.1,0.1-0.1,0.1h-19c-0.1,0-0.1-0.1-0.1-0.1V25
			C115.7,24.9,115.8,24.9,115.8,24.9z"/>
		<path class="st0" d="M115.8,23.1h19c0.1,0,0.1,0.1,0.1,0.1v0.4c0,0.1-0.1,0.1-0.1,0.1h-19c-0.1,0-0.1-0.1-0.1-0.1v-0.4
			C115.7,23.1,115.8,23.1,115.8,23.1z"/>
		<path class="st0" d="M115.8,21.2h19c0.1,0,0.1,0.1,0.1,0.1v0.4c0,0.1-0.1,0.1-0.1,0.1h-19c-0.1,0-0.1-0.1-0.1-0.1v-0.4
			C115.7,21.3,115.8,21.2,115.8,21.2z"/>
		<path class="st0" d="M115.8,19.4h19c0.1,0,0.1,0.1,0.1,0.1v0.4c0,0.1-0.1,0.1-0.1,0.1h-19c-0.1,0-0.1-0.1-0.1-0.1v-0.4
			C115.7,19.4,115.8,19.4,115.8,19.4z"/>
		<path class="st0" d="M115.8,17.5h19c0.1,0,0.1,0.1,0.1,0.1v0.4c0,0.1-0.1,0.1-0.1,0.1h-19c-0.1,0-0.1-0.1-0.1-0.1v-0.4
			C115.7,17.6,115.8,17.5,115.8,17.5z"/>
		<path class="st0" d="M115.8,15.7h19c0.1,0,0.1,0.1,0.1,0.1v0.4c0,0.1-0.1,0.1-0.1,0.1h-19c-0.1,0-0.1-0.1-0.1-0.1v-0.4
			C115.7,15.8,115.8,15.7,115.8,15.7z"/>
		<path class="st0" d="M115.8,13.9h19c0.1,0,0.1,0.1,0.1,0.1v0.4c0,0.1-0.1,0.1-0.1,0.1h-19c-0.1,0-0.1-0.1-0.1-0.1V14
			C115.7,13.9,115.8,13.9,115.8,13.9z"/>
		<path class="st0" d="M108.7,41.9c0-1.2-1-2.2-2.2-2.2c-0.9,0-1.7,0.5-2,1.3c-0.1,0.2-0.3,0.4-0.5,0.5c-0.9,0.2-1.6,1-1.6,2
			c0,1,0.6,1.8,1.5,2.1l0.2,0.1c0,0.5,0,0.9,0,1.4c0.1,0.8,0.7,1.3,1.4,1.5c0.7,0.2,1.5,0,2-0.7c0.1-0.2,0.4-0.3,0.6-0.2
			c0.9,0.1,1.8-0.4,2.1-1.2v-0.1h-1.7c-0.1,0-0.2,0-0.3,0c-0.1-0.1-0.2-0.2-0.2-0.3c0-0.1,0.1-0.2,0.2-0.2c0.1-0.1,0.1,0,0.2,0h4.4
			c0.2,0,0.4,0,0.4,0.3s-0.2,0.3-0.4,0.3c-0.4,0-0.9,0-1.3,0c-0.4-0.1-0.8,0.1-0.9,0.5c-0.4,0.9-1.4,1.5-2.4,1.4
			c-0.1,0-0.3,0.1-0.4,0.2c-0.6,0.7-1.6,0.9-2.5,0.7c-0.9-0.2-1.6-1-1.7-1.9c0-0.3,0-0.6,0-0.9c0-0.1-0.1-0.2-0.2-0.3
			c-1.3-0.7-1.9-2.3-1.2-3.6c0.3-0.7,0.9-1.2,1.6-1.4c0.1-0.1,0.2-0.1,0.3-0.3c0.7-1.4,2.3-2,3.7-1.3c0.8,0.4,1.4,1.1,1.5,2
			c0,0.2,0,0.5,0.1,0.5c0.2,0.1,0.4,0.1,0.6,0.1h2.7c0.1,0,0.2,0,0.2,0c0.1,0.1,0.2,0.2,0.3,0.2c-0.1,0.1-0.2,0.3-0.3,0.3
			c-0.5,0-1,0-1.5,0c-1,0-2,0-3.1,0c-0.1,0-0.3-0.1-0.4-0.2c0.1-0.1,0.1-0.3,0.2-0.3C108.4,41.9,108.5,41.9,108.7,41.9z"/>
		<path class="st0" d="M106,49.6c-0.3,0-0.6,0-0.9-0.1c-1.1-0.3-1.9-1.2-2.1-2.2c0-0.2,0-0.4,0-0.6c0-0.1,0-0.2,0-0.3
			c-1.5-0.8-2.1-2.7-1.3-4.3c0.4-0.7,1.1-1.3,1.9-1.5c0.7-1.6,2.6-2.3,4.2-1.6c0.9,0.4,1.6,1.3,1.8,2.3c0,0.1,0,0.2,0,0.2h3
			c0.1,0,0.3,0,0.4,0.1c0.1,0.1,0.2,0.1,0.3,0.2l0.5,0.4l-0.4,0.3c-0.1,0.2-0.3,0.3-0.6,0.4c-0.4,0-0.8,0-1.1,0h-1.1
			c-0.8,0-1.6,0-2.4,0c-0.2,0-0.4-0.1-0.5-0.2l-0.1-0.1l-0.4-0.2l0.3-0.4c0.1-0.2,0.2-0.4,0.4-0.4c0,0,0.1,0,0.2,0
			c-0.2-0.9-1.1-1.5-2.1-1.3c-0.6,0.1-1,0.5-1.2,1c-0.1,0.4-0.5,0.7-0.9,0.7c-0.7,0.2-1.2,0.8-1.3,1.6c0,0.8,0.5,1.4,1.2,1.7
			l0.2,0.1l0.3,0.1v0.3c0,0.2,0,0.3,0,0.5c0,0.3,0,0.5,0,0.8c0.1,0.6,0.5,1,1.1,1.1c0.6,0.2,1.2,0,1.6-0.5c0.2-0.3,0.6-0.4,1-0.4
			c0.5,0.1,1-0.1,1.4-0.5h-1c-0.4,0.1-0.9-0.2-0.9-0.7c0,0,0,0,0,0c-0.1-0.3,0.3-0.6,0.4-0.7c0.1-0.1,0.3-0.1,0.4-0.1h4.4
			c0.7,0,0.9,0.4,0.9,0.7c0,0.2-0.1,0.4-0.2,0.5c-0.2,0.2-0.4,0.2-0.6,0.2h-0.4c-0.3,0-0.7,0-1,0c-0.3,0-0.3,0-0.4,0.3
			c-0.5,1.1-1.6,1.8-2.8,1.7h-0.1C107.6,49.2,106.8,49.5,106,49.6z M108.3,45.7v0.4c0,0,0.1,0,0.1,0L108.3,45.7z"/>
		<path class="st0" d="M109.5,43.8h2.2c0.2,0,0.4,0,0.4,0.3c0,0.3-0.2,0.3-0.4,0.3h-4.5c-0.2,0-0.4,0-0.4-0.3c0-0.3,0.2-0.2,0.4-0.2
			H109.5z"/>
		<path class="st0" d="M111.7,44.8h-4.5c-0.2,0-0.5-0.1-0.6-0.2c-0.1-0.1-0.2-0.3-0.2-0.5c0-0.2,0.1-0.7,0.8-0.7h4.5
			c0.2,0,0.3,0,0.5,0.1c0.3,0.2,0.5,0.6,0.3,1c0,0.1-0.1,0.1-0.1,0.2C112.2,44.7,112,44.8,111.7,44.8z"/>
		<path class="st0" d="M151.1,20.9h2.2c0,0,0.1,0,0.1,0.1c0,0,0,0,0,0v4.5c0,0,0,0.1-0.1,0.1h-2.2C150.4,24,150.4,22.4,151.1,20.9z"
			/>
		<path class="st0" d="M118.8,33.5h15.7c0.8,0,1.4,0.6,1.4,1.4c0,0,0,0,0,0v1.7h-17.1V33.5z"/>
		<path class="st0" d="M121.7,49.9c0.4-3.4,3.5-5.8,6.9-5.3c2.8,0.4,5,2.5,5.3,5.3H121.7z"/>
		<path class="st0" d="M151.9,50.3L151.9,50.3c0.4-0.3,0.8-0.6,1.1-1c1.3-1.4,2.2-3.2,2.5-5.1c3.3,0.2,6.1,2.8,6.5,6.1L151.9,50.3z"
			/>
		<polygon class="st0" points="153.1,152.3 153.1,152.3 153.1,152.3 		"/>
		<path class="st0" d="M133.5,134.3h-3.8c-4.3,0-8.4,0.1-12.8,0v5.7c-0.8,1.1-1.2,2.4-1.2,3.8v7.6c0,1.6,1.3,2.8,2.8,2.8l0,0h2.3
			c0.4,3.8,3.8,6.6,7.7,6.3c3.3-0.3,5.9-3,6.3-6.3h14.5c0.4,3.8,3.8,6.6,7.7,6.3c3.3-0.3,5.9-3,6.3-6.3h1.1c0.5,0,1-0.4,1-1v0
			c0-4.7-3.6-8.6-8.3-9c0-0.6,0-1.2,0-1.9c-0.1-3.5-1.6-6.8-3.1-10.3l-0.8-1.9h0.2c1.1,0,2-0.9,2-2v-4.6c0-1.1-0.9-2-2-2h-6.8
			c-2,0-3.7,1.4-4.2,3.3h-3.3c-0.5-0.1-1,0.3-1.1,0.9c-0.1,0.5,0.3,1,0.9,1.1c0.1,0,0.1,0,0.2,0h3.3c0.4,1.5,1.5,2.7,3,3.1l2.1,9.3
			c0.7,2.9-0.5,4.7-1.6,5.6c-1.8,1.5-4.2,1.9-6.4,1.1c-1.8-0.7-3.1-2.3-3.3-4.3l-0.1-0.6h0.8c0.5,0,1-0.4,1-1l0,0v-2.7
			c0-1.5-0.9-2.8-2.4-3.3 M151.1,123.6h2.2c0,0,0.1,0,0.1,0.1v4.6c0,0,0,0.1-0.1,0.1h-2.2C150.5,126.8,150.4,125.2,151.1,123.6
			L151.1,123.6z M146.2,128.3L146.2,128.3c-1.2-0.1-2.1-1.1-2.1-2.2c0,0,0,0,0-0.1c0,0,0-0.1,0-0.1c0-1.3,1.1-2.3,2.3-2.3h2.6
			c-0.5,1.5-0.5,3.1,0,4.7L146.2,128.3L146.2,128.3z M118.8,136.3h15.7c0.8,0,1.4,0.6,1.4,1.4l0,0v1.7h-17V136.3z M127.8,158.4
			c-2.4,0-4.5-1.7-5-4.1h10C132.4,156.6,130.3,158.4,127.8,158.4L127.8,158.4z M120.8,152.3c0.5-3.9,4-6.6,7.9-6.1
			c3.2,0.4,5.7,2.9,6.1,6.1H120.8z M146.4,152.3h-9.6c-0.5-4.9-4.9-8.5-9.9-8c-4.2,0.4-7.6,3.8-8,8h-0.3c-0.5,0-0.9-0.4-0.9-0.9
			v-7.6c0-0.9,0.2-1.8,0.7-2.5h15.7l0.1,0.9c0.3,2.6,2,4.9,4.5,5.8c0.9,0.3,1.9,0.5,2.9,0.5c2,0,4-0.7,5.5-2
			c2.1-1.9,2.9-4.8,2.2-7.5l-2-8.7h3.7c0.4,0.9,0.8,1.8,1.1,2.6c1.5,3.5,2.8,6.5,3,9.6c0.1,3.3-0.6,5.8-2.2,7.5
			C151.3,151.5,149.2,152.3,146.4,152.3L146.4,152.3z M156.2,158.4c-2.4,0-4.5-1.7-5-4.1h10C160.8,156.6,158.7,158.4,156.2,158.4
			L156.2,158.4z M153.1,152.3L153.1,152.3c0.4-0.3,0.8-0.6,1.1-1c1.3-1.4,2.2-3.2,2.5-5.1c3.3,0.2,6.1,2.7,6.6,6.1H153.1z"/>
		<g class="st1">
			<polygon class="st0" points="157,144.8 157,144.8 157,144.8 			"/>
			<polygon class="st0" points="153.1,152.8 153.1,152.8 153.1,152.8 			"/>
			<path class="st0" d="M157,144.8L157,144.8c0-0.6,0-1.2,0-1.9c-0.1-3.5-1.6-6.8-3.1-10.3l-0.8-1.8h0.2c1.1,0,2-0.9,2-2v-4.6
				c0-1.1-0.9-2-2-2h-6.8c-2,0-3.7,1.4-4.2,3.3h-3.3c-0.5-0.1-1,0.3-1.1,0.9c-0.1,0.5,0.3,1,0.9,1.1c0.1,0,0.1,0,0.2,0h3.3
				c0.4,1.5,1.5,2.7,3,3.1l2.1,9.3c0.7,2.9-0.5,4.7-1.6,5.6c-1.8,1.5-4.2,1.9-6.4,1.1c-1.8-0.7-3.1-2.3-3.3-4.3l-0.1-0.6h0.8
				c0.5,0,1-0.4,1-1v-2.6c0-1.5-1-2.7-2.3-3.2v-0.6c-0.6,0-1.3,0-1.9,0v0.5h-14.7v-0.1c-0.6,0-1.3,0-1.9,0v5.9
				c-0.8,1.1-1.2,2.4-1.2,3.8v7.6c0,1.6,1.3,2.8,2.8,2.8h2.3c0.4,3.8,3.8,6.6,7.7,6.3c3.3-0.3,5.9-3,6.3-6.3h14.5
				c0.4,3.8,3.8,6.6,7.7,6.3c3.3-0.3,5.9-3,6.3-6.3h1.1c0.5,0,1-0.4,1-1l0,0C165.3,149.1,161.7,145.2,157,144.8z M151.1,124.2h2.2
				c0,0,0.1,0,0.1,0.1v4.6c0,0,0,0.1-0.1,0.1h-2.2C150.4,127.3,150.5,125.6,151.1,124.2L151.1,124.2z M146.2,128.8L146.2,128.8
				c-1.2-0.1-2.1-1.1-2.1-2.2c0,0,0-0.1,0-0.1c0,0,0,0,0-0.1c0-1.3,1.1-2.3,2.3-2.3h2.6c-0.5,1.5-0.5,3.1,0,4.7L146.2,128.8
				L146.2,128.8z M118.8,136.8h15.7c0.8,0,1.4,0.6,1.4,1.4l0,0v1.7h-17V136.8z M127.8,158.9c-2.4,0-4.5-1.7-5-4.1h10
				C132.4,157.1,130.3,158.9,127.8,158.9L127.8,158.9z M120.8,152.8c0.5-3.9,4-6.6,7.9-6.1c3.2,0.4,5.7,2.9,6.1,6.1H120.8z
				 M146.4,152.8h-9.6c-0.5-4.9-4.9-8.5-9.9-8c-4.2,0.4-7.6,3.8-8,8h-0.3c-0.5,0-0.9-0.4-0.9-0.9v-7.7c0-0.9,0.2-1.8,0.7-2.5h15.7
				l0.1,0.9c0.3,2.6,2,4.9,4.5,5.8c0.9,0.3,1.9,0.5,2.9,0.5c2,0,4-0.7,5.5-2c2.1-1.9,2.9-4.8,2.2-7.5l-2-8.7h3.7
				c0.4,0.9,0.8,1.8,1.1,2.6c1.5,3.5,2.8,6.5,3,9.6c0.1,3.3-0.6,5.8-2.2,7.5C151.2,152.2,149.2,152.8,146.4,152.8L146.4,152.8z
				 M156.2,158.9c-2.4,0-4.5-1.7-5-4.1h10C160.8,157.1,158.7,158.8,156.2,158.9L156.2,158.9z M153.1,152.8L153.1,152.8
				c0.4-0.3,0.8-0.6,1.1-1c1.3-1.4,2.2-3.2,2.5-5.1c3.3,0.2,6.1,2.7,6.6,6.1H153.1z"/>
		</g>
		<path class="st0" d="M115.8,131.4h19c0.1,0,0.1,0.1,0.1,0.1v0.4c0,0.1-0.1,0.1-0.1,0.1h-19c-0.1,0-0.1-0.1-0.1-0.1v-0.4
			C115.7,131.4,115.8,131.4,115.8,131.4z"/>
		<path class="st0" d="M115.8,129.5h19c0.1,0,0.1,0.1,0.1,0.1v0.4c0,0.1-0.1,0.1-0.1,0.1h-19c-0.1,0-0.1-0.1-0.1-0.1v-0.4
			C115.7,129.6,115.8,129.5,115.8,129.5z"/>
		<path class="st0" d="M115.8,127.7h19c0.1,0,0.1,0.1,0.1,0.1v0.4c0,0.1-0.1,0.1-0.1,0.1h-19c-0.1,0-0.1-0.1-0.1-0.1v-0.4
			C115.7,127.7,115.8,127.7,115.8,127.7z"/>
		<path class="st0" d="M115.8,125.8h19c0.1,0,0.1,0.1,0.1,0.1v0.4c0,0.1-0.1,0.1-0.1,0.1h-19c-0.1,0-0.1-0.1-0.1-0.1v-0.4
			C115.7,125.9,115.8,125.8,115.8,125.8z"/>
		<path class="st0" d="M115.8,124h19c0.1,0,0.1,0.1,0.1,0.1v0.4c0,0.1-0.1,0.1-0.1,0.1h-19c-0.1,0-0.1-0.1-0.1-0.1v-0.4
			C115.7,124,115.8,124,115.8,124z"/>
		<path class="st0" d="M115.8,122.2h19c0.1,0,0.1,0.1,0.1,0.1v0.4c0,0.1-0.1,0.1-0.1,0.1h-19c-0.1,0-0.1-0.1-0.1-0.1v-0.4
			C115.7,122.2,115.8,122.2,115.8,122.2z"/>
		<path class="st0" d="M115.8,120.3h19c0.1,0,0.1,0.1,0.1,0.1v0.4c0,0.1-0.1,0.1-0.1,0.1h-19c-0.1,0-0.1-0.1-0.1-0.1v-0.4
			C115.7,120.4,115.8,120.3,115.8,120.3z"/>
		<path class="st0" d="M115.8,118.5h19c0.1,0,0.1,0.1,0.1,0.1v0.4c0,0.1-0.1,0.1-0.1,0.1h-19c-0.1,0-0.1-0.1-0.1-0.1v-0.4
			C115.7,118.5,115.8,118.5,115.8,118.5z"/>
		<path class="st0" d="M115.8,116.6h19c0.1,0,0.1,0.1,0.1,0.1v0.4c0,0.1-0.1,0.1-0.1,0.1h-19c-0.1,0-0.1-0.1-0.1-0.1v-0.4
			C115.7,116.7,115.8,116.6,115.8,116.6z"/>
		<path class="st0" d="M108.7,144.7c0-1.2-0.9-2.2-2.1-2.3c-0.9,0-1.7,0.5-2.1,1.3c-0.1,0.2-0.3,0.4-0.5,0.5c-0.9,0.2-1.6,1-1.6,2
			c0,1,0.6,1.8,1.5,2.1l0.2,0.1c0,0.5,0,0.9,0,1.4c0.1,0.8,0.7,1.4,1.4,1.5c0.7,0.2,1.5,0,2-0.7c0.1-0.2,0.4-0.3,0.6-0.2
			c0.9,0.1,1.8-0.4,2.1-1.2V149h-1.7c-0.1,0-0.2,0-0.3,0c-0.1-0.1-0.2-0.2-0.2-0.3c0-0.1,0.1-0.2,0.2-0.2c0.1-0.1,0.1,0,0.2,0h4.4
			c0.2,0,0.4,0,0.4,0.3s-0.2,0.3-0.4,0.3c-0.4,0-0.9,0-1.3,0c-0.4-0.1-0.8,0.1-0.9,0.5c-0.4,0.9-1.4,1.5-2.4,1.4
			c-0.1,0-0.3,0.1-0.4,0.2c-0.6,0.7-1.6,0.9-2.5,0.7c-0.9-0.2-1.6-1-1.7-1.9c0-0.3,0-0.6,0-0.9c0-0.1-0.1-0.2-0.2-0.3
			c-1.3-0.7-1.9-2.3-1.2-3.6c0.3-0.7,0.9-1.2,1.6-1.4c0.1-0.1,0.2-0.1,0.3-0.3c0.7-1.4,2.3-2,3.7-1.3c0.8,0.4,1.4,1.1,1.5,2
			c0,0.2,0,0.5,0.1,0.5c0.2,0.1,0.4,0.1,0.6,0.1h2.7c0.1,0,0.2,0,0.2,0c0.1,0.1,0.2,0.2,0.3,0.2c-0.1,0.1-0.2,0.3-0.3,0.3
			c-0.5,0-1,0-1.5,0c-1,0-2,0-3.1,0c-0.1,0-0.3-0.1-0.4-0.2c0.1-0.1,0.1-0.3,0.2-0.3C108.4,144.7,108.5,144.7,108.7,144.7z"/>
		<path class="st0" d="M106,152.3c-0.3,0-0.6,0-0.9-0.1c-1.1-0.3-1.9-1.2-2.1-2.2c0-0.2,0-0.4,0-0.6c0-0.1,0-0.2,0-0.3
			c-1.5-0.8-2.1-2.7-1.3-4.3c0.4-0.7,1.1-1.3,1.9-1.5c0.7-1.6,2.6-2.3,4.2-1.6c0.9,0.4,1.6,1.3,1.8,2.3c0,0.1,0,0.2,0,0.2h3
			c0.1,0,0.3,0,0.4,0.1c0.1,0.1,0.2,0.1,0.3,0.2l0.5,0.4l-0.4,0.3c-0.1,0.2-0.3,0.3-0.6,0.4c-0.4,0-0.8,0-1.1,0h-3.5
			c-0.2,0-0.4-0.1-0.5-0.2l-0.1-0.1l-0.4-0.2l0.3-0.4c0.1-0.2,0.2-0.4,0.4-0.4c0.1,0,0.1,0,0.2,0c-0.2-0.9-1.1-1.5-2.1-1.3
			c-0.6,0.1-1,0.5-1.2,1c-0.1,0.4-0.5,0.7-0.9,0.7c-0.7,0.2-1.2,0.8-1.3,1.6c0,0.8,0.5,1.4,1.2,1.7l0.2,0.1l0.3,0.1v0.3
			c0,0.2,0,0.3,0,0.5c0,0.3,0,0.5,0,0.8c0.1,0.6,0.5,1,1.1,1.1c0.6,0.2,1.2,0,1.6-0.5c0.2-0.3,0.6-0.4,1-0.4c0.5,0.1,1-0.1,1.4-0.5
			h-1c-0.2,0-0.4,0-0.5-0.1c-0.2-0.1-0.4-0.3-0.4-0.6c-0.1-0.3,0.3-0.6,0.4-0.7c0.1-0.1,0.3-0.1,0.4-0.1h4.4c0.7,0,0.9,0.4,0.9,0.7
			c0,0.2-0.1,0.4-0.2,0.5c-0.2,0.2-0.4,0.2-0.6,0.2h-0.4c-0.3,0-0.7,0-1,0c-0.3,0-0.3,0-0.4,0.3c-0.5,1.1-1.6,1.8-2.8,1.7l-0.1,0
			C107.6,152,106.8,152.3,106,152.3z M108.3,148.5v0.4c0,0,0.1,0,0.1,0L108.3,148.5z"/>
		<path class="st0" d="M109.5,146.6h2.2c0.2,0,0.4,0,0.4,0.3s-0.2,0.3-0.4,0.3h-4.5c-0.2,0-0.4,0-0.4-0.3s0.2-0.3,0.4-0.3
			L109.5,146.6z"/>
		<path class="st0" d="M111.7,147.6h-4.5c-0.2,0-0.5-0.1-0.6-0.2c-0.1-0.1-0.2-0.3-0.2-0.5c0-0.2,0.1-0.7,0.8-0.7h4.5
			c0.2,0,0.3,0,0.5,0.1c0.2,0.1,0.4,0.4,0.4,0.6c0,0.2-0.1,0.4-0.2,0.5C112.2,147.5,112,147.6,111.7,147.6z"/>
		<path class="st0" d="M151.1,123.6h2.2c0,0,0.1,0,0.1,0.1v4.5c0,0,0,0.1-0.1,0.1h-2.2C150.4,126.8,150.4,125.1,151.1,123.6z"/>
		<path class="st0" d="M118.8,136.3h15.7c0.8,0,1.4,0.6,1.4,1.4l0,0v1.7h-17V136.3z"/>
		<path class="st0" d="M121.7,152.7c0.4-3.4,3.5-5.8,6.9-5.3c2.8,0.4,5,2.5,5.3,5.3H121.7z"/>
		<path class="st0" d="M151.9,153.1L151.9,153.1c0.4-0.3,0.8-0.6,1.1-1c1.3-1.4,2.2-3.2,2.5-5.1c3.3,0.2,6.1,2.8,6.5,6.1H151.9z"/>
		<polygon class="st0" points="160.3,98.6 160.3,98.6 160.3,98.6 		"/>
		<path class="st0" d="M140.7,80.6h-3.8c-4.3,0-8.4,0.1-12.8,0v5.7c-0.8,1.1-1.2,2.4-1.2,3.8v7.6c0,1.6,1.3,2.8,2.8,2.8h2.3
			c0.4,3.8,3.8,6.6,7.7,6.3c3.3-0.3,5.9-3,6.3-6.3h14.5c0.4,3.8,3.9,6.6,7.7,6.2c3.3-0.3,5.9-2.9,6.2-6.2h1.1c0.5,0,1-0.4,1-0.9
			c0-4.7-3.6-8.6-8.3-9c0-0.6,0-1.2,0-1.9c-0.1-3.5-1.6-6.8-3.1-10.3l-0.8-1.9h0.2c1.1,0,2-0.9,2-2l0,0V70c0-1.1-0.9-2-2-2l0,0h-6.8
			c-2,0-3.7,1.4-4.1,3.3h-3.3c-0.5-0.1-1,0.3-1.1,0.9c-0.1,0.5,0.3,1,0.9,1.1c0.1,0,0.1,0,0.2,0h3.3c0.4,1.5,1.5,2.7,3,3.1l2.1,9.3
			c0.7,2.9-0.5,4.7-1.6,5.6c-1.8,1.5-4.2,1.9-6.4,1.1c-1.8-0.7-3.1-2.3-3.3-4.3l-0.1-0.6h0.8c0.5,0,1-0.4,1-1c0,0,0,0,0,0v-2.7
			c0-1.5-0.9-2.8-2.3-3.3 M158.3,69.9h2.2c0,0,0.1,0,0.1,0.1v4.6c0,0,0,0.1-0.1,0.1h-2.2C157.6,73.1,157.6,71.4,158.3,69.9
			L158.3,69.9z M153.4,74.6L153.4,74.6c-1.2-0.1-2.1-1.1-2.1-2.2v-0.1c0-1.3,1.1-2.3,2.3-2.3h2.6c-0.5,1.5-0.5,3.1,0,4.7L153.4,74.6
			L153.4,74.6z M126.1,82.6h15.7c0.8,0,1.4,0.6,1.4,1.4v0v1.7H126L126.1,82.6z M135.1,104.7c-2.4,0-4.5-1.7-5-4.1h10
			C139.6,102.9,137.5,104.7,135.1,104.7L135.1,104.7z M128.1,98.6c0.5-3.9,4-6.6,7.9-6.1c3.2,0.4,5.7,2.9,6.1,6.1H128.1z
			 M153.6,98.6H144c-0.5-4.9-4.9-8.5-9.9-8c-4.2,0.4-7.6,3.8-8,8h-0.3c-0.5,0-0.9-0.4-0.9-0.9v-7.7c0-0.9,0.3-1.8,0.7-2.5h15.7
			l0.1,0.9c0.3,2.6,2,4.9,4.5,5.8c0.9,0.3,1.9,0.5,2.9,0.5c2,0,4-0.7,5.5-2c2.1-1.9,2.9-4.8,2.1-7.5l-2-8.7h3.7
			c0.4,0.9,0.8,1.7,1.1,2.6c1.5,3.5,2.8,6.5,3,9.6c0.1,3.3-0.6,5.8-2.2,7.5C158.5,97.8,156.4,98.6,153.6,98.6L153.6,98.6z
			 M163.4,104.7c-2.4,0-4.5-1.7-5-4.1h10C168,102.9,165.9,104.7,163.4,104.7z M160.3,98.6L160.3,98.6c0.4-0.3,0.8-0.6,1.1-1
			c1.3-1.4,2.2-3.2,2.5-5.1c3.3,0.2,6.1,2.7,6.6,6.1H160.3z"/>
		<g class="st1">
			<polygon class="st0" points="164.1,91.1 164.1,91.1 164.1,91.1 			"/>
			<polygon class="st0" points="160.3,99.1 160.3,99.1 160.3,99.1 			"/>
			<path class="st0" d="M164.1,91.1L164.1,91.1c0-0.6,0-1.2,0-1.9c-0.1-3.5-1.6-6.8-3.1-10.3l-0.8-1.9h0.2c1.1,0,2-0.9,2-1.9v-4.6
				c0-1.1-0.9-2-2-2l0,0h-6.8c-2,0-3.7,1.4-4.1,3.3h-3.3c-0.5-0.1-1,0.3-1.1,0.9c-0.1,0.5,0.3,1,0.9,1.1c0.1,0,0.1,0,0.2,0h3.3
				c0.4,1.5,1.5,2.7,3,3.1l2.1,9.3c0.7,2.9-0.5,4.7-1.6,5.6c-1.8,1.5-4.2,1.9-6.4,1.1c-1.8-0.7-3.1-2.3-3.3-4.3l-0.1-0.6h0.8
				c0.5,0,1-0.4,1-1c0,0,0,0,0,0v-2.6c0-1.5-1-2.7-2.3-3.2v-0.6c-0.6,0-1.3,0-1.9,0v0.5h-14.7V81c-0.6,0-1.3,0-1.9,0v5.9
				c-0.8,1.1-1.2,2.4-1.2,3.8v7.5c0,1.6,1.3,2.8,2.8,2.8h2.3c0.4,3.8,3.8,6.6,7.7,6.3c3.3-0.3,5.9-3,6.3-6.3h14.5
				c0.4,3.8,3.9,6.6,7.7,6.2c3.3-0.3,5.9-2.9,6.2-6.2h1.1c0.5,0,1-0.4,1-1C172.5,95.3,168.8,91.4,164.1,91.1z M158.2,70.4h2.2
				c0,0,0.1,0,0.1,0.1v4.6c0,0,0,0.1-0.1,0.1h-2.2C157.6,73.6,157.6,71.9,158.2,70.4z M153.4,75.1L153.4,75.1
				c-1.2-0.1-2.1-1.1-2.1-2.2v-0.1c0-1.3,1.1-2.3,2.3-2.3h2.6c-0.5,1.5-0.5,3.1,0,4.7L153.4,75.1L153.4,75.1z M126,83h15.7
				c0.8,0,1.4,0.6,1.4,1.4c0,0,0,0,0,0v1.7h-17V83z M135,105.2c-2.4,0-4.5-1.7-5-4.1h10C139.6,103.4,137.5,105.2,135,105.2z
				 M128,99.1c0.5-3.9,4-6.6,7.9-6.1c3.2,0.4,5.7,2.9,6.1,6.1H128z M153.6,99.1h-9.6c-0.5-4.9-4.9-8.5-9.9-8c-4.2,0.4-7.6,3.8-8,8
				h-0.3c-0.5,0-0.9-0.4-0.9-0.9v-7.7c0-0.9,0.3-1.8,0.7-2.5h15.7l0.1,0.9c0.3,2.6,2,4.9,4.5,5.8c0.9,0.3,1.9,0.5,2.9,0.5
				c2,0,4-0.7,5.5-2c2.1-1.9,3-4.8,2.2-7.5l-2-8.7h3.7c0.4,0.9,0.8,1.7,1.1,2.6c1.5,3.5,2.8,6.5,3,9.6c0.1,3.3-0.6,5.8-2.2,7.5
				C158.5,98.3,156.4,99.1,153.6,99.1L153.6,99.1z M163.4,105.2c-2.4,0-4.5-1.7-5-4.1h10C168,103.4,165.9,105.2,163.4,105.2z
				 M160.3,99.1L160.3,99.1c0.4-0.3,0.8-0.6,1.1-1c1.3-1.4,2.2-3.2,2.5-5.1c3.3,0.2,6.1,2.7,6.6,6.1H160.3z"/>
		</g>
		<path class="st0" d="M123,77.6h19c0.1,0,0.1,0.1,0.1,0.1v0.4c0,0.1-0.1,0.1-0.1,0.1h-19c-0.1,0-0.1-0.1-0.1-0.1v-0.4
			C122.9,77.7,123,77.6,123,77.6z"/>
		<path class="st0" d="M123,75.8h19c0.1,0,0.1,0.1,0.1,0.1v0.4c0,0.1-0.1,0.1-0.1,0.1h-19c-0.1,0-0.1-0.1-0.1-0.1v-0.4
			C122.9,75.8,123,75.8,123,75.8z"/>
		<path class="st0" d="M123,74h19c0.1,0,0.1,0.1,0.1,0.1v0.4c0,0.1-0.1,0.1-0.1,0.1h-19c-0.1,0-0.1-0.1-0.1-0.1v-0.4
			C122.9,74,123,74,123,74z"/>
		<path class="st0" d="M123,72.1h19c0.1,0,0.1,0.1,0.1,0.1v0.4c0,0.1-0.1,0.1-0.1,0.1h-19c-0.1,0-0.1-0.1-0.1-0.1v-0.4
			C122.9,72.2,123,72.1,123,72.1z"/>
		<path class="st0" d="M123,70.3h19c0.1,0,0.1,0.1,0.1,0.1v0.4c0,0.1-0.1,0.1-0.1,0.1h-19c-0.1,0-0.1-0.1-0.1-0.1v-0.4
			C122.9,70.3,123,70.3,123,70.3z"/>
		<path class="st0" d="M123,68.4h19c0.1,0,0.1,0.1,0.1,0.1V69c0,0.1-0.1,0.1-0.1,0.1h-19c-0.1,0-0.1-0.1-0.1-0.1v-0.4
			C122.9,68.5,123,68.4,123,68.4z"/>
		<path class="st0" d="M123,66.6h19c0.1,0,0.1,0.1,0.1,0.1v0.4c0,0.1-0.1,0.1-0.1,0.1h-19c-0.1,0-0.1-0.1-0.1-0.1v-0.4
			C122.9,66.7,123,66.6,123,66.6z"/>
		<path class="st0" d="M123,64.8h19c0.1,0,0.1,0.1,0.1,0.1v0.4c0,0.1-0.1,0.1-0.1,0.1h-19c-0.1,0-0.1-0.1-0.1-0.1v-0.4
			C122.9,64.8,123,64.8,123,64.8z"/>
		<path class="st0" d="M123,62.9h19c0.1,0,0.1,0.1,0.1,0.1v0.4c0,0.1-0.1,0.1-0.1,0.1h-19c-0.1,0-0.1-0.1-0.1-0.1V63
			C122.9,63,123,62.9,123,62.9z"/>
		<path class="st0" d="M115.9,90.9c0-1.2-0.9-2.2-2.1-2.3c-0.9,0-1.7,0.5-2.1,1.3c-0.1,0.2-0.3,0.4-0.5,0.5c-0.9,0.2-1.6,1.1-1.6,2
			c0,1,0.6,1.8,1.5,2.1l0.2,0.1c0,0.5,0,0.9,0,1.4c0.1,0.8,0.7,1.4,1.5,1.5c0.7,0.2,1.5,0,2-0.7c0.1-0.2,0.4-0.3,0.6-0.2
			c0.9,0.1,1.8-0.4,2.1-1.3c0,0,0-0.1,0-0.1h-1.7c-0.1,0-0.2,0-0.3,0c-0.1-0.1-0.2-0.1-0.2-0.3c0-0.1,0.1-0.2,0.2-0.2
			c0.1,0,0.1,0,0.2,0h4.4c0.2,0,0.4,0,0.4,0.3s-0.2,0.3-0.4,0.3c-0.4,0-0.9,0-1.3,0c-0.4-0.1-0.8,0.1-0.9,0.5
			c-0.4,0.9-1.4,1.5-2.5,1.4c-0.1,0-0.3,0.1-0.4,0.2c-0.6,0.7-1.6,0.9-2.5,0.6c-0.9-0.2-1.6-1-1.7-1.9c0-0.3-0.1-0.6-0.1-0.9
			c0-0.1-0.1-0.2-0.1-0.3c-1.3-0.6-1.9-2.3-1.3-3.6c0.3-0.7,1-1.2,1.7-1.4c0.1-0.1,0.2-0.1,0.3-0.3c0.7-1.4,2.3-1.9,3.7-1.3
			c0.8,0.4,1.3,1.1,1.5,1.9c0,0.2,0,0.5,0.1,0.5c0.2,0.1,0.4,0.1,0.6,0.1c0.9,0,1.8,0,2.7,0c0.1,0,0.1,0,0.2,0
			c0.1,0.1,0.2,0.2,0.3,0.2c-0.1,0.1-0.2,0.3-0.3,0.3c-0.5,0-1,0-1.5,0h-3.1c-0.1,0-0.3-0.1-0.4-0.2c0.1-0.1,0.1-0.3,0.2-0.3
			C115.6,90.9,115.7,90.9,115.9,90.9z"/>
		<path class="st0" d="M113.2,98.6c-0.3,0-0.6,0-0.9-0.1c-1.1-0.3-1.9-1.1-2.1-2.2c0-0.2-0.1-0.4-0.1-0.6v-0.3
			c-1.5-0.8-2.1-2.7-1.3-4.3c0.4-0.7,1.1-1.3,1.8-1.5c0.7-1.6,2.6-2.3,4.2-1.6c0.9,0.4,1.6,1.3,1.8,2.3c0,0.1,0,0.2,0,0.2h3
			c0.1,0,0.3,0,0.4,0.1c0.1,0.1,0.2,0.1,0.3,0.2l0.5,0.4l-0.4,0.3c-0.1,0.2-0.3,0.3-0.6,0.4c-0.4,0-0.8,0-1.1,0h-3.4
			c-0.2,0-0.4-0.1-0.5-0.2l-0.1-0.1l-0.5-0.2l0.3-0.4c0.1-0.2,0.2-0.4,0.4-0.4h0.2c-0.2-0.9-1.1-1.5-2.1-1.3c-0.6,0.1-1,0.5-1.2,1
			c-0.1,0.4-0.5,0.7-0.9,0.7c-0.7,0.2-1.2,0.8-1.2,1.6c0,0.8,0.5,1.4,1.2,1.7l0.2,0.1l0.3,0.1v0.3c0,0.2,0,0.3,0,0.5
			c0,0.3,0,0.5,0,0.8c0.1,0.6,0.5,1,1.1,1.1c0.6,0.2,1.2,0,1.6-0.5c0.2-0.3,0.6-0.5,1-0.4c0.5,0.1,1-0.1,1.4-0.5h-1
			c-0.2,0-0.4,0-0.5-0.1c-0.2-0.1-0.4-0.3-0.4-0.6c0-0.3,0.1-0.5,0.4-0.6c0.1-0.1,0.3-0.1,0.4-0.1h4.4c0.7,0,0.9,0.4,0.9,0.7
			c0,0.2-0.1,0.4-0.2,0.5c-0.2,0.2-0.4,0.2-0.7,0.2h-0.4c-0.3,0-0.7,0-1,0c-0.3,0-0.3,0-0.4,0.3c-0.5,1.1-1.7,1.8-2.9,1.7
			c0,0,0,0-0.1,0C114.7,98.3,114,98.6,113.2,98.6z M115.5,94.8v0.4c0,0,0.1,0,0.1,0L115.5,94.8z"/>
		<path class="st0" d="M116.7,92.9h2.2c0.2,0,0.4,0,0.4,0.3s-0.2,0.3-0.4,0.3h-4.4c-0.2,0-0.4,0-0.4-0.3c0-0.3,0.2-0.2,0.4-0.2
			L116.7,92.9z"/>
		<path class="st0" d="M118.9,93.9h-4.5c-0.2,0-0.5-0.1-0.6-0.2c-0.1-0.1-0.2-0.3-0.2-0.5c0-0.2,0.1-0.7,0.8-0.7h4.5
			c0.2,0,0.3,0,0.5,0.1c0.2,0.1,0.4,0.4,0.4,0.6c0,0.2-0.1,0.4-0.2,0.5C119.4,93.8,119.1,93.9,118.9,93.9z"/>
		<path class="st0" d="M158.2,69.9h2.2c0,0,0.1,0,0.1,0.1v4.5c0,0,0,0.1-0.1,0.1h-2.2C157.6,73.1,157.6,71.4,158.2,69.9z"/>
		<path class="st0" d="M126,82.6h15.7c0.8,0,1.4,0.6,1.4,1.4v0v1.7h-17V82.6z"/>
		<path class="st0" d="M128.9,99c0.4-3.4,3.5-5.8,6.9-5.3c2.8,0.4,5,2.5,5.3,5.3H128.9z"/>
		<path class="st0" d="M159.1,99.3L159.1,99.3c0.4-0.3,0.8-0.6,1.1-1c1.3-1.4,2.2-3.2,2.5-5.1c3.3,0.2,6.1,2.8,6.5,6.1H159.1z"/>
		<path class="st0" d="M50.9,71.3c-0.3,0-0.6-0.2-0.8-0.4c-0.2-0.4-0.1-1,0.3-1.2l3-1.7c0.4-0.2,1-0.1,1.2,0.3
			c0.2,0.4,0.1,1-0.3,1.2l-3,1.7C51.2,71.3,51,71.3,50.9,71.3z M57,67.8c-0.3,0-0.6-0.2-0.8-0.4c-0.2-0.4-0.1-1,0.3-1.2l3-1.7
			c0.4-0.2,1-0.1,1.2,0.3c0.2,0.4,0.1,1-0.3,1.2l-3,1.7C57.3,67.8,57.1,67.8,57,67.8z M63,64.3c-0.3,0-0.6-0.2-0.8-0.4
			c-0.2-0.4-0.1-1,0.3-1.2l3-1.7c0.4-0.2,1-0.1,1.2,0.3c0.2,0.4,0.1,1-0.3,1.2l-3,1.7C63.3,64.3,63.2,64.3,63,64.3z M69.1,60.8
			c-0.3,0-0.6-0.2-0.8-0.4c-0.2-0.4-0.1-1,0.3-1.2l3-1.7c0.4-0.2,1-0.1,1.2,0.3c0.2,0.4,0.1,1-0.3,1.2l-3,1.7
			C69.4,60.8,69.2,60.8,69.1,60.8z M75.1,57.3c-0.3,0-0.6-0.2-0.8-0.4c-0.2-0.4-0.1-1,0.3-1.2l3-1.7c0.4-0.2,1-0.1,1.2,0.3
			c0.2,0.4,0.1,1-0.3,1.2l-3,1.7C75.4,57.3,75.3,57.3,75.1,57.3z M81.2,53.9c-0.3,0-0.6-0.2-0.8-0.4c-0.2-0.4-0.1-1,0.3-1.2l3-1.7
			c0.4-0.2,1-0.1,1.2,0.3c0.2,0.4,0.1,1-0.3,1.2l-3,1.7C81.5,53.8,81.4,53.9,81.2,53.9z M87.3,50.4c-0.3,0-0.6-0.2-0.8-0.4
			c-0.2-0.4-0.1-1,0.3-1.2l3-1.7c0.4-0.2,1-0.1,1.2,0.3c0.2,0.4,0.1,1-0.3,1.2l-3,1.7C87.6,50.3,87.4,50.4,87.3,50.4z M93.3,46.9
			c-0.3,0-0.6-0.2-0.8-0.4c-0.2-0.4-0.1-1,0.3-1.2l3-1.7c0.4-0.2,1-0.1,1.2,0.3c0.2,0.4,0.1,1-0.3,1.2l-3,1.7
			C93.6,46.8,93.5,46.9,93.3,46.9z"/>
		<path class="st0" d="M99.5,138.3c-0.2,0-0.3,0-0.5-0.1l-2.9-2c-0.4-0.3-0.5-0.8-0.2-1.2c0.3-0.4,0.8-0.5,1.2-0.2l2.9,2
			c0.4,0.3,0.5,0.8,0.2,1.2C100.1,138.2,99.8,138.3,99.5,138.3z M93.7,134.4c-0.2,0-0.3,0-0.5-0.1l-2.9-2c-0.4-0.3-0.5-0.8-0.2-1.2
			c0.3-0.4,0.8-0.5,1.2-0.2l2.9,2c0.4,0.3,0.5,0.8,0.2,1.2C94.3,134.3,94,134.4,93.7,134.4z M87.9,130.5c-0.2,0-0.3,0-0.5-0.1
			l-2.9-2c-0.4-0.3-0.5-0.8-0.2-1.2c0.3-0.4,0.8-0.5,1.2-0.2l2.9,2c0.4,0.3,0.5,0.8,0.2,1.2C88.5,130.4,88.2,130.5,87.9,130.5z
			 M82.1,126.6c-0.2,0-0.3,0-0.5-0.1l-2.9-2c-0.4-0.3-0.5-0.8-0.2-1.2c0.3-0.4,0.8-0.5,1.2-0.2l2.9,2c0.4,0.3,0.5,0.8,0.2,1.2
			C82.7,126.5,82.4,126.6,82.1,126.6z M76.3,122.7c-0.2,0-0.3,0-0.5-0.1l-2.9-2c-0.4-0.3-0.5-0.8-0.2-1.2c0.3-0.4,0.8-0.5,1.2-0.2
			l2.9,2c0.4,0.3,0.5,0.8,0.2,1.2C76.9,122.5,76.6,122.7,76.3,122.7z M70.5,118.8c-0.2,0-0.3,0-0.5-0.1l-2.9-2
			c-0.4-0.3-0.5-0.8-0.2-1.2c0.3-0.4,0.8-0.5,1.2-0.2l2.9,2c0.4,0.3,0.5,0.8,0.2,1.2C71.1,118.6,70.8,118.8,70.5,118.8z M64.7,114.8
			c-0.2,0-0.3,0-0.5-0.1l-2.9-2c-0.4-0.3-0.5-0.8-0.2-1.2c0.3-0.4,0.8-0.5,1.2-0.2l2.9,2c0.4,0.3,0.5,0.8,0.2,1.2
			C65.3,114.7,65,114.8,64.7,114.8z M58.9,110.9c-0.2,0-0.3,0-0.5-0.1l-2.9-2c-0.4-0.3-0.5-0.8-0.2-1.2c0.3-0.4,0.8-0.5,1.2-0.2
			l2.9,2c0.4,0.3,0.5,0.8,0.2,1.2C59.5,110.8,59.2,110.9,58.9,110.9z"/>
		<path class="st0" d="M57.7,94c-0.5,0-0.9-0.4-0.9-0.8c0-0.5,0.4-0.9,0.8-0.9l3.5-0.2c0.5,0,0.9,0.4,0.9,0.8c0,0.5-0.4,0.9-0.8,0.9
			L57.7,94C57.7,94,57.7,94,57.7,94z M64.7,93.7c-0.5,0-0.9-0.4-0.9-0.8c0-0.5,0.4-0.9,0.8-0.9l3.5-0.2c0.5,0,0.9,0.4,0.9,0.8
			c0,0.5-0.4,0.9-0.8,0.9L64.7,93.7C64.7,93.7,64.7,93.7,64.7,93.7z M71.7,93.4c-0.5,0-0.9-0.4-0.9-0.8c0-0.5,0.4-0.9,0.8-0.9
			l3.5-0.2c0.5,0,0.9,0.4,0.9,0.8c0,0.5-0.4,0.9-0.8,0.9L71.7,93.4C71.7,93.4,71.7,93.4,71.7,93.4z M78.7,93.1
			c-0.5,0-0.9-0.4-0.9-0.8c0-0.5,0.4-0.9,0.8-0.9l3.5-0.2c0.5,0,0.9,0.4,0.9,0.8c0,0.5-0.4,0.9-0.8,0.9L78.7,93.1
			C78.7,93.1,78.7,93.1,78.7,93.1z M85.7,92.8c-0.5,0-0.9-0.4-0.9-0.8c0-0.5,0.4-0.9,0.8-0.9l3.5-0.2c0.5,0,0.9,0.4,0.9,0.8
			c0,0.5-0.4,0.9-0.8,0.9L85.7,92.8C85.7,92.8,85.7,92.8,85.7,92.8z M92.7,92.5c-0.5,0-0.9-0.4-0.9-0.8c0-0.5,0.4-0.9,0.8-0.9
			l3.5-0.2c0.5,0,0.9,0.4,0.9,0.8s-0.4,0.9-0.8,0.9L92.7,92.5C92.7,92.5,92.7,92.5,92.7,92.5z M99.6,92.2c-0.5,0-0.9-0.4-0.9-0.8
			c0-0.5,0.4-0.9,0.8-0.9l1.7-0.1c0.5,0,0.9,0.4,0.9,0.8c0,0.5-0.4,0.9-0.8,0.9L99.6,92.2C99.7,92.2,99.7,92.2,99.6,92.2z"/>
	</g>
</g>
</svg>
