<svg xmlns="http://www.w3.org/2000/svg" viewBox="0 0 95.24 121.41"><defs><style>.cls-1{fill:#51bb47;}.cls-2{fill:none;stroke:#51bb47;stroke-miterlimit:10;stroke-width:5px;}</style></defs><g id="Capa_2" data-name="Capa 2"><g id="Layer_1" data-name="Layer 1"><path class="cls-1" d="M25,121.41a5,5,0,0,1-2.24-2.5c-1.82-3.53-3.7-7-5.52-10.57a1.16,1.16,0,0,0-1.28-.75c-4.24.25-8.48.43-12.72.67a2.87,2.87,0,0,1-2.89-1.34,2.88,2.88,0,0,1,.15-3.11Q8.37,90.09,16.18,76.35L17,74.86c-.91-.3-1.77-.59-2.64-.86a8.11,8.11,0,0,1-5.9-8.08c0-1.42.12-2.84.2-4.26a4.77,4.77,0,0,0-1.51-3.85c-1-1-2-2-3-3.06A8,8,0,0,1,3,45.55c.65-1.26,1.4-2.48,2.15-3.69a5.1,5.1,0,0,0,.53-4.51,33.77,33.77,0,0,1-1.31-4.8,7.66,7.66,0,0,1,3.29-7.76c1.22-.9,2.55-1.64,3.84-2.43A4.79,4.79,0,0,0,13.85,19c.25-1.4.53-2.79.84-4.19a8.12,8.12,0,0,1,7.59-6.4c1.36-.07,2.72-.17,4.08-.29a4.59,4.59,0,0,0,3.33-1.84c.93-1.16,1.82-2.34,2.8-3.46A8,8,0,0,1,41.73.64c1.29.53,2.56,1.1,3.83,1.67a4.84,4.84,0,0,0,4.14,0c1.24-.56,2.49-1.12,3.75-1.64a8,8,0,0,1,9.44,2.27c.81.94,1.61,1.91,2.33,2.92a5.36,5.36,0,0,0,4.56,2.33c1.22,0,2.44.1,3.65.24a8.17,8.17,0,0,1,7.24,6.81c.23,1.22.48,2.44.7,3.67a4.84,4.84,0,0,0,2.32,3.42,35.2,35.2,0,0,1,4.65,3.11,7.61,7.61,0,0,1,2.36,8.09c-.36,1.37-.79,2.73-1.22,4.09a4.83,4.83,0,0,0,.53,4.1c.78,1.3,1.59,2.58,2.28,3.92a8,8,0,0,1-1.18,9c-1,1.08-2,2.1-3,3.13a4.84,4.84,0,0,0-1.52,3.84c.08,1.52.19,3,.2,4.54a8,8,0,0,1-5.31,7.6c-1,.37-2.07.68-3.19,1,.19.37.34.68.51,1q7.93,13.92,15.87,27.84a3,3,0,0,1,.1,3.42,2.74,2.74,0,0,1-2.54,1.18c-4.3-.23-8.59-.42-12.89-.67a1.21,1.21,0,0,0-1.36.76c-1.84,3.6-3.75,7.14-5.6,10.73a4.47,4.47,0,0,1-2.19,2.32H68.73a4.58,4.58,0,0,1-2.16-2.12Q60.18,108,53.74,96.71c-1.23-2.16-2.47-4.31-3.6-6.29h-5c-.06.09-.22.34-.36.6q-8.05,14.13-16.11,28.29a4.31,4.31,0,0,1-2.17,2.1ZM38.64,3.46a5.06,5.06,0,0,0-3.78,2c-.8,1-1.59,2-2.39,3a8.06,8.06,0,0,1-5.84,3.17c-1.34.11-2.67.22-4,.31a4.6,4.6,0,0,0-4.55,4c-.25,1.22-.48,2.44-.71,3.67a8.31,8.31,0,0,1-4,5.8c-1,.62-2,1.25-3,1.88a4.63,4.63,0,0,0-2.2,5.86c.38,1.28.78,2.55,1.14,3.83a7.65,7.65,0,0,1-.54,5.71C8,44.07,7.14,45.4,6.36,46.76a4.59,4.59,0,0,0,.76,5.94L9.8,55.43a8.13,8.13,0,0,1,2.42,6.29c-.06,1.39-.16,2.78-.18,4.18a4.53,4.53,0,0,0,3.35,4.69c1.15.39,2.31.74,3.47,1.1a8.47,8.47,0,0,1,5.44,4.78c.54,1.19,1.06,2.39,1.64,3.56A4.56,4.56,0,0,0,31,82.61L35,81.94a8,8,0,0,1,6.39,1.48c1.13.83,2.22,1.71,3.33,2.54a4.6,4.6,0,0,0,5.92,0c1.06-.8,2.11-1.64,3.18-2.44A8.12,8.12,0,0,1,60.33,82l3.78.64a4.6,4.6,0,0,0,5.26-2.69c.58-1.2,1.11-2.43,1.67-3.64a8.16,8.16,0,0,1,5-4.46c1.41-.45,2.85-.86,4.22-1.4a4.26,4.26,0,0,0,2.87-4.12A28.11,28.11,0,0,0,83,62.73a8.84,8.84,0,0,1,2.88-7.79c.81-.74,1.56-1.55,2.31-2.35a4.57,4.57,0,0,0,.71-5.72c-.65-1.14-1.33-2.25-2-3.38a8.25,8.25,0,0,1-.86-6.93c.37-1.19.74-2.38,1.09-3.58A4.62,4.62,0,0,0,85,27.32c-1.11-.69-2.24-1.35-3.34-2.06A8,8,0,0,1,78,20c-.3-1.42-.54-2.85-.85-4.27a4.57,4.57,0,0,0-4.39-3.74c-1.07-.07-2.13-.16-3.2-.2a8.88,8.88,0,0,1-7.26-3.88c-.62-.87-1.31-1.69-2-2.51A4.56,4.56,0,0,0,54.66,4c-1.2.51-2.39,1-3.58,1.57a8.2,8.2,0,0,1-6.9,0C43,5.05,41.8,4.5,40.59,4A18.17,18.17,0,0,0,38.64,3.46ZM4.15,104.66c4.19-.21,8.22-.41,12.24-.66a1.2,1.2,0,0,0,.77-.59c1-1.63,1.9-3.29,2.84-4.94.8-1.41,1.74-1.83,2.76-1.23s1.13,1.57.34,3-1.54,2.88-2.44,4.24a2.24,2.24,0,0,0-.07,2.65c1.79,3.25,3.47,6.55,5.25,9.93L42.1,88.47l-2.76-2.12a4.8,4.8,0,0,0-4-.89c-1.2.21-2.4.38-3.58.67a1.84,1.84,0,0,0-1.07.73c-1.05,1.73-2,3.52-3,5.23a3,3,0,0,1-1.39,1.12,1.48,1.48,0,0,1-1.71-.67,1.76,1.76,0,0,1-.07-2c.88-1.57,1.78-3.13,2.65-4.67-.05-.09-.06-.12-.09-.14l-.3-.17a8.28,8.28,0,0,1-4.21-4.29c-.52-1.16-1.06-2.32-1.61-3.47-.2-.41-.46-.79-.77-1.29ZM68,85.74c.91,1.58,1.77,3,2.56,4.53a3,3,0,0,1,.39,1.5,1.55,1.55,0,0,1-1.36,1.45,1.71,1.71,0,0,1-1.94-.92c-1-1.78-2-3.55-3-5.35a1.49,1.49,0,0,0-1.3-.88,14.56,14.56,0,0,1-2.62-.48c-3.29-1-5.34,1.08-7.52,2.94L69.39,117c2-3.72,3.85-7.28,5.7-10.86a1.21,1.21,0,0,0-.13-1c-.94-1.72-1.92-3.41-2.89-5.12a4.42,4.42,0,0,1-.45-1,1.77,1.77,0,0,1,3.31-1.18c1.07,1.82,2.07,3.67,3.16,5.48A1.42,1.42,0,0,0,79,104c1,.12,2,.13,3,.18l9,.47L75,76.38c-.67,1.38-1.29,2.53-1.78,3.72C72.18,82.61,70.73,84.7,68,85.74Z"/><path class="cls-1" d="M25.88,111.87c-1.06-2-2.1-4-3.19-6l0-.08v0c.69-1,1.28-2.12,1.85-3.16.23-.41.45-.82.68-1.22,1.54-2.7.71-4.75-.63-5.87a3.77,3.77,0,0,0,1.25.21,3.7,3.7,0,0,0,1.31-.24,5.41,5.41,0,0,0,2.61-2.12c.59-1,1.14-1.93,1.68-2.88.39-.69.78-1.37,1.18-2.05.7-.16,1.42-.28,2.19-.41l1-.16a3.5,3.5,0,0,1,.62-.06,2.19,2.19,0,0,1,1.41.48l1.05.81ZM20,81.7c.09.19.18.39.26.58a11,11,0,0,0,3.53,4.41c-.49.88-1,1.76-1.49,2.64A4.24,4.24,0,0,0,22.55,94a4.5,4.5,0,0,0,.72.78,4,4,0,0,0-1.45-.27c-1.12,0-2.73.48-4,2.74l-.72,1.27c-.58,1-1.17,2.06-1.76,3.08L8.46,102Z"/><path class="cls-1" d="M56.32,89.15a4.48,4.48,0,0,1,2.73-1.29A3.28,3.28,0,0,1,60,88a15.05,15.05,0,0,0,2.64.52c.76,1.38,1.53,2.72,2.31,4.07l.56,1a4.18,4.18,0,0,0,3.67,2.21,4.41,4.41,0,0,0,.89-.09l.52-.13a4.17,4.17,0,0,0-1.34,4.26,5.79,5.79,0,0,0,.64,1.44l1,1.79,1.59,2.81c-1,2-2.1,4-3.18,6.07Zm25.86,12.64-.86,0c-.5,0-1,0-1.44-.07l-1.43-2.49c-.46-.82-.92-1.63-1.39-2.44a4.18,4.18,0,0,0-5-2A3.87,3.87,0,0,0,73.4,92a5.36,5.36,0,0,0-.67-2.8c-.44-.83-.89-1.62-1.35-2.44a12.22,12.22,0,0,0,3.81-4.95L86.72,102Z"/><path class="cls-2" d="M79.36,45.45a31.75,31.75,0,1,1-31.62-31.9A31.87,31.87,0,0,1,79.36,45.45Z"/><path class="cls-1" d="M23.07,45.16A24.53,24.53,0,1,0,46.86,20.77,24.53,24.53,0,0,0,23.07,45.16Z"/></g></g></svg>