<svg xmlns="http://www.w3.org/2000/svg" viewBox="0 0 80.69 85.45"><defs><style>.cls-1{fill:#fff;}</style></defs><g id="Capa_2" data-name="Capa 2"><g id="Layer_1" data-name="Layer 1"><path class="cls-1" d="M35.12,62H52c6.44,0,12.88,0,19.32,0,4.77,0,8.45,3,9.22,7.26a8.92,8.92,0,0,1-6.14,10.46c-1.37.47-1.78,1.09-1.68,2.4,0,.57,0,1.14,0,1.75a1.6,1.6,0,0,1-1.59,1.57H60.76a1.58,1.58,0,0,1-1.58-1.58V80.48H34v3.39a1.59,1.59,0,0,1-1.59,1.58H1.58A1.58,1.58,0,0,1,0,83.87V1.22A1.22,1.22,0,0,1,1.22,0H56.13a1,1,0,0,1,1,1V15.92A1.07,1.07,0,0,1,56.11,17H50.24a51,51,0,0,0-1,6.63c-.13,5.42-.05,10.86-.05,16.49a1,1,0,0,1-.93,1l-2.77.17a.52.52,0,0,0-.48.52v7.64a1.08,1.08,0,0,1-1,1.08l-3.15.21c0,1.7.08,3.33-.06,4.95,0,.47-.69.9-1.06,1.34-.38-.44-1-.86-1.09-1.34-.14-1.61-.06-3.25-.06-5l-2.21-.11a1.9,1.9,0,0,1-1.8-1.9V41.85a.52.52,0,0,0-.48-.52l-2.73-.17a1,1,0,0,1-.94-.88c-.88-7.44,1-15.13-1.23-22.5a.77.77,0,0,0-.74-.55H14.74A.72.72,0,0,0,14,18c0,4.34.34,8.62-.1,12.82-.54,5.23,1.13,9,5,12.54,4.49,4.09,8.52,8.7,12.62,13.21C32.78,57.9,33.61,59.66,35.12,62ZM28.58,14.84c.31-1.15.49-2,.76-2.81A10.79,10.79,0,0,1,39.59,4.57c4.74,0,9.13,2.79,10.23,7.36.68,2.82,2.08,3.11,4,2.79a1,1,0,0,0,.85-1V3.1a.88.88,0,0,0-.89-.88H3.49a1.19,1.19,0,0,0-1.2,1.19V82.12a1.12,1.12,0,0,0,1.12,1.12H30.35a1.12,1.12,0,0,0,1.12-1.12c0-7.26,0-14.37-.06-21.48a3.84,3.84,0,0,0-1.2-2.15c-3.5-3.76-7.07-7.45-10.6-11.19-2.63-2.78-6.22-5.19-7.56-8.5s-.39-7.52-.44-11.35c0-.95,0-1.91,0-2.87V15.52a.68.68,0,0,1,.68-.68Zm5.43,63c13,0,25.68,0,38.37,0,2.57,0,4.36-1.64,5.41-3.93,2.14-4.65-1.26-9.57-6.74-9.6-11.83-.07-23.66,0-35.5,0a9.15,9.15,0,0,0-1.5.24v5.16c1.19.46,4.09-.08,11.81,0,12.1,0,6.14,0,18.52-.28,1.42,0,2.19.09,2.93-.84,2.19-2.76,5.77-2.94,8,.06a4.21,4.21,0,0,1,.66,3.65,4.7,4.7,0,0,1-8.44,1.61,3.23,3.23,0,0,0-3.22-1.53c-9.31,0-18.62,0-27.93,0-.75,0-1.5.12-2.33.2ZM46.59,38V25a.58.58,0,0,0-.89-.49c-4.19,2.47-8.22,2.26-12.28,0a.52.52,0,0,0-.79.45V38a.83.83,0,0,0,.83.83h12.3A.83.83,0,0,0,46.59,38Zm1.58-22.63a8.53,8.53,0,1,0-8.82,8.58A8.47,8.47,0,0,0,48.17,15.35ZM37.58,48.17h4a.72.72,0,0,0,.72-.72v-5.3a.72.72,0,0,0-.72-.72h-4a.73.73,0,0,0-.73.72v5.3A.73.73,0,0,0,37.58,48.17Zm24.63,35.1h7.33a.75.75,0,0,0,.75-.75V81.25a.75.75,0,0,0-.75-.74H62.21a.75.75,0,0,0-.75.74v1.27A.75.75,0,0,0,62.21,83.27ZM72.57,69.71a1.91,1.91,0,0,0-2.67,0c-.55.54-.93.88-.83,1.3a2.44,2.44,0,0,0,.78,1.17,2.23,2.23,0,0,0,3.05,0,1.71,1.71,0,0,0,.62-1C73.55,70.61,73.14,70.25,72.57,69.71Z"/><path class="cls-1" d="M40.41,21.48a6.13,6.13,0,1,1,4.92-3.69A6.15,6.15,0,0,1,40.41,21.48Zm-.72-9.94a3.93,3.93,0,0,0-3.86,3.76,3.82,3.82,0,1,0,3.86-3.76Z"/><rect class="cls-1" x="36.85" y="41.43" width="5.48" height="6.75" rx="0.73"/><rect class="cls-1" x="61.46" y="80.51" width="8.83" height="2.77" rx="0.75"/><circle class="cls-1" cx="39.64" cy="15.35" r="4.46"/><circle class="cls-1" cx="71.2" cy="71.21" r="4.46"/><polygon class="cls-1" points="5.41 38.81 5.41 81.16 28.5 81.16 28.5 62.4 5.41 38.81"/></g></g></svg>