<?xml version="1.0" encoding="utf-8"?>
<!-- Generator: Adobe Illustrator 24.3.0, SVG Export Plug-In . SVG Version: 6.00 Build 0)  -->
<svg version="1.1" id="Capa_1" xmlns="http://www.w3.org/2000/svg" xmlns:xlink="http://www.w3.org/1999/xlink" x="0px" y="0px"
	 viewBox="0 0 175 175" style="enable-background:new 0 0 175 175;" xml:space="preserve">
<style type="text/css">
	.st0{fill:#51BB47;}
	.st1{fill:#FFFFFF;}
</style>
<g id="Capa_2_1_">
	<g id="Layer_1">
		<path class="st0" d="M167.3,69.7l-42-26.3l-1.8,49.5l10.5-5.5c1.2,28.6-21.1,52.8-49.7,54s-52.8-21.1-54-49.7
			C29.1,63,51.4,38.8,80,37.7c9.5-0.4,18.9,1.8,27.2,6.4l10.9-19.8C82.2,4.4,36.9,17.4,17,53.4s-6.9,81.3,29.1,101.2
			c28.6,15.8,64.2,11.2,87.7-11.5c0.9-0.9,1.8-1.8,2.7-2.7c16.2-17.2,23.2-41.1,18.9-64.4L167.3,69.7z"/>
		<path class="st0" d="M76.1,77.7h-8.9v9h-8.5v-9h-8.9v-8h8.9v-9.1h8.5v9.1h8.9V77.7z"/>
		<path class="st0" d="M96,66.1c0-2.8-1.2-4.2-3.6-4.2c-1.2-0.1-2.3,0.5-3,1.4c-0.7,1.4-1.1,2.9-1,4.5h-8.6c0.2-4.4,1.5-7.7,4-9.9
			c2.6-2.3,5.9-3.5,9.3-3.3c3.9,0,6.9,1,8.9,3c2,2,3.1,4.8,3,7.7c-0.1,3.8-1.5,7.4-4,10.3c-2.7,3.4-6,6.2-9.7,8.5h14.3v7.1H79.7
			v-6.5C90.5,76.9,96,70.7,96,66.1z"/>
		<path class="st0" d="M58.6,116h-7l-1.2,3.4h-4.8l6.8-18.5h5.2l6.8,18.5h-4.8L58.6,116z M57.4,112.5l-2.3-6.9l-2.3,6.9H57.4z"/>
		<path class="st0" d="M82.1,119.4h-4.5L70,107.9v11.4h-4.5v-18.6H70l7.5,11.5v-11.5h4.5V119.4z M73.2,95.6c0.4,0.1,0.7,0.3,1.1,0.5
			c0.4,0.2,0.7,0.3,0.8,0.4c0.2,0.1,0.4,0.1,0.6,0.1c0.7,0,1-0.4,1.2-1.2h2.3c-0.4,2.6-1.6,3.9-3.6,3.9c-0.4,0-0.7-0.1-1.1-0.2
			c-0.4-0.1-0.7-0.3-1.1-0.5c-0.2-0.1-0.5-0.3-0.8-0.4c-0.2-0.1-0.4-0.1-0.6-0.1c-0.7,0-1,0.4-1.2,1.2h-2.3c0.4-2.6,1.6-3.9,3.6-3.9
			C72.5,95.4,72.8,95.5,73.2,95.6z"/>
		<path class="st0" d="M98.1,101.7c1.4,0.8,2.6,2,3.4,3.4c0.8,1.5,1.2,3.2,1.2,4.9c0,1.7-0.4,3.4-1.3,4.9c-0.8,1.4-2,2.6-3.4,3.4
			c-3,1.6-6.5,1.6-9.5,0c-1.4-0.8-2.6-2-3.4-3.4c-1.7-3.1-1.7-6.8,0-9.8c0.8-1.4,2-2.6,3.4-3.4c1.4-0.8,3.1-1.2,4.8-1.2
			C95,100.4,96.6,100.8,98.1,101.7z M89.8,106.1c-1.7,2.3-1.7,5.5,0,7.8c1.9,1.9,5.1,1.9,7,0c0.9-1.1,1.4-2.5,1.3-3.9
			c0.1-1.4-0.4-2.8-1.3-3.9C94.9,104.2,91.8,104.2,89.8,106.1L89.8,106.1z"/>
		<path class="st0" d="M117.1,116.8c-0.5,0.9-1.3,1.6-2.2,2c-1.1,0.5-2.3,0.8-3.5,0.7c-1.8,0.1-3.7-0.5-5.2-1.5
			c-1.4-1-2.2-2.6-2.2-4.3h4.8c0,0.6,0.3,1.2,0.8,1.7c0.4,0.4,1,0.6,1.7,0.6c0.5,0,1-0.1,1.4-0.5c0.6-0.7,0.6-1.8,0-2.4
			c-0.3-0.3-0.7-0.6-1.2-0.8c-0.4-0.2-1.1-0.4-1.9-0.7c-1-0.3-1.9-0.7-2.8-1.2c-0.8-0.4-1.5-1-2-1.7c-1.1-1.8-1.1-4,0-5.8
			c0.6-0.8,1.4-1.5,2.4-1.9c1.1-0.4,2.2-0.7,3.4-0.6c1.8-0.1,3.6,0.4,5,1.5c1.2,1,2,2.5,2.1,4.1h-4.9c-0.1-0.5-0.3-1.1-0.7-1.5
			c-0.4-0.4-0.9-0.6-1.5-0.5c-0.5,0-0.9,0.1-1.3,0.4c-0.6,0.7-0.6,1.7-0.1,2.4c0.3,0.3,0.7,0.6,1.1,0.8c0.4,0.2,1.1,0.4,1.9,0.7
			c1,0.3,2,0.7,2.9,1.2c0.8,0.4,1.5,1,2,1.7c0.6,0.9,0.9,1.9,0.8,3C117.9,115.1,117.7,116,117.1,116.8z"/>
		<path class="st1" d="M19.2,103.5c-0.9-0.4-1.7-1-2.2-1.8c-0.6-0.9-0.9-2-1-3.1l-0.4-4.2l11.2-1.2l0.4,4.2c0.1,1.1,0,2.2-0.4,3.2
			c-0.4,0.9-1,1.7-1.8,2.2c-0.9,0.6-1.8,0.9-2.9,1C21.2,104.1,20.2,103.9,19.2,103.5z M19.5,100.5c0.7,0.5,1.6,0.8,2.5,0.6
			c0.9,0,1.7-0.4,2.3-1.1c0.5-0.7,0.7-1.7,0.6-2.6l-0.1-1.3l-6.4,0.7l0.1,1.3C18.4,99.1,18.8,99.9,19.5,100.5L19.5,100.5z"/>
		<path class="st1" d="M29,107.1l-11,2.7l-0.7-2.7l11-2.7L29,107.1z"/>
		<path class="st1" d="M22.9,119.3c-0.6-0.1-1.2-0.4-1.6-0.8c-0.5-0.5-1-1.1-1.2-1.8c-0.4-1-0.5-2.2-0.3-3.3c0.3-1,1-1.8,1.9-2.2
			l1,2.7c-0.3,0.2-0.6,0.4-0.8,0.8c-0.1,0.3-0.1,0.7,0,1.1c0.1,0.3,0.3,0.5,0.6,0.7c0.3,0.1,0.6,0.1,0.8,0c0.3-0.1,0.5-0.3,0.6-0.5
			c0.1-0.3,0.2-0.5,0.2-0.8c0-0.3,0-0.7,0-1.2c0-0.6,0-1.3,0-1.9c0.1-0.5,0.2-1,0.5-1.4c0.4-0.5,0.9-0.9,1.5-1.1
			c0.6-0.2,1.2-0.3,1.8-0.2c0.6,0.1,1.1,0.5,1.6,0.9c0.5,0.5,0.9,1.1,1.1,1.8c0.4,1,0.5,2.1,0.2,3.1c-0.3,0.9-1,1.7-1.9,2.1
			l-1.1-2.8c0.3-0.1,0.5-0.4,0.7-0.7c0.1-0.3,0.1-0.6,0-0.9c-0.1-0.3-0.3-0.5-0.5-0.6c-0.3-0.1-0.6-0.1-0.8,0
			c-0.2,0.1-0.4,0.3-0.5,0.5c-0.1,0.2-0.2,0.5-0.2,0.8c0,0.3,0,0.7,0,1.2c0,0.6,0,1.3,0,1.9c-0.1,0.5-0.3,1-0.6,1.5
			c-0.4,0.5-0.9,0.9-1.5,1.1C24.1,119.3,23.5,119.4,22.9,119.3z"/>
		<path class="st1" d="M27.8,123.2l-3.4,2l-1.4-2.3l9.8-5.8l2.2,3.8c0.7,0.9,0.9,2.1,0.8,3.2c-0.2,1-0.9,1.8-1.8,2.3
			c-0.6,0.3-1.2,0.5-1.8,0.6c-0.7,0-1.3-0.2-1.8-0.6c-0.6-0.4-1.2-1-1.6-1.7L27.8,123.2z M32.4,124c0.7-0.3,1-1.2,0.6-1.9
			c-0.1-0.1-0.1-0.2-0.2-0.3l-0.7-1.2l-2.5,1.5l0.7,1.2C30.9,124.2,31.6,124.5,32.4,124z"/>
		<path class="st1" d="M32.2,133.1l2.3,2.8l-1.6,1.3l-4-4.9l8.8-7.2l1.7,2.1L32.2,133.1z"/>
		<path class="st1" d="M41.3,142.3l-3.2-2.8l-1.9,1.1l-2.2-1.9l10.5-5.7l2.4,2.1l-4.3,11.1l-2.2-1.9L41.3,142.3z M42.2,140.3
			l1.7-4.1l-3.8,2.2L42.2,140.3z"/>
		<path class="st1" d="M59.1,142.8l-7.2,4.6l-1.9,3.2l-2.4-1.4l1.9-3.3l0.4-8.5l2.7,1.6l-0.4,5l4.2-2.9L59.1,142.8z"/>
		<path class="st1" d="M62.9,151.9l-1.1,3.8l-2.6-0.8l3.2-10.8l4.3,1.2c1.1,0.2,2,0.9,2.7,1.8c0.5,0.9,0.6,1.9,0.2,2.9
			c-0.2,0.6-0.5,1.2-1,1.7c-0.5,0.4-1.1,0.7-1.7,0.8c-0.8,0.1-1.6,0.1-2.3-0.2L62.9,151.9z M66.9,149.2c0.3-0.9-0.1-1.6-1.2-1.9
			l-1.3-0.4l-0.8,2.8l1.3,0.4C66,150.5,66.6,150.2,66.9,149.2L66.9,149.2z"/>
		<path class="st1" d="M73.9,149.1l-0.3,2.4l3.8,0.5l-0.3,2l-3.8-0.5l-0.3,2.5l4.3,0.6l-0.3,2.2l-7-0.9l1.5-11.2l7,0.9l-0.3,2.1
			L73.9,149.1z"/>
		<path class="st1" d="M85.7,158.7l-2.6-4.2h-0.6l0.1,4.3l-2.7,0.1l-0.3-11.3l4.7-0.1c0.8-0.1,1.6,0.1,2.3,0.4
			c0.6,0.3,1.1,0.7,1.4,1.2c0.3,0.6,0.5,1.2,0.5,1.8c0,0.8-0.2,1.5-0.6,2.1c-0.5,0.6-1.2,1.1-1.9,1.2l2.8,4.4L85.7,158.7z
			 M82.4,152.7l1.7-0.1c0.4,0,0.9-0.1,1.2-0.4c0.5-0.6,0.5-1.5-0.1-2.1c-0.3-0.3-0.8-0.4-1.2-0.4l-1.7,0.1L82.4,152.7z"/>
		<path class="st1" d="M101.4,144.4l2.7,10.9l-2.7,0.7l-1.7-6.8l-0.7,7.4l-2.3,0.6l-4.1-6.2l1.7,6.8l-2.7,0.7l-2.7-10.9l3.2-0.8
			l4.9,6.9l1-8.3L101.4,144.4z"/>
		<path class="st1" d="M112.9,148.9l-3.8,1.9l0.3,2.2l-2.6,1.3l-1.4-11.9l2.8-1.4l8.8,8.2l-2.6,1.3L112.9,148.9z M111.3,147.4
			l-3.1-3.1l0.6,4.4L111.3,147.4z"/>
		<path class="st1" d="M127.2,141.3L125,143l-7.9-2.6l4.3,5.4l-2.2,1.7l-7-8.9l2.1-1.7l7.9,2.7l-4.3-5.5l2.1-1.7L127.2,141.3z"/>
		<path class="st1" d="M124.4,130.8l1.8,1.6l2.5-2.9l1.5,1.4l-2.5,2.9l1.9,1.7l2.9-3.2l1.6,1.5l-4.7,5.3l-8.5-7.5l4.7-5.3l1.6,1.4
			L124.4,130.8z"/>
		<path class="st1" d="M141.2,122.7l-1.4,2.3l-8.3,0.3l5.9,3.6l-1.4,2.3l-9.7-5.9l1.4-2.3l8.4-0.3l-6-3.6l1.4-2.3L141.2,122.7z"/>
		<path class="st1" d="M135,108l2,0.8l-1.1,2.9l8.5,3.3l-1,2.6l-8.5-3.3l-1,2.8l-2-0.8L135,108z"/>
		<path class="st1" d="M137.8,105.1l2.3,0.5l0.8-3.7l2,0.4l-0.8,3.7l2.5,0.5l0.9-4.2l2.1,0.5l-1.5,6.9l-11.1-2.4l1.5-6.9l2.1,0.5
			L137.8,105.1z"/>
		<g transform="translate(59.84 -0.96)">
			
				<image style="overflow:visible;enable-background:new    ;" width="14" height="30" id="image" xlink:href="B56D8AEA.png"  transform="matrix(1 0 0 1 67.54 10.12)">
			</image>
		</g>
		<g transform="translate(59.84 -0.96)">
			
				<image style="overflow:visible;enable-background:new    ;" width="14" height="30" id="image_2_" xlink:href="B56D8AEE.png"  transform="matrix(1 0 0 1 67.54 10.12)">
			</image>
		</g>
		<g transform="translate(32.84 7.04)">
			
				<image style="overflow:visible;enable-background:new    ;" width="22" height="30" id="image-2" xlink:href="B56D8AE9.png"  transform="matrix(1 0 0 1 40.54 18.12)">
			</image>
		</g>
		<g transform="translate(32.84 7.04)">
			
				<image style="overflow:visible;enable-background:new    ;" width="22" height="30" id="image-2_2_" xlink:href="B56D8AEB.png"  transform="matrix(1 0 0 1 40.54 18.12)">
			</image>
		</g>
		<g transform="translate(13.84 20.04)">
			
				<image style="overflow:visible;enable-background:new    ;" width="27" height="27" id="image-3" xlink:href="B56D8AE8.png"  transform="matrix(1 0 0 1 21.54 31.12)">
			</image>
		</g>
		<g transform="translate(13.84 20.04)">
			
				<image style="overflow:visible;enable-background:new    ;" width="27" height="27" id="image-3_2_" xlink:href="B56D8AF6.png"  transform="matrix(1 0 0 1 21.54 31.12)">
			</image>
		</g>
		<g transform="translate(80.84 1.04)">
			
				<image style="overflow:visible;enable-background:new    ;" width="19" height="30" id="image-4" xlink:href="B56D8AF9.png"  transform="matrix(1 0 0 1 88.54 12.12)">
			</image>
		</g>
		<g transform="translate(80.84 1.04)">
			
				<image style="overflow:visible;enable-background:new    ;" width="19" height="30" id="image-4_2_" xlink:href="B56D8AFA.png"  transform="matrix(1 0 0 1 88.54 12.12)">
			</image>
		</g>
	</g>
</g>
</svg>
