<svg xmlns="http://www.w3.org/2000/svg" xmlns:xlink="http://www.w3.org/1999/xlink" viewBox="0 0 93.02 87.39"><defs><style>.cls-1,.cls-3{fill:none;}.cls-2{clip-path:url(#clip-path);}.cls-3{stroke:#fff;stroke-miterlimit:10;stroke-width:2px;}.cls-4{fill:#fff;}</style><clipPath id="clip-path" transform="translate(-6.31 -6.27)"><rect class="cls-1" width="103.74" height="99.7"/></clipPath></defs><g id="Capa_2" data-name="Capa 2"><g id="Layer_1" data-name="Layer 1"><g class="cls-2"><path class="cls-3" d="M74.28,30.51,72,31.87,59.8,11.2a8,8,0,0,0-13.74-.06l-11,18.27A2.67,2.67,0,0,0,36,33.07l9.14,5.5a2.67,2.67,0,0,0,3.66-.91l4.07-6.77L58.2,40l-2.3,1.35a2.67,2.67,0,0,0,.69,4.88L71.19,50a2.67,2.67,0,0,0,3.25-1.92l3.77-14.6a2.67,2.67,0,0,0-3.93-3Z" transform="translate(-6.31 -6.27)"/><path class="cls-4" d="M58.12,43.52l4.19-2.47L52.87,25l-6.5,10.8L37.8,30.67l10.83-18a4.89,4.89,0,0,1,4.27-2.41,5,5,0,0,1,4.32,2.45L70.92,36l4.19-2.46L71.62,47Z" transform="translate(-6.31 -6.27)"/><path class="cls-3" d="M97.24,75.24C96.45,73.88,87.81,59,86.57,56.86a2.66,2.66,0,0,0-3.26-1.14c-.4.15-.16.06-9.61,5.52a2.67,2.67,0,0,0-1,3.65l3.69,6.37H66.31l0-2.62a2.66,2.66,0,0,0-4.55-1.86L51.1,77.47a2.67,2.67,0,0,0,0,3.77L61.8,91.88A2.67,2.67,0,0,0,66.35,90V87.25h24a8,8,0,0,0,6.92-12Z" transform="translate(-6.31 -6.27)"/><path class="cls-4" d="M53.46,79.35l9.84-9.89,0,4.8H81.63L75.49,63.67l7.1-4.11,1.55-.9,10.5,18.08a5,5,0,0,1-4.32,7.51h-27l0,4.93Z" transform="translate(-6.31 -6.27)"/><path class="cls-3" d="M15.31,87.25H36.64a2.67,2.67,0,0,0,2.66-2.67V73.92a2.65,2.65,0,0,0-2.66-2.66H29.11l5.16-9,2.27,1.34a2.67,2.67,0,0,0,3.93-3L36.68,46a2.68,2.68,0,0,0-3.26-1.91l-14.59,3.8a2.67,2.67,0,0,0-.68,4.88l2.32,1.36L8.37,75.27a8,8,0,0,0,6.94,12Z" transform="translate(-6.31 -6.27)"/><path class="cls-4" d="M15.31,84.25A4.88,4.88,0,0,1,11,81.76a5,5,0,0,1,0-5l13.58-23.7-4.19-2.46,13.5-3.51,3.5,13.49-4.19-2.46L23.94,74.26H36.3v10Z" transform="translate(-6.31 -6.27)"/><rect class="cls-1" x="4" y="3.79" width="85.02" height="79.8"/></g></g></g></svg>