<svg xmlns="http://www.w3.org/2000/svg" viewBox="0 0 55.5 26.19"><defs><style>.cls-1{fill:#51bb47;}.cls-2{fill:#fff;}</style></defs><g id="Capa_2" data-name="Capa 2"><g id="Layer_1" data-name="Layer 1"><rect class="cls-1" width="55.5" height="26.19"/><path class="cls-2" d="M20.27,19.73H17.06l-5.38-8.16v8.16H8.46V6.43h3.22l5.38,8.24V6.43h3.21Z"/><path class="cls-2" d="M31.82,15.07H24.54a2.42,2.42,0,0,0,.61,1.7,1.94,1.94,0,0,0,1.39.52,1.88,1.88,0,0,0,1.18-.36,1.66,1.66,0,0,0,.62-.92h3.41a4.39,4.39,0,0,1-.91,2,4.79,4.79,0,0,1-1.76,1.37,5.5,5.5,0,0,1-2.39.5A5.58,5.58,0,0,1,24,19.21a4.61,4.61,0,0,1-1.87-1.87,5.82,5.82,0,0,1-.68-2.86,5.94,5.94,0,0,1,.67-2.87,4.71,4.71,0,0,1,1.87-1.86,6.16,6.16,0,0,1,5.49,0,4.56,4.56,0,0,1,1.84,1.8,5.37,5.37,0,0,1,.65,2.66A4.08,4.08,0,0,1,31.82,15.07Zm-3.71-2.91a2.07,2.07,0,0,0-1.42-.52,2.12,2.12,0,0,0-1.47.53,2.21,2.21,0,0,0-.66,1.54h4.1A1.92,1.92,0,0,0,28.11,12.16Z"/><path class="cls-2" d="M48.39,9.24,45.7,19.73H42.11l-1.9-7-1.92,7H34.7L32,9.24h3.22l1.39,7.56,2-7.56H42l2,7.58L45.4,9.24Z"/></g></g></svg>