<?xml version="1.0" encoding="utf-8"?>
<!-- Generator: Adobe Illustrator 24.3.0, SVG Export Plug-In . SVG Version: 6.00 Build 0)  -->
<svg version="1.1" id="Capa_1" xmlns="http://www.w3.org/2000/svg" xmlns:xlink="http://www.w3.org/1999/xlink" x="0px" y="0px"
	 viewBox="0 0 150 100" style="enable-background:new 0 0 150 100;" xml:space="preserve">
<style type="text/css">
	.st0{fill:#FFFFFF;}
</style>
<g id="Capa_2_1_">
	<g id="Layer_1">
		<path class="st0" d="M44.9,75.6c0.3,4.9-3.5,9.2-8.4,9.5c-3.9,0.2-7.5-2.1-8.9-5.7c-0.3-1-1.1-1.7-2.1-1.9c-3.8-1-6.4-4.3-6.5-8.2
			c-0.1-3.9,2.3-7.4,6.1-8.7c0.4-0.2,0.9-0.3,1-0.3c-0.1-2-0.4-3.9-0.1-5.7c0.5-3.1,2.9-5.5,5.9-6.1c3-0.9,6.3,0.2,8.2,2.7
			c0.5,0.7,1.5,1.1,2.4,0.9c3.7-0.5,7.3,1.6,8.7,5.1c0.1,0.1,0.1,0.3,0.1,0.6H44c-0.4-0.1-0.8-0.1-1.1,0c-0.4,0.2-0.7,0.6-0.9,1.1
			c0,0.3,0.5,0.7,0.8,1c0.3,0.3,0.6,0.1,0.9,0.1h17.9c0.8,0,1.7,0.1,1.7-1c0-1.1-1-1.1-1.8-1.1c-1.8,0-3.5-0.1-5.3,0
			c-1.8,0.1-2.8-0.3-3.6-2.1c-1.9-4.1-5.4-5.9-9.9-5.9c-0.6,0-1.1-0.3-1.5-0.7c-2.6-2.8-6.6-3.8-10.2-2.7c-3.7,0.9-6.6,4-7.3,7.8
			c-0.1,1.2-0.2,2.5-0.2,3.7c0,0.5-0.3,0.9-0.6,1.2c-4.4,2.4-6.6,6.1-6,11.2c0.5,4.7,3.3,7.8,7.8,9.3c0.5,0.2,0.9,0.6,1.1,1.2
			c2.7,5.6,9.4,8,15,5.3c3.2-1.5,5.5-4.5,6.2-8c0.2-0.7,0-1.9,0.4-2.2c0.8-0.3,1.7-0.4,2.6-0.2c3.7,0,7.5,0,11.2,0
			c0.3,0,0.7,0.1,0.9,0c0.4-0.3,0.9-0.6,1.2-1c-0.4-0.4-0.8-1.1-1.3-1.1c-2-0.1-4-0.1-6.1-0.1c-4.2,0-8.3,0-12.5,0
			c-0.5,0-1,0.5-1.5,0.8c0.3,0.4,0.6,1.1,1,1.2C43.5,75.7,44.2,75.7,44.9,75.6z"/>
		<path class="st0" d="M25.2,81c-0.1-0.3-0.4-0.6-0.7-0.7c-4.9-1.7-7.7-5-8.2-9.9c-0.6-5.2,1.6-9.2,6.4-11.8
			c0.2-0.2,0.3-0.4,0.3-0.6c0-0.5,0.1-1,0-1.5c0-0.8,0-1.6,0.2-2.4c0.7-4,3.8-7.3,7.7-8.3c4-1.2,7.7-0.2,10.9,2.8
			c0.3,0.3,0.6,0.4,1,0.5l0,0c5-0.1,8.6,2.1,10.5,6.3c0.8,1.6,1.5,1.9,3,1.8c1.3-0.1,2.6-0.1,3.9-0.1h1.4h0.2
			c0.6-0.1,1.3,0.1,1.8,0.5c0.3,0.3,0.5,0.8,0.4,1.3c0,1.7-1.6,1.7-2.2,1.7H43.5c-0.4,0.1-0.8,0-1.1-0.2c-0.8-0.6-1.1-1.1-1.1-1.6
			c0.2-0.7,0.6-1.2,1.2-1.5c0.4-0.2,0.8-0.2,1.2-0.2H44h6.3c-1.4-3-4.6-4.8-7.9-4.4c-1.1,0.2-2.3-0.3-3-1.2
			c-1.8-2.3-4.8-3.3-7.5-2.4c-2.8,0.6-5,2.8-5.4,5.6c-0.2,1.2-0.2,2.4,0,3.6c0.1,0.6,0.1,1.3,0.1,1.9l-0.1,0.5L26.1,61l-0.9,0.3
			c-3.5,1.1-5.7,4.4-5.6,8.1c0.1,3.6,2.5,6.6,6,7.5c1.3,0.2,2.3,1.1,2.7,2.3c1.8,4.2,6.7,6.2,10.9,4.4c2.9-1.2,4.9-4,5.1-7.2
			c-0.5,0.1-1,0-1.5-0.1c-0.5-0.2-0.8-0.6-1-1.1c-0.1-0.1-0.2-0.3-0.2-0.4l-0.5-0.6l0.7-0.4c0.1-0.1,0.3-0.2,0.4-0.3
			c0.4-0.3,0.9-0.6,1.4-0.6c3.2-0.1,6.4-0.1,9.6,0H56c0.6,0,1.1,0,1.6,0c1.5,0,3,0,4.5,0.1c0.5,0.1,1,0.4,1.3,0.9l0.3,0.4l0.6,0.5
			l-0.6,0.5l-0.3,0.3c-0.3,0.3-0.6,0.5-1,0.8c-0.3,0.2-0.7,0.2-1,0.1H49.3c-0.5-0.1-1.1,0-1.6,0.1c-0.1,0.3-0.1,0.5-0.1,0.8
			c0,0.3,0,0.7-0.1,1c-1,5.2-5.4,9-10.6,9.5c-0.4,0-0.8,0.1-1.3,0.1C31.2,87.7,27.1,85.1,25.2,81z M49.3,75c0.2,0,0.4,0,0.6,0h11.3
			h0.4c0.1,0,0.2,0,0.2,0c0.2-0.1,0.4-0.3,0.6-0.5c-0.1-0.1-0.2-0.2-0.3-0.4c-1.5-0.1-3-0.1-4.4-0.1h-4.5c-3.2,0-6.4,0-9.6,0
			c-0.2,0.1-0.4,0.2-0.6,0.3c0.1,0.1,0.2,0.3,0.3,0.4c0.3,0.1,0.7,0.1,1,0c0.2,0,0.5,0,0.7,0h0.6v0.6c0.2,5.3-4,9.8-9.4,9.9
			c-4,0.1-7.6-2.2-9.2-5.9c-0.2-0.8-0.9-1.4-1.7-1.5c-4-1-6.9-4.6-7-8.8c-0.1-4.2,2.5-8,6.5-9.3l0.5-0.2c0-0.4-0.1-0.9-0.1-1.3
			c-0.2-1.3-0.2-2.7,0-4c0.5-3.3,3.1-6,6.4-6.7c3.3-1,6.8,0.2,8.9,2.9c0.4,0.6,1.1,0.9,1.8,0.7c4-0.5,7.9,1.8,9.4,5.6
			c0.1,0.1,0.1,0.3,0.1,0.5l0.2,1.1h-8h-0.4c-0.1,0-0.3,0-0.4,0c-0.2,0.1-0.4,0.3-0.5,0.5c0.1,0.2,0.3,0.3,0.4,0.4h18.6
			c0.9,0,0.9-0.1,0.9-0.4c0-0.1,0-0.2-0.1-0.3c-0.1-0.1-0.6-0.1-0.9-0.1h-0.2h-1.4c-1.2,0-2.5-0.1-3.8,0c-2.2,0.2-3.4-0.5-4.3-2.5
			c-1.7-3.6-4.8-5.5-9.2-5.5h-0.1c-0.7-0.1-1.4-0.4-2-0.9c-2.5-2.6-6.2-3.5-9.6-2.5c-3.5,0.9-6.2,3.7-6.8,7.3
			c-0.1,0.7-0.2,1.4-0.1,2.1c0,0.5,0,1.1,0,1.6c-0.1,0.7-0.4,1.3-1,1.7c-4.3,2.4-6.2,5.9-5.7,10.5c0.5,4.3,2.9,7.2,7.3,8.8
			c0.6,0.3,1.2,0.8,1.5,1.4c2.5,5.3,8.8,7.5,14.1,5c3-1.4,5.2-4.2,5.8-7.5c0-0.3,0.1-0.5,0.1-0.8c0-0.7,0.1-1.5,0.7-1.8
			c0.6-0.3,1.2-0.4,1.8-0.4L49.3,75z"/>
		<path class="st0" d="M48.1,67.6h9.1c0.8,0,1.5-0.1,1.5-1.1s-0.8-1.1-1.5-1.1H39c-0.8,0-1.5,0.1-1.5,1.1c0,1,0.7,1,1.5,1H48.1z"/>
		<path class="st0" d="M57.2,68.3H38.9c-0.6,0-2.1,0-2.1-1.6c-0.1-0.5,0.1-0.9,0.4-1.3c0.5-0.4,1.1-0.6,1.7-0.5c6.1,0,12.2,0,18.3,0
			c0.6-0.1,1.3,0.1,1.8,0.5c0.6,0.7,0.6,1.7,0,2.5C58.5,68.2,57.9,68.4,57.2,68.3L57.2,68.3z M57.2,66.2H38.9
			c-0.5,0-0.7,0.1-0.7,0.1c-0.1,0.1-0.1,0.2-0.1,0.3c0,0.3,0,0.4,0.8,0.4h18.3c0.3,0,0.6,0,0.8-0.1c0.1-0.2,0.1-0.4,0-0.6
			C57.9,66.1,57.4,66.1,57.2,66.2L57.2,66.2z"/>
		<path class="st0" d="M18.1,22.6c1.7,1.4,2.8,3.3,3.1,5.5H15c-0.1-0.7-0.5-1.4-1.1-1.9c-0.6-0.5-1.4-0.7-2.1-0.7
			c-1,0-1.9,0.4-2.5,1.2c-0.7,1-1.1,2.2-1,3.5c-0.1,1.2,0.3,2.5,1,3.5c0.6,0.8,1.5,1.2,2.5,1.2c0.8,0,1.5-0.2,2.1-0.7
			c0.6-0.5,1-1.1,1.1-1.9h6.1c-0.3,2.2-1.4,4.1-3.1,5.5c-1.7,1.4-3.9,2.1-6.1,2c-1.7,0-3.4-0.4-4.9-1.2c-1.4-0.8-2.6-1.9-3.3-3.3
			c-0.8-1.6-1.2-3.3-1.2-5.1c0-1.8,0.4-3.6,1.2-5.1c0.8-1.4,1.9-2.6,3.3-3.3c1.5-0.8,3.2-1.2,4.9-1.2C14.2,20.5,16.3,21.2,18.1,22.6
			z"/>
		<path class="st0" d="M37,21.7c1.5,0.8,2.7,1.9,3.5,3.3c0.9,1.6,1.3,3.3,1.3,5.1c0,1.8-0.4,3.6-1.3,5.1c-0.8,1.4-2,2.6-3.5,3.3
			c-1.5,0.8-3.3,1.2-5,1.2c-1.7,0-3.5-0.4-5-1.2c-1.5-0.8-2.7-1.9-3.5-3.3c-0.9-1.6-1.3-3.3-1.3-5.1c0-1.8,0.4-3.6,1.3-5.1
			c0.8-1.4,2-2.6,3.5-3.3c1.6-0.8,3.3-1.2,5-1.2C33.7,20.5,35.4,20.9,37,21.7z M29.2,26.8c-0.8,1-1.2,2.2-1.1,3.4
			c-0.1,1.3,0.3,2.5,1.1,3.5c0.7,0.8,1.7,1.2,2.8,1.2c1.1,0,2.1-0.4,2.8-1.2c0.8-1,1.2-2.2,1.1-3.4c0.1-1.3-0.3-2.5-1.1-3.5
			C34,26,33,25.6,32,25.6C30.9,25.6,29.9,26,29.2,26.8z"/>
		<path class="st0" d="M47.5,24.4h6.4v3.3H43.3v-3.2l4.4-2.7c1.2-0.8,1.8-1.6,1.8-2.4c0-0.2-0.1-0.5-0.2-0.7
			c-0.2-0.2-0.4-0.2-0.6-0.2c-0.7,0-1.1,0.6-1.2,1.7h-4.2c0.1-1.3,0.7-2.6,1.8-3.4c1.2-0.9,2.8-1.4,4.3-1.3c1.3-0.1,2.6,0.3,3.7,1
			c0.8,0.6,1.2,1.5,1.2,2.5c0,0.9-0.4,1.7-1,2.2c-1,0.8-2.1,1.5-3.3,2L47.5,24.4z"/>
		<path class="st0" d="M139.9,52.9c0.4,0,0.8-0.2,1-0.5c0.2-0.3,0.3-0.7,0.2-1.1l-2.4-10.7c-0.1-0.6-0.7-1-1.2-1h-12.2
			c-0.7,0-1.3,0.6-1.3,1.3c0,0,0,0,0,0v17.9c-0.1,0.7,0.5,1.3,1.2,1.4c0.7,0.1,1.3-0.5,1.4-1.2c0-0.1,0-0.1,0-0.2v-5.9H139.9
			 M138.3,50.3h-11.7v-8.2h9.9L138.3,50.3z"/>
		<path class="st0" d="M125.7,70.6c0.7,0.2,1.1,0.9,0.9,1.5c0,0.2-0.1,0.4-0.1,0.6c0,1.4,1.1,2.5,2.5,2.6c1.4,0,2.5-1.1,2.6-2.5
			c0-1.4-1.1-2.5-2.5-2.6c0,0,0,0,0,0c-0.7,0-1.3-0.6-1.3-1.3s0.6-1.3,1.3-1.3c2.8,0,5.1,2.3,5.1,5.1c0,2.8-2.3,5.1-5.1,5.1
			c-2.8,0-5.1-2.3-5.1-5.1c0-0.4,0-0.8,0.1-1.2C124.3,70.9,125,70.5,125.7,70.6"/>
		<path class="st0" d="M82.5,70.6c0.7,0.2,1.1,0.9,0.9,1.5c0,0.2-0.1,0.4-0.1,0.6c0,1.4,1.1,2.5,2.5,2.6c1.4,0,2.5-1.1,2.6-2.5
			c0-1.4-1.1-2.5-2.5-2.6c0,0,0,0,0,0c-0.7,0-1.3-0.6-1.3-1.3s0.6-1.3,1.3-1.3c2.8,0,5.1,2.3,5.1,5.1c0,2.8-2.3,5.1-5.1,5.1
			s-5.1-2.3-5.1-5.1c0-0.4,0.1-0.8,0.1-1.2C81.1,70.9,81.8,70.5,82.5,70.6"/>
		<path class="st0" d="M94.5,17.2c-10.5,0-18.9,8.5-18.9,18.9s8.5,18.9,18.9,18.9c10.5,0,18.9-8.5,18.9-18.9c0,0,0,0,0,0
			C113.4,25.7,105,17.3,94.5,17.2 M94.5,52.5c-9,0-16.4-7.3-16.4-16.4s7.3-16.4,16.4-16.4s16.4,7.3,16.4,16.4c0,0,0,0,0,0
			C110.9,45.2,103.6,52.5,94.5,52.5"/>
		<path class="st0" d="M94.5,22.3c7.6,0,13.8,5.9,13.8,13.2s-6.2,13.2-13.8,13.2c-2.7,0-5.3-0.8-7.6-2.2c-0.6-0.3-0.7-1.1-0.4-1.6
			c0,0,0,0,0-0.1c0.4-0.6,1.2-0.7,1.8-0.3c1.9,1.2,4,1.8,6.2,1.8c6.3,0,11.3-4.8,11.3-10.7s-5.1-10.7-11.3-10.7
			c-6.2,0-11.3,4.8-11.3,10.7c0,2.1,0.6,4.2,1.9,5.9c0.4,0.5,0.2,1.3-0.3,1.6c0,0,0,0-0.1,0c-0.6,0.4-1.4,0.2-1.8-0.3
			c-1.5-2.1-2.3-4.7-2.3-7.3C80.7,28.3,86.9,22.4,94.5,22.3"/>
		<path class="st0" d="M62.1,42.8c-0.7,0-1.3,0.6-1.3,1.3c0,0.7,0.6,1.3,1.3,1.3h5.5v4.6h-3.8c-0.7-0.1-1.3,0.5-1.4,1.2
			c-0.1,0.7,0.5,1.3,1.2,1.4c0.1,0,0.1,0,0.2,0h3.8v3.8c0,2.1,1.7,3.8,3.8,3.8h1v10.2c0,2,1.5,3.6,3.5,3.8c0.7,5.6,5.8,9.5,11.3,8.8
			c4.6-0.6,8.3-4.2,8.8-8.8h23c0.7,5.6,5.8,9.5,11.4,8.8c4.6-0.6,8.2-4.2,8.8-8.8h5.8c1.4,0,2.5-1.1,2.5-2.5V69c0-1-0.6-1.9-1.4-2.3
			V55c0-2.3-0.3-4.7-0.8-7l-1.9-8.6c-0.6-2.9-3.2-5-6.2-5h-15.7V16c0-2.1-1.7-3.8-3.8-3.8c0,0,0,0,0,0H71.4c-2.1,0-3.8,1.7-3.8,3.8
			v5.6h-5.5c-0.7-0.1-1.3,0.5-1.4,1.2c-0.1,0.7,0.5,1.3,1.2,1.4c0.1,0,0.1,0,0.2,0h5.5v4.6h-3.8c-0.7,0-1.3,0.6-1.3,1.3
			c0,0.7,0.6,1.3,1.3,1.3h3.8v4.6h-2.1c-0.7-0.1-1.3,0.5-1.4,1.2c-0.1,0.7,0.5,1.3,1.2,1.4c0.1,0,0.1,0,0.2,0h2.1v4.6H62.1
			 M142.8,48.6c0.5,2.1,0.7,4.3,0.7,6.4v11.4H137c-3.5-4.4-9.9-5.1-14.2-1.6c-0.5,0.4-0.9,0.8-1.3,1.2v-29h15.7c1.8,0,3.3,1.2,3.7,3
			L142.8,48.6 M145,71.5h-5.8c-0.1-0.9-0.3-1.7-0.7-2.5h6.4V71.5z M129.1,80.4c-4.2,0-7.6-3.4-7.6-7.6c0-4.2,3.4-7.6,7.6-7.6
			c2.5,0,4.8,1.2,6.2,3.3c0.9,1.3,1.4,2.8,1.4,4.4C136.8,77,133.4,80.4,129.1,80.4 M86,80.4c-4.2,0-7.6-3.4-7.6-7.6
			c0-4.2,3.4-7.6,7.6-7.6c4.2,0,7.6,3.4,7.6,7.6S90.2,80.4,86,80.4L86,80.4 M71.4,57.5c-0.7,0-1.3-0.6-1.3-1.3v-5.1l0,0V16
			c0-0.7,0.6-1.3,1.3-1.3l0,0h46.3c0.7,0,1.2,0.6,1.2,1.3v42.8l0,0v12.7H96c-0.7-5.6-5.8-9.5-11.4-8.8c-4.6,0.6-8.2,4.2-8.8,8.8
			c-0.5-0.2-0.9-0.7-0.9-1.2V60.1h40.2c0.7,0.1,1.3-0.5,1.4-1.2c0.1-0.7-0.5-1.3-1.2-1.4c-0.1,0-0.1,0-0.2,0L71.4,57.5"/>
		<circle class="st0" cx="94.7" cy="36" r="14.3"/>
		<circle class="st0" cx="129.1" cy="72.8" r="5.4"/>
		<circle class="st0" cx="86" cy="72.8" r="5.4"/>
	</g>
</g>
</svg>
