<svg xmlns="http://www.w3.org/2000/svg" viewBox="0 0 97.5 84.94"><defs><style>.cls-1{fill:#434343;}</style></defs><g id="Capa_2" data-name="Capa 2"><g id="Layer_1" data-name="Layer 1"><path class="cls-1" d="M37,30.7c-3.93,0-6.47,9.26-6.47,13,0,2.52.65,3.58,1.82,3.58,3.55,0,5.64-6.23,6.75-12.94.27-1.67-.22-3.66-2.1-3.66"/><path class="cls-1" d="M86.72,31.62c-1.79,0-2.47-1.4-4-1.4a2.88,2.88,0,0,0-3.12,2.58c-.06,1.84,2.82,3.73,3.15,4,2.44,2.27,4.84,4.23,4.74,7.5S84.27,52.5,76.7,52.5c-3.68,0-5.73-1-7.11-2.3.57-1.44,2-3.16,3.72-3.16,2.24,0,3.13,1.8,5.13,1.8s2.84-1.44,2.86-2.16c.08-2.45-1.71-3.09-3.9-5.13s-4-3.2-3.92-6.89c.11-3.48,3.63-7.89,11-7.89a13.39,13.39,0,0,1,6,1.32c-.43,1.14-1.52,3.53-3.71,3.53M47.21,83.39A40.84,40.84,0,0,1,14,66.29C10.74,68,8.46,70.06,8,72.45a14.68,14.68,0,0,1-1.28-1.93c2.23-4.2,10.12-7.5,18-9.09,1.31.16,2.6.34,3.84.52a63.78,63.78,0,0,0,7.48.78c3.07,0,5.8-.2,7.52-2.28l1.84.13-.06.17-.82,2.37,1.86-.95a9.43,9.43,0,0,1,4.78-1h0c2,.25,3.71.51,5.16.72,5.13.76,15.13,2.21,23.43,1.71.86-.05,1.68-.12,2.47-.21a40.87,40.87,0,0,1-35.11,20M15,26.4c.78-4,.91-5,.6-6.66h9.22L17.2,55c1.18-.1,3.76-.1,4.7-.1,4.26,0,9.25,1.19,14.61,1.19,4.56,0,6.91-.34,8.5-1a27.61,27.61,0,0,1-1.16,3.33c-1.3,3.22-4.08,3.48-7.74,3.48-3.94,0-12.38-1.85-18.4-1.85a60.43,60.43,0,0,0-10,.73S14.23,30.36,15,26.4M54.06,52.19a4.63,4.63,0,0,1-5-4.24C47.47,50,45,52.48,41.64,52.48a4.58,4.58,0,0,1-4.76-4.29c-1.14,1.61-3.76,4.29-7.25,4.29-3.25,0-6.36-2.18-6.36-8.25,0-7.34,5.12-17.52,13.31-17.52A4.59,4.59,0,0,1,40.75,29l.32-1.61h6.37c0,.13-3.18,14.91-3.49,16.46-.39,2-.3,3.73.83,3.73,1.48,0,3.34-2.7,4.46-4.8,0-.17.06-.33.1-.5.41-2.06,3.33-14.88,3.33-14.88H59.6S56.55,41,56.27,42.55c-.42,2.27-.67,4.75,1,4.75,2.43,0,4.31-3.88,5.27-8.08.41-1.8,2.59-11.84,2.59-11.84h7l-5.4,24.7c-1.54,7-5.44,8.48-10,8.48-1.45,0-4.24-.23-5.44-.23a10.3,10.3,0,0,0-5.16,1.09c.44-1.28.68-2,1.13-3.17.66-1.69,2.12-2.84,4.8-2.84,1.4,0,2.9.27,4.15.27,2.32,0,3-1.07,3.56-3.45.16-.7.5-2.27.66-3a7.88,7.88,0,0,1-6.31,2.95m26-30a18.32,18.32,0,0,1-1.35,2.67c-1.42,2-4,2.05-5.13,2.13a3.64,3.64,0,0,0,1.16-1.92c.21-.72.73-2.88.73-2.88ZM47.21,1.67A40.87,40.87,0,0,1,82.12,21.33c3.81-1.15,4.7-2.83,5.09-4,.31.4.6.82.89,1.25-.62,1.45-2.48,3.14-7.37,4.12a1.31,1.31,0,0,0,.08-.21l.47-1.15H74.79l-.16.64s-.17.72-.36,1.46c-8.15.38-15.89-1.1-26.53-3.8-11.35-2.87-19-3.51-26.13-3.08a35.3,35.3,0,0,0-6.85,1.16A40.8,40.8,0,0,1,47.21,1.67M76.47,11.72a42.38,42.38,0,0,0-64.22,6.71c-3.74,1.3-6.79,3.09-7.72,4.8C1.73,28.38-.52,36.63.1,47c.19,3,.49,5.94.93,8.71v0c.08.53.17,1.06.27,1.58v.06c.19,1,.4,2.06.63,3.05.06.26.13.52.19.77s.1.43.16.64.17.62.25.93l.12.44c.1.34.2.68.31,1l.09.3.36,1.11,0,.12a45.14,45.14,0,0,0,2.71,6.37h0c.2.3,3.27,4.72,12.35,6.61a52.88,52.88,0,0,0,8.41,1A42.38,42.38,0,0,0,84.29,63.13c6.78-1.07,10.53-3.42,12.13-5.36a3.72,3.72,0,0,0,1-2c.75-15.57-2.55-30.38-9-38.48a22.21,22.21,0,0,0-11.94-5.56"/><path class="cls-1" d="M87.79,67.1c.24,0,.46,0,.46-.35s-.27-.32-.46-.32h-.4v.67Zm-.85-1h.9c.59,0,.89.2.89.68a.59.59,0,0,1-.61.63l.63,1h-.52l-.59-1h-.25v1h-.45Zm.82,2.79a1.63,1.63,0,1,0-1.6-1.63,1.57,1.57,0,0,0,1.6,1.63m0-3.7a2.08,2.08,0,1,1-2.08,2.07,2.07,2.07,0,0,1,2.08-2.07"/></g></g></svg>