<svg xmlns="http://www.w3.org/2000/svg" viewBox="0 0 196.39 31.25"><defs><style>.cls-1{fill:#222;}</style></defs><g id="Capa_2" data-name="Capa 2"><g id="Layer_1" data-name="Layer 1"><path class="cls-1" d="M54.07,9A6.53,6.53,0,0,0,51.48,7,8,8,0,0,0,48,6.15,7.41,7.41,0,0,0,44.41,7a7.6,7.6,0,0,0-2.55,2.18,9.46,9.46,0,0,0-1.51,3.05,12.12,12.12,0,0,0-.49,3.41A11.49,11.49,0,0,0,40.38,19a9.55,9.55,0,0,0,1.57,3,8,8,0,0,0,2.61,2.18,7.66,7.66,0,0,0,3.66.84,9.42,9.42,0,0,0,3.45-.68,6.58,6.58,0,0,0,2.77-2l4.61,4.68a12.27,12.27,0,0,1-4.71,3,17.3,17.3,0,0,1-6.18,1.08A18.15,18.15,0,0,1,42,30.2a14.41,14.41,0,0,1-8.55-8,16.29,16.29,0,0,1-1.26-6.58,16,16,0,0,1,1.26-6.46,15,15,0,0,1,3.41-4.92,15.37,15.37,0,0,1,5-3.13,17.08,17.08,0,0,1,12.42.12,12,12,0,0,1,4.83,3.38Z"/><path class="cls-1" d="M28.82,9a14,14,0,0,0-3-5,12.44,12.44,0,0,0-4.52-3,15.72,15.72,0,0,0-5.69-1A16.56,16.56,0,0,0,9.44,1.14a14.57,14.57,0,0,0-4.95,3.2,14.77,14.77,0,0,0-3.29,5A16.93,16.93,0,0,0,0,15.81,16.65,16.65,0,0,0,1.2,22.3a13.93,13.93,0,0,0,3.32,4.83,15.13,15.13,0,0,0,5,3,18,18,0,0,0,6.34,1.08q8.3,0,12.67-5.91l-4.92-3.93a8.68,8.68,0,0,1-3.14,2.79,9.8,9.8,0,0,1-4.67,1,8.71,8.71,0,0,1-3.08-.56,9.28,9.28,0,0,1-2.64-1.5,6.17,6.17,0,0,1-1.88-2.28C5.1,13.62,8.57,8.72,9.93,7.53a8.32,8.32,0,0,1,5.63-2,7.64,7.64,0,0,1,3.11.58A6.05,6.05,0,0,1,22.11,10a9.07,9.07,0,0,1,.4,2.71h-8L11.22,18H29.83a8.06,8.06,0,0,0,.06-1V16a20.77,20.77,0,0,0-1.07-7"/><polygon class="cls-1" points="94.89 12.56 102.93 12.56 102.93 7.64 116.56 7.64 116.56 0.23 94.89 0.23 94.89 12.56"/><polygon class="cls-1" points="95.04 20.25 102.99 12.86 111.5 12.86 111.5 20.25 95.04 20.25"/><path class="cls-1" d="M68.65,22a9.44,9.44,0,0,1-1.57-3.08,11.69,11.69,0,0,1-.53-3.44,11.39,11.39,0,0,1,.53-3.41A9.5,9.5,0,0,1,68.65,9a7.73,7.73,0,0,1,2.64-2.18A8.11,8.11,0,0,1,75.1,6a8.63,8.63,0,0,1,3.07.51l3-5.5a18.28,18.28,0,0,0-12.35.07,15.16,15.16,0,0,0-5.11,3.13,15.09,15.09,0,0,0-3.41,4.89,15.64,15.64,0,0,0-1.26,6.37,15.86,15.86,0,0,0,1.26,6.4,15.13,15.13,0,0,0,3.41,5,15.57,15.57,0,0,0,2.35,1.83l3.24-5.92a6.59,6.59,0,0,1-.66-.74"/><path class="cls-1" d="M89.9,9.13a15,15,0,0,0-3.42-4.89,13.66,13.66,0,0,0-1.08-.91L81.94,9.58a9.5,9.5,0,0,1,1.19,2.51,11.38,11.38,0,0,1,.52,3.41A11.79,11.79,0,0,1,83.13,19,9.49,9.49,0,0,1,81.56,22a8.25,8.25,0,0,1-2.64,2.21,7.9,7.9,0,0,1-3.82.87,9,9,0,0,1-1.68-.16L70.3,30.58a17.29,17.29,0,0,0,4.8.67,16.89,16.89,0,0,0,6.28-1.17,15.57,15.57,0,0,0,5.1-3.23,15,15,0,0,0,3.42-5,15.86,15.86,0,0,0,1.26-6.4A15.64,15.64,0,0,0,89.9,9.13"/><rect class="cls-1" x="95.04" y="20.25" width="8.04" height="10.38"/><rect class="cls-1" x="148.54" y="0.23" width="7.83" height="23.06"/><polygon class="cls-1" points="148.54 23.29 167.83 23.29 167.83 30.63 156.4 30.63 148.54 23.29"/><path class="cls-1" d="M171.52,20.92l0-8.07,7.51,0V23.66l4.9,0a4.58,4.58,0,0,0,4.87-4.58V11.32c0-3.2-3.58-3.66-3.58-3.66H171.38V.46h14.3s10.71,1.15,10.71,10.79v9.36s-.57,9.64-12.54,9.78H171.56l-.05-9.67"/><path class="cls-1" d="M131.67.15C129,.15,119,.14,119,7.46h14.07a3.59,3.59,0,0,1,3.64,3.71v7.9a4.64,4.64,0,0,1-4.94,4.64c-4.47,0-5-4.5-5-4.5V12.86H119l.17,8.05s1.45,9.6,12.52,9.6a12.37,12.37,0,0,0,12.72-9.92V11.1c0-11-10-10.95-12.71-10.95"/></g></g></svg>