<svg xmlns="http://www.w3.org/2000/svg" viewBox="0 0 584.37 151.15"><defs><style>.cls-1{fill:#51bb47;}.cls-2{fill:#fff;}</style></defs><g id="Capa_2" data-name="Capa 2"><g id="Layer_1" data-name="Layer 1"><path class="cls-1" d="M160.88,26.9a19.54,19.54,0,0,0-7.69-6.13,23.92,23.92,0,0,0-10.43-2.47,22.09,22.09,0,0,0-10.62,2.47,23.09,23.09,0,0,0-7.59,6.5,28,28,0,0,0-4.49,9.06,36.07,36.07,0,0,0-1.46,10.16,34.4,34.4,0,0,0,1.55,10.15,28.45,28.45,0,0,0,4.67,9.06,23.76,23.76,0,0,0,7.78,6.5,22.9,22.9,0,0,0,10.89,2.47,27.93,27.93,0,0,0,10.25-2A19.53,19.53,0,0,0,162,66.8L175.7,80.71a36.29,36.29,0,0,1-14,9.06A51.93,51.93,0,0,1,143.3,93a54.06,54.06,0,0,1-18.39-3.11A42.92,42.92,0,0,1,99.47,66.07a48.53,48.53,0,0,1-3.75-19.58,47.62,47.62,0,0,1,3.75-19.22,44,44,0,0,1,10.16-14.64,45.35,45.35,0,0,1,14.92-9.34,50.93,50.93,0,0,1,37,.37,35.44,35.44,0,0,1,14.36,10.07Z"/><path class="cls-1" d="M85.74,26.81A41.54,41.54,0,0,0,76.87,12,36.68,36.68,0,0,0,63.41,3,46.42,46.42,0,0,0,46.49,0a49.3,49.3,0,0,0-18.4,3.39A42.94,42.94,0,0,0,3.57,27.73,50.35,50.35,0,0,0,0,47a49.45,49.45,0,0,0,3.57,19.3,40.74,40.74,0,0,0,9.88,14.37,44.28,44.28,0,0,0,14.92,9.06A53.7,53.7,0,0,0,47.22,93q24.71,0,37.7-17.57L70.28,63.69A26.15,26.15,0,0,1,60.94,72,29.3,29.3,0,0,1,47,75a25.84,25.84,0,0,1-9.16-1.65A27.79,27.79,0,0,1,30,68.91a18.24,18.24,0,0,1-5.59-6.77c-9.24-21.61,1.07-36.2,5.13-39.72a24.68,24.68,0,0,1,16.74-6,22.75,22.75,0,0,1,9.25,1.74A18,18,0,0,1,65.79,29.65,26.86,26.86,0,0,1,67,37.7H43.29L33.38,53.44H88.76a24,24,0,0,0,.18-2.93V47.58a61.09,61.09,0,0,0-3.2-20.77"/><polygon class="cls-2" points="282.34 37.38 306.26 37.38 306.26 22.73 346.82 22.73 346.82 0.69 282.34 0.69 282.34 37.38"/><polygon class="cls-1" points="282.78 60.25 306.44 38.26 331.78 38.26 331.78 60.25 282.78 60.25"/><path class="cls-1" d="M204.25,65.52a28.07,28.07,0,0,1-4.66-9.15A35,35,0,0,1,198,46.12,34.2,34.2,0,0,1,199.59,36a28.43,28.43,0,0,1,4.66-9.06,23.46,23.46,0,0,1,7.87-6.49,24.34,24.34,0,0,1,11.35-2.47,25.89,25.89,0,0,1,9.13,1.51L241.54,3.1a54.42,54.42,0,0,0-36.74.19,44.85,44.85,0,0,0-15.19,9.34,44.08,44.08,0,0,0-10.15,14.55,46.31,46.31,0,0,0-3.76,18.94,47,47,0,0,0,3.76,19,44.11,44.11,0,0,0,17.13,20.19l9.63-17.61a24.29,24.29,0,0,1-2-2.21"/><path class="cls-1" d="M267.49,27.18a44.4,44.4,0,0,0-10.16-14.55,41.68,41.68,0,0,0-3.21-2.73L243.81,28.5A28.45,28.45,0,0,1,247.35,36a34.2,34.2,0,0,1,1.56,10.16,35,35,0,0,1-1.56,10.25,28.07,28.07,0,0,1-4.66,9.15,24.6,24.6,0,0,1-7.87,6.59,23.63,23.63,0,0,1-11.35,2.56,28.41,28.41,0,0,1-5-.46L209.17,91a51.19,51.19,0,0,0,14.3,2,50.44,50.44,0,0,0,18.67-3.47,46.44,46.44,0,0,0,15.19-9.61,45.22,45.22,0,0,0,10.16-14.74,47.11,47.11,0,0,0,3.75-19,46.47,46.47,0,0,0-3.75-18.94"/><rect class="cls-2" x="282.78" y="60.25" width="23.93" height="30.88"/><rect class="cls-2" x="441.97" y="0.69" width="23.29" height="68.61"/><polygon class="cls-2" points="441.97 69.3 499.37 69.3 499.37 91.13 465.37 91.13 441.97 69.3"/><path class="cls-2" d="M510.34,62.25l.13-24,22.34.07V70.41l14.6.07c14.49,0,14.49-13.61,14.49-13.61V33.68c0-9.53-10.66-10.87-10.66-10.87h-41.3V1.38h42.54s31.89,3.41,31.89,32.09V61.32S582.67,90,547,90.41H510.47l-.14-28.75"/><path class="cls-2" d="M391.79.46c-8,0-37.69-.05-37.69,21.74H396s10.82,0,10.82,11V56.75s0,13.81-14.7,13.81c-13.29,0-14.81-13.39-14.81-13.39V38.26H354l.52,24s4.31,28.56,37.23,28.56,37.86-29.5,37.86-29.5V33C429.6.41,399.76.46,391.79.46"/><path class="cls-2" d="M146,142.33V114.24h11.63a7.24,7.24,0,0,1,3.34.78,8.81,8.81,0,0,1,2.63,2,9.56,9.56,0,0,1,1.74,2.83,8.6,8.6,0,0,1,.63,3.2,9.49,9.49,0,0,1-.59,3.35,9.13,9.13,0,0,1-1.66,2.82,8.26,8.26,0,0,1-2.55,2,7.23,7.23,0,0,1-3.31.75h-9.09v10.37Zm2.77-12.82h9a4.76,4.76,0,0,0,2.23-.53,5.4,5.4,0,0,0,1.72-1.43,6.63,6.63,0,0,0,1.11-2,7.65,7.65,0,0,0,.39-2.44,6.81,6.81,0,0,0-.45-2.47,6.6,6.6,0,0,0-1.23-2,5.57,5.57,0,0,0-1.82-1.37,5.07,5.07,0,0,0-2.19-.49h-8.74Z"/><path class="cls-2" d="M173.41,142.72a7.26,7.26,0,0,1-2.71-.49,6.89,6.89,0,0,1-2.18-1.37,6.17,6.17,0,0,1-1.44-2,6.24,6.24,0,0,1-.51-2.52,5.12,5.12,0,0,1,.63-2.49,6.07,6.07,0,0,1,1.78-2,8.62,8.62,0,0,1,2.73-1.28,12.63,12.63,0,0,1,3.48-.46,19.5,19.5,0,0,1,3.2.28,14.58,14.58,0,0,1,2.89.79v-1.86a6,6,0,0,0-1.54-4.33,5.66,5.66,0,0,0-4.27-1.6,9.14,9.14,0,0,0-3.25.63,15.89,15.89,0,0,0-3.36,1.82l-1-1.78a13.94,13.94,0,0,1,7.75-2.69,8.3,8.3,0,0,1,6.09,2.18,8,8,0,0,1,2.22,6v9.3c0,.73.33,1.1,1,1.1v2.38a6.35,6.35,0,0,1-1,.12,2.31,2.31,0,0,1-1.6-.52,1.92,1.92,0,0,1-.62-1.42l-.07-1.62a9.39,9.39,0,0,1-3.58,2.84A11,11,0,0,1,173.41,142.72Zm.63-2.05a9.29,9.29,0,0,0,3.86-.8,6.28,6.28,0,0,0,2.67-2.09,2.72,2.72,0,0,0,.53-.77,2,2,0,0,0,.18-.77v-3.37a17.47,17.47,0,0,0-2.79-.79,16,16,0,0,0-3-.27,8.18,8.18,0,0,0-4.62,1.18,3.6,3.6,0,0,0-1.78,3.13,4.3,4.3,0,0,0,.37,1.78,4.63,4.63,0,0,0,1,1.44,5,5,0,0,0,1.56,1A5.26,5.26,0,0,0,174,140.67Z"/><path class="cls-2" d="M198.72,141.34l-.69.31a9.34,9.34,0,0,1-1.05.4,13.38,13.38,0,0,1-1.34.36,8.07,8.07,0,0,1-1.58.15,6.07,6.07,0,0,1-1.67-.23,3.91,3.91,0,0,1-1.38-.74,3.48,3.48,0,0,1-.95-1.24,4,4,0,0,1-.36-1.74V123.86h-2.84v-2.14h2.84v-7h2.69v7h4.75v2.14h-4.75v14a2.19,2.19,0,0,0,.81,1.68,2.83,2.83,0,0,0,1.69.53,5,5,0,0,0,2-.37,8.17,8.17,0,0,0,1.11-.54Z"/><path class="cls-2" d="M210,142.72a9.85,9.85,0,0,1-4.13-.85,10.13,10.13,0,0,1-3.26-2.33,10.86,10.86,0,0,1-2.16-3.42,11.27,11.27,0,0,1-.77-4.16,10.94,10.94,0,0,1,.77-4.09,10.65,10.65,0,0,1,2.14-3.36,10.29,10.29,0,0,1,3.26-2.3,10.43,10.43,0,0,1,8.25,0,9.87,9.87,0,0,1,3.22,2.32,10.6,10.6,0,0,1,2.1,3.36,10.89,10.89,0,0,1,.75,4v.64a1.42,1.42,0,0,1,0,.43H202.48a8.57,8.57,0,0,0,2.45,5.5,7.49,7.49,0,0,0,2.35,1.6,7.13,7.13,0,0,0,2.83.58,7.51,7.51,0,0,0,2-.28,8.47,8.47,0,0,0,1.82-.75,7,7,0,0,0,1.5-1.17,5,5,0,0,0,1-1.52l2.33.63a6.68,6.68,0,0,1-1.34,2.08,9.22,9.22,0,0,1-2,1.62,9.88,9.88,0,0,1-2.53,1.07A11,11,0,0,1,210,142.72Zm7.6-11.78a8.45,8.45,0,0,0-.77-3,8.37,8.37,0,0,0-1.66-2.35,7.52,7.52,0,0,0-2.34-1.55,7.21,7.21,0,0,0-2.83-.55,7.38,7.38,0,0,0-5.2,2.1,7.67,7.67,0,0,0-1.62,2.37,8.93,8.93,0,0,0-.73,3Z"/><path class="cls-2" d="M240.88,142.33h-2.69V130.82q0-3.69-1.08-5.34a3.72,3.72,0,0,0-3.35-1.66,6.83,6.83,0,0,0-2.37.43,7.9,7.9,0,0,0-2.19,1.23,8.94,8.94,0,0,0-1.8,1.88,7.34,7.34,0,0,0-1.15,2.35v12.62h-2.69V121.72H226v4.67a9.65,9.65,0,0,1,3.62-3.64,10,10,0,0,1,5.12-1.39,6,6,0,0,1,2.89.64,4.92,4.92,0,0,1,1.9,1.78,8.25,8.25,0,0,1,1,2.8,19.9,19.9,0,0,1,.31,3.68Z"/><path class="cls-2" d="M255.56,141.34l-.69.31a11.11,11.11,0,0,1-1.05.4q-.6.19-1.35.36a8.07,8.07,0,0,1-1.58.15,6.05,6.05,0,0,1-1.66-.23,4,4,0,0,1-1.39-.74,3.46,3.46,0,0,1-.94-1.24,4,4,0,0,1-.36-1.74V123.86h-2.85v-2.14h2.85v-7h2.69v7H254v2.14h-4.75v14a2.13,2.13,0,0,0,.81,1.68,2.82,2.82,0,0,0,1.68.53,5.06,5.06,0,0,0,2-.37,8.17,8.17,0,0,0,1.11-.54Z"/><path class="cls-2" d="M266.83,142.72a9.85,9.85,0,0,1-4.13-.85,10.17,10.17,0,0,1-3.27-2.33,10.83,10.83,0,0,1-2.15-3.42,11.07,11.07,0,0,1-.77-4.16,10.74,10.74,0,0,1,.77-4.09,10.46,10.46,0,0,1,2.13-3.36,10.22,10.22,0,0,1,3.27-2.3,10,10,0,0,1,11.47,2.32,10.75,10.75,0,0,1,2.09,3.36,10.89,10.89,0,0,1,.75,4v.64a1.42,1.42,0,0,1,0,.43H259.31a8.63,8.63,0,0,0,.78,3.07,8.37,8.37,0,0,0,1.68,2.43,7.37,7.37,0,0,0,2.35,1.6,7.09,7.09,0,0,0,2.83.58,7.51,7.51,0,0,0,2-.28,8.6,8.6,0,0,0,1.81-.75,6.87,6.87,0,0,0,1.51-1.17,5,5,0,0,0,1-1.52l2.33.63a7.06,7.06,0,0,1-1.34,2.08,9.71,9.71,0,0,1-2,1.62,10,10,0,0,1-2.53,1.07A11.06,11.06,0,0,1,266.83,142.72Zm7.59-11.78a8.24,8.24,0,0,0-2.43-5.38,7.36,7.36,0,0,0-2.33-1.55,7.28,7.28,0,0,0-2.83-.55A7.42,7.42,0,0,0,264,124a7.23,7.23,0,0,0-2.35,1.55,7.5,7.5,0,0,0-1.62,2.37,8.93,8.93,0,0,0-.74,3Z"/><path class="cls-2" d="M288.86,142.72a8.84,8.84,0,0,1-4-.89,10.1,10.1,0,0,1-3.12-2.35,10.9,10.9,0,0,1-2-3.38,11.14,11.14,0,0,1-.73-4,12.07,12.07,0,0,1,.71-4.13,11,11,0,0,1,2-3.42,9.2,9.2,0,0,1,3-2.32,8.45,8.45,0,0,1,3.77-.85,8,8,0,0,1,4.63,1.37,10.36,10.36,0,0,1,3.17,3.3V113.45h2.69v25.4c0,.73.31,1.1.94,1.1v2.38a5,5,0,0,1-.94.12,2.49,2.49,0,0,1-1.67-.62,1.9,1.9,0,0,1-.71-1.48v-2a9,9,0,0,1-3.32,3.21A8.73,8.73,0,0,1,288.86,142.72Zm.59-2.37a6.27,6.27,0,0,0,2.12-.4,8.42,8.42,0,0,0,2.11-1.08,7.71,7.71,0,0,0,1.69-1.63,4.43,4.43,0,0,0,.85-2v-6.37a7.31,7.31,0,0,0-1.15-2,9.21,9.21,0,0,0-1.72-1.64,8.51,8.51,0,0,0-2.08-1.11,6.51,6.51,0,0,0-2.17-.39,6.28,6.28,0,0,0-3,.71,7.38,7.38,0,0,0-2.31,1.88,8.51,8.51,0,0,0-1.49,2.67,9.52,9.52,0,0,0-.51,3.08,8.7,8.7,0,0,0,.59,3.17,8.51,8.51,0,0,0,1.63,2.63,7.77,7.77,0,0,0,2.43,1.8A6.85,6.85,0,0,0,289.45,140.35Z"/><path class="cls-2" d="M330.51,119.5a8.57,8.57,0,0,0-3.17-2.17,11.62,11.62,0,0,0-4.51-.83c-2.47,0-4.28.47-5.41,1.4a4.68,4.68,0,0,0-1.7,3.82,4.27,4.27,0,0,0,.45,2.08,4,4,0,0,0,1.4,1.4,9.83,9.83,0,0,0,2.44,1c1,.29,2.15.58,3.5.87a37.93,37.93,0,0,1,4.05,1.07,11.69,11.69,0,0,1,3.07,1.48,6,6,0,0,1,1.93,2.16,6.63,6.63,0,0,1,.68,3.16,7.12,7.12,0,0,1-.75,3.36,6.72,6.72,0,0,1-2.1,2.37,9.17,9.17,0,0,1-3.2,1.41,17.34,17.34,0,0,1-4.08.45,16.71,16.71,0,0,1-11.27-4.07l1.38-2.25a11.54,11.54,0,0,0,1.8,1.5,13,13,0,0,0,2.34,1.24,13.76,13.76,0,0,0,2.75.83,15.25,15.25,0,0,0,3.08.3,9.7,9.7,0,0,0,5.24-1.2,4.07,4.07,0,0,0,1.88-3.66,4.27,4.27,0,0,0-.53-2.2,4.6,4.6,0,0,0-1.61-1.54,11.16,11.16,0,0,0-2.65-1.13c-1-.31-2.28-.63-3.67-.95s-2.77-.7-3.88-1.07a10.23,10.23,0,0,1-2.81-1.38,5.37,5.37,0,0,1-1.72-2,6.47,6.47,0,0,1-.57-2.87,7.88,7.88,0,0,1,.73-3.46,6.89,6.89,0,0,1,2.08-2.53,9.9,9.9,0,0,1,3.16-1.54,14.14,14.14,0,0,1,4-.53,13.74,13.74,0,0,1,5,.85,13.19,13.19,0,0,1,4,2.39Z"/><path class="cls-2" d="M337.63,148.66l.61.05a5.62,5.62,0,0,0,.57,0,2.71,2.71,0,0,0,1.13-.19,2.16,2.16,0,0,0,.81-.87,13.82,13.82,0,0,0,.89-1.94c.33-.85.8-2,1.41-3.4l-9-20.61h2.77l7.63,18.11,7.08-18.11h2.57L343.44,148.3a4.9,4.9,0,0,1-1.44,2,4.17,4.17,0,0,1-2.75.85l-.75,0c-.24,0-.53,0-.87-.1Z"/><path class="cls-2" d="M363.73,142.72a14.29,14.29,0,0,1-4.71-.79,11.37,11.37,0,0,1-3.95-2.29l1.23-1.82a13.23,13.23,0,0,0,3.54,2.13,10.22,10.22,0,0,0,3.85.72,7,7,0,0,0,4-1,3.27,3.27,0,0,0,1.48-2.87,2.42,2.42,0,0,0-.4-1.44,3.32,3.32,0,0,0-1.16-1,9,9,0,0,0-1.94-.77c-.78-.23-1.68-.46-2.71-.7q-1.79-.44-3.09-.87a9.41,9.41,0,0,1-2.15-1,3.51,3.51,0,0,1-1.27-1.36,4.54,4.54,0,0,1-.41-2,5.87,5.87,0,0,1,.61-2.73,5.51,5.51,0,0,1,1.66-1.95,7.38,7.38,0,0,1,2.46-1.17,11.06,11.06,0,0,1,3-.4,11.45,11.45,0,0,1,4.31.78,8.54,8.54,0,0,1,3.13,2l-1.31,1.58a7.23,7.23,0,0,0-2.79-1.78,10.08,10.08,0,0,0-3.42-.59,8.28,8.28,0,0,0-2,.22,4.62,4.62,0,0,0-1.6.69A3.52,3.52,0,0,0,359,125.5a3.61,3.61,0,0,0-.39,1.72,2.75,2.75,0,0,0,.28,1.34,2.23,2.23,0,0,0,.91.89,6.94,6.94,0,0,0,1.6.67c.64.2,1.43.41,2.35.62,1.32.31,2.48.63,3.48.95a10.73,10.73,0,0,1,2.51,1.1,4.08,4.08,0,0,1,2,3.76,5.4,5.4,0,0,1-2.17,4.51A9.44,9.44,0,0,1,363.73,142.72Z"/><path class="cls-2" d="M385.29,141.34l-.69.31a11.11,11.11,0,0,1-1.05.4q-.6.19-1.35.36a8.07,8.07,0,0,1-1.58.15,6.05,6.05,0,0,1-1.66-.23,4,4,0,0,1-1.39-.74,3.46,3.46,0,0,1-.94-1.24,4,4,0,0,1-.36-1.74V123.86h-2.85v-2.14h2.85v-7H379v7h4.75v2.14H379v14a2.13,2.13,0,0,0,.81,1.68,2.82,2.82,0,0,0,1.68.53,5.06,5.06,0,0,0,2-.37,8.17,8.17,0,0,0,1.11-.54Z"/><path class="cls-2" d="M396.52,142.72a9.85,9.85,0,0,1-4.13-.85,10.17,10.17,0,0,1-3.27-2.33,10.83,10.83,0,0,1-2.15-3.42,11.07,11.07,0,0,1-.77-4.16,10.74,10.74,0,0,1,.77-4.09,10.46,10.46,0,0,1,2.13-3.36,10.22,10.22,0,0,1,3.27-2.3,10.41,10.41,0,0,1,8.24,0,9.81,9.81,0,0,1,3.23,2.32,10.75,10.75,0,0,1,2.09,3.36,10.89,10.89,0,0,1,.75,4v.64a1.42,1.42,0,0,1,0,.43H389a8.63,8.63,0,0,0,.78,3.07,8.37,8.37,0,0,0,1.68,2.43,7.37,7.37,0,0,0,2.35,1.6,7.09,7.09,0,0,0,2.83.58,7.51,7.51,0,0,0,2-.28,8.6,8.6,0,0,0,1.81-.75,6.87,6.87,0,0,0,1.51-1.17,5,5,0,0,0,1-1.52l2.33.63a7.06,7.06,0,0,1-1.34,2.08,9.46,9.46,0,0,1-2,1.62,10,10,0,0,1-2.53,1.07A11.06,11.06,0,0,1,396.52,142.72Zm7.59-11.78a8.24,8.24,0,0,0-2.43-5.38,7.36,7.36,0,0,0-2.33-1.55,7.28,7.28,0,0,0-2.83-.55,7.42,7.42,0,0,0-2.85.55,7.23,7.23,0,0,0-2.35,1.55,7.5,7.5,0,0,0-1.62,2.37,8.7,8.7,0,0,0-.73,3Z"/><path class="cls-2" d="M440.74,142.33h-2.69V130.82a9.58,9.58,0,0,0-1.15-5.3,3.82,3.82,0,0,0-3.4-1.7,5.72,5.72,0,0,0-2.23.43,6.77,6.77,0,0,0-1.94,1.23,8,8,0,0,0-1.56,1.88,8.68,8.68,0,0,0-1,2.39v12.58h-2.69V130.82q0-3.69-1.11-5.34a3.8,3.8,0,0,0-3.4-1.66,6,6,0,0,0-4.15,1.62,8.89,8.89,0,0,0-2.61,4.27v12.62h-2.69V121.72h2.45v4.67a9.64,9.64,0,0,1,3.32-3.7,8.26,8.26,0,0,1,4.55-1.33,5.83,5.83,0,0,1,4.17,1.47,6.37,6.37,0,0,1,1.92,3.83q2.88-5.3,7.95-5.3a6.21,6.21,0,0,1,2.95.64,5,5,0,0,1,1.94,1.8,8.43,8.43,0,0,1,1.06,2.8,17.94,17.94,0,0,1,.34,3.66Z"/></g></g></svg>