<svg xmlns="http://www.w3.org/2000/svg" viewBox="0 0 128.53 89.54"><defs><style>.cls-1{fill:#444;}</style></defs><g id="Capa_2" data-name="Capa 2"><g id="Capa_1-2" data-name="Capa 1"><path class="cls-1" d="M25.11,36.23c-6-.43-11.19,4.62-12.58,10.92s1.58,11.62,7.56,12c6.62.49,11.55-4.6,12.94-10.9S31.08,36.66,25.11,36.23ZM93.76,78.48a.8.8,0,0,0-.31-.7,1.53,1.53,0,0,0-.73-.13H91.43v2.68H92V79.19h.52l.59,1.14h.61L93,79.19C93.5,79.16,93.76,79,93.76,78.48Zm-1,.32H92v-.75h.64c.26,0,.64,0,.64.34S93,78.8,92.73,78.8Zm-.28-2.29A2.47,2.47,0,1,0,94.92,79,2.48,2.48,0,0,0,92.45,76.51Zm0,4.48a2,2,0,1,1,2-2A2,2,0,0,1,92.45,81Zm23.71-29.47,12.37-29.79-7.31,0c0-.18-.08-.35-.13-.53a23.43,23.43,0,0,0-4-8.49C111,4.51,99.59,0,85.77,0A80.31,80.31,0,0,0,57.29,5.59c-.71.27-1.4.55-2.1.83l-.12,0c-.67.28-1.33.56-2,.85l-.21.09q-1,.42-1.92.87l-.2.09-1.93.94-.11.06A86.91,86.91,0,0,0,27.46,24.26c-13.25.9-24,10.85-26.91,25.11A26.1,26.1,0,0,0,0,54.65,20.22,20.22,0,0,0,4.42,67.73a16.47,16.47,0,0,0,2,2.06C10.53,82.86,24.9,90,43,89.52h0l1.21,0h.08l1.18-.07h.13l1.14-.08.17,0,1.11-.1.22,0,1.07-.12.26,0,1-.13.3,0,1-.15.34,0,1-.16.38-.07.95-.17.42-.08L56,88l.45-.09.9-.2.48-.11.88-.2.52-.13.85-.21.55-.15.83-.22.58-.16.8-.23.62-.18.77-.24.66-.21.73-.23.71-.24L67,85l.83-.3.57-.2,1.4-.52,1.45-.57.39-.16,1.12-.47.34-.14c1-.42,2-.85,2.9-1.3l.19-.09q.69-.32,1.38-.66l.05,0a90,90,0,0,0,15.19-9.41h0l.09.24,0,.09a2,2,0,0,0,.1.21.61.61,0,0,0,.05.12,1.19,1.19,0,0,0,.08.16,1.3,1.3,0,0,0,.08.17.41.41,0,0,0,0,.09l.12.22h0a7,7,0,0,0,.81,1.15,9.4,9.4,0,0,0,7.29,3.18c5.64,0,10.71-4,11.56-9.2A8,8,0,0,0,111.37,61a8.73,8.73,0,0,0-2.77-2.15A13.05,13.05,0,0,0,116.16,51.52ZM18.42,70.05A15.65,15.65,0,0,1,5.65,64.62c-3.37-4.06-4.58-10-3.31-16.16C5.1,35,15.37,25.73,27.91,25.38A15.62,15.62,0,0,1,40.7,30.79c3.37,4.05,4.56,10,3.28,16.18C41.08,61.06,31.52,69.68,18.42,70.05Zm38-17.19s-2.81,14.9-3,16h-10c.32-1.64,7.11-37.29,7.11-37.29a6,6,0,0,1,6.33-5.16l18.51,0C75.14,27.75,73.77,35,73.59,36H62.4a2.82,2.82,0,0,0-3.21,2.57s-1,5.17-1,5.17l13.77,0c-.28,1.37-1.59,8.19-1.78,9.14Zm27.71,0s-2.81,15-3,16H71.25l7.19-38.1c.55-2.7,2.9-4.39,6.16-4.4l17.45,0c-.26,1.38-1.61,8.69-1.8,9.66H90.12c-1.94,0-2.8.68-3.22,2.53,0,0-1,5.16-1,5.16l12.58,0c-.26,1.37-1.58,8.19-1.76,9.14Zm25.24,12.92c-.64,3.86-4.66,7-9,7a6.87,6.87,0,0,1-5.3-2.24A5.5,5.5,0,0,1,93.92,66c.64-3.85,4.67-7,9-7a6.83,6.83,0,0,1,5.29,2.24A5.49,5.49,0,0,1,109.38,65.73Zm-5.47-10.35h-3.27c.31-1.6,4.88-25.51,4.88-25.51A8.7,8.7,0,0,1,114.37,23l9.07-.06c-.77,1.87-10.87,26.17-10.87,26.17C111.05,52.8,107.5,55.38,103.91,55.38Z"/></g></g></svg>