<?xml version="1.0" encoding="utf-8"?>
<!-- Generator: Adobe Illustrator 24.3.0, SVG Export Plug-In . SVG Version: 6.00 Build 0)  -->
<svg version="1.1" id="Capa_1" xmlns="http://www.w3.org/2000/svg" xmlns:xlink="http://www.w3.org/1999/xlink" x="0px" y="0px"
	 viewBox="0 0 128.5 89.5" style="enable-background:new 0 0 128.5 89.5;" xml:space="preserve">
<style type="text/css">
	.st0{clip-path:url(#SVGID_2_);}
	.st1{clip-path:url(#SVGID_4_);fill:#DEDCDC;}
	.st2{clip-path:url(#SVGID_4_);fill:#DDDBDB;}
	.st3{clip-path:url(#SVGID_4_);fill:#DCDADA;}
	.st4{clip-path:url(#SVGID_4_);fill:#DBD9D9;}
	.st5{clip-path:url(#SVGID_4_);fill:#DAD8D9;}
	.st6{clip-path:url(#SVGID_4_);fill:#D9D7D8;}
	.st7{clip-path:url(#SVGID_4_);fill:#D8D7D7;}
	.st8{clip-path:url(#SVGID_4_);fill:#D7D6D6;}
	.st9{clip-path:url(#SVGID_4_);fill:#D6D5D5;}
	.st10{clip-path:url(#SVGID_4_);fill:#D5D4D4;}
	.st11{clip-path:url(#SVGID_4_);fill:#D4D3D3;}
	.st12{clip-path:url(#SVGID_4_);fill:#D3D2D3;}
	.st13{clip-path:url(#SVGID_4_);fill:#D2D1D2;}
	.st14{clip-path:url(#SVGID_4_);fill:#D1D0D1;}
	.st15{clip-path:url(#SVGID_4_);fill:#D0CFD0;}
	.st16{clip-path:url(#SVGID_4_);fill:#CFCECF;}
	.st17{clip-path:url(#SVGID_4_);fill:#CECECE;}
	.st18{clip-path:url(#SVGID_4_);fill:#CDCDCD;}
	.st19{clip-path:url(#SVGID_4_);fill:#CCCCCD;}
	.st20{clip-path:url(#SVGID_4_);fill:#CBCBCC;}
	.st21{clip-path:url(#SVGID_4_);fill:#CACACB;}
	.st22{clip-path:url(#SVGID_4_);fill:#C9C9CA;}
	.st23{clip-path:url(#SVGID_4_);fill:#C8C8C9;}
	.st24{clip-path:url(#SVGID_4_);fill:#C7C7C8;}
	.st25{clip-path:url(#SVGID_4_);fill:#C6C6C7;}
	.st26{clip-path:url(#SVGID_4_);fill:#C5C5C7;}
	.st27{clip-path:url(#SVGID_4_);fill:#C4C4C6;}
	.st28{clip-path:url(#SVGID_4_);fill:#C3C4C5;}
	.st29{clip-path:url(#SVGID_4_);fill:#C2C3C4;}
	.st30{clip-path:url(#SVGID_4_);fill:#C1C2C3;}
	.st31{clip-path:url(#SVGID_4_);fill:#C0C1C2;}
	.st32{clip-path:url(#SVGID_4_);fill:#BFC0C1;}
	.st33{clip-path:url(#SVGID_4_);fill:#BEBFC1;}
	.st34{clip-path:url(#SVGID_4_);fill:#BDBEC0;}
	.st35{clip-path:url(#SVGID_4_);fill:#BCBDBF;}
	.st36{clip-path:url(#SVGID_4_);fill:#BBBCBE;}
	.st37{clip-path:url(#SVGID_4_);fill:#BABBBD;}
	.st38{clip-path:url(#SVGID_4_);fill:#B9BBBC;}
	.st39{clip-path:url(#SVGID_4_);fill:#B7BABB;}
	.st40{clip-path:url(#SVGID_4_);fill:#B6B9BB;}
	.st41{clip-path:url(#SVGID_4_);fill:#B5B8BA;}
	.st42{clip-path:url(#SVGID_4_);fill:#B4B7B9;}
	.st43{clip-path:url(#SVGID_4_);fill:#B3B6B8;}
	.st44{clip-path:url(#SVGID_4_);fill:#B2B5B7;}
	.st45{clip-path:url(#SVGID_4_);fill:#B1B4B6;}
	.st46{clip-path:url(#SVGID_4_);fill:#B0B3B5;}
	.st47{clip-path:url(#SVGID_4_);fill:#AFB2B5;}
	.st48{clip-path:url(#SVGID_4_);fill:#AEB1B4;}
	.st49{clip-path:url(#SVGID_4_);fill:#ADB1B3;}
	.st50{clip-path:url(#SVGID_4_);fill:#ACB0B2;}
	.st51{clip-path:url(#SVGID_4_);fill:#ABAFB1;}
	.st52{clip-path:url(#SVGID_4_);fill:#AAAEB0;}
	.st53{clip-path:url(#SVGID_4_);fill:#A9ADAF;}
	.st54{clip-path:url(#SVGID_4_);fill:#A8ACAF;}
	.st55{clip-path:url(#SVGID_4_);fill:#A7ABAE;}
	.st56{clip-path:url(#SVGID_4_);fill:#A6AAAD;}
	.st57{clip-path:url(#SVGID_4_);fill:#A5A9AC;}
	.st58{clip-path:url(#SVGID_4_);fill:#A4A8AB;}
	.st59{clip-path:url(#SVGID_4_);fill:#A3A8AA;}
	.st60{clip-path:url(#SVGID_4_);fill:#A2A7A9;}
	.st61{clip-path:url(#SVGID_4_);fill:#A1A6A9;}
	.st62{clip-path:url(#SVGID_4_);fill:#A0A5A8;}
	.st63{clip-path:url(#SVGID_4_);fill:#9FA4A7;}
	.st64{clip-path:url(#SVGID_4_);fill:#9EA3A6;}
	.st65{clip-path:url(#SVGID_4_);fill:#9DA2A5;}
	.st66{clip-path:url(#SVGID_4_);fill:#9CA1A4;}
	.st67{clip-path:url(#SVGID_4_);fill:#9BA0A4;}
	.st68{clip-path:url(#SVGID_4_);fill:#9A9FA3;}
	.st69{clip-path:url(#SVGID_4_);fill:#999FA2;}
	.st70{clip-path:url(#SVGID_4_);fill:#989EA1;}
	.st71{clip-path:url(#SVGID_4_);fill:#979DA0;}
	.st72{clip-path:url(#SVGID_4_);fill:#969C9F;}
	.st73{clip-path:url(#SVGID_4_);fill:#959B9E;}
	.st74{clip-path:url(#SVGID_4_);fill:#949A9E;}
	.st75{clip-path:url(#SVGID_4_);fill:#93999D;}
	.st76{clip-path:url(#SVGID_4_);fill:#92989C;}
	.st77{clip-path:url(#SVGID_4_);fill:#91979B;}
	.st78{clip-path:url(#SVGID_4_);fill:#90969A;}
	.st79{clip-path:url(#SVGID_4_);fill:#8F9599;}
	.st80{clip-path:url(#SVGID_4_);fill:#8E9598;}
	.st81{clip-path:url(#SVGID_4_);fill:#8D9498;}
	.st82{clip-path:url(#SVGID_4_);fill:#8C9397;}
	.st83{clip-path:url(#SVGID_4_);fill:#8B9296;}
	.st84{clip-path:url(#SVGID_4_);fill:#8A9195;}
	.st85{clip-path:url(#SVGID_4_);fill:#8E9599;}
	.st86{clip-path:url(#SVGID_4_);fill:#93999C;}
	.st87{clip-path:url(#SVGID_4_);fill:#999EA2;}
	.st88{clip-path:url(#SVGID_4_);fill:#9BA0A3;}
	.st89{clip-path:url(#SVGID_4_);fill:#A1A5A8;}
	.st90{clip-path:url(#SVGID_4_);fill:#A3A7AA;}
	.st91{clip-path:url(#SVGID_4_);fill:#A5A9AB;}
	.st92{clip-path:url(#SVGID_4_);fill:#A8ACAE;}
	.st93{clip-path:url(#SVGID_4_);fill:#AAADB0;}
	.st94{clip-path:url(#SVGID_4_);fill:#ACAFB1;}
	.st95{clip-path:url(#SVGID_4_);fill:#AFB2B4;}
	.st96{clip-path:url(#SVGID_4_);fill:#B1B3B6;}
	.st97{clip-path:url(#SVGID_4_);fill:#B4B6B8;}
	.st98{clip-path:url(#SVGID_4_);fill:#B7B9BB;}
	.st99{clip-path:url(#SVGID_4_);fill:#B8BABC;}
	.st100{clip-path:url(#SVGID_4_);fill:#BABCBD;}
	.st101{clip-path:url(#SVGID_4_);fill:#BBBDBE;}
	.st102{clip-path:url(#SVGID_4_);fill:#BCBEC0;}
	.st103{clip-path:url(#SVGID_4_);fill:#BFC0C2;}
	.st104{clip-path:url(#SVGID_4_);fill:#C0C2C3;}
	.st105{clip-path:url(#SVGID_4_);fill:#C4C5C6;}
	.st106{clip-path:url(#SVGID_4_);fill:#C5C6C7;}
	.st107{clip-path:url(#SVGID_4_);fill:#C6C7C8;}
	.st108{clip-path:url(#SVGID_4_);fill:#C7C8C9;}
	.st109{clip-path:url(#SVGID_4_);fill:#CCCCCC;}
	.st110{clip-path:url(#SVGID_4_);fill:#CDCCCD;}
	.st111{clip-path:url(#SVGID_4_);fill:#CECDCE;}
	.st112{clip-path:url(#SVGID_4_);fill:#CECECF;}
	.st113{clip-path:url(#SVGID_4_);fill:#CFCFD0;}
	.st114{clip-path:url(#SVGID_4_);fill:#D0D0D0;}
	.st115{clip-path:url(#SVGID_4_);fill:#D3D2D2;}
	.st116{clip-path:url(#SVGID_4_);fill:#D4D3D4;}
	.st117{clip-path:url(#SVGID_4_);fill:#D5D4D5;}
	.st118{clip-path:url(#SVGID_4_);fill:#D7D5D6;}
	.st119{clip-path:url(#SVGID_4_);fill:#D8D6D7;}
	.st120{clip-path:url(#SVGID_4_);fill:#D9D8D8;}
	.st121{clip-path:url(#SVGID_4_);fill:#DAD8D8;}
	.st122{clip-path:url(#SVGID_4_);fill:#DAD9D9;}
	.st123{clip-path:url(#SVGID_4_);fill:#DBDADA;}
	.st124{clip-path:url(#SVGID_4_);fill:#DCDBDB;}
	.st125{clip-path:url(#SVGID_4_);fill:#949A9D;}
	.st126{clip-path:url(#SVGID_4_);fill:#A2A7AA;}
	.st127{clip-path:url(#SVGID_4_);fill:#A4A9AB;}
	.st128{clip-path:url(#SVGID_4_);fill:#A9ADB0;}
	.st129{clip-path:url(#SVGID_4_);fill:#AAAEB1;}
	.st130{clip-path:url(#SVGID_4_);fill:#AEB2B4;}
	.st131{clip-path:url(#SVGID_4_);fill:#AFB3B5;}
	.st132{clip-path:url(#SVGID_4_);fill:#B0B4B6;}
	.st133{clip-path:url(#SVGID_4_);fill:#B1B4B7;}
	.st134{clip-path:url(#SVGID_4_);fill:#B2B5B8;}
	.st135{clip-path:url(#SVGID_4_);fill:#B7BABC;}
	.st136{clip-path:url(#SVGID_4_);fill:#B8BBBD;}
	.st137{clip-path:url(#SVGID_4_);fill:#B9BCBE;}
	.st138{clip-path:url(#SVGID_4_);fill:#BABDBF;}
	.st139{clip-path:url(#SVGID_4_);fill:#BBBEBF;}
	.st140{clip-path:url(#SVGID_4_);fill:#BCBFC0;}
	.st141{clip-path:url(#SVGID_4_);fill:#BDC0C1;}
	.st142{clip-path:url(#SVGID_4_);fill:#BEC0C2;}
	.st143{clip-path:url(#SVGID_4_);fill:#BFC1C3;}
	.st144{clip-path:url(#SVGID_4_);fill:#C0C2C4;}
	.st145{clip-path:url(#SVGID_4_);fill:#C1C3C5;}
	.st146{clip-path:url(#SVGID_4_);fill:#C2C4C6;}
	.st147{clip-path:url(#SVGID_4_);fill:#C3C5C6;}
	.st148{clip-path:url(#SVGID_4_);fill:#C4C6C7;}
	.st149{clip-path:url(#SVGID_4_);fill:#C5C7C8;}
	.st150{clip-path:url(#SVGID_4_);fill:#C6C8C9;}
	.st151{clip-path:url(#SVGID_4_);fill:#C7C9CA;}
	.st152{clip-path:url(#SVGID_4_);fill:#C9CACB;}
	.st153{clip-path:url(#SVGID_4_);fill:#CACBCC;}
	.st154{clip-path:url(#SVGID_4_);fill:#CBCCCD;}
	.st155{clip-path:url(#SVGID_4_);fill:#CDCDCE;}
	.st156{clip-path:url(#SVGID_4_);fill:#D0D0D1;}
	.st157{clip-path:url(#SVGID_4_);fill:#D1D1D2;}
	.st158{clip-path:url(#SVGID_4_);fill:#D2D2D3;}
	.st159{clip-path:url(#SVGID_4_);fill:#D3D3D4;}
	.st160{clip-path:url(#SVGID_4_);fill:#D4D4D4;}
	.st161{clip-path:url(#SVGID_4_);fill:#D5D5D5;}
	.st162{clip-path:url(#SVGID_4_);fill:#D6D6D6;}
	.st163{clip-path:url(#SVGID_4_);fill:#D7D7D7;}
	.st164{clip-path:url(#SVGID_4_);fill:#D8D8D8;}
	.st165{clip-path:url(#SVGID_4_);fill:#D9D9D9;}
	.st166{clip-path:url(#SVGID_4_);fill:#DAD9DA;}
	.st167{clip-path:url(#SVGID_4_);fill:#DBDADB;}
	.st168{clip-path:url(#SVGID_4_);fill:#DDDCDC;}
	.st169{clip-path:url(#SVGID_4_);fill:#DEDDDD;}
	.st170{clip-path:url(#SVGID_4_);fill:#DFDEDE;}
	.st171{clip-path:url(#SVGID_4_);fill:#E0DFDF;}
	.st172{clip-path:url(#SVGID_4_);fill:#CCCDCD;}
	.st173{clip-path:url(#SVGID_4_);fill:#C8C9CA;}
	.st174{clip-path:url(#SVGID_4_);fill:#BEC1C2;}
	.st175{clip-path:url(#SVGID_4_);fill:#B3B6B9;}
	.st176{clip-path:url(#SVGID_4_);fill:#B2B6B8;}
	.st177{clip-path:url(#SVGID_4_);fill:#B1B5B7;}
	.st178{clip-path:url(#SVGID_4_);fill:#ABAFB2;}
	.st179{clip-path:url(#SVGID_4_);fill:#A5AAAC;}
	.st180{clip-path:url(#SVGID_4_);fill:#A3A8AB;}
	.st181{clip-path:url(#SVGID_4_);fill:#9AA0A3;}
	.st182{fill:#FF5100;}
	.st183{fill:#D7282F;}
	.st184{fill:#FFFFFF;}
</style>
<g>
	<g>
		<defs>
			<path id="SVGID_1_" d="M38,10.3c-9.7,5.4-16.5,12.9-20,21.1c-7.6,12.4-7.2,27.3,2.8,39c15,17.6,45.8,21.6,68.9,8.8
				c9.7-5.4,16.5-12.9,20-21.1c7.6-12.4,7.2-27.3-2.8-39C97.8,8.4,83,2.8,67.6,2.8C57.5,2.8,47.1,5.2,38,10.3"/>
		</defs>
		<clipPath id="SVGID_2_">
			<use xlink:href="#SVGID_1_"  style="overflow:visible;"/>
		</clipPath>
		<g class="st0">
			<g>
				<defs>
					
						<rect id="SVGID_3_" x="6.9" y="-1.4" transform="matrix(0.9967 -8.177501e-02 8.177501e-02 0.9967 -3.6631 5.3794)" width="113.8" height="97.7"/>
				</defs>
				<clipPath id="SVGID_4_">
					<use xlink:href="#SVGID_3_"  style="overflow:visible;"/>
				</clipPath>
				<polygon class="st1" points="8.1,-5.9 16.9,100.7 3.1,100.7 3.1,-5.9 				"/>
				<polygon class="st1" points="18.4,-5.9 27.1,100.7 16.9,100.7 8.1,-5.9 				"/>
				<polygon class="st1" points="18.8,-5.9 27.5,100.7 27.1,100.7 18.4,-5.9 				"/>
				<polygon class="st2" points="19.2,-5.9 28,100.7 27.5,100.7 18.8,-5.9 				"/>
				<polygon class="st3" points="19.6,-5.9 28.4,100.7 28,100.7 19.2,-5.9 				"/>
				<polygon class="st4" points="20.1,-5.9 28.8,100.7 28.4,100.7 19.6,-5.9 				"/>
				<polygon class="st5" points="20.5,-5.9 29.2,100.7 28.8,100.7 20.1,-5.9 				"/>
				<polygon class="st6" points="20.9,-5.9 29.6,100.7 29.2,100.7 20.5,-5.9 				"/>
				<polygon class="st7" points="21.3,-5.9 30.1,100.7 29.6,100.7 20.9,-5.9 				"/>
				<polygon class="st8" points="21.7,-5.9 30.5,100.7 30.1,100.7 21.3,-5.9 				"/>
				<polygon class="st9" points="22.2,-5.9 30.9,100.7 30.5,100.7 21.7,-5.9 				"/>
				<polygon class="st10" points="22.6,-5.9 31.3,100.7 30.9,100.7 22.2,-5.9 				"/>
				<polygon class="st11" points="23,-5.9 31.8,100.7 31.3,100.7 22.6,-5.9 				"/>
				<polygon class="st12" points="23.4,-5.9 32.2,100.7 31.8,100.7 23,-5.9 				"/>
				<polygon class="st13" points="23.8,-5.9 32.6,100.7 32.2,100.7 23.4,-5.9 				"/>
				<polygon class="st14" points="24.3,-5.9 33,100.7 32.6,100.7 23.8,-5.9 				"/>
				<polygon class="st15" points="24.7,-5.9 33.4,100.7 33,100.7 24.3,-5.9 				"/>
				<polygon class="st16" points="25.1,-5.9 33.9,100.7 33.4,100.7 24.7,-5.9 				"/>
				<polygon class="st17" points="25.5,-5.9 34.3,100.7 33.9,100.7 25.1,-5.9 				"/>
				<polygon class="st18" points="26,-5.9 34.7,100.7 34.3,100.7 25.5,-5.9 				"/>
				<polygon class="st19" points="26.4,-5.9 35.1,100.7 34.7,100.7 26,-5.9 				"/>
				<polygon class="st20" points="26.8,-5.9 35.6,100.7 35.1,100.7 26.4,-5.9 				"/>
				<polygon class="st21" points="27.2,-5.9 36,100.7 35.6,100.7 26.8,-5.9 				"/>
				<polygon class="st22" points="27.6,-5.9 36.4,100.7 36,100.7 27.2,-5.9 				"/>
				<polygon class="st23" points="28.1,-5.9 36.8,100.7 36.4,100.7 27.6,-5.9 				"/>
				<polygon class="st24" points="28.5,-5.9 37.2,100.7 36.8,100.7 28.1,-5.9 				"/>
				<polygon class="st25" points="28.9,-5.9 37.7,100.7 37.2,100.7 28.5,-5.9 				"/>
				<polygon class="st26" points="29.3,-5.9 38.1,100.7 37.7,100.7 28.9,-5.9 				"/>
				<polygon class="st27" points="29.8,-5.9 38.5,100.7 38.1,100.7 29.3,-5.9 				"/>
				<polygon class="st28" points="30.2,-5.9 38.9,100.7 38.5,100.7 29.8,-5.9 				"/>
				<polygon class="st29" points="30.6,-5.9 39.4,100.7 38.9,100.7 30.2,-5.9 				"/>
				<polygon class="st30" points="31,-5.9 39.8,100.7 39.4,100.7 30.6,-5.9 				"/>
				<polygon class="st31" points="31.4,-5.9 40.2,100.7 39.8,100.7 31,-5.9 				"/>
				<polygon class="st32" points="31.9,-5.9 40.6,100.7 40.2,100.7 31.4,-5.9 				"/>
				<polygon class="st33" points="32.3,-5.9 41,100.7 40.6,100.7 31.9,-5.9 				"/>
				<polygon class="st34" points="32.7,-5.9 41.5,100.7 41,100.7 32.3,-5.9 				"/>
				<polygon class="st35" points="33.1,-5.9 41.9,100.7 41.5,100.7 32.7,-5.9 				"/>
				<polygon class="st36" points="33.6,-5.9 42.3,100.7 41.9,100.7 33.1,-5.9 				"/>
				<polygon class="st37" points="34,-5.9 42.7,100.7 42.3,100.7 33.6,-5.9 				"/>
				<polygon class="st38" points="34.4,-5.9 43.1,100.7 42.7,100.7 34,-5.9 				"/>
				<polygon class="st39" points="34.8,-5.9 43.6,100.7 43.1,100.7 34.4,-5.9 				"/>
				<polygon class="st40" points="35.2,-5.9 44,100.7 43.6,100.7 34.8,-5.9 				"/>
				<polygon class="st41" points="35.7,-5.9 44.4,100.7 44,100.7 35.2,-5.9 				"/>
				<polygon class="st42" points="36.1,-5.9 44.8,100.7 44.4,100.7 35.7,-5.9 				"/>
				<polygon class="st43" points="36.5,-5.9 45.3,100.7 44.8,100.7 36.1,-5.9 				"/>
				<polygon class="st44" points="36.9,-5.9 45.7,100.7 45.3,100.7 36.5,-5.9 				"/>
				<polygon class="st45" points="37.3,-5.9 46.1,100.7 45.7,100.7 36.9,-5.9 				"/>
				<polygon class="st46" points="37.8,-5.9 46.5,100.7 46.1,100.7 37.3,-5.9 				"/>
				<polygon class="st47" points="38.2,-5.9 46.9,100.7 46.5,100.7 37.8,-5.9 				"/>
				<polygon class="st48" points="38.6,-5.9 47.4,100.7 46.9,100.7 38.2,-5.9 				"/>
				<polygon class="st49" points="39,-5.9 47.8,100.7 47.4,100.7 38.6,-5.9 				"/>
				<polygon class="st50" points="39.5,-5.9 48.2,100.7 47.8,100.7 39,-5.9 				"/>
				<polygon class="st51" points="39.9,-5.9 48.6,100.7 48.2,100.7 39.5,-5.9 				"/>
				<polygon class="st52" points="40.3,-5.9 49.1,100.7 48.6,100.7 39.9,-5.9 				"/>
				<polygon class="st53" points="40.7,-5.9 49.5,100.7 49.1,100.7 40.3,-5.9 				"/>
				<polygon class="st54" points="41.1,-5.9 49.9,100.7 49.5,100.7 40.7,-5.9 				"/>
				<polygon class="st55" points="41.6,-5.9 50.3,100.7 49.9,100.7 41.1,-5.9 				"/>
				<polygon class="st56" points="42,-5.9 50.7,100.7 50.3,100.7 41.6,-5.9 				"/>
				<polygon class="st57" points="42.4,-5.9 51.2,100.7 50.7,100.7 42,-5.9 				"/>
				<polygon class="st58" points="42.8,-5.9 51.6,100.7 51.2,100.7 42.4,-5.9 				"/>
				<polygon class="st59" points="43.3,-5.9 52,100.7 51.6,100.7 42.8,-5.9 				"/>
				<polygon class="st60" points="43.7,-5.9 52.4,100.7 52,100.7 43.3,-5.9 				"/>
				<polygon class="st61" points="44.1,-5.9 52.9,100.7 52.4,100.7 43.7,-5.9 				"/>
				<polygon class="st62" points="44.5,-5.9 53.3,100.7 52.9,100.7 44.1,-5.9 				"/>
				<polygon class="st63" points="44.9,-5.9 53.7,100.7 53.3,100.7 44.5,-5.9 				"/>
				<polygon class="st64" points="45.4,-5.9 54.1,100.7 53.7,100.7 44.9,-5.9 				"/>
				<polygon class="st65" points="45.8,-5.9 54.5,100.7 54.1,100.7 45.4,-5.9 				"/>
				<polygon class="st66" points="46.2,-5.9 55,100.7 54.5,100.7 45.8,-5.9 				"/>
				<polygon class="st67" points="46.6,-5.9 55.4,100.7 55,100.7 46.2,-5.9 				"/>
				<polygon class="st68" points="47,-5.9 55.8,100.7 55.4,100.7 46.6,-5.9 				"/>
				<polygon class="st69" points="47.5,-5.9 56.2,100.7 55.8,100.7 47,-5.9 				"/>
				<polygon class="st70" points="47.9,-5.9 56.6,100.7 56.2,100.7 47.5,-5.9 				"/>
				<polygon class="st71" points="48.3,-5.9 57.1,100.7 56.6,100.7 47.9,-5.9 				"/>
				<polygon class="st72" points="48.7,-5.9 57.5,100.7 57.1,100.7 48.3,-5.9 				"/>
				<polygon class="st73" points="49.2,-5.9 57.9,100.7 57.5,100.7 48.7,-5.9 				"/>
				<polygon class="st74" points="49.6,-5.9 58.3,100.7 57.9,100.7 49.2,-5.9 				"/>
				<polygon class="st75" points="50,-5.9 58.8,100.7 58.3,100.7 49.6,-5.9 				"/>
				<polygon class="st76" points="50.4,-5.9 59.2,100.7 58.8,100.7 50,-5.9 				"/>
				<polygon class="st77" points="50.8,-5.9 59.6,100.7 59.2,100.7 50.4,-5.9 				"/>
				<polygon class="st78" points="51.3,-5.9 60,100.7 59.6,100.7 50.8,-5.9 				"/>
				<polygon class="st79" points="51.7,-5.9 60.4,100.7 60,100.7 51.3,-5.9 				"/>
				<polygon class="st80" points="52.1,-5.9 60.9,100.7 60.4,100.7 51.7,-5.9 				"/>
				<polygon class="st81" points="52.5,-5.9 61.3,100.7 60.9,100.7 52.1,-5.9 				"/>
				<polygon class="st82" points="53,-5.9 61.7,100.7 61.3,100.7 52.5,-5.9 				"/>
				<polygon class="st83" points="53.4,-5.9 62.1,100.7 61.7,100.7 53,-5.9 				"/>
				<polygon class="st84" points="53.8,-5.9 62.6,100.7 62.1,100.7 53.4,-5.9 				"/>
				<polygon class="st84" points="54.1,-5.9 62.8,100.7 62.6,100.7 53.8,-5.9 				"/>
				<polygon class="st82" points="54.4,-5.9 63.1,100.7 62.8,100.7 54.1,-5.9 				"/>
				<polygon class="st85" points="54.7,-5.9 63.4,100.7 63.1,100.7 54.4,-5.9 				"/>
				<polygon class="st77" points="54.9,-5.9 63.7,100.7 63.4,100.7 54.7,-5.9 				"/>
				<polygon class="st86" points="55.2,-5.9 64,100.7 63.7,100.7 54.9,-5.9 				"/>
				<polygon class="st73" points="55.5,-5.9 64.3,100.7 64,100.7 55.2,-5.9 				"/>
				<polygon class="st71" points="55.8,-5.9 64.5,100.7 64.3,100.7 55.5,-5.9 				"/>
				<polygon class="st87" points="56.1,-5.9 64.8,100.7 64.5,100.7 55.8,-5.9 				"/>
				<polygon class="st88" points="56.4,-5.9 65.1,100.7 64.8,100.7 56.1,-5.9 				"/>
				<polygon class="st65" points="56.6,-5.9 65.4,100.7 65.1,100.7 56.4,-5.9 				"/>
				<polygon class="st63" points="56.9,-5.9 65.7,100.7 65.4,100.7 56.6,-5.9 				"/>
				<polygon class="st89" points="57.2,-5.9 66,100.7 65.7,100.7 56.9,-5.9 				"/>
				<polygon class="st90" points="57.5,-5.9 66.3,100.7 66,100.7 57.2,-5.9 				"/>
				<polygon class="st91" points="57.8,-5.9 66.5,100.7 66.3,100.7 57.5,-5.9 				"/>
				<polygon class="st56" points="58.1,-5.9 66.8,100.7 66.5,100.7 57.8,-5.9 				"/>
				<polygon class="st92" points="58.4,-5.9 67.1,100.7 66.8,100.7 58.1,-5.9 				"/>
				<polygon class="st93" points="58.6,-5.9 67.4,100.7 67.1,100.7 58.4,-5.9 				"/>
				<polygon class="st94" points="58.9,-5.9 67.7,100.7 67.4,100.7 58.6,-5.9 				"/>
				<polygon class="st49" points="59.2,-5.9 68,100.7 67.7,100.7 58.9,-5.9 				"/>
				<polygon class="st95" points="59.5,-5.9 68.2,100.7 68,100.7 59.2,-5.9 				"/>
				<polygon class="st96" points="59.8,-5.9 68.5,100.7 68.2,100.7 59.5,-5.9 				"/>
				<polygon class="st44" points="60.1,-5.9 68.8,100.7 68.5,100.7 59.8,-5.9 				"/>
				<polygon class="st97" points="60.3,-5.9 69.1,100.7 68.8,100.7 60.1,-5.9 				"/>
				<polygon class="st41" points="60.6,-5.9 69.4,100.7 69.1,100.7 60.3,-5.9 				"/>
				<polygon class="st98" points="60.9,-5.9 69.7,100.7 69.4,100.7 60.6,-5.9 				"/>
				<polygon class="st99" points="61.2,-5.9 70,100.7 69.7,100.7 60.9,-5.9 				"/>
				<polygon class="st100" points="61.5,-5.9 70.2,100.7 70,100.7 61.2,-5.9 				"/>
				<polygon class="st101" points="61.8,-5.9 70.5,100.7 70.2,100.7 61.5,-5.9 				"/>
				<polygon class="st102" points="62.1,-5.9 70.8,100.7 70.5,100.7 61.8,-5.9 				"/>
				<polygon class="st33" points="62.3,-5.9 71.1,100.7 70.8,100.7 62.1,-5.9 				"/>
				<polygon class="st103" points="62.6,-5.9 71.4,100.7 71.1,100.7 62.3,-5.9 				"/>
				<polygon class="st104" points="62.9,-5.9 71.7,100.7 71.4,100.7 62.6,-5.9 				"/>
				<polygon class="st29" points="63.2,-5.9 72,100.7 71.7,100.7 62.9,-5.9 				"/>
				<polygon class="st28" points="63.5,-5.9 72.2,100.7 72,100.7 63.2,-5.9 				"/>
				<polygon class="st105" points="63.8,-5.9 72.5,100.7 72.2,100.7 63.5,-5.9 				"/>
				<polygon class="st106" points="64.1,-5.9 72.8,100.7 72.5,100.7 63.8,-5.9 				"/>
				<polygon class="st107" points="64.3,-5.9 73.1,100.7 72.8,100.7 64.1,-5.9 				"/>
				<polygon class="st108" points="64.6,-5.9 73.4,100.7 73.1,100.7 64.3,-5.9 				"/>
				<polygon class="st22" points="64.9,-5.9 73.7,100.7 73.4,100.7 64.6,-5.9 				"/>
				<polygon class="st21" points="65.2,-5.9 73.9,100.7 73.7,100.7 64.9,-5.9 				"/>
				<polygon class="st20" points="65.5,-5.9 74.2,100.7 73.9,100.7 65.2,-5.9 				"/>
				<polygon class="st109" points="65.8,-5.9 74.5,100.7 74.2,100.7 65.5,-5.9 				"/>
				<polygon class="st110" points="66,-5.9 74.8,100.7 74.5,100.7 65.8,-5.9 				"/>
				<polygon class="st111" points="66.3,-5.9 75.1,100.7 74.8,100.7 66,-5.9 				"/>
				<polygon class="st112" points="66.6,-5.9 75.4,100.7 75.1,100.7 66.3,-5.9 				"/>
				<polygon class="st113" points="66.9,-5.9 75.7,100.7 75.4,100.7 66.6,-5.9 				"/>
				<polygon class="st114" points="67.2,-5.9 75.9,100.7 75.7,100.7 66.9,-5.9 				"/>
				<polygon class="st14" points="67.5,-5.9 76.2,100.7 75.9,100.7 67.2,-5.9 				"/>
				<polygon class="st13" points="67.8,-5.9 76.5,100.7 76.2,100.7 67.5,-5.9 				"/>
				<polygon class="st115" points="68,-5.9 76.8,100.7 76.5,100.7 67.8,-5.9 				"/>
				<polygon class="st12" points="68.3,-5.9 77.1,100.7 76.8,100.7 68,-5.9 				"/>
				<polygon class="st116" points="68.6,-5.9 77.4,100.7 77.1,100.7 68.3,-5.9 				"/>
				<polygon class="st10" points="68.9,-5.9 77.6,100.7 77.4,100.7 68.6,-5.9 				"/>
				<polygon class="st117" points="69.2,-5.9 77.9,100.7 77.6,100.7 68.9,-5.9 				"/>
				<polygon class="st9" points="69.5,-5.9 78.2,100.7 77.9,100.7 69.2,-5.9 				"/>
				<polygon class="st118" points="69.7,-5.9 78.5,100.7 78.2,100.7 69.5,-5.9 				"/>
				<polygon class="st8" points="70,-5.9 78.8,100.7 78.5,100.7 69.7,-5.9 				"/>
				<polygon class="st119" points="70.3,-5.9 79.1,100.7 78.8,100.7 70,-5.9 				"/>
				<polygon class="st7" points="70.6,-5.9 79.4,100.7 79.1,100.7 70.3,-5.9 				"/>
				<polygon class="st6" points="70.9,-5.9 79.6,100.7 79.4,100.7 70.6,-5.9 				"/>
				<polygon class="st120" points="71.2,-5.9 79.9,100.7 79.6,100.7 70.9,-5.9 				"/>
				<polygon class="st121" points="71.5,-5.9 80.2,100.7 79.9,100.7 71.2,-5.9 				"/>
				<polygon class="st5" points="71.7,-5.9 80.5,100.7 80.2,100.7 71.5,-5.9 				"/>
				<polygon class="st122" points="72,-5.9 80.8,100.7 80.5,100.7 71.7,-5.9 				"/>
				<polygon class="st4" points="72.3,-5.9 81.1,100.7 80.8,100.7 72,-5.9 				"/>
				<polygon class="st123" points="72.6,-5.9 81.3,100.7 81.1,100.7 72.3,-5.9 				"/>
				<polygon class="st3" points="72.9,-5.9 81.6,100.7 81.3,100.7 72.6,-5.9 				"/>
				<polygon class="st3" points="73.2,-5.9 81.9,100.7 81.6,100.7 72.9,-5.9 				"/>
				<polygon class="st3" points="73.4,-5.9 82.2,100.7 81.9,100.7 73.2,-5.9 				"/>
				<polygon class="st124" points="73.7,-5.9 82.5,100.7 82.2,100.7 73.4,-5.9 				"/>
				<polygon class="st2" points="74,-5.9 82.8,100.7 82.5,100.7 73.7,-5.9 				"/>
				<polygon class="st2" points="74.3,-5.9 83.1,100.7 82.8,100.7 74,-5.9 				"/>
				<polygon class="st2" points="74.6,-5.9 83.3,100.7 83.1,100.7 74.3,-5.9 				"/>
				<polygon class="st2" points="74.9,-5.9 83.6,100.7 83.3,100.7 74.6,-5.9 				"/>
				<polygon class="st2" points="75.2,-5.9 83.9,100.7 83.6,100.7 74.9,-5.9 				"/>
				<polygon class="st1" points="75.4,-5.9 84.2,100.7 83.9,100.7 75.2,-5.9 				"/>
				<polygon class="st1" points="75.7,-5.9 84.5,100.7 84.2,100.7 75.4,-5.9 				"/>
				<polygon class="st1" points="76,-5.9 84.8,100.7 84.5,100.7 75.7,-5.9 				"/>
				<polygon class="st1" points="76.3,-5.9 85.1,100.7 84.8,100.7 76,-5.9 				"/>
				<polygon class="st1" points="76.6,-5.9 85.3,100.7 85.1,100.7 76.3,-5.9 				"/>
				<polygon class="st1" points="76.9,-5.9 85.6,100.7 85.3,100.7 76.6,-5.9 				"/>
				<polygon class="st1" points="77.2,-5.9 85.9,100.7 85.6,100.7 76.9,-5.9 				"/>
				<polygon class="st1" points="77.4,-5.9 86.2,100.7 85.9,100.7 77.2,-5.9 				"/>
				<polygon class="st1" points="77.7,-5.9 86.5,100.7 86.2,100.7 77.4,-5.9 				"/>
				<polygon class="st1" points="77.8,-5.9 86.6,100.7 86.5,100.7 77.7,-5.9 				"/>
				<polygon class="st2" points="77.9,-5.9 86.6,100.7 86.6,100.7 77.8,-5.9 				"/>
				<polygon class="st3" points="78,-5.9 86.7,100.7 86.6,100.7 77.9,-5.9 				"/>
				<polygon class="st4" points="78.1,-5.9 86.8,100.7 86.7,100.7 78,-5.9 				"/>
				<polygon class="st5" points="78.2,-5.9 86.9,100.7 86.8,100.7 78.1,-5.9 				"/>
				<polygon class="st6" points="78.2,-5.9 87,100.7 86.9,100.7 78.2,-5.9 				"/>
				<polygon class="st7" points="78.3,-5.9 87.1,100.7 87,100.7 78.2,-5.9 				"/>
				<polygon class="st8" points="78.4,-5.9 87.2,100.7 87.1,100.7 78.3,-5.9 				"/>
				<polygon class="st9" points="78.5,-5.9 87.2,100.7 87.2,100.7 78.4,-5.9 				"/>
				<polygon class="st10" points="78.6,-5.9 87.3,100.7 87.2,100.7 78.5,-5.9 				"/>
				<polygon class="st11" points="78.7,-5.9 87.4,100.7 87.3,100.7 78.6,-5.9 				"/>
				<polygon class="st12" points="78.8,-5.9 87.5,100.7 87.4,100.7 78.7,-5.9 				"/>
				<polygon class="st13" points="78.8,-5.9 87.6,100.7 87.5,100.7 78.8,-5.9 				"/>
				<polygon class="st14" points="78.9,-5.9 87.7,100.7 87.6,100.7 78.8,-5.9 				"/>
				<polygon class="st15" points="79,-5.9 87.8,100.7 87.7,100.7 78.9,-5.9 				"/>
				<polygon class="st16" points="79.1,-5.9 87.8,100.7 87.8,100.7 79,-5.9 				"/>
				<polygon class="st17" points="79.2,-5.9 87.9,100.7 87.8,100.7 79.1,-5.9 				"/>
				<polygon class="st18" points="79.3,-5.9 88,100.7 87.9,100.7 79.2,-5.9 				"/>
				<polygon class="st19" points="79.4,-5.9 88.1,100.7 88,100.7 79.3,-5.9 				"/>
				<polygon class="st20" points="79.4,-5.9 88.2,100.7 88.1,100.7 79.4,-5.9 				"/>
				<polygon class="st21" points="79.5,-5.9 88.3,100.7 88.2,100.7 79.4,-5.9 				"/>
				<polygon class="st22" points="79.6,-5.9 88.4,100.7 88.3,100.7 79.5,-5.9 				"/>
				<polygon class="st23" points="79.7,-5.9 88.4,100.7 88.4,100.7 79.6,-5.9 				"/>
				<polygon class="st24" points="79.8,-5.9 88.5,100.7 88.4,100.7 79.7,-5.9 				"/>
				<polygon class="st25" points="79.9,-5.9 88.6,100.7 88.5,100.7 79.8,-5.9 				"/>
				<polygon class="st26" points="80,-5.9 88.7,100.7 88.6,100.7 79.9,-5.9 				"/>
				<polygon class="st27" points="80,-5.9 88.8,100.7 88.7,100.7 80,-5.9 				"/>
				<polygon class="st28" points="80.1,-5.9 88.9,100.7 88.8,100.7 80,-5.9 				"/>
				<polygon class="st29" points="80.2,-5.9 89,100.7 88.9,100.7 80.1,-5.9 				"/>
				<polygon class="st30" points="80.3,-5.9 89.1,100.7 89,100.7 80.2,-5.9 				"/>
				<polygon class="st31" points="80.4,-5.9 89.1,100.7 89.1,100.7 80.3,-5.9 				"/>
				<polygon class="st32" points="80.5,-5.9 89.2,100.7 89.1,100.7 80.4,-5.9 				"/>
				<polygon class="st33" points="80.6,-5.9 89.3,100.7 89.2,100.7 80.5,-5.9 				"/>
				<polygon class="st34" points="80.6,-5.9 89.4,100.7 89.3,100.7 80.6,-5.9 				"/>
				<polygon class="st35" points="80.7,-5.9 89.5,100.7 89.4,100.7 80.6,-5.9 				"/>
				<polygon class="st36" points="80.8,-5.9 89.6,100.7 89.5,100.7 80.7,-5.9 				"/>
				<polygon class="st37" points="80.9,-5.9 89.7,100.7 89.6,100.7 80.8,-5.9 				"/>
				<polygon class="st38" points="81,-5.9 89.7,100.7 89.7,100.7 80.9,-5.9 				"/>
				<polygon class="st39" points="81.1,-5.9 89.8,100.7 89.7,100.7 81,-5.9 				"/>
				<polygon class="st40" points="81.2,-5.9 89.9,100.7 89.8,100.7 81.1,-5.9 				"/>
				<polygon class="st41" points="81.2,-5.9 90,100.7 89.9,100.7 81.2,-5.9 				"/>
				<polygon class="st42" points="81.3,-5.9 90.1,100.7 90,100.7 81.2,-5.9 				"/>
				<polygon class="st43" points="81.4,-5.9 90.2,100.7 90.1,100.7 81.3,-5.9 				"/>
				<polygon class="st44" points="81.5,-5.9 90.3,100.7 90.2,100.7 81.4,-5.9 				"/>
				<polygon class="st45" points="81.6,-5.9 90.3,100.7 90.3,100.7 81.5,-5.9 				"/>
				<polygon class="st46" points="81.7,-5.9 90.4,100.7 90.3,100.7 81.6,-5.9 				"/>
				<polygon class="st47" points="81.8,-5.9 90.5,100.7 90.4,100.7 81.7,-5.9 				"/>
				<polygon class="st48" points="81.8,-5.9 90.6,100.7 90.5,100.7 81.8,-5.9 				"/>
				<polygon class="st49" points="81.9,-5.9 90.7,100.7 90.6,100.7 81.8,-5.9 				"/>
				<polygon class="st50" points="82,-5.9 90.8,100.7 90.7,100.7 81.9,-5.9 				"/>
				<polygon class="st51" points="82.1,-5.9 90.9,100.7 90.8,100.7 82,-5.9 				"/>
				<polygon class="st52" points="82.2,-5.9 90.9,100.7 90.9,100.7 82.1,-5.9 				"/>
				<polygon class="st53" points="82.3,-5.9 91,100.7 90.9,100.7 82.2,-5.9 				"/>
				<polygon class="st54" points="82.4,-5.9 91.1,100.7 91,100.7 82.3,-5.9 				"/>
				<polygon class="st55" points="82.4,-5.9 91.2,100.7 91.1,100.7 82.4,-5.9 				"/>
				<polygon class="st56" points="82.5,-5.9 91.3,100.7 91.2,100.7 82.4,-5.9 				"/>
				<polygon class="st57" points="82.6,-5.9 91.4,100.7 91.3,100.7 82.5,-5.9 				"/>
				<polygon class="st58" points="82.7,-5.9 91.5,100.7 91.4,100.7 82.6,-5.9 				"/>
				<polygon class="st59" points="82.8,-5.9 91.5,100.7 91.5,100.7 82.7,-5.9 				"/>
				<polygon class="st60" points="82.9,-5.9 91.6,100.7 91.5,100.7 82.8,-5.9 				"/>
				<polygon class="st61" points="83,-5.9 91.7,100.7 91.6,100.7 82.9,-5.9 				"/>
				<polygon class="st62" points="83,-5.9 91.8,100.7 91.7,100.7 83,-5.9 				"/>
				<polygon class="st63" points="83.1,-5.9 91.9,100.7 91.8,100.7 83,-5.9 				"/>
				<polygon class="st64" points="83.2,-5.9 92,100.7 91.9,100.7 83.1,-5.9 				"/>
				<polygon class="st65" points="83.3,-5.9 92.1,100.7 92,100.7 83.2,-5.9 				"/>
				<polygon class="st66" points="83.4,-5.9 92.1,100.7 92.1,100.7 83.3,-5.9 				"/>
				<polygon class="st67" points="83.5,-5.9 92.2,100.7 92.1,100.7 83.4,-5.9 				"/>
				<polygon class="st68" points="83.6,-5.9 92.3,100.7 92.2,100.7 83.5,-5.9 				"/>
				<polygon class="st69" points="83.6,-5.9 92.4,100.7 92.3,100.7 83.6,-5.9 				"/>
				<polygon class="st70" points="83.7,-5.9 92.5,100.7 92.4,100.7 83.6,-5.9 				"/>
				<polygon class="st71" points="83.8,-5.9 92.6,100.7 92.5,100.7 83.7,-5.9 				"/>
				<polygon class="st72" points="83.9,-5.9 92.7,100.7 92.6,100.7 83.8,-5.9 				"/>
				<polygon class="st73" points="84,-5.9 92.7,100.7 92.7,100.7 83.9,-5.9 				"/>
				<polygon class="st74" points="84.1,-5.9 92.8,100.7 92.7,100.7 84,-5.9 				"/>
				<polygon class="st75" points="84.2,-5.9 92.9,100.7 92.8,100.7 84.1,-5.9 				"/>
				<polygon class="st76" points="84.2,-5.9 93,100.7 92.9,100.7 84.2,-5.9 				"/>
				<polygon class="st77" points="84.3,-5.9 93.1,100.7 93,100.7 84.2,-5.9 				"/>
				<polygon class="st78" points="84.4,-5.9 93.2,100.7 93.1,100.7 84.3,-5.9 				"/>
				<polygon class="st79" points="84.5,-5.9 93.3,100.7 93.2,100.7 84.4,-5.9 				"/>
				<polygon class="st80" points="84.6,-5.9 93.3,100.7 93.3,100.7 84.5,-5.9 				"/>
				<polygon class="st81" points="84.7,-5.9 93.4,100.7 93.3,100.7 84.6,-5.9 				"/>
				<polygon class="st82" points="84.8,-5.9 93.5,100.7 93.4,100.7 84.7,-5.9 				"/>
				<polygon class="st83" points="84.9,-5.9 93.6,100.7 93.5,100.7 84.8,-5.9 				"/>
				<polygon class="st84" points="84.9,-5.9 93.7,100.7 93.6,100.7 84.9,-5.9 				"/>
				<polygon class="st84" points="85.2,-5.9 93.9,100.7 93.7,100.7 84.9,-5.9 				"/>
				<polygon class="st83" points="85.4,-5.9 94.1,100.7 93.9,100.7 85.2,-5.9 				"/>
				<polygon class="st82" points="85.6,-5.9 94.3,100.7 94.1,100.7 85.4,-5.9 				"/>
				<polygon class="st81" points="85.8,-5.9 94.5,100.7 94.3,100.7 85.6,-5.9 				"/>
				<polygon class="st80" points="86,-5.9 94.8,100.7 94.5,100.7 85.8,-5.9 				"/>
				<polygon class="st79" points="86.2,-5.9 95,100.7 94.8,100.7 86,-5.9 				"/>
				<polygon class="st78" points="86.4,-5.9 95.2,100.7 95,100.7 86.2,-5.9 				"/>
				<polygon class="st77" points="86.6,-5.9 95.4,100.7 95.2,100.7 86.4,-5.9 				"/>
				<polygon class="st76" points="86.9,-5.9 95.6,100.7 95.4,100.7 86.6,-5.9 				"/>
				<polygon class="st75" points="87.1,-5.9 95.8,100.7 95.6,100.7 86.9,-5.9 				"/>
				<polygon class="st125" points="87.3,-5.9 96,100.7 95.8,100.7 87.1,-5.9 				"/>
				<polygon class="st73" points="87.5,-5.9 96.3,100.7 96,100.7 87.3,-5.9 				"/>
				<polygon class="st72" points="87.7,-5.9 96.5,100.7 96.3,100.7 87.5,-5.9 				"/>
				<polygon class="st71" points="87.9,-5.9 96.7,100.7 96.5,100.7 87.7,-5.9 				"/>
				<polygon class="st70" points="88.1,-5.9 96.9,100.7 96.7,100.7 87.9,-5.9 				"/>
				<polygon class="st87" points="88.4,-5.9 97.1,100.7 96.9,100.7 88.1,-5.9 				"/>
				<polygon class="st68" points="88.6,-5.9 97.3,100.7 97.1,100.7 88.4,-5.9 				"/>
				<polygon class="st67" points="88.8,-5.9 97.5,100.7 97.3,100.7 88.6,-5.9 				"/>
				<polygon class="st66" points="89,-5.9 97.8,100.7 97.5,100.7 88.8,-5.9 				"/>
				<polygon class="st65" points="89.2,-5.9 98,100.7 97.8,100.7 89,-5.9 				"/>
				<polygon class="st64" points="89.4,-5.9 98.2,100.7 98,100.7 89.2,-5.9 				"/>
				<polygon class="st63" points="89.6,-5.9 98.4,100.7 98.2,100.7 89.4,-5.9 				"/>
				<polygon class="st62" points="89.9,-5.9 98.6,100.7 98.4,100.7 89.6,-5.9 				"/>
				<polygon class="st61" points="90.1,-5.9 98.8,100.7 98.6,100.7 89.9,-5.9 				"/>
				<polygon class="st126" points="90.3,-5.9 99,100.7 98.8,100.7 90.1,-5.9 				"/>
				<polygon class="st59" points="90.5,-5.9 99.2,100.7 99,100.7 90.3,-5.9 				"/>
				<polygon class="st127" points="90.7,-5.9 99.5,100.7 99.2,100.7 90.5,-5.9 				"/>
				<polygon class="st57" points="90.9,-5.9 99.7,100.7 99.5,100.7 90.7,-5.9 				"/>
				<polygon class="st56" points="91.1,-5.9 99.9,100.7 99.7,100.7 90.9,-5.9 				"/>
				<polygon class="st55" points="91.4,-5.9 100.1,100.7 99.9,100.7 91.1,-5.9 				"/>
				<polygon class="st54" points="91.6,-5.9 100.3,100.7 100.1,100.7 91.4,-5.9 				"/>
				<polygon class="st128" points="91.8,-5.9 100.5,100.7 100.3,100.7 91.6,-5.9 				"/>
				<polygon class="st129" points="92,-5.9 100.7,100.7 100.5,100.7 91.8,-5.9 				"/>
				<polygon class="st51" points="92.2,-5.9 101,100.7 100.7,100.7 92,-5.9 				"/>
				<polygon class="st50" points="92.4,-5.9 101.2,100.7 101,100.7 92.2,-5.9 				"/>
				<polygon class="st49" points="92.6,-5.9 101.4,100.7 101.2,100.7 92.4,-5.9 				"/>
				<polygon class="st130" points="92.8,-5.9 101.6,100.7 101.4,100.7 92.6,-5.9 				"/>
				<polygon class="st131" points="93.1,-5.9 101.8,100.7 101.6,100.7 92.8,-5.9 				"/>
				<polygon class="st132" points="93.3,-5.9 102,100.7 101.8,100.7 93.1,-5.9 				"/>
				<polygon class="st133" points="93.5,-5.9 102.2,100.7 102,100.7 93.3,-5.9 				"/>
				<polygon class="st134" points="93.7,-5.9 102.5,100.7 102.2,100.7 93.5,-5.9 				"/>
				<polygon class="st43" points="93.9,-5.9 102.7,100.7 102.5,100.7 93.7,-5.9 				"/>
				<polygon class="st42" points="94.1,-5.9 102.9,100.7 102.7,100.7 93.9,-5.9 				"/>
				<polygon class="st41" points="94.3,-5.9 103.1,100.7 102.9,100.7 94.1,-5.9 				"/>
				<polygon class="st40" points="94.6,-5.9 103.3,100.7 103.1,100.7 94.3,-5.9 				"/>
				<polygon class="st135" points="94.8,-5.9 103.5,100.7 103.3,100.7 94.6,-5.9 				"/>
				<polygon class="st136" points="95,-5.9 103.7,100.7 103.5,100.7 94.8,-5.9 				"/>
				<polygon class="st137" points="95.2,-5.9 104,100.7 103.7,100.7 95,-5.9 				"/>
				<polygon class="st138" points="95.4,-5.9 104.2,100.7 104,100.7 95.2,-5.9 				"/>
				<polygon class="st139" points="95.6,-5.9 104.4,100.7 104.2,100.7 95.4,-5.9 				"/>
				<polygon class="st140" points="95.8,-5.9 104.6,100.7 104.4,100.7 95.6,-5.9 				"/>
				<polygon class="st141" points="96.1,-5.9 104.8,100.7 104.6,100.7 95.8,-5.9 				"/>
				<polygon class="st142" points="96.3,-5.9 105,100.7 104.8,100.7 96.1,-5.9 				"/>
				<polygon class="st143" points="96.5,-5.9 105.2,100.7 105,100.7 96.3,-5.9 				"/>
				<polygon class="st144" points="96.7,-5.9 105.5,100.7 105.2,100.7 96.5,-5.9 				"/>
				<polygon class="st145" points="96.9,-5.9 105.7,100.7 105.5,100.7 96.7,-5.9 				"/>
				<polygon class="st146" points="97.1,-5.9 105.9,100.7 105.7,100.7 96.9,-5.9 				"/>
				<polygon class="st147" points="97.3,-5.9 106.1,100.7 105.9,100.7 97.1,-5.9 				"/>
				<polygon class="st148" points="97.6,-5.9 106.3,100.7 106.1,100.7 97.3,-5.9 				"/>
				<polygon class="st149" points="97.8,-5.9 106.5,100.7 106.3,100.7 97.6,-5.9 				"/>
				<polygon class="st150" points="98,-5.9 106.7,100.7 106.5,100.7 97.8,-5.9 				"/>
				<polygon class="st151" points="98.2,-5.9 106.9,100.7 106.7,100.7 98,-5.9 				"/>
				<polygon class="st152" points="98.4,-5.9 107.2,100.7 106.9,100.7 98.2,-5.9 				"/>
				<polygon class="st153" points="98.6,-5.9 107.4,100.7 107.2,100.7 98.4,-5.9 				"/>
				<polygon class="st154" points="98.8,-5.9 107.6,100.7 107.4,100.7 98.6,-5.9 				"/>
				<polygon class="st19" points="99,-5.9 107.8,100.7 107.6,100.7 98.8,-5.9 				"/>
				<polygon class="st155" points="99.3,-5.9 108,100.7 107.8,100.7 99,-5.9 				"/>
				<polygon class="st112" points="99.5,-5.9 108.2,100.7 108,100.7 99.3,-5.9 				"/>
				<polygon class="st113" points="99.7,-5.9 108.4,100.7 108.2,100.7 99.5,-5.9 				"/>
				<polygon class="st156" points="99.9,-5.9 108.7,100.7 108.4,100.7 99.7,-5.9 				"/>
				<polygon class="st157" points="100.1,-5.9 108.9,100.7 108.7,100.7 99.9,-5.9 				"/>
				<polygon class="st158" points="100.3,-5.9 109.1,100.7 108.9,100.7 100.1,-5.9 				"/>
				<polygon class="st159" points="100.5,-5.9 109.3,100.7 109.1,100.7 100.3,-5.9 				"/>
				<polygon class="st160" points="100.8,-5.9 109.5,100.7 109.3,100.7 100.5,-5.9 				"/>
				<polygon class="st161" points="101,-5.9 109.7,100.7 109.5,100.7 100.8,-5.9 				"/>
				<polygon class="st162" points="101.2,-5.9 109.9,100.7 109.7,100.7 101,-5.9 				"/>
				<polygon class="st163" points="101.4,-5.9 110.2,100.7 109.9,100.7 101.2,-5.9 				"/>
				<polygon class="st164" points="101.6,-5.9 110.4,100.7 110.2,100.7 101.4,-5.9 				"/>
				<polygon class="st165" points="101.8,-5.9 110.6,100.7 110.4,100.7 101.6,-5.9 				"/>
				<polygon class="st166" points="102,-5.9 110.8,100.7 110.6,100.7 101.8,-5.9 				"/>
				<polygon class="st167" points="102.3,-5.9 111,100.7 110.8,100.7 102,-5.9 				"/>
				<polygon class="st124" points="102.5,-5.9 111.2,100.7 111,100.7 102.3,-5.9 				"/>
				<polygon class="st168" points="102.7,-5.9 111.4,100.7 111.2,100.7 102.5,-5.9 				"/>
				<polygon class="st169" points="102.9,-5.9 111.7,100.7 111.4,100.7 102.7,-5.9 				"/>
				<polygon class="st170" points="103.1,-5.9 111.9,100.7 111.7,100.7 102.9,-5.9 				"/>
				<polygon class="st171" points="103.3,-5.9 112.1,100.7 111.9,100.7 103.1,-5.9 				"/>
				<polygon class="st171" points="103.4,-5.9 112.2,100.7 112.1,100.7 103.3,-5.9 				"/>
				<polygon class="st170" points="103.5,-5.9 112.3,100.7 112.2,100.7 103.4,-5.9 				"/>
				<polygon class="st169" points="103.6,-5.9 112.4,100.7 112.3,100.7 103.5,-5.9 				"/>
				<polygon class="st168" points="103.7,-5.9 112.4,100.7 112.4,100.7 103.6,-5.9 				"/>
				<polygon class="st124" points="103.8,-5.9 112.5,100.7 112.4,100.7 103.7,-5.9 				"/>
				<polygon class="st167" points="103.9,-5.9 112.6,100.7 112.5,100.7 103.8,-5.9 				"/>
				<polygon class="st166" points="104,-5.9 112.7,100.7 112.6,100.7 103.9,-5.9 				"/>
				<polygon class="st165" points="104.1,-5.9 112.8,100.7 112.7,100.7 104,-5.9 				"/>
				<polygon class="st164" points="104.2,-5.9 112.9,100.7 112.8,100.7 104.1,-5.9 				"/>
				<polygon class="st163" points="104.2,-5.9 113,100.7 112.9,100.7 104.2,-5.9 				"/>
				<polygon class="st162" points="104.3,-5.9 113.1,100.7 113,100.7 104.2,-5.9 				"/>
				<polygon class="st161" points="104.4,-5.9 113.2,100.7 113.1,100.7 104.3,-5.9 				"/>
				<polygon class="st160" points="104.5,-5.9 113.3,100.7 113.2,100.7 104.4,-5.9 				"/>
				<polygon class="st159" points="104.6,-5.9 113.4,100.7 113.3,100.7 104.5,-5.9 				"/>
				<polygon class="st158" points="104.7,-5.9 113.5,100.7 113.4,100.7 104.6,-5.9 				"/>
				<polygon class="st157" points="104.8,-5.9 113.6,100.7 113.5,100.7 104.7,-5.9 				"/>
				<polygon class="st156" points="104.9,-5.9 113.6,100.7 113.6,100.7 104.8,-5.9 				"/>
				<polygon class="st113" points="105,-5.9 113.7,100.7 113.6,100.7 104.9,-5.9 				"/>
				<polygon class="st112" points="105.1,-5.9 113.8,100.7 113.7,100.7 105,-5.9 				"/>
				<polygon class="st155" points="105.2,-5.9 113.9,100.7 113.8,100.7 105.1,-5.9 				"/>
				<polygon class="st172" points="105.3,-5.9 114,100.7 113.9,100.7 105.2,-5.9 				"/>
				<polygon class="st154" points="105.3,-5.9 114.1,100.7 114,100.7 105.3,-5.9 				"/>
				<polygon class="st153" points="105.4,-5.9 114.2,100.7 114.1,100.7 105.3,-5.9 				"/>
				<polygon class="st152" points="105.5,-5.9 114.3,100.7 114.2,100.7 105.4,-5.9 				"/>
				<polygon class="st173" points="105.6,-5.9 114.4,100.7 114.3,100.7 105.5,-5.9 				"/>
				<polygon class="st108" points="105.7,-5.9 114.5,100.7 114.4,100.7 105.6,-5.9 				"/>
				<polygon class="st107" points="105.8,-5.9 114.6,100.7 114.5,100.7 105.7,-5.9 				"/>
				<polygon class="st106" points="105.9,-5.9 114.7,100.7 114.6,100.7 105.8,-5.9 				"/>
				<polygon class="st105" points="106,-5.9 114.7,100.7 114.7,100.7 105.9,-5.9 				"/>
				<polygon class="st146" points="106.1,-5.9 114.8,100.7 114.7,100.7 106,-5.9 				"/>
				<polygon class="st145" points="106.2,-5.9 114.9,100.7 114.8,100.7 106.1,-5.9 				"/>
				<polygon class="st144" points="106.3,-5.9 115,100.7 114.9,100.7 106.2,-5.9 				"/>
				<polygon class="st143" points="106.4,-5.9 115.1,100.7 115,100.7 106.3,-5.9 				"/>
				<polygon class="st174" points="106.5,-5.9 115.2,100.7 115.1,100.7 106.4,-5.9 				"/>
				<polygon class="st141" points="106.5,-5.9 115.3,100.7 115.2,100.7 106.5,-5.9 				"/>
				<polygon class="st140" points="106.6,-5.9 115.4,100.7 115.3,100.7 106.5,-5.9 				"/>
				<polygon class="st139" points="106.7,-5.9 115.5,100.7 115.4,100.7 106.6,-5.9 				"/>
				<polygon class="st138" points="106.8,-5.9 115.6,100.7 115.5,100.7 106.7,-5.9 				"/>
				<polygon class="st137" points="106.9,-5.9 115.7,100.7 115.6,100.7 106.8,-5.9 				"/>
				<polygon class="st136" points="107,-5.9 115.8,100.7 115.7,100.7 106.9,-5.9 				"/>
				<polygon class="st135" points="107.1,-5.9 115.9,100.7 115.8,100.7 107,-5.9 				"/>
				<polygon class="st40" points="107.2,-5.9 115.9,100.7 115.9,100.7 107.1,-5.9 				"/>
				<polygon class="st41" points="107.3,-5.9 116,100.7 115.9,100.7 107.2,-5.9 				"/>
				<polygon class="st42" points="107.4,-5.9 116.1,100.7 116,100.7 107.3,-5.9 				"/>
				<polygon class="st175" points="107.5,-5.9 116.2,100.7 116.1,100.7 107.4,-5.9 				"/>
				<polygon class="st176" points="107.6,-5.9 116.3,100.7 116.2,100.7 107.5,-5.9 				"/>
				<polygon class="st177" points="107.7,-5.9 116.4,100.7 116.3,100.7 107.6,-5.9 				"/>
				<polygon class="st132" points="107.7,-5.9 116.5,100.7 116.4,100.7 107.7,-5.9 				"/>
				<polygon class="st131" points="107.8,-5.9 116.6,100.7 116.5,100.7 107.7,-5.9 				"/>
				<polygon class="st130" points="107.9,-5.9 116.7,100.7 116.6,100.7 107.8,-5.9 				"/>
				<polygon class="st49" points="108,-5.9 116.8,100.7 116.7,100.7 107.9,-5.9 				"/>
				<polygon class="st50" points="108.1,-5.9 116.9,100.7 116.8,100.7 108,-5.9 				"/>
				<polygon class="st178" points="108.2,-5.9 117,100.7 116.9,100.7 108.1,-5.9 				"/>
				<polygon class="st129" points="108.3,-5.9 117,100.7 117,100.7 108.2,-5.9 				"/>
				<polygon class="st128" points="108.4,-5.9 117.1,100.7 117,100.7 108.3,-5.9 				"/>
				<polygon class="st54" points="108.5,-5.9 117.2,100.7 117.1,100.7 108.4,-5.9 				"/>
				<polygon class="st55" points="108.6,-5.9 117.3,100.7 117.2,100.7 108.5,-5.9 				"/>
				<polygon class="st56" points="108.7,-5.9 117.4,100.7 117.3,100.7 108.6,-5.9 				"/>
				<polygon class="st179" points="108.8,-5.9 117.5,100.7 117.4,100.7 108.7,-5.9 				"/>
				<polygon class="st127" points="108.8,-5.9 117.6,100.7 117.5,100.7 108.8,-5.9 				"/>
				<polygon class="st180" points="108.9,-5.9 117.7,100.7 117.6,100.7 108.8,-5.9 				"/>
				<polygon class="st126" points="109,-5.9 117.8,100.7 117.7,100.7 108.9,-5.9 				"/>
				<polygon class="st61" points="109.1,-5.9 117.9,100.7 117.8,100.7 109,-5.9 				"/>
				<polygon class="st62" points="109.2,-5.9 118,100.7 117.9,100.7 109.1,-5.9 				"/>
				<polygon class="st63" points="109.3,-5.9 118.1,100.7 118,100.7 109.2,-5.9 				"/>
				<polygon class="st64" points="109.4,-5.9 118.2,100.7 118.1,100.7 109.3,-5.9 				"/>
				<polygon class="st65" points="109.5,-5.9 118.2,100.7 118.2,100.7 109.4,-5.9 				"/>
				<polygon class="st66" points="109.6,-5.9 118.3,100.7 118.2,100.7 109.5,-5.9 				"/>
				<polygon class="st67" points="109.7,-5.9 118.4,100.7 118.3,100.7 109.6,-5.9 				"/>
				<polygon class="st181" points="109.8,-5.9 118.5,100.7 118.4,100.7 109.7,-5.9 				"/>
				<polygon class="st69" points="109.9,-5.9 118.6,100.7 118.5,100.7 109.8,-5.9 				"/>
				<polygon class="st70" points="110,-5.9 118.7,100.7 118.6,100.7 109.9,-5.9 				"/>
				<polygon class="st71" points="110,-5.9 118.8,100.7 118.7,100.7 110,-5.9 				"/>
				<polygon class="st72" points="110.1,-5.9 118.9,100.7 118.8,100.7 110,-5.9 				"/>
				<polygon class="st73" points="110.2,-5.9 119,100.7 118.9,100.7 110.1,-5.9 				"/>
				<polygon class="st74" points="110.3,-5.9 119.1,100.7 119,100.7 110.2,-5.9 				"/>
				<polygon class="st75" points="110.4,-5.9 119.2,100.7 119.1,100.7 110.3,-5.9 				"/>
				<polygon class="st76" points="110.5,-5.9 119.3,100.7 119.2,100.7 110.4,-5.9 				"/>
				<polygon class="st77" points="110.6,-5.9 119.3,100.7 119.3,100.7 110.5,-5.9 				"/>
				<polygon class="st78" points="110.7,-5.9 119.4,100.7 119.3,100.7 110.6,-5.9 				"/>
				<polygon class="st79" points="110.8,-5.9 119.5,100.7 119.4,100.7 110.7,-5.9 				"/>
				<polygon class="st80" points="110.9,-5.9 119.6,100.7 119.5,100.7 110.8,-5.9 				"/>
				<polygon class="st81" points="111,-5.9 119.7,100.7 119.6,100.7 110.9,-5.9 				"/>
				<polygon class="st82" points="111.1,-5.9 119.8,100.7 119.7,100.7 111,-5.9 				"/>
				<polygon class="st83" points="111.1,-5.9 119.9,100.7 119.8,100.7 111.1,-5.9 				"/>
				<polygon class="st84" points="111.2,-5.9 120,100.7 119.9,100.7 111.1,-5.9 				"/>
				<polygon class="st84" points="120,100.7 111.2,-5.9 124.6,-5.9 124.6,100.7 				"/>
			</g>
		</g>
	</g>
	<g>
		<path class="st182" d="M108.3,23.3C94.9,5.1,64.8-1.2,40.9,9.4c-10,4.4-17.3,11.2-21.4,18.8C11,39.5,10.2,53.9,19.1,66
			c13.4,18.2,43.5,24.5,67.3,13.9c10-4.4,17.3-11.2,21.4-18.8C116.4,49.8,117.2,35.4,108.3,23.3"/>
	</g>
	<g>
		<path class="st182" d="M113,50.9l6.3-27.6l-12,0.1c-3.1,0-5.7,1.2-7.3,3.1l-19.8,0c-2.4,0-4.4,0.8-5.6,2.2l0-2.2l-20.1,0
			c-4.3,0-6.9,2.5-7,6.7l0,7.4c-1.1-3.5-3-6.6-5.6-9.1c-4-3.9-9.3-6-14.9-5.9C14.5,26,5.8,35.3,5.6,48.9c0,1.7,0.1,3.3,0.4,4.9
			c0.9,4.6,3.1,8.9,6.3,12.1c4,4,9.3,6.1,14.8,5.9c10.5-0.3,17.7-5.8,20.4-15.1l-0.1,13.9l14.2,0c0,0,0-11.9,0-14.8
			c2.3,0,8.9,0,11.6,0l0,14.8l14.1,0c0,0,0-11.9,0-14.9c2,0,7.5,0,10.8,0c0,1,0,1.7,0,2.1c-2.7,1.5-4.5,4.2-4.4,7.3
			c0,0.4,0.1,0.9,0.1,1.3c0.3,1.8,1.2,3.4,2.6,4.8c1.9,1.9,4.6,2.9,7.3,2.9c5.2,0,9.2-3.7,9.1-8.5c0-2.2-1-4.4-2.8-6.1
			c-0.9-0.8-1.9-1.5-2.9-2C110.1,56.6,112.3,54.1,113,50.9 M61.8,42.6c0-1.1,0-1.6,0-1.9c0,0,0,0.1,0,0.1c0-0.3,0-0.4,0.1-0.5
			c0.1,0,0.2,0,0.5,0h11l0,2.3C70.7,42.6,64.5,42.6,61.8,42.6 M87.4,42.5c0-0.9,0-1.9,0-1.9c0-0.2,0-0.3,0-0.4c0.1,0,0.2,0,0.5,0
			h10.2c0,0.7,0,1.5,0,2.3C95,42.5,89.8,42.5,87.4,42.5"/>
	</g>
	<g>
		<path class="st183" d="M98.2,70.3c-1.2-1.1-1.8-2.6-1.9-4.2c-0.1-3.6,3.1-6.5,7.1-6.5c2,0,3.9,0.8,5.3,2.1
			c1.2,1.2,1.8,2.6,1.9,4.2c0.1,3.6-3.1,6.5-7.1,6.5C101.5,72.4,99.6,71.7,98.2,70.3 M100.8,56.3c1,0,3,0,3,0c3.3,0,6.2-2.4,6.9-5.8
			c0,0,5.2-22.5,5.6-24.2c-2.4,0-8.4,0.1-8.4,0.1c-4.1,0-7,2.6-7,6.4C100.9,32.7,100.8,54.9,100.8,56.3 M76,33.5
			c0-2.5,1.9-4.1,4.9-4.1c0,0,12.8,0,16.2,0c0,1.3,0,8,0,9h-9.4c-1.8,0-2.5,0.6-2.5,2.3c0,0,0,4.8,0,4.8s10.2,0,11.6,0
			c0,1.3-0.1,7.6-0.1,8.5c-1,0-11.7,0-11.7,0s0,13.8,0,14.9h-9.1C75.9,67.3,76,33.5,76,33.5 M50.3,34.3c0.1-3.1,1.8-4.8,5-4.8
			c0,0,15.7,0,17.1,0c0,1.3,0,8,0,8.9H62c-1.8,0-2.5,0.7-2.5,2.4c0,0,0,4.8,0,4.8s11.3,0,12.7,0c0,1.3-0.1,7.6-0.1,8.5
			c-1,0-12.8,0-12.8,0s0,13.8,0,14.8h-9.2C50.1,67.3,50.3,34.3,50.3,34.3 M14.4,64.9c-3.8-3.8-6-9.2-5.8-15
			c0.2-12.5,8.2-21,19.7-21.4c4.8-0.1,9.4,1.6,12.8,5c3.8,3.7,5.9,9.2,5.8,15c-0.3,13-7.6,21-19.7,21.4
			C22.4,70.1,17.8,68.3,14.4,64.9 M27.5,38.6c-5.6-0.4-9.6,4.3-9.8,10.1c-0.2,5.8,3.5,10.8,9.1,11.1c6.2,0.4,9.9-4.3,10.1-10.1
			C37.1,44,33.1,39,27.5,38.6"/>
	</g>
	<g>
		<path class="st184" d="M96.8,68.5c-1.2-1.1-1.8-2.6-1.9-4.2c-0.1-3.6,3.1-6.5,7.1-6.5c2,0,3.9,0.8,5.3,2.1
			c1.2,1.1,1.8,2.6,1.9,4.2c0.1,3.6-3.1,6.5-7.1,6.5C100,70.5,98.1,69.8,96.8,68.5 M99.3,54.5c1,0,3,0,3,0c3.3,0,6.2-2.4,6.9-5.8
			c0,0,5.2-22.5,5.6-24.2c-2.4,0-8.4,0.1-8.4,0.1c-4.1,0-7,2.6-7,6.4C99.4,30.8,99.3,53,99.3,54.5 M74.4,67h9.1c0-1,0-14.9,0-14.9
			s10.7,0,11.7,0c0-0.9,0.1-7.2,0.1-8.5c-1.4,0-11.6,0-11.6,0s0-4.8,0-4.8c0.1-1.7,0.8-2.3,2.5-2.3h9.4c0-0.9,0-7.7,0-8.9
			c-3.3,0-16.2,0-16.2,0c-3,0-4.9,1.6-4.9,4.1C74.5,31.7,74.4,65.4,74.4,67 M48.6,67h9.2c0-1,0-14.8,0-14.8s11.8,0,12.8,0
			c0-0.9,0-7.2,0.1-8.5c-1.4,0-12.7,0-12.7,0s0-4.8,0-4.8c0.1-1.7,0.8-2.4,2.5-2.4h10.4c0-0.9,0-7.6,0-8.9c-1.5,0-17.1,0-17.1,0
			c-3.1,0-4.9,1.7-5,4.8C48.8,32.4,48.7,65.4,48.6,67 M25.7,68.1c12.1-0.3,19.4-8.3,19.7-21.4c0.1-5.8-2-11.2-5.8-15
			c-3.4-3.4-8-5.1-12.8-5C15.2,27,7.3,35.6,7.1,48.1c-0.1,5.7,2,11.2,5.8,15C16.3,66.4,20.9,68.2,25.7,68.1 M35.5,47.9
			c-0.2,5.8-3.9,10.5-10.1,10.1c-5.6-0.4-9.3-5.3-9.1-11.1c0.2-5.8,4.2-10.5,9.8-10.1C31.6,37.1,35.7,42.1,35.5,47.9"/>
	</g>
	<g>
		<path class="st183" d="M122.7,30.1c-1.5,0-2.8-1-2.8-2.8c0-1.8,1.3-2.8,2.8-2.8c1.5,0,2.8,1,2.8,2.8
			C125.6,29,124.2,30.1,122.7,30.1 M122.7,25.1c-1.1,0-2,0.9-2,2.2c0,1.3,0.9,2.2,2,2.2h0v0c1.1,0,2-0.9,2-2.2
			S123.8,25.1,122.7,25.1 M122.3,28.8h-0.6v-3h1.1c0.8,0,1.2,0.2,1.2,0.9c0,0.6-0.3,0.8-0.7,0.8l0.8,1.3h-0.8l-0.7-1.3h-0.3V28.8z
			 M122.8,27c0.3,0,0.5-0.1,0.5-0.4c0-0.3-0.3-0.3-0.6-0.3h-0.5V27H122.8z"/>
	</g>
</g>
</svg>
