<svg xmlns="http://www.w3.org/2000/svg" viewBox="0 0 150.67 77.58"><defs><style>.cls-1{fill:#434343;fill-rule:evenodd;}</style></defs><g id="Capa_2" data-name="Capa 2"><g id="Layer_1" data-name="Layer 1"><path class="cls-1" d="M122.58,49.53a2.26,2.26,0,0,0,2.11-1.05,1.43,1.43,0,0,0-.11-1.66,1.34,1.34,0,0,0-1.2-.41c-1.59.14-2.51,1.2-2.39,2.11.1.62.68,1,1.59,1M72.12,57c-3.53,2-5.37,5.05-4.3,8.57,1.49,4.83,7.87,8,14.28,7,4.59-.7,8.39-2.66,10.69-5.49a9.19,9.19,0,0,0,1.9-8.62,21.15,21.15,0,0,0-4.29-7.25,20.4,20.4,0,0,1-3.92-6.37,5.25,5.25,0,0,1,1-5.22,9.2,9.2,0,0,1,10.37-2.3,5.37,5.37,0,0,1,3.38,3.55,3.94,3.94,0,0,1-1.49,4.38c-.65.43-.94,1-.77,1.28s.7.35,1.46,0c2.56-1.11,4-3.57,3.26-6-1.17-3.8-6.54-6.26-11.55-5.47C84.73,36.22,81,41,82.8,47a20.4,20.4,0,0,0,3.87,6.63A19.83,19.83,0,0,1,90.42,60c1.91,6.24-4.13,10.21-8.8,10.93-5.35.83-10-1.56-11-5.57a7,7,0,0,1,2.6-7.57c.79-.51,1.68-1,1.48-1.39s-1.46,0-2.61.61m78.41,7.38c-.3-.2-1.12.69-1.54,1.08a5.86,5.86,0,0,1-4.53,1.87,3.29,3.29,0,0,1-2.6-1,3.49,3.49,0,0,1-.49-3.39,3.31,3.31,0,0,1,.33-.73l.82-.22c6.27-1.77,8.36-5.63,7.81-7.7a2.65,2.65,0,0,0-2.86-1.79c-4,0-7.28,3.45-9.2,7.53-2.33,5-5,8.12-8.54,7.34a3,3,0,0,1-2.12-2.51c-.65-3.61,3.37-11.37,6.39-11,1.12.14,1.36.8,1.39,1.09a6.49,6.49,0,0,0-1,.37A1.3,1.3,0,0,0,133.7,57c.55,1.15,2.58,1,3.48-.32a2.42,2.42,0,0,0-.26-3,3.9,3.9,0,0,0-2.69-1.26c-4.47,0-7.65,4.14-9.67,8.4-1.7,3.58-4.38,7.23-6.65,7-1.87-.2-.53-2.75.15-4.35,0,0,3.52-7.92,4.91-10.91h-3.34c-.56,1.2-3.49,7.31-4.07,8.5-1.22,2.5-2.61,4.7-5,5.84-.74.36-1.06.68-.83,1s2.21,0,4-1.59c0,0-.2,3.07,3.33,3.21,1.45,0,3.46,0,7-4.8.19,5.66,8.31,7,13.52.73a5.23,5.23,0,0,0,5.49,4,8.89,8.89,0,0,0,7.17-3.57c.49-.71.56-1.29.31-1.45m-7.65-5.59c.56-1.23,2.79-4.76,4.62-4.78a1,1,0,0,1,1.05.65c.62,2-2.36,4.84-6.39,5.74.28-.71.62-1.37.72-1.61m-33.5-6.2a6.68,6.68,0,0,0-3.51.47,12.71,12.71,0,0,0-1.46.82c.15-.41,1-2.22,1-2.22H102s-2.45,6.17-4.77,11.49l-5.39,12-1.1,2.43h3.41l1.8-4,2.38-5.26.4-1a4.2,4.2,0,0,0,3,1.62c4.83.59,10-4.58,11.09-9.82.75-3.53-.48-5.93-3.38-6.6m.55,5.36c-1,4.29-5,10.28-8.09,9.58a1.4,1.4,0,0,1-1-1c-1-2.4,1.37-8.34,4.27-11a4.35,4.35,0,0,1,3.87-1.37c1.14.27,1.49,1.59,1,3.71M66.6,40.61H63.38S57.25,54.35,57.13,54.7a10.06,10.06,0,0,0-.59-.91,3.38,3.38,0,0,0-3.22-1c-3.93.42-6.73,4.26-9.42,8.05-2.4,3.41-4.63,7.29-7.54,6.74a1.4,1.4,0,0,1-.85-.48c-1.1-1.4,1-6.35,1.05-6.4,9-7.65,14.65-17,12.69-19.74a2.54,2.54,0,0,0-2-1.07c-7.31-.08-12.11,14.85-13.82,20a18,18,0,0,1-.65,1.76A47.71,47.71,0,0,1,27.33,66c-.44.25-1.06.82-.53,1.15.35.2,1.21-.23,1.58-.4a20.74,20.74,0,0,0,3.86-2.38C32.18,67,33,69.27,36,69.5a7.52,7.52,0,0,0,5.38-2.23s1.28-1.17,1.47-1.38c.2,2.87,2.24,3.93,4.25,3.57a8.76,8.76,0,0,0,4.41-2.55s.55-.6.76-.86a3.86,3.86,0,0,0,3.84,3.27c3.81.1,6.37-3.89,7.07-5.78.16-.39.13-.73-.07-.85s-.57,0-.88.57a9.45,9.45,0,0,1-4.23,4c-.49.18-1.46.51-1.8-.25s0-2.65,1.59-6.32ZM39.21,53.8l.51-1.2C41.4,48.78,44.53,42.18,47.25,42a.6.6,0,0,1,.61.23C49.27,44,41.66,54,37.9,57.15c.32-.85,1.19-3.09,1.31-3.35M47.5,67.47a1.26,1.26,0,0,1-1-.58c-1-1.6.88-6.11,3.2-9.17,1-1.32,2.94-3.49,4.76-3.31.45,0,1,.37,1,1.54-.11,3.49-4.88,11.71-7.88,11.52M28.24,60.81C21.86,70.63,11.43,75.2,4.94,71s-6.6-15.59-.23-25.42S21.52,31.19,28,35.4,34.6,51,28.24,60.81m-1.4-24c-4.89-3-13.33,2-18.84,11.09S2,66.73,6.9,69.7s13.31-2,18.83-11.09,6-18.87,1.11-21.83"/><path class="cls-1" d="M77.73,19.49h0v1.58h3a4.37,4.37,0,0,0-3-1.58m-7.68-.42V21l3.29,0a4.49,4.49,0,0,0-3.3-1.95m-.71,0a5.38,5.38,0,0,0-3.66,1.44,12.62,12.62,0,0,0,3.65.46Zm-9.86-4a2.89,2.89,0,0,1,1,.23l1.26-1.19c.16-2.86,3.86-5.33,3.86-5.33s-.5,1.29-1.2,3.3c0,0-4.48,4.41-5.65,5.28l-2.25-1.18A4.34,4.34,0,0,1,59.19,15ZM64.17,13l-.55,1.81a2.38,2.38,0,0,1,1.6-1A48.11,48.11,0,0,1,62,19l-2.82-1.46a4.71,4.71,0,0,1,2.5-.75,2.77,2.77,0,0,1,1.19.23l.47-.6A3.73,3.73,0,0,1,64.17,13m-8.46,2.8a.27.27,0,0,1,.13,0l.31.16,9.86-8,.2-.45a.18.18,0,0,1,.15-.13,1.63,1.63,0,0,1,.58-.13c.1,0,.09,0,.07.15s-.64,2.29-1.27,5.8a12.76,12.76,0,0,0-.26,4.38l-.23.72h-.13a1.58,1.58,0,0,0-.37,0,3.84,3.84,0,0,0-2.37.93s2.09.93,2.84,1.18l1.34-5.49h0c.21,0,1.37-.17,2.67-.22.12,0,.14-.06.15-.22s0-1.11,0-1.11a6.58,6.58,0,0,0-3.51,1.3,69.19,69.19,0,0,1,1.66-7.73,13.4,13.4,0,0,1,2-.21V6h0a4,4,0,0,0-1.81.47s.55-2,.91-2.85a.11.11,0,0,1,.07-.08,3.35,3.35,0,0,1,.9-.14l0-.82a.14.14,0,0,1,.1-.15h.08a.15.15,0,0,1,.11.15v.82a5.18,5.18,0,0,1,1.23.14c.06,0,.09,0,.12.13a26.58,26.58,0,0,1,.8,2.69A5.56,5.56,0,0,0,69.93,6v.65A6.72,6.72,0,0,1,72,7c.08,0,.21,0,.22.2a23.49,23.49,0,0,0,1.45,6.34.58.58,0,0,1,.06.35c0,.11-.18.56-.18.56A6,6,0,0,0,70,13.32l0,1.24c0,.1.08.09.08.09a11.24,11.24,0,0,1,2.22.22.29.29,0,0,1,.24.25A23.31,23.31,0,0,0,73.86,21l2.94,0c.13,0,.23-.06.24-.16V19.49A8.54,8.54,0,0,0,74,20s-.49-1.68-.72-3a9.33,9.33,0,0,1,.86-2.91.26.26,0,0,1,.23-.15,21.14,21.14,0,0,1,2.71-.22l0-1.29h0a5.12,5.12,0,0,0-2.72,1l-.06,0c-.06,0-.13,0-.11-.18A44.87,44.87,0,0,1,75.41,6c0-.12.09-.13.17-.16a7.74,7.74,0,0,1,1.53-.23V5a6.38,6.38,0,0,0-1.51.32,19.06,19.06,0,0,1,1.08-3.07,2.37,2.37,0,0,1,.43-.12l0-1.92A.15.15,0,0,1,77.26,0c.06,0,.15,0,.23.09A5,5,0,0,0,79,.94a14.2,14.2,0,0,0,2.35.18h1.06c.73,0,1.23.12,1.37.7.08.35.22.62.56.7s1.12.1,1.46.5c.09.07.06.14,0,.16h0c-.38-.33-1.22-.31-1.55-.39s-.46-.34-.54-.69-.52-.63-1.07-.63c-.38,0-.84,0-1.34.06A13.59,13.59,0,0,1,79,1.36a4.61,4.61,0,0,1-1.43-.7l0,1.41a6.72,6.72,0,0,1,1.52.15,14.46,14.46,0,0,1,1.28,3.11A10.61,10.61,0,0,0,77.55,5v.66a25,25,0,0,1,3,.25,41.09,41.09,0,0,1,1.06,7.4s0,.06,0,.08h0a8.71,8.71,0,0,0-3.87-.9v1.28a7.83,7.83,0,0,1,1.82.23s0,4.3,1.66,7a.19.19,0,0,0,.16.08L82.44,21a.06.06,0,0,0,0-.07L82.54,17c0-.18-.06,0,0-.07s0,.07,0,.07a8,8,0,0,0-.5,3.54s0,0,0,.05l-.6,0,0-.05a16.43,16.43,0,0,1-1.22-4.27,6.81,6.81,0,0,1,2.43-.58s0,0,0-.06v-.91s0-.05,0-.05h0a4.6,4.6,0,0,0-2.44.91l0,0h0l0,0a18.06,18.06,0,0,1-.13-2.32s0-.07.05-.07A7.27,7.27,0,0,1,82,14h0a.13.13,0,0,0,0,0s-.11-2.77-.35-4.3l-.08-.54a3.18,3.18,0,0,1,1-.26V8.2h-.13a2.32,2.32,0,0,0-1,.26h0s-.06-.05,0-.11a14.74,14.74,0,0,1,.64-2.24A.17.17,0,0,1,82.16,6a1.15,1.15,0,0,1,.54-.12l0-1.22c0-.14.07-.22.16-.22s.15.07.17.22V5.89a2.43,2.43,0,0,1,.67.13c.06,0,.06.05.08.11a14.26,14.26,0,0,1,.92,2.32c0,.07,0,.07-.07,0a4,4,0,0,0-1.59-.29v.69a9.41,9.41,0,0,1,1.72.17c.11,0,.17,0,.18.2a8,8,0,0,0,1,3.13.11.11,0,0,1,0,.11l-2.51,2.19s-.07.05-.14.05h-.2s-.05,0-.05,0,0,.61,0,.8l0,0h0L87,12.29l0,0s0,.09,0,.09a15.84,15.84,0,0,0,2.51,7.34s0,.08,0,.09c-.53.08-3.28.47-5.78.67a.15.15,0,0,1-.15-.16,9.56,9.56,0,0,0-.44-3.85h0s0,0,0,.05c0,.69,0,4.3,0,4.37s0,.07,0,.07,2-.11,4.31-.41h0a.07.07,0,0,1,.07.08l0,.62A5.64,5.64,0,0,0,84.1,23a.22.22,0,0,1-.12.07c-.59.05-4.65.34-8.76.34-4.33,0-9.34-.34-9.34-.34a7.78,7.78,0,0,0-2.6-2.68c-.65-.38-7.43-4.16-7.65-4.27s-.13-.36.08-.35M74.88,6.21a3,3,0,0,0-1.43.37,6.51,6.51,0,0,0-.63,1.75,25.94,25.94,0,0,0,.8,3.71l.16.44a56.45,56.45,0,0,1,1.13-6.27ZM68.05,3.94a.79.79,0,0,0-.42.11c-.23.29-1.12,2.45-1.12,2.45a2.29,2.29,0,0,1,.81-.2c.22-.85.73-2.36.73-2.36m6.83,2.27h0Zm1-3.52a.76.76,0,0,0-.42.11,18.15,18.15,0,0,0-1.27,2.69,3.5,3.5,0,0,1,.93-.16s.46-1.53.9-2.64Zm0,0h0Z"/></g></g></svg>