<svg xmlns="http://www.w3.org/2000/svg" xmlns:xlink="http://www.w3.org/1999/xlink" viewBox="0 0 159.85 53.65"><defs><style>.cls-1{fill:none;}.cls-2{clip-path:url(#clip-path);}.cls-3{fill:#434343;}.cls-4{fill:#fff;fill-rule:evenodd;}</style><clipPath id="clip-path" transform="translate(0)"><path class="cls-1" d="M0,26.79A28,28,0,0,0,8,46.54a23.63,23.63,0,0,0,16.79,7.11H135.09c13.67,0,24.76-12,24.76-26.86S148.82,0,135.2,0H24.66C11.05,0,0,12,0,26.79"/></clipPath></defs><g id="Capa_2" data-name="Capa 2"><g id="Layer_1" data-name="Layer 1"><g class="cls-2"><rect class="cls-3" width="159.85" height="53.65"/></g><path class="cls-4" d="M149.07,32.47a4.62,4.62,0,1,0-4.6-4.61,4.6,4.6,0,0,0,4.6,4.61m0-1.1a3.53,3.53,0,1,1,3.51-3.51,3.4,3.4,0,0,1-3.51,3.51M48,19.77h8.11l.54,2.42s4.12-4.79,8.84-2.27L64.05,24.4c2.1-4,9.91-5.55,13.9-5.33,10.32.57,11.33,4.79,10.16,10.32L85.4,42.16a3.16,3.16,0,0,0,.16,1.1,2.79,2.79,0,0,0,.48.94H75.72l-.28-.94A12.61,12.61,0,0,1,69,44.84c-4.4-.07-8.8-2.5-8.89-6.78-.23-9.31,10.75-8.64,16.66-9.94,2.14-.47,2.93-2.8.19-3A3.69,3.69,0,0,0,73,27.65H59.24a5.72,5.72,0,0,0-4.09,3.94L52.7,44.2H42.47Zm56.9-9.43L97.79,44.2H87.61l7.64-33.86Zm30.31,0c12.21,0,11.32,14.19,5.1,16.77,6.13,4.42,3.93,17.12-9.91,17.12H110.72L114,29.86h-7.7l1.35-6.94h7.93l2.74-12.58ZM124.25,30.08h5.41c4.87,0,4.93,5.77-1.61,5.77h-5Zm2.45-11.83h5.13c4.53,0,4.56,5.37-1.51,5.37h-4.69ZM77.16,33.17c-2.3,10.82-14.31,1.42,0,0M9.45,30.48c.5-13.22,9.75-21,19.4-20.69,8.34-.1,16,4.48,16,13.81-.19,12.9-8.08,21.16-19.34,21.16-6.95.54-15.79-3.69-16-14.28m10.69-.65C20.33,21.37,25.55,18,28.26,18c3.24.06,6.16,2,5.81,7.13-.18,5.73-4.18,11.95-8.42,11.6-2.9.16-5.51-1.77-5.51-6.87M150,28.17a1.41,1.41,0,0,0,1.51-1.3c.21-1.27-.53-1.46-1.62-1.46h-2.33l-.76,4.78h1.07l.32-2h.74l.75,2h1.17Zm-1.69-.72.18-1.21h1c.46,0,1.08,0,1,.49s-.41.72-.95.72Z" transform="translate(0)"/></g></g></svg>