<?xml version="1.0" encoding="utf-8"?>
<!-- Generator: Adobe Illustrator 24.3.0, SVG Export Plug-In . SVG Version: 6.00 Build 0)  -->
<svg version="1.1" id="Capa_1" xmlns="http://www.w3.org/2000/svg" xmlns:xlink="http://www.w3.org/1999/xlink" x="0px" y="0px"
	 viewBox="0 0 187.5 32.8" style="enable-background:new 0 0 187.5 32.8;" xml:space="preserve">
<style type="text/css">
	.st0{clip-path:url(#SVGID_2_);}
</style>
<g>
	<defs>
		<rect id="SVGID_1_" x="4.8" y="-0.1" width="180" height="33"/>
	</defs>
	<clipPath id="SVGID_2_">
		<use xlink:href="#SVGID_1_"  style="overflow:visible;"/>
	</clipPath>
	<g class="st0">
		<path d="M29.2,32.9C29.2,32.9,29.2,32.9,29.2,32.9c0-0.1,0-0.1,0-0.1c0-0.1,0.1-0.1,0.1-0.2c0.1-0.1,0.1-0.3,0.2-0.4
			c0.1-0.3,0.2-0.6,0.3-0.9c0.2-0.6,0.4-1.2,0.6-1.7c0.8-2.3,1.6-4.7,2.4-7c0.1-0.1,0.1-0.3,0.2-0.4c0-0.1,0.1-0.1,0.1-0.2
			c0,0,0,0,0-0.1c0,0,0,0,0,0c0,0,0,0,0,0c0,0,0,0,0,0c0,0,0.1,0,0.1,0c0.3,0,0.6,0,0.9,0c0.6,0,1.2,0,1.8,0c1.2,0,2.5,0,3.7,0
			c0.6,0,1.2,0,1.8,0c0.3,0,0.6,0,0.9,0c0.2,0,0.3,0,0.5,0c0,0,0.1,0,0.1,0c0,0,0,0,0.1,0c0,0,0,0,0,0c0,0,0,0,0,0
			c0,0.1,0.1,0.1,0.1,0.2c0.4,1.2,0.8,2.3,1.2,3.5c0.8,2.3,1.6,4.7,2.4,7c0,0.1,0,0.1,0.1,0.2c0,0,0,0.1,0,0.1c0,0,0,0,0,0.1
			c0,0,0,0,0.1,0c0.2,0,0.3,0,0.5,0c0.3,0,0.6,0,0.9,0c0.6,0,1.2,0,1.8,0c1.2,0,2.5,0,3.7,0c0-0.1,0-0.1,0-0.2c0,0,0,0,0,0
			c0,0,0,0,0,0c0,0,0,0,0,0c0,0,0,0,0,0c0,0-0.1,0-0.1-0.1c-0.1-0.1-0.3-0.2-0.4-0.3c-0.3-0.3-0.6-0.7-0.8-1
			c-0.3-0.5-0.6-1.1-0.8-1.6c-0.1-0.3-0.2-0.7-0.4-1c-0.1-0.4-0.3-0.9-0.4-1.3c-0.3-0.9-0.6-1.7-0.9-2.6c-0.6-1.7-1.2-3.5-1.8-5.2
			c-1.6-4.7-3.2-9.3-4.8-14c-0.3-0.9-0.6-1.8-0.9-2.7c0-0.1-0.1-0.2-0.1-0.3c0-0.1,0-0.1-0.1-0.2c0,0,0-0.1,0-0.1c0,0,0,0,0,0
			c0,0,0,0,0,0c-0.2,0-0.5,0-0.7,0c-0.5,0-1,0-1.4,0c-1,0-1.9,0-2.9,0c-0.5,0-1,0-1.4,0c-0.1,0-0.2,0-0.4,0c-0.1,0-0.1,0-0.2,0
			c0,0-0.1,0-0.1,0c0,0,0,0,0,0c0,0,0,0,0,0c0,0,0,0.1,0,0.1c0,0,0,0,0,0c0,0,0,0,0,0c0,0,0,0,0.1,0c0.2,0.2,0.4,0.4,0.5,0.6
			c0.1,0.3,0.2,0.6,0.2,0.9c0,0.2,0,0.4-0.1,0.6c0,0.1-0.1,0.2-0.1,0.3c-0.1,0.4-0.2,0.7-0.4,1c-1.6,4.7-3.2,9.3-4.8,14
			c-1,2.9-2,5.8-3,8.7c-0.2,0.7-0.5,1.3-0.8,2c-0.4,0.8-0.8,1.6-1.5,2.1c-0.1,0-0.1,0.1-0.2,0.1c0,0,0,0,0,0c0,0,0,0,0,0
			c0,0,0,0,0,0c0,0,0,0.1,0,0.1c0,0,0,0.1,0,0.1c0,0,0,0,0,0c0,0,0,0,0,0c0.1,0,0.2,0,0.3,0C26.7,32.9,27.9,32.9,29.2,32.9
			C29.2,32.9,29.2,32.9,29.2,32.9C29.2,32.9,29.2,32.9,29.2,32.9z M33.9,19.3l4.2-12.1l4.2,12.1H33.9z"/>
		<path d="M3.9,32.9C3.9,32.9,3.9,32.9,3.9,32.9c0.1,0,0.2,0,0.3,0c0.2,0,0.4,0,0.6,0c0.4,0,0.8,0,1.2,0c1.7,0,3.3,0,5,0
			c0.1,0,0.2,0,0.3,0c0.1,0,0.1,0,0.2,0c0,0,0,0,0,0c0,0,0,0,0,0c0,0,0-0.1,0-0.1c0,0,0,0,0,0c0,0,0,0,0,0c-0.1-0.1-0.1-0.1-0.2-0.2
			c-0.1-0.2-0.3-0.4-0.3-0.6c-0.3-0.7-0.4-1.6-0.4-2.4c0-0.4,0-0.8,0-1.2c0-0.8,0-1.7,0-2.5c0-0.8,0-1.7,0-2.5c0-0.4,0-0.8,0-1.2
			c0-0.1,0-0.2,0-0.3c0,0,0,0,0,0c0,0,0.1,0,0.1,0c0.1,0,0.1,0,0.2,0c0.2,0,0.4,0,0.6,0c0.7,0,1.5,0,2.2,0c0.4,0,0.7,0,1.1,0
			c0.2,0,0.4,0,0.6,0c0.1,0,0.2,0,0.3,0c0.1,0,0.3,0,0.4,0c1,0,2-0.1,3-0.3c1.7-0.4,3.2-1.1,4.6-2.1c1.6-1.3,2.9-3.1,3.5-5.1
			c0.3-1,0.4-1.9,0.3-2.9c-0.1-1.2-0.3-2.3-0.8-3.4C24.8,3.8,20.4,2,16.2,2C14.1,2,12,2,9.9,2c-1,0-2.1,0-3.1,0c-0.5,0-1,0-1.6,0
			C4.9,2,4.7,2,4.4,2C4.3,2,4.2,2,4,2C4,2,4,2,3.9,2c0,0,0,0,0,0c0,0,0,0,0,0c0,0,0,0,0,0c0,0,0,0,0,0c0,0,0,0.1,0,0.1
			c0,0,0,0,0,0.1c0,0,0.1,0.1,0.1,0.1c0.7,0.8,0.8,2.2,0.8,3.1c0,0.2,0,0.4,0,0.6c0,0.4,0,0.8,0,1.3c0,0.8,0,1.7,0,2.5
			c0,1.7,0,3.3,0,5c0,4.2,0,8.5,0,12.7c0,0.4,0,0.8,0,1.2c0,0.2,0,0.4,0,0.6c0,0.9,0,2.4-0.8,3.2c0,0-0.1,0-0.1,0.1
			C3.9,32.7,3.9,32.8,3.9,32.9C3.9,32.8,3.9,32.8,3.9,32.9C3.9,32.9,3.9,32.9,3.9,32.9C3.9,32.9,3.9,32.9,3.9,32.9z M10.7,19.3
			c0-4.9,0-9.9,0-14.8c1.4,0,2.8,0,4.3,0c1.9,0,3.6,0.7,4.8,2.3c1.1,1.5,1.5,3.4,1.5,5.2c0,4.2-1.9,7.3-6.4,7.3
			C13.4,19.3,12.1,19.3,10.7,19.3z"/>
		<path d="M129.2,29c0,0,0.1,0.1,0.1,0.1c0,0,0.1,0,0.1,0c0,0,0,0,0,0.1c0,0.1,0,0.2,0,0.3c0,0.2,0,0.4-0.1,0.6
			c0,0.4-0.1,0.8-0.1,1.1c0,0.4-0.1,0.8-0.1,1.1c0,0.2,0,0.4-0.1,0.6c0,0,0,0,0,0c0,0,0,0,0,0c0,0,0,0-0.1,0c0,0-0.1,0-0.1,0
			c-0.1,0-0.2,0-0.3,0c-1.5,0-3,0-4.6,0c-3,0-6.1,0-9.1,0c-1.3,0-2.6,0-3.9,0c-0.2,0-0.3,0-0.5,0c0,0-0.1,0-0.1,0c0,0,0,0-0.1,0
			c0,0,0,0,0,0c0,0,0-0.1,0-0.1c0,0,0,0,0-0.1c0,0,0.1-0.1,0.1-0.1c0.3-0.3,0.4-0.6,0.5-0.9c0.2-0.7,0.3-1.4,0.3-2.1
			c0-0.2,0-0.3,0-0.5c0-0.6,0-1.3,0-1.9c0-2.6,0-5.2,0-7.7c0-2.6,0-5.2,0-7.7c0-1.3,0-2.6,0-3.9c0-0.6,0-1.3,0-1.9
			c0-0.2,0-0.3,0-0.5c0-0.6,0-1.1-0.1-1.7c-0.1-0.5-0.2-0.9-0.5-1.2c0-0.1-0.1-0.1-0.1-0.1c0,0,0,0-0.1-0.1c0,0,0,0,0,0
			c0,0,0-0.1,0-0.1c0,0,0,0,0-0.1c0,0,0,0,0,0c0,0,0,0,0,0c0,0,0.1,0,0.1,0c0.2,0,0.3,0,0.5,0c3,0,6,0,9.1,0c1.5,0,3,0,4.5,0
			c0.8,0,1.5,0,2.3,0c0.4,0,0.8,0,1.1,0c0.2,0,0.4,0,0.6,0c0.1,0,0.2,0,0.3,0c0,0,0.1,0,0.1,0c0,0,0,0,0,0c0,0,0,0,0,0
			c0,0.1,0,0.1,0,0.2c0.1,0.6,0.1,1.2,0.2,1.8c0,0.3,0.1,0.7,0.1,1c0,0.1,0,0.3,0,0.4c0,0.1,0,0.1,0,0.2c0,0,0,0,0,0.1c0,0,0,0,0,0
			c0,0-0.1,0-0.1,0.1c0,0,0,0,0,0c0,0,0,0,0,0c0,0,0,0,0,0c0,0,0,0,0,0c0,0,0,0,0,0c0,0-0.1,0-0.1,0c-0.1,0-0.2-0.1-0.3-0.1
			c-1.9-0.7-4.5-1-6.5-1.1c-1.6-0.1-3.2,0-4.8,0.1c-0.1,0-0.2,0-0.3,0c0,0,0,0,0,0c0,0,0,0,0,0c0,0,0,0,0,0c0,0,0,0.1,0,0.1
			c0,0.1,0,0.3,0,0.4c0,0.6,0,1.2,0,1.7c0,2.4,0,4.8,0,7.3c0,0.3,0,0.6,0,0.9c0,0.2,0,0.3,0,0.5c0,0.1,0,0.2,0,0.2c0,0,0,0,0,0.1
			c0,0,0,0,0,0c0,0,0,0,0,0c0,0,0.1,0,0.1,0c0.6,0,1.2,0,1.8,0c0.6,0,1.2,0,1.8,0c0.3,0,0.6,0,0.9,0c0.8,0,1.6,0,2.3-0.1
			c0.5-0.1,1.1-0.1,1.6-0.4c0,0,0.1,0,0.1-0.1c0,0,0,0,0.1,0c0,0,0,0,0,0c0,0,0,0,0.1,0c0,0,0.1,0,0.1,0c0,0,0,0,0,0c0,0,0,0,0,0
			c0,0,0,0,0,0c0,0,0,0,0,0.1c0,0,0,0.1,0,0.1c0,0.6,0,1.2,0,1.8c0,0.3,0,0.6,0,0.9c0,0.2,0,0.3,0,0.5c0,0,0,0.1,0,0.1c0,0,0,0,0,0
			c0,0,0,0-0.1,0c0,0-0.1,0-0.1,0c0,0,0,0-0.1,0c0,0-0.1,0-0.1-0.1c-0.1,0-0.2-0.1-0.3-0.1c-0.5-0.2-1.2-0.3-1.7-0.3
			c-0.7-0.1-1.3-0.1-2-0.1c-0.2,0-0.3,0-0.5,0c-0.3,0-0.6,0-0.9,0c-0.6,0-1.2,0-1.8,0c-0.3,0-0.6,0-0.9,0c-0.2,0-0.3,0-0.5,0
			c0,0,0,0-0.1,0c0,0,0,0,0,0c0,0,0,0,0,0c0,0,0,0.1,0,0.1c0,0.1,0,0.2,0,0.2c0,0.6,0,1.2,0,1.8c0,1.2,0,2.4,0,3.6
			c0,1.1,0,2.1,0,3.2c0,0.5,0,1.1,0,1.6c0,0.3,0,0.5,0,0.8c0,0.1,0,0.1,0,0.2c0,0,0,0,0,0c0,0,0,0,0,0c0.4,0,0.7,0.1,1.1,0.1
			C120.7,30.3,126.5,30.5,129.2,29z"/>
		<path d="M153.6,2c0.8,0,1.7,0,2.5,0c0.4,0,0.8,0,1.3,0c0,0,0.1,0,0.1,0c0,0,0,0,0,0.1c0,0,0,0.1,0,0.1c0,0,0,0.1,0,0.1
			c-0.4,0.4-0.5,0.7-0.7,1.2c-0.2,0.8-0.2,1.5-0.2,2.3c0,1.7,0,3.4,0,5c0,3.4,0,6.7,0,10.1c0,3.8,0,7.6,0,11.5c0,0.1,0,0.2,0,0.4
			c0,0.1,0,0.1,0,0.2c0,0,0,0,0,0c0,0,0,0,0,0c0,0-0.1,0-0.1,0c-0.2,0-0.5,0-0.7,0c-0.5,0-1,0-1.4,0c-0.5,0-1,0-1.4,0
			c-0.2,0-0.5,0-0.7,0c-0.1,0-0.1,0-0.2,0c0,0-0.1,0-0.1,0c0,0,0,0,0-0.1c-0.1-0.1-0.1-0.2-0.2-0.3c-1-1.6-2.1-3.2-3.1-4.8
			c-2.1-3.2-4.1-6.4-6.2-9.6c-1-1.6-2.1-3.2-3.1-4.8c-0.5-0.8-1-1.6-1.6-2.4c-0.3-0.4-0.5-0.8-0.8-1.2c-0.1-0.2-0.3-0.4-0.4-0.6
			c0,0,0,0,0,0c0,0,0,0,0,0c0,0,0,0.1,0,0.1c0,0.1,0,0.1,0,0.2c0,0.1,0,0.2,0,0.4c0,7.6,0,15.3,0,22.9c0,0.1,0,0.1,0,0.2
			c0,0,0,0.1,0,0.1c0,0,0,0,0,0c0,0,0,0,0,0c-0.1,0-0.2,0-0.3,0c-0.2,0-0.4,0-0.6,0c-0.4,0-0.8,0-1.3,0c-0.4,0-0.8,0-1.3,0
			c-0.1,0-0.2,0-0.3,0c0,0,0,0,0,0c0,0,0,0,0,0c0,0,0-0.1,0-0.1c0,0,0-0.1,0-0.1c0,0,0,0,0,0c0,0,0,0,0-0.1c0.4-0.4,0.6-0.8,0.7-1.3
			c0.1-0.6,0.2-1.2,0.2-1.9c0-1.7,0-3.4,0-5c0-3.4,0-6.7,0-10.1c0-1.6,0-3.2,0-4.8c0-0.8,0-1.6,0-2.4c0-0.9,0-1.8-0.2-2.8
			c-0.2-0.7-0.5-1.5-1.1-2c-0.1-0.1-0.1-0.1-0.2-0.2c0,0,0,0,0,0c0,0,0,0,0,0c0,0,0,0,0-0.1c0,0,0,0,0-0.1c0,0,0,0,0,0c0,0,0,0,0,0
			s0,0,0,0c0.2,0,0.4,0,0.6,0c1.6,0,3.2,0,4.8,0c0.4,0,0.8,0,1.2,0c0.1,0,0.1,0,0.1,0c0,0,0,0,0.1,0c0,0,0,0,0,0
			c0.1,0.1,0.1,0.2,0.2,0.2c0.1,0.2,0.2,0.3,0.3,0.5c0.4,0.7,0.9,1.3,1.3,2c4.2,6.4,8.4,12.7,12.7,19.1c0.1,0.1,0.1,0.2,0.2,0.3
			c0,0,0.1,0.1,0.1,0.1c0,0,0,0,0,0c0,0,0,0,0,0c0,0,0,0,0,0c0,0,0,0,0,0c0,0,0-0.1,0-0.1c0-0.2,0-0.5,0-0.7c0-0.5,0-1,0-1.4
			c0-1,0-1.9,0-2.9c0-1.9,0-3.8,0-5.7C153.6,9.7,153.6,5.8,153.6,2z"/>
		<path d="M76.7,2c0.8,0,1.7,0,2.5,0c0.4,0,0.8,0,1.3,0c0,0,0.1,0,0.1,0c0,0,0,0,0,0c0,0,0,0,0,0c0,0,0,0.1,0,0.1c0,0,0,0.1,0,0.1
			C80.2,2.6,80,3,79.9,3.5c-0.2,0.8-0.2,1.5-0.2,2.3c0,1.7,0,3.4,0,5c0,3.4,0,6.7,0,10.1c0,3.8,0,7.6,0,11.5c0,0.1,0,0.2,0,0.4
			c0,0.1,0,0.1,0,0.2c0,0,0,0,0,0c0,0,0,0,0,0c0,0,0,0,0,0c0,0-0.1,0-0.1,0c-0.2,0-0.5,0-0.7,0c-0.5,0-1,0-1.4,0c-0.5,0-1,0-1.4,0
			c-0.2,0-0.5,0-0.7,0c-0.1,0-0.1,0-0.2,0c0,0-0.1,0-0.1,0c0,0,0,0,0-0.1c-0.1-0.1-0.1-0.2-0.2-0.3c-1-1.6-2.1-3.2-3.1-4.8
			c-2.1-3.2-4.1-6.4-6.2-9.6c-1-1.6-2.1-3.2-3.1-4.8c-0.5-0.8-1-1.6-1.6-2.4c-0.3-0.4-0.5-0.8-0.8-1.2c-0.1-0.2-0.3-0.4-0.4-0.6
			c0,0,0,0,0,0c0,0,0,0,0,0c0,0,0,0.1,0,0.1c0,0.1,0,0.1,0,0.2c0,0.1,0,0.2,0,0.4c0,7.6,0,15.3,0,22.9c0,0.1,0,0.1,0,0.2
			c0,0,0,0.1,0,0.1c0,0,0,0,0,0c0,0,0,0,0,0c-0.1,0-0.2,0-0.3,0c-0.2,0-0.4,0-0.6,0c-0.4,0-0.8,0-1.3,0c-0.4,0-0.8,0-1.3,0
			c-0.1,0-0.2,0-0.3,0c0,0,0,0,0,0c0,0,0,0,0,0c0,0,0-0.1,0-0.1c0,0,0-0.1,0-0.1c0,0,0,0,0,0c0,0,0,0,0-0.1c0.4-0.4,0.5-0.8,0.7-1.3
			c0.1-0.6,0.2-1.2,0.2-1.9c0-1.7,0-3.4,0-5c0-3.4,0-6.7,0-10.1c0-1.6,0-3.2,0-4.8c0-0.8,0-1.6,0-2.4c0-0.9,0-1.9-0.2-2.8
			c-0.2-0.7-0.5-1.5-1.1-2c-0.1-0.1-0.1-0.1-0.2-0.2c0,0,0,0,0,0c0,0,0,0,0,0c0,0,0,0,0-0.1c0,0,0,0,0-0.1c0,0,0,0,0,0c0,0,0,0,0,0
			c0,0,0,0,0,0c0.2,0,0.4,0,0.6,0c1.6,0,3.2,0,4.8,0c0.4,0,0.8,0,1.2,0c0,0,0.1,0,0.1,0c0,0,0,0,0.1,0c0,0,0,0,0,0
			C62,2.1,62,2.2,62.1,2.3c0.1,0.2,0.2,0.3,0.3,0.5c0.4,0.7,0.9,1.3,1.3,2c4.2,6.4,8.4,12.7,12.7,19.1c0.1,0.1,0.1,0.2,0.2,0.3
			c0,0,0.1,0.1,0.1,0.1c0,0,0,0,0,0c0,0,0,0,0,0c0,0,0,0,0,0c0,0,0,0,0,0c0,0,0-0.1,0-0.1c0-0.2,0-0.5,0-0.7c0-0.5,0-1,0-1.4
			c0-1,0-1.9,0-2.9c0-1.9,0-3.8,0-5.7C76.7,9.7,76.7,5.8,76.7,2z"/>
		<path d="M97.8,4.6c0,4.7,0,9.3,0,14c0,1.9,0,3.8,0,5.7c0,0.9,0,1.9,0,2.8c0,0.5,0,0.9,0,1.4c0,0.2,0,0.5,0,0.7c0,0.3,0,0.7,0,1
			c0,0.5,0.1,1,0.3,1.5c0.1,0.3,0.2,0.5,0.4,0.7c0.1,0.1,0.1,0.1,0.2,0.2c0,0,0,0,0,0s0,0,0,0c0,0,0,0.1,0,0.1c0,0,0,0,0,0
			c0,0,0,0,0,0c-0.1,0-0.2,0-0.3,0c-0.2,0-0.5,0-0.7,0c-0.5,0-0.9,0-1.4,0c-0.9,0-1.8,0-2.8,0c-0.5,0-0.9,0-1.4,0
			c-0.2,0-0.5,0-0.7,0c-0.1,0-0.2,0-0.3,0c0,0,0-0.1,0-0.1c0,0,0-0.1,0-0.1c0,0,0,0,0,0c0,0,0,0,0-0.1c0.1-0.1,0.1-0.1,0.2-0.2
			c0.2-0.2,0.3-0.5,0.4-0.7c0.2-0.5,0.2-1,0.2-1.5c0-0.3,0-0.6,0-0.9c0-0.2,0-0.5,0-0.7c0-0.5,0-0.9,0-1.4c0-4.7,0-9.3,0-14
			c0-1.5,0-3,0-4.5c0-0.7,0-1.5,0-2.2c0-0.4,0-0.7,0-1.1c0-0.2,0-0.4,0-0.6c0,0,0-0.1,0-0.1c0,0,0,0,0,0c0,0,0,0,0,0c0,0,0,0,0,0
			c-0.1,0-0.3,0-0.4,0c-1.6,0-3.3,0.2-4.9,0.6c-0.6,0.1-1.3,0.3-1.9,0.6c-0.3,0.1-0.6,0.2-0.9,0.4c0,0-0.1,0-0.1,0.1c0,0,0,0,0,0
			c0,0,0,0,0,0c0,0,0,0,0,0c0,0,0,0-0.1,0c0,0-0.1,0-0.1,0c0-0.1,0-0.2,0-0.3c0-0.2,0-0.5,0.1-0.7c0-0.5,0.1-0.9,0.1-1.4
			c0-0.5,0.1-0.9,0.1-1.4c0-0.1,0-0.1,0-0.2c0,0,0-0.1,0-0.1c0,0,0,0,0,0c0,0,0,0,0,0c0,0,0,0,0,0c0.1,0,0.2,0,0.3,0
			c0.2,0,0.5,0,0.7,0c1.9,0,3.7,0,5.6,0c4.7,0,9.3,0,14,0c0.3,0,0.5,0,0.8,0c0.1,0,0.3,0,0.4,0c0,0,0.1,0,0.1,0c0,0,0,0,0,0
			c0,0,0,0,0,0c0,0.1,0,0.1,0,0.2c0,0.5,0.1,1,0.1,1.5c0,0.5,0.1,1,0.1,1.5c0,0.3,0,0.5,0.1,0.8c0,0,0,0,0,0c0,0,0,0,0,0
			c0,0-0.1,0-0.1,0.1c0,0,0,0,0,0c0,0,0,0,0,0c0,0,0,0,0,0c0,0-0.1,0-0.1-0.1c-0.2-0.1-0.3-0.1-0.5-0.2c-0.7-0.3-1.3-0.5-2-0.6
			c-1.3-0.3-2.5-0.5-3.8-0.6C99,4.7,98.4,4.6,97.8,4.6z"/>
		<path d="M168.3,4.8c0,2.7,0,5.3,0,8c0,0.7,0,1.3,0,2c0,0.3,0,0.7,0,1c0,0,0,0,0,0.1c0,0,0,0,0,0c0,0,0.1,0,0.1,0
			c0.1,0,0.2,0,0.3,0c0.2,0,0.3,0,0.5,0c0.7,0,1.3,0,2,0c0.3,0,0.7,0,1,0c1.1,0,2.1,0,3.2-0.1c0.5-0.1,1-0.1,1.4-0.3
			c0.1,0,0.2-0.1,0.2-0.1c0,0,0,0,0.1,0c0,0,0,0,0,0c0,0,0.1,0,0.1,0c0,0,0,0,0.1,0c0,0,0,0,0,0c0,0,0,0.1,0,0.1c0,0.1,0,0.1,0,0.2
			c0,0.3,0,0.5,0,0.8c0,0.5,0,1.1,0,1.6c0,0.1,0,0.3,0,0.4c0,0.1,0,0.1,0,0.2c0,0,0,0.1,0,0.1c0,0,0,0,0,0c0,0,0,0,0,0
			c0,0,0,0-0.1,0c0,0-0.1,0-0.1,0c0,0,0,0-0.1,0c-0.1,0-0.1-0.1-0.2-0.1c-0.4-0.2-0.9-0.3-1.4-0.3c-0.9-0.1-1.8-0.1-2.7-0.1
			c-0.5,0-1.1,0-1.6,0c-0.5,0-1.1,0-1.6,0c-0.3,0-0.5,0-0.8,0c-0.1,0-0.3,0-0.4,0c0,0,0,0,0,0c0,0,0,0,0,0.1c0,0,0,0.1,0,0.1
			c0,0.1,0,0.1,0,0.2c0,1.1,0,2.2,0,3.2c0,1.4,0,2.8,0,4.2c0,0.7,0,1.4,0,2.1c0,0.4,0,0.7,0,1.1c0,0.2,0,0.4,0,0.5c0,0,0,0,0,0.1
			c0,0,0,0,0,0c0,0,0,0,0,0c0,0,0,0,0.1,0c0.7,0.1,1.4,0.1,2.1,0.2c2.4,0.1,5.6,0.1,8-0.4c0.6-0.1,1.1-0.3,1.6-0.5
			c0.1-0.1,0.2-0.1,0.3-0.2c0,0,0.1,0,0.1,0c0,0,0,0,0,0c0,0,0,0,0,0c0,0,0,0,0,0c0,0,0.1,0,0.1,0.1c0,0,0,0,0,0c0,0,0,0,0,0.1
			c0,0,0,0.1,0,0.1c0,0.2,0,0.3,0,0.5c0,0.3-0.1,0.7-0.1,1c-0.1,0.7-0.1,1.3-0.2,2c0,0,0,0,0,0c0,0,0,0,0,0c0,0,0,0-0.1,0
			c0,0-0.1,0-0.1,0c-0.1,0-0.2,0-0.3,0c-0.2,0-0.3,0-0.5,0c-0.3,0-0.7,0-1,0c-0.7,0-1.3,0-2,0c-2.7,0-5.4,0-8,0c-1.3,0-2.6,0-3.9,0
			c-0.6,0-1.3,0-1.9,0c-0.3,0-0.6,0-1,0c0,0-0.1,0-0.1,0c0,0,0,0,0-0.1c0,0,0-0.1,0-0.1c0,0,0-0.1,0.1-0.1c0,0,0.1-0.1,0.1-0.1
			c0.1-0.1,0.2-0.3,0.3-0.4c0.3-0.6,0.4-1.2,0.4-1.8c0-0.3,0-0.6,0-0.8c0-2.6,0-5.1,0-7.7c0-2.8,0-5.5,0-8.3c0-1.4,0-2.8,0-4.1
			c0-0.7,0-1.4,0-2.1c0-0.3,0-0.7,0-1c0-0.9,0-1.8-0.2-2.7c-0.1-0.4-0.3-0.8-0.6-1.1c0,0-0.1-0.1-0.1-0.1c0,0,0,0,0-0.1
			c0,0,0,0,0-0.1c0,0,0,0,0,0c0,0,0,0,0,0c0,0,0,0,0,0c0.2,0,0.4,0,0.5,0c0.4,0,0.7,0,1.1,0c0.7,0,1.4,0,2.1,0c1.4,0,2.9,0,4.3,0
			c2.9,0,5.7,0,8.6,0c0.6,0,1.2,0,1.9,0c0,0,0.1,0,0.1,0c0,0,0,0,0.1,0c0,0,0,0,0,0c0,0,0,0,0,0.1c0,0,0,0.1,0,0.1
			c0,0.1,0,0.2,0,0.3c0,0.4,0.1,0.8,0.1,1.1c0,0.4,0.1,0.8,0.1,1.1c0,0.2,0,0.4,0.1,0.6c0,0.1,0,0.2,0,0.3c0,0,0,0,0,0.1
			c0,0,0,0,0,0c0,0,0,0,0,0c0,0-0.1,0-0.1,0.1c0,0,0,0,0,0c0,0,0,0,0,0c0,0,0,0,0,0c0,0-0.1,0-0.1,0c-0.1,0-0.1-0.1-0.2-0.1
			c-0.1-0.1-0.2-0.1-0.3-0.1c-0.2-0.1-0.5-0.2-0.7-0.3c-0.6-0.2-1.1-0.3-1.7-0.4c-1.2-0.2-2.5-0.3-3.7-0.3
			C171.8,4.6,170,4.6,168.3,4.8z"/>
	</g>
</g>
</svg>
