<svg xmlns="http://www.w3.org/2000/svg" viewBox="0 0 187.49 32.75"><defs><style>.cls-1{fill:#434343;}</style></defs><g id="Capa_2" data-name="Capa 2"><g id="Layer_1" data-name="Layer 1"><path class="cls-1" d="M26.87,32.74v0l0-.11a2.25,2.25,0,0,0,.08-.24c.06-.15.11-.3.16-.46s.22-.62.32-.93c.22-.61.43-1.23.64-1.85q1.29-3.71,2.56-7.41c.06-.16.11-.31.16-.47a1.55,1.55,0,0,0,.08-.23l0-.06H41.63s0,0,0,0l.09.23c.42,1.24.85,2.47,1.27,3.71q1.29,3.7,2.56,7.41c0,.08.06.16.08.23l0,.12,0,.06h7.41v-.22s0,0,0,0h0l0,0-.1-.06a3.42,3.42,0,0,1-.4-.36A5,5,0,0,1,51.7,31a11.16,11.16,0,0,1-.82-1.75c-.14-.36-.26-.73-.39-1.09s-.31-.93-.47-1.39l-1-2.76c-.63-1.84-1.27-3.68-1.9-5.53Q44.6,11,42,3.61c-.33-1-.67-1.92-1-2.89L40.92.36a1.34,1.34,0,0,0-.07-.18l0-.09v0s0,0,0,0H33.26s0,0,0,0V.21s0,0,0,0l.08,0a1.68,1.68,0,0,1,.49.63,2.22,2.22,0,0,1,.18,1,3,3,0,0,1-.09.6l-.12.36c-.12.37-.25.74-.38,1.11q-2.55,7.42-5.12,14.84L25.1,28a18.61,18.61,0,0,1-.8,2.08,6.18,6.18,0,0,1-1.58,2.24l-.19.15-.05,0s0,0,0,0v.19s0,0,0,0h4.4m5-14.41L36.29,5.46l4.44,12.87Z"/><path class="cls-1" d="M0,32.74H8.11s0,0,0,0v-.16s0,0,0,0l-.17-.16a2.28,2.28,0,0,1-.36-.6A6.49,6.49,0,0,1,7.2,29.2V21s0,0,0,0H13a15.12,15.12,0,0,0,3.15-.34A12,12,0,0,0,21,18.35,10.64,10.64,0,0,0,24.72,13,8.8,8.8,0,0,0,25,9.9a9.67,9.67,0,0,0-.88-3.62C22.19,1.94,17.47,0,13.07,0H0V.19A.13.13,0,0,0,0,.25a.47.47,0,0,1,.1.1c.78.84.81,2.37.81,3.34V29.08c0,1,0,2.51-.85,3.36,0,0-.07.05-.07.12v.18H0M7.2,18.33V2.63h4.51a6.05,6.05,0,0,1,5.07,2.45,9.39,9.39,0,0,1,1.58,5.54c0,4.45-2,7.71-6.8,7.71Z"/><path class="cls-1" d="M132.85,28.63a.57.57,0,0,1,.13.08s.06,0,.06,0v.07c0,.1,0,.21,0,.3s0,.41-.06.61c0,.4-.09.8-.12,1.2s-.08.8-.13,1.2c0,.2,0,.4,0,.61,0,0,0,0,0,0H112.72s0,0,0,0v-.2s0-.07.07-.09a2.44,2.44,0,0,0,.57-.95,7.29,7.29,0,0,0,.28-2.27V3.6a8.85,8.85,0,0,0-.14-1.78A2.79,2.79,0,0,0,112.92.5l-.13-.16-.07-.06,0-.05V0s0,0,0,0h19.78s0,0,0,0,0,.14,0,.21l.18,1.9c0,.36.07.72.11,1.08,0,.15,0,.29,0,.44s0,.12,0,.17v.08s0,0,0,0l-.09.06-.05,0,0,0h0l0,0-.08,0-.36-.14a23.34,23.34,0,0,0-6.91-1.12,48.37,48.37,0,0,0-5.11.08l-.3,0h0V14.76s0,0,0,0h4.94a22.67,22.67,0,0,0,2.47-.1A5.7,5.7,0,0,0,129,14.3l.14-.07.06,0s0,0,.05,0h.21s0,0,0,0v3.69s0,.05,0,.05h-.18a.11.11,0,0,1-.06,0l-.12-.07-.31-.13a7.64,7.64,0,0,0-1.83-.32c-.71-.06-1.42-.07-2.14-.07h-4.87s0,0,0,0V29.64s0,0,0,0l1.13.1c2.88.22,9,.43,11.83-1.15"/><path class="cls-1" d="M158.77,0h4.09s0,0,0,.06V.16s0,.06,0,.09a2.67,2.67,0,0,0-.7,1.3A9.94,9.94,0,0,0,162,4V32.71s0,0,0,0h-4.88s-.07,0-.09,0a.35.35,0,0,1,0-.08l-.21-.32q-1.65-2.55-3.29-5.1L146.83,17q-1.65-2.55-3.29-5.1l-1.65-2.55-.83-1.28-.41-.64s0,0,0,0v25.3s0,0,0,0h-4s0,0,0,0v-.21s0,0,0-.06a2.65,2.65,0,0,0,.71-1.4,9.45,9.45,0,0,0,.16-2V5.52a13.12,13.12,0,0,0-.18-2.93A3.86,3.86,0,0,0,136.1.42l-.22-.16s0,0,0,0V0s0,0,0,0h7.21s0,0,0,0l.17.26.35.53L145,3q6.72,10.13,13.43,20.25l.21.32.11.15v0h0V0Z"/><path class="cls-1" d="M77.19,0h4.09s0,0,0,0V.16s0,.06,0,.09a2.52,2.52,0,0,0-.7,1.3A9.43,9.43,0,0,0,80.38,4V32.73s0,0,0,0H75.48s-.06,0-.09,0a.35.35,0,0,0,0-.08l-.2-.32-3.3-5.1L65.25,17,62,11.92,60.3,9.37l-.82-1.28-.42-.64s0,0,0,0V32.73s0,0,0,0H55s0,0,0,0v-.21s0-.05.05-.06a2.69,2.69,0,0,0,.7-1.42,8.64,8.64,0,0,0,.16-2V5.51a13.39,13.39,0,0,0-.18-3A3.81,3.81,0,0,0,54.49.41L54.28.25s0,0,0,0V0h7.21s0,0,0,0l.18.26c.11.18.23.35.35.53.46.7.92,1.4,1.39,2.1Q70.14,13.08,76.86,23.2l.21.32.1.15v0s0,0,0,0h0V0Z"/><path class="cls-1" d="M99.6,2.78V28.93c0,.37,0,.74,0,1.1a5.5,5.5,0,0,0,.28,1.55,2.36,2.36,0,0,0,.42.74,1.07,1.07,0,0,0,.18.19s0,0,0,.05v.18s0,0,0,0H92.42s0-.06,0-.08v-.14s0,0,0-.06l.19-.21a2.46,2.46,0,0,0,.4-.79,6.07,6.07,0,0,0,.26-1.58c0-.32,0-.64,0-1V2.8s0,0,0,0h-.46a26.25,26.25,0,0,0-5.22.65,15.3,15.3,0,0,0-2,.58c-.31.12-.62.25-.92.4l-.11,0h0l-.08,0-.08,0c0-.12,0-.25,0-.37s0-.49.07-.73l.15-1.47c0-.48.09-1,.14-1.46,0-.06,0-.12,0-.19a.28.28,0,0,1,0-.09V0s0,0,0,0h23.17s0,0,0,0a.09.09,0,0,0,0,.05,1.36,1.36,0,0,0,0,.2l.15,1.61c.05.53.11,1.06.16,1.6,0,.27,0,.53.08.8v.05l0,0-.08.05,0,0h0s0,0,0,0l-.12-.06-.5-.22a14.82,14.82,0,0,0-2.14-.69,26.61,26.61,0,0,0-4.05-.62c-.62-.05-1.24-.09-1.86-.09"/><path class="cls-1" d="M174.33,3V14.73s0,0,0,0h4.12a29.55,29.55,0,0,0,3.39-.12,5.52,5.52,0,0,0,1.5-.33l.24-.13s0,0,.07,0h.19s0,0,0,0v3.69s0,0,0,0h-.17s0,0-.06,0a1.27,1.27,0,0,0-.23-.12,5.21,5.21,0,0,0-1.45-.35,22.73,22.73,0,0,0-2.86-.13h-4.74s0,0,0,0V29.67h.07c.73.07,1.46.12,2.2.16a33.24,33.24,0,0,0,8.5-.44,8.8,8.8,0,0,0,1.74-.55l.37-.18.09-.05h0l0,0,.11.07s0,0,0,.05,0,0,0,.06,0,.09,0,.14,0,.35-.05.53c0,.35-.07.71-.11,1.06l-.21,2.12v0s0,0,0,0H167.18s-.06,0-.06,0v-.2s0-.06.07-.09l.13-.14a2.57,2.57,0,0,0,.29-.44,5.1,5.1,0,0,0,.42-1.95c0-.29,0-.59,0-.88V4.4a11.16,11.16,0,0,0-.21-2.88,2.53,2.53,0,0,0-.61-1.18s-.11-.09-.11-.12V0H186.9s0,0,0,0V.09c0,.05,0,.1,0,.15l0,.3c0,.4.07.8.11,1.2l.12,1.2.06.6,0,.31a.2.2,0,0,0,0,.07s0,0,0,0l0,0-.11.06s0,0,0,0,0,0,0,0l0,0L187,4l-.17-.08-.35-.16c-.26-.1-.52-.19-.79-.27a13.8,13.8,0,0,0-1.78-.39,27.41,27.41,0,0,0-3.94-.31,50,50,0,0,0-5.61.22"/></g></g></svg>