<svg xmlns="http://www.w3.org/2000/svg" xmlns:xlink="http://www.w3.org/1999/xlink" viewBox="0 0 176.72 176.71"><defs><style>.cls-1{fill:url(#Degradado_sin_nombre_5);}.cls-2{fill:url(#Degradado_sin_nombre_5-2);}.cls-3{fill:url(#Degradado_sin_nombre_5-3);}.cls-4{fill:url(#Degradado_sin_nombre_5-4);}.cls-5{fill:url(#Degradado_sin_nombre_5-5);}.cls-6{fill:url(#Degradado_sin_nombre_5-6);}.cls-7{fill:url(#Degradado_sin_nombre_5-7);}.cls-8{fill:url(#Degradado_sin_nombre_5-8);}.cls-9{fill:url(#Degradado_sin_nombre_5-9);}.cls-10{fill:url(#Degradado_sin_nombre_5-10);}.cls-11{fill:url(#Degradado_sin_nombre_5-11);}.cls-12{fill:url(#Degradado_sin_nombre_5-12);}.cls-13{fill:url(#Degradado_sin_nombre_5-13);}.cls-14{fill:url(#Degradado_sin_nombre_5-14);}.cls-15{fill:url(#Degradado_sin_nombre_5-15);}.cls-16{fill:url(#Degradado_sin_nombre_5-16);}.cls-17{fill:url(#Degradado_sin_nombre_5-17);}.cls-18{fill:url(#Degradado_sin_nombre_5-18);}.cls-19{fill:url(#Degradado_sin_nombre_5-19);}.cls-20{fill:url(#Degradado_sin_nombre_5-20);}.cls-21{fill:url(#Degradado_sin_nombre_5-21);}.cls-22{fill:url(#Degradado_sin_nombre_5-22);}.cls-23{fill:url(#Degradado_sin_nombre_5-23);}.cls-24{fill:url(#Degradado_sin_nombre_5-24);}.cls-25{fill:url(#Degradado_sin_nombre_5-25);}.cls-26{fill:url(#Degradado_sin_nombre_5-26);}.cls-27{fill:url(#Degradado_sin_nombre_5-27);}.cls-28{fill:url(#Degradado_sin_nombre_5-28);}.cls-29{fill:url(#Degradado_sin_nombre_5-29);}.cls-30{fill:url(#Degradado_sin_nombre_5-30);}.cls-31{fill:url(#Degradado_sin_nombre_5-31);}.cls-32{fill:url(#Degradado_sin_nombre_5-32);}.cls-33{fill:url(#Degradado_sin_nombre_5-33);}.cls-34{fill:url(#Degradado_sin_nombre_5-34);}.cls-35{fill:url(#Degradado_sin_nombre_5-35);}.cls-36{fill:url(#Degradado_sin_nombre_5-36);}.cls-37{fill:url(#Degradado_sin_nombre_5-37);}.cls-38{fill:url(#Degradado_sin_nombre_5-38);}.cls-39{fill:url(#Degradado_sin_nombre_5-39);}.cls-40{fill:url(#Degradado_sin_nombre_5-40);}.cls-41{fill:url(#Degradado_sin_nombre_5-41);}.cls-42{fill:url(#Degradado_sin_nombre_5-42);}.cls-43{fill:url(#Degradado_sin_nombre_5-43);}.cls-44{fill:url(#Degradado_sin_nombre_5-44);}.cls-45{fill:url(#Degradado_sin_nombre_5-45);}.cls-46{fill:url(#Degradado_sin_nombre_5-46);}.cls-47{fill:url(#Degradado_sin_nombre_5-47);}.cls-48{fill:url(#Degradado_sin_nombre_5-48);}.cls-49{fill:url(#Degradado_sin_nombre_5-49);}.cls-50{fill:url(#Degradado_sin_nombre_5-50);}.cls-51{fill:url(#Degradado_sin_nombre_5-51);}.cls-52{fill:url(#Degradado_sin_nombre_5-52);}.cls-53{fill:url(#Degradado_sin_nombre_5-53);}.cls-54{fill:url(#Degradado_sin_nombre_5-54);}.cls-55{fill:url(#Degradado_sin_nombre_5-55);}.cls-56{fill:url(#Degradado_sin_nombre_5-56);}.cls-57{fill:url(#Degradado_sin_nombre_5-57);}.cls-58{fill:url(#Degradado_sin_nombre_5-58);}.cls-59{fill:url(#Degradado_sin_nombre_5-59);}.cls-60{fill:url(#Degradado_sin_nombre_5-60);}.cls-61{fill:url(#Degradado_sin_nombre_5-61);}.cls-62{fill:url(#Degradado_sin_nombre_5-62);}.cls-63{fill:url(#Degradado_sin_nombre_5-63);}.cls-64{fill:url(#Degradado_sin_nombre_5-64);}.cls-65{fill:url(#Degradado_sin_nombre_5-65);}.cls-66{fill:url(#Degradado_sin_nombre_5-66);}.cls-67{fill:url(#Degradado_sin_nombre_5-67);}.cls-68{fill:url(#Degradado_sin_nombre_5-68);}.cls-69{fill:url(#Degradado_sin_nombre_5-69);}.cls-70{fill:url(#Degradado_sin_nombre_5-70);}.cls-71{fill:url(#Degradado_sin_nombre_5-71);}.cls-72{fill:url(#Degradado_sin_nombre_5-72);}.cls-73{fill:url(#Degradado_sin_nombre_5-73);}.cls-74{fill:url(#Degradado_sin_nombre_5-74);}.cls-75{fill:url(#Degradado_sin_nombre_5-75);}.cls-76{fill:url(#Degradado_sin_nombre_5-76);}.cls-77{fill:url(#Degradado_sin_nombre_5-77);}.cls-78{fill:url(#Degradado_sin_nombre_5-78);}.cls-79{fill:url(#Degradado_sin_nombre_5-79);}.cls-80{fill:url(#Degradado_sin_nombre_5-80);}.cls-81{fill:url(#Degradado_sin_nombre_5-81);}.cls-82{fill:url(#Degradado_sin_nombre_5-82);}.cls-83{fill:url(#Degradado_sin_nombre_5-83);}.cls-84{fill:url(#Degradado_sin_nombre_5-84);}.cls-85{fill:url(#Degradado_sin_nombre_5-85);}.cls-86{fill:url(#Degradado_sin_nombre_5-86);}.cls-87{fill:url(#Degradado_sin_nombre_5-87);}.cls-88{fill:url(#Degradado_sin_nombre_5-88);}.cls-89{fill:url(#Degradado_sin_nombre_5-89);}.cls-90{fill:url(#Degradado_sin_nombre_5-90);}.cls-91{fill:url(#Degradado_sin_nombre_5-91);}.cls-92{fill:url(#Degradado_sin_nombre_5-92);}.cls-93{fill:url(#Degradado_sin_nombre_5-93);}.cls-94{fill:url(#Degradado_sin_nombre_5-94);}.cls-95{fill:url(#Degradado_sin_nombre_5-95);}.cls-96{fill:url(#Degradado_sin_nombre_5-96);}.cls-97{fill:url(#Degradado_sin_nombre_5-97);}.cls-98{fill:url(#Degradado_sin_nombre_5-98);}.cls-99{fill:url(#Degradado_sin_nombre_5-99);}.cls-100{fill:url(#Degradado_sin_nombre_5-100);}</style><linearGradient id="Degradado_sin_nombre_5" x1="-91.82" y1="69.68" x2="219.4" y2="-152.12" gradientUnits="userSpaceOnUse"><stop offset="0" stop-color="#fff"/><stop offset="1" stop-color="#fff" stop-opacity="0"/></linearGradient><linearGradient id="Degradado_sin_nombre_5-2" x1="-85.39" y1="78.7" x2="225.83" y2="-143.1" xlink:href="#Degradado_sin_nombre_5"/><linearGradient id="Degradado_sin_nombre_5-3" x1="-78.96" y1="87.73" x2="232.26" y2="-134.08" xlink:href="#Degradado_sin_nombre_5"/><linearGradient id="Degradado_sin_nombre_5-4" x1="-72.53" y1="96.75" x2="238.69" y2="-125.06" xlink:href="#Degradado_sin_nombre_5"/><linearGradient id="Degradado_sin_nombre_5-5" x1="-66.1" y1="105.77" x2="245.12" y2="-116.04" xlink:href="#Degradado_sin_nombre_5"/><linearGradient id="Degradado_sin_nombre_5-6" x1="-59.67" y1="114.79" x2="251.55" y2="-107.01" xlink:href="#Degradado_sin_nombre_5"/><linearGradient id="Degradado_sin_nombre_5-7" x1="-53.24" y1="123.82" x2="257.98" y2="-97.99" xlink:href="#Degradado_sin_nombre_5"/><linearGradient id="Degradado_sin_nombre_5-8" x1="-46.82" y1="132.83" x2="264.41" y2="-88.97" xlink:href="#Degradado_sin_nombre_5"/><linearGradient id="Degradado_sin_nombre_5-9" x1="-40.39" y1="141.85" x2="270.83" y2="-79.96" xlink:href="#Degradado_sin_nombre_5"/><linearGradient id="Degradado_sin_nombre_5-10" x1="-33.97" y1="150.87" x2="277.26" y2="-70.94" xlink:href="#Degradado_sin_nombre_5"/><linearGradient id="Degradado_sin_nombre_5-11" x1="-82.8" y1="82.34" x2="228.42" y2="-139.47" xlink:href="#Degradado_sin_nombre_5"/><linearGradient id="Degradado_sin_nombre_5-12" x1="-76.37" y1="91.36" x2="234.85" y2="-130.45" xlink:href="#Degradado_sin_nombre_5"/><linearGradient id="Degradado_sin_nombre_5-13" x1="-69.94" y1="100.38" x2="241.28" y2="-121.42" xlink:href="#Degradado_sin_nombre_5"/><linearGradient id="Degradado_sin_nombre_5-14" x1="-63.51" y1="109.41" x2="247.71" y2="-112.4" xlink:href="#Degradado_sin_nombre_5"/><linearGradient id="Degradado_sin_nombre_5-15" x1="-57.08" y1="118.43" x2="254.14" y2="-103.38" xlink:href="#Degradado_sin_nombre_5"/><linearGradient id="Degradado_sin_nombre_5-16" x1="-50.65" y1="127.45" x2="260.57" y2="-94.36" xlink:href="#Degradado_sin_nombre_5"/><linearGradient id="Degradado_sin_nombre_5-17" x1="-44.22" y1="136.47" x2="267" y2="-85.33" xlink:href="#Degradado_sin_nombre_5"/><linearGradient id="Degradado_sin_nombre_5-18" x1="-37.8" y1="145.49" x2="273.43" y2="-76.32" xlink:href="#Degradado_sin_nombre_5"/><linearGradient id="Degradado_sin_nombre_5-19" x1="-31.37" y1="154.51" x2="279.85" y2="-67.3" xlink:href="#Degradado_sin_nombre_5"/><linearGradient id="Degradado_sin_nombre_5-20" x1="-24.95" y1="163.52" x2="286.28" y2="-58.28" xlink:href="#Degradado_sin_nombre_5"/><linearGradient id="Degradado_sin_nombre_5-21" x1="-73.78" y1="94.99" x2="237.44" y2="-126.81" xlink:href="#Degradado_sin_nombre_5"/><linearGradient id="Degradado_sin_nombre_5-22" x1="-67.35" y1="104.02" x2="243.87" y2="-117.79" xlink:href="#Degradado_sin_nombre_5"/><linearGradient id="Degradado_sin_nombre_5-23" x1="-60.92" y1="113.04" x2="250.3" y2="-108.77" xlink:href="#Degradado_sin_nombre_5"/><linearGradient id="Degradado_sin_nombre_5-24" x1="-54.49" y1="122.06" x2="256.73" y2="-99.75" xlink:href="#Degradado_sin_nombre_5"/><linearGradient id="Degradado_sin_nombre_5-25" x1="-48.06" y1="131.08" x2="263.16" y2="-90.72" xlink:href="#Degradado_sin_nombre_5"/><linearGradient id="Degradado_sin_nombre_5-26" x1="-41.63" y1="140.11" x2="269.59" y2="-81.7" xlink:href="#Degradado_sin_nombre_5"/><linearGradient id="Degradado_sin_nombre_5-27" x1="-35.2" y1="149.13" x2="276.02" y2="-72.68" xlink:href="#Degradado_sin_nombre_5"/><linearGradient id="Degradado_sin_nombre_5-28" x1="-28.78" y1="158.14" x2="282.45" y2="-63.66" xlink:href="#Degradado_sin_nombre_5"/><linearGradient id="Degradado_sin_nombre_5-29" x1="-22.35" y1="167.16" x2="288.87" y2="-54.64" xlink:href="#Degradado_sin_nombre_5"/><linearGradient id="Degradado_sin_nombre_5-30" x1="-15.93" y1="176.18" x2="295.3" y2="-45.63" xlink:href="#Degradado_sin_nombre_5"/><linearGradient id="Degradado_sin_nombre_5-31" x1="-64.76" y1="107.65" x2="246.46" y2="-114.16" xlink:href="#Degradado_sin_nombre_5"/><linearGradient id="Degradado_sin_nombre_5-32" x1="-58.33" y1="116.67" x2="252.89" y2="-105.13" xlink:href="#Degradado_sin_nombre_5"/><linearGradient id="Degradado_sin_nombre_5-33" x1="-51.9" y1="125.7" x2="259.32" y2="-96.11" xlink:href="#Degradado_sin_nombre_5"/><linearGradient id="Degradado_sin_nombre_5-34" x1="-45.47" y1="134.72" x2="265.75" y2="-87.09" xlink:href="#Degradado_sin_nombre_5"/><linearGradient id="Degradado_sin_nombre_5-35" x1="-39.04" y1="143.74" x2="272.18" y2="-78.07" xlink:href="#Degradado_sin_nombre_5"/><linearGradient id="Degradado_sin_nombre_5-36" x1="-32.61" y1="152.76" x2="278.61" y2="-69.04" xlink:href="#Degradado_sin_nombre_5"/><linearGradient id="Degradado_sin_nombre_5-37" x1="-26.19" y1="161.78" x2="285.04" y2="-60.02" xlink:href="#Degradado_sin_nombre_5"/><linearGradient id="Degradado_sin_nombre_5-38" x1="-19.76" y1="170.8" x2="291.47" y2="-51.01" xlink:href="#Degradado_sin_nombre_5"/><linearGradient id="Degradado_sin_nombre_5-39" x1="-13.33" y1="179.82" x2="297.89" y2="-41.99" xlink:href="#Degradado_sin_nombre_5"/><linearGradient id="Degradado_sin_nombre_5-40" x1="-6.91" y1="188.83" x2="304.32" y2="-32.97" xlink:href="#Degradado_sin_nombre_5"/><linearGradient id="Degradado_sin_nombre_5-41" x1="-55.74" y1="120.31" x2="255.48" y2="-101.5" xlink:href="#Degradado_sin_nombre_5"/><linearGradient id="Degradado_sin_nombre_5-42" x1="-49.31" y1="129.33" x2="261.91" y2="-92.48" xlink:href="#Degradado_sin_nombre_5"/><linearGradient id="Degradado_sin_nombre_5-43" x1="-42.89" y1="138.35" x2="268.34" y2="-83.46" xlink:href="#Degradado_sin_nombre_5"/><linearGradient id="Degradado_sin_nombre_5-44" x1="-36.46" y1="147.37" x2="274.77" y2="-74.43" xlink:href="#Degradado_sin_nombre_5"/><linearGradient id="Degradado_sin_nombre_5-45" x1="-30.03" y1="156.4" x2="281.2" y2="-65.41" xlink:href="#Degradado_sin_nombre_5"/><linearGradient id="Degradado_sin_nombre_5-46" x1="-23.6" y1="165.42" x2="287.63" y2="-56.39" xlink:href="#Degradado_sin_nombre_5"/><linearGradient id="Degradado_sin_nombre_5-47" x1="-17.17" y1="174.44" x2="294.06" y2="-47.37" xlink:href="#Degradado_sin_nombre_5"/><linearGradient id="Degradado_sin_nombre_5-48" x1="-10.74" y1="183.46" x2="300.49" y2="-38.35" xlink:href="#Degradado_sin_nombre_5"/><linearGradient id="Degradado_sin_nombre_5-49" x1="-4.31" y1="192.47" x2="306.91" y2="-29.33" xlink:href="#Degradado_sin_nombre_5"/><linearGradient id="Degradado_sin_nombre_5-50" x1="2.11" y1="201.49" x2="313.34" y2="-20.32" xlink:href="#Degradado_sin_nombre_5"/><linearGradient id="Degradado_sin_nombre_5-51" x1="-46.73" y1="132.96" x2="264.5" y2="-88.84" xlink:href="#Degradado_sin_nombre_5"/><linearGradient id="Degradado_sin_nombre_5-52" x1="-40.3" y1="141.99" x2="270.93" y2="-79.82" xlink:href="#Degradado_sin_nombre_5"/><linearGradient id="Degradado_sin_nombre_5-53" x1="-33.87" y1="151.01" x2="277.36" y2="-70.8" xlink:href="#Degradado_sin_nombre_5"/><linearGradient id="Degradado_sin_nombre_5-54" x1="-27.44" y1="160.03" x2="283.79" y2="-61.78" xlink:href="#Degradado_sin_nombre_5"/><linearGradient id="Degradado_sin_nombre_5-55" x1="-21.01" y1="169.05" x2="290.22" y2="-52.75" xlink:href="#Degradado_sin_nombre_5"/><linearGradient id="Degradado_sin_nombre_5-56" x1="-14.58" y1="178.07" x2="296.65" y2="-43.73" xlink:href="#Degradado_sin_nombre_5"/><linearGradient id="Degradado_sin_nombre_5-57" x1="-8.15" y1="187.1" x2="303.08" y2="-34.71" xlink:href="#Degradado_sin_nombre_5"/><linearGradient id="Degradado_sin_nombre_5-58" x1="-1.72" y1="196.11" x2="309.51" y2="-25.69" xlink:href="#Degradado_sin_nombre_5"/><linearGradient id="Degradado_sin_nombre_5-59" x1="4.71" y1="205.13" x2="315.93" y2="-16.68" xlink:href="#Degradado_sin_nombre_5"/><linearGradient id="Degradado_sin_nombre_5-60" x1="11.13" y1="214.15" x2="322.36" y2="-7.66" xlink:href="#Degradado_sin_nombre_5"/><linearGradient id="Degradado_sin_nombre_5-61" x1="-37.71" y1="145.62" x2="273.52" y2="-76.19" xlink:href="#Degradado_sin_nombre_5"/><linearGradient id="Degradado_sin_nombre_5-62" x1="-31.28" y1="154.64" x2="279.95" y2="-67.17" xlink:href="#Degradado_sin_nombre_5"/><linearGradient id="Degradado_sin_nombre_5-63" x1="-24.85" y1="163.66" x2="286.38" y2="-58.14" xlink:href="#Degradado_sin_nombre_5"/><linearGradient id="Degradado_sin_nombre_5-64" x1="-18.42" y1="172.69" x2="292.81" y2="-49.12" xlink:href="#Degradado_sin_nombre_5"/><linearGradient id="Degradado_sin_nombre_5-65" x1="-11.99" y1="181.71" x2="299.24" y2="-40.1" xlink:href="#Degradado_sin_nombre_5"/><linearGradient id="Degradado_sin_nombre_5-66" x1="-5.56" y1="190.73" x2="305.67" y2="-31.08" xlink:href="#Degradado_sin_nombre_5"/><linearGradient id="Degradado_sin_nombre_5-67" x1="0.87" y1="199.75" x2="312.1" y2="-22.05" xlink:href="#Degradado_sin_nombre_5"/><linearGradient id="Degradado_sin_nombre_5-68" x1="7.3" y1="208.77" x2="318.53" y2="-13.04" xlink:href="#Degradado_sin_nombre_5"/><linearGradient id="Degradado_sin_nombre_5-69" x1="13.73" y1="217.79" x2="324.95" y2="-4.02" xlink:href="#Degradado_sin_nombre_5"/><linearGradient id="Degradado_sin_nombre_5-70" x1="20.15" y1="226.8" x2="331.38" y2="5" xlink:href="#Degradado_sin_nombre_5"/><linearGradient id="Degradado_sin_nombre_5-71" x1="-28.69" y1="158.28" x2="282.54" y2="-63.53" xlink:href="#Degradado_sin_nombre_5"/><linearGradient id="Degradado_sin_nombre_5-72" x1="-22.26" y1="167.3" x2="288.97" y2="-54.51" xlink:href="#Degradado_sin_nombre_5"/><linearGradient id="Degradado_sin_nombre_5-73" x1="-15.83" y1="176.32" x2="295.4" y2="-45.49" xlink:href="#Degradado_sin_nombre_5"/><linearGradient id="Degradado_sin_nombre_5-74" x1="-9.4" y1="185.34" x2="301.83" y2="-36.46" xlink:href="#Degradado_sin_nombre_5"/><linearGradient id="Degradado_sin_nombre_5-75" x1="-2.97" y1="194.36" x2="308.26" y2="-27.44" xlink:href="#Degradado_sin_nombre_5"/><linearGradient id="Degradado_sin_nombre_5-76" x1="3.46" y1="203.39" x2="314.69" y2="-18.42" xlink:href="#Degradado_sin_nombre_5"/><linearGradient id="Degradado_sin_nombre_5-77" x1="9.89" y1="212.41" x2="321.12" y2="-9.4" xlink:href="#Degradado_sin_nombre_5"/><linearGradient id="Degradado_sin_nombre_5-78" x1="16.32" y1="221.43" x2="327.55" y2="-0.38" xlink:href="#Degradado_sin_nombre_5"/><linearGradient id="Degradado_sin_nombre_5-79" x1="22.75" y1="230.44" x2="333.97" y2="8.64" xlink:href="#Degradado_sin_nombre_5"/><linearGradient id="Degradado_sin_nombre_5-80" x1="29.17" y1="239.46" x2="340.4" y2="17.65" xlink:href="#Degradado_sin_nombre_5"/><linearGradient id="Degradado_sin_nombre_5-81" x1="-19.67" y1="170.93" x2="291.56" y2="-50.88" xlink:href="#Degradado_sin_nombre_5"/><linearGradient id="Degradado_sin_nombre_5-82" x1="-13.24" y1="179.95" x2="297.99" y2="-41.85" xlink:href="#Degradado_sin_nombre_5"/><linearGradient id="Degradado_sin_nombre_5-83" x1="-6.81" y1="188.98" x2="304.42" y2="-32.83" xlink:href="#Degradado_sin_nombre_5"/><linearGradient id="Degradado_sin_nombre_5-84" x1="-0.38" y1="198" x2="310.85" y2="-23.81" xlink:href="#Degradado_sin_nombre_5"/><linearGradient id="Degradado_sin_nombre_5-85" x1="6.05" y1="207.02" x2="317.28" y2="-14.79" xlink:href="#Degradado_sin_nombre_5"/><linearGradient id="Degradado_sin_nombre_5-86" x1="12.48" y1="216.04" x2="323.71" y2="-5.76" xlink:href="#Degradado_sin_nombre_5"/><linearGradient id="Degradado_sin_nombre_5-87" x1="18.91" y1="225.06" x2="330.14" y2="3.26" xlink:href="#Degradado_sin_nombre_5"/><linearGradient id="Degradado_sin_nombre_5-88" x1="25.34" y1="234.08" x2="336.57" y2="12.27" xlink:href="#Degradado_sin_nombre_5"/><linearGradient id="Degradado_sin_nombre_5-89" x1="31.77" y1="243.1" x2="342.99" y2="21.29" xlink:href="#Degradado_sin_nombre_5"/><linearGradient id="Degradado_sin_nombre_5-90" x1="38.19" y1="252.12" x2="349.42" y2="30.31" xlink:href="#Degradado_sin_nombre_5"/><linearGradient id="Degradado_sin_nombre_5-91" x1="-10.65" y1="183.59" x2="300.58" y2="-38.22" xlink:href="#Degradado_sin_nombre_5"/><linearGradient id="Degradado_sin_nombre_5-92" x1="-4.22" y1="192.61" x2="307.01" y2="-29.2" xlink:href="#Degradado_sin_nombre_5"/><linearGradient id="Degradado_sin_nombre_5-93" x1="2.21" y1="201.63" x2="313.44" y2="-20.17" xlink:href="#Degradado_sin_nombre_5"/><linearGradient id="Degradado_sin_nombre_5-94" x1="8.64" y1="210.65" x2="319.87" y2="-11.15" xlink:href="#Degradado_sin_nombre_5"/><linearGradient id="Degradado_sin_nombre_5-95" x1="15.07" y1="219.68" x2="326.3" y2="-2.13" xlink:href="#Degradado_sin_nombre_5"/><linearGradient id="Degradado_sin_nombre_5-96" x1="21.5" y1="228.7" x2="332.73" y2="6.89" xlink:href="#Degradado_sin_nombre_5"/><linearGradient id="Degradado_sin_nombre_5-97" x1="27.93" y1="237.72" x2="339.16" y2="15.91" xlink:href="#Degradado_sin_nombre_5"/><linearGradient id="Degradado_sin_nombre_5-98" x1="34.36" y1="246.74" x2="345.59" y2="24.93" xlink:href="#Degradado_sin_nombre_5"/><linearGradient id="Degradado_sin_nombre_5-99" x1="40.79" y1="255.75" x2="352.01" y2="33.95" xlink:href="#Degradado_sin_nombre_5"/><linearGradient id="Degradado_sin_nombre_5-100" x1="47.21" y1="264.77" x2="358.44" y2="42.96" xlink:href="#Degradado_sin_nombre_5"/></defs><g id="Capa_2" data-name="Capa 2"><g id="Layer_1" data-name="Layer 1"><circle class="cls-1" cx="2.48" cy="2.48" r="2.48"/><circle class="cls-2" cx="21.57" cy="2.48" r="2.48"/><circle class="cls-3" cx="40.65" cy="2.48" r="2.48"/><circle class="cls-4" cx="59.74" cy="2.48" r="2.48"/><circle class="cls-5" cx="78.83" cy="2.48" r="2.48"/><circle class="cls-6" cx="97.92" cy="2.48" r="2.48"/><circle class="cls-7" cx="117.01" cy="2.48" r="2.48"/><circle class="cls-8" cx="136.09" cy="2.48" r="2.48"/><circle class="cls-9" cx="155.17" cy="2.48" r="2.48"/><circle class="cls-10" cx="174.25" cy="2.48" r="2.48"/><circle class="cls-11" cx="2.48" cy="21.56" r="2.48"/><circle class="cls-12" cx="21.57" cy="21.56" r="2.48"/><circle class="cls-13" cx="40.65" cy="21.56" r="2.48"/><circle class="cls-14" cx="59.74" cy="21.56" r="2.48"/><circle class="cls-15" cx="78.83" cy="21.56" r="2.48"/><circle class="cls-16" cx="97.92" cy="21.56" r="2.48"/><circle class="cls-17" cx="117.01" cy="21.56" r="2.48"/><circle class="cls-18" cx="136.09" cy="21.56" r="2.48"/><circle class="cls-19" cx="155.17" cy="21.56" r="2.48"/><circle class="cls-20" cx="174.25" cy="21.56" r="2.48"/><circle class="cls-21" cx="2.48" cy="40.64" r="2.48"/><circle class="cls-22" cx="21.57" cy="40.64" r="2.48"/><circle class="cls-23" cx="40.65" cy="40.64" r="2.48"/><circle class="cls-24" cx="59.74" cy="40.64" r="2.48"/><circle class="cls-25" cx="78.83" cy="40.64" r="2.48"/><circle class="cls-26" cx="97.92" cy="40.64" r="2.48"/><circle class="cls-27" cx="117.01" cy="40.64" r="2.48"/><circle class="cls-28" cx="136.09" cy="40.64" r="2.48"/><circle class="cls-29" cx="155.17" cy="40.64" r="2.48"/><circle class="cls-30" cx="174.25" cy="40.64" r="2.48"/><circle class="cls-31" cx="2.48" cy="59.73" r="2.48"/><circle class="cls-32" cx="21.57" cy="59.73" r="2.48"/><circle class="cls-33" cx="40.65" cy="59.73" r="2.48"/><circle class="cls-34" cx="59.74" cy="59.73" r="2.48"/><circle class="cls-35" cx="78.83" cy="59.73" r="2.48"/><circle class="cls-36" cx="97.92" cy="59.73" r="2.48"/><circle class="cls-37" cx="117.01" cy="59.73" r="2.48"/><circle class="cls-38" cx="136.09" cy="59.73" r="2.48"/><circle class="cls-39" cx="155.17" cy="59.73" r="2.48"/><circle class="cls-40" cx="174.25" cy="59.73" r="2.48"/><circle class="cls-41" cx="2.48" cy="78.81" r="2.48"/><circle class="cls-42" cx="21.57" cy="78.81" r="2.48"/><circle class="cls-43" cx="40.65" cy="78.81" r="2.48"/><circle class="cls-44" cx="59.74" cy="78.81" r="2.48"/><circle class="cls-45" cx="78.83" cy="78.81" r="2.48"/><circle class="cls-46" cx="97.92" cy="78.81" r="2.48"/><circle class="cls-47" cx="117.01" cy="78.81" r="2.48"/><circle class="cls-48" cx="136.09" cy="78.81" r="2.48"/><circle class="cls-49" cx="155.17" cy="78.81" r="2.48"/><circle class="cls-50" cx="174.25" cy="78.81" r="2.48"/><circle class="cls-51" cx="2.48" cy="97.9" r="2.48"/><circle class="cls-52" cx="21.57" cy="97.9" r="2.48"/><circle class="cls-53" cx="40.65" cy="97.9" r="2.48"/><circle class="cls-54" cx="59.74" cy="97.9" r="2.48"/><circle class="cls-55" cx="78.83" cy="97.9" r="2.48"/><circle class="cls-56" cx="97.92" cy="97.9" r="2.48"/><circle class="cls-57" cx="117.01" cy="97.9" r="2.48"/><circle class="cls-58" cx="136.09" cy="97.9" r="2.48"/><circle class="cls-59" cx="155.17" cy="97.9" r="2.48"/><circle class="cls-60" cx="174.25" cy="97.9" r="2.48"/><circle class="cls-61" cx="2.48" cy="116.98" r="2.48"/><circle class="cls-62" cx="21.57" cy="116.98" r="2.48"/><circle class="cls-63" cx="40.65" cy="116.98" r="2.48"/><circle class="cls-64" cx="59.74" cy="116.98" r="2.48"/><circle class="cls-65" cx="78.83" cy="116.98" r="2.48"/><circle class="cls-66" cx="97.92" cy="116.98" r="2.48"/><circle class="cls-67" cx="117.01" cy="116.98" r="2.48"/><circle class="cls-68" cx="136.09" cy="116.98" r="2.48"/><circle class="cls-69" cx="155.17" cy="116.98" r="2.48"/><circle class="cls-70" cx="174.25" cy="116.98" r="2.48"/><circle class="cls-71" cx="2.48" cy="136.07" r="2.48"/><circle class="cls-72" cx="21.57" cy="136.07" r="2.48"/><circle class="cls-73" cx="40.65" cy="136.07" r="2.48"/><circle class="cls-74" cx="59.74" cy="136.07" r="2.48"/><circle class="cls-75" cx="78.83" cy="136.07" r="2.48"/><circle class="cls-76" cx="97.92" cy="136.07" r="2.48"/><circle class="cls-77" cx="117.01" cy="136.07" r="2.48"/><circle class="cls-78" cx="136.09" cy="136.07" r="2.48"/><circle class="cls-79" cx="155.17" cy="136.07" r="2.48"/><circle class="cls-80" cx="174.25" cy="136.07" r="2.48"/><circle class="cls-81" cx="2.48" cy="155.15" r="2.48"/><circle class="cls-82" cx="21.57" cy="155.15" r="2.48"/><circle class="cls-83" cx="40.65" cy="155.15" r="2.48"/><circle class="cls-84" cx="59.74" cy="155.15" r="2.48"/><circle class="cls-85" cx="78.83" cy="155.15" r="2.48"/><circle class="cls-86" cx="97.92" cy="155.15" r="2.48"/><circle class="cls-87" cx="117.01" cy="155.15" r="2.48"/><circle class="cls-88" cx="136.09" cy="155.15" r="2.48"/><circle class="cls-89" cx="155.17" cy="155.15" r="2.48"/><circle class="cls-90" cx="174.25" cy="155.15" r="2.48"/><circle class="cls-91" cx="2.48" cy="174.24" r="2.48"/><circle class="cls-92" cx="21.57" cy="174.24" r="2.48"/><circle class="cls-93" cx="40.65" cy="174.24" r="2.48"/><circle class="cls-94" cx="59.74" cy="174.24" r="2.48"/><circle class="cls-95" cx="78.83" cy="174.24" r="2.48"/><circle class="cls-96" cx="97.92" cy="174.24" r="2.48"/><circle class="cls-97" cx="117.01" cy="174.24" r="2.48"/><circle class="cls-98" cx="136.09" cy="174.24" r="2.48"/><circle class="cls-99" cx="155.17" cy="174.24" r="2.48"/><circle class="cls-100" cx="174.25" cy="174.24" r="2.48"/></g></g></svg>