<svg xmlns="http://www.w3.org/2000/svg" xmlns:xlink="http://www.w3.org/1999/xlink" viewBox="0 0 342.01 342.01"><defs><style>.cls-1{fill:url(#linear-gradient);}.cls-2{fill:none;}.cls-3{clip-path:url(#clip-path);}.cls-4{mask:url(#mask);}.cls-5{fill:url(#linear-gradient-2);}</style><linearGradient id="linear-gradient" x1="4707.34" y1="8338.56" x2="4708.19" y2="8338.56" gradientTransform="translate(3399698.12 -1919304.45) rotate(90) scale(407.7)" gradientUnits="userSpaceOnUse"><stop offset="0" stop-color="#fff"/><stop offset="1"/></linearGradient><clipPath id="clip-path" transform="translate(82.64 82.64)"><path class="cls-2" d="M0,174.26a2.48,2.48,0,1,0,2.48-2.47A2.48,2.48,0,0,0,0,174.26m19.09,0h0a2.48,2.48,0,1,0,2.47-2.47,2.48,2.48,0,0,0-2.47,2.47m19.09,0h0a2.48,2.48,0,1,0,2.47-2.47,2.47,2.47,0,0,0-2.47,2.47m19.08,0h0a2.47,2.47,0,1,0,2.47-2.47,2.48,2.48,0,0,0-2.47,2.47m19.09,0h0a2.48,2.48,0,1,0,2.47-2.47,2.48,2.48,0,0,0-2.47,2.47m19.09,0a2.48,2.48,0,1,0,2.47-2.47,2.48,2.48,0,0,0-2.47,2.47m19.08,0a2.48,2.48,0,1,0,2.48-2.47,2.48,2.48,0,0,0-2.48,2.47m19.09,0a2.48,2.48,0,1,0,2.48-2.47,2.48,2.48,0,0,0-2.48,2.47m19.09,0a2.48,2.48,0,1,0,2.47-2.47,2.48,2.48,0,0,0-2.47,2.47m19.09,0a2.48,2.48,0,1,0,2.47-2.47,2.47,2.47,0,0,0-2.47,2.47M0,155.17a2.48,2.48,0,1,0,2.48-2.47A2.48,2.48,0,0,0,0,155.17m19.09,0h0a2.48,2.48,0,1,0,2.47-2.48,2.48,2.48,0,0,0-2.47,2.48m19.09,0h0a2.48,2.48,0,1,0,2.47-2.48,2.47,2.47,0,0,0-2.47,2.48m19.08,0h0a2.47,2.47,0,1,0,2.47-2.47,2.47,2.47,0,0,0-2.47,2.47m19.09,0h0a2.48,2.48,0,1,0,2.48-2.48,2.48,2.48,0,0,0-2.48,2.48m19.09,0a2.48,2.48,0,1,0,2.47-2.47,2.48,2.48,0,0,0-2.47,2.47m19.09,0h0A2.48,2.48,0,1,0,117,152.7a2.49,2.49,0,0,0-2.48,2.47m19.08,0h0a2.48,2.48,0,1,0,2.48-2.47,2.48,2.48,0,0,0-2.48,2.47m19.09,0a2.48,2.48,0,1,0,2.47-2.47,2.48,2.48,0,0,0-2.47,2.47m19.09,0a2.48,2.48,0,1,0,2.47-2.47,2.48,2.48,0,0,0-2.47,2.47M0,136.09a2.48,2.48,0,1,0,2.48-2.48A2.48,2.48,0,0,0,0,136.09m19.09,0h0a2.48,2.48,0,1,0,2.47-2.48,2.47,2.47,0,0,0-2.47,2.48m19.09,0h0a2.48,2.48,0,1,0,2.47-2.48,2.46,2.46,0,0,0-2.47,2.48m19.08,0h0a2.47,2.47,0,1,0,2.47-2.48,2.47,2.47,0,0,0-2.47,2.48m19.09,0h0a2.48,2.48,0,1,0,2.47-2.48,2.47,2.47,0,0,0-2.47,2.48m19.09,0a2.48,2.48,0,1,0,2.47-2.48,2.48,2.48,0,0,0-2.47,2.48m19.08,0a2.48,2.48,0,1,0,2.48-2.48,2.48,2.48,0,0,0-2.48,2.48m19.09,0a2.48,2.48,0,1,0,2.48-2.48,2.48,2.48,0,0,0-2.48,2.48m19.09,0a2.48,2.48,0,1,0,2.47-2.48,2.48,2.48,0,0,0-2.47,2.48m19.09,0a2.48,2.48,0,1,0,2.47-2.48,2.47,2.47,0,0,0-2.47,2.48M0,117a2.48,2.48,0,1,0,2.48-2.48A2.47,2.47,0,0,0,0,117m19.09,0h0a2.48,2.48,0,1,0,2.47-2.48A2.47,2.47,0,0,0,19.09,117m19.09,0h0a2.48,2.48,0,1,0,2.47-2.48A2.46,2.46,0,0,0,38.18,117m19.08,0h0a2.47,2.47,0,1,0,2.47-2.48A2.46,2.46,0,0,0,57.27,117m19.09,0h0a2.48,2.48,0,1,0,2.48-2.48A2.47,2.47,0,0,0,76.35,117m19.09,0a2.48,2.48,0,1,0,2.47-2.48A2.47,2.47,0,0,0,95.44,117m19.09,0h0a2.48,2.48,0,1,0,2.48-2.48,2.48,2.48,0,0,0-2.48,2.48m19.08,0h0a2.48,2.48,0,1,0,2.48-2.48,2.47,2.47,0,0,0-2.48,2.48m19.09,0a2.48,2.48,0,1,0,2.47-2.48A2.47,2.47,0,0,0,152.7,117m19.09,0a2.48,2.48,0,1,0,2.47-2.48,2.47,2.47,0,0,0-2.47,2.48M19.09,97.91h0a2.48,2.48,0,1,0,2.47-2.47,2.48,2.48,0,0,0-2.47,2.47m19.09,0h0a2.48,2.48,0,1,0,2.47-2.47,2.47,2.47,0,0,0-2.47,2.47m19.08,0h0a2.47,2.47,0,1,0,2.47-2.47,2.46,2.46,0,0,0-2.47,2.47m19.09,0h0a2.48,2.48,0,1,0,2.48-2.47,2.48,2.48,0,0,0-2.48,2.47m19.09,0h0a2.48,2.48,0,1,0,2.47-2.47,2.48,2.48,0,0,0-2.47,2.47m19.09,0h0A2.48,2.48,0,1,0,117,95.44a2.49,2.49,0,0,0-2.48,2.47m19.08,0h0a2.48,2.48,0,1,0,2.48-2.47,2.48,2.48,0,0,0-2.48,2.47m19.09,0h0a2.48,2.48,0,1,0,2.47-2.47,2.48,2.48,0,0,0-2.47,2.47m19.09,0h0a2.48,2.48,0,1,0,2.47-2.47,2.48,2.48,0,0,0-2.47,2.47M0,97.91a2.48,2.48,0,1,0,2.48-2.47A2.48,2.48,0,0,0,0,97.91M0,78.82a2.48,2.48,0,1,0,2.48-2.47A2.48,2.48,0,0,0,0,78.82m19.09,0h0a2.48,2.48,0,1,0,2.47-2.47,2.48,2.48,0,0,0-2.47,2.47m19.09,0h0a2.48,2.48,0,1,0,2.47-2.47,2.47,2.47,0,0,0-2.47,2.47m19.08,0h0a2.47,2.47,0,1,0,2.47-2.47,2.47,2.47,0,0,0-2.47,2.47m19.09,0h0a2.48,2.48,0,1,0,2.47-2.47,2.48,2.48,0,0,0-2.47,2.47m19.09,0a2.48,2.48,0,1,0,2.47-2.47,2.48,2.48,0,0,0-2.47,2.47m19.08,0A2.48,2.48,0,1,0,117,76.35a2.48,2.48,0,0,0-2.48,2.47m19.09,0a2.48,2.48,0,1,0,2.48-2.47,2.48,2.48,0,0,0-2.48,2.47m19.09,0a2.48,2.48,0,1,0,2.47-2.47,2.48,2.48,0,0,0-2.47,2.47m19.09,0a2.48,2.48,0,1,0,2.47-2.47,2.47,2.47,0,0,0-2.47,2.47M0,59.74a2.48,2.48,0,1,0,2.48-2.48A2.48,2.48,0,0,0,0,59.74m19.09,0h0a2.48,2.48,0,1,0,2.47-2.48,2.48,2.48,0,0,0-2.47,2.48m19.09,0h0a2.48,2.48,0,1,0,2.47-2.48,2.47,2.47,0,0,0-2.47,2.48m19.08,0h0a2.47,2.47,0,1,0,2.47-2.48,2.47,2.47,0,0,0-2.47,2.48m19.09,0h0a2.48,2.48,0,1,0,2.48-2.48,2.48,2.48,0,0,0-2.48,2.48m19.09,0h0a2.48,2.48,0,1,0,2.47-2.48,2.48,2.48,0,0,0-2.47,2.48m19.09,0h0A2.48,2.48,0,1,0,117,57.26a2.48,2.48,0,0,0-2.48,2.48m19.08,0h0a2.48,2.48,0,1,0,2.48-2.48,2.48,2.48,0,0,0-2.48,2.48m19.09,0h0a2.48,2.48,0,1,0,2.47-2.48,2.48,2.48,0,0,0-2.47,2.48m19.09,0h0a2.48,2.48,0,1,0,2.47-2.48,2.48,2.48,0,0,0-2.47,2.48M0,40.65a2.48,2.48,0,1,0,2.48-2.47A2.48,2.48,0,0,0,0,40.65m19.09,0h0a2.48,2.48,0,1,0,2.47-2.47,2.48,2.48,0,0,0-2.47,2.47m19.09,0h0a2.48,2.48,0,1,0,2.47-2.47,2.47,2.47,0,0,0-2.47,2.47m19.08,0h0a2.47,2.47,0,1,0,2.47-2.47,2.48,2.48,0,0,0-2.47,2.47m19.09,0h0a2.48,2.48,0,1,0,2.48-2.47,2.48,2.48,0,0,0-2.48,2.47m19.09,0a2.48,2.48,0,1,0,2.47-2.47,2.48,2.48,0,0,0-2.47,2.47m19.09,0h0A2.48,2.48,0,1,0,117,38.18a2.49,2.49,0,0,0-2.48,2.47m19.08,0h0a2.48,2.48,0,1,0,2.48-2.47,2.48,2.48,0,0,0-2.48,2.47m19.09,0a2.48,2.48,0,1,0,2.47-2.47,2.48,2.48,0,0,0-2.47,2.47m19.09,0a2.48,2.48,0,1,0,2.47-2.47,2.48,2.48,0,0,0-2.47,2.47M0,21.56a2.48,2.48,0,1,0,2.48-2.47A2.48,2.48,0,0,0,0,21.56m19.09,0h0a2.48,2.48,0,1,0,2.47-2.47,2.48,2.48,0,0,0-2.47,2.47m19.09,0h0a2.48,2.48,0,1,0,2.47-2.47,2.47,2.47,0,0,0-2.47,2.47m19.08,0h0a2.47,2.47,0,1,0,2.47-2.47,2.47,2.47,0,0,0-2.47,2.47m19.09,0h0a2.48,2.48,0,1,0,2.48-2.47,2.48,2.48,0,0,0-2.48,2.47m19.09,0h0a2.48,2.48,0,1,0,2.47-2.47,2.48,2.48,0,0,0-2.47,2.47m19.09,0h0A2.48,2.48,0,1,0,117,19.09a2.49,2.49,0,0,0-2.48,2.47m19.08,0h0a2.48,2.48,0,1,0,2.48-2.47,2.48,2.48,0,0,0-2.48,2.47m19.09,0h0a2.48,2.48,0,1,0,2.47-2.47,2.48,2.48,0,0,0-2.47,2.47m19.09,0h0a2.48,2.48,0,1,0,2.47-2.47,2.48,2.48,0,0,0-2.47,2.47M2.47,0A2.48,2.48,0,1,0,5,2.47,2.48,2.48,0,0,0,2.47,0h0M19.09,2.48A2.48,2.48,0,1,0,21.56,0a2.48,2.48,0,0,0-2.47,2.48m19.09,0h0A2.48,2.48,0,1,0,40.65,0a2.47,2.47,0,0,0-2.47,2.48m19.08,0h0A2.47,2.47,0,1,0,59.74,0a2.47,2.47,0,0,0-2.47,2.48M78.82,0a2.48,2.48,0,0,0,0,5h0a2.48,2.48,0,0,0,0-4.95h0M95.44,2.48A2.48,2.48,0,1,0,97.91,0a2.48,2.48,0,0,0-2.47,2.48m19.08,0A2.48,2.48,0,1,0,117,0a2.48,2.48,0,0,0-2.48,2.48M136.09,0a2.48,2.48,0,1,0,0,5h0a2.48,2.48,0,0,0,0-4.95h0M152.7,2.48A2.48,2.48,0,1,0,155.17,0a2.48,2.48,0,0,0-2.47,2.48m19.09,0A2.48,2.48,0,1,0,174.26,0a2.47,2.47,0,0,0-2.47,2.48"/></clipPath><mask id="mask" x="0" y="0" width="342.01" height="342.01" maskUnits="userSpaceOnUse"><g transform="translate(82.64 82.64)"><rect class="cls-1" x="-34.56" y="-34.56" width="245.86" height="245.86" transform="translate(-34.56 65.86) rotate(-34.63)"/></g></mask><linearGradient id="linear-gradient-2" x1="4707.34" y1="8338.56" x2="4708.19" y2="8338.56" gradientTransform="translate(3399697.8 -1919304.18) rotate(90) scale(407.7)" gradientUnits="userSpaceOnUse"><stop offset="0" stop-color="#51ab47"/><stop offset="1" stop-color="#51ab47"/></linearGradient></defs><g id="Capa_2" data-name="Capa 2"><g id="Layer_1" data-name="Layer 1"><g class="cls-3"><g class="cls-4"><rect class="cls-5" x="-34.56" y="-34.56" width="245.86" height="245.86" transform="translate(48.08 148.5) rotate(-34.63)"/></g></g></g></g></svg>