<?xml version="1.0" encoding="utf-8"?>
<!-- Generator: Adobe Illustrator 24.3.0, SVG Export Plug-In . SVG Version: 6.00 Build 0)  -->
<svg version="1.1" id="Capa_1" xmlns="http://www.w3.org/2000/svg" xmlns:xlink="http://www.w3.org/1999/xlink" x="0px" y="0px"
	 viewBox="0 0 108.3 61.7" style="enable-background:new 0 0 108.3 61.7;" xml:space="preserve">
<style type="text/css">
	.st0{fill:#E52439;}
	.st1{fill-rule:evenodd;clip-rule:evenodd;fill:#FBED1D;}
</style>
<g>
	<g>
		<path class="st0" d="M100,60.6c0,0-0.1,0-0.1,0c-1,0-2-0.3-2.7-1c-0.8-0.8-1.2-1.7-1.2-2.7l-0.2-22.7c-0.1-1,0.3-2,1.1-2.7
			c0,0,0,0,0,0c0.8-0.7,1.7-1.1,2.7-1.1c1,0,1.9,0.3,2.7,1c0.8,0.7,1.2,1.7,1.2,2.7l0.2,22.7c0.1,1-0.3,1.9-1.1,2.7
			C101.9,60.2,101,60.6,100,60.6z M100,58.6c0.5,0,0.9-0.1,1.3-0.5c0.2-0.2,0.5-0.6,0.5-1.2l-0.2-22.7c0-0.5-0.2-0.9-0.5-1.2
			c-0.4-0.4-0.8-0.5-1.3-0.5c-0.6,0-1,0.2-1.4,0.5c-0.3,0.3-0.5,0.7-0.4,1.2l0.2,22.7c0,0.5,0.2,0.9,0.5,1.2
			C98.9,58.4,99.4,58.6,100,58.6z"/>
	</g>
	<g>
		<path class="st1" d="M97.7,32.2c0.6-0.5,1.3-0.8,2-0.8c0.8,0,1.5,0.2,2.1,0.8c0.5,0.5,0.8,1.2,0.8,2l0.2,22.7c0,0.7-0.3,1.4-0.8,2
			c-0.6,0.5-1.2,0.8-2,0.8c-0.8,0-1.5-0.3-2.1-0.7c-0.6-0.6-0.8-1.2-0.8-2l-0.2-22.7C96.8,33.5,97.1,32.8,97.7,32.2L97.7,32.2z"/>
	</g>
	<g>
		<path class="st0" d="M64.6,31C64.5,31,64.5,31,64.6,31c-1.1,0-2-0.4-2.7-1c-0.8-0.8-1.2-1.7-1.2-2.7l-0.1-13.6l-0.7,0
			c-0.9,0-1.6-0.3-2.3-1c-0.6-0.7-1-1.4-1-2.4c0-0.9,0.3-1.7,1-2.3c0.6-0.7,1.4-1,2.3-1c0,0,0,0,0,0l0.7,0l0-1.5
			c0-1.1,0.4-2,1.2-2.7c0.8-0.8,1.7-1.1,2.7-1.1c0,0,0,0,0,0c1,0,1.9,0.3,2.7,1c0.8,0.8,1.1,1.6,1.2,2.6l0,1.5l0.6,0
			c0.9,0,1.7,0.3,2.4,1c0.6,0.6,0.9,1.4,1,2.3c0,0.9-0.3,1.7-0.9,2.4c-0.7,0.7-1.4,1-2.4,1l-0.7,0l0.1,13.7c0,1-0.4,1.9-1.2,2.6
			C66.5,30.6,65.5,31,64.6,31z M59.7,11.6l1.3,0c0,0,0.1,0,0.1,0c1,0.1,1.3,0.8,1.3,1.5l0.1,14.2c0,0.5,0.2,0.9,0.6,1.2
			c0.3,0.3,0.8,0.5,1.3,0.5c0.5,0,0.9-0.2,1.3-0.5c0.4-0.4,0.5-0.7,0.5-1.2l-0.1-14.2c0-0.5,0.2-0.9,0.5-1.1c0.2-0.2,0.5-0.4,1-0.3
			l1.2,0c0.4,0,0.7-0.1,0.9-0.4c0.2-0.3,0.4-0.6,0.3-1c0-0.4-0.1-0.6-0.4-0.9c-0.3-0.3-0.6-0.4-0.9-0.4l-1.2,0.1c-0.1,0-0.1,0-0.2,0
			c-0.8-0.1-1.3-0.7-1.3-1.5l0-2c0-0.5-0.2-0.9-0.6-1.2c-0.4-0.3-0.8-0.5-1.3-0.5c-0.5,0-0.9,0.2-1.3,0.5c-0.4,0.3-0.5,0.7-0.5,1.2
			l0,2c0,0.4-0.1,0.8-0.4,1.1c-0.2,0.2-0.5,0.4-1,0.4l-1.3,0c-0.4,0-0.6,0.1-0.9,0.4c-0.3,0.3-0.4,0.5-0.4,0.9c0,0.4,0.1,0.7,0.4,1
			C59.1,11.5,59.4,11.6,59.7,11.6z M60.5,13C60.5,13,60.5,13,60.5,13L60.5,13z M68.2,7.4L68.2,7.4C68.2,7.4,68.2,7.4,68.2,7.4z
			 M61,6.9C61,6.9,61,6.9,61,6.9L61,6.9C61,6.9,61,6.9,61,6.9z"/>
	</g>
	<g>
		<path class="st1" d="M59.7,7.9l1.3,0c0.3,0,0.4-0.2,0.4-0.4l0-2.1c0-0.8,0.3-1.4,0.8-1.9c0.6-0.5,1.2-0.9,2-0.8
			c0.8,0,1.5,0.2,2.1,0.8c0.5,0.5,0.8,1.2,0.9,1.9l0,2.1c0,0.3,0.1,0.4,0.4,0.5l1.3-0.1c0.6,0,1.2,0.2,1.6,0.7
			c0.5,0.5,0.7,1,0.7,1.6c0,0.6-0.2,1.2-0.6,1.7c-0.5,0.5-1,0.7-1.6,0.7l-1.3,0c-0.3,0-0.4,0.1-0.4,0.4l0.1,14.3
			c0,0.8-0.3,1.4-0.9,1.9c-0.6,0.5-1.2,0.9-2,0.8c-0.8,0-1.5-0.3-2-0.8c-0.6-0.5-0.9-1.2-0.9-2L61.5,13c0-0.3-0.1-0.4-0.4-0.4
			l-1.3,0c-0.6,0-1.1-0.2-1.6-0.7c-0.5-0.5-0.7-1-0.7-1.7c0-0.6,0.2-1.1,0.7-1.6C58.6,8.1,59.1,8,59.7,7.9L59.7,7.9z"/>
	</g>
	<g>
		<path class="st0" d="M5.9,31.6c-1,0-1.9-0.4-2.6-1.1c-0.8-0.8-1.2-1.7-1.1-2.7L2,5.2C2,4.2,2.3,3.3,3,2.6c0.7-0.7,1.6-1.1,2.5-1.2
			c3.7-0.3,6.5-0.3,8.6,0.1c2,0.2,3.6,0.9,5,2.1c1.4,1.1,2.4,2.6,3.1,4.4c0.4,1.5,0.6,2.9,0.6,4.2c0.1,3.5-0.8,6.3-2.7,8.1
			c-2,2-5,2.9-9.1,2.8l-1.2-0.1l0,4.8c0.1,0.9-0.3,1.9-1.1,2.7c-0.8,0.8-1.7,1.2-2.7,1.1C6,31.6,6,31.6,5.9,31.6z M5.6,3.4
			C5.2,3.4,4.8,3.6,4.5,4c0,0,0,0,0,0C4.1,4.4,4,4.7,4,5.2l0.2,22.7c0,0.5,0.2,0.9,0.6,1.3c0.3,0.3,0.7,0.5,1.2,0.5c0,0,0,0,0.1,0
			c0.5,0,0.9-0.2,1.3-0.6c0.3-0.3,0.5-0.7,0.5-1.1l0-5.4c0-0.9,0.6-1.5,1.4-1.5c0,0,0,0,0,0l1.9,0.1c3.5,0.1,6-0.6,7.6-2.2
			c1.5-1.4,2.2-3.7,2.1-6.7c0-1.1-0.2-2.3-0.5-3.6c-0.5-1.4-1.3-2.6-2.5-3.5c-1.1-0.9-2.4-1.5-4-1.7c0,0,0,0-0.1,0
			c-1.9-0.4-4.6-0.4-8.1-0.1C5.7,3.4,5.7,3.4,5.6,3.4C5.6,3.4,5.6,3.4,5.6,3.4z M3.8,3.3L3.8,3.3L3.8,3.3z M10.5,17.4
			C10.5,17.4,10.5,17.4,10.5,17.4l-0.9,0c-1.1-0.1-1.8-0.8-1.8-1.8L7.7,9c0-0.7,0.2-1.3,0.7-1.7c0.4-0.4,1-0.7,1.6-0.7l1-0.1
			c0.1,0,0.1,0,0.2,0l0.5,0c1.5,0,2.7,0.6,3.8,1.6c1.1,1.1,1.6,2.4,1.6,3.8c0,1.4-0.3,2.5-1.1,3.5c-0.8,1-2,1.6-3.4,1.8
			c0,0-0.1,0-0.1,0L10.5,17.4C10.6,17.4,10.6,17.4,10.5,17.4z M9.8,15.5L9.8,15.5L9.8,15.5z M9.8,15.3l0.7,0l1.7-0.1
			c0.9-0.1,1.6-0.5,2.1-1.1c0.5-0.6,0.7-1.3,0.7-2.2c0-1-0.4-1.8-1-2.5c-0.7-0.6-1.4-1-2.4-1c0,0,0,0-0.1,0l-0.4,0l-0.9,0.1
			c-0.2,0-0.3,0.1-0.3,0.1c0,0,0,0-0.1,0.1c0,0-0.1,0,0,0.2c0,0,0,0,0,0L9.8,15.3z M9.6,15.3L9.6,15.3L9.6,15.3z"/>
	</g>
	<g>
		<path class="st1" d="M3.8,3.3c0.5-0.5,1.2-0.9,1.9-0.9c3.5-0.3,6.3-0.3,8.4,0.1c1.8,0.2,3.3,0.8,4.5,1.9c1.3,1,2.2,2.3,2.8,4
			c0.4,1.3,0.6,2.6,0.6,3.8c0.1,6.8-3.4,10.1-10.8,9.9L9.3,22c-0.3,0-0.4,0.2-0.4,0.5l0,5.3c0,0.7-0.3,1.4-0.8,1.9
			c-0.6,0.5-1.2,0.9-2,0.8c-0.8,0-1.5-0.2-2-0.8c-0.6-0.6-0.9-1.2-0.9-2L3,5.2C3,4.5,3.2,3.8,3.8,3.3L3.8,3.3z M8.7,9l0.1,6.6
			c0,0.5,0.3,0.7,0.8,0.8l0.9,0l1.8-0.1c1.2-0.2,2.1-0.7,2.7-1.5c0.6-0.8,0.9-1.7,0.9-2.9c0-1.2-0.5-2.3-1.3-3.1
			c-0.9-0.9-1.9-1.3-3.1-1.3l-0.5,0l-1,0.1c-0.4,0-0.7,0.2-1,0.4C8.9,8.2,8.7,8.6,8.7,9L8.7,9z"/>
	</g>
	<g>
		<path class="st0" d="M43.9,36.4c-0.9,0-1.8-0.4-2.5-1c-0.8-0.8-1.1-1.7-1.1-2.7L40,11.5c0-2.3,1.1-3.7,3.3-4.1c0,0,0,0,0.1,0
			c3.2-0.4,6-0.3,8.4,0.2c1.8,0.3,3.3,1.1,4.6,2.4c1.4,1.3,2.4,2.9,2.8,4.8c0.3,1.5,0.5,2.9,0.6,4.4C60,23,59.1,26,57.3,28
			c-1.8,2-4.6,3.1-8.2,3.2l-1.1,0l0,1.5c0,1-0.4,2-1.1,2.7c-0.8,0.7-1.7,1.1-2.7,1.1C44.1,36.4,44,36.4,43.9,36.4z M43.7,9.4
			c-1.2,0.2-1.7,0.8-1.7,2.1l0.3,21.1c0,0.5,0.2,0.9,0.6,1.3c0.3,0.3,0.7,0.5,1.2,0.4c0.6,0,1-0.2,1.4-0.5c0.4-0.4,0.5-0.9,0.5-1.2
			l0-2c0-0.9,0.6-1.5,1.4-1.5l1.8,0.1c3-0.1,5.3-0.9,6.7-2.5c1.5-1.6,2.2-4.1,2.1-7.4c0-1.4-0.2-2.7-0.5-4c-0.4-1.5-1.1-2.8-2.3-3.8
			c-1.1-1-2.2-1.6-3.6-1.9C49.3,9.1,46.7,9.1,43.7,9.4z M48.5,25.3C48.5,25.3,48.5,25.3,48.5,25.3l-1-0.1c-1-0.1-1.6-0.8-1.7-1.8
			l-0.1-7.8c0-0.7,0.2-1.3,0.6-1.8c0,0,0,0,0.1-0.1c0.4-0.4,0.9-0.6,1.4-0.7c0,0,0.1,0,0.1,0l0.9-0.1c0.1,0,0.1,0,0.2,0l0.4,0
			c1.4,0,2.6,0.6,3.5,1.8c0.8,1.2,1.2,2.5,1.2,4.1c0,1.5-0.2,2.7-0.8,3.9c-0.7,1.3-1.7,2.1-2.9,2.3c0,0-0.1,0-0.1,0l-1.7,0.2
			C48.6,25.3,48.5,25.3,48.5,25.3z M50.2,24.2L50.2,24.2L50.2,24.2z M47.9,23.3l0.6,0.1l1.5-0.2c0.4-0.1,1-0.4,1.5-1.3
			c0.4-0.8,0.6-1.7,0.6-2.9c0-1.2-0.3-2.1-0.8-2.9c-0.5-0.7-1.1-1-1.9-1c0,0,0,0-0.1,0L49,15l-0.8,0.1c-0.1,0-0.2,0.1-0.3,0.2
			c0,0-0.1,0.1-0.1,0.3L47.9,23.3z"/>
	</g>
	<g>
		<path class="st1" d="M49.4,14.1L49,14l-0.9,0.1c-0.3,0.1-0.6,0.2-0.9,0.5c-0.3,0.3-0.4,0.6-0.3,1.1l0.1,7.7c0,0.5,0.3,0.8,0.8,0.9
			l0.9,0.1l1.7-0.2c0.9-0.2,1.7-0.8,2.2-1.8c0.5-1,0.8-2.1,0.7-3.4c0-1.4-0.3-2.5-1-3.5C51.4,14.5,50.5,14.1,49.4,14.1L49.4,14.1z
			 M43.5,8.4c3.1-0.4,5.9-0.3,8.1,0.2c1.6,0.3,2.9,1,4.1,2.1c1.3,1.1,2.1,2.6,2.6,4.4c0.3,1.4,0.5,2.8,0.5,4.2
			c0.2,7.1-3.1,10.8-9.8,10.9l-1.7-0.1c-0.3,0-0.4,0.2-0.4,0.5l0,2c0,0.7-0.3,1.4-0.8,2c-0.6,0.5-1.3,0.8-2,0.8
			c-0.8,0-1.4-0.2-2-0.8c-0.5-0.6-0.8-1.2-0.8-2L41,11.5C41,9.8,41.8,8.7,43.5,8.4L43.5,8.4z"/>
	</g>
	<g>
		<path class="st0" d="M31.7,32.3c-3,0-5.6-1.2-7.8-3.7c-2.1-2.5-3.3-5.4-3.3-8.9c0-3.3,1-6.3,2.9-8.7c2-2.5,4.5-3.9,7.5-4
			c0.3,0,1.7-0.1,3.7,0.6c2.2,0.8,3.9,2.3,5.2,4.6c1.1,2.2,1.6,4.5,1.6,7.1c0,0,0,0,0,0c0,0.7-0.3,1.4-0.8,2c-0.5,0.5-1,0.8-1.6,0.9
			c0.4,0.2,0.9,0.5,1.3,0.8c0.6,0.7,1,1.4,1,2.2c0.1,0.8-0.1,1.6-0.6,2.4c-0.9,1.3-2.1,2.4-3.8,3.2C35.4,31.8,33.6,32.3,31.7,32.3
			C31.7,32.3,31.7,32.3,31.7,32.3z M31.5,9c-0.2,0-0.3,0-0.3,0c0,0-0.1,0-0.1,0c-2.5,0.1-4.4,1.2-6.1,3.2c-1.7,2.1-2.5,4.6-2.5,7.5
			c0,3,1,5.5,2.8,7.6c1.8,2,3.9,3,6.3,3c0,0,0,0,0,0c1.6,0,3-0.4,4.3-1.1c1.4-0.7,2.3-1.5,3-2.6c0.2-0.3,0.3-0.6,0.2-0.9
			c0,0,0-0.1,0-0.1c0-0.4-0.2-0.7-0.5-1c-0.3-0.3-0.7-0.5-1.1-0.5c0,0,0,0,0,0c-0.4,0-0.7,0.1-1,0.4l-0.1,0.1
			c-0.7,1.1-2,2.4-4.8,2.5c-1.9,0.1-4.4-0.6-5.5-4.9c0-0.1,0-0.1,0-0.2c0-0.5,0.2-0.9,0.4-1.1c0.2-0.2,0.5-0.4,1.1-0.4l10.7-0.1
			c0.3,0,0.4-0.1,0.6-0.3c0.3-0.3,0.3-0.5,0.3-0.7c0-2.3-0.4-4.3-1.3-6.2c-1-1.8-2.3-3-4.1-3.6C32.8,9.1,31.9,9,31.5,9z M28.5,22.4
			c0.8,2.4,2.1,2.7,3.2,2.6c0,0,0,0,0.1,0c1.6,0,2.6-0.5,3.2-1.6c0-0.1,0.1-0.2,0.2-0.2l0.2-0.2c0.3-0.3,0.6-0.5,1-0.7L28.5,22.4z
			 M27.8,22.4L27.8,22.4C27.8,22.4,27.8,22.4,27.8,22.4C27.8,22.4,27.8,22.4,27.8,22.4z M40.4,19.4L40.4,19.4L40.4,19.4z M28.3,17.8
			c-0.9,0-1.6-0.6-1.7-1.6c0-0.1,0-0.3,0.1-0.4l0.1-0.3c0-0.1,0-0.1,0.1-0.1c1.1-2,1.6-2.9,4.3-3c2.8-0.1,3.8,1.3,4.5,3.3
			c0,0.1,0.1,0.2,0.1,0.4l0,0.1c0,0.4-0.1,0.8-0.4,1.1c-0.3,0.3-0.7,0.5-1.2,0.5L28.3,17.8C28.3,17.8,28.3,17.8,28.3,17.8z
			 M33.7,16.2L33.7,16.2L33.7,16.2z M31.3,14.3c-0.1,0-0.1,0-0.2,0c-1.4,0-1.6,0.1-2.3,1.4l4.7,0C33,14.6,32.5,14.3,31.3,14.3z"/>
	</g>
	<g>
		<path class="st1" d="M34.7,16.1l0-0.2c-0.6-1.9-1.4-2.6-3.6-2.6c-2.1,0-2.4,0.6-3.4,2.4L27.6,16c0,0.5,0.2,0.7,0.7,0.7l5.8,0
			C34.5,16.7,34.7,16.5,34.7,16.1L34.7,16.1z M40.4,19.4c0,0.5-0.2,0.9-0.6,1.3c-0.4,0.4-0.8,0.6-1.3,0.6l-10.8,0.1
			c-0.3,0-0.5,0.1-0.4,0.4c0.8,3,2.2,4.3,4.5,4.2c1.9,0,3.3-0.7,4-2.1l0.2-0.2c0.5-0.5,1-0.7,1.7-0.7c0.7,0,1.3,0.3,1.8,0.8
			c0.4,0.5,0.7,1,0.7,1.7c0.1,0.6,0,1.2-0.4,1.7c-0.8,1.3-2,2.2-3.4,2.9c-1.5,0.8-3.1,1.2-4.8,1.2c-2.7,0-5.1-1.1-7.1-3.3
			c-2-2.3-3-5-3-8.2c0-3.1,0.9-5.8,2.7-8.1C26.1,9.3,28.7,8,31.1,8c2.3,0,3.3,0.5,3.3,0.5c2,0.7,3.5,2.1,4.6,4.1
			C40,14.7,40.5,16.8,40.4,19.4L40.4,19.4z"/>
	</g>
	<g>
		<path class="st0" d="M78.7,31.8c-1.7,0-2.5-0.4-3.3-0.7c-0.3-0.1-0.6-0.3-0.9-0.4c-1.5-0.5-2.6-1.7-3.4-2.8
			c-0.9-1.1-1.6-2.5-1.9-4c-0.3-1.4-0.5-3-0.5-4.6c0-1.6,0.1-3.1,0.4-4.6c0.3-1.5,1-2.9,1.9-4.1c0.9-1.2,2-2.1,3.2-2.8
			c4.7-2.4,10.2-1.3,13.4,2.6l0,0c0.9,1.2,1.6,2.5,2,4c0.3,1.5,0.5,3.1,0.5,4.6c0,1.7-0.2,3.2-0.5,4.7c-0.3,1.5-0.9,2.8-1.9,4.1
			c-0.8,1.2-1.9,2.1-3.2,2.8c-1.5,0.8-2.2,1.1-5,1.3C79.1,31.8,78.9,31.8,78.7,31.8z M79.3,8.5c-1.4,0-2.9,0.3-4.3,1.1
			c-1,0.5-1.8,1.2-2.5,2.2c-0.7,1-1.2,2.1-1.5,3.3c-0.3,1.3-0.4,2.7-0.4,4.2c0,1.5,0.2,2.9,0.5,4.2c0.3,1.3,0.8,2.3,1.5,3.2
			c0.7,0.9,1.5,1.8,2.5,2.1c0.4,0.2,0.8,0.3,1.1,0.5c0.8,0.4,1.4,0.6,3.1,0.5c2.4-0.1,2.8-0.3,4.2-1c1-0.5,1.9-1.2,2.5-2.2
			c0.8-1.1,1.3-2.1,1.6-3.3c0.3-1.3,0.4-2.7,0.4-4.3c0-1.4-0.2-2.8-0.5-4.2c-0.3-1.2-0.8-2.2-1.6-3.2l0,0
			C84.2,9.6,81.8,8.5,79.3,8.5z M78.9,26.2c-2.2,0-3.8-1.3-4.3-3.7c-0.3-0.9-0.4-2.1-0.4-3.4c0-1.2,0.1-2.4,0.3-3.4
			c0.5-2.5,2.2-3.8,4.6-3.8c2.4-0.2,4,1.1,4.7,3.6c0.3,1.3,0.4,2.3,0.4,3.5c0,1.4-0.1,2.4-0.3,3.4c-0.5,2.5-2.1,3.9-4.6,3.8
			C79.1,26.2,79,26.2,78.9,26.2z M79,14c-1.4,0-2.2,0.7-2.5,2.2c-0.2,0.9-0.3,1.9-0.3,3c0,1.1,0.1,2,0.4,2.9
			c0.4,1.7,1.1,2.3,2.6,2.2c0,0,0.1,0,0.1,0c1.5,0.1,2.3-0.6,2.6-2.2c0.2-0.8,0.3-1.7,0.3-3c0-1-0.1-1.9-0.3-3
			c-0.4-1.6-1.2-2.2-2.6-2.1c0,0-0.1,0-0.1,0C79.1,14,79,14,79,14z"/>
	</g>
	<g>
		<path class="st1" d="M86.6,11c0.9,1.1,1.5,2.3,1.8,3.6c0.3,1.4,0.5,2.9,0.5,4.4c0,1.6-0.2,3.1-0.4,4.5c-0.3,1.4-0.9,2.6-1.7,3.7
			c-0.8,1.1-1.7,1.9-2.9,2.5c-1.4,0.7-2.9,1.3-4.6,1.1c-1.6-0.2-3.1-0.6-4.6-1.1c-1.2-0.4-2.1-1.4-3-2.4c-0.9-1.1-1.4-2.3-1.7-3.6
			c-0.3-1.4-0.5-2.8-0.5-4.4c0-1.5,0.1-3,0.4-4.4c0.3-1.4,0.8-2.6,1.7-3.7c0.8-1.1,1.7-1.9,2.9-2.5C78.5,6.6,83.7,7.3,86.6,11
			L86.6,11z M79.3,25.2c2,0.1,3.2-0.9,3.6-3c0.2-0.9,0.3-1.9,0.3-3.1c0-1.2-0.1-2.3-0.4-3.2c-0.5-2-1.7-3-3.7-2.9
			c-2-0.1-3.2,0.9-3.7,3c-0.2,0.9-0.3,2-0.3,3.2c0,1.2,0.1,2.2,0.4,3.2C76.1,24.4,77.3,25.4,79.3,25.2L79.3,25.2z"/>
	</g>
	<g>
		<path class="st0" d="M85.8,61.4c-1.7,0-3-0.3-4.5-1.2c-1.3-0.7-2.4-1.6-3.3-2.7c-0.9-1.2-1.6-2.5-1.9-4c-0.3-1.6-0.5-3.1-0.5-4.6
			c0-1.6,0.2-3.2,0.5-4.7c0.3-1.6,0.9-2.9,1.8-4c0.9-1.2,2-2.2,3.3-2.8c0,0,0,0,0,0c4.7-2.3,10.3-1.2,13.4,2.6
			c0.9,1.2,1.6,2.5,1.9,4c0.4,1.5,0.6,3.1,0.6,4.6c0,1.4-0.1,2.9-0.5,4.6c-0.3,1.5-1,2.9-1.9,4.1c-0.9,1.2-2,2.1-3.3,2.8
			c-1.6,0.8-2.7,1.2-5,1.3C86.1,61.4,86,61.4,85.8,61.4z M82,39.2c-1,0.5-1.9,1.2-2.6,2.2c-0.7,0.9-1.1,1.9-1.4,3.2
			c-0.3,1.4-0.4,2.8-0.5,4.2c0,1.4,0.2,2.7,0.5,4.2c0.3,1.2,0.8,2.2,1.6,3.2c0.8,0.9,1.6,1.7,2.7,2.2c1.4,0.7,2.4,1,4,0.9
			c2.1-0.1,2.8-0.4,4.2-1.1c1-0.5,1.9-1.3,2.6-2.2c0.7-0.9,1.2-2,1.5-3.3c0.3-1.5,0.4-2.9,0.4-4.2c0-1.4-0.2-2.8-0.5-4.2
			c-0.3-1.2-0.8-2.3-1.5-3.2C90.4,38.1,85.8,37.2,82,39.2z M86,55.9c-2.3,0-3.8-1.3-4.4-3.7c-0.3-1.2-0.4-2.3-0.4-3.4
			c0-1.4,0.1-2.4,0.3-3.4c0.5-2.5,2.1-3.7,4.6-3.8c2.5,0,4.1,1.2,4.7,3.6c0,0,0,0,0,0c0.2,1.1,0.4,2.2,0.4,3.4
			c0,1.2-0.1,2.4-0.3,3.4c-0.5,2.5-2.2,3.9-4.6,3.8C86.2,55.9,86.1,55.9,86,55.9z M86.3,43.6C86.2,43.6,86.2,43.6,86.3,43.6
			c-1.7,0-2.4,0.6-2.7,2.2c-0.2,0.8-0.3,1.7-0.3,3c0,1,0.1,1.9,0.3,3c0.4,1.5,1.2,2.2,2.7,2.1c0,0,0.1,0,0.1,0
			c1.5,0.1,2.3-0.6,2.6-2.2c0.2-0.9,0.3-1.9,0.3-3c0-1-0.1-2-0.3-2.9C88.5,44.2,87.8,43.6,86.3,43.6z"/>
	</g>
	<g>
		<path class="st1" d="M81.5,38.3c4-2,9.2-1.3,12.1,2.3c0.9,1.1,1.4,2.3,1.7,3.6c0.3,1.4,0.5,2.9,0.5,4.4c0,1.5-0.2,3-0.4,4.4
			c-0.3,1.4-0.8,2.6-1.7,3.7c-0.8,1.1-1.8,1.9-2.9,2.5c-1.4,0.7-2.4,1.2-4.6,1.2c-2.5,0-3.1-0.3-4.6-1c-1.2-0.6-2.1-1.4-3-2.5
			c-0.8-1.1-1.4-2.2-1.7-3.6c-0.3-1.4-0.5-2.8-0.5-4.4c0-1.6,0.2-3,0.5-4.5c0.3-1.4,0.8-2.5,1.6-3.6C79.4,39.7,80.4,38.9,81.5,38.3
			L81.5,38.3z M89.9,45.5c-0.5-2.1-1.7-2.9-3.7-2.9c-2,0-3.2,0.9-3.6,3c-0.2,0.9-0.3,1.9-0.3,3.1c0,1.2,0.1,2.3,0.4,3.2
			c0.5,2,1.7,3,3.7,2.9c2,0.1,3.2-0.9,3.6-3c0.2-0.9,0.3-2,0.3-3.2C90.2,47.5,90.1,46.4,89.9,45.5L89.9,45.5z"/>
	</g>
	<g>
		<path class="st0" d="M53,61.1c-1.1,0-2-0.4-2.8-1.1c-0.7-0.7-1.1-1.6-1.1-2.6l-0.2-13.7c0-1.1,0.2-2,0.6-2.9
			c0.8-1.9,2.3-3.3,4.4-4c2.1-0.7,4.3-0.5,6.3,0.4c0.8,0.4,1.5,0.8,2.1,1.3c0.6-0.5,1.3-1,2.1-1.4c2.1-1,4.2-1.2,6.3-0.6
			c2.1,0.7,3.7,2,4.6,3.9c0.4,0.9,0.6,1.9,0.6,2.9l0.2,13.7c0,0,0,0,0,0c0,1-0.4,1.9-1.2,2.6c-0.8,0.7-1.6,1.1-2.7,1.1
			c-1.1,0-2-0.3-2.8-1c-0.7-0.7-1.1-1.6-1.2-2.6l-0.1-12.1c0-0.4-0.2-0.6-0.3-0.7c-0.3-0.3-0.5-0.3-0.7-0.3c-0.3,0-0.5,0.1-0.7,0.3
			c-0.2,0.2-0.3,0.6-0.3,0.8l0.1,12c0,1.1-0.4,2-1.2,2.7c-0.7,0.7-1.6,1.1-2.7,1.1c-1.1,0-2-0.3-2.8-1.1c-0.7-0.7-1.1-1.6-1.1-2.7
			l-0.1-12c0-0.3-0.1-0.5-0.3-0.7c-0.3-0.3-0.5-0.3-0.7-0.3c-0.4,0-0.6,0.2-0.7,0.3c-0.3,0.3-0.3,0.5-0.3,0.7l0.1,12.1
			c0,1.1-0.4,2-1.2,2.7C54.9,60.7,54,61.1,53,61.1z M56.6,38.4c-0.7,0-1.3,0.1-2,0.3c-1.6,0.6-2.6,1.5-3.2,2.9
			c-0.3,0.6-0.4,1.3-0.4,2.1l0.2,13.7c0,0.5,0.2,0.9,0.5,1.2c0.4,0.4,0.8,0.5,1.4,0.5c0.5,0,0.9-0.2,1.3-0.5
			c0.4-0.3,0.5-0.7,0.5-1.2l-0.1-12c0-0.8,0.3-1.6,0.8-2.2c0.5-0.5,1.2-0.9,2.1-0.9c0.8,0,1.6,0.3,2.2,0.9c0.6,0.6,0.9,1.3,0.9,2.1
			l0.1,12.1c0,0.5,0.1,0.9,0.5,1.2c0.3,0.3,0.8,0.5,1.3,0.5c0.6,0,1-0.2,1.4-0.5c0.4-0.3,0.5-0.7,0.5-1.2l-0.1-12
			c0-0.9,0.3-1.6,0.8-2.2c0.6-0.6,1.2-0.9,2.1-0.9c0.8,0,1.6,0.3,2.2,0.9c0.6,0.5,0.9,1.3,0.9,2.1l0.1,12.1c0,0.5,0.2,0.9,0.6,1.3
			c0.3,0.3,0.8,0.5,1.3,0.5c0.6,0,1-0.2,1.4-0.6c0.3-0.3,0.5-0.7,0.5-1.2L74,43.4c0-0.8-0.2-1.5-0.4-2.1C73,40,71.9,39,70.3,38.5
			c-1.6-0.5-3.2-0.3-4.8,0.4c-1,0.5-1.7,1-2.2,1.6C63,40.8,62.8,41,62.5,41c-0.3,0-0.6-0.1-0.8-0.3c-0.6-0.7-1.4-1.2-2.3-1.6
			C58.5,38.6,57.5,38.4,56.6,38.4z"/>
	</g>
	<g>
		<path class="st1" d="M75.2,57.1c0,0.7-0.3,1.4-0.9,1.9c-0.6,0.5-1.2,0.8-2,0.8c-0.8,0-1.5-0.2-2-0.8c-0.5-0.5-0.8-1.2-0.9-2
			l-0.1-12c0-0.6-0.2-1.1-0.6-1.4c-0.4-0.4-0.8-0.6-1.4-0.6c-0.5,0-1,0.2-1.4,0.6c-0.4,0.4-0.5,0.9-0.6,1.5l0.1,12.1
			c0,0.7-0.3,1.4-0.8,1.9c-0.6,0.5-1.2,0.8-2,0.8c-0.8,0-1.5-0.2-2-0.8c-0.6-0.5-0.8-1.2-0.8-1.9l-0.1-12c0-0.6-0.2-1.1-0.6-1.4
			c-0.4-0.4-0.8-0.6-1.4-0.6c-0.6,0-1,0.2-1.4,0.6c-0.4,0.4-0.6,0.9-0.5,1.5l0.1,12c0,0.7-0.3,1.4-0.8,1.9c-0.6,0.5-1.2,0.8-2,0.8
			c-0.8,0-1.5-0.3-2-0.8c-0.5-0.5-0.8-1.2-0.8-1.9l-0.2-13.7c0-0.9,0.2-1.7,0.5-2.5c0.7-1.7,2-2.8,3.9-3.5c1.8-0.6,3.7-0.5,5.6,0.4
			c1,0.4,1.8,1,2.6,1.8c0.7-0.8,1.5-1.4,2.6-1.9c1.8-0.9,3.7-1.1,5.6-0.5c1.9,0.6,3.2,1.7,4,3.4c0.3,0.8,0.5,1.6,0.5,2.5L75.2,57.1
			L75.2,57.1z"/>
	</g>
	<g>
		<path class="st0" d="M39.4,61.3c0,0-0.1,0-0.1,0l-5.6-0.8c-0.1,0-0.1,0-0.2,0c-0.9-0.3-1.6-0.9-2.1-1.7c-0.5-0.8-0.6-1.8-0.3-2.7
			c0.2-0.9,0.7-1.7,1.5-2.2c0.8-0.6,1.7-0.8,2.7-0.6c0.1,0,0.1,0,0.2,0c1.8,0.7,4,0.8,6.5,0.3c0.3-0.1,0.4-0.1,0.4-0.2
			c0,0,0-0.1-0.1-0.1c0,0,0-0.1-0.1-0.1c0,0,0,0-0.1-0.1l-1.1-0.2c-2.9-0.3-4.9-0.6-6-1.1c-1.2-0.5-2.2-1.4-3-2.6
			c-0.8-1.3-1.2-2.6-1.1-4.2c0-1.6,0.4-3,1.2-4.3c0.8-1.3,1.8-2.2,3.2-2.7c2.1-0.8,4-1,6.2-1.2c2.4-0.1,5.1,0.6,5.2,0.6
			c1,0.2,1.7,0.9,2.2,1.8c0.5,0.8,0.6,1.8,0.3,2.8c-0.2,0.9-0.8,1.7-1.6,2.3c0,0-0.1,0-0.1,0.1c-0.8,0.5-1.7,0.6-2.7,0.4
			c-2.1-0.6-4.1-0.6-6.1,0c-0.2,0.1-0.2,0.1-0.3,0.1c0,0,0,0,0,0c0,0,0.1,0,0.2,0l5.4,0.9c1.9,0.4,3.3,1.3,4.4,2.6
			c1.1,1.3,1.6,3,1.6,4.8c0,1.7-0.4,3.2-1.4,4.6c-0.9,1.3-2.1,2.3-3.5,2.8C43.5,60.9,41.6,61.2,39.4,61.3
			C39.4,61.3,39.4,61.3,39.4,61.3z M34,58.5l5.4,0.8c1.9,0,3.6-0.3,5.1-0.8c1-0.3,1.9-1,2.5-2c0.7-1.1,1-2.2,1-3.4c0,0,0,0,0,0
			c0-1.4-0.4-2.6-1.2-3.5c-0.8-1-1.8-1.6-3.2-1.9l-5.3-0.8c-1.2-0.1-1.9-0.9-1.9-2.1c0-0.6,0.2-1.5,1.6-2c0,0,0,0,0.1,0
			c2.3-0.7,4.7-0.7,7.2,0c0.4,0.1,0.7,0,1.1-0.2c0.4-0.3,0.6-0.6,0.8-1.1c0.1-0.5,0.1-1-0.1-1.3c0,0,0,0,0-0.1
			c-0.2-0.4-0.5-0.6-0.9-0.8c0,0-2.5-0.7-4.6-0.6c-2.1,0.1-3.7,0.3-5.6,1c-0.9,0.3-1.6,1-2.2,1.9c-0.6,1-0.9,2.1-0.9,3.3
			c0,1.2,0.3,2.2,0.8,3.2c0.6,0.9,1.3,1.5,2.1,1.8c0,0,0,0,0.1,0c0.5,0.2,1.8,0.7,5.4,1l1.3,0.2c0.1,0,0.1,0,0.2,0.1
			c0.5,0.2,1,0.5,1.2,1c0.3,0.4,0.4,0.8,0.4,1.2c0,0,0,0.1,0,0.1c-0.1,1.1-0.8,1.9-2.1,2.1c-2.9,0.5-5.4,0.4-7.5-0.4
			c-0.4-0.1-0.7,0-1,0.3c-0.4,0.3-0.6,0.6-0.7,1.1c-0.1,0.5-0.1,0.9,0.1,1.3C33.5,58.1,33.7,58.4,34,58.5z M38.5,44.6
			C38.5,44.6,38.5,44.6,38.5,44.6C38.5,44.6,38.5,44.6,38.5,44.6z"/>
	</g>
	<g>
		<path class="st1" d="M49.1,53c0,1.5-0.4,2.8-1.2,4c-0.8,1.2-1.8,2-3,2.4c-1.7,0.6-3.6,0.8-5.5,0.8l-5.6-0.8
			c-0.6-0.2-1.1-0.6-1.5-1.2c-0.3-0.6-0.4-1.3-0.2-2c0.2-0.7,0.6-1.3,1.1-1.7c0.6-0.4,1.2-0.5,1.9-0.4c2,0.7,4.3,0.9,7.1,0.4
			c0.8-0.1,1.2-0.5,1.2-1.2c0-0.3-0.1-0.5-0.2-0.7c-0.2-0.3-0.4-0.5-0.7-0.6l-1.2-0.2c-2.9-0.2-4.8-0.6-5.8-1.1
			c-1.1-0.4-1.9-1.2-2.6-2.3c-0.7-1.1-1-2.3-1-3.7c0-1.4,0.3-2.7,1-3.8c0.7-1.1,1.6-1.9,2.7-2.3c1.9-0.7,3.2-1,5.9-1.1
			c2.6-0.1,4.9,0.6,4.9,0.6c0.7,0.2,1.2,0.6,1.5,1.3c0.3,0.6,0.4,1.3,0.2,2.1c-0.2,0.7-0.6,1.3-1.2,1.7c-0.6,0.3-1.3,0.4-1.9,0.3
			c-2.3-0.7-4.5-0.6-6.6,0c-0.7,0.3-1,0.6-1,1.1c0,0.6,0.3,1,1.1,1.1l5.4,0.8c1.6,0.3,2.8,1.1,3.8,2.2C48.7,50,49.2,51.4,49.1,53
			L49.1,53z"/>
	</g>
	<g>
		<path class="st0" d="M91.8,23.5c-0.8,0-1.5-0.3-2.2-1c-0.6-0.6-0.9-1.4-0.9-2.3c0-0.8,0.3-1.6,0.8-2.3c0.6-0.7,1.4-1.1,2.3-1.1
			l3.6-0.1c0.9,0,1.7,0.3,2.3,1c0.6,0.7,0.9,1.4,0.9,2.3c0,0.9-0.3,1.8-0.9,2.4c-0.6,0.7-1.4,1-2.3,1L91.8,23.5
			C91.8,23.5,91.8,23.5,91.8,23.5z M95.5,18.7C95.5,18.7,95.5,18.7,95.5,18.7l-3.7,0.1c-0.4,0-0.6,0.1-0.8,0.3
			c-0.2,0.3-0.4,0.6-0.4,1c0,0.4,0.1,0.7,0.3,0.9c0.4,0.4,0.6,0.4,0.8,0.4l3.7,0c0.4,0,0.6-0.1,0.8-0.4c0,0,0,0,0,0
			c0.2-0.2,0.3-0.6,0.3-1c0-0.4-0.1-0.7-0.4-1C96,18.8,95.7,18.7,95.5,18.7z"/>
	</g>
	<g>
		<path class="st1" d="M97,21.7c-0.4,0.5-0.9,0.7-1.5,0.7l-3.6,0c-0.6,0-1.1-0.3-1.5-0.7c-0.4-0.4-0.6-1-0.6-1.6
			c0-0.6,0.2-1.2,0.6-1.7c0.4-0.5,0.9-0.7,1.5-0.7l3.6-0.1c0.6,0,1.1,0.2,1.5,0.7c0.4,0.5,0.6,1,0.6,1.7
			C97.7,20.7,97.5,21.3,97,21.7L97,21.7z"/>
	</g>
	<g>
		<path class="st0" d="M27.6,61.4c0,0-0.1,0-0.1,0c-1,0-1.9-0.4-2.7-1c0,0,0,0-0.1-0.1c-0.7-0.8-1.1-1.7-1.1-2.7l-0.2-16.6
			c0-1,0.4-1.9,1.1-2.6c0,0,0,0,0,0c0.8-0.7,1.7-1.1,2.7-1.1c0,0,0,0,0.1,0c1.1,0,2,0.4,2.7,1.1c0.8,0.7,1.2,1.6,1.2,2.6l0.1,16.6
			c0,1.1-0.4,2-1.2,2.7C29.5,61,28.6,61.4,27.6,61.4z M26.2,58.9c0.4,0.3,0.8,0.5,1.4,0.5c0.5,0,0.9-0.2,1.3-0.5
			c0.4-0.3,0.5-0.7,0.5-1.2L29.2,41c0-0.4-0.2-0.8-0.5-1.2c-0.4-0.4-0.8-0.5-1.3-0.6c-0.5,0-1,0.2-1.4,0.6c-0.3,0.3-0.5,0.7-0.5,1.2
			l0.2,16.6C25.7,58.2,25.8,58.5,26.2,58.9z"/>
	</g>
	<g>
		<path class="st1" d="M25.3,39.1c0.6-0.5,1.3-0.8,2-0.9c0.8,0,1.5,0.3,2,0.8c0.6,0.5,0.9,1.2,0.9,1.9l0.1,16.6
			c0,0.8-0.3,1.4-0.8,1.9c-0.6,0.5-1.2,0.9-2,0.8c-0.8,0-1.5-0.3-2.1-0.8c-0.5-0.5-0.8-1.2-0.8-1.9l-0.2-16.6
			C24.5,40.3,24.8,39.7,25.3,39.1L25.3,39.1z"/>
	</g>
	<g>
		<path class="st0" d="M27.4,38.5c-1.2,0-2.1-0.4-2.9-1.1c-0.8-0.7-1.3-1.7-1.3-2.7c0,0,0,0,0-0.1c0-1.1,0.5-2,1.3-2.8
			c0.8-0.8,1.7-1.1,2.8-1.1c0,0,0,0,0,0c1.1-0.1,2.1,0.3,3,1.1c0.8,0.8,1.2,1.7,1.3,2.7c0,1.2-0.4,2.1-1.2,2.8
			C29.4,38.1,28.5,38.4,27.4,38.5z M25.2,34.6c0,0.5,0.2,0.9,0.6,1.3c0.4,0.4,0.9,0.6,1.6,0.6c0.6,0,1.1-0.2,1.5-0.6
			c0.4-0.4,0.6-0.8,0.6-1.3c0-0.5-0.2-0.9-0.7-1.3c-0.4-0.4-0.9-0.6-1.4-0.5c0,0-0.1,0-0.1,0c-0.6,0-1.1,0.2-1.5,0.6
			C25.4,33.6,25.2,34.1,25.2,34.6z"/>
	</g>
	<g>
		<path class="st1" d="M24.2,34.6c0,0.8,0.4,1.5,1,2c0.6,0.6,1.3,0.8,2.2,0.8c0.9,0,1.6-0.3,2.2-0.9c0.6-0.6,0.9-1.2,0.9-2.1
			c0-0.8-0.4-1.5-1-2.1c-0.6-0.6-1.4-0.9-2.2-0.8c-0.9,0-1.6,0.3-2.2,0.9C24.5,33.1,24.2,33.8,24.2,34.6L24.2,34.6z"/>
	</g>
	<g>
		<path class="st0" d="M11,61.9c-1.6,0-3.3-0.1-5.1-0.3c-0.9-0.1-1.7-0.5-2.3-1.2c-0.7-0.7-1-1.6-1.1-2.5L2.3,35.3c0-1,0.3-2,1-2.7
			c0.7-0.7,1.6-1.1,2.6-1.1c0,0,0,0,0,0c2.1-0.2,4.1-0.3,5.8-0.2c3.1,0.1,5.5,0.5,7.3,1.2c1.4,0.6,2.5,1.6,3.4,2.9
			c0.9,1.3,1.3,2.7,1.4,4.3c0,0,0,0,0,0c0,1.5-0.4,2.9-1.1,4.2c-0.4,0.7-1,1.4-1.6,1.9c0.8,0.6,1.5,1.4,2.1,2.3
			c0.9,1.4,1.4,2.9,1.4,4.5c0,2-0.6,3.7-1.7,5.2c-1.1,1.5-2.5,2.6-4.3,3.1C16.3,61.6,13.8,61.9,11,61.9z M5.9,33.5
			c-0.5,0-0.8,0.2-1.1,0.5c-0.3,0.4-0.5,0.8-0.5,1.3L4.5,58c0,0.4,0.2,0.7,0.5,1.1c0.3,0.3,0.7,0.5,1.1,0.6
			c4.7,0.5,8.7,0.3,11.8-0.5c1.4-0.4,2.5-1.2,3.3-2.4c0.9-1.2,1.3-2.5,1.3-4c0-1.2-0.4-2.4-1.1-3.5c-0.6-1.1-1.5-1.8-2.7-2.4
			c-0.3-0.2-0.6-0.5-0.6-0.9c0-0.4,0.2-0.7,0.5-0.9c0.9-0.5,1.7-1.2,2.2-2.1c0.6-1,0.9-2,0.9-3.1c0-1.2-0.4-2.3-1-3.3
			c-0.7-1-1.5-1.7-2.5-2.2c-1.5-0.6-3.6-1-6.5-1.1c-1.7-0.1-3.6,0-5.6,0.2C6,33.5,6,33.5,5.9,33.5C5.9,33.5,5.9,33.5,5.9,33.5z
			 M11.9,56c-0.5,0-1.1,0-1.8,0c-0.5,0-1.1-0.3-1.5-0.7c-0.4-0.4-0.6-0.9-0.6-1.5l0-4c0-0.5,0.2-1,0.5-1.4c0,0,0,0,0.1-0.1
			c0.2-0.2,0.6-0.6,1.1-0.7c0.1,0,0.1,0,0.2,0c2.9-0.2,4.6-0.1,5.5,0.3c0.8,0.3,1.5,0.8,1.9,1.5c0.5,0.7,0.8,1.5,0.8,2.3
			c0,0.9-0.3,1.7-0.8,2.4c-0.4,0.6-1.1,1.2-1.9,1.5C14.8,55.9,13.8,56,11.9,56z M10.1,53.9C10.1,53.9,10.1,53.9,10.1,53.9
			C10.2,53.9,10.2,54,10.1,53.9c3.1,0.2,4.2,0,4.6-0.2c0.5-0.2,0.8-0.4,1-0.8c0.3-0.4,0.4-0.8,0.4-1.3c0-0.4-0.1-0.8-0.4-1.2
			c-0.2-0.4-0.5-0.6-0.9-0.7c0,0-0.1,0-0.1-0.1c-0.2-0.1-1.1-0.3-4.4-0.1c0,0-0.1,0-0.1,0.1c0,0.1,0,0.1,0,0.1L10.1,53.9
			C10.1,53.9,10.1,53.9,10.1,53.9z M11.9,44.4c-0.6,0-1.2,0-2-0.1c-0.2,0-0.3-0.1-0.4-0.1l-0.7-0.4c-0.1,0-0.2-0.1-0.2-0.2
			C8.2,43.2,8,42.7,8,42.1L8,39c0-0.7,0.3-1.2,0.7-1.7c0.5-0.4,1-0.7,1.6-0.8c0,0,0.1,0,0.1,0l1.5-0.1c0,0,0.1,0,0.1,0l2.7,0.1
			c0.1,0,0.1,0,0.2,0c0.7,0.2,1.3,0.6,1.9,1.3c0,0,0,0.1,0.1,0.1c0.5,0.7,0.7,1.5,0.7,2.3c0,0.7-0.2,1.5-0.6,2.1c0,0,0,0,0,0
			c-0.4,0.6-1,1.1-1.6,1.4C14.6,44.2,13.5,44.4,11.9,44.4z M10.3,42.3c2.8,0.2,3.8-0.1,4.1-0.3c0.3-0.1,0.5-0.3,0.8-0.7
			c0.2-0.3,0.3-0.7,0.3-1c0-0.4-0.1-0.8-0.4-1.1c-0.3-0.3-0.5-0.5-0.8-0.6l-2.5-0.1l-1.4,0.1c-0.2,0-0.3,0.1-0.4,0.2
			c0,0,0,0-0.1,0.3l0,3.1L10.3,42.3z M16.1,41.9L16.1,41.9L16.1,41.9z"/>
	</g>
	<g>
		<path class="st1" d="M22.7,39.7c0,1.3-0.3,2.6-1,3.7c-0.6,1-1.5,1.9-2.6,2.5c1.3,0.6,2.3,1.5,3.1,2.7c0.8,1.2,1.2,2.5,1.3,4
			c0,1.7-0.5,3.2-1.5,4.6c-1,1.4-2.3,2.3-3.8,2.8c-3.2,0.9-7.3,1.1-12.2,0.6c-0.7-0.1-1.3-0.4-1.7-0.9c-0.5-0.5-0.8-1.1-0.8-1.8
			L3.3,35.3c0-0.8,0.2-1.5,0.7-2c0.5-0.5,1.2-0.8,1.9-0.8c2.1-0.2,4-0.3,5.7-0.2c3,0.1,5.3,0.5,6.9,1.2c1.2,0.5,2.2,1.4,2.9,2.5
			C22.3,37,22.7,38.3,22.7,39.7L22.7,39.7z M16.1,41.9c0.3-0.5,0.4-1,0.4-1.6c0-0.6-0.2-1.2-0.6-1.7c-0.4-0.5-0.8-0.8-1.4-1
			l-2.7-0.1l-1.5,0.1c-0.4,0.1-0.7,0.2-1,0.5C9.1,38.3,9,38.6,9,39l0,3.2c0,0.3,0.1,0.5,0.3,0.8l0.7,0.4c2.4,0.1,4.1,0,4.8-0.3
			C15.4,42.7,15.8,42.4,16.1,41.9L16.1,41.9z M10.2,55c2.5,0.1,4.2,0,4.9-0.3c0.6-0.2,1.1-0.6,1.5-1.1c0.4-0.5,0.6-1.1,0.6-1.8
			c0-0.6-0.2-1.2-0.6-1.8c-0.4-0.6-0.9-0.9-1.5-1.1c-0.7-0.3-2.4-0.4-5.1-0.2c-0.3,0.1-0.5,0.3-0.7,0.4c-0.2,0.2-0.3,0.5-0.3,0.8
			l0,4.1c0,0.3,0.1,0.5,0.3,0.8C9.6,54.8,9.9,55,10.2,55L10.2,55z"/>
	</g>
	<g>
		<path class="st0" d="M104.4,35.5c-0.5,0-1-0.2-1.6-0.6c0,0-0.1-0.1-0.1-0.1c-0.5-0.5-0.7-1.1-0.6-1.7c0-0.4,0.1-1,0.6-1.7
			c0.4-0.5,1-0.8,1.7-0.8c0.7,0,1.3,0.2,1.8,0.7c0.5,0.5,0.8,1.1,0.7,1.8c0,0.6-0.2,1.2-0.7,1.7c-0.5,0.5-1.1,0.8-1.7,0.8
			C104.6,35.5,104.5,35.5,104.4,35.5z"/>
	</g>
	<g>
		<path class="st1" d="M103.7,32.3c-0.2,0.2-0.3,0.5-0.3,0.8c0,0.3,0.1,0.6,0.4,0.8l0.8,0.3c0.3,0,0.6-0.1,0.8-0.4
			c0.2-0.3,0.4-0.6,0.4-0.8c0-0.4-0.1-0.6-0.4-0.8c-0.2-0.3-0.5-0.3-0.8-0.3C104.2,31.9,104,32,103.7,32.3L103.7,32.3z M105.6,32
			c0.3,0.3,0.4,0.6,0.4,1c0,0.4-0.1,0.8-0.4,1.1c-0.3,0.3-0.6,0.4-1,0.4c-0.4,0.1-0.7-0.1-1.1-0.4c-0.3-0.3-0.4-0.7-0.4-1
			c0-0.4,0.1-0.7,0.4-1.1c0.3-0.3,0.6-0.4,1-0.4C105,31.6,105.3,31.7,105.6,32L105.6,32z M104.8,32.3l0.4,0.1l0.2,0.4
			c0,0.3-0.1,0.4-0.4,0.4l0.4,0.7l-0.3,0l-0.4-0.6l-0.3-0.1l0,0.7l-0.3,0l0-1.6L104.8,32.3L104.8,32.3z M104.3,33l0.5,0
			c0.2,0,0.3-0.1,0.2-0.3c0-0.1-0.1-0.2-0.4-0.2l-0.4,0L104.3,33L104.3,33z"/>
	</g>
</g>
</svg>
