<svg xmlns="http://www.w3.org/2000/svg" viewBox="0 0 108.3 61.7"><defs><style>.cls-1{fill:#434343;fill-rule:evenodd;}</style></defs><g id="Capa_2" data-name="Capa 2"><g id="Layer_1" data-name="Layer 1"><path class="cls-1" d="M99.52,31.56a3,3,0,0,1,2.14-.84,2.84,2.84,0,0,1,2.16.8,2.69,2.69,0,0,1,.87,2.06l.21,23.85a2.66,2.66,0,0,1-.85,2,2.8,2.8,0,0,1-2.09.83,3.12,3.12,0,0,1-2.16-.79,2.68,2.68,0,0,1-.87-2.05l-.21-23.85a2.64,2.64,0,0,1,.8-2.06Z"/><path class="cls-1" d="M59.64,6H61c.31,0,.42-.16.42-.46V3.4a2.73,2.73,0,0,1,.87-2,2.78,2.78,0,0,1,2.1-.87,3.08,3.08,0,0,1,2.16.8,3,3,0,0,1,.9,2V5.47a.43.43,0,0,0,.44.49l1.34-.08A2.27,2.27,0,0,1,71,6.61a2.29,2.29,0,0,1,.7,1.69A2.54,2.54,0,0,1,71,10.07a2.31,2.31,0,0,1-1.72.73l-1.33,0c-.31,0-.42.14-.42.46l.14,15a2.77,2.77,0,0,1-.9,2,2.83,2.83,0,0,1-2.1.88,3.14,3.14,0,0,1-2.1-.8,2.69,2.69,0,0,1-.93-2.06L61.5,11.37c0-.32-.13-.43-.44-.46H59.68A2.2,2.2,0,0,1,58,10.21a2.47,2.47,0,0,1-.74-1.76A2.23,2.23,0,0,1,58,6.75,2.21,2.21,0,0,1,59.64,6Z"/><path class="cls-1" d="M.82,1.14a2.71,2.71,0,0,1,2-.9,33.68,33.68,0,0,1,8.78.08,8.73,8.73,0,0,1,4.76,2A9.25,9.25,0,0,1,19.27,6.5a13.48,13.48,0,0,1,.6,4Q20.1,21.28,8.57,21l-2-.09c-.3,0-.44.19-.44.51L6.2,27a2.58,2.58,0,0,1-.84,2,2.92,2.92,0,0,1-2.12.87,2.71,2.71,0,0,1-2.11-.8,2.92,2.92,0,0,1-.9-2L0,3.18a2.65,2.65,0,0,1,.82-2ZM6,7.11,6.11,14c0,.52.31.79.88.84l1,0,1.93-.12a4.46,4.46,0,0,0,2.88-1.54,4.5,4.5,0,0,0,.94-3,4.68,4.68,0,0,0-1.39-3.3A4.56,4.56,0,0,0,9,5.59l-.52,0-1,.11a1.52,1.52,0,0,0-1,.46,1.27,1.27,0,0,0-.42,1Z"/><path class="cls-1" d="M48.8,12.46l-.47,0-.95.1a1.79,1.79,0,0,0-.94.49,1.61,1.61,0,0,0-.36,1.15l.06,8.1c0,.58.3.87.82.91l.91.09,1.78-.18A3.56,3.56,0,0,0,52,21.14a6.73,6.73,0,0,0,.75-3.55,6,6,0,0,0-1.06-3.65,3.37,3.37,0,0,0-2.88-1.48ZM42.64,6.53a26.74,26.74,0,0,1,8.53.16,8.35,8.35,0,0,1,4.34,2.22,9,9,0,0,1,2.7,4.57,22.87,22.87,0,0,1,.57,4.42c.18,7.45-3.3,11.31-10.35,11.48l-1.79-.07c-.27,0-.41.2-.41.52v2.11A2.83,2.83,0,0,1,45.39,34a3.07,3.07,0,0,1-2.14.84,2.75,2.75,0,0,1-2.11-.8A2.9,2.9,0,0,1,40.27,32L40,9.79a2.93,2.93,0,0,1,2.63-3.26Z"/><path class="cls-1" d="M33.3,14.61v-.19c-.68-2-1.5-2.77-3.74-2.77S27,12.31,26,14.2l-.11.33c0,.49.25.77.76.76l6.05,0a.55.55,0,0,0,.59-.65ZM39.36,18a2.16,2.16,0,0,1-.6,1.4,1.85,1.85,0,0,1-1.42.65L26,20.22c-.32,0-.47.12-.45.45.81,3.12,2.35,4.57,4.69,4.38a4.49,4.49,0,0,0,4.24-2.18l.22-.22a2.35,2.35,0,0,1,1.81-.75,2.78,2.78,0,0,1,2.66,2.58,2.3,2.3,0,0,1-.4,1.76,8.84,8.84,0,0,1-3.55,3.06,10.67,10.67,0,0,1-5.06,1.27,9.8,9.8,0,0,1-7.45-3.5,13,13,0,0,1-3.19-8.66A13.24,13.24,0,0,1,22.36,9.9a9.42,9.42,0,0,1,7.16-3.79A8.79,8.79,0,0,1,33,6.68,8.88,8.88,0,0,1,37.85,11a14.83,14.83,0,0,1,1.51,7Z"/><path class="cls-1" d="M87.94,9.23A9.76,9.76,0,0,1,89.82,13a23.92,23.92,0,0,1,.54,4.61,24.24,24.24,0,0,1-.45,4.69,9.85,9.85,0,0,1-1.81,3.84,8.16,8.16,0,0,1-3,2.61A8.6,8.6,0,0,1,80.25,30a23,23,0,0,1-4.83-1.11,7,7,0,0,1-3.12-2.55,9.33,9.33,0,0,1-1.82-3.82,20.48,20.48,0,0,1-.54-4.63,23.26,23.26,0,0,1,.45-4.64,9.6,9.6,0,0,1,1.76-3.85,8.39,8.39,0,0,1,3-2.62A10.24,10.24,0,0,1,87.94,9.23Zm-7.75,15c2.08.09,3.35-.94,3.81-3.14a16.1,16.1,0,0,0,.33-3.31A14.09,14.09,0,0,0,84,14.37c-.54-2.15-1.81-3.17-3.85-3a3.45,3.45,0,0,0-3.85,3.11,17.52,17.52,0,0,0-.35,3.36,13.24,13.24,0,0,0,.43,3.32c.48,2.19,1.76,3.18,3.85,3Z"/><path class="cls-1" d="M82.58,37.9a10.36,10.36,0,0,1,12.75,2.45,9.39,9.39,0,0,1,1.82,3.82,19.78,19.78,0,0,1,.57,4.64,22.44,22.44,0,0,1-.47,4.63,9.67,9.67,0,0,1-1.76,3.85,9.1,9.1,0,0,1-3.1,2.61,8.81,8.81,0,0,1-4.81,1.23,8.08,8.08,0,0,1-4.78-1.08,9.59,9.59,0,0,1-3.16-2.61,9.84,9.84,0,0,1-1.83-3.79,21,21,0,0,1,0-9.29,9.53,9.53,0,0,1,1.7-3.81,9.18,9.18,0,0,1,3.11-2.65Zm8.76,7.62a3.95,3.95,0,0,0-7.7.13A15.22,15.22,0,0,0,83.3,49a14.09,14.09,0,0,0,.37,3.36,3.47,3.47,0,0,0,3.9,3c2.05.08,3.36-1,3.8-3.15a17.52,17.52,0,0,0,.35-3.36,15.73,15.73,0,0,0-.38-3.33Z"/><path class="cls-1" d="M75.93,57.75a2.85,2.85,0,0,1-.9,2,3.1,3.1,0,0,1-2.12.87,2.82,2.82,0,0,1-2.13-.8,3.08,3.08,0,0,1-.93-2.06l-.09-12.64a2.12,2.12,0,0,0-.65-1.53,1.93,1.93,0,0,0-1.48-.6,2.09,2.09,0,0,0-1.47.65,2.32,2.32,0,0,0-.59,1.53l.13,12.68a2.66,2.66,0,0,1-.87,2,3.11,3.11,0,0,1-2.14.87,2.74,2.74,0,0,1-2.11-.8,2.66,2.66,0,0,1-.85-2.05l-.14-12.64a2.23,2.23,0,0,0-.65-1.53,2,2,0,0,0-1.48-.6,2,2,0,0,0-1.5.64,2,2,0,0,0-.57,1.54L55.48,58a2.73,2.73,0,0,1-.87,2,3,3,0,0,1-2.1.87A3.12,3.12,0,0,1,50.36,60a2.69,2.69,0,0,1-.85-2l-.17-14.4a6.92,6.92,0,0,1,.55-2.6A6.59,6.59,0,0,1,54,37.36a7.93,7.93,0,0,1,5.86.42,8.74,8.74,0,0,1,2.7,1.91,8.29,8.29,0,0,1,2.69-2,7.86,7.86,0,0,1,5.85-.53,6.34,6.34,0,0,1,4.71,6.14l.17,14.43Z"/><path class="cls-1" d="M48.52,53.4a7.22,7.22,0,0,1-1.24,4.22,6,6,0,0,1-3.19,2.5,18.9,18.9,0,0,1-5.78.9l-5.89-.83a2.58,2.58,0,0,1-1.54-1.31,3.09,3.09,0,0,1,1-3.87,2.51,2.51,0,0,1,2-.44,13.83,13.83,0,0,0,7.43.39c.82-.14,1.24-.58,1.28-1.24a1.26,1.26,0,0,0-.26-.75,1.33,1.33,0,0,0-.74-.6l-1.29-.19a20.66,20.66,0,0,1-6-1.12,5.78,5.78,0,0,1-2.72-2.37,6.92,6.92,0,0,1-1-3.86,7.19,7.19,0,0,1,1.1-4,5.46,5.46,0,0,1,2.83-2.44,17,17,0,0,1,6.17-1.14,16.14,16.14,0,0,1,5.13.63,2.45,2.45,0,0,1,1.61,1.35,3,3,0,0,1,.26,2.21,3,3,0,0,1-1.25,1.79,2.8,2.8,0,0,1-2,.29,12.18,12.18,0,0,0-7,0c-.71.27-1,.62-1,1.11,0,.67.36,1.06,1.14,1.15l5.65.89A6.45,6.45,0,0,1,47,49a6.75,6.75,0,0,1,1.48,4.4Z"/><path class="cls-1" d="M98.88,20.52a2,2,0,0,1-1.62.75l-3.83,0a2.12,2.12,0,0,1-1.61-.76,2.29,2.29,0,0,1-.67-1.69,2.73,2.73,0,0,1,.64-1.77,2,2,0,0,1,1.61-.72l3.83-.07a2.06,2.06,0,0,1,1.62.71,2.54,2.54,0,0,1,.67,1.74,2.43,2.43,0,0,1-.64,1.77Z"/><path class="cls-1" d="M23.47,38.83a3.25,3.25,0,0,1,2.15-.89,2.92,2.92,0,0,1,2.1.85,2.6,2.6,0,0,1,.93,2l.14,17.47a2.6,2.6,0,0,1-.87,2,2.74,2.74,0,0,1-2.09.88,3.35,3.35,0,0,1-2.16-.8,2.77,2.77,0,0,1-.85-2l-.19-17.49a2.75,2.75,0,0,1,.84-2Z"/><path class="cls-1" d="M22.28,34a2.9,2.9,0,0,0,1,2.13,3.26,3.26,0,0,0,2.32.89,3.38,3.38,0,0,0,2.32-.92,2.92,2.92,0,0,0,1-2.16,3,3,0,0,0-1-2.16A2.89,2.89,0,0,0,25.56,31a3.16,3.16,0,0,0-2.31.92,2.86,2.86,0,0,0-1,2.14Z"/><path class="cls-1" d="M20.76,39.46a7.29,7.29,0,0,1-1,3.85A7.06,7.06,0,0,1,17,46a7.56,7.56,0,0,1,3.22,2.89,7.84,7.84,0,0,1,1.32,4.24,8.15,8.15,0,0,1-1.59,4.83,7.41,7.41,0,0,1-4,2.89,35,35,0,0,1-12.78.58,3,3,0,0,1-1.82-.93,2.69,2.69,0,0,1-.8-1.85L.33,34.77a2.79,2.79,0,0,1,.79-2.12,2.51,2.51,0,0,1,2-.84,45.81,45.81,0,0,1,6-.23,20.93,20.93,0,0,1,7.26,1.22,7.27,7.27,0,0,1,3.09,2.65,7.41,7.41,0,0,1,1.26,4Zm-7,2.29a3,3,0,0,0,.44-1.67,3.22,3.22,0,0,0-.6-1.82,3,3,0,0,0-1.46-1l-2.83-.15-1.58.06a1.76,1.76,0,0,0-1,.49,1.43,1.43,0,0,0-.4,1V42a1.07,1.07,0,0,0,.36.8l.72.4c2.57.15,4.26,0,5.1-.35a2.89,2.89,0,0,0,1.25-1.08ZM7.57,55.48c2.66.09,4.4,0,5.18-.33A3.24,3.24,0,0,0,14.29,54,3.11,3.11,0,0,0,14.9,52a3.29,3.29,0,0,0-.64-1.87A2.76,2.76,0,0,0,12.72,49c-.73-.35-2.5-.41-5.31-.23a1.65,1.65,0,0,0-.7.46,1.41,1.41,0,0,0-.28.81l0,4.27a1,1,0,0,0,.33.79,1.15,1.15,0,0,0,.78.36Z"/><path class="cls-1" d="M105.88,31.58a1.42,1.42,0,0,0-.32.89,1,1,0,0,0,.37.88l.86.35a1.1,1.1,0,0,0,.87-.38,1.27,1.27,0,0,0,.37-.88,1,1,0,0,0-.37-.88,1,1,0,0,0-.87-.34,1.2,1.2,0,0,0-.91.36Zm2-.24a1.3,1.3,0,0,1,.42,1.05,1.64,1.64,0,0,1-.42,1.13,1.31,1.31,0,0,1-1.06.45,1.45,1.45,0,0,1-1.12-.4,1.46,1.46,0,0,1-.41-1.1,1.51,1.51,0,0,1,2.59-1.13Zm-.89.26.43.08.19.44a.43.43,0,0,1-.45.46l.39.72-.33,0-.42-.64-.3-.06v.7l-.35.05,0-1.68.86,0Zm-.48.72H107c.21,0,.29-.13.26-.27s-.1-.19-.39-.21l-.37,0,0,.43Z"/></g></g></svg>