<svg xmlns="http://www.w3.org/2000/svg" viewBox="0 0 96.99 106.27"><defs><style>.cls-1{fill:#fff;}.cls-2{fill:#434343;}</style></defs><g id="Capa_2" data-name="Capa 2"><g id="Layer_1" data-name="Layer 1"><path class="cls-1" d="M80.06,46.86h0C58.72,16.73,50.6,1.38,49.93.1V0l0,.05,0,0V.1c-.65,1.24-8.34,15.77-28.33,44.2a37.93,37.93,0,0,0-8.73,24.29c0,20.81,16.57,37.68,37,37.68s37-16.87,37-37.68A37.92,37.92,0,0,0,80.06,46.86Z"/><path class="cls-2" d="M49.85,5.82l.09.17.06-.1c3.69,6.43,12.07,20.26,27.14,41.59l.67,1A35.12,35.12,0,0,1,84.1,68.59c0,19.25-15.37,34.91-34.27,34.91S15.56,87.84,15.56,68.59a35.4,35.4,0,0,1,8.09-22.52l0,0,0,0,0,0,0-.05C38.21,25.4,46.27,12.06,49.85,5.82m0-2.7c-3,5.3-11.07,19.15-27.17,42l0,0,0,0a36.6,36.6,0,0,0-8.38,23.34c0,20,16,36.21,35.56,36.21S85.4,88.56,85.4,68.59a36.41,36.41,0,0,0-6.52-20.88l-.67-1C61.4,23,53,8.6,49.94,3.15l0,0,0-.06Z"/><circle class="cls-1" cx="14.96" cy="56.99" r="5.55"/><circle class="cls-1" cx="18.71" cy="71.6" r="5.55" transform="translate(-55.27 73.36) rotate(-76.72)"/><ellipse class="cls-1" cx="85.16" cy="67.89" rx="5.55" ry="8.83"/><g id="_Group_LOGO_SALVO" data-name="&lt;Group&gt; LOGO SALVO"><path class="cls-1" d="M15.48,81.66c-10.42,0-11.23-7.17-11.23-9.36a2.59,2.59,0,0,1,2.06-2.81h5.18a2.72,2.72,0,0,1,2.25.86,2.27,2.27,0,0,1,.43,1.57A3.13,3.13,0,0,0,14.66,74a1.68,1.68,0,0,0,1.16.49h.11a1.39,1.39,0,0,0,1-.35,2.12,2.12,0,0,0,.32-1.46c-.07-1.36-2.15-2.56-4-3.61l-.77-.44c-3.38-2-8-4.7-8-11.18,0-7,5.51-10.16,11-10.16a15.62,15.62,0,0,1,2.62.22,9.54,9.54,0,0,1,8.28,9.32,2.56,2.56,0,0,1-.5,1.85,2.09,2.09,0,0,1-1.62.79H19.48a2.7,2.7,0,0,1-2.35-1A2.31,2.31,0,0,1,16.81,57a3.25,3.25,0,0,0-.41-2.45,1.32,1.32,0,0,0-1-.43,1.1,1.1,0,0,0-1,.37,2.17,2.17,0,0,0-.3,1.64c.18,1.12,2.35,2.43,6.17,4.64,4.53,2.63,6.4,5.86,6.25,10.81S22.91,81.66,15.48,81.66Z"/><path class="cls-1" d="M15.48,48.5a14.21,14.21,0,0,1,2.42.21,8.35,8.35,0,0,1,7.3,8.18A1.5,1.5,0,0,1,25,58a.91.91,0,0,1-.69.34H19.48c-.74,0-1.16-.14-1.38-.46a1.11,1.11,0,0,1-.11-.79,4.28,4.28,0,0,0-.69-3.34,2.51,2.51,0,0,0-1.9-.84,2.31,2.31,0,0,0-1.9.8A3.32,3.32,0,0,0,13,56.27c.27,1.66,2.27,2.88,6.75,5.48,4.16,2.41,5.8,5.23,5.66,9.74-.13,4.15-2.79,9-9.88,9-9.07,0-10-5.72-10-8.17,0-1.43,1-1.63,1-1.64h5.09c.69,0,1.1.13,1.32.41a1.15,1.15,0,0,1,.18.8,4,4,0,0,0,.79,2.94,2.83,2.83,0,0,0,2,.89h.1A2.56,2.56,0,0,0,17.81,75a3.13,3.13,0,0,0,.64-2.32c-.11-2-2.39-3.31-4.59-4.58l-.76-.43c-3.32-2-7.41-4.35-7.41-10.16,0-6.63,5.27-9,9.79-9m0-2.37c-6.05,0-12.16,3.51-12.16,11.35,0,5.71,3.28,8.79,6.33,10.82H6.2a3.78,3.78,0,0,0-3.13,4c0,5.09,3.26,10.54,12.41,10.54,8.22,0,12.08-5.66,12.24-11.28a11.78,11.78,0,0,0-5.29-10.87h1.83a3.28,3.28,0,0,0,2.54-1.24,3.74,3.74,0,0,0,.77-2.61A10.74,10.74,0,0,0,18.3,46.38a16,16,0,0,0-2.82-.25Zm-.17,9.13h.09a.18.18,0,0,1,.11,0,1.88,1.88,0,0,1,.16,1.09,1.18,1.18,0,0,1-.38-.48,1.48,1.48,0,0,1,0-.63Zm.61,18.08h-.06a.67.67,0,0,1-.32-.1A2.06,2.06,0,0,1,15.35,72v-.14c.43.35.72.67.73.93a2,2,0,0,1,0,.56Z"/><path class="cls-1" d="M33.08,81.3c-6.56-.13-8.31-5.14-8.31-8.09a8.94,8.94,0,0,1,3-6.93A13.23,13.23,0,0,1,30,64.87H28.18a2,2,0,0,1-1.64-.82,2.64,2.64,0,0,1-.44-2c.39-3.56,3-7.4,9.2-7.44H36c8.72,0,10,5.19,10,8.29V78.77a2.05,2.05,0,0,1-2,2.09H39a2,2,0,0,1-1.34-.52,9.14,9.14,0,0,1-4.29,1Zm3.5-11.73c-2.4,1.36-2.4,2.54-2.4,3.52,0,.64.12,1.73.88,1.73h.19c1.23-.18,1.33-2.11,1.33-2.7Zm-.84-8.33c-.24,0-.56,0-.53,1.15,0,0,0,.11,0,.13a2.8,2.8,0,0,1,0,.4l.58-.22.62-.23.19-.07a1.52,1.52,0,0,0-.24-.93c-.2-.23-.2-.23-.49-.23Z"/><path class="cls-1" d="M36,55.8c5.78,0,8.83,2.46,8.83,7.11V78.77a.88.88,0,0,1-.81.91H39c-.69,0-.78-.62-.79-1a8,8,0,0,1-4.84,1.47h-.25C26.15,80,26,73.9,26,73.21a7.75,7.75,0,0,1,2.56-6,18.69,18.69,0,0,1,6.09-2.84l.75-.25c.35-.11.6-.21.86-.31l.58-.22c.77-.27,1-.42,1-1.17a2.68,2.68,0,0,0-.53-1.72,1.56,1.56,0,0,0-1.38-.63h-.13c-1.16,0-1.73.83-1.69,2.36v.09c0,1-.6,1.18-1.53,1.18H28.18a.88.88,0,0,1-.7-.35,1.53,1.53,0,0,1-.21-1.13c.16-1.49,1.22-6.37,8-6.41H36M35.06,76l.36,0c1.47-.21,2.34-1.66,2.34-3.87V67.69C33.37,69.53,33,71.37,33,73.09S33.77,76,35.06,76M36,53.43h-.7c-7,0-9.93,4.43-10.38,8.52a3.74,3.74,0,0,0,.68,2.82,3.3,3.3,0,0,0,1.06.91,10.15,10.15,0,0,0-3.07,7.53c0,3.38,2,9.13,9.46,9.27h.27a10.49,10.49,0,0,0,4.2-.78A3.19,3.19,0,0,0,39,82H44a3.23,3.23,0,0,0,3.18-3.27V62.91c0-2.85-1.09-9.48-11.2-9.48Z"/><path class="cls-1" d="M61.9,81.22c-2.22,0-2.69-1.79-3-2.86l-.08-.27L53.31,58.54a.53.53,0,0,0,0-.12,3.28,3.28,0,0,1-.07-.67,1.91,1.91,0,0,1,2-2h3.51a12.76,12.76,0,0,1,2,.05,2.34,2.34,0,0,1,1.81,1.91L65,66.86c2.48-9.34,7.15-14.27,13.52-14.27a13.05,13.05,0,0,1,2.46.24c1.06.2,2.12.92,2.07,2.08,0,.47-.26,1.59-2.13,1.73-5.35.44-8,9.87-10.72,21.22l-.14.56c-.26,1-.7,2.8-3,2.8Z"/><path class="cls-1" d="M78.47,53.77A11.54,11.54,0,0,1,80.7,54c.32.06,1.15.33,1.12.87s-.74.58-1,.6C74.62,56,71.91,65.36,69,77.59c0,.2-.1.38-.14.55-.25,1-.47,1.9-1.8,1.9H61.9c-1.31,0-1.55-.92-1.83-2L60,77.78,54.48,58.35l0-.11a3.28,3.28,0,0,1-.06-.49c0-.79.6-.81.92-.82h.12l3.34,0c1,0,1.7,0,1.79,0,.51.11.74.37.92,1L65,71.69,66,67.4c1.61-6.22,5.08-13.63,12.44-13.63m0-2.37c-4.3,0-9.86,2.06-13.38,11.18L63.77,57.4A3.44,3.44,0,0,0,61,54.63a10.05,10.05,0,0,0-2.27-.08H55.25A3.1,3.1,0,0,0,52,57.75a4.79,4.79,0,0,0,.1.9,1.46,1.46,0,0,0,.05.2l0,.11,5.52,19.47.07.24c.26,1,1,3.73,4.11,3.73h5.16c3.18,0,3.84-2.68,4.09-3.69,0-.16.08-.31.13-.48a.29.29,0,0,0,0-.09c2.5-10.5,5.11-20,9.67-20.32,3-.23,3.2-2.43,3.22-2.87a3.4,3.4,0,0,0-3-3.29,14.37,14.37,0,0,0-2.67-.26Z"/><path class="cls-1" d="M52.1,81.26c-4.37,0-7-2.83-7-7.57V49.45a2.05,2.05,0,0,1,2-2.09h5.44a2.05,2.05,0,0,1,2,2.1V70.11c0,4.57.27,7,.54,7.74l0,.12a2.44,2.44,0,0,1,.13,2,2.26,2.26,0,0,1-1.7,1.19l-.15,0C53.06,81.25,52.43,81.26,52.1,81.26Z"/><path class="cls-1" d="M52.57,48.55a.87.87,0,0,1,.82.91V70.11c0,4.08.21,7,.6,8.14,0,.08.06.15.08.22.16.41.28.73.14,1s-.37.42-.89.53c-.34,0-.92,0-1.22,0-3.74,0-5.8-2.27-5.8-6.39V51.6l0-2.15a.87.87,0,0,1,.81-.9h5.44m0-2.37H47.13A3.23,3.23,0,0,0,44,49.45l0,2.13V73.69c0,5.4,3.13,8.75,8.17,8.75.32,0,1,0,1.45,0l.28,0a3.37,3.37,0,0,0,2.54-1.87,3.53,3.53,0,0,0-.08-2.84l0-.09,0-.08c-.17-.47-.48-2.6-.47-7.35V49.46a3.23,3.23,0,0,0-3.18-3.28Z"/><path class="cls-1" d="M84.47,81.6c-7,0-11.17-5-11.17-13.5s4.18-13.5,11.17-13.5,11.18,5,11.18,13.5S91.47,81.6,84.47,81.6Zm0-20.08c-.85,0-1.77,2.1-1.77,6.71s.92,6.71,1.77,6.71,1.78-2.1,1.78-6.71S85.33,61.52,84.47,61.52Z"/><path class="cls-1" d="M84.47,55.78c6.35,0,10,4.49,10,12.32s-3.64,12.32-10,12.32-10-4.49-10-12.32,3.65-12.32,10-12.32m0,20.35c2.58,0,3-4.95,3-7.9s-.38-7.9-3-7.9-3,5-3,7.9.38,7.9,3,7.9m0-22.71c-7.73,0-12.35,5.49-12.35,14.68s4.62,14.69,12.35,14.69S96.83,77.3,96.83,68.1,92.21,53.42,84.47,53.42Zm0,19.79a15.84,15.84,0,0,1-.59-5,15.89,15.89,0,0,1,.59-5,15.89,15.89,0,0,1,.6,5,15.89,15.89,0,0,1-.6,5Z"/><path class="cls-1" d="M92.63,84.65a3.18,3.18,0,1,1,3.18-3.18A3.19,3.19,0,0,1,92.63,84.65Z"/><path class="cls-1" d="M92.63,79.47a2,2,0,1,1-2,2,2,2,0,0,1,2-2m0-2.36A4.36,4.36,0,1,0,97,81.47a4.36,4.36,0,0,0-4.36-4.36Z"/><path class="cls-2" d="M90.63,81.47a2,2,0,1,1,2,2A2,2,0,0,1,90.63,81.47Zm3.47,0A1.47,1.47,0,1,0,92.63,83,1.44,1.44,0,0,0,94.1,81.47Zm-.48,1.08H93.1l-.48-.91h-.36v.91h-.45V80.4h1c.57,0,.84.15.84.66s-.21.56-.59.58Zm-.77-1.23c.25,0,.42,0,.42-.32s-.31-.27-.52-.27h-.49v.59Z"/><path class="cls-2" d="M15.48,80.47c-9.07,0-10-5.72-10-8.17,0-1.43,1-1.63,1-1.64h5.09c.69,0,1.1.13,1.32.41a1.15,1.15,0,0,1,.18.8,4,4,0,0,0,.79,2.94,2.83,2.83,0,0,0,2,.89h.1A2.56,2.56,0,0,0,17.81,75a3.13,3.13,0,0,0,.64-2.32c-.11-2-2.39-3.31-4.59-4.58l-.76-.43c-3.32-2-7.41-4.35-7.41-10.16,0-6.63,5.27-9,9.79-9a14.21,14.21,0,0,1,2.42.21,8.35,8.35,0,0,1,7.3,8.18A1.5,1.5,0,0,1,25,58a.91.91,0,0,1-.69.34H19.48c-.74,0-1.16-.14-1.38-.45a1.15,1.15,0,0,1-.11-.8,4.28,4.28,0,0,0-.69-3.34,2.51,2.51,0,0,0-1.9-.84,2.31,2.31,0,0,0-1.9.8A3.32,3.32,0,0,0,13,56.27c.27,1.66,2.27,2.88,6.75,5.48,4.16,2.41,5.8,5.23,5.66,9.74-.13,4.15-2.79,9-9.88,9Z"/><path class="cls-2" d="M33.09,80.12C26.15,80,26,73.9,26,73.21a7.75,7.75,0,0,1,2.56-6,18.69,18.69,0,0,1,6.09-2.84l.75-.25c.35-.11.6-.21.86-.31l.58-.22c.77-.27,1-.42,1-1.17a2.68,2.68,0,0,0-.53-1.72,1.56,1.56,0,0,0-1.38-.63h-.13c-1.16,0-1.73.83-1.69,2.36v.09c0,1-.6,1.18-1.53,1.18H28.18a.88.88,0,0,1-.7-.35,1.53,1.53,0,0,1-.21-1.13c.16-1.49,1.22-6.37,8-6.41H36c5.78,0,8.83,2.46,8.83,7.11V78.77a.88.88,0,0,1-.81.91H39c-.69,0-.78-.62-.79-1a8,8,0,0,1-4.84,1.47Zm4.67-12.43C33.37,69.53,33,71.37,33,73.09S33.77,76,35.06,76l.36,0c1.47-.21,2.34-1.66,2.34-3.87Z"/><path class="cls-2" d="M61.9,80c-1.31,0-1.55-.92-1.83-2L60,77.78,54.48,58.35l0-.11a3.28,3.28,0,0,1-.06-.49c0-.79.6-.81.92-.82h.12l3.34,0c1,0,1.7,0,1.79,0,.51.11.74.37.92,1L65,71.69,66,67.4c1.61-6.22,5.08-13.63,12.44-13.63A11.54,11.54,0,0,1,80.7,54c.32.06,1.15.33,1.12.87s-.74.58-1,.6C74.62,56,71.91,65.36,69,77.59c0,.2-.1.38-.14.55-.25,1-.47,1.9-1.8,1.9Z"/><path class="cls-2" d="M52.1,80.08c-3.74,0-5.8-2.27-5.8-6.39V51.6l0-2.15a.87.87,0,0,1,.81-.9h5.44a.87.87,0,0,1,.82.91V70.11c0,4.08.21,7,.6,8.14,0,.08.06.15.08.22.16.41.28.73.14,1s-.37.42-.89.53c-.34,0-.92,0-1.22,0Z"/><path class="cls-2" d="M84.47,80.42c-6.34,0-10-4.49-10-12.32s3.65-12.32,10-12.32,10,4.49,10,12.32-3.64,12.32-10,12.32Zm0-20.09c-2.57,0-3,5-3,7.9s.38,7.9,3,7.9,3-4.95,3-7.9-.38-7.9-3-7.9Z"/></g><path class="cls-2" d="M88.39,51.7c1.37,2.92,2.07,3.69-.67,6.08,2.47-2,2.87-2.35,5.73,1.38-2.68-4-2.41-3.42.23-5.3C90.38,55.57,90.33,54.6,88.39,51.7Z"/><path class="cls-2" d="M0,75.28c2.66-2.84,3.21-4,7.1-2-3.35-1.86-3.92-2.16-1-7C2.83,71.05,3.33,70.5,0,68.4,3.44,71.31,2.37,71.8,0,75.28Z"/><path class="cls-2" d="M49.89,11.46a64.44,64.44,0,0,1-3.59,7C44.89,20.79,43.36,23,42.13,25a30.82,30.82,0,0,0-2.33,4.54A11.87,11.87,0,0,0,38.9,34v.46h0s.05.2,0,.07a10.76,10.76,0,0,0,11,10.65,11.16,11.16,0,0,0,8.31-3.65,10.81,10.81,0,0,0,2.67-7.33A12.59,12.59,0,0,0,60.16,30a24.72,24.72,0,0,0-2.71-5.35c-1-1.58-2.17-3.32-3.25-5.05A81.72,81.72,0,0,1,49.89,11.46Z"/><path class="cls-1" d="M56,26.65c.78-.7-.41-2.25-3.09-4.75-2.31-2.15-3.16-5-2.62-5.24.3-.13,1.88,1.82,3,4a14.87,14.87,0,0,1,1.5,4.16C55,25.56,55.33,27.24,56,26.65Z"/><path class="cls-1" d="M49.91,42.61a8.9,8.9,0,0,0,6.64-2.92,8.63,8.63,0,0,0,2.14-5.86,10,10,0,0,0-.59-3.35C57.94,34.78,56.36,40.11,49.91,42.61Z"/><path class="cls-1" d="M41.26,36.31a11.36,11.36,0,0,1,.68-8.51,7.37,7.37,0,0,1,2.78-3.05c-1.74,2.62-2.56,4.14-2.89,5.45A20.92,20.92,0,0,0,41.26,36.31Z"/></g></g></svg>