<?xml version="1.0" encoding="utf-8"?>
<!-- Generator: Adobe Illustrator 24.3.0, SVG Export Plug-In . SVG Version: 6.00 Build 0)  -->
<svg version="1.1" id="Capa_1" xmlns="http://www.w3.org/2000/svg" xmlns:xlink="http://www.w3.org/1999/xlink" x="0px" y="0px"
	 viewBox="0 0 97 106.3" style="enable-background:new 0 0 97 106.3;" xml:space="preserve">
<style type="text/css">
	.st0{fill:#FFFFFF;}
	.st1{fill:#00AE59;}
	.st2{fill:#DA2128;}
	.st3{fill:url(#SVGID_1_);}
	.st4{fill:url(#XMLID_5_);stroke:#DA2128;stroke-width:0.2806;stroke-linecap:round;stroke-linejoin:round;stroke-miterlimit:10;}
	.st5{fill:url(#XMLID_7_);stroke:#DA2128;stroke-width:0.2806;stroke-linecap:round;stroke-linejoin:round;stroke-miterlimit:10;}
	.st6{fill:url(#XMLID_8_);stroke:#DA2128;stroke-width:0.2806;stroke-linecap:round;stroke-linejoin:round;stroke-miterlimit:10;}
	.st7{fill:url(#XMLID_9_);stroke:#DA2128;stroke-width:0.2806;stroke-linecap:round;stroke-linejoin:round;stroke-miterlimit:10;}
	.st8{fill:url(#SVGID_2_);}
	.st9{fill:url(#SVGID_3_);}
	.st10{fill:url(#SVGID_4_);}
	.st11{fill:url(#SVGID_5_);}
	.st12{fill:url(#SVGID_6_);}
	.st13{fill:url(#SVGID_7_);}
	.st14{fill:url(#SVGID_8_);}
	.st15{fill:url(#SVGID_9_);}
	.st16{fill:url(#SVGID_10_);}
	.st17{fill:url(#SVGID_11_);}
	.st18{fill:url(#SVGID_12_);}
	.st19{fill:url(#SVGID_13_);}
	.st20{fill:#E5E6E7;}
</style>
<g>
	<path class="st0" d="M90.8,76.6c1.5-2.3,2.2-5.3,2.2-9c0-4.2-1-7.6-3-10.1c-2.1-2.5-5.1-3.9-8.8-3.9c-0.2,0-0.4,0-0.6,0
		c-0.5-0.8-1.4-1.5-2.5-1.7c-0.9-0.2-1.7-0.2-2.5-0.2c-3.8,0-7.2,1.8-9.8,5.2c-1.1,1.5-2.1,3.3-3,5.5l-1.3-4.9c0,0,0,0,0,0
		c-0.4-1.5-1.2-2.3-2.6-2.6c-0.2-0.1-0.4-0.1-2.2-0.1c-1,0-2.2,0-2.9,0v-4.9c0-1.7-1.4-3.1-3-3.1h-5.2c-1.7,0-3,1.4-3,3.1l0,2
		c0,0,0,0,0,0v3.9c-1.8-1.4-4.4-2.1-7.5-2.1c0,0,0,0,0,0l-0.7,0c-3.7,0-6,1.4-7.4,2.7c-0.2-4-3.2-8.5-8.8-9.4
		c-0.9-0.2-1.8-0.2-2.7-0.2c-2.9,0-5.6,0.8-7.6,2.4c-1.8,1.4-3.9,3.9-3.9,8.4c0,5.4,3.1,8.3,6,10.3l-3.1,0c-0.1,0-0.1,0-0.2,0
		c-0.6,0.1-1.3,0.4-1.8,0.9c-0.5,0.5-1.2,1.4-1.2,2.9c0,1.6,0.4,4,2,6.2c2,2.6,5.3,3.9,9.8,3.9c4.3,0,7.4-1.6,9.3-4
		c1.2,1.7,3.4,3.6,7.4,3.7c0,0,0,0,0,0l0.2,0c0,0,0,0,0,0c1.7,0,2.9-0.3,4-0.7c0.4,0.2,0.9,0.3,1.4,0.3h4.8c1,0,2-0.5,2.5-1.4
		c1.3,1.1,3.1,1.8,5.2,1.8c0.3,0,0.9,0,1.4-0.1c0.1,0,0.2,0,0.3,0c1.2-0.3,2-0.9,2.4-1.8c0.5-1.1,0.1-2.1-0.1-2.7c0,0,0-0.1,0-0.1
		c0,0,0,0,0-0.1c-0.1-0.4-0.4-2.1-0.4-5.7l1.9,6.6l0.1,0.2c0.2,0.6,0.4,1.4,0.8,2.1c0.5,0.7,1.4,1.5,3.1,1.5h4.9
		c1.6,0,2.6-0.8,3.1-1.5c0.5-0.7,0.7-1.4,0.8-2c0,0,0,0,0,0c0-0.1,0.1-0.3,0.1-0.4c0,0,0-0.1,0-0.1c0.4-1.7,0.8-3.4,1.2-5
		c0.5,2.2,1.3,4,2.5,5.5c2.1,2.5,5.1,3.9,8.8,3.9c1.3,0,2.5-0.2,3.7-0.5c0.3,1.9,2,3.4,4.1,3.4c2.3,0,4.1-1.9,4.1-4.1
		C93.1,78.6,92.2,77.2,90.8,76.6z"/>
	<path class="st0" d="M77,47.5L77,47.5C56.8,18.9,49,4.3,48.4,3.1l0-0.1c0,0,0,0,0,0.1c0,0,0-0.1,0-0.1l0,0.1
		c-0.6,1.2-7.9,15-26.9,42c-5.2,6.2-8.3,14.3-8.3,23.1C13.1,88,28.9,104,48.3,104c19.4,0,35.2-16,35.2-35.8
		C83.5,60.5,81.1,53.4,77,47.5z"/>
	<path class="st1" d="M48.3,8.4l0.1,0.2l0.1-0.1c3.5,6.1,11.5,19.3,25.8,39.6l0.6,0.9c3.9,5.6,6,12.3,6,19.2
		c0,18.3-14.6,33.2-32.6,33.2c-18,0-32.6-14.9-32.6-33.2c0-7.8,2.7-15.4,7.7-21.4l0,0l0,0l0,0l0,0C37.2,27,44.9,14.3,48.3,8.4
		 M48.3,5.8c-2.8,5-10.5,18.2-25.9,40l0,0l0,0c-5.1,6.2-8,14.1-8,22.2c0,19,15.2,34.5,33.9,34.5c18.7,0,33.9-15.5,33.9-34.5
		c0-7.2-2.1-14-6.2-19.9l-0.6-0.9C59.3,24.7,51.3,11.1,48.3,5.8L48.3,5.8L48.3,5.8L48.3,5.8z"/>
	<path class="st0" d="M90.8,76.6c1.5-2.3,2.2-5.3,2.2-9c0-4.2-1-7.6-3-10.1c-2.1-2.5-5.1-3.9-8.8-3.9c-0.2,0-0.4,0-0.6,0
		c-0.5-0.8-1.4-1.5-2.5-1.7c-0.9-0.2-1.7-0.2-2.5-0.2c-3.8,0-7.2,1.8-9.8,5.2c-1.1,1.5-2.1,3.3-3,5.5l-1.3-4.9c0,0,0,0,0,0
		c-0.4-1.5-1.2-2.3-2.6-2.6c-0.2-0.1-0.4-0.1-2.2-0.1c-1,0-2.2,0-2.9,0v-4.9c0-1.7-1.4-3.1-3-3.1h-5.2c-1.7,0-3,1.4-3,3.1l0,2
		c0,0,0,0,0,0v3.9c-1.8-1.4-4.4-2.1-7.5-2.1c0,0,0,0,0,0l-0.7,0c-3.7,0-6,1.4-7.4,2.7c-0.2-4-3.2-8.5-8.8-9.4
		c-0.9-0.2-1.8-0.2-2.7-0.2c-2.9,0-5.6,0.8-7.6,2.4c-1.8,1.4-3.9,3.9-3.9,8.4c0,5.4,3.1,8.3,6,10.3l-3.1,0c-0.1,0-0.1,0-0.2,0
		c-0.6,0.1-1.3,0.4-1.8,0.9c-0.5,0.5-1.2,1.4-1.2,2.9c0,1.6,0.4,4,2,6.2c2,2.6,5.3,3.9,9.8,3.9c4.3,0,7.4-1.6,9.3-4
		c1.2,1.7,3.4,3.6,7.4,3.7c0,0,0,0,0,0l0.2,0c0,0,0,0,0,0c1.7,0,2.9-0.3,4-0.7c0.4,0.2,0.9,0.3,1.4,0.3h4.8c1,0,2-0.5,2.5-1.4
		c1.3,1.1,3.1,1.8,5.2,1.8c0.3,0,0.9,0,1.4-0.1c0.1,0,0.2,0,0.3,0c1.2-0.3,2-0.9,2.4-1.8c0.5-1.1,0.1-2.1-0.1-2.7c0,0,0-0.1,0-0.1
		c0,0,0,0,0-0.1c-0.1-0.4-0.4-2.1-0.4-5.7l1.9,6.6l0.1,0.2c0.2,0.6,0.4,1.4,0.8,2.1c0.5,0.7,1.4,1.5,3.1,1.5h4.9
		c1.6,0,2.6-0.8,3.1-1.5c0.5-0.7,0.7-1.4,0.8-2c0,0,0,0,0,0c0-0.1,0.1-0.3,0.1-0.4c0,0,0-0.1,0-0.1c0.4-1.7,0.8-3.4,1.2-5
		c0.5,2.2,1.3,4,2.5,5.5c2.1,2.5,5.1,3.9,8.8,3.9c1.3,0,2.5-0.2,3.7-0.5c0.3,1.9,2,3.4,4.1,3.4c2.3,0,4.1-1.9,4.1-4.1
		C93.1,78.6,92.2,77.2,90.8,76.6z"/>
	<path class="st0" d="M20.4,57.1c0,2.9-2.4,5.3-5.3,5.3c-2.9,0-5.3-2.4-5.3-5.3s2.4-5.3,5.3-5.3C18.1,51.8,20.4,54.2,20.4,57.1z"/>
	<g>
		<g>
			<g id="_x3C_Group_x3E__LOGO_SALVO_4_">
				<g>
					<g>
						<path class="st2" d="M87.1,80.4c0-1,0.8-1.9,1.9-1.9c1,0,1.9,0.9,1.9,1.9c0,1-0.9,1.9-1.9,1.9C87.9,82.3,87.1,81.5,87.1,80.4z
							 M90.4,80.4c0-0.8-0.6-1.4-1.4-1.4c-0.8,0-1.4,0.6-1.4,1.4c0,0.8,0.6,1.4,1.4,1.4C89.8,81.9,90.4,81.3,90.4,80.4z M89.9,81.5
							h-0.5L89,80.6h-0.3v0.9h-0.4v-2h1c0.5,0,0.8,0.1,0.8,0.6c0,0.4-0.2,0.5-0.6,0.6L89.9,81.5z M89.2,80.3c0.2,0,0.4-0.1,0.4-0.3
							c0-0.3-0.3-0.3-0.5-0.3h-0.5v0.6H89.2z"/>
					</g>
				</g>
				<g id="XMLID_100_">
					<g id="XMLID_124_">
						<path class="st0" d="M15.6,80c-3.9,0-6.8-1.1-8.5-3.2C5.8,75,5.5,73,5.5,71.6c0-1.6,1.1-2.1,1.5-2.2c0,0,0,0,0.1,0l4.8,0
							c0.6,0,1.3,0.1,1.7,0.6c0.3,0.4,0.3,0.9,0.3,1.2c-0.1,1.1,0.1,1.9,0.6,2.4c0.5,0.6,1.2,0.6,1.5,0.6l0.1,0c0.4,0,1-0.1,1.3-0.5
							c0.3-0.4,0.5-1,0.4-1.7c-0.1-1.6-2.1-2.7-4-3.8c-0.1-0.1-0.2-0.1-0.3-0.2c-0.1-0.1-0.3-0.1-0.4-0.2c-3.3-1.9-7.3-4.3-7.3-10.2
							c0-3,1.1-5.5,3.3-7.1c1.7-1.3,4.1-2,6.6-2c0.8,0,1.6,0.1,2.4,0.2c5,0.9,7.6,4.9,7.4,8.4c0,0.6-0.1,1.1-0.4,1.4
							C24.7,59,24.2,59,24,59h-4.5c-0.6,0-1.4-0.1-1.8-0.7c-0.3-0.4-0.2-0.9-0.2-1.2c0.1-1.2,0-2.1-0.5-2.7
							c-0.5-0.5-1.1-0.6-1.3-0.6c-0.6,0-1,0.2-1.3,0.5c-0.4,0.4-0.5,1.2-0.4,2c0.2,1.3,2.1,2.5,6.1,4.8c4.1,2.4,5.8,5.3,5.7,9.8
							C25.5,75.1,22.8,80,15.6,80z"/>
						<path class="st0" d="M15.7,49.1c0.8,0,1.5,0.1,2.3,0.2c4.7,0.8,7,4.6,6.9,7.8c0,0.4,0,0.8-0.2,1c-0.2,0.3-0.6,0.3-0.7,0.3
							h-4.5c-0.7,0-1.1-0.1-1.3-0.4C18,57.7,18,57.5,18,57.2c0.2-1.4-0.1-2.5-0.7-3.2c-0.6-0.7-1.5-0.8-1.8-0.8
							c-0.8,0-1.4,0.3-1.8,0.8c-0.5,0.6-0.7,1.5-0.5,2.4c0.3,1.6,2.1,2.7,6.4,5.2c3.9,2.3,5.5,5,5.4,9.3c-0.1,3.9-2.6,8.5-9.4,8.5
							c-8.6,0-9.5-5.4-9.5-7.8c0-1.4,0.9-1.5,0.9-1.5l4.8,0c0.7,0,1,0.1,1.3,0.4c0.2,0.2,0.2,0.5,0.2,0.8c-0.1,1.2,0.2,2.2,0.7,2.8
							c0.7,0.7,1.6,0.8,1.9,0.8l0.1,0c0.5,0,1.3-0.1,1.8-0.7c0.4-0.5,0.6-1.2,0.6-2.2c-0.1-1.9-2.3-3.1-4.4-4.3
							c-0.2-0.1-0.5-0.3-0.7-0.4c-3.2-1.9-7-4.1-7-9.6C6.4,51.3,11.4,49.1,15.7,49.1 M15.7,47.8c-2.7,0-5.2,0.8-7,2.2
							c-2.3,1.7-3.5,4.4-3.5,7.6c0,6.2,4.4,8.8,7.6,10.7c0.1,0.1,0.3,0.2,0.4,0.2c0.1,0.1,0.2,0.1,0.3,0.2c1.7,1,3.7,2.1,3.7,3.3
							c0,0.6-0.1,1.1-0.3,1.3c-0.2,0.2-0.6,0.3-0.9,0.3l-0.1,0c-0.2,0-0.7,0-1-0.4c-0.4-0.5-0.5-1.3-0.4-1.9c0,0,0,0,0,0
							c0-0.3,0-1-0.4-1.6c-0.6-0.8-1.6-0.9-2.2-0.9l-4.8,0c0,0-0.1,0-0.1,0c-0.8,0.1-2,0.9-2,2.8c0,2.1,0.8,9,10.8,9
							c3.4,0,6.2-1.1,8.1-3.2c1.6-1.7,2.5-4,2.5-6.5c0.1-4.7-1.6-7.9-6-10.4c-0.6-0.4-1.2-0.7-1.7-1c0.3,0.1,0.6,0.1,0.9,0.1H24
							c0.6,0,1.2-0.3,1.6-0.8c0.3-0.3,0.6-0.9,0.5-1.8c0.1-3.7-2.6-8.1-8-9C17.3,47.9,16.5,47.8,15.7,47.8L15.7,47.8z M17.1,58.7
							c-1.6-1-2.5-1.8-2.6-2.4c-0.1-0.7,0.1-1.2,0.2-1.5c0.1-0.1,0.2-0.3,0.8-0.3c0.2,0,0.6,0,0.9,0.4c0.3,0.4,0.5,1.2,0.4,2.2
							C16.8,57.4,16.7,58,17.1,58.7C17.1,58.7,17.1,58.7,17.1,58.7L17.1,58.7z"/>
					</g>
					<g id="XMLID_123_">
						<path class="st0" d="M32.4,79.7c-7.2-0.1-7.4-6.5-7.4-7.2c0-2.5,1-4.9,2.7-6.2c1.3-1,2.8-1.7,4.3-2.2c0,0-4.2,0-4.2,0
							c-0.5,0-0.9-0.2-1.2-0.6c-0.3-0.4-0.4-0.9-0.3-1.5c0.2-1.5,1.3-6.6,8.2-6.6h0.7c5.8,0,9,2.6,9,7.4v15c0,0.8-0.6,1.5-1.4,1.5
							h-4.8c-0.3,0-0.8-0.1-1.1-0.6c-1.1,0.6-2.4,1-4.2,1C32.6,79.7,32.4,79.7,32.4,79.7z M36.2,68.2c-3.3,1.6-3.3,3.1-3.3,4.2
							c0,0.6,0.1,2.1,1.3,2.1c0.1,0,0.2,0,0.2,0c1.1-0.1,1.7-1.3,1.7-3.1V68.2z M34.9,60.6c-0.3,0-1,0-1,1.6c0,0,0,0.1,0,0.1
							c0,0.6-0.2,0.9-0.4,1.2c0,0,0.8-0.3,0.8-0.3c0.3-0.1,0.5-0.2,0.8-0.3c0.2-0.1,0.4-0.1,0.6-0.2c0.4-0.1,0.5-0.2,0.5-0.2
							c0,0,0-0.1,0-0.3c0-0.2,0-0.9-0.4-1.2c-0.3-0.3-0.4-0.4-0.8-0.4L34.9,60.6z"/>
						<path class="st0" d="M35.1,56c5.5,0,8.4,2.3,8.4,6.7v15c0,0.5-0.4,0.9-0.8,0.9h-4.8c-0.7,0-0.7-0.6-0.8-1
							c-1.3,0.9-2.6,1.4-4.6,1.4l-0.2,0c-6.6-0.1-6.8-5.9-6.8-6.6c0-2.3,0.9-4.5,2.4-5.7c1.8-1.4,3.9-2.1,5.8-2.7l0.7-0.2
							c0.3-0.1,0.6-0.2,0.8-0.3c0.2-0.1,0.3-0.1,0.5-0.2c0.7-0.3,0.9-0.4,0.9-1.1c0-0.4-0.1-1.1-0.5-1.6C35.9,60.2,35.7,60,35,60
							l-0.1,0c-1.1,0-1.6,0.8-1.6,2.2l0,0.1c0,0.9-0.6,1.1-1.5,1.1h-4.1c-0.1,0-0.4,0-0.7-0.3c-0.2-0.3-0.3-0.6-0.2-1.1
							c0.2-1.4,1.2-6,7.6-6.1H35.1 M34.2,75.2c0.1,0,0.2,0,0.3,0c1.4-0.2,2.2-1.6,2.2-3.7v-4.2c-4.2,1.7-4.5,3.5-4.5,5.1
							C32.3,74.1,33,75.2,34.2,75.2 M35.1,54.7h-0.7c-2.2,0-5.2,0.5-7.2,3c-1.3,1.6-1.6,3.3-1.7,4.2c-0.1,0.8,0.1,1.5,0.4,2
							c0.4,0.5,1,0.8,1.7,0.8h1.2c-0.6,0.3-1.1,0.7-1.7,1.1c-1.8,1.4-2.9,4-2.9,6.7c0,2.8,1.7,7.7,8,7.8c0,0,0,0,0,0l0.2,0
							c1.8,0,3-0.4,4.1-0.9c0.5,0.4,1.1,0.5,1.3,0.5h4.8c1.1,0,2-0.9,2-2.1v-15c0-2.6-0.9-4.6-2.6-6C40.5,55.4,38.2,54.7,35.1,54.7
							L35.1,54.7z M34.9,61.3l0.1,0c0.2,0,0.2,0,0.2,0h0c0,0,0,0,0.1,0.2c0.1,0.1,0.2,0.4,0.2,0.7c0,0-0.1,0-0.1,0c0,0,0,0,0,0
							c-0.2,0.1-0.4,0.2-0.6,0.2c-0.1,0-0.2,0.1-0.4,0.1c0-0.1,0-0.1,0-0.2c0,0,0,0,0-0.1l0-0.1c0-0.6,0.1-0.8,0.1-0.9
							C34.7,61.3,34.8,61.3,34.9,61.3L34.9,61.3z M34.2,73.9c-0.6,0-0.7-1.1-0.7-1.5c0-0.9,0-1.9,2-3.1v2.2c0,0.5-0.1,2.3-1.1,2.4
							C34.3,73.9,34.3,73.9,34.2,73.9L34.2,73.9z"/>
					</g>
					<g id="XMLID_122_">
						<path class="st0" d="M59.7,79.6c-1.7,0-2.1-1.3-2.3-2.3L57.3,77l-5.2-18.4l0-0.1c0,0,0-0.1,0-0.1c0-0.1-0.1-0.3-0.1-0.5
							c0-1.2,0.9-1.4,1.5-1.4l0.1,0l0.3,0c0.6,0,1.9,0,2.9,0c1.6,0,1.7,0,1.8,0c0.9,0.2,1.2,0.8,1.3,1.4l2.7,10.6l0.4-1.7
							c2.3-8.8,6.6-13.4,12.4-13.4c0.7,0,1.5,0.1,2.2,0.2c0.6,0.1,1.6,0.6,1.6,1.5c0,0.5-0.3,1.1-1.6,1.2
							c-5.4,0.4-7.9,9.2-10.6,20.5C67,77,67,77.2,66.9,77.3c-0.2,1-0.6,2.3-2.3,2.3H59.7z"/>
						<path class="st0" d="M75.4,54.1c0.7,0,1.4,0.1,2.1,0.2c0.3,0.1,1.1,0.3,1.1,0.8c0,0.5-0.7,0.6-1,0.6c-5.8,0.5-8.4,9.4-11.2,21
							c-0.1,0.2-0.1,0.4-0.1,0.5c-0.2,1-0.4,1.8-1.7,1.8h-4.9c-1.2,0-1.5-0.9-1.7-1.9l-0.1-0.3l-5.2-18.4l0-0.1
							c0-0.1-0.1-0.3-0.1-0.5c0-0.8,0.6-0.8,0.9-0.8l0.1,0c0.4,0,2,0,3.2,0c1,0,1.6,0,1.7,0c0.5,0.1,0.7,0.4,0.9,1l3.3,13l1-4.1
							C65.2,61.1,68.5,54.1,75.4,54.1 M75.4,52.8c-6,0-10.4,4.6-12.8,13.2l-2.1-8.2c-0.2-0.7-0.6-1.6-1.8-1.9c-0.2,0-0.3-0.1-2-0.1
							c-1,0-2.3,0-2.9,0l-0.3,0c0,0,0,0,0,0l-0.1,0c0,0,0,0,0,0c-0.2,0-0.7,0-1.1,0.3c-0.6,0.3-1,1-1,1.8c0,0.3,0,0.5,0.1,0.7l0,0
							c0,0,0,0.1,0,0.1l0,0.1c0,0,0,0,0,0l5.2,18.4l0.1,0.3c0.3,1,0.7,2.8,2.9,2.8h4.9c2.2,0,2.7-1.8,2.9-2.7c0,0,0,0,0,0
							c0-0.1,0.1-0.3,0.1-0.5c0,0,0,0,0,0c2.5-10.7,5.1-19.6,10.1-20c1.9-0.1,2.1-1.3,2.1-1.8c0.1-1.2-1-1.9-2.1-2.1
							C77,52.9,76.2,52.8,75.4,52.8L75.4,52.8z"/>
					</g>
					<g id="XMLID_102_">
						<path class="st0" d="M50.4,79.6c-3.9,0-6.1-2.4-6.1-6.7V52l0-2c0-0.8,0.6-1.5,1.4-1.5h5.2c0.8,0,1.4,0.7,1.4,1.5v19.6
							c0,3.7,0.2,6.6,0.5,7.5l0.1,0.2c0.2,0.4,0.4,0.9,0.1,1.5c-0.2,0.6-0.8,0.7-1.3,0.8c0,0,0,0-0.1,0
							C51.3,79.6,50.7,79.6,50.4,79.6z"/>
						<path class="st0" d="M50.9,49.1c0.4,0,0.8,0.4,0.8,0.9v19.6c0,3.9,0.2,6.7,0.6,7.7c0,0.1,0.1,0.1,0.1,0.2
							c0.1,0.4,0.3,0.7,0.1,1c-0.1,0.2-0.4,0.4-0.8,0.5c-0.3,0-0.9,0-1.2,0c-3.6,0-5.5-2.2-5.5-6.1V52l0-2c0-0.5,0.4-0.9,0.8-0.9
							H50.9 M50.9,47.8h-5.2c-1.1,0-2,0.9-2,2.1l0,2v21c0,4.6,2.5,7.3,6.8,7.3c0.3,0,0.9,0,1.3,0c0.1,0,0.1,0,0.1,0
							c0.4-0.1,1.3-0.3,1.7-1.2c0.3-0.8,0.1-1.4-0.1-1.9c0,0,0-0.1,0-0.1c0,0,0-0.1,0-0.1c-0.3-0.7-0.5-3-0.5-7.3V50
							C52.9,48.8,52,47.8,50.9,47.8L50.9,47.8z"/>
					</g>
					<g id="XMLID_101_">
						<path class="st0" d="M81.1,80C74.7,80,71,75.5,71,67.7c0-7.8,3.7-12.3,10.1-12.3c6.4,0,10.1,4.5,10.1,12.3
							C91.2,75.5,87.6,80,81.1,80z M81.1,60.9c-1.4,0-2.2,2.6-2.2,6.9c0,4.3,0.8,6.9,2.2,6.9c1.4,0,2.2-2.6,2.2-6.9
							C83.3,63.5,82.5,60.9,81.1,60.9z"/>
						<path class="st0" d="M81.1,56c6,0,9.5,4.3,9.5,11.7c0,7.4-3.5,11.7-9.5,11.7c-6,0-9.5-4.3-9.5-11.7C71.7,60.2,75.1,56,81.1,56
							 M81.1,75.3c2.4,0,2.8-4.7,2.8-7.5c0-2.8-0.4-7.5-2.8-7.5c-2.4,0-2.8,4.7-2.8,7.5C78.3,70.6,78.7,75.3,81.1,75.3 M81.1,54.7
							c-6.7,0-10.7,4.8-10.7,12.9c0,8.1,4,12.9,10.7,12.9c6.7,0,10.7-4.8,10.7-12.9C91.9,59.6,87.9,54.7,81.1,54.7L81.1,54.7z
							 M81.1,74c-0.6,0-1.6-1.7-1.6-6.2c0-4.6,0.9-6.2,1.6-6.2c0.6,0,1,1.4,1.1,1.8c0.4,1.4,0.4,3.2,0.4,4.5c0,1.3-0.1,3.1-0.4,4.5
							C82.1,72.7,81.7,74,81.1,74L81.1,74z"/>
					</g>
				</g>
				<g id="XMLID_90_">
					<path id="XMLID_99_" class="st2" d="M15.6,79.4c-8.6,0-9.5-5.4-9.5-7.8c0-1.4,0.9-1.5,0.9-1.5l4.8,0c0.7,0,1,0.1,1.3,0.4
						c0.2,0.2,0.2,0.5,0.2,0.8c-0.1,1.2,0.2,2.2,0.7,2.8c0.7,0.7,1.6,0.8,1.9,0.8l0.1,0c0.5,0,1.3-0.1,1.8-0.7
						c0.4-0.5,0.6-1.2,0.6-2.2c-0.1-1.9-2.3-3.1-4.4-4.3c-0.2-0.1-0.5-0.3-0.7-0.4c-3.2-1.9-7-4.1-7-9.6c0-6.3,5-8.5,9.3-8.5
						c0.8,0,1.5,0.1,2.3,0.2c4.7,0.8,7,4.6,6.9,7.8c0,0.4,0,0.8-0.2,1c-0.2,0.3-0.6,0.3-0.7,0.3h-4.5c-0.7,0-1.1-0.1-1.3-0.4
						C18,57.7,18,57.5,18,57.2c0.2-1.4-0.1-2.5-0.7-3.2c-0.6-0.7-1.5-0.8-1.8-0.8c-0.8,0-1.4,0.3-1.8,0.8c-0.5,0.6-0.7,1.5-0.5,2.4
						c0.3,1.6,2.1,2.7,6.4,5.2c3.9,2.3,5.5,5,5.4,9.3C24.9,74.8,22.4,79.4,15.6,79.4L15.6,79.4z"/>
					<path id="XMLID_96_" class="st2" d="M32.4,79.1c-6.6-0.1-6.8-5.9-6.8-6.6c0-2.3,0.9-4.5,2.4-5.7c1.8-1.4,3.9-2.1,5.8-2.7
						l0.7-0.2c0.3-0.1,0.6-0.2,0.8-0.3c0.2-0.1,0.3-0.1,0.5-0.2c0.7-0.3,0.9-0.4,0.9-1.1c0-0.4-0.1-1.1-0.5-1.6
						C35.9,60.2,35.7,60,35,60l-0.1,0c-1.1,0-1.6,0.8-1.6,2.2l0,0.1c0,0.9-0.6,1.1-1.5,1.1h-4.1c-0.1,0-0.4,0-0.7-0.3
						c-0.2-0.3-0.3-0.6-0.2-1.1c0.2-1.4,1.2-6,7.6-6.1h0.7c5.5,0,8.4,2.3,8.4,6.7v15c0,0.5-0.4,0.9-0.8,0.9h-4.8
						c-0.7,0-0.7-0.6-0.8-1c-1.3,0.9-2.6,1.4-4.6,1.4L32.4,79.1z M36.8,67.3c-4.2,1.7-4.5,3.5-4.5,5.1c0,1.7,0.7,2.8,2,2.8
						c0.1,0,0.2,0,0.3,0c1.4-0.2,2.2-1.6,2.2-3.7V67.3z"/>
					<path id="XMLID_95_" class="st2" d="M59.7,79c-1.2,0-1.5-0.9-1.7-1.9l-0.1-0.3l-5.2-18.4l0-0.1c0-0.1-0.1-0.3-0.1-0.5
						c0-0.8,0.6-0.8,0.9-0.8l0.1,0c0.4,0,2,0,3.2,0c1,0,1.6,0,1.7,0c0.5,0.1,0.7,0.4,0.9,1l3.3,13l1-4.1c1.5-5.9,4.8-12.9,11.8-12.9
						c0.7,0,1.4,0.1,2.1,0.2c0.3,0.1,1.1,0.3,1.1,0.8c0,0.5-0.7,0.6-1,0.6c-5.8,0.5-8.4,9.4-11.2,21c-0.1,0.2-0.1,0.4-0.1,0.5
						c-0.2,1-0.4,1.8-1.7,1.8H59.7z"/>
					<path id="XMLID_94_" class="st2" d="M50.4,79c-3.6,0-5.5-2.2-5.5-6.1V52l0-2c0-0.5,0.4-0.9,0.8-0.9h5.2c0.4,0,0.8,0.4,0.8,0.9
						v19.6c0,3.9,0.2,6.7,0.6,7.7c0,0.1,0.1,0.1,0.1,0.2c0.1,0.4,0.3,0.7,0.1,1c-0.1,0.2-0.4,0.4-0.8,0.5C51.2,79,50.7,79,50.4,79
						L50.4,79z"/>
					<path id="XMLID_91_" class="st2" d="M81.1,79.4c-6,0-9.5-4.3-9.5-11.7c0-7.4,3.5-11.7,9.5-11.7c6,0,9.5,4.3,9.5,11.7
						C90.6,75.1,87.2,79.4,81.1,79.4L81.1,79.4z M81.1,60.3c-2.4,0-2.8,4.7-2.8,7.5c0,2.8,0.4,7.5,2.8,7.5c2.4,0,2.8-4.7,2.8-7.5
						C83.9,65,83.6,60.3,81.1,60.3L81.1,60.3z"/>
				</g>
				<g id="XMLID_79_">
					<g id="XMLID_89_">
						
							<linearGradient id="SVGID_1_" gradientUnits="userSpaceOnUse" x1="1464.2252" y1="79.3444" x2="1464.2252" y2="49.1059" gradientTransform="matrix(1 0 0 1 -1448.6475 0)">
							<stop  offset="0" style="stop-color:#231F20;stop-opacity:0.4"/>
							<stop  offset="0.9632" style="stop-color:#231F20;stop-opacity:1.000000e-02"/>
						</linearGradient>
						<path class="st3" d="M15.6,79.3c-8.6,0-9.5-5.4-9.5-7.7c0-1.3,0.9-1.5,0.9-1.5l4.8,0c0.6,0,1,0.1,1.2,0.4
							c0.2,0.2,0.2,0.5,0.2,0.7c-0.1,1.3,0.2,2.2,0.8,2.8c0.7,0.8,1.6,0.9,2,0.9l0.1,0c0.6,0,1.3-0.1,1.9-0.7
							c0.5-0.5,0.7-1.3,0.6-2.2c-0.1-1.9-2.3-3.2-4.4-4.4c-0.1-0.1-0.2-0.1-0.3-0.2c-0.1-0.1-0.2-0.1-0.4-0.2c-3.1-1.8-7-4.1-7-9.6
							c0-6.3,5-8.5,9.2-8.5c0.8,0,1.5,0.1,2.3,0.2c4.6,0.8,7,4.6,6.9,7.7c0,0.4,0,0.8-0.2,1c-0.2,0.3-0.5,0.3-0.6,0.3h-4.5
							c-0.7,0-1.1-0.1-1.3-0.4c-0.1-0.2-0.1-0.5-0.1-0.7c0.2-1.4-0.1-2.5-0.7-3.2c-0.6-0.7-1.5-0.8-1.8-0.8c-0.8,0-1.4,0.3-1.9,0.8
							c-0.5,0.6-0.7,1.5-0.5,2.5c0.3,1.6,2.2,2.8,6.4,5.2c3.9,2.3,5.5,4.9,5.3,9.2C24.9,74.8,22.3,79.3,15.6,79.3z"/>
						<path class="st2" d="M15.7,49.2c0.7,0,1.5,0.1,2.3,0.2c4.6,0.8,7,4.5,6.8,7.7c0,0,0,0,0,0c0,0.4,0,0.7-0.2,1
							c-0.2,0.3-0.5,0.3-0.6,0.3h-4.5c-0.7,0-1-0.1-1.2-0.4c-0.1-0.2-0.1-0.4-0.1-0.7c0.2-1.4-0.1-2.5-0.7-3.3
							c-0.7-0.8-1.5-0.8-1.9-0.8c-0.8,0-1.5,0.3-1.9,0.8c-0.5,0.6-0.7,1.6-0.5,2.5c0.3,1.6,2.2,2.8,6.5,5.3c3.9,2.3,5.4,4.9,5.3,9.2
							c-0.1,3.9-2.6,8.4-9.3,8.4c-8.5,0-9.4-5.4-9.4-7.7c0-1.2,0.7-1.4,0.8-1.4l4.8,0c0.6,0,1,0.1,1.2,0.3c0.2,0.2,0.2,0.5,0.1,0.7
							c-0.1,1.3,0.2,2.2,0.8,2.9c0.7,0.8,1.6,0.9,2,0.9l0.1,0c0.6,0,1.3-0.1,1.9-0.7c0.5-0.5,0.7-1.3,0.6-2.3
							c-0.1-2-2.3-3.2-4.4-4.4c-0.1-0.1-0.2-0.1-0.3-0.2c-0.1-0.1-0.2-0.1-0.4-0.2c-3.1-1.8-7-4.1-7-9.5
							C6.5,51.4,11.4,49.2,15.7,49.2 M15.7,49.1c-4.3,0-9.3,2.2-9.3,8.5c0,5.5,3.9,7.8,7,9.6c0.2,0.1,0.5,0.3,0.7,0.4
							c2.1,1.2,4.3,2.4,4.4,4.3c0,1-0.2,1.7-0.6,2.2c-0.5,0.6-1.3,0.7-1.8,0.7l-0.1,0c-0.4,0-1.3-0.1-1.9-0.8
							c-0.6-0.6-0.8-1.6-0.7-2.8c0-0.2,0-0.5-0.2-0.8c-0.2-0.3-0.6-0.4-1.3-0.4l-4.8,0c0,0-0.9,0.2-0.9,1.5c0,2.3,0.9,7.8,9.5,7.8
							c6.7,0,9.3-4.6,9.4-8.5c0.1-4.3-1.4-7-5.4-9.3c-4.3-2.5-6.2-3.6-6.4-5.2c-0.2-0.9,0-1.9,0.5-2.4c0.4-0.5,1-0.8,1.8-0.8
							c0.3,0,1.2,0.1,1.8,0.8c0.6,0.7,0.8,1.8,0.7,3.2c0,0.3,0,0.5,0.1,0.8c0.2,0.3,0.6,0.4,1.3,0.4H24c0.1,0,0.4,0,0.7-0.3
							c0.2-0.2,0.3-0.6,0.2-1c0.1-3.2-2.3-7-6.9-7.8C17.2,49.1,16.4,49.1,15.7,49.1L15.7,49.1z"/>
					</g>
					
						<linearGradient id="XMLID_5_" gradientUnits="userSpaceOnUse" x1="1483.2021" y1="79.0636" x2="1483.2021" y2="55.9808" gradientTransform="matrix(1 0 0 1 -1448.6475 0)">
						<stop  offset="0" style="stop-color:#231F20;stop-opacity:0.4"/>
						<stop  offset="0.9632" style="stop-color:#231F20;stop-opacity:1.000000e-02"/>
					</linearGradient>
					<path id="XMLID_86_" class="st4" d="M32.4,79.1c-6.6-0.1-6.8-5.9-6.8-6.6c0-2.3,0.9-4.5,2.4-5.7c1.8-1.4,3.9-2.1,5.8-2.7
						l0.7-0.2c0.3-0.1,0.6-0.2,0.8-0.3c0.2-0.1,0.3-0.1,0.5-0.2c0.7-0.3,0.9-0.4,0.9-1.1c0-0.4-0.1-1.1-0.5-1.6
						C35.9,60.2,35.7,60,35,60l-0.1,0c-1.1,0-1.6,0.8-1.6,2.2l0,0.1c0,0.9-0.6,1.1-1.5,1.1h-4.1c-0.1,0-0.4,0-0.7-0.3
						c-0.2-0.3-0.3-0.6-0.2-1.1c0.2-1.4,1.2-6,7.6-6.1h0.7c5.5,0,8.4,2.3,8.4,6.7v15c0,0.5-0.4,0.9-0.8,0.9h-4.8
						c-0.7,0-0.7-0.6-0.8-1c-1.3,0.9-2.6,1.4-4.6,1.4L32.4,79.1z M36.8,67.3c-4.2,1.7-4.5,3.5-4.5,5.1c0,1.7,0.7,2.8,2,2.8
						c0.1,0,0.2,0,0.3,0c1.4-0.2,2.2-1.6,2.2-3.7V67.3z"/>
					
						<linearGradient id="XMLID_7_" gradientUnits="userSpaceOnUse" x1="1514.2523" y1="78.987" x2="1514.2523" y2="54.0533" gradientTransform="matrix(1 0 0 1 -1448.6475 0)">
						<stop  offset="0" style="stop-color:#231F20;stop-opacity:0.4"/>
						<stop  offset="0.9632" style="stop-color:#231F20;stop-opacity:1.000000e-02"/>
					</linearGradient>
					<path id="XMLID_85_" class="st5" d="M59.7,79c-1.2,0-1.5-0.9-1.7-1.9l-0.1-0.3l-5.2-18.4l0-0.1c0-0.1-0.1-0.3-0.1-0.5
						c0-0.8,0.6-0.8,0.9-0.8l0.1,0c0.4,0,2,0,3.2,0c1,0,1.6,0,1.7,0c0.5,0.1,0.7,0.4,0.9,1l3.3,13l1-4.1c1.5-5.9,4.8-12.9,11.8-12.9
						c0.7,0,1.4,0.1,2.1,0.2c0.3,0.1,1.1,0.3,1.1,0.8c0,0.5-0.7,0.6-1,0.6c-5.8,0.5-8.4,9.4-11.2,21c-0.1,0.2-0.1,0.4-0.1,0.5
						c-0.2,1-0.4,1.8-1.7,1.8H59.7z"/>
					
						<linearGradient id="XMLID_8_" gradientUnits="userSpaceOnUse" x1="1497.3373" y1="79.0242" x2="1497.3373" y2="49.0958" gradientTransform="matrix(1 0 0 1 -1448.6475 0)">
						<stop  offset="0" style="stop-color:#231F20;stop-opacity:0.4"/>
						<stop  offset="0.9632" style="stop-color:#231F20;stop-opacity:1.000000e-02"/>
					</linearGradient>
					<path id="XMLID_84_" class="st6" d="M50.4,79c-3.6,0-5.5-2.2-5.5-6.1V52l0-2c0-0.5,0.4-0.9,0.8-0.9h5.2c0.4,0,0.8,0.4,0.8,0.9
						v19.6c0,3.9,0.2,6.7,0.6,7.7c0,0.1,0.1,0.1,0.1,0.2c0.1,0.4,0.3,0.7,0.1,1c-0.1,0.2-0.4,0.4-0.8,0.5C51.2,79,50.7,79,50.4,79
						L50.4,79z"/>
					
						<linearGradient id="XMLID_9_" gradientUnits="userSpaceOnUse" x1="1529.7867" y1="79.35" x2="1529.7867" y2="55.9642" gradientTransform="matrix(1 0 0 1 -1448.6475 0)">
						<stop  offset="0" style="stop-color:#231F20;stop-opacity:0.4"/>
						<stop  offset="0.9632" style="stop-color:#231F20;stop-opacity:1.000000e-02"/>
					</linearGradient>
					<path id="XMLID_80_" class="st7" d="M81.1,79.4c-6,0-9.5-4.3-9.5-11.7c0-7.4,3.5-11.7,9.5-11.7c6,0,9.5,4.3,9.5,11.7
						C90.6,75.1,87.2,79.4,81.1,79.4L81.1,79.4z M81.1,60.3c-2.4,0-2.8,4.7-2.8,7.5c0,2.8,0.4,7.5,2.8,7.5c2.4,0,2.8-4.7,2.8-7.5
						C83.9,65,83.6,60.3,81.1,60.3L81.1,60.3z"/>
				</g>
				<g id="XMLID_1_">
					<g id="XMLID_59_">
						<g id="XMLID_61_">
							<g id="XMLID_78_">
								<path class="st2" d="M27.7,63.2c-0.1,0-0.3-0.1-0.5-0.2c-0.2-0.2-0.2-0.5-0.2-0.9c0.2-1.4,1.1-5.8,7.4-5.9h0.7
									c2.2,0,5.2,0.4,6.9,2.5c0,0,0,0.1,0,0.1c0,0,0,0,0,0c0,0,0,0,0,0c-1.4-1.2-3.5-1.8-6.2-1.8H35c-6.2,0-7.2,4.4-7.3,5.8
									C27.7,62.9,27.7,63,27.7,63.2C27.7,63.2,27.7,63.2,27.7,63.2C27.7,63.2,27.7,63.2,27.7,63.2C27.7,63.2,27.7,63.2,27.7,63.2z
									"/>
								<path class="st2" d="M35.1,56.3c2.5,0,5.3,0.5,6.8,2.4c-1.6-1.4-4.1-1.9-6.3-1.9H35c-6.2,0-7.2,4.5-7.4,5.8
									c0,0.2,0,0.3,0,0.5c-0.1,0-0.3,0-0.4-0.2c-0.1-0.2-0.2-0.5-0.1-0.9c0.1-1.4,1.1-5.8,7.4-5.8H35.1 M35.1,56.2h-0.7
									c-6.3,0-7.3,4.5-7.5,5.9c-0.1,0.4,0,0.7,0.2,0.9c0.2,0.2,0.4,0.3,0.5,0.3c0,0,0,0,0,0c0,0,0.1,0,0.1,0c0,0,0-0.1,0-0.1
									c0-0.1,0-0.3,0-0.5c0.1-1.3,1.1-5.7,7.2-5.7h0.7c2.8,0,4.8,0.6,6.2,1.8c0,0,0,0,0.1,0c0,0,0.1,0,0.1,0c0,0,0-0.1,0-0.1
									C40.7,57,38.3,56.2,35.1,56.2L35.1,56.2z"/>
							</g>
							<g id="XMLID_72_">
								<path class="st2" d="M27.9,77.3C27.9,77.3,27.8,77.3,27.9,77.3c-2-1.7-2.1-4.3-2.1-4.8c0-2.3,0.9-4.4,2.3-5.5
									c1.7-1.4,3.8-2.1,5.7-2.7l0.7-0.2c0.3-0.1,0.6-0.2,0.8-0.3c0.2-0.1,0.4-0.1,0.6-0.2c0.8-0.3,1.1-0.5,1.1-1.3
									c0-0.4-0.1-1.1-0.4-1.6c0,0,0-0.1,0-0.1c0,0,0,0,0,0c0,0,0,0,0,0c0.1,0.1,0.3,0.2,0.4,0.4c0.5,0.6,0.6,1.4,0.6,1.9
									c0,0.9-0.4,1.2-1.2,1.4c-0.2,0.1-0.4,0.1-0.5,0.2c-0.3,0.1-0.5,0.2-0.8,0.3L34.5,65c-1.9,0.6-4,1.3-5.7,2.6
									c-1.4,1.1-2.3,3.2-2.3,5.4C26.5,73.5,26.6,75.5,27.9,77.3C27.9,77.2,27.9,77.2,27.9,77.3C27.9,77.3,27.9,77.3,27.9,77.3z"/>
								<path class="st2" d="M36.6,60.6c0.1,0.1,0.3,0.2,0.4,0.4c0.5,0.6,0.6,1.4,0.6,1.8c0,0.9-0.3,1.1-1.1,1.4
									c-0.2,0.1-0.4,0.1-0.6,0.2c-0.2,0.1-0.5,0.2-0.8,0.3L34.4,65c-1.9,0.6-4,1.3-5.7,2.7c-1.4,1.1-2.3,3.2-2.3,5.5
									c0,0.4,0.1,2.5,1.4,4.1c-1.9-1.7-2-4.3-2-4.7c0-2.2,0.9-4.3,2.3-5.5c1.7-1.4,3.8-2.1,5.7-2.7l0.7-0.2
									c0.3-0.1,0.6-0.2,0.8-0.3c0.2-0.1,0.4-0.1,0.5-0.2c0.8-0.3,1.1-0.5,1.1-1.4C37.1,61.9,37,61.2,36.6,60.6 M36.6,60.5
									C36.6,60.5,36.6,60.5,36.6,60.5c-0.1,0.1-0.1,0.1-0.1,0.2c0.4,0.5,0.4,1.2,0.4,1.6c0,0.8-0.3,1-1,1.3
									c-0.2,0.1-0.4,0.1-0.6,0.2c-0.2,0.1-0.5,0.2-0.8,0.3l-0.7,0.2c-1.9,0.6-4,1.3-5.7,2.7c-1.5,1.2-2.4,3.3-2.4,5.6
									c0,0.5,0.1,3.1,2,4.8c0,0,0,0,0.1,0c0,0,0.1,0,0.1,0c0,0,0-0.1,0-0.1c-1.3-1.6-1.4-3.7-1.4-4.1c0-2.2,0.9-4.3,2.3-5.4
									c1.7-1.4,3.8-2,5.7-2.6l0.7-0.2c0.3-0.1,0.6-0.2,0.8-0.3l0,0c0.2-0.1,0.4-0.1,0.5-0.2c0.8-0.3,1.2-0.5,1.2-1.5
									c0-0.4-0.1-1.3-0.6-1.9C37,60.8,36.9,60.6,36.6,60.5C36.7,60.5,36.7,60.5,36.6,60.5L36.6,60.5z"/>
							</g>
							<g id="XMLID_71_">
								<path class="st2" d="M37.9,78.4c-0.2,0-0.3,0-0.4-0.3c0,0,0,0,0,0c0,0,0.5-0.3,0.5-0.3l0,0.5c0,0,0,0,0,0.1c0,0,0,0,0,0.1
									c0,0,0,0,0,0C38.1,78.4,38,78.4,37.9,78.4L37.9,78.4z"/>
								<path class="st2" d="M38,77.7l0,0.5c0,0,0,0.1,0,0.1h-0.1c-0.2,0-0.3-0.1-0.4-0.3c0,0,0,0,0.1,0L38,77.7 M38,77.7
									C38,77.7,38,77.7,38,77.7L37.6,78c0,0,0,0,0,0l0,0c0,0,0,0,0,0c0.1,0.2,0.2,0.3,0.4,0.3H38c0,0,0,0,0,0c0,0,0,0,0,0
									c0,0,0,0,0-0.1c0,0,0,0,0-0.1L38,77.7C38,77.7,38,77.7,38,77.7C38,77.7,38,77.7,38,77.7L38,77.7z"/>
							</g>
							<g id="XMLID_70_">
								<path class="st2" d="M59.1,78.6C59.1,78.6,59.1,78.6,59.1,78.6c-0.5-0.2-0.7-0.7-0.9-1.6l-0.1-0.3l-5.2-18.4l0-0.1
									c0-0.1-0.1-0.3-0.1-0.4c0-0.4,0.2-0.5,0.7-0.5l0.1,0c0.4,0,2,0,3.2,0c1.1,0,1.6,0,1.7,0c0.3,0.1,0.5,0.2,0.6,0.6
									c0,0,0,0,0,0.1c0,0,0,0,0,0c0,0,0,0,0,0c0,0,0,0,0,0c0,0-0.2,0-1.6,0c-0.9,0-2.2,0-2.8,0l-0.4,0L54,58
									c-0.4,0-0.5,0.1-0.5,0.4c0,0.1,0,0.2,0.1,0.4l0,0.1l5.2,18.4l0.1,0.3C59,78,59.1,78.3,59.1,78.6
									C59.2,78.6,59.2,78.6,59.1,78.6C59.2,78.6,59.1,78.6,59.1,78.6z M63.2,72.9C63.2,72.9,63.1,72.8,63.2,72.9l-0.4-1.4
									c0,0,0,0,0,0l1.1-4.3c1.5-5.8,4.7-12.8,11.6-12.8c0.7,0,1.4,0.1,2.1,0.2c0.3,0.1,0.9,0.3,0.9,0.6c0,0.1,0,0.1-0.1,0.1
									c0,0,0,0,0,0c0,0,0,0,0,0c-0.1,0-0.1,0-0.2-0.1C77.4,55.1,76.7,55,76,55c-6.8,0-10,6.9-11.5,12.7L63.2,72.9
									C63.2,72.8,63.2,72.9,63.2,72.9L63.2,72.9z"/>
								<path class="st2" d="M75.4,54.3c0.7,0,1.4,0.1,2.1,0.2c0.4,0.1,0.8,0.3,0.8,0.5c0,0,0,0.1-0.1,0.1c-0.1,0-0.1,0-0.2-0.1
									c-0.7-0.1-1.4-0.2-2.1-0.2c-6.8,0-10,6.9-11.5,12.7l-1.3,5.2l-0.4-1.4l1.1-4.3C65.4,61.3,68.6,54.3,75.4,54.3 M56.7,57.3
									c1.2,0,1.6,0,1.7,0c0.3,0.1,0.5,0.2,0.6,0.6c0,0,0,0,0,0c-0.1,0-0.5,0-1.6,0c-1.2,0-2.8,0-3.2,0l-0.1,0
									c-0.4,0-0.6,0.1-0.6,0.5c0,0.1,0,0.3,0.1,0.4l0,0.1l5.2,18.4l0.1,0.3c0.1,0.4,0.2,0.7,0.3,1c-0.5-0.2-0.7-0.7-0.9-1.6
									l-0.1-0.3l-5.2-18.4l0-0.1c0-0.1-0.1-0.2-0.1-0.4c0-0.4,0.2-0.5,0.6-0.5l0.1,0C53.9,57.3,55.5,57.3,56.7,57.3 M75.4,54.2
									c-6.9,0-10.1,7-11.6,12.8l-1.1,4.3c0,0,0,0,0,0.1l0.4,1.4c0,0,0.1,0.1,0.1,0.1h0c0.1,0,0.1,0,0.1-0.1l1.3-5.2
									C66.1,61.9,69.3,55,76,55c0.7,0,1.4,0.1,2,0.2c0.1,0,0.1,0,0.2,0c0,0,0,0,0,0c0,0,0.1,0,0.1,0c0.1-0.1,0.1-0.1,0.1-0.2
									c0-0.3-0.6-0.6-0.9-0.6C76.8,54.3,76.1,54.2,75.4,54.2L75.4,54.2z M56.7,57.2c-1.2,0-2.9,0-3.2,0l-0.1,0
									c-0.4,0-0.7,0.1-0.7,0.6c0,0.2,0,0.3,0.1,0.4l0,0.1l5.2,18.5l0.1,0.3c0.2,0.9,0.4,1.4,0.9,1.6c0,0,0,0,0,0c0,0,0.1,0,0.1,0
									c0,0,0-0.1,0-0.1c-0.1-0.2-0.2-0.5-0.3-1l-0.1-0.3l-5.2-18.5l0-0.1c0-0.1-0.1-0.2-0.1-0.4c0-0.3,0.1-0.4,0.5-0.4l0.1,0
									l0.4,0c0.6,0,1.8,0,2.8,0c1.5,0,1.6,0,1.6,0c0,0,0,0,0,0c0,0,0,0,0,0c0,0,0.1,0,0.1,0c0,0,0-0.1,0-0.1
									c-0.2-0.5-0.4-0.6-0.7-0.7C58.3,57.2,57.8,57.2,56.7,57.2L56.7,57.2z"/>
							</g>
							<g id="XMLID_69_">
								<path class="st2" d="M46.9,77.7C46.9,77.7,46.9,77.7,46.9,77.7c-1.2-1-1.8-2.6-1.8-4.7V52l0-2c0-0.3,0.3-0.6,0.5-0.6h5.2
									c0.3,0,0.5,0.3,0.5,0.6c0,0,0,0.1-0.1,0.1h-5.1c-0.2,0-0.4,0.2-0.4,0.5l0,2v21C45.8,75.3,46.2,76.6,46.9,77.7
									C47,77.6,47,77.7,46.9,77.7C46.9,77.7,46.9,77.7,46.9,77.7z"/>
								<path class="st2" d="M50.9,49.4c0.3,0,0.5,0.3,0.5,0.6v0h-5.1c-0.3,0-0.5,0.3-0.5,0.6l0,2v21c0,1.8,0.4,3.1,1.2,4.1
									c-1.1-1-1.7-2.5-1.7-4.7V52l0-2c0-0.3,0.2-0.6,0.5-0.6H50.9 M50.9,49.3h-5.2c-0.3,0-0.6,0.3-0.6,0.7l0,2v21
									c0,2.2,0.6,3.8,1.8,4.8c0,0,0,0,0.1,0c0,0,0.1,0,0.1,0c0,0,0-0.1,0-0.1c-0.8-1-1.1-2.3-1.1-4v-21l0-2c0-0.2,0.2-0.5,0.4-0.5
									h5.1c0.1,0,0.1,0,0.1-0.1C51.5,49.6,51.2,49.3,50.9,49.3L50.9,49.3z"/>
							</g>
							<g id="XMLID_68_">
								<path class="st2" d="M18.9,58.1c-0.3-0.1-0.4-0.1-0.5-0.3c-0.1-0.1-0.1-0.3-0.1-0.6c0.1-1.4,0-2.4-0.6-3.1c0,0,0-0.1,0-0.1
									c0,0,0,0,0,0c0,0,0,0,0,0c0.2,0.1,0.3,0.2,0.4,0.4c0.7,0.8,0.9,1.9,0.7,3.4C18.9,57.9,18.9,58,18.9,58.1
									C18.9,58,18.9,58.1,18.9,58.1C18.9,58.1,18.9,58.1,18.9,58.1C18.9,58.1,18.9,58.1,18.9,58.1z"/>
								<path class="st2" d="M17.8,54c0.1,0.1,0.3,0.2,0.4,0.4c0.6,0.8,0.9,1.9,0.7,3.4c0,0.1,0,0.2,0,0.2c-0.3-0.1-0.4-0.2-0.5-0.3
									c-0.1-0.1-0.1-0.3-0.1-0.5C18.5,55.9,18.3,54.8,17.8,54 M17.8,53.9C17.7,53.9,17.7,53.9,17.8,53.9c-0.1,0.1-0.1,0.1-0.1,0.2
									c0.5,0.7,0.7,1.8,0.5,3.1c0,0.3,0,0.5,0.1,0.6c0.1,0.2,0.3,0.3,0.6,0.3c0,0,0,0,0,0c0,0,0,0,0.1,0c0,0,0-0.1,0-0.1
									c0-0.1,0-0.1,0-0.2c0.2-1.5-0.1-2.7-0.7-3.5C18.1,54.2,18,54.1,17.8,53.9C17.8,53.9,17.8,53.9,17.8,53.9L17.8,53.9z"/>
							</g>
							<g id="XMLID_67_">
								<path class="st2" d="M9.4,64.1C9.4,64.1,9.4,64.1,9.4,64.1c-1.9-1.8-2.8-3.9-2.8-6.5c0-6.1,4.9-8.3,9.1-8.3
									c0.7,0,1.5,0.1,2.3,0.2c2,0.3,3.7,1.3,4.9,2.7c0,0,0,0.1,0,0.1c0,0,0,0,0,0c0,0,0,0,0,0c-1.2-1.1-2.7-1.8-4.3-2.1
									C17.7,50,17,50,16.2,50c-4.1,0-9,2.1-9,8.2C7.3,60.5,8,62.4,9.4,64.1C9.5,64.1,9.5,64.1,9.4,64.1
									C9.4,64.1,9.4,64.1,9.4,64.1z"/>
								<path class="st2" d="M15.7,49.3c0.7,0,1.5,0.1,2.3,0.2c2.1,0.4,3.8,1.4,4.9,2.7c-1.1-1-2.5-1.8-4.3-2.1
									c-0.8-0.1-1.5-0.2-2.3-0.2c-4.2,0-9,2.2-9,8.2c0,2.6,0.9,4.5,2.2,5.9c-1.6-1.5-2.8-3.5-2.8-6.5
									C6.6,51.5,11.5,49.3,15.7,49.3 M15.7,49.2c-4.2,0-9.1,2.2-9.1,8.3c0,2.6,0.9,4.8,2.8,6.6c0,0,0,0,0.1,0c0,0,0.1,0,0.1,0
									c0,0,0-0.1,0-0.2c-1.5-1.6-2.2-3.5-2.2-5.8c0-6,4.8-8.1,8.9-8.1c0.7,0,1.5,0.1,2.2,0.2c1.7,0.3,3.1,1,4.3,2.1c0,0,0,0,0.1,0
									c0,0,0.1,0,0.1,0c0,0,0-0.1,0-0.2c-1.2-1.4-3-2.4-5-2.7C17.2,49.3,16.4,49.2,15.7,49.2L15.7,49.2z"/>
							</g>
							<g id="XMLID_66_">
								<path class="st2" d="M8.6,77C8.5,77,8.5,77,8.6,77c-1.9-1.8-2.2-4.1-2.2-5.3c0-1,0.6-1.3,0.7-1.3l4.8,0
									c0.6,0,0.9,0.1,1.1,0.3c0.1,0.1,0.1,0.3,0.1,0.4c0,0,0,0,0,0c0,0,0,0,0,0c0,0,0,0,0,0c-0.2,0-0.4-0.1-0.6-0.1l-4.8,0
									c-0.1,0-0.6,0.2-0.6,1.2C7,73.3,7.2,75.3,8.6,77C8.6,76.9,8.6,76.9,8.6,77C8.6,77,8.6,77,8.6,77z"/>
								<path class="st2" d="M11.9,70.4c0.6,0,0.9,0.1,1,0.3C13,70.8,13,70.9,13,71c-0.2,0-0.3-0.1-0.6-0.1l-4.8,0
									C7.5,71,7,71.2,7,72.2c0,1.2,0.2,3.1,1.6,4.7c-1.9-1.7-2.2-4-2.2-5.3c0-1,0.6-1.2,0.7-1.3L11.9,70.4 M11.9,70.3L11.9,70.3
									l-4.8,0c0,0,0,0,0,0c-0.1,0-0.7,0.3-0.7,1.4c0,1.3,0.3,3.6,2.2,5.4c0,0,0,0,0.1,0c0,0,0.1,0,0.1,0c0,0,0-0.1,0-0.2
									c-1.4-1.6-1.6-3.6-1.6-4.6c0-0.9,0.5-1.1,0.6-1.1l4.8,0c0.2,0,0.4,0,0.6,0c0,0,0,0,0,0c0,0,0.1,0,0.1,0c0,0,0-0.1,0-0.1
									c0-0.1,0-0.3-0.1-0.4C12.8,70.4,12.5,70.3,11.9,70.3L11.9,70.3z"/>
							</g>
							<g id="XMLID_65_">
								<path class="st2" d="M16.5,75.8c-0.4,0-1.4-0.1-2.2-1c-0.1-0.1-0.1-0.2-0.2-0.3c0,0,0-0.1,0-0.1c0,0,0,0,0,0c0,0,0,0,0,0
									c0.7,0.5,1.4,0.6,1.7,0.6l0.1,0c0.6,0,1.4-0.1,2-0.8c0.5-0.5,0.7-1.3,0.7-2.4c0-0.7-0.3-1.3-0.8-1.9c0,0,0-0.1,0-0.1
									c0,0,0,0,0,0c0,0,0,0,0,0c0.9,0.8,1.3,1.6,1.4,2.5c0.1,1.1-0.2,1.9-0.7,2.5c-0.6,0.7-1.5,0.8-2.1,0.8
									C16.6,75.8,16.5,75.8,16.5,75.8z"/>
								<path class="st2" d="M17.9,70c0.8,0.7,1.3,1.5,1.4,2.5c0.1,1-0.2,1.9-0.7,2.4c-0.6,0.7-1.4,0.8-2,0.8l-0.1,0
									c-0.4,0-1.4-0.1-2.1-0.9c-0.1-0.1-0.1-0.2-0.2-0.2c0.7,0.5,1.4,0.6,1.8,0.6l0.1,0c0.6,0,1.4-0.1,2-0.8
									c0.5-0.6,0.7-1.4,0.7-2.4C18.7,71.2,18.4,70.6,17.9,70 M17.9,69.9C17.9,69.9,17.9,69.9,17.9,69.9c-0.1,0.1-0.1,0.1-0.1,0.2
									c0.5,0.6,0.7,1.2,0.8,1.8c0.1,1-0.2,1.8-0.6,2.3c-0.6,0.6-1.4,0.8-1.9,0.8l-0.1,0c-0.3,0-1-0.1-1.7-0.6c0,0,0,0-0.1,0
									c0,0-0.1,0-0.1,0c0,0,0,0.1,0,0.1c0.1,0.1,0.1,0.2,0.2,0.3c0.8,0.8,1.8,1,2.2,1l0.1,0c0.6,0,1.5-0.1,2.1-0.8
									c0.5-0.6,0.8-1.4,0.7-2.5C19.4,71.6,18.9,70.8,17.9,69.9C18,69.9,18,69.9,17.9,69.9L17.9,69.9z"/>
							</g>
							<g id="XMLID_64_">
								<path class="st2" d="M22.7,64.4C22.7,64.4,22.7,64.4,22.7,64.4c-0.7-0.7-1.6-1.3-2.6-1.9c-3.1-1.8-5-2.9-5.9-4
									c0,0,0-0.1,0-0.1c0,0,0,0,0,0c0,0,0,0,0,0c1,0.9,2.8,2,5.3,3.4C20.9,62.6,21.9,63.4,22.7,64.4
									C22.7,64.4,22.7,64.4,22.7,64.4C22.7,64.4,22.7,64.4,22.7,64.4z"/>
								<path class="st2" d="M14.2,58.4c1,0.9,2.8,2,5.3,3.5c1.3,0.8,2.4,1.6,3.2,2.5c-0.7-0.7-1.6-1.3-2.6-1.9
									C17,60.7,15.1,59.5,14.2,58.4 M14.2,58.3C14.2,58.3,14.1,58.3,14.2,58.3c-0.1,0.1-0.1,0.1-0.1,0.2c0.9,1.1,2.9,2.3,5.9,4.1
									c1,0.6,1.9,1.2,2.6,1.9c0,0,0,0,0.1,0s0.1,0,0.1,0c0,0,0-0.1,0-0.2c-0.8-0.9-1.8-1.7-3.2-2.5C17,60.3,15.3,59.3,14.2,58.3
									C14.3,58.3,14.2,58.3,14.2,58.3L14.2,58.3z"/>
							</g>
							<g id="XMLID_63_">
								<path class="st2" d="M75.1,77C75.1,77,75.1,76.9,75.1,77c-2.1-2-3.2-5.2-3.2-9.3c0-7.3,3.4-11.5,9.3-11.5
									c2.8,0,5,0.9,6.6,2.8c0,0,0,0.1,0,0.1c0,0,0,0,0,0c0,0,0,0,0,0c-1.5-1.4-3.5-2.1-6-2.1c-5.8,0-9.1,4.1-9.1,11.3
									C72.6,71.9,73.5,74.9,75.1,77C75.2,76.9,75.2,76.9,75.1,77C75.2,76.9,75.1,77,75.1,77z"/>
								<path class="st2" d="M81.1,56.3c2.8,0,5,1,6.6,2.7c-1.5-1.4-3.5-2.2-6-2.2c-5.8,0-9.2,4.2-9.2,11.4c0,3.8,0.9,6.7,2.6,8.7
									c-2.1-1.9-3.2-5.1-3.2-9.2C71.9,60.4,75.3,56.3,81.1,56.3 M81.1,56.1c-5.9,0-9.3,4.2-9.3,11.5c0,4.1,1.1,7.4,3.2,9.3
									c0,0,0,0,0.1,0c0,0,0.1,0,0.1,0c0,0,0-0.1,0-0.2c-1.7-1.9-2.6-4.9-2.6-8.6c0-7.2,3.3-11.3,9.1-11.3c2.4,0,4.4,0.7,5.9,2.1
									c0,0,0,0,0.1,0c0,0,0.1,0,0.1,0c0,0,0-0.1,0-0.2C86.2,57.1,83.9,56.1,81.1,56.1L81.1,56.1z"/>
							</g>
							<g id="XMLID_62_">
								<path class="st2" d="M81.7,76.2c-0.7,0-1.3-0.3-1.8-1c0,0,0-0.1,0-0.1c0,0,0,0,0,0c0,0,0,0,0,0c0.3,0.3,0.7,0.4,1.2,0.4
									c2.5,0,3-4.2,3-7.7c0-2.3-0.2-5.3-1.3-6.8c0,0,0-0.1,0-0.1c0,0,0,0,0,0c0,0,0,0,0,0c1.6,1.2,1.9,4.7,1.9,7.4
									C84.8,71.9,84.3,76.2,81.7,76.2z"/>
								<path class="st2" d="M82.9,61c1.5,1.1,1.9,4.5,1.9,7.4c0,3.6-0.5,7.8-3.1,7.8c-0.7,0-1.3-0.4-1.8-1c0.3,0.2,0.7,0.4,1.2,0.4
									c2.6,0,3.1-4.2,3.1-7.8C84.2,65.3,84,62.4,82.9,61 M82.9,60.9C82.9,60.9,82.8,60.9,82.9,60.9c-0.1,0.1-0.1,0.1-0.1,0.2
									c1.1,1.5,1.3,4.5,1.3,6.7c0,6.3-1.6,7.7-3,7.7c-0.4,0-0.8-0.1-1.1-0.4c0,0,0,0-0.1,0c0,0-0.1,0-0.1,0c0,0,0,0.1,0,0.1
									c0.5,0.7,1.1,1,1.8,1c2.6,0,3.2-4.3,3.2-7.9C84.9,65.6,84.6,62.1,82.9,60.9C82.9,60.9,82.9,60.9,82.9,60.9L82.9,60.9z"/>
							</g>
						</g>
						<g id="XMLID_60_">
							<path class="st2" d="M34.8,76.1c-0.7,0-1.3-0.3-1.8-1c0,0,0-0.1,0-0.1c0,0,0,0,0,0c0,0,0,0,0,0c0.3,0.2,0.7,0.3,1.1,0.3
								c0.1,0,0.2,0,0.4,0c1.5-0.2,2.4-1.7,2.4-3.9v-3.9c0,0,0,0,0-0.1c0,0,0.1,0,0.1-0.1l0,0l0.4-0.2c0,0,0,0,0,0c0,0,0,0,0,0
								c0,0,0,0,0,0V72c0,2.3-0.9,3.8-2.5,4C35.1,76.1,34.9,76.1,34.8,76.1z"/>
							<path class="st2" d="M37.6,67.4V72c0,2.3-0.9,3.7-2.5,4c-0.1,0-0.3,0-0.4,0c-0.7,0-1.3-0.3-1.7-0.9c0.3,0.2,0.7,0.4,1.1,0.4
								c0.1,0,0.2,0,0.4,0c1.5-0.2,2.5-1.7,2.5-4v-3.9c0.1,0,0.1,0,0.2-0.1L37.6,67.4 M37.6,67.3C37.6,67.3,37.6,67.3,37.6,67.3
								l-0.4,0.2l-0.1,0c0,0-0.1,0-0.1,0.1c0,0-0.1,0.1-0.1,0.1v3.9c0,2.2-0.9,3.6-2.4,3.8c-0.1,0-0.2,0-0.4,0
								c-0.4,0-0.8-0.1-1.1-0.3c0,0,0,0-0.1,0c0,0-0.1,0-0.1,0c0,0,0,0.1,0,0.1c0.4,0.6,1,1,1.8,1c0.1,0,0.3,0,0.4,0
								c1.6-0.2,2.6-1.7,2.6-4.1v-4.7C37.8,67.3,37.7,67.3,37.6,67.3C37.7,67.3,37.7,67.3,37.6,67.3L37.6,67.3z"/>
						</g>
					</g>
					<g id="XMLID_3_">
						<g id="XMLID_4_">
							<g id="XMLID_15_">
								<g id="XMLID_58_">
									
										<linearGradient id="SVGID_2_" gradientUnits="userSpaceOnUse" x1="1463.5955" y1="79.3421" x2="1483.8636" y2="58.7024" gradientTransform="matrix(1 0 0 1 -1448.6475 0)">
										<stop  offset="0" style="stop-color:#FFFAF7;stop-opacity:1.000000e-02"/>
										<stop  offset="0.4233" style="stop-color:#F8DACD"/>
										<stop  offset="0.816" style="stop-color:#F8DACD"/>
										<stop  offset="1" style="stop-color:#FFFAF7;stop-opacity:1.000000e-02"/>
									</linearGradient>
									<path class="st8" d="M27.7,63.2c-0.1,0-0.3-0.1-0.5-0.2c-0.2-0.2-0.2-0.5-0.2-0.9c0.2-1.4,1.1-5.8,7.4-5.9h0.7
										c2.2,0,5.2,0.4,6.9,2.5c0,0,0,0.1,0,0.1c0,0,0,0,0,0c0,0,0,0,0,0c-1.4-1.2-3.5-1.8-6.2-1.8H35c-6.2,0-7.2,4.4-7.3,5.8
										C27.7,62.9,27.7,63,27.7,63.2C27.7,63.2,27.7,63.2,27.7,63.2C27.7,63.2,27.7,63.2,27.7,63.2C27.7,63.2,27.7,63.2,27.7,63.2
										z"/>
									<path class="st2" d="M35.1,56.3c2.5,0,5.3,0.5,6.8,2.4c-1.6-1.4-4.1-1.9-6.3-1.9H35c-6.2,0-7.2,4.5-7.4,5.8
										c0,0.2,0,0.3,0,0.5c-0.1,0-0.3,0-0.4-0.2c-0.1-0.2-0.2-0.5-0.1-0.9c0.1-1.4,1.1-5.8,7.4-5.8H35.1 M35.1,56.2h-0.7
										c-6.3,0-7.3,4.5-7.5,5.9c-0.1,0.4,0,0.7,0.2,0.9c0.2,0.2,0.4,0.3,0.5,0.3c0,0,0,0,0,0c0,0,0.1,0,0.1,0c0,0,0-0.1,0-0.1
										c0-0.1,0-0.3,0-0.5c0.1-1.3,1.1-5.7,7.2-5.7h0.7c2.8,0,4.8,0.6,6.2,1.8c0,0,0,0,0.1,0c0,0,0.1,0,0.1,0c0,0,0-0.1,0-0.1
										C40.7,57,38.3,56.2,35.1,56.2L35.1,56.2z"/>
								</g>
								<g id="XMLID_57_">
									
										<linearGradient id="SVGID_3_" gradientUnits="userSpaceOnUse" x1="1480.4065" y1="79.5306" x2="1480.4065" y2="56.4449" gradientTransform="matrix(1 0 0 1 -1448.6475 0)">
										<stop  offset="0" style="stop-color:#FFFAF7;stop-opacity:1.000000e-02"/>
										<stop  offset="0.4277" style="stop-color:#F8DACD"/>
										<stop  offset="0.816" style="stop-color:#F8DACD"/>
										<stop  offset="1" style="stop-color:#FFFAF7;stop-opacity:1.000000e-02"/>
									</linearGradient>
									<path class="st9" d="M27.9,77.3C27.9,77.3,27.8,77.3,27.9,77.3c-2-1.7-2.1-4.3-2.1-4.8c0-2.3,0.9-4.4,2.3-5.5
										c1.7-1.4,3.8-2.1,5.7-2.7l0.7-0.2c0.3-0.1,0.6-0.2,0.8-0.3c0.2-0.1,0.4-0.1,0.6-0.2c0.8-0.3,1.1-0.5,1.1-1.3
										c0-0.4-0.1-1.1-0.4-1.6c0,0,0-0.1,0-0.1c0,0,0,0,0,0c0,0,0,0,0,0c0.1,0.1,0.3,0.2,0.4,0.4c0.5,0.6,0.6,1.4,0.6,1.9
										c0,0.9-0.4,1.2-1.2,1.4c-0.2,0.1-0.4,0.1-0.5,0.2c-0.3,0.1-0.5,0.2-0.8,0.3L34.5,65c-1.9,0.6-4,1.3-5.7,2.6
										c-1.4,1.1-2.3,3.2-2.3,5.4C26.5,73.5,26.6,75.5,27.9,77.3C27.9,77.2,27.9,77.2,27.9,77.3C27.9,77.3,27.9,77.3,27.9,77.3z"
										/>
									<path class="st2" d="M36.6,60.6c0.1,0.1,0.3,0.2,0.4,0.4c0.5,0.6,0.6,1.4,0.6,1.8c0,0.9-0.3,1.1-1.1,1.4
										c-0.2,0.1-0.4,0.1-0.6,0.2c-0.2,0.1-0.5,0.2-0.8,0.3L34.4,65c-1.9,0.6-4,1.3-5.7,2.7c-1.4,1.1-2.3,3.2-2.3,5.5
										c0,0.4,0.1,2.5,1.4,4.1c-1.9-1.7-2-4.3-2-4.7c0-2.2,0.9-4.3,2.3-5.5c1.7-1.4,3.8-2.1,5.7-2.7l0.7-0.2
										c0.3-0.1,0.6-0.2,0.8-0.3c0.2-0.1,0.4-0.1,0.5-0.2c0.8-0.3,1.1-0.5,1.1-1.4C37.1,61.9,37,61.2,36.6,60.6 M36.6,60.5
										C36.6,60.5,36.6,60.5,36.6,60.5c-0.1,0.1-0.1,0.1-0.1,0.2c0.4,0.5,0.4,1.2,0.4,1.6c0,0.8-0.3,1-1,1.3
										c-0.2,0.1-0.4,0.1-0.6,0.2c-0.2,0.1-0.5,0.2-0.8,0.3l-0.7,0.2c-1.9,0.6-4,1.3-5.7,2.7c-1.5,1.2-2.4,3.3-2.4,5.6
										c0,0.5,0.1,3.1,2,4.8c0,0,0,0,0.1,0c0,0,0.1,0,0.1,0c0,0,0-0.1,0-0.1c-1.3-1.6-1.4-3.7-1.4-4.1c0-2.2,0.9-4.3,2.3-5.4
										c1.7-1.4,3.8-2,5.7-2.6l0.7-0.2c0.3-0.1,0.6-0.2,0.8-0.3l0,0c0.2-0.1,0.4-0.1,0.5-0.2c0.8-0.3,1.2-0.5,1.2-1.5
										c0-0.4-0.1-1.3-0.6-1.9C37,60.8,36.9,60.6,36.6,60.5C36.7,60.5,36.7,60.5,36.6,60.5L36.6,60.5z"/>
								</g>
								<g id="XMLID_56_">
									
										<linearGradient id="SVGID_4_" gradientUnits="userSpaceOnUse" x1="1514.2526" y1="79.7126" x2="1514.2526" y2="55.9042" gradientTransform="matrix(1 0 0 1 -1448.6475 0)">
										<stop  offset="0" style="stop-color:#FFFAF7;stop-opacity:1.000000e-02"/>
										<stop  offset="0.4233" style="stop-color:#F8DACD"/>
										<stop  offset="0.816" style="stop-color:#F8DACD"/>
										<stop  offset="1" style="stop-color:#FFFAF7;stop-opacity:1.000000e-02"/>
									</linearGradient>
									<path class="st10" d="M59.1,78.6C59.1,78.6,59.1,78.6,59.1,78.6c-0.5-0.2-0.7-0.7-0.9-1.6l-0.1-0.3l-5.2-18.4l0-0.1
										c0-0.1-0.1-0.3-0.1-0.4c0-0.4,0.2-0.5,0.7-0.5l0.1,0c0.4,0,2,0,3.2,0c1.1,0,1.6,0,1.7,0c0.3,0.1,0.5,0.2,0.6,0.6
										c0,0,0,0,0,0.1c0,0,0,0,0,0c0,0,0,0,0,0c0,0,0,0,0,0c0,0-0.2,0-1.6,0c-0.9,0-2.2,0-2.8,0l-0.4,0L54,58
										c-0.4,0-0.5,0.1-0.5,0.4c0,0.1,0,0.2,0.1,0.4l0,0.1l5.2,18.4l0.1,0.3C59,78,59.1,78.3,59.1,78.6
										C59.2,78.6,59.2,78.6,59.1,78.6C59.2,78.6,59.1,78.6,59.1,78.6z M63.2,72.9C63.2,72.9,63.1,72.8,63.2,72.9l-0.4-1.4
										c0,0,0,0,0,0l1.1-4.3c1.5-5.8,4.7-12.8,11.6-12.8c0.7,0,1.4,0.1,2.1,0.2c0.3,0.1,0.9,0.3,0.9,0.6c0,0.1,0,0.1-0.1,0.1
										c0,0,0,0,0,0c0,0,0,0,0,0c-0.1,0-0.1,0-0.2-0.1C77.4,55.1,76.7,55,76,55c-6.8,0-10,6.9-11.5,12.7L63.2,72.9
										C63.2,72.8,63.2,72.9,63.2,72.9L63.2,72.9z"/>
									<path class="st2" d="M75.4,54.3c0.7,0,1.4,0.1,2.1,0.2c0.4,0.1,0.8,0.3,0.8,0.5c0,0,0,0.1-0.1,0.1c-0.1,0-0.1,0-0.2-0.1
										c-0.7-0.1-1.4-0.2-2.1-0.2c-6.8,0-10,6.9-11.5,12.7l-1.3,5.2l-0.4-1.4l1.1-4.3C65.4,61.3,68.6,54.3,75.4,54.3 M56.7,57.3
										c1.2,0,1.6,0,1.7,0c0.3,0.1,0.5,0.2,0.6,0.6c0,0,0,0,0,0c-0.1,0-0.5,0-1.6,0c-1.2,0-2.8,0-3.2,0l-0.1,0
										c-0.4,0-0.6,0.1-0.6,0.5c0,0.1,0,0.3,0.1,0.4l0,0.1l5.2,18.4l0.1,0.3c0.1,0.4,0.2,0.7,0.3,1c-0.5-0.2-0.7-0.7-0.9-1.6
										l-0.1-0.3l-5.2-18.4l0-0.1c0-0.1-0.1-0.2-0.1-0.4c0-0.4,0.2-0.5,0.6-0.5l0.1,0C53.9,57.3,55.5,57.3,56.7,57.3 M75.4,54.2
										c-6.9,0-10.1,7-11.6,12.8l-1.1,4.3c0,0,0,0,0,0.1l0.4,1.4c0,0,0.1,0.1,0.1,0.1h0c0.1,0,0.1,0,0.1-0.1l1.3-5.2
										C66.1,61.9,69.3,55,76,55c0.7,0,1.4,0.1,2,0.2c0.1,0,0.1,0,0.2,0c0,0,0,0,0,0c0,0,0.1,0,0.1,0c0.1-0.1,0.1-0.1,0.1-0.2
										c0-0.3-0.6-0.6-0.9-0.6C76.8,54.3,76.1,54.2,75.4,54.2L75.4,54.2z M56.7,57.2c-1.2,0-2.9,0-3.2,0l-0.1,0
										c-0.4,0-0.7,0.1-0.7,0.6c0,0.2,0,0.3,0.1,0.4l0,0.1l5.2,18.5l0.1,0.3c0.2,0.9,0.4,1.4,0.9,1.6c0,0,0,0,0,0c0,0,0.1,0,0.1,0
										c0,0,0-0.1,0-0.1c-0.1-0.2-0.2-0.5-0.3-1l-0.1-0.3l-5.2-18.5l0-0.1c0-0.1-0.1-0.2-0.1-0.4c0-0.3,0.1-0.4,0.5-0.4l0.1,0
										l0.4,0c0.6,0,1.8,0,2.8,0c1.5,0,1.6,0,1.6,0c0,0,0,0,0,0c0,0,0,0,0,0c0,0,0.1,0,0.1,0c0,0,0-0.1,0-0.1
										c-0.2-0.5-0.4-0.6-0.7-0.7C58.3,57.2,57.8,57.2,56.7,57.2L56.7,57.2z"/>
								</g>
								<g id="XMLID_47_">
									
										<linearGradient id="SVGID_5_" gradientUnits="userSpaceOnUse" x1="1496.9169" y1="81.5228" x2="1496.9169" y2="42.3533" gradientTransform="matrix(1 0 0 1 -1448.6475 0)">
										<stop  offset="0" style="stop-color:#FFFAF7;stop-opacity:1.000000e-02"/>
										<stop  offset="0.4233" style="stop-color:#F8DACD"/>
										<stop  offset="0.816" style="stop-color:#F8DACD"/>
										<stop  offset="1" style="stop-color:#FFFAF7;stop-opacity:1.000000e-02"/>
									</linearGradient>
									<path class="st11" d="M46.9,77.7C46.9,77.7,46.9,77.7,46.9,77.7c-1.2-1-1.8-2.6-1.8-4.7V52l0-2c0-0.3,0.3-0.6,0.5-0.6h5.2
										c0.3,0,0.5,0.3,0.5,0.6c0,0,0,0.1-0.1,0.1h-5.1c-0.2,0-0.4,0.2-0.4,0.5l0,2v21C45.8,75.3,46.2,76.6,46.9,77.7
										C47,77.6,47,77.7,46.9,77.7C46.9,77.7,46.9,77.7,46.9,77.7z"/>
									<path class="st2" d="M50.9,49.4c0.3,0,0.5,0.3,0.5,0.6v0h-5.1c-0.3,0-0.5,0.3-0.5,0.6l0,2v21c0,1.8,0.4,3.1,1.2,4.1
										c-1.1-1-1.7-2.5-1.7-4.7V52l0-2c0-0.3,0.2-0.6,0.5-0.6H50.9 M50.9,49.3h-5.2c-0.3,0-0.6,0.3-0.6,0.7l0,2v21
										c0,2.2,0.6,3.8,1.8,4.8c0,0,0,0,0.1,0c0,0,0.1,0,0.1,0c0,0,0-0.1,0-0.1c-0.8-1-1.1-2.3-1.1-4v-21l0-2
										c0-0.2,0.2-0.5,0.4-0.5h5.1c0.1,0,0.1,0,0.1-0.1C51.5,49.6,51.2,49.3,50.9,49.3L50.9,49.3z"/>
								</g>
								<g id="XMLID_41_">
									
										<linearGradient id="SVGID_6_" gradientUnits="userSpaceOnUse" x1="1466.9852" y1="79.3024" x2="1466.9852" y2="49.3719" gradientTransform="matrix(1 0 0 1 -1448.6475 0)">
										<stop  offset="0" style="stop-color:#F8DACD;stop-opacity:0"/>
										<stop  offset="0.4233" style="stop-color:#F8DACD"/>
										<stop  offset="0.816" style="stop-color:#F8DACD"/>
										<stop  offset="1" style="stop-color:#F8DACD;stop-opacity:0"/>
									</linearGradient>
									<path class="st12" d="M18.9,58.1c-0.3-0.1-0.4-0.1-0.5-0.3c-0.1-0.1-0.1-0.3-0.1-0.6c0.1-1.4,0-2.4-0.6-3.1
										c0,0,0-0.1,0-0.1c0,0,0,0,0,0c0,0,0,0,0,0c0.2,0.1,0.3,0.2,0.4,0.4c0.7,0.8,0.9,1.9,0.7,3.4C18.9,57.9,18.9,58,18.9,58.1
										C18.9,58,18.9,58.1,18.9,58.1C18.9,58.1,18.9,58.1,18.9,58.1C18.9,58.1,18.9,58.1,18.9,58.1z"/>
									<path class="st2" d="M17.8,54c0.1,0.1,0.3,0.2,0.4,0.4c0.6,0.8,0.9,1.9,0.7,3.4c0,0.1,0,0.2,0,0.2
										c-0.3-0.1-0.4-0.2-0.5-0.3c-0.1-0.1-0.1-0.3-0.1-0.5C18.5,55.9,18.3,54.8,17.8,54 M17.8,53.9
										C17.7,53.9,17.7,53.9,17.8,53.9c-0.1,0.1-0.1,0.1-0.1,0.2c0.5,0.7,0.7,1.8,0.5,3.1c0,0.3,0,0.5,0.1,0.6
										c0.1,0.2,0.3,0.3,0.6,0.3c0,0,0,0,0,0c0,0,0,0,0.1,0c0,0,0-0.1,0-0.1c0-0.1,0-0.1,0-0.2c0.2-1.5-0.1-2.7-0.7-3.5
										C18.1,54.2,18,54.1,17.8,53.9C17.8,53.9,17.8,53.9,17.8,53.9L17.8,53.9z"/>
								</g>
								<g id="XMLID_40_">
									
										<linearGradient id="SVGID_7_" gradientUnits="userSpaceOnUse" x1="1437.6986" y1="79.3671" x2="1464.8966" y2="51.5941" gradientTransform="matrix(1 0 0 1 -1448.6475 0)">
										<stop  offset="0" style="stop-color:#FFFAF7;stop-opacity:1.000000e-02"/>
										<stop  offset="0.4233" style="stop-color:#F8DACD"/>
										<stop  offset="0.816" style="stop-color:#F8DACD"/>
										<stop  offset="1" style="stop-color:#FFFAF7;stop-opacity:1.000000e-02"/>
									</linearGradient>
									<path class="st13" d="M9.4,64.1C9.4,64.1,9.4,64.1,9.4,64.1c-1.9-1.8-2.8-3.9-2.8-6.5c0-6.1,4.9-8.3,9.1-8.3
										c0.7,0,1.5,0.1,2.3,0.2c2,0.3,3.7,1.3,4.9,2.7c0,0,0,0.1,0,0.1c0,0,0,0,0,0c0,0,0,0,0,0c-1.2-1.1-2.7-1.8-4.3-2.1
										C17.7,50,17,50,16.2,50c-4.1,0-9,2.1-9,8.2C7.3,60.5,8,62.4,9.4,64.1C9.5,64.1,9.5,64.1,9.4,64.1
										C9.4,64.1,9.4,64.1,9.4,64.1z"/>
									<path class="st2" d="M15.7,49.3c0.7,0,1.5,0.1,2.3,0.2c2.1,0.4,3.8,1.4,4.9,2.7c-1.1-1-2.5-1.8-4.3-2.1
										c-0.8-0.1-1.5-0.2-2.3-0.2c-4.2,0-9,2.2-9,8.2c0,2.6,0.9,4.5,2.2,5.9c-1.6-1.5-2.8-3.5-2.8-6.5
										C6.6,51.5,11.5,49.3,15.7,49.3 M15.7,49.2c-4.2,0-9.1,2.2-9.1,8.3c0,2.6,0.9,4.8,2.8,6.6c0,0,0,0,0.1,0c0,0,0.1,0,0.1,0
										c0,0,0-0.1,0-0.2c-1.5-1.6-2.2-3.5-2.2-5.8c0-6,4.8-8.1,8.9-8.1c0.7,0,1.5,0.1,2.2,0.2c1.7,0.3,3.1,1,4.3,2.1
										c0,0,0,0,0.1,0c0,0,0.1,0,0.1,0c0,0,0-0.1,0-0.2c-1.2-1.4-3-2.4-5-2.7C17.2,49.3,16.4,49.2,15.7,49.2L15.7,49.2z"/>
								</g>
								<g id="XMLID_39_">
									
										<linearGradient id="SVGID_8_" gradientUnits="userSpaceOnUse" x1="1458.3516" y1="78.7682" x2="1458.3516" y2="49.1425" gradientTransform="matrix(1 0 0 1 -1448.6475 0)">
										<stop  offset="0" style="stop-color:#FFFAF7;stop-opacity:1.000000e-02"/>
										<stop  offset="0.4233" style="stop-color:#F8DACD"/>
										<stop  offset="0.816" style="stop-color:#F8DACD"/>
										<stop  offset="1" style="stop-color:#FFFAF7;stop-opacity:1.000000e-02"/>
									</linearGradient>
									<path class="st14" d="M8.6,77C8.5,77,8.5,77,8.6,77c-1.9-1.8-2.2-4.1-2.2-5.3c0-1,0.6-1.3,0.7-1.3l4.8,0
										c0.6,0,0.9,0.1,1.1,0.3c0.1,0.1,0.1,0.3,0.1,0.4c0,0,0,0,0,0c0,0,0,0,0,0c0,0,0,0,0,0c-0.2,0-0.4-0.1-0.6-0.1l-4.8,0
										c-0.1,0-0.6,0.2-0.6,1.2C7,73.3,7.2,75.3,8.6,77C8.6,76.9,8.6,76.9,8.6,77C8.6,77,8.6,77,8.6,77z"/>
									<path class="st2" d="M11.9,70.4c0.6,0,0.9,0.1,1,0.3C13,70.8,13,70.9,13,71c-0.2,0-0.3-0.1-0.6-0.1l-4.8,0
										C7.5,71,7,71.2,7,72.2c0,1.2,0.2,3.1,1.6,4.7c-1.9-1.7-2.2-4-2.2-5.3c0-1,0.6-1.2,0.7-1.3L11.9,70.4 M11.9,70.3L11.9,70.3
										l-4.8,0c0,0,0,0,0,0c-0.1,0-0.7,0.3-0.7,1.4c0,1.3,0.3,3.6,2.2,5.4c0,0,0,0,0.1,0c0,0,0.1,0,0.1,0c0,0,0-0.1,0-0.2
										c-1.4-1.6-1.6-3.6-1.6-4.6c0-0.9,0.5-1.1,0.6-1.1l4.8,0c0.2,0,0.4,0,0.6,0c0,0,0,0,0,0c0,0,0.1,0,0.1,0c0,0,0-0.1,0-0.1
										c0-0.1,0-0.3-0.1-0.4C12.8,70.4,12.5,70.3,11.9,70.3L11.9,70.3z"/>
								</g>
								<g id="XMLID_38_">
									
										<linearGradient id="SVGID_9_" gradientUnits="userSpaceOnUse" x1="1465.4027" y1="77.3625" x2="1465.4027" y2="51.4998" gradientTransform="matrix(1 0 0 1 -1448.6475 0)">
										<stop  offset="0" style="stop-color:#FFFAF7;stop-opacity:1.000000e-02"/>
										<stop  offset="0.3252" style="stop-color:#F8DACD"/>
										<stop  offset="0.816" style="stop-color:#F8DACD"/>
										<stop  offset="1" style="stop-color:#FFFAF7;stop-opacity:1.000000e-02"/>
									</linearGradient>
									<path class="st15" d="M16.5,75.8c-0.4,0-1.4-0.1-2.2-1c-0.1-0.1-0.1-0.2-0.2-0.3c0,0,0-0.1,0-0.1c0,0,0,0,0,0c0,0,0,0,0,0
										c0.7,0.5,1.4,0.6,1.7,0.6l0.1,0c0.6,0,1.4-0.1,2-0.8c0.5-0.5,0.7-1.3,0.7-2.4c0-0.7-0.3-1.3-0.8-1.9c0,0,0-0.1,0-0.1
										c0,0,0,0,0,0c0,0,0,0,0,0c0.9,0.8,1.3,1.6,1.4,2.5c0.1,1.1-0.2,1.9-0.7,2.5c-0.6,0.7-1.5,0.8-2.1,0.8
										C16.6,75.8,16.5,75.8,16.5,75.8z"/>
									<path class="st2" d="M17.9,70c0.8,0.7,1.3,1.5,1.4,2.5c0.1,1-0.2,1.9-0.7,2.4c-0.6,0.7-1.4,0.8-2,0.8l-0.1,0
										c-0.4,0-1.4-0.1-2.1-0.9c-0.1-0.1-0.1-0.2-0.2-0.2c0.7,0.5,1.4,0.6,1.8,0.6l0.1,0c0.6,0,1.4-0.1,2-0.8
										c0.5-0.6,0.7-1.4,0.7-2.4C18.7,71.2,18.4,70.6,17.9,70 M17.9,69.9C17.9,69.9,17.9,69.9,17.9,69.9c-0.1,0.1-0.1,0.1-0.1,0.2
										c0.5,0.6,0.7,1.2,0.8,1.8c0.1,1-0.2,1.8-0.6,2.3c-0.6,0.6-1.4,0.8-1.9,0.8l-0.1,0c-0.3,0-1-0.1-1.7-0.6c0,0,0,0-0.1,0
										c0,0-0.1,0-0.1,0c0,0,0,0.1,0,0.1c0.1,0.1,0.1,0.2,0.2,0.3c0.8,0.8,1.8,1,2.2,1l0.1,0c0.6,0,1.5-0.1,2.1-0.8
										c0.5-0.6,0.8-1.4,0.7-2.5C19.4,71.6,18.9,70.8,17.9,69.9C18,69.9,18,69.9,17.9,69.9L17.9,69.9z"/>
								</g>
								<g id="XMLID_19_">
									
										<linearGradient id="SVGID_10_" gradientUnits="userSpaceOnUse" x1="1467.0905" y1="79.0076" x2="1467.0905" y2="49.3261" gradientTransform="matrix(1 0 0 1 -1448.6475 0)">
										<stop  offset="0" style="stop-color:#F8DACD;stop-opacity:0"/>
										<stop  offset="0.4233" style="stop-color:#F8DACD"/>
										<stop  offset="0.816" style="stop-color:#F8DACD"/>
										<stop  offset="1" style="stop-color:#F8DACD;stop-opacity:0"/>
									</linearGradient>
									<path class="st16" d="M22.7,64.4C22.7,64.4,22.7,64.4,22.7,64.4c-0.7-0.7-1.6-1.3-2.6-1.9c-3.1-1.8-5-2.9-5.9-4
										c0,0,0-0.1,0-0.1c0,0,0,0,0,0c0,0,0,0,0,0c1,0.9,2.8,2,5.3,3.4C20.9,62.6,21.9,63.4,22.7,64.4
										C22.7,64.4,22.7,64.4,22.7,64.4C22.7,64.4,22.7,64.4,22.7,64.4z"/>
									<path class="st2" d="M14.2,58.4c1,0.9,2.8,2,5.3,3.5c1.3,0.8,2.4,1.6,3.2,2.5c-0.7-0.7-1.6-1.3-2.6-1.9
										C17,60.7,15.1,59.5,14.2,58.4 M14.2,58.3C14.2,58.3,14.1,58.3,14.2,58.3c-0.1,0.1-0.1,0.1-0.1,0.2c0.9,1.1,2.9,2.3,5.9,4.1
										c1,0.6,1.9,1.2,2.6,1.9c0,0,0,0,0.1,0s0.1,0,0.1,0c0,0,0-0.1,0-0.2c-0.8-0.9-1.8-1.7-3.2-2.5C17,60.3,15.3,59.3,14.2,58.3
										C14.3,58.3,14.2,58.3,14.2,58.3L14.2,58.3z"/>
								</g>
								<g id="XMLID_11_">
									
										<linearGradient id="SVGID_11_" gradientUnits="userSpaceOnUse" x1="1512.0887" y1="80.7328" x2="1530.9489" y2="59.5638" gradientTransform="matrix(1 0 0 1 -1448.6475 0)">
										<stop  offset="0" style="stop-color:#FFFAF7;stop-opacity:1.000000e-02"/>
										<stop  offset="0.4233" style="stop-color:#F8DACD"/>
										<stop  offset="0.816" style="stop-color:#F8DACD"/>
										<stop  offset="1" style="stop-color:#FFFAF7;stop-opacity:1.000000e-02"/>
									</linearGradient>
									<path class="st17" d="M75.1,77C75.1,77,75.1,76.9,75.1,77c-2.1-2-3.2-5.2-3.2-9.3c0-7.3,3.4-11.5,9.3-11.5
										c2.8,0,5,0.9,6.6,2.8c0,0,0,0.1,0,0.1c0,0,0,0,0,0c0,0,0,0,0,0c-1.5-1.4-3.5-2.1-6-2.1c-5.8,0-9.1,4.1-9.1,11.3
										C72.6,71.9,73.5,74.9,75.1,77C75.2,76.9,75.2,76.9,75.1,77C75.2,76.9,75.1,77,75.1,77z"/>
									<path class="st2" d="M81.1,56.3c2.8,0,5,1,6.6,2.7c-1.5-1.4-3.5-2.2-6-2.2c-5.8,0-9.2,4.2-9.2,11.4c0,3.8,0.9,6.7,2.6,8.7
										c-2.1-1.9-3.2-5.1-3.2-9.2C71.9,60.4,75.3,56.3,81.1,56.3 M81.1,56.1c-5.9,0-9.3,4.2-9.3,11.5c0,4.1,1.1,7.4,3.2,9.3
										c0,0,0,0,0.1,0c0,0,0.1,0,0.1,0c0,0,0-0.1,0-0.2c-1.7-1.9-2.6-4.9-2.6-8.6c0-7.2,3.3-11.3,9.1-11.3c2.4,0,4.4,0.7,5.9,2.1
										c0,0,0,0,0.1,0c0,0,0.1,0,0.1,0c0,0,0-0.1,0-0.2C86.2,57.1,83.9,56.1,81.1,56.1L81.1,56.1z"/>
								</g>
								<g id="XMLID_6_">
									
										<linearGradient id="SVGID_12_" gradientUnits="userSpaceOnUse" x1="1531.0135" y1="78.7555" x2="1531.0135" y2="56.2564" gradientTransform="matrix(1 0 0 1 -1448.6475 0)">
										<stop  offset="0" style="stop-color:#FFFAF7;stop-opacity:1.000000e-02"/>
										<stop  offset="0.4233" style="stop-color:#F8DACD"/>
										<stop  offset="0.816" style="stop-color:#F8DACD"/>
										<stop  offset="1" style="stop-color:#FFFAF7;stop-opacity:1.000000e-02"/>
									</linearGradient>
									<path class="st18" d="M81.7,76.2c-0.7,0-1.3-0.3-1.8-1c0,0,0-0.1,0-0.1c0,0,0,0,0,0c0,0,0,0,0,0c0.3,0.3,0.7,0.4,1.2,0.4
										c2.5,0,3-4.2,3-7.7c0-2.3-0.2-5.3-1.3-6.8c0,0,0-0.1,0-0.1c0,0,0,0,0,0c0,0,0,0,0,0c1.6,1.2,1.9,4.7,1.9,7.4
										C84.8,71.9,84.3,76.2,81.7,76.2z"/>
									<path class="st2" d="M82.9,61c1.5,1.1,1.9,4.5,1.9,7.4c0,3.6-0.5,7.8-3.1,7.8c-0.7,0-1.3-0.4-1.8-1
										c0.3,0.2,0.7,0.4,1.2,0.4c2.6,0,3.1-4.2,3.1-7.8C84.2,65.3,84,62.4,82.9,61 M82.9,60.9C82.9,60.9,82.8,60.9,82.9,60.9
										c-0.1,0.1-0.1,0.1-0.1,0.2c1.1,1.5,1.3,4.5,1.3,6.7c0,6.3-1.6,7.7-3,7.7c-0.4,0-0.8-0.1-1.1-0.4c0,0,0,0-0.1,0
										c0,0-0.1,0-0.1,0c0,0,0,0.1,0,0.1c0.5,0.7,1.1,1,1.8,1c2.6,0,3.2-4.3,3.2-7.9C84.9,65.6,84.6,62.1,82.9,60.9
										C82.9,60.9,82.9,60.9,82.9,60.9L82.9,60.9z"/>
								</g>
							</g>
							<g id="XMLID_14_">
								
									<linearGradient id="SVGID_13_" gradientUnits="userSpaceOnUse" x1="1484.0175" y1="79.5774" x2="1484.0175" y2="56.2259" gradientTransform="matrix(1 0 0 1 -1448.6475 0)">
									<stop  offset="0" style="stop-color:#FFFAF7;stop-opacity:1.000000e-02"/>
									<stop  offset="0.4233" style="stop-color:#F8DACD"/>
									<stop  offset="0.816" style="stop-color:#F8DACD"/>
									<stop  offset="1" style="stop-color:#FFFAF7;stop-opacity:1.000000e-02"/>
								</linearGradient>
								<path class="st19" d="M34.8,76.1c-0.7,0-1.3-0.3-1.8-1c0,0,0-0.1,0-0.1c0,0,0,0,0,0c0,0,0,0,0,0c0.3,0.2,0.7,0.3,1.1,0.3
									c0.1,0,0.2,0,0.4,0c1.5-0.2,2.4-1.7,2.4-3.9v-3.9c0,0,0,0,0-0.1c0,0,0.1,0,0.1-0.1l0,0l0.4-0.2c0,0,0,0,0,0c0,0,0,0,0,0
									c0,0,0,0,0,0V72c0,2.3-0.9,3.8-2.5,4C35.1,76.1,34.9,76.1,34.8,76.1z"/>
								<path class="st2" d="M37.6,67.4V72c0,2.3-0.9,3.7-2.5,4c-0.1,0-0.3,0-0.4,0c-0.7,0-1.3-0.3-1.7-0.9c0.3,0.2,0.7,0.4,1.1,0.4
									c0.1,0,0.2,0,0.4,0c1.5-0.2,2.5-1.7,2.5-4v-3.9c0.1,0,0.1,0,0.2-0.1L37.6,67.4 M37.6,67.3C37.6,67.3,37.6,67.3,37.6,67.3
									l-0.4,0.2l-0.1,0c0,0-0.1,0-0.1,0.1c0,0-0.1,0.1-0.1,0.1v3.9c0,2.2-0.9,3.6-2.4,3.8c-0.1,0-0.2,0-0.4,0
									c-0.4,0-0.8-0.1-1.1-0.3c0,0,0,0-0.1,0c0,0-0.1,0-0.1,0c0,0,0,0.1,0,0.1c0.4,0.6,1,1,1.8,1c0.1,0,0.3,0,0.4,0
									c1.6-0.2,2.6-1.7,2.6-4.1v-4.7C37.8,67.3,37.7,67.3,37.6,67.3C37.7,67.3,37.7,67.3,37.6,67.3L37.6,67.3z"/>
							</g>
						</g>
						<g id="XMLID_12_">
							<path class="st20" d="M37.9,78.4c-0.2,0-0.3,0-0.4-0.3c0,0,0,0,0,0c0,0,0.5-0.3,0.5-0.3l0,0.5c0,0,0,0,0,0.1c0,0,0,0,0,0.1
								c0,0,0,0,0,0C38.1,78.4,38,78.4,37.9,78.4L37.9,78.4z"/>
							<path class="st20" d="M38,77.7l0,0.5c0,0,0,0.1,0,0.1h-0.1c-0.2,0-0.3-0.1-0.4-0.3c0,0,0,0,0.1,0L38,77.7 M38,77.7
								C38,77.7,38,77.7,38,77.7L37.6,78c0,0,0,0,0,0l0,0c0,0,0,0,0,0c0.1,0.2,0.2,0.3,0.4,0.3H38c0,0,0,0,0,0c0,0,0,0,0,0
								c0,0,0,0,0-0.1c0,0,0,0,0-0.1L38,77.7C38,77.7,38,77.7,38,77.7C38,77.7,38,77.7,38,77.7L38,77.7z"/>
						</g>
					</g>
				</g>
			</g>
		</g>
		<polygon class="st0" points="10.4,66.4 13,67.7 13,69.3 10.5,69.2 		"/>
		<path class="st0" d="M17.2,72c0,0.9-0.7,1.6-1.6,1.6c-0.9,0-1.6-0.7-1.6-1.6c0-0.9,0.7-1.6,1.6-1.6C16.5,70.4,17.2,71.1,17.2,72z"
			/>
	</g>
	<ellipse class="st0" cx="81.5" cy="67.9" rx="1.5" ry="6"/>
	<g id="_x37_29050-1_Fairy_x5F_Drop_x5F_A_x5F_FPO.psd_4_">
		<defs>
			<path id="SVGID_14_" d="M52,20.9C49.7,17,48.4,14,48.4,14s0,0,0,0c0,0-0.1,0-0.1,0s-1.3,3-3.6,6.9c-2.8,4.8-6.8,9.2-6.8,14.6
				c0,6.7,5.4,10.4,10.4,10.4h0c5,0,10.4-3.7,10.4-10.4C58.8,30.2,54.9,25.7,52,20.9z"/>
		</defs>
		<clipPath id="SVGID_15_">
			<use xlink:href="#SVGID_14_"  style="overflow:visible;"/>
		</clipPath>
		<g transform="matrix(7.431501e-03 0 0 7.431501e-03 34.9822 11.3764)" style="clip-path:url(#SVGID_15_);">
			
				<image style="overflow:visible;" width="3793" height="4962" id="_x37_29050-1_Fairy_x5F_Drop_x5F_A_x5F_FPO_2_" xlink:href="C789BD2B.png"  transform="matrix(7.431501e-03 0 0 7.431501e-03 34.9822 11.3764)">
			</image>
		</g>
	</g>
</g>
</svg>
